G04 #@! TF.GenerationSoftware,KiCad,Pcbnew,(5.0.0)*
G04 #@! TF.CreationDate,2020-11-20T21:13:12-05:00*
G04 #@! TF.ProjectId,WS2812B Mini Clock,57533238313242204D696E6920436C6F,rev?*
G04 #@! TF.SameCoordinates,Original*
G04 #@! TF.FileFunction,Paste,Top*
G04 #@! TF.FilePolarity,Positive*
%FSLAX46Y46*%
G04 Gerber Fmt 4.6, Leading zero omitted, Abs format (unit mm)*
G04 Created by KiCad (PCBNEW (5.0.0)) date 11/20/20 21:13:12*
%MOMM*%
%LPD*%
G01*
G04 APERTURE LIST*
%ADD10R,1.100000X0.900000*%
G04 APERTURE END LIST*
D10*
G04 #@! TO.C,U71*
X195200000Y-86150000D03*
X195200000Y-88350000D03*
X192800000Y-88350000D03*
X192800000Y-86150000D03*
G04 #@! TD*
G04 #@! TO.C,U54*
X150950000Y-86150000D03*
X150950000Y-88350000D03*
X148550000Y-88350000D03*
X148550000Y-86150000D03*
G04 #@! TD*
G04 #@! TO.C,U58*
X150950000Y-109650000D03*
X150950000Y-111850000D03*
X148550000Y-111850000D03*
X148550000Y-109650000D03*
G04 #@! TD*
G04 #@! TO.C,U49*
X150950000Y-95650000D03*
X150950000Y-97850000D03*
X148550000Y-97850000D03*
X148550000Y-95650000D03*
G04 #@! TD*
G04 #@! TO.C,U59*
X150950000Y-76650000D03*
X150950000Y-78850000D03*
X148550000Y-78850000D03*
X148550000Y-76650000D03*
G04 #@! TD*
G04 #@! TO.C,U53*
X150950000Y-119150000D03*
X150950000Y-121350000D03*
X148550000Y-121350000D03*
X148550000Y-119150000D03*
G04 #@! TD*
G04 #@! TO.C,U89*
X221200000Y-102650000D03*
X221200000Y-104850000D03*
X218800000Y-104850000D03*
X218800000Y-102650000D03*
G04 #@! TD*
G04 #@! TO.C,U80*
X221200000Y-135650000D03*
X221200000Y-137850000D03*
X218800000Y-137850000D03*
X218800000Y-135650000D03*
G04 #@! TD*
G04 #@! TO.C,U86*
X228200000Y-95650000D03*
X228200000Y-97850000D03*
X225800000Y-97850000D03*
X225800000Y-95650000D03*
G04 #@! TD*
G04 #@! TO.C,U67*
X202200000Y-69650000D03*
X202200000Y-71850000D03*
X199800000Y-71850000D03*
X199800000Y-69650000D03*
G04 #@! TD*
G04 #@! TO.C,U82*
X228200000Y-86150000D03*
X228200000Y-88350000D03*
X225800000Y-88350000D03*
X225800000Y-86150000D03*
G04 #@! TD*
G04 #@! TO.C,U72*
X211700000Y-69650000D03*
X211700000Y-71850000D03*
X209300000Y-71850000D03*
X209300000Y-69650000D03*
G04 #@! TD*
G04 #@! TO.C,U87*
X228200000Y-128650000D03*
X228200000Y-130850000D03*
X225800000Y-130850000D03*
X225800000Y-128650000D03*
G04 #@! TD*
G04 #@! TO.C,U83*
X228200000Y-119150000D03*
X228200000Y-121350000D03*
X225800000Y-121350000D03*
X225800000Y-119150000D03*
G04 #@! TD*
G04 #@! TO.C,U79*
X228200000Y-109650000D03*
X228200000Y-111850000D03*
X225800000Y-111850000D03*
X225800000Y-109650000D03*
G04 #@! TD*
G04 #@! TO.C,U66*
X195200000Y-95650000D03*
X195200000Y-97850000D03*
X192800000Y-97850000D03*
X192800000Y-95650000D03*
G04 #@! TD*
G04 #@! TO.C,U76*
X195200000Y-76650000D03*
X195200000Y-78850000D03*
X192800000Y-78850000D03*
X192800000Y-76650000D03*
G04 #@! TD*
G04 #@! TO.C,U85*
X211700000Y-102650000D03*
X211700000Y-104850000D03*
X209300000Y-104850000D03*
X209300000Y-102650000D03*
G04 #@! TD*
G04 #@! TO.C,U81*
X202200000Y-102650000D03*
X202200000Y-104850000D03*
X199800000Y-104850000D03*
X199800000Y-102650000D03*
G04 #@! TD*
G04 #@! TO.C,U88*
X202200000Y-135650000D03*
X202200000Y-137850000D03*
X199800000Y-137850000D03*
X199800000Y-135650000D03*
G04 #@! TD*
G04 #@! TO.C,U78*
X228200000Y-76650000D03*
X228200000Y-78850000D03*
X225800000Y-78850000D03*
X225800000Y-76650000D03*
G04 #@! TD*
G04 #@! TO.C,U75*
X195200000Y-109650000D03*
X195200000Y-111850000D03*
X192800000Y-111850000D03*
X192800000Y-109650000D03*
G04 #@! TD*
G04 #@! TO.C,U77*
X221200000Y-69650000D03*
X221200000Y-71850000D03*
X218800000Y-71850000D03*
X218800000Y-69650000D03*
G04 #@! TD*
G04 #@! TO.C,U84*
X211700000Y-135650000D03*
X211700000Y-137850000D03*
X209300000Y-137850000D03*
X209300000Y-135650000D03*
G04 #@! TD*
G04 #@! TO.C,U50*
X157950000Y-69650000D03*
X157950000Y-71850000D03*
X155550000Y-71850000D03*
X155550000Y-69650000D03*
G04 #@! TD*
G04 #@! TO.C,U73*
X157950000Y-135650000D03*
X157950000Y-137850000D03*
X155550000Y-137850000D03*
X155550000Y-135650000D03*
G04 #@! TD*
G04 #@! TO.C,U56*
X183950000Y-86150000D03*
X183950000Y-88350000D03*
X181550000Y-88350000D03*
X181550000Y-86150000D03*
G04 #@! TD*
G04 #@! TO.C,U65*
X195200000Y-128650000D03*
X195200000Y-130850000D03*
X192800000Y-130850000D03*
X192800000Y-128650000D03*
G04 #@! TD*
G04 #@! TO.C,U57*
X183950000Y-119150000D03*
X183950000Y-121350000D03*
X181550000Y-121350000D03*
X181550000Y-119150000D03*
G04 #@! TD*
G04 #@! TO.C,U55*
X167450000Y-69650000D03*
X167450000Y-71850000D03*
X165050000Y-71850000D03*
X165050000Y-69650000D03*
G04 #@! TD*
G04 #@! TO.C,U62*
X183950000Y-128650000D03*
X183950000Y-130850000D03*
X181550000Y-130850000D03*
X181550000Y-128650000D03*
G04 #@! TD*
G04 #@! TO.C,U48*
X150950000Y-128650000D03*
X150950000Y-130850000D03*
X148550000Y-130850000D03*
X148550000Y-128650000D03*
G04 #@! TD*
G04 #@! TO.C,U51*
X183950000Y-76650000D03*
X183950000Y-78850000D03*
X181550000Y-78850000D03*
X181550000Y-76650000D03*
G04 #@! TD*
G04 #@! TO.C,U64*
X157950000Y-102650000D03*
X157950000Y-104850000D03*
X155550000Y-104850000D03*
X155550000Y-102650000D03*
G04 #@! TD*
G04 #@! TO.C,U70*
X195200000Y-119150000D03*
X195200000Y-121350000D03*
X192800000Y-121350000D03*
X192800000Y-119150000D03*
G04 #@! TD*
G04 #@! TO.C,U63*
X176950000Y-135650000D03*
X176950000Y-137850000D03*
X174550000Y-137850000D03*
X174550000Y-135650000D03*
G04 #@! TD*
G04 #@! TO.C,U74*
X176950000Y-102650000D03*
X176950000Y-104850000D03*
X174550000Y-104850000D03*
X174550000Y-102650000D03*
G04 #@! TD*
G04 #@! TO.C,U68*
X167450000Y-135650000D03*
X167450000Y-137850000D03*
X165050000Y-137850000D03*
X165050000Y-135650000D03*
G04 #@! TD*
G04 #@! TO.C,U52*
X183950000Y-109650000D03*
X183950000Y-111850000D03*
X181550000Y-111850000D03*
X181550000Y-109650000D03*
G04 #@! TD*
G04 #@! TO.C,U61*
X183950000Y-95650000D03*
X183950000Y-97850000D03*
X181550000Y-97850000D03*
X181550000Y-95650000D03*
G04 #@! TD*
G04 #@! TO.C,U60*
X176950000Y-69650000D03*
X176950000Y-71850000D03*
X174550000Y-71850000D03*
X174550000Y-69650000D03*
G04 #@! TD*
G04 #@! TO.C,U69*
X167450000Y-102650000D03*
X167450000Y-104850000D03*
X165050000Y-104850000D03*
X165050000Y-102650000D03*
G04 #@! TD*
G04 #@! TO.C,U6*
X52050000Y-76650000D03*
X52050000Y-78850000D03*
X54450000Y-78850000D03*
X54450000Y-76650000D03*
G04 #@! TD*
G04 #@! TO.C,U3*
X52050000Y-109650000D03*
X52050000Y-111850000D03*
X54450000Y-111850000D03*
X54450000Y-109650000D03*
G04 #@! TD*
G04 #@! TO.C,U4*
X52050000Y-95650000D03*
X52050000Y-97850000D03*
X54450000Y-97850000D03*
X54450000Y-95650000D03*
G04 #@! TD*
G04 #@! TO.C,U5*
X52050000Y-86150000D03*
X52050000Y-88350000D03*
X54450000Y-88350000D03*
X54450000Y-86150000D03*
G04 #@! TD*
G04 #@! TO.C,U2*
X52050000Y-119150000D03*
X52050000Y-121350000D03*
X54450000Y-121350000D03*
X54450000Y-119150000D03*
G04 #@! TD*
G04 #@! TO.C,U1*
X52050000Y-128650000D03*
X52050000Y-130850000D03*
X54450000Y-130850000D03*
X54450000Y-128650000D03*
G04 #@! TD*
G04 #@! TO.C,U7*
X59050000Y-69650000D03*
X59050000Y-71850000D03*
X61450000Y-71850000D03*
X61450000Y-69650000D03*
G04 #@! TD*
G04 #@! TO.C,U8*
X68550000Y-69650000D03*
X68550000Y-71850000D03*
X70950000Y-71850000D03*
X70950000Y-69650000D03*
G04 #@! TD*
G04 #@! TO.C,U9*
X78050000Y-69650000D03*
X78050000Y-71850000D03*
X80450000Y-71850000D03*
X80450000Y-69650000D03*
G04 #@! TD*
G04 #@! TO.C,U10*
X85050000Y-76650000D03*
X85050000Y-78850000D03*
X87450000Y-78850000D03*
X87450000Y-76650000D03*
G04 #@! TD*
G04 #@! TO.C,U11*
X85050000Y-86150000D03*
X85050000Y-88350000D03*
X87450000Y-88350000D03*
X87450000Y-86150000D03*
G04 #@! TD*
G04 #@! TO.C,U12*
X85050000Y-95650000D03*
X85050000Y-97850000D03*
X87450000Y-97850000D03*
X87450000Y-95650000D03*
G04 #@! TD*
G04 #@! TO.C,U13*
X85050000Y-109650000D03*
X85050000Y-111850000D03*
X87450000Y-111850000D03*
X87450000Y-109650000D03*
G04 #@! TD*
G04 #@! TO.C,U14*
X85050000Y-119150000D03*
X85050000Y-121350000D03*
X87450000Y-121350000D03*
X87450000Y-119150000D03*
G04 #@! TD*
G04 #@! TO.C,U15*
X85050000Y-128650000D03*
X85050000Y-130850000D03*
X87450000Y-130850000D03*
X87450000Y-128650000D03*
G04 #@! TD*
G04 #@! TO.C,U16*
X78050000Y-135650000D03*
X78050000Y-137850000D03*
X80450000Y-137850000D03*
X80450000Y-135650000D03*
G04 #@! TD*
G04 #@! TO.C,U17*
X68550000Y-135650000D03*
X68550000Y-137850000D03*
X70950000Y-137850000D03*
X70950000Y-135650000D03*
G04 #@! TD*
G04 #@! TO.C,U18*
X59050000Y-135650000D03*
X59050000Y-137850000D03*
X61450000Y-137850000D03*
X61450000Y-135650000D03*
G04 #@! TD*
G04 #@! TO.C,U19*
X59050000Y-102650000D03*
X59050000Y-104850000D03*
X61450000Y-104850000D03*
X61450000Y-102650000D03*
G04 #@! TD*
G04 #@! TO.C,U20*
X68550000Y-102650000D03*
X68550000Y-104850000D03*
X70950000Y-104850000D03*
X70950000Y-102650000D03*
G04 #@! TD*
G04 #@! TO.C,U21*
X78050000Y-102650000D03*
X78050000Y-104850000D03*
X80450000Y-104850000D03*
X80450000Y-102650000D03*
G04 #@! TD*
G04 #@! TO.C,U22*
X96300000Y-128650000D03*
X96300000Y-130850000D03*
X98700000Y-130850000D03*
X98700000Y-128650000D03*
G04 #@! TD*
G04 #@! TO.C,U23*
X96300000Y-119150000D03*
X96300000Y-121350000D03*
X98700000Y-121350000D03*
X98700000Y-119150000D03*
G04 #@! TD*
G04 #@! TO.C,U27*
X96300000Y-109650000D03*
X96300000Y-111850000D03*
X98700000Y-111850000D03*
X98700000Y-109650000D03*
G04 #@! TD*
G04 #@! TO.C,U28*
X96300000Y-95650000D03*
X96300000Y-97850000D03*
X98700000Y-97850000D03*
X98700000Y-95650000D03*
G04 #@! TD*
G04 #@! TO.C,U29*
X96300000Y-86150000D03*
X96300000Y-88350000D03*
X98700000Y-88350000D03*
X98700000Y-86150000D03*
G04 #@! TD*
G04 #@! TO.C,U30*
X96300000Y-76650000D03*
X96300000Y-78850000D03*
X98700000Y-78850000D03*
X98700000Y-76650000D03*
G04 #@! TD*
G04 #@! TO.C,U31*
X103300000Y-69650000D03*
X103300000Y-71850000D03*
X105700000Y-71850000D03*
X105700000Y-69650000D03*
G04 #@! TD*
G04 #@! TO.C,U32*
X112800000Y-69650000D03*
X112800000Y-71850000D03*
X115200000Y-71850000D03*
X115200000Y-69650000D03*
G04 #@! TD*
G04 #@! TO.C,U33*
X122300000Y-69650000D03*
X122300000Y-71850000D03*
X124700000Y-71850000D03*
X124700000Y-69650000D03*
G04 #@! TD*
G04 #@! TO.C,U34*
X129300000Y-76650000D03*
X129300000Y-78850000D03*
X131700000Y-78850000D03*
X131700000Y-76650000D03*
G04 #@! TD*
G04 #@! TO.C,U35*
X129300000Y-86150000D03*
X129300000Y-88350000D03*
X131700000Y-88350000D03*
X131700000Y-86150000D03*
G04 #@! TD*
G04 #@! TO.C,U36*
X129300000Y-95650000D03*
X129300000Y-97850000D03*
X131700000Y-97850000D03*
X131700000Y-95650000D03*
G04 #@! TD*
G04 #@! TO.C,U37*
X129300000Y-109650000D03*
X129300000Y-111850000D03*
X131700000Y-111850000D03*
X131700000Y-109650000D03*
G04 #@! TD*
G04 #@! TO.C,U38*
X129300000Y-119150000D03*
X129300000Y-121350000D03*
X131700000Y-121350000D03*
X131700000Y-119150000D03*
G04 #@! TD*
G04 #@! TO.C,U39*
X129300000Y-128650000D03*
X129300000Y-130850000D03*
X131700000Y-130850000D03*
X131700000Y-128650000D03*
G04 #@! TD*
G04 #@! TO.C,U40*
X122300000Y-135650000D03*
X122300000Y-137850000D03*
X124700000Y-137850000D03*
X124700000Y-135650000D03*
G04 #@! TD*
G04 #@! TO.C,U41*
X112800000Y-135650000D03*
X112800000Y-137850000D03*
X115200000Y-137850000D03*
X115200000Y-135650000D03*
G04 #@! TD*
G04 #@! TO.C,U42*
X103300000Y-135650000D03*
X103300000Y-137850000D03*
X105700000Y-137850000D03*
X105700000Y-135650000D03*
G04 #@! TD*
G04 #@! TO.C,U43*
X103300000Y-102650000D03*
X103300000Y-104850000D03*
X105700000Y-104850000D03*
X105700000Y-102650000D03*
G04 #@! TD*
G04 #@! TO.C,U44*
X112800000Y-102650000D03*
X112800000Y-104850000D03*
X115200000Y-104850000D03*
X115200000Y-102650000D03*
G04 #@! TD*
G04 #@! TO.C,U45*
X122300000Y-102650000D03*
X122300000Y-104850000D03*
X124700000Y-104850000D03*
X124700000Y-102650000D03*
G04 #@! TD*
G04 #@! TO.C,U46*
X139050000Y-97650000D03*
X139050000Y-99850000D03*
X141450000Y-99850000D03*
X141450000Y-97650000D03*
G04 #@! TD*
G04 #@! TO.C,U47*
X139050000Y-107650000D03*
X139050000Y-109850000D03*
X141450000Y-109850000D03*
X141450000Y-107650000D03*
G04 #@! TD*
M02*
