G04 #@! TF.GenerationSoftware,KiCad,Pcbnew,(5.0.0)*
G04 #@! TF.CreationDate,2020-08-08T12:19:43-04:00*
G04 #@! TF.ProjectId,WS2812 Clock,57533238313220436C6F636B2E6B6963,rev?*
G04 #@! TF.SameCoordinates,Original*
G04 #@! TF.FileFunction,Soldermask,Bot*
G04 #@! TF.FilePolarity,Negative*
%FSLAX46Y46*%
G04 Gerber Fmt 4.6, Leading zero omitted, Abs format (unit mm)*
G04 Created by KiCad (PCBNEW (5.0.0)) date 08/08/20 12:19:43*
%MOMM*%
%LPD*%
G01*
G04 APERTURE LIST*
%ADD10C,5.400000*%
%ADD11C,2.900000*%
%ADD12R,2.900000X1.825000*%
%ADD13R,1.100000X2.225000*%
%ADD14O,3.550000X1.700000*%
%ADD15R,1.800000X2.400000*%
%ADD16R,2.150000X0.800000*%
%ADD17R,1.950000X1.000000*%
%ADD18R,1.900000X1.650000*%
%ADD19R,1.650000X1.900000*%
%ADD20O,1.400000X1.400000*%
%ADD21R,1.400000X1.400000*%
%ADD22R,0.900000X1.300000*%
%ADD23C,2.400000*%
%ADD24R,2.100000X2.100000*%
%ADD25O,2.100000X2.100000*%
%ADD26R,1.900000X1.000000*%
%ADD27R,3.900000X3.900000*%
%ADD28R,2.400000X1.900000*%
%ADD29R,2.400000X4.200000*%
G04 APERTURE END LIST*
D10*
G04 #@! TO.C,REF\002A\002A*
X236000000Y-34200000D03*
G04 #@! TD*
G04 #@! TO.C,REF\002A\002A*
X180200000Y-34200000D03*
G04 #@! TD*
D11*
G04 #@! TO.C,U24*
X205000000Y-65000000D03*
X205000000Y-84500000D03*
G04 #@! TD*
D12*
G04 #@! TO.C,USB1*
X171750000Y-77500000D03*
D13*
X173710000Y-81490000D03*
D14*
X172480000Y-81225000D03*
D15*
X175030000Y-81925000D03*
D16*
X174825000Y-79800000D03*
D15*
X175030000Y-75075000D03*
D16*
X174825000Y-79150000D03*
X174825000Y-78500000D03*
X174825000Y-77850000D03*
X174825000Y-77200000D03*
D14*
X172480000Y-75775000D03*
D13*
X173710000Y-75510000D03*
D12*
X171750000Y-79500000D03*
G04 #@! TD*
D17*
G04 #@! TO.C,MCU1*
X194900000Y-102595000D03*
X194900000Y-103865000D03*
X194900000Y-105135000D03*
X194900000Y-106405000D03*
X187900000Y-106405000D03*
X187900000Y-105135000D03*
X187900000Y-103865000D03*
X187900000Y-102600000D03*
G04 #@! TD*
D18*
G04 #@! TO.C,C3*
X206250000Y-94000000D03*
X203750000Y-94000000D03*
G04 #@! TD*
G04 #@! TO.C,C4*
X185500000Y-109500000D03*
X183000000Y-109500000D03*
G04 #@! TD*
G04 #@! TO.C,C5*
X219250000Y-44500000D03*
X221750000Y-44500000D03*
G04 #@! TD*
G04 #@! TO.C,C6*
X191250000Y-45500000D03*
X188750000Y-45500000D03*
G04 #@! TD*
D19*
G04 #@! TO.C,C7*
X243750000Y-59500000D03*
X243750000Y-57000000D03*
G04 #@! TD*
D20*
G04 #@! TO.C,J1*
X196750000Y-90000000D03*
X196750000Y-88730000D03*
X195480000Y-90000000D03*
X195480000Y-88730000D03*
X194210000Y-90000000D03*
X194210000Y-88730000D03*
X192940000Y-90000000D03*
X192940000Y-88730000D03*
X191670000Y-90000000D03*
D21*
X191670000Y-88730000D03*
G04 #@! TD*
D22*
G04 #@! TO.C,R1*
X190320800Y-95402400D03*
X191820800Y-95402400D03*
G04 #@! TD*
G04 #@! TO.C,R2*
X239408400Y-73812400D03*
X237908400Y-73812400D03*
G04 #@! TD*
D23*
G04 #@! TO.C,SW1*
X242325001Y-42775001D03*
X246825001Y-42775001D03*
X242325001Y-36275001D03*
X246825001Y-36275001D03*
G04 #@! TD*
G04 #@! TO.C,SW2*
X246825001Y-45825001D03*
X242325001Y-45825001D03*
X246825001Y-52325001D03*
X242325001Y-52325001D03*
G04 #@! TD*
D24*
G04 #@! TO.C,CONN_LEFT_1*
X175250000Y-85140000D03*
D25*
X172710000Y-85140000D03*
X175250000Y-87680000D03*
X172710000Y-87680000D03*
X175250000Y-90220000D03*
X172710000Y-90220000D03*
X175250000Y-92760000D03*
X172710000Y-92760000D03*
X175250000Y-95300000D03*
X172710000Y-95300000D03*
X175250000Y-97840000D03*
X172710000Y-97840000D03*
X175250000Y-100380000D03*
X172710000Y-100380000D03*
X175250000Y-102920000D03*
X172710000Y-102920000D03*
X175250000Y-105460000D03*
X172710000Y-105460000D03*
X175250000Y-108000000D03*
X172710000Y-108000000D03*
G04 #@! TD*
G04 #@! TO.C,CONN_RIGHT_1*
X236250000Y-85140000D03*
X233710000Y-85140000D03*
X236250000Y-87680000D03*
X233710000Y-87680000D03*
X236250000Y-90220000D03*
X233710000Y-90220000D03*
X236250000Y-92760000D03*
X233710000Y-92760000D03*
X236250000Y-95300000D03*
X233710000Y-95300000D03*
X236250000Y-97840000D03*
X233710000Y-97840000D03*
X236250000Y-100380000D03*
X233710000Y-100380000D03*
X236250000Y-102920000D03*
X233710000Y-102920000D03*
X236250000Y-105460000D03*
X233710000Y-105460000D03*
X236250000Y-108000000D03*
D24*
X233710000Y-108000000D03*
G04 #@! TD*
D26*
G04 #@! TO.C,U25*
X200450000Y-97505000D03*
X200450000Y-98775000D03*
X200450000Y-100045000D03*
X200450000Y-101315000D03*
X200450000Y-102585000D03*
X200450000Y-103855000D03*
X200450000Y-105125000D03*
X200450000Y-106395000D03*
X209750000Y-106395000D03*
X209750000Y-105125000D03*
X209750000Y-103855000D03*
X209750000Y-102585000D03*
X209750000Y-101315000D03*
X209750000Y-100045000D03*
X209750000Y-98775000D03*
X209750000Y-97505000D03*
G04 #@! TD*
D27*
G04 #@! TO.C,J2*
X226000000Y-115100000D03*
X223000000Y-110400000D03*
X229000000Y-110400000D03*
G04 #@! TD*
D28*
G04 #@! TO.C,U26*
X233100000Y-115700000D03*
X233100000Y-111100000D03*
X233100000Y-113400000D03*
D29*
X239400000Y-113400000D03*
G04 #@! TD*
D10*
G04 #@! TO.C,REF\002A\002A*
X178800000Y-114500000D03*
G04 #@! TD*
M02*
