G04 #@! TF.GenerationSoftware,KiCad,Pcbnew,(5.0.0)*
G04 #@! TF.CreationDate,2020-08-08T12:19:43-04:00*
G04 #@! TF.ProjectId,WS2812 Clock,57533238313220436C6F636B2E6B6963,rev?*
G04 #@! TF.SameCoordinates,Original*
G04 #@! TF.FileFunction,Paste,Top*
G04 #@! TF.FilePolarity,Positive*
%FSLAX46Y46*%
G04 Gerber Fmt 4.6, Leading zero omitted, Abs format (unit mm)*
G04 Created by KiCad (PCBNEW (5.0.0)) date 08/08/20 12:19:43*
%MOMM*%
%LPD*%
G01*
G04 APERTURE LIST*
%ADD10R,1.600000X1.000000*%
G04 APERTURE END LIST*
D10*
G04 #@! TO.C,U1*
X177880000Y-102540000D03*
X177880000Y-105740000D03*
X182880000Y-102540000D03*
X182880000Y-105740000D03*
G04 #@! TD*
G04 #@! TO.C,U2*
X182840000Y-94310000D03*
X182840000Y-91110000D03*
X177840000Y-94310000D03*
X177840000Y-91110000D03*
G04 #@! TD*
G04 #@! TO.C,U3*
X182840000Y-82880000D03*
X182840000Y-79680000D03*
X177840000Y-82880000D03*
X177840000Y-79680000D03*
G04 #@! TD*
G04 #@! TO.C,U4*
X179618000Y-64389200D03*
X179618000Y-67589200D03*
X184618000Y-64389200D03*
X184618000Y-67589200D03*
G04 #@! TD*
G04 #@! TO.C,U5*
X184658000Y-56159200D03*
X184658000Y-52959200D03*
X179658000Y-56159200D03*
X179658000Y-52959200D03*
G04 #@! TD*
G04 #@! TO.C,U6*
X179658000Y-41529200D03*
X179658000Y-44729200D03*
X184658000Y-41529200D03*
X184658000Y-44729200D03*
G04 #@! TD*
G04 #@! TO.C,U7*
X196556000Y-36804400D03*
X196556000Y-33604400D03*
X191556000Y-36804400D03*
X191556000Y-33604400D03*
G04 #@! TD*
G04 #@! TO.C,U8*
X207986000Y-36804400D03*
X207986000Y-33604400D03*
X202986000Y-36804400D03*
X202986000Y-33604400D03*
G04 #@! TD*
G04 #@! TO.C,U9*
X219416000Y-36804400D03*
X219416000Y-33604400D03*
X214416000Y-36804400D03*
X214416000Y-33604400D03*
G04 #@! TD*
G04 #@! TO.C,U10*
X225338000Y-41529200D03*
X225338000Y-44729200D03*
X230338000Y-41529200D03*
X230338000Y-44729200D03*
G04 #@! TD*
G04 #@! TO.C,U11*
X225338000Y-52959200D03*
X225338000Y-56159200D03*
X230338000Y-52959200D03*
X230338000Y-56159200D03*
G04 #@! TD*
G04 #@! TO.C,U12*
X230338000Y-67589200D03*
X230338000Y-64389200D03*
X225338000Y-67589200D03*
X225338000Y-64389200D03*
G04 #@! TD*
G04 #@! TO.C,U13*
X223560000Y-79680000D03*
X223560000Y-82880000D03*
X228560000Y-79680000D03*
X228560000Y-82880000D03*
G04 #@! TD*
G04 #@! TO.C,U14*
X228560000Y-94310000D03*
X228560000Y-91110000D03*
X223560000Y-94310000D03*
X223560000Y-91110000D03*
G04 #@! TD*
G04 #@! TO.C,U15*
X223560000Y-102540000D03*
X223560000Y-105740000D03*
X228560000Y-102540000D03*
X228560000Y-105740000D03*
G04 #@! TD*
G04 #@! TO.C,U16*
X217739600Y-113715600D03*
X217739600Y-110515600D03*
X212739600Y-113715600D03*
X212739600Y-110515600D03*
G04 #@! TD*
G04 #@! TO.C,U17*
X206309600Y-113715600D03*
X206309600Y-110515600D03*
X201309600Y-113715600D03*
X201309600Y-110515600D03*
G04 #@! TD*
G04 #@! TO.C,U18*
X189879600Y-110515600D03*
X189879600Y-113715600D03*
X194879600Y-110515600D03*
X194879600Y-113715600D03*
G04 #@! TD*
G04 #@! TO.C,U19*
X195692400Y-75514000D03*
X195692400Y-72314000D03*
X190692400Y-75514000D03*
X190692400Y-72314000D03*
G04 #@! TD*
G04 #@! TO.C,U20*
X202122400Y-72314000D03*
X202122400Y-75514000D03*
X207122400Y-72314000D03*
X207122400Y-75514000D03*
G04 #@! TD*
G04 #@! TO.C,U21*
X213552400Y-72314000D03*
X213552400Y-75514000D03*
X218552400Y-72314000D03*
X218552400Y-75514000D03*
G04 #@! TD*
G04 #@! TO.C,U22*
X240900000Y-81890000D03*
X240900000Y-78690000D03*
X235900000Y-81890000D03*
X235900000Y-78690000D03*
G04 #@! TD*
G04 #@! TO.C,U23*
X236458800Y-65888400D03*
X236458800Y-69088400D03*
X241458800Y-65888400D03*
X241458800Y-69088400D03*
G04 #@! TD*
M02*
