M48
;DRILL file {KiCad (5.0.0)} date 08/08/20 12:19:45
;FORMAT={-:-/ absolute / metric / decimal}
FMAT,2
METRIC,TZ
T1C0.400
T2C0.650
T3C0.700
T4C1.000
T5C1.100
T6C1.200
T7C3.500
%
G90
G05
M71
T1
X174.955Y-71.73
X175.92Y-34.392
X177.75Y-76.5
X178.Y-85.
X178.75Y-95.75
X178.867Y-98.806
X179.Y-78.
X180.Y-108.25
X181.5Y-111.5
X182.Y-67.75
X182.25Y-81.5
X182.25Y-85.25
X183.Y-92.75
X184.506Y-98.806
X184.658Y-47.498
X184.709Y-75.743
X185.2Y-101.45
X185.5Y-80.5
X185.75Y-57.75
X186.5Y-95.
X186.741Y-66.091
X188.062Y-31.902
X188.316Y-42.012
X188.671Y-67.716
X188.976Y-34.384
X189.75Y-85.25
X189.75Y-89.25
X191.25Y-82.75
X191.821Y-39.776
X192.862Y-72.314
X195.25Y-100.
X196.5Y-95.75
X196.75Y-92.5
X197.25Y-91.
X197.5Y-101.
X198.12Y-75.895
X198.933Y-35.154
X201.8Y-39.8
X204.368Y-73.863
X204.368Y-73.863
X204.775Y-75.844
X206.197Y-36.881
X210.007Y-71.984
X213.6Y-39.4
X216.75Y-78.35
X216.764Y-74.473
X220.37Y-98.755
X222.402Y-42.75
X229.921Y-75.082
X230.8Y-114.8
X232.664Y-64.872
X235.8Y-110.8
X236.Y-116.
X236.2Y-113.4
X236.22Y-71.628
X238.15Y-79.9
X239.5Y-67.75
X239.6Y-110.4
X241.75Y-80.5
X244.75Y-60.25
T2
X191.67Y-88.73
X191.67Y-90.
X192.94Y-88.73
X192.94Y-90.
X194.21Y-88.73
X194.21Y-90.
X195.48Y-88.73
X195.48Y-90.
X196.75Y-88.73
X196.75Y-90.
T4
X172.71Y-85.14
X172.71Y-87.68
X172.71Y-90.22
X172.71Y-92.76
X172.71Y-95.3
X172.71Y-97.84
X172.71Y-100.38
X172.71Y-102.92
X172.71Y-105.46
X172.71Y-108.
X175.25Y-85.14
X175.25Y-87.68
X175.25Y-90.22
X175.25Y-92.76
X175.25Y-95.3
X175.25Y-97.84
X175.25Y-100.38
X175.25Y-102.92
X175.25Y-105.46
X175.25Y-108.
X233.71Y-85.14
X233.71Y-87.68
X233.71Y-90.22
X233.71Y-92.76
X233.71Y-95.3
X233.71Y-97.84
X233.71Y-100.38
X233.71Y-102.92
X233.71Y-105.46
X233.71Y-108.
X236.25Y-85.14
X236.25Y-87.68
X236.25Y-90.22
X236.25Y-92.76
X236.25Y-95.3
X236.25Y-97.84
X236.25Y-100.38
X236.25Y-102.92
X236.25Y-105.46
X236.25Y-108.
T5
X242.325Y-45.825
X242.325Y-52.325
X246.825Y-45.825
X246.825Y-52.325
X242.325Y-36.275
X242.325Y-42.775
X246.825Y-36.275
X246.825Y-42.775
T6
X205.Y-65.
X205.Y-84.5
T7
X236.Y-34.2
X180.2Y-34.2
X178.8Y-114.5
T3
X171.75Y-75.775G85X172.25Y-75.775
G05
X171.75Y-81.225G85X172.25Y-81.225
G05
X174.855Y-75.6G85X175.205Y-75.6
G05
X174.855Y-81.4G85X175.205Y-81.4
G05
T4
X223.Y-109.4G85X223.Y-111.4
G05
X225.Y-115.1G85X227.Y-115.1
G05
X229.Y-109.4G85X229.Y-111.4
G05
T0
M30
