G04 #@! TF.GenerationSoftware,KiCad,Pcbnew,(5.0.0)*
G04 #@! TF.CreationDate,2020-08-08T12:19:43-04:00*
G04 #@! TF.ProjectId,WS2812 Clock,57533238313220436C6F636B2E6B6963,rev?*
G04 #@! TF.SameCoordinates,Original*
G04 #@! TF.FileFunction,Legend,Top*
G04 #@! TF.FilePolarity,Positive*
%FSLAX46Y46*%
G04 Gerber Fmt 4.6, Leading zero omitted, Abs format (unit mm)*
G04 Created by KiCad (PCBNEW (5.0.0)) date 08/08/20 12:19:43*
%MOMM*%
%LPD*%
G01*
G04 APERTURE LIST*
%ADD10C,0.120000*%
%ADD11C,0.100000*%
%ADD12C,0.150000*%
G04 APERTURE END LIST*
D10*
G04 #@! TO.C,U1*
X183880000Y-106740000D02*
X183880000Y-105740000D01*
X176880000Y-106740000D02*
X183880000Y-106740000D01*
X176880000Y-101540000D02*
X183880000Y-101540000D01*
D11*
X183880000Y-105740000D02*
X183880000Y-105040000D01*
X183880000Y-105040000D02*
X181980000Y-105040000D01*
X181980000Y-105040000D02*
X181880000Y-105040000D01*
X181880000Y-105040000D02*
X181880000Y-106740000D01*
G04 #@! TO.C,U2*
X181840000Y-93610000D02*
X181840000Y-95310000D01*
X181940000Y-93610000D02*
X181840000Y-93610000D01*
X183840000Y-93610000D02*
X181940000Y-93610000D01*
X183840000Y-94310000D02*
X183840000Y-93610000D01*
D10*
X176840000Y-90110000D02*
X183840000Y-90110000D01*
X176840000Y-95310000D02*
X183840000Y-95310000D01*
X183840000Y-95310000D02*
X183840000Y-94310000D01*
D11*
G04 #@! TO.C,U3*
X181840000Y-82180000D02*
X181840000Y-83880000D01*
X181940000Y-82180000D02*
X181840000Y-82180000D01*
X183840000Y-82180000D02*
X181940000Y-82180000D01*
X183840000Y-82880000D02*
X183840000Y-82180000D01*
D10*
X176840000Y-78680000D02*
X183840000Y-78680000D01*
X176840000Y-83880000D02*
X183840000Y-83880000D01*
X183840000Y-83880000D02*
X183840000Y-82880000D01*
G04 #@! TO.C,U4*
X185618000Y-68589200D02*
X185618000Y-67589200D01*
X178618000Y-68589200D02*
X185618000Y-68589200D01*
X178618000Y-63389200D02*
X185618000Y-63389200D01*
D11*
X185618000Y-67589200D02*
X185618000Y-66889200D01*
X185618000Y-66889200D02*
X183718000Y-66889200D01*
X183718000Y-66889200D02*
X183618000Y-66889200D01*
X183618000Y-66889200D02*
X183618000Y-68589200D01*
G04 #@! TO.C,U5*
X183658000Y-55459200D02*
X183658000Y-57159200D01*
X183758000Y-55459200D02*
X183658000Y-55459200D01*
X185658000Y-55459200D02*
X183758000Y-55459200D01*
X185658000Y-56159200D02*
X185658000Y-55459200D01*
D10*
X178658000Y-51959200D02*
X185658000Y-51959200D01*
X178658000Y-57159200D02*
X185658000Y-57159200D01*
X185658000Y-57159200D02*
X185658000Y-56159200D01*
G04 #@! TO.C,U6*
X185658000Y-45729200D02*
X185658000Y-44729200D01*
X178658000Y-45729200D02*
X185658000Y-45729200D01*
X178658000Y-40529200D02*
X185658000Y-40529200D01*
D11*
X185658000Y-44729200D02*
X185658000Y-44029200D01*
X185658000Y-44029200D02*
X183758000Y-44029200D01*
X183758000Y-44029200D02*
X183658000Y-44029200D01*
X183658000Y-44029200D02*
X183658000Y-45729200D01*
G04 #@! TO.C,U7*
X195556000Y-36104400D02*
X195556000Y-37804400D01*
X195656000Y-36104400D02*
X195556000Y-36104400D01*
X197556000Y-36104400D02*
X195656000Y-36104400D01*
X197556000Y-36804400D02*
X197556000Y-36104400D01*
D10*
X190556000Y-32604400D02*
X197556000Y-32604400D01*
X190556000Y-37804400D02*
X197556000Y-37804400D01*
X197556000Y-37804400D02*
X197556000Y-36804400D01*
D11*
G04 #@! TO.C,U8*
X206986000Y-36104400D02*
X206986000Y-37804400D01*
X207086000Y-36104400D02*
X206986000Y-36104400D01*
X208986000Y-36104400D02*
X207086000Y-36104400D01*
X208986000Y-36804400D02*
X208986000Y-36104400D01*
D10*
X201986000Y-32604400D02*
X208986000Y-32604400D01*
X201986000Y-37804400D02*
X208986000Y-37804400D01*
X208986000Y-37804400D02*
X208986000Y-36804400D01*
D11*
G04 #@! TO.C,U9*
X218416000Y-36104400D02*
X218416000Y-37804400D01*
X218516000Y-36104400D02*
X218416000Y-36104400D01*
X220416000Y-36104400D02*
X218516000Y-36104400D01*
X220416000Y-36804400D02*
X220416000Y-36104400D01*
D10*
X213416000Y-32604400D02*
X220416000Y-32604400D01*
X213416000Y-37804400D02*
X220416000Y-37804400D01*
X220416000Y-37804400D02*
X220416000Y-36804400D01*
G04 #@! TO.C,U10*
X231338000Y-45729200D02*
X231338000Y-44729200D01*
X224338000Y-45729200D02*
X231338000Y-45729200D01*
X224338000Y-40529200D02*
X231338000Y-40529200D01*
D11*
X231338000Y-44729200D02*
X231338000Y-44029200D01*
X231338000Y-44029200D02*
X229438000Y-44029200D01*
X229438000Y-44029200D02*
X229338000Y-44029200D01*
X229338000Y-44029200D02*
X229338000Y-45729200D01*
D10*
G04 #@! TO.C,U11*
X231338000Y-57159200D02*
X231338000Y-56159200D01*
X224338000Y-57159200D02*
X231338000Y-57159200D01*
X224338000Y-51959200D02*
X231338000Y-51959200D01*
D11*
X231338000Y-56159200D02*
X231338000Y-55459200D01*
X231338000Y-55459200D02*
X229438000Y-55459200D01*
X229438000Y-55459200D02*
X229338000Y-55459200D01*
X229338000Y-55459200D02*
X229338000Y-57159200D01*
G04 #@! TO.C,U12*
X229338000Y-66889200D02*
X229338000Y-68589200D01*
X229438000Y-66889200D02*
X229338000Y-66889200D01*
X231338000Y-66889200D02*
X229438000Y-66889200D01*
X231338000Y-67589200D02*
X231338000Y-66889200D01*
D10*
X224338000Y-63389200D02*
X231338000Y-63389200D01*
X224338000Y-68589200D02*
X231338000Y-68589200D01*
X231338000Y-68589200D02*
X231338000Y-67589200D01*
G04 #@! TO.C,U13*
X229560000Y-83880000D02*
X229560000Y-82880000D01*
X222560000Y-83880000D02*
X229560000Y-83880000D01*
X222560000Y-78680000D02*
X229560000Y-78680000D01*
D11*
X229560000Y-82880000D02*
X229560000Y-82180000D01*
X229560000Y-82180000D02*
X227660000Y-82180000D01*
X227660000Y-82180000D02*
X227560000Y-82180000D01*
X227560000Y-82180000D02*
X227560000Y-83880000D01*
G04 #@! TO.C,U14*
X227560000Y-93610000D02*
X227560000Y-95310000D01*
X227660000Y-93610000D02*
X227560000Y-93610000D01*
X229560000Y-93610000D02*
X227660000Y-93610000D01*
X229560000Y-94310000D02*
X229560000Y-93610000D01*
D10*
X222560000Y-90110000D02*
X229560000Y-90110000D01*
X222560000Y-95310000D02*
X229560000Y-95310000D01*
X229560000Y-95310000D02*
X229560000Y-94310000D01*
G04 #@! TO.C,U15*
X229560000Y-106740000D02*
X229560000Y-105740000D01*
X222560000Y-106740000D02*
X229560000Y-106740000D01*
X222560000Y-101540000D02*
X229560000Y-101540000D01*
D11*
X229560000Y-105740000D02*
X229560000Y-105040000D01*
X229560000Y-105040000D02*
X227660000Y-105040000D01*
X227660000Y-105040000D02*
X227560000Y-105040000D01*
X227560000Y-105040000D02*
X227560000Y-106740000D01*
G04 #@! TO.C,U16*
X216739600Y-113015600D02*
X216739600Y-114715600D01*
X216839600Y-113015600D02*
X216739600Y-113015600D01*
X218739600Y-113015600D02*
X216839600Y-113015600D01*
X218739600Y-113715600D02*
X218739600Y-113015600D01*
D10*
X211739600Y-109515600D02*
X218739600Y-109515600D01*
X211739600Y-114715600D02*
X218739600Y-114715600D01*
X218739600Y-114715600D02*
X218739600Y-113715600D01*
D11*
G04 #@! TO.C,U17*
X205309600Y-113015600D02*
X205309600Y-114715600D01*
X205409600Y-113015600D02*
X205309600Y-113015600D01*
X207309600Y-113015600D02*
X205409600Y-113015600D01*
X207309600Y-113715600D02*
X207309600Y-113015600D01*
D10*
X200309600Y-109515600D02*
X207309600Y-109515600D01*
X200309600Y-114715600D02*
X207309600Y-114715600D01*
X207309600Y-114715600D02*
X207309600Y-113715600D01*
G04 #@! TO.C,U18*
X195879600Y-114715600D02*
X195879600Y-113715600D01*
X188879600Y-114715600D02*
X195879600Y-114715600D01*
X188879600Y-109515600D02*
X195879600Y-109515600D01*
D11*
X195879600Y-113715600D02*
X195879600Y-113015600D01*
X195879600Y-113015600D02*
X193979600Y-113015600D01*
X193979600Y-113015600D02*
X193879600Y-113015600D01*
X193879600Y-113015600D02*
X193879600Y-114715600D01*
G04 #@! TO.C,U19*
X194692400Y-74814000D02*
X194692400Y-76514000D01*
X194792400Y-74814000D02*
X194692400Y-74814000D01*
X196692400Y-74814000D02*
X194792400Y-74814000D01*
X196692400Y-75514000D02*
X196692400Y-74814000D01*
D10*
X189692400Y-71314000D02*
X196692400Y-71314000D01*
X189692400Y-76514000D02*
X196692400Y-76514000D01*
X196692400Y-76514000D02*
X196692400Y-75514000D01*
G04 #@! TO.C,U20*
X208122400Y-76514000D02*
X208122400Y-75514000D01*
X201122400Y-76514000D02*
X208122400Y-76514000D01*
X201122400Y-71314000D02*
X208122400Y-71314000D01*
D11*
X208122400Y-75514000D02*
X208122400Y-74814000D01*
X208122400Y-74814000D02*
X206222400Y-74814000D01*
X206222400Y-74814000D02*
X206122400Y-74814000D01*
X206122400Y-74814000D02*
X206122400Y-76514000D01*
D10*
G04 #@! TO.C,U21*
X219552400Y-76514000D02*
X219552400Y-75514000D01*
X212552400Y-76514000D02*
X219552400Y-76514000D01*
X212552400Y-71314000D02*
X219552400Y-71314000D01*
D11*
X219552400Y-75514000D02*
X219552400Y-74814000D01*
X219552400Y-74814000D02*
X217652400Y-74814000D01*
X217652400Y-74814000D02*
X217552400Y-74814000D01*
X217552400Y-74814000D02*
X217552400Y-76514000D01*
G04 #@! TO.C,U22*
X239900000Y-81190000D02*
X239900000Y-82890000D01*
X240000000Y-81190000D02*
X239900000Y-81190000D01*
X241900000Y-81190000D02*
X240000000Y-81190000D01*
X241900000Y-81890000D02*
X241900000Y-81190000D01*
D10*
X234900000Y-77690000D02*
X241900000Y-77690000D01*
X234900000Y-82890000D02*
X241900000Y-82890000D01*
X241900000Y-82890000D02*
X241900000Y-81890000D01*
G04 #@! TO.C,U23*
X242458800Y-70088400D02*
X242458800Y-69088400D01*
X235458800Y-70088400D02*
X242458800Y-70088400D01*
X235458800Y-64888400D02*
X242458800Y-64888400D01*
D11*
X242458800Y-69088400D02*
X242458800Y-68388400D01*
X242458800Y-68388400D02*
X240558800Y-68388400D01*
X240558800Y-68388400D02*
X240458800Y-68388400D01*
X240458800Y-68388400D02*
X240458800Y-70088400D01*
D10*
G04 #@! TO.C,J2*
X229900000Y-105800000D02*
X229900000Y-108400000D01*
X215200000Y-105800000D02*
X229900000Y-105800000D01*
X229900000Y-115000000D02*
X228000000Y-115000000D01*
X229900000Y-112300000D02*
X229900000Y-115000000D01*
X215200000Y-115000000D02*
X215200000Y-105800000D01*
X224000000Y-115000000D02*
X215200000Y-115000000D01*
G04 #@! TO.C,REF\002A\002A*
D12*
X232266666Y-28952380D02*
X231933333Y-28476190D01*
X231695238Y-28952380D02*
X231695238Y-27952380D01*
X232076190Y-27952380D01*
X232171428Y-28000000D01*
X232219047Y-28047619D01*
X232266666Y-28142857D01*
X232266666Y-28285714D01*
X232219047Y-28380952D01*
X232171428Y-28428571D01*
X232076190Y-28476190D01*
X231695238Y-28476190D01*
X232695238Y-28428571D02*
X233028571Y-28428571D01*
X233171428Y-28952380D02*
X232695238Y-28952380D01*
X232695238Y-27952380D01*
X233171428Y-27952380D01*
X233933333Y-28428571D02*
X233600000Y-28428571D01*
X233600000Y-28952380D02*
X233600000Y-27952380D01*
X234076190Y-27952380D01*
X234600000Y-27952380D02*
X234600000Y-28190476D01*
X234361904Y-28095238D02*
X234600000Y-28190476D01*
X234838095Y-28095238D01*
X234457142Y-28380952D02*
X234600000Y-28190476D01*
X234742857Y-28380952D01*
X235361904Y-27952380D02*
X235361904Y-28190476D01*
X235123809Y-28095238D02*
X235361904Y-28190476D01*
X235600000Y-28095238D01*
X235219047Y-28380952D02*
X235361904Y-28190476D01*
X235504761Y-28380952D01*
X176466666Y-28952380D02*
X176133333Y-28476190D01*
X175895238Y-28952380D02*
X175895238Y-27952380D01*
X176276190Y-27952380D01*
X176371428Y-28000000D01*
X176419047Y-28047619D01*
X176466666Y-28142857D01*
X176466666Y-28285714D01*
X176419047Y-28380952D01*
X176371428Y-28428571D01*
X176276190Y-28476190D01*
X175895238Y-28476190D01*
X176895238Y-28428571D02*
X177228571Y-28428571D01*
X177371428Y-28952380D02*
X176895238Y-28952380D01*
X176895238Y-27952380D01*
X177371428Y-27952380D01*
X178133333Y-28428571D02*
X177800000Y-28428571D01*
X177800000Y-28952380D02*
X177800000Y-27952380D01*
X178276190Y-27952380D01*
X178800000Y-27952380D02*
X178800000Y-28190476D01*
X178561904Y-28095238D02*
X178800000Y-28190476D01*
X179038095Y-28095238D01*
X178657142Y-28380952D02*
X178800000Y-28190476D01*
X178942857Y-28380952D01*
X179561904Y-27952380D02*
X179561904Y-28190476D01*
X179323809Y-28095238D02*
X179561904Y-28190476D01*
X179800000Y-28095238D01*
X179419047Y-28380952D02*
X179561904Y-28190476D01*
X179704761Y-28380952D01*
G04 #@! TO.C,J2*
X220216666Y-115602380D02*
X220216666Y-116316666D01*
X220169047Y-116459523D01*
X220073809Y-116554761D01*
X219930952Y-116602380D01*
X219835714Y-116602380D01*
X220645238Y-115697619D02*
X220692857Y-115650000D01*
X220788095Y-115602380D01*
X221026190Y-115602380D01*
X221121428Y-115650000D01*
X221169047Y-115697619D01*
X221216666Y-115792857D01*
X221216666Y-115888095D01*
X221169047Y-116030952D01*
X220597619Y-116602380D01*
X221216666Y-116602380D01*
G04 #@! TO.C,REF\002A\002A*
X173266666Y-118652380D02*
X172933333Y-118176190D01*
X172695238Y-118652380D02*
X172695238Y-117652380D01*
X173076190Y-117652380D01*
X173171428Y-117700000D01*
X173219047Y-117747619D01*
X173266666Y-117842857D01*
X173266666Y-117985714D01*
X173219047Y-118080952D01*
X173171428Y-118128571D01*
X173076190Y-118176190D01*
X172695238Y-118176190D01*
X173695238Y-118128571D02*
X174028571Y-118128571D01*
X174171428Y-118652380D02*
X173695238Y-118652380D01*
X173695238Y-117652380D01*
X174171428Y-117652380D01*
X174933333Y-118128571D02*
X174600000Y-118128571D01*
X174600000Y-118652380D02*
X174600000Y-117652380D01*
X175076190Y-117652380D01*
X175600000Y-117652380D02*
X175600000Y-117890476D01*
X175361904Y-117795238D02*
X175600000Y-117890476D01*
X175838095Y-117795238D01*
X175457142Y-118080952D02*
X175600000Y-117890476D01*
X175742857Y-118080952D01*
X176361904Y-117652380D02*
X176361904Y-117890476D01*
X176123809Y-117795238D02*
X176361904Y-117890476D01*
X176600000Y-117795238D01*
X176219047Y-118080952D02*
X176361904Y-117890476D01*
X176504761Y-118080952D01*
G04 #@! TD*
M02*
