G04 #@! TF.GenerationSoftware,KiCad,Pcbnew,(5.0.0)*
G04 #@! TF.CreationDate,2020-08-08T12:19:43-04:00*
G04 #@! TF.ProjectId,WS2812 Clock,57533238313220436C6F636B2E6B6963,rev?*
G04 #@! TF.SameCoordinates,Original*
G04 #@! TF.FileFunction,Profile,NP*
%FSLAX46Y46*%
G04 Gerber Fmt 4.6, Leading zero omitted, Abs format (unit mm)*
G04 Created by KiCad (PCBNEW (5.0.0)) date 08/08/20 12:19:43*
%MOMM*%
%LPD*%
G01*
G04 APERTURE LIST*
%ADD10C,0.150000*%
G04 APERTURE END LIST*
D10*
X245000000Y-30000000D02*
X240000000Y-30000000D01*
X240000000Y-117500000D02*
X235000000Y-117500000D01*
X240000000Y-30000000D02*
X177500000Y-30000000D01*
X245000000Y-112500000D02*
X240000000Y-117500000D01*
X247500000Y-110000000D02*
X245000000Y-112500000D01*
X247500000Y-80000000D02*
X247500000Y-57500000D01*
X247500000Y-90000000D02*
X247500000Y-80000000D01*
X247500000Y-90000000D02*
X247500000Y-110000000D01*
X245000000Y-30000000D02*
X250000000Y-35000000D01*
X247500000Y-57500000D02*
X250000000Y-55000000D01*
X250000000Y-55000000D02*
X250000000Y-35000000D01*
X170000000Y-110000000D02*
X172500000Y-112500000D01*
X170000000Y-90000000D02*
X170000000Y-110000000D01*
X170000000Y-80000000D02*
X170000000Y-57500000D01*
X172500000Y-55000000D02*
X170000000Y-57500000D01*
X172500000Y-55000000D02*
X172500000Y-35000000D01*
X170000000Y-90000000D02*
X170000000Y-80000000D01*
X177500000Y-117500000D02*
X235000000Y-117500000D01*
X172500000Y-112500000D02*
X177500000Y-117500000D01*
X177500000Y-30000000D02*
X172500000Y-35000000D01*
M02*
