G04 #@! TF.GenerationSoftware,KiCad,Pcbnew,(5.0.0)*
G04 #@! TF.CreationDate,2020-08-08T12:19:43-04:00*
G04 #@! TF.ProjectId,WS2812 Clock,57533238313220436C6F636B2E6B6963,rev?*
G04 #@! TF.SameCoordinates,Original*
G04 #@! TF.FileFunction,Paste,Bot*
G04 #@! TF.FilePolarity,Positive*
%FSLAX46Y46*%
G04 Gerber Fmt 4.6, Leading zero omitted, Abs format (unit mm)*
G04 Created by KiCad (PCBNEW (5.0.0)) date 08/08/20 12:19:43*
%MOMM*%
%LPD*%
G01*
G04 APERTURE LIST*
%ADD10R,2.500000X1.425000*%
%ADD11R,0.700000X1.825000*%
%ADD12R,1.750000X0.400000*%
%ADD13R,1.550000X0.600000*%
%ADD14R,1.500000X1.250000*%
%ADD15R,1.250000X1.500000*%
%ADD16R,0.500000X0.900000*%
%ADD17R,1.500000X0.600000*%
%ADD18R,2.000000X1.500000*%
%ADD19R,2.000000X3.800000*%
G04 APERTURE END LIST*
D10*
G04 #@! TO.C,USB1*
X171750000Y-77500000D03*
D11*
X173710000Y-81490000D03*
D12*
X174825000Y-79800000D03*
X174825000Y-79150000D03*
X174825000Y-78500000D03*
X174825000Y-77850000D03*
X174825000Y-77200000D03*
D11*
X173710000Y-75510000D03*
D10*
X171750000Y-79500000D03*
G04 #@! TD*
D13*
G04 #@! TO.C,MCU1*
X194900000Y-102595000D03*
X194900000Y-103865000D03*
X194900000Y-105135000D03*
X194900000Y-106405000D03*
X187900000Y-106405000D03*
X187900000Y-105135000D03*
X187900000Y-103865000D03*
X187900000Y-102600000D03*
G04 #@! TD*
D14*
G04 #@! TO.C,C3*
X206250000Y-94000000D03*
X203750000Y-94000000D03*
G04 #@! TD*
G04 #@! TO.C,C4*
X185500000Y-109500000D03*
X183000000Y-109500000D03*
G04 #@! TD*
G04 #@! TO.C,C5*
X219250000Y-44500000D03*
X221750000Y-44500000D03*
G04 #@! TD*
G04 #@! TO.C,C6*
X191250000Y-45500000D03*
X188750000Y-45500000D03*
G04 #@! TD*
D15*
G04 #@! TO.C,C7*
X243750000Y-59500000D03*
X243750000Y-57000000D03*
G04 #@! TD*
D16*
G04 #@! TO.C,R1*
X190320800Y-95402400D03*
X191820800Y-95402400D03*
G04 #@! TD*
G04 #@! TO.C,R2*
X239408400Y-73812400D03*
X237908400Y-73812400D03*
G04 #@! TD*
D17*
G04 #@! TO.C,U25*
X200450000Y-97505000D03*
X200450000Y-98775000D03*
X200450000Y-100045000D03*
X200450000Y-101315000D03*
X200450000Y-102585000D03*
X200450000Y-103855000D03*
X200450000Y-105125000D03*
X200450000Y-106395000D03*
X209750000Y-106395000D03*
X209750000Y-105125000D03*
X209750000Y-103855000D03*
X209750000Y-102585000D03*
X209750000Y-101315000D03*
X209750000Y-100045000D03*
X209750000Y-98775000D03*
X209750000Y-97505000D03*
G04 #@! TD*
D18*
G04 #@! TO.C,U26*
X233100000Y-115700000D03*
X233100000Y-111100000D03*
X233100000Y-113400000D03*
D19*
X239400000Y-113400000D03*
G04 #@! TD*
M02*
