G04 #@! TF.GenerationSoftware,KiCad,Pcbnew,(5.0.0)*
G04 #@! TF.CreationDate,2020-08-08T12:19:43-04:00*
G04 #@! TF.ProjectId,WS2812 Clock,57533238313220436C6F636B2E6B6963,rev?*
G04 #@! TF.SameCoordinates,Original*
G04 #@! TF.FileFunction,Soldermask,Top*
G04 #@! TF.FilePolarity,Negative*
%FSLAX46Y46*%
G04 Gerber Fmt 4.6, Leading zero omitted, Abs format (unit mm)*
G04 Created by KiCad (PCBNEW (5.0.0)) date 08/08/20 12:19:43*
%MOMM*%
%LPD*%
G01*
G04 APERTURE LIST*
%ADD10C,5.400000*%
%ADD11C,2.900000*%
%ADD12O,3.550000X1.700000*%
%ADD13R,1.800000X2.400000*%
%ADD14R,2.000000X1.400000*%
%ADD15O,1.400000X1.400000*%
%ADD16R,1.400000X1.400000*%
%ADD17C,2.400000*%
%ADD18R,2.100000X2.100000*%
%ADD19O,2.100000X2.100000*%
%ADD20R,3.900000X3.900000*%
G04 APERTURE END LIST*
D10*
G04 #@! TO.C,REF\002A\002A*
X236000000Y-34200000D03*
G04 #@! TD*
G04 #@! TO.C,REF\002A\002A*
X180200000Y-34200000D03*
G04 #@! TD*
D11*
G04 #@! TO.C,U24*
X205000000Y-65000000D03*
X205000000Y-84500000D03*
G04 #@! TD*
D12*
G04 #@! TO.C,USB1*
X172480000Y-81225000D03*
D13*
X175030000Y-81925000D03*
X175030000Y-75075000D03*
D12*
X172480000Y-75775000D03*
G04 #@! TD*
D14*
G04 #@! TO.C,U1*
X177880000Y-102540000D03*
X177880000Y-105740000D03*
X182880000Y-102540000D03*
X182880000Y-105740000D03*
G04 #@! TD*
G04 #@! TO.C,U2*
X182840000Y-94310000D03*
X182840000Y-91110000D03*
X177840000Y-94310000D03*
X177840000Y-91110000D03*
G04 #@! TD*
G04 #@! TO.C,U3*
X182840000Y-82880000D03*
X182840000Y-79680000D03*
X177840000Y-82880000D03*
X177840000Y-79680000D03*
G04 #@! TD*
G04 #@! TO.C,U4*
X179618000Y-64389200D03*
X179618000Y-67589200D03*
X184618000Y-64389200D03*
X184618000Y-67589200D03*
G04 #@! TD*
G04 #@! TO.C,U5*
X184658000Y-56159200D03*
X184658000Y-52959200D03*
X179658000Y-56159200D03*
X179658000Y-52959200D03*
G04 #@! TD*
G04 #@! TO.C,U6*
X179658000Y-41529200D03*
X179658000Y-44729200D03*
X184658000Y-41529200D03*
X184658000Y-44729200D03*
G04 #@! TD*
G04 #@! TO.C,U7*
X196556000Y-36804400D03*
X196556000Y-33604400D03*
X191556000Y-36804400D03*
X191556000Y-33604400D03*
G04 #@! TD*
G04 #@! TO.C,U8*
X207986000Y-36804400D03*
X207986000Y-33604400D03*
X202986000Y-36804400D03*
X202986000Y-33604400D03*
G04 #@! TD*
G04 #@! TO.C,U9*
X219416000Y-36804400D03*
X219416000Y-33604400D03*
X214416000Y-36804400D03*
X214416000Y-33604400D03*
G04 #@! TD*
G04 #@! TO.C,U10*
X225338000Y-41529200D03*
X225338000Y-44729200D03*
X230338000Y-41529200D03*
X230338000Y-44729200D03*
G04 #@! TD*
G04 #@! TO.C,U11*
X225338000Y-52959200D03*
X225338000Y-56159200D03*
X230338000Y-52959200D03*
X230338000Y-56159200D03*
G04 #@! TD*
G04 #@! TO.C,U12*
X230338000Y-67589200D03*
X230338000Y-64389200D03*
X225338000Y-67589200D03*
X225338000Y-64389200D03*
G04 #@! TD*
G04 #@! TO.C,U13*
X223560000Y-79680000D03*
X223560000Y-82880000D03*
X228560000Y-79680000D03*
X228560000Y-82880000D03*
G04 #@! TD*
G04 #@! TO.C,U14*
X228560000Y-94310000D03*
X228560000Y-91110000D03*
X223560000Y-94310000D03*
X223560000Y-91110000D03*
G04 #@! TD*
G04 #@! TO.C,U15*
X223560000Y-102540000D03*
X223560000Y-105740000D03*
X228560000Y-102540000D03*
X228560000Y-105740000D03*
G04 #@! TD*
G04 #@! TO.C,U16*
X217739600Y-113715600D03*
X217739600Y-110515600D03*
X212739600Y-113715600D03*
X212739600Y-110515600D03*
G04 #@! TD*
G04 #@! TO.C,U17*
X206309600Y-113715600D03*
X206309600Y-110515600D03*
X201309600Y-113715600D03*
X201309600Y-110515600D03*
G04 #@! TD*
G04 #@! TO.C,U18*
X189879600Y-110515600D03*
X189879600Y-113715600D03*
X194879600Y-110515600D03*
X194879600Y-113715600D03*
G04 #@! TD*
G04 #@! TO.C,U19*
X195692400Y-75514000D03*
X195692400Y-72314000D03*
X190692400Y-75514000D03*
X190692400Y-72314000D03*
G04 #@! TD*
G04 #@! TO.C,U20*
X202122400Y-72314000D03*
X202122400Y-75514000D03*
X207122400Y-72314000D03*
X207122400Y-75514000D03*
G04 #@! TD*
G04 #@! TO.C,U21*
X213552400Y-72314000D03*
X213552400Y-75514000D03*
X218552400Y-72314000D03*
X218552400Y-75514000D03*
G04 #@! TD*
G04 #@! TO.C,U22*
X240900000Y-81890000D03*
X240900000Y-78690000D03*
X235900000Y-81890000D03*
X235900000Y-78690000D03*
G04 #@! TD*
G04 #@! TO.C,U23*
X236458800Y-65888400D03*
X236458800Y-69088400D03*
X241458800Y-65888400D03*
X241458800Y-69088400D03*
G04 #@! TD*
D15*
G04 #@! TO.C,J1*
X196750000Y-90000000D03*
X196750000Y-88730000D03*
X195480000Y-90000000D03*
X195480000Y-88730000D03*
X194210000Y-90000000D03*
X194210000Y-88730000D03*
X192940000Y-90000000D03*
X192940000Y-88730000D03*
X191670000Y-90000000D03*
D16*
X191670000Y-88730000D03*
G04 #@! TD*
D17*
G04 #@! TO.C,SW1*
X242325001Y-42775001D03*
X246825001Y-42775001D03*
X242325001Y-36275001D03*
X246825001Y-36275001D03*
G04 #@! TD*
G04 #@! TO.C,SW2*
X246825001Y-45825001D03*
X242325001Y-45825001D03*
X246825001Y-52325001D03*
X242325001Y-52325001D03*
G04 #@! TD*
D18*
G04 #@! TO.C,CONN_LEFT_1*
X175250000Y-85140000D03*
D19*
X172710000Y-85140000D03*
X175250000Y-87680000D03*
X172710000Y-87680000D03*
X175250000Y-90220000D03*
X172710000Y-90220000D03*
X175250000Y-92760000D03*
X172710000Y-92760000D03*
X175250000Y-95300000D03*
X172710000Y-95300000D03*
X175250000Y-97840000D03*
X172710000Y-97840000D03*
X175250000Y-100380000D03*
X172710000Y-100380000D03*
X175250000Y-102920000D03*
X172710000Y-102920000D03*
X175250000Y-105460000D03*
X172710000Y-105460000D03*
X175250000Y-108000000D03*
X172710000Y-108000000D03*
G04 #@! TD*
G04 #@! TO.C,CONN_RIGHT_1*
X236250000Y-85140000D03*
X233710000Y-85140000D03*
X236250000Y-87680000D03*
X233710000Y-87680000D03*
X236250000Y-90220000D03*
X233710000Y-90220000D03*
X236250000Y-92760000D03*
X233710000Y-92760000D03*
X236250000Y-95300000D03*
X233710000Y-95300000D03*
X236250000Y-97840000D03*
X233710000Y-97840000D03*
X236250000Y-100380000D03*
X233710000Y-100380000D03*
X236250000Y-102920000D03*
X233710000Y-102920000D03*
X236250000Y-105460000D03*
X233710000Y-105460000D03*
X236250000Y-108000000D03*
D18*
X233710000Y-108000000D03*
G04 #@! TD*
D20*
G04 #@! TO.C,J2*
X226000000Y-115100000D03*
X223000000Y-110400000D03*
X229000000Y-110400000D03*
G04 #@! TD*
D10*
G04 #@! TO.C,REF\002A\002A*
X178800000Y-114500000D03*
G04 #@! TD*
M02*
