G04 #@! TF.GenerationSoftware,KiCad,Pcbnew,(5.0.0)*
G04 #@! TF.CreationDate,2020-08-12T18:15:37-04:00*
G04 #@! TF.ProjectId,WS2812 Clock,57533238313220436C6F636B2E6B6963,rev?*
G04 #@! TF.SameCoordinates,Original*
G04 #@! TF.FileFunction,Profile,NP*
%FSLAX46Y46*%
G04 Gerber Fmt 4.6, Leading zero omitted, Abs format (unit mm)*
G04 Created by KiCad (PCBNEW (5.0.0)) date 08/12/20 18:15:37*
%MOMM*%
%LPD*%
G01*
G04 APERTURE LIST*
%ADD10C,0.150000*%
G04 APERTURE END LIST*
D10*
X242050000Y-82500000D02*
X242050000Y-78000000D01*
X234550000Y-78000000D02*
G75*
G02X235300000Y-77250000I750000J0D01*
G01*
X241300000Y-77250000D02*
G75*
G02X242050000Y-78000000I0J-750000D01*
G01*
X241300000Y-77250000D02*
X235300000Y-77250000D01*
X235300000Y-83250000D02*
X241300000Y-83250000D01*
X242050000Y-82500000D02*
G75*
G02X241300000Y-83250000I-750000J0D01*
G01*
X234550000Y-78000000D02*
X234550000Y-82500000D01*
X235300000Y-83250000D02*
G75*
G02X234550000Y-82500000I0J750000D01*
G01*
X236000000Y-70500000D02*
X242000000Y-70500000D01*
X242750000Y-69750000D02*
G75*
G02X242000000Y-70500000I-750000J0D01*
G01*
X235250000Y-65250000D02*
X235250000Y-69750000D01*
X236000000Y-70500000D02*
G75*
G02X235250000Y-69750000I0J750000D01*
G01*
X242000000Y-64500000D02*
X236000000Y-64500000D01*
X235250000Y-65250000D02*
G75*
G02X236000000Y-64500000I750000J0D01*
G01*
X242000000Y-64500000D02*
G75*
G02X242750000Y-65250000I0J-750000D01*
G01*
X242750000Y-69750000D02*
X242750000Y-65250000D01*
X191000000Y-88000000D02*
X191000000Y-91000000D01*
X197500000Y-88000000D02*
X191000000Y-88000000D01*
X197500000Y-91000000D02*
X197500000Y-88000000D01*
X191000000Y-91000000D02*
X197500000Y-91000000D01*
X180000000Y-76500000D02*
X180250000Y-76500000D01*
X176500000Y-75750000D02*
X176500000Y-74000000D01*
X177250000Y-76500000D02*
X176500000Y-75750000D01*
X180000000Y-76500000D02*
X177250000Y-76500000D01*
X216750000Y-108750000D02*
G75*
G02X216750000Y-115750000I0J-3500000D01*
G01*
X216750000Y-115750000D02*
X190750000Y-115750000D01*
X190750000Y-108750000D02*
X216750000Y-108750000D01*
X190750000Y-115750000D02*
G75*
G02X190750000Y-108750000I0J3500000D01*
G01*
X218250000Y-32000000D02*
G75*
G02X218250000Y-39000000I0J-3500000D01*
G01*
X218250000Y-39000000D02*
X192250000Y-39000000D01*
X192250000Y-32000000D02*
X218250000Y-32000000D01*
X192250000Y-39000000D02*
G75*
G02X192250000Y-32000000I0J3500000D01*
G01*
X217500000Y-70750000D02*
G75*
G02X217500000Y-77750000I0J-3500000D01*
G01*
X217500000Y-77750000D02*
X191500000Y-77750000D01*
X191500000Y-70750000D02*
X217500000Y-70750000D01*
X191500000Y-77750000D02*
G75*
G02X191500000Y-70750000I0J3500000D01*
G01*
X231250000Y-68000000D02*
G75*
G02X224250000Y-68000000I-3500000J0D01*
G01*
X224250000Y-68000000D02*
X224250000Y-42000000D01*
X231250000Y-42000000D02*
X231250000Y-68000000D01*
X224250000Y-42000000D02*
G75*
G02X231250000Y-42000000I3500000J0D01*
G01*
X185500000Y-67500000D02*
G75*
G02X178500000Y-67500000I-3500000J0D01*
G01*
X178500000Y-67500000D02*
X178500000Y-41500000D01*
X185500000Y-41500000D02*
X185500000Y-67500000D01*
X178500000Y-41500000D02*
G75*
G02X185500000Y-41500000I3500000J0D01*
G01*
X183750000Y-106000000D02*
G75*
G02X180250000Y-109500000I-3500000J0D01*
G01*
X183750000Y-80000000D02*
X183750000Y-106000000D01*
X180250000Y-76500000D02*
G75*
G02X183750000Y-80000000I0J-3500000D01*
G01*
X229500000Y-105500000D02*
G75*
G02X222500000Y-105500000I-3500000J0D01*
G01*
X222500000Y-105500000D02*
X222500000Y-79500000D01*
X229500000Y-79500000D02*
X229500000Y-105500000D01*
X222500000Y-79500000D02*
G75*
G02X229500000Y-79500000I3500000J0D01*
G01*
X241000000Y-35000000D02*
X241000000Y-53500000D01*
X247000000Y-35000000D02*
X241000000Y-35000000D01*
X248000000Y-36000000D02*
X247000000Y-35000000D01*
X248000000Y-53500000D02*
X248000000Y-36000000D01*
X241000000Y-53500000D02*
X248000000Y-53500000D01*
X237500000Y-109500000D02*
X232500000Y-109500000D01*
X237500000Y-84000000D02*
X237500000Y-109500000D01*
X232500000Y-84000000D02*
X237500000Y-84000000D01*
X232500000Y-109500000D02*
X232500000Y-84000000D01*
X207000000Y-65000000D02*
G75*
G03X207000000Y-65000000I-2000000J0D01*
G01*
X207061553Y-84500000D02*
G75*
G03X207061553Y-84500000I-2061553J0D01*
G01*
X171500000Y-82500000D02*
X171500000Y-109000000D01*
X171000000Y-82000000D02*
X171500000Y-82500000D01*
X171000000Y-74500000D02*
X171000000Y-82000000D01*
X171500000Y-74000000D02*
X171000000Y-74500000D01*
X172000000Y-73500000D02*
X171500000Y-74000000D01*
X176000000Y-73500000D02*
X172000000Y-73500000D01*
X176500000Y-74000000D02*
X176000000Y-73500000D01*
X172000000Y-109500000D02*
X180250000Y-109500000D01*
X171500000Y-109000000D02*
X172000000Y-109500000D01*
X245000000Y-30000000D02*
X240000000Y-30000000D01*
X240000000Y-117500000D02*
X235000000Y-117500000D01*
X240000000Y-30000000D02*
X177500000Y-30000000D01*
X245000000Y-112500000D02*
X240000000Y-117500000D01*
X247500000Y-110000000D02*
X245000000Y-112500000D01*
X247500000Y-80000000D02*
X247500000Y-57500000D01*
X247500000Y-90000000D02*
X247500000Y-80000000D01*
X247500000Y-90000000D02*
X247500000Y-110000000D01*
X245000000Y-30000000D02*
X250000000Y-35000000D01*
X247500000Y-57500000D02*
X250000000Y-55000000D01*
X250000000Y-55000000D02*
X250000000Y-35000000D01*
X170000000Y-110000000D02*
X172500000Y-112500000D01*
X170000000Y-90000000D02*
X170000000Y-110000000D01*
X170000000Y-80000000D02*
X170000000Y-57500000D01*
X172500000Y-55000000D02*
X170000000Y-57500000D01*
X172500000Y-55000000D02*
X172500000Y-35000000D01*
X170000000Y-90000000D02*
X170000000Y-80000000D01*
X177500000Y-117500000D02*
X235000000Y-117500000D01*
X172500000Y-112500000D02*
X177500000Y-117500000D01*
X177500000Y-30000000D02*
X172500000Y-35000000D01*
M02*
