G04 #@! TF.GenerationSoftware,KiCad,Pcbnew,(5.0.0)*
G04 #@! TF.CreationDate,2020-11-19T16:59:29-05:00*
G04 #@! TF.ProjectId,WS2812B Mini Clock,57533238313242204D696E6920436C6F,rev?*
G04 #@! TF.SameCoordinates,Original*
G04 #@! TF.FileFunction,Copper,L2,Bot,Signal*
G04 #@! TF.FilePolarity,Positive*
%FSLAX46Y46*%
G04 Gerber Fmt 4.6, Leading zero omitted, Abs format (unit mm)*
G04 Created by KiCad (PCBNEW (5.0.0)) date 11/19/20 16:59:29*
%MOMM*%
%LPD*%
G01*
G04 APERTURE LIST*
G04 #@! TA.AperFunction,ComponentPad*
%ADD10C,4.000000*%
G04 #@! TD*
G04 #@! TA.AperFunction,ComponentPad*
%ADD11C,2.500000*%
G04 #@! TD*
G04 #@! TA.AperFunction,SMDPad,CuDef*
%ADD12R,2.500000X1.425000*%
G04 #@! TD*
G04 #@! TA.AperFunction,SMDPad,CuDef*
%ADD13R,0.700000X1.825000*%
G04 #@! TD*
G04 #@! TA.AperFunction,ComponentPad*
%ADD14O,3.150000X1.300000*%
G04 #@! TD*
G04 #@! TA.AperFunction,SMDPad,CuDef*
%ADD15R,1.750000X0.400000*%
G04 #@! TD*
G04 #@! TA.AperFunction,ComponentPad*
%ADD16R,1.400000X2.000000*%
G04 #@! TD*
G04 #@! TA.AperFunction,SMDPad,CuDef*
%ADD17R,1.550000X0.600000*%
G04 #@! TD*
G04 #@! TA.AperFunction,SMDPad,CuDef*
%ADD18R,1.250000X1.500000*%
G04 #@! TD*
G04 #@! TA.AperFunction,SMDPad,CuDef*
%ADD19R,1.500000X1.250000*%
G04 #@! TD*
G04 #@! TA.AperFunction,ComponentPad*
%ADD20R,1.000000X1.000000*%
G04 #@! TD*
G04 #@! TA.AperFunction,ComponentPad*
%ADD21O,1.000000X1.000000*%
G04 #@! TD*
G04 #@! TA.AperFunction,SMDPad,CuDef*
%ADD22R,0.500000X0.900000*%
G04 #@! TD*
G04 #@! TA.AperFunction,SMDPad,CuDef*
%ADD23R,1.500000X0.600000*%
G04 #@! TD*
G04 #@! TA.AperFunction,SMDPad,CuDef*
%ADD24R,1.200000X1.200000*%
G04 #@! TD*
G04 #@! TA.AperFunction,SMDPad,CuDef*
%ADD25R,0.900000X0.500000*%
G04 #@! TD*
G04 #@! TA.AperFunction,SMDPad,CuDef*
%ADD26R,1.550000X1.300000*%
G04 #@! TD*
G04 #@! TA.AperFunction,SMDPad,CuDef*
%ADD27R,0.600000X1.910000*%
G04 #@! TD*
G04 #@! TA.AperFunction,ViaPad*
%ADD28C,0.800000*%
G04 #@! TD*
G04 #@! TA.AperFunction,Conductor*
%ADD29C,0.400000*%
G04 #@! TD*
G04 #@! TA.AperFunction,NonConductor*
%ADD30C,0.254000*%
G04 #@! TD*
G04 APERTURE END LIST*
D10*
G04 #@! TO.P,REF3,1*
G04 #@! TO.N,N/C*
X228000000Y-69500000D03*
G04 #@! TD*
G04 #@! TO.P,REF4,1*
G04 #@! TO.N,N/C*
X228000000Y-138000000D03*
G04 #@! TD*
G04 #@! TO.P,REF2,1*
G04 #@! TO.N,N/C*
X52000000Y-69500000D03*
G04 #@! TD*
D11*
G04 #@! TO.P,U24,2*
G04 #@! TO.N,Net-(U24-Pad2)*
X92618272Y-140881728D03*
G04 #@! TO.P,U24,1*
G04 #@! TO.N,GND*
X106406854Y-127093146D03*
G04 #@! TD*
D12*
G04 #@! TO.P,USB1,SH*
G04 #@! TO.N,N/C*
X46750000Y-127000000D03*
D13*
X48710000Y-123010000D03*
D14*
X47480000Y-123275000D03*
D15*
G04 #@! TO.P,USB1,5*
G04 #@! TO.N,GND*
X49825000Y-124700000D03*
G04 #@! TO.P,USB1,4*
G04 #@! TO.N,N/C*
X49825000Y-125350000D03*
G04 #@! TO.P,USB1,3*
X49825000Y-126000000D03*
G04 #@! TO.P,USB1,2*
X49825000Y-126650000D03*
D16*
G04 #@! TO.P,USB1,SH*
X50030000Y-122575000D03*
D15*
G04 #@! TO.P,USB1,1*
G04 #@! TO.N,+5V*
X49825000Y-127300000D03*
D16*
G04 #@! TO.P,USB1,SH*
G04 #@! TO.N,N/C*
X50030000Y-129425000D03*
D14*
X47480000Y-128725000D03*
D13*
X48710000Y-128990000D03*
D12*
X46750000Y-125000000D03*
G04 #@! TD*
D17*
G04 #@! TO.P,MCU1,8*
G04 #@! TO.N,+5V*
X59150000Y-109350000D03*
G04 #@! TO.P,MCU1,7*
G04 #@! TO.N,SCL*
X59150000Y-110615000D03*
G04 #@! TO.P,MCU1,6*
G04 #@! TO.N,DIN*
X59150000Y-111885000D03*
G04 #@! TO.P,MCU1,5*
G04 #@! TO.N,SDA*
X59150000Y-113155000D03*
G04 #@! TO.P,MCU1,4*
G04 #@! TO.N,GND*
X66150000Y-113155000D03*
G04 #@! TO.P,MCU1,3*
G04 #@! TO.N,N/C*
X66150000Y-111885000D03*
G04 #@! TO.P,MCU1,2*
G04 #@! TO.N,INT*
X66150000Y-110615000D03*
G04 #@! TO.P,MCU1,1*
G04 #@! TO.N,RST*
X66150000Y-109345000D03*
G04 #@! TD*
D18*
G04 #@! TO.P,C3,1*
G04 #@! TO.N,+5V*
X128000000Y-139250000D03*
G04 #@! TO.P,C3,2*
G04 #@! TO.N,GND*
X128000000Y-141750000D03*
G04 #@! TD*
G04 #@! TO.P,C4,1*
G04 #@! TO.N,+5V*
X76500000Y-128000000D03*
G04 #@! TO.P,C4,2*
G04 #@! TO.N,GND*
X76500000Y-125500000D03*
G04 #@! TD*
D19*
G04 #@! TO.P,C5,1*
G04 #@! TO.N,+5V*
X63500000Y-89500000D03*
G04 #@! TO.P,C5,2*
G04 #@! TO.N,GND*
X61000000Y-89500000D03*
G04 #@! TD*
D18*
G04 #@! TO.P,C6,1*
G04 #@! TO.N,+5V*
X128500000Y-68250000D03*
G04 #@! TO.P,C6,2*
G04 #@! TO.N,GND*
X128500000Y-65750000D03*
G04 #@! TD*
D19*
G04 #@! TO.P,C7,1*
G04 #@! TO.N,+5V*
X61500000Y-105500000D03*
G04 #@! TO.P,C7,2*
G04 #@! TO.N,GND*
X64000000Y-105500000D03*
G04 #@! TD*
D20*
G04 #@! TO.P,J1,1*
G04 #@! TO.N,SCL*
X60000000Y-94000000D03*
D21*
G04 #@! TO.P,J1,2*
G04 #@! TO.N,GND*
X60000000Y-95270000D03*
G04 #@! TO.P,J1,3*
G04 #@! TO.N,DIN*
X61270000Y-94000000D03*
G04 #@! TO.P,J1,4*
G04 #@! TO.N,+5V*
X61270000Y-95270000D03*
G04 #@! TO.P,J1,5*
G04 #@! TO.N,N/C*
X62540000Y-94000000D03*
G04 #@! TO.P,J1,6*
G04 #@! TO.N,RST*
X62540000Y-95270000D03*
G04 #@! TO.P,J1,7*
G04 #@! TO.N,+5V*
X63810000Y-94000000D03*
G04 #@! TO.P,J1,8*
G04 #@! TO.N,N/C*
X63810000Y-95270000D03*
G04 #@! TO.P,J1,9*
G04 #@! TO.N,SDA*
X65080000Y-94000000D03*
G04 #@! TO.P,J1,10*
G04 #@! TO.N,GND*
X65080000Y-95270000D03*
G04 #@! TD*
D22*
G04 #@! TO.P,R1,1*
G04 #@! TO.N,+5V*
X70500000Y-109000000D03*
G04 #@! TO.P,R1,2*
G04 #@! TO.N,RST*
X69000000Y-109000000D03*
G04 #@! TD*
G04 #@! TO.P,R2,1*
G04 #@! TO.N,+5V*
X54500000Y-113000000D03*
G04 #@! TO.P,R2,2*
G04 #@! TO.N,SDA*
X56000000Y-113000000D03*
G04 #@! TD*
D23*
G04 #@! TO.P,U25,1*
G04 #@! TO.N,N/C*
X84150000Y-109555000D03*
G04 #@! TO.P,U25,2*
G04 #@! TO.N,+5V*
X84150000Y-110825000D03*
G04 #@! TO.P,U25,3*
G04 #@! TO.N,N/C*
X84150000Y-112095000D03*
G04 #@! TO.P,U25,4*
X84150000Y-113365000D03*
G04 #@! TO.P,U25,5*
G04 #@! TO.N,GND*
X84150000Y-114635000D03*
G04 #@! TO.P,U25,6*
X84150000Y-115905000D03*
G04 #@! TO.P,U25,7*
X84150000Y-117175000D03*
G04 #@! TO.P,U25,8*
X84150000Y-118445000D03*
G04 #@! TO.P,U25,9*
X74850000Y-118445000D03*
G04 #@! TO.P,U25,10*
X74850000Y-117175000D03*
G04 #@! TO.P,U25,11*
X74850000Y-115905000D03*
G04 #@! TO.P,U25,12*
X74850000Y-114635000D03*
G04 #@! TO.P,U25,13*
X74850000Y-113365000D03*
G04 #@! TO.P,U25,14*
G04 #@! TO.N,Net-(U24-Pad2)*
X74850000Y-112095000D03*
G04 #@! TO.P,U25,15*
G04 #@! TO.N,SDA*
X74850000Y-110825000D03*
G04 #@! TO.P,U25,16*
G04 #@! TO.N,SCL*
X74850000Y-109555000D03*
G04 #@! TD*
D22*
G04 #@! TO.P,R3,1*
G04 #@! TO.N,+5V*
X54500000Y-110500000D03*
G04 #@! TO.P,R3,2*
G04 #@! TO.N,SCL*
X56000000Y-110500000D03*
G04 #@! TD*
D24*
G04 #@! TO.P,D1,2*
G04 #@! TO.N,Net-(D1-Pad2)*
X73100000Y-85750000D03*
G04 #@! TO.P,D1,1*
G04 #@! TO.N,GND*
X70900000Y-85750000D03*
G04 #@! TD*
G04 #@! TO.P,D2,2*
G04 #@! TO.N,Net-(D2-Pad2)*
X117600000Y-85750000D03*
G04 #@! TO.P,D2,1*
G04 #@! TO.N,GND*
X115400000Y-85750000D03*
G04 #@! TD*
G04 #@! TO.P,D3,2*
G04 #@! TO.N,Net-(D3-Pad2)*
X94350000Y-85750000D03*
G04 #@! TO.P,D3,1*
G04 #@! TO.N,GND*
X92150000Y-85750000D03*
G04 #@! TD*
D25*
G04 #@! TO.P,R4,1*
G04 #@! TO.N,Net-(R4-Pad1)*
X74000000Y-134500000D03*
G04 #@! TO.P,R4,2*
G04 #@! TO.N,GND*
X74000000Y-136000000D03*
G04 #@! TD*
G04 #@! TO.P,R5,1*
G04 #@! TO.N,Net-(R5-Pad1)*
X72000000Y-134500000D03*
G04 #@! TO.P,R5,2*
G04 #@! TO.N,GND*
X72000000Y-136000000D03*
G04 #@! TD*
G04 #@! TO.P,R6,1*
G04 #@! TO.N,Net-(R6-Pad1)*
X70000000Y-134500000D03*
G04 #@! TO.P,R6,2*
G04 #@! TO.N,GND*
X70000000Y-136000000D03*
G04 #@! TD*
G04 #@! TO.P,R7,1*
G04 #@! TO.N,Net-(R7-Pad1)*
X68000000Y-134500000D03*
G04 #@! TO.P,R7,2*
G04 #@! TO.N,+5V*
X68000000Y-136000000D03*
G04 #@! TD*
G04 #@! TO.P,R8,1*
G04 #@! TO.N,Net-(D1-Pad2)*
X56000000Y-118250000D03*
G04 #@! TO.P,R8,2*
G04 #@! TO.N,LED0*
X56000000Y-119750000D03*
G04 #@! TD*
G04 #@! TO.P,R9,1*
G04 #@! TO.N,Net-(D2-Pad2)*
X58000000Y-118250000D03*
G04 #@! TO.P,R9,2*
G04 #@! TO.N,LED1*
X58000000Y-119750000D03*
G04 #@! TD*
G04 #@! TO.P,R10,1*
G04 #@! TO.N,Net-(D3-Pad2)*
X60000000Y-118250000D03*
G04 #@! TO.P,R10,2*
G04 #@! TO.N,LED2*
X60000000Y-119750000D03*
G04 #@! TD*
D26*
G04 #@! TO.P,SW0,1*
G04 #@! TO.N,BTN0*
X68025000Y-83000000D03*
X75975000Y-83000000D03*
G04 #@! TO.P,SW0,2*
G04 #@! TO.N,GND*
X68025000Y-78500000D03*
X75975000Y-78500000D03*
G04 #@! TD*
G04 #@! TO.P,SW1,1*
G04 #@! TO.N,BTN1*
X112525000Y-83000000D03*
X120475000Y-83000000D03*
G04 #@! TO.P,SW1,2*
G04 #@! TO.N,GND*
X112525000Y-78500000D03*
X120475000Y-78500000D03*
G04 #@! TD*
G04 #@! TO.P,SW2,1*
G04 #@! TO.N,BTN2*
X89275000Y-83000000D03*
X97225000Y-83000000D03*
G04 #@! TO.P,SW2,2*
G04 #@! TO.N,GND*
X89275000Y-78500000D03*
X97225000Y-78500000D03*
G04 #@! TD*
G04 #@! TO.P,SW3,1*
G04 #@! TO.N,BTN3*
X83275000Y-102750000D03*
X91225000Y-102750000D03*
G04 #@! TO.P,SW3,2*
G04 #@! TO.N,GND*
X83275000Y-98250000D03*
X91225000Y-98250000D03*
G04 #@! TD*
G04 #@! TO.P,SW4,1*
G04 #@! TO.N,BTN4*
X112525000Y-102750000D03*
X120475000Y-102750000D03*
G04 #@! TO.P,SW4,2*
G04 #@! TO.N,GND*
X112525000Y-98250000D03*
X120475000Y-98250000D03*
G04 #@! TD*
G04 #@! TO.P,SW5,1*
G04 #@! TO.N,BTN5*
X112525000Y-121750000D03*
X120475000Y-121750000D03*
G04 #@! TO.P,SW5,2*
G04 #@! TO.N,GND*
X112525000Y-117250000D03*
X120475000Y-117250000D03*
G04 #@! TD*
D27*
G04 #@! TO.P,U26,28*
G04 #@! TO.N,N/C*
X56745000Y-131610000D03*
G04 #@! TO.P,U26,27*
X58015000Y-131610000D03*
G04 #@! TO.P,U26,26*
G04 #@! TO.N,BTN5*
X59285000Y-131610000D03*
G04 #@! TO.P,U26,25*
G04 #@! TO.N,BTN4*
X60555000Y-131610000D03*
G04 #@! TO.P,U26,24*
G04 #@! TO.N,BTN3*
X61825000Y-131610000D03*
G04 #@! TO.P,U26,23*
G04 #@! TO.N,BTN2*
X63095000Y-131610000D03*
G04 #@! TO.P,U26,22*
G04 #@! TO.N,BTN1*
X64365000Y-131610000D03*
G04 #@! TO.P,U26,21*
G04 #@! TO.N,BTN0*
X65635000Y-131610000D03*
G04 #@! TO.P,U26,20*
G04 #@! TO.N,INT*
X66905000Y-131610000D03*
G04 #@! TO.P,U26,19*
G04 #@! TO.N,N/C*
X68175000Y-131610000D03*
G04 #@! TO.P,U26,18*
G04 #@! TO.N,Net-(R7-Pad1)*
X69445000Y-131610000D03*
G04 #@! TO.P,U26,17*
G04 #@! TO.N,Net-(R6-Pad1)*
X70715000Y-131610000D03*
G04 #@! TO.P,U26,16*
G04 #@! TO.N,Net-(R5-Pad1)*
X71985000Y-131610000D03*
G04 #@! TO.P,U26,15*
G04 #@! TO.N,Net-(R4-Pad1)*
X73255000Y-131610000D03*
G04 #@! TO.P,U26,14*
G04 #@! TO.N,N/C*
X73255000Y-122390000D03*
G04 #@! TO.P,U26,13*
G04 #@! TO.N,SDA*
X71985000Y-122390000D03*
G04 #@! TO.P,U26,12*
G04 #@! TO.N,SCL*
X70715000Y-122390000D03*
G04 #@! TO.P,U26,11*
G04 #@! TO.N,N/C*
X69445000Y-122390000D03*
G04 #@! TO.P,U26,10*
G04 #@! TO.N,GND*
X68175000Y-122390000D03*
G04 #@! TO.P,U26,9*
G04 #@! TO.N,+5V*
X66905000Y-122390000D03*
G04 #@! TO.P,U26,8*
G04 #@! TO.N,N/C*
X65635000Y-122390000D03*
G04 #@! TO.P,U26,7*
X64365000Y-122390000D03*
G04 #@! TO.P,U26,6*
X63095000Y-122390000D03*
G04 #@! TO.P,U26,5*
X61825000Y-122390000D03*
G04 #@! TO.P,U26,4*
X60555000Y-122390000D03*
G04 #@! TO.P,U26,3*
G04 #@! TO.N,LED2*
X59285000Y-122390000D03*
G04 #@! TO.P,U26,2*
G04 #@! TO.N,LED1*
X58015000Y-122390000D03*
G04 #@! TO.P,U26,1*
G04 #@! TO.N,LED0*
X56745000Y-122390000D03*
G04 #@! TD*
D10*
G04 #@! TO.P,REF\002A\002A,1*
G04 #@! TO.N,N/C*
X52000000Y-138000000D03*
G04 #@! TD*
D28*
G04 #@! TO.N,DIN*
X54213900Y-127563600D03*
G04 #@! TO.N,GND*
X193493800Y-80503700D03*
X196174000Y-85197400D03*
X130500000Y-88583400D03*
X98212600Y-80187700D03*
X82078700Y-105090100D03*
X55893800Y-88583400D03*
X79265100Y-71850000D03*
X69811400Y-105700300D03*
X89836800Y-98700300D03*
X126656500Y-71850000D03*
G04 #@! TO.N,+5V*
X75302200Y-134295000D03*
X54603100Y-91732500D03*
X53287500Y-86753500D03*
X51750200Y-126804700D03*
X52053400Y-116850800D03*
X155598100Y-68565100D03*
X125957200Y-131142600D03*
X114000000Y-69637900D03*
X125898000Y-69548500D03*
X82794600Y-110075100D03*
X61695000Y-103750000D03*
G04 #@! TO.N,Net-(U18-Pad2)*
X45627900Y-122299000D03*
X52808900Y-101758600D03*
G04 #@! TO.N,SDA*
X71662200Y-112505600D03*
X60742700Y-112462900D03*
X59217400Y-99811800D03*
X59407700Y-108434100D03*
G04 #@! TO.N,SCL*
X61554100Y-111487400D03*
X70813800Y-111244000D03*
G04 #@! TO.N,BTN2*
X82823200Y-128462600D03*
X64474900Y-128462600D03*
G04 #@! TO.N,DOUT*
X150950000Y-127581100D03*
X139363800Y-108794800D03*
G04 #@! TO.N,Net-(U8-Pad2)*
X69750000Y-71600300D03*
X79250000Y-69921600D03*
G04 #@! TO.N,Net-(U22-Pad2)*
X99112300Y-120250000D03*
X95121100Y-130905800D03*
G04 #@! TO.N,Net-(U21-Pad2)*
X87734700Y-122419100D03*
X78483600Y-108709700D03*
G04 #@! TO.N,Net-(U29-Pad2)*
X89904000Y-88345200D03*
X98437600Y-75578400D03*
G04 #@! TO.N,Net-(U42-Pad2)*
X102432800Y-138889200D03*
X106867500Y-102650000D03*
G04 #@! TO.N,Net-(U44-Pad2)*
X110763700Y-104385300D03*
X123688400Y-101638400D03*
G04 #@! TO.N,Net-(U45-Pad2)*
X123500000Y-104850000D03*
X140105100Y-96799700D03*
G04 #@! TO.N,Net-(D1-Pad2)*
X60675000Y-115322600D03*
X73634100Y-104556300D03*
G04 #@! TO.N,Net-(D2-Pad2)*
X59000000Y-118916400D03*
X87492700Y-126177900D03*
G04 #@! TO.N,Net-(D3-Pad2)*
X60800000Y-117450000D03*
X88228900Y-125317600D03*
G04 #@! TO.N,INT*
X67590000Y-120550100D03*
X66110400Y-124134400D03*
G04 #@! TO.N,BTN0*
X79689000Y-100802000D03*
X83429600Y-104037000D03*
G04 #@! TO.N,BTN3*
X86137200Y-127429000D03*
X62702000Y-127429000D03*
G04 #@! TO.N,Net-(U49-Pad4)*
X148550000Y-112910100D03*
X152797100Y-95650000D03*
G04 #@! TO.N,Net-(U54-Pad2)*
X149750000Y-88350000D03*
X152585500Y-76650000D03*
G04 #@! TO.N,Net-(U64-Pad4)*
X156750000Y-138062000D03*
X159156300Y-102650000D03*
G04 #@! TO.N,Net-(U64-Pad2)*
X156750000Y-104774900D03*
X166250000Y-102650000D03*
G04 #@! TO.N,Net-(U65-Pad4)*
X195200000Y-127588300D03*
X175276700Y-103798400D03*
G04 #@! TO.N,Net-(U66-Pad2)*
X195334200Y-87205300D03*
X193975100Y-97850000D03*
G04 #@! TO.N,Net-(U70-Pad2)*
X196419600Y-109650000D03*
X193952000Y-121350000D03*
G04 #@! TO.N,Net-(U72-Pad2)*
X213404300Y-72476400D03*
X220538400Y-68598000D03*
G04 #@! TO.N,Net-(U81-Pad4)*
X201000000Y-102440400D03*
X198849600Y-134711700D03*
G04 #@! TO.N,Net-(U83-Pad2)*
X228315600Y-127536800D03*
X224637100Y-121350000D03*
G04 #@! TO.N,Net-(U85-Pad2)*
X220000000Y-102440400D03*
X208140500Y-104850000D03*
G04 #@! TD*
D29*
G04 #@! TO.N,DIN*
X55932100Y-111732100D02*
X55297200Y-111097300D01*
X55297200Y-111097300D02*
X55297200Y-104222300D01*
X55297200Y-104222300D02*
X56650100Y-102869400D01*
X56650100Y-102869400D02*
X56650100Y-96560200D01*
X56650100Y-96560200D02*
X57303100Y-95907200D01*
X57303100Y-95907200D02*
X57303100Y-95058300D01*
X57303100Y-95058300D02*
X59261700Y-93099700D01*
X59261700Y-93099700D02*
X61270000Y-93099700D01*
X55932100Y-111732100D02*
X56084900Y-111885000D01*
X56084900Y-111885000D02*
X59150000Y-111885000D01*
X55932100Y-111732100D02*
X55150400Y-112513800D01*
X55150400Y-112513800D02*
X55150400Y-115127900D01*
X55150400Y-115127900D02*
X54213900Y-116064400D01*
X54213900Y-116064400D02*
X54213900Y-127563600D01*
X61270000Y-94000000D02*
X61270000Y-93099700D01*
G04 #@! TO.N,GND*
X72000000Y-136000000D02*
X70000000Y-136000000D01*
X74000000Y-136000000D02*
X72000000Y-136000000D01*
X68701800Y-80227000D02*
X68025000Y-79550300D01*
X71474700Y-83000000D02*
X68701800Y-80227000D01*
X68701800Y-80227000D02*
X64439700Y-84489100D01*
X64439700Y-84489100D02*
X64439700Y-88474700D01*
X64439700Y-88474700D02*
X61000000Y-88474700D01*
X65980300Y-95270000D02*
X65980300Y-90015300D01*
X65980300Y-90015300D02*
X64439700Y-88474700D01*
X61000000Y-89500000D02*
X61000000Y-88474700D01*
X65980300Y-105500000D02*
X65980300Y-95270000D01*
X58330100Y-91019600D02*
X54448700Y-94901000D01*
X54448700Y-94901000D02*
X54448700Y-102099600D01*
X54448700Y-102099600D02*
X53899000Y-102649300D01*
X53899000Y-102649300D02*
X53899000Y-103498000D01*
X53899000Y-103498000D02*
X52653600Y-104743400D01*
X52653600Y-104743400D02*
X52653600Y-114767900D01*
X52653600Y-114767900D02*
X51453100Y-115968400D01*
X51453100Y-115968400D02*
X51453100Y-116319400D01*
X51453100Y-116319400D02*
X51253100Y-116519400D01*
X51253100Y-116519400D02*
X51253100Y-123698800D01*
X51253100Y-123698800D02*
X51100300Y-123851600D01*
X51100300Y-123851600D02*
X51100300Y-124700000D01*
X193493800Y-80503700D02*
X193493800Y-82517200D01*
X193493800Y-82517200D02*
X196174000Y-85197400D01*
X124556100Y-88583400D02*
X124556100Y-83631400D01*
X124556100Y-83631400D02*
X120475000Y-79550300D01*
X121650400Y-102470300D02*
X124011100Y-102470300D01*
X124011100Y-102470300D02*
X124556100Y-101925300D01*
X124556100Y-101925300D02*
X124556100Y-88583400D01*
X124556100Y-88583400D02*
X130500000Y-88583400D01*
X112525000Y-98250000D02*
X113700300Y-98250000D01*
X120475000Y-98775100D02*
X114225400Y-98775100D01*
X114225400Y-98775100D02*
X113700300Y-98250000D01*
X120475000Y-98775100D02*
X120475000Y-99300300D01*
X120475000Y-98250000D02*
X120475000Y-98775100D01*
X89275000Y-79025100D02*
X89275000Y-79550300D01*
X89275000Y-78500000D02*
X89275000Y-79025100D01*
X97225000Y-79025100D02*
X97225000Y-79550300D01*
X97225000Y-78500000D02*
X97225000Y-79025100D01*
X97225000Y-79025100D02*
X89275000Y-79025100D01*
X111349600Y-80725700D02*
X98750600Y-80725700D01*
X98750600Y-80725700D02*
X98212600Y-80187700D01*
X97225000Y-79550300D02*
X97862400Y-80187700D01*
X97862400Y-80187700D02*
X98212600Y-80187700D01*
X91225000Y-86758100D02*
X90977100Y-86758100D01*
X90977100Y-86758100D02*
X88099600Y-83880600D01*
X88099600Y-83880600D02*
X88099600Y-80725700D01*
X88099600Y-80725700D02*
X89275000Y-79550300D01*
X92150000Y-86750300D02*
X91232800Y-86750300D01*
X91232800Y-86750300D02*
X91225000Y-86758100D01*
X91225000Y-86758100D02*
X91225000Y-97199700D01*
X84575100Y-117175000D02*
X85150200Y-116599900D01*
X85150200Y-116599900D02*
X85150200Y-115905000D01*
X85150200Y-115905000D02*
X85300300Y-115754900D01*
X85300300Y-115754900D02*
X85300300Y-114635000D01*
X84150000Y-115905000D02*
X85150200Y-115905000D01*
X84575100Y-117175000D02*
X85300300Y-117175000D01*
X84150000Y-117175000D02*
X84575100Y-117175000D01*
X82078700Y-105090100D02*
X85300300Y-108311700D01*
X85300300Y-108311700D02*
X85300300Y-114635000D01*
X81468500Y-105090100D02*
X82078700Y-105090100D01*
X84150000Y-114635000D02*
X85300300Y-114635000D01*
X81468500Y-105090100D02*
X80858300Y-105700300D01*
X80858300Y-105700300D02*
X69811400Y-105700300D01*
X83862700Y-98250000D02*
X81468500Y-100644200D01*
X81468500Y-100644200D02*
X81468500Y-105090100D01*
X83862700Y-98250000D02*
X84450300Y-98250000D01*
X83275000Y-98250000D02*
X83862700Y-98250000D01*
X89836800Y-98356400D02*
X84556700Y-98356400D01*
X84556700Y-98356400D02*
X84450300Y-98250000D01*
X90049700Y-98250000D02*
X89943300Y-98356400D01*
X89943300Y-98356400D02*
X89836800Y-98356400D01*
X89836800Y-98356400D02*
X89836800Y-98700300D01*
X69651600Y-105700300D02*
X69811400Y-105700300D01*
X67325300Y-113155000D02*
X69651600Y-110828700D01*
X69651600Y-110828700D02*
X69651600Y-105700300D01*
X69651600Y-105700300D02*
X66180600Y-105700300D01*
X66180600Y-105700300D02*
X65980300Y-105500000D01*
X65150300Y-105500000D02*
X65980300Y-105500000D01*
X75425200Y-115905000D02*
X76000300Y-115905000D01*
X74850000Y-115905000D02*
X75425200Y-115905000D01*
X75425200Y-117175000D02*
X76000300Y-117175000D01*
X74850000Y-117175000D02*
X75425200Y-117175000D01*
X75425200Y-115905000D02*
X75425200Y-117175000D01*
X75137600Y-118445000D02*
X75209500Y-118445000D01*
X75209500Y-118445000D02*
X76000300Y-117654200D01*
X76000300Y-117654200D02*
X76000300Y-117175000D01*
X75137600Y-118445000D02*
X75425200Y-118445000D01*
X74850000Y-118445000D02*
X75137600Y-118445000D01*
X70900000Y-85750000D02*
X70900000Y-84749700D01*
X68025000Y-78500000D02*
X68025000Y-79550300D01*
X75975000Y-79550300D02*
X72525300Y-83000000D01*
X72525300Y-83000000D02*
X71474700Y-83000000D01*
X71474700Y-83000000D02*
X71474700Y-84175000D01*
X71474700Y-84175000D02*
X70900000Y-84749700D01*
X65080000Y-95270000D02*
X65980300Y-95270000D01*
X64000000Y-105500000D02*
X65150300Y-105500000D01*
X67325300Y-113155000D02*
X68434700Y-114264400D01*
X68434700Y-114264400D02*
X68434700Y-122130300D01*
X68434700Y-122130300D02*
X68175000Y-122390000D01*
X49825000Y-124700000D02*
X51100300Y-124700000D01*
X58330100Y-91019600D02*
X55893800Y-88583400D01*
X59849700Y-89500000D02*
X58330100Y-91019600D01*
X75975000Y-79025100D02*
X79265100Y-75735000D01*
X79265100Y-75735000D02*
X79265100Y-71850000D01*
X75975000Y-79025100D02*
X75975000Y-79550300D01*
X75975000Y-78500000D02*
X75975000Y-79025100D01*
X60424900Y-89500000D02*
X61000000Y-89500000D01*
X60424900Y-89500000D02*
X59849700Y-89500000D01*
X121650400Y-102470300D02*
X121650400Y-100475700D01*
X121650400Y-100475700D02*
X120475000Y-99300300D01*
X120475000Y-116199700D02*
X121650400Y-115024300D01*
X121650400Y-115024300D02*
X121650400Y-102470300D01*
X120475000Y-78500000D02*
X120475000Y-79550300D01*
X91225000Y-98250000D02*
X90049700Y-98250000D01*
X120475000Y-77449700D02*
X121056800Y-77449700D01*
X121056800Y-77449700D02*
X126656500Y-71850000D01*
X129525300Y-65750000D02*
X129525300Y-69187100D01*
X129525300Y-69187100D02*
X126862400Y-71850000D01*
X126862400Y-71850000D02*
X126656500Y-71850000D01*
X66150000Y-113155000D02*
X67325300Y-113155000D01*
X120475000Y-117250000D02*
X120475000Y-118300300D01*
X128000000Y-141750000D02*
X126974700Y-141750000D01*
X126974700Y-141750000D02*
X122292700Y-137068000D01*
X122292700Y-137068000D02*
X122292700Y-120118000D01*
X122292700Y-120118000D02*
X120475000Y-118300300D01*
X111349600Y-80725700D02*
X112525000Y-79550300D01*
X115400000Y-86100000D02*
X113559200Y-86100000D01*
X113559200Y-86100000D02*
X111349600Y-83890400D01*
X111349600Y-83890400D02*
X111349600Y-80725700D01*
X112525000Y-78500000D02*
X113700300Y-78500000D01*
X120475000Y-77974800D02*
X114225500Y-77974800D01*
X114225500Y-77974800D02*
X113700300Y-78500000D01*
X120475000Y-77974800D02*
X120475000Y-77449700D01*
X120475000Y-78500000D02*
X120475000Y-77974800D01*
X112525000Y-78500000D02*
X112525000Y-79550300D01*
X115400000Y-85750000D02*
X115400000Y-86100000D01*
X120475000Y-117250000D02*
X120475000Y-116199700D01*
X120475000Y-117250000D02*
X112525000Y-117250000D01*
X75425200Y-123745300D02*
X76029600Y-124349700D01*
X76029600Y-124349700D02*
X76500000Y-124349700D01*
X75425200Y-118445000D02*
X75425200Y-123745300D01*
X68175000Y-123745300D02*
X75425200Y-123745300D01*
X76500000Y-125500000D02*
X76500000Y-124349700D01*
X68175000Y-122390000D02*
X68175000Y-123745300D01*
X112525000Y-117250000D02*
X112525000Y-118300300D01*
X106406900Y-127093100D02*
X106406900Y-124418400D01*
X106406900Y-124418400D02*
X112525000Y-118300300D01*
X84150000Y-118445000D02*
X85300300Y-118445000D01*
X74850000Y-114635000D02*
X75425200Y-114635000D01*
X128500000Y-65750000D02*
X129525300Y-65750000D01*
X74000000Y-136000000D02*
X74850300Y-136000000D01*
X74850300Y-136000000D02*
X77525400Y-133324900D01*
X77525400Y-133324900D02*
X77525400Y-127057000D01*
X77525400Y-127057000D02*
X77118700Y-126650300D01*
X77118700Y-126650300D02*
X76500000Y-126650300D01*
X76500000Y-125500000D02*
X76500000Y-126650300D01*
X92150000Y-85750000D02*
X92150000Y-86750300D01*
X85300300Y-118445000D02*
X85300300Y-117175000D01*
X75425200Y-114635000D02*
X76000300Y-115210100D01*
X76000300Y-115210100D02*
X76000300Y-115905000D01*
X75425200Y-114635000D02*
X76000300Y-114635000D01*
X74850000Y-113365000D02*
X76000300Y-113365000D01*
X76000300Y-113365000D02*
X76000300Y-114635000D01*
X91225000Y-98250000D02*
X91225000Y-97199700D01*
G04 #@! TO.N,+5V*
X74874500Y-134295000D02*
X74874500Y-130634500D01*
X68000000Y-135349700D02*
X74419400Y-135349700D01*
X74419400Y-135349700D02*
X74874500Y-134894600D01*
X74874500Y-134894600D02*
X74874500Y-134295000D01*
X74874500Y-134295000D02*
X75302200Y-134295000D01*
X53287500Y-86753500D02*
X53287500Y-90416900D01*
X53287500Y-90416900D02*
X54603100Y-91732500D01*
X51731500Y-126804700D02*
X51731500Y-126823400D01*
X51731500Y-126823400D02*
X51576900Y-126823400D01*
X51576900Y-126823400D02*
X51100300Y-127300000D01*
X52053400Y-116850800D02*
X52053400Y-126346900D01*
X52053400Y-126346900D02*
X51731500Y-126668800D01*
X51731500Y-126668800D02*
X51731500Y-126804700D01*
X51731500Y-126804700D02*
X51750200Y-126804700D01*
X49825000Y-127300000D02*
X51100300Y-127300000D01*
X52053400Y-116850800D02*
X54500000Y-114404200D01*
X54500000Y-114404200D02*
X54500000Y-113850300D01*
X127474700Y-68250000D02*
X127474700Y-64745900D01*
X127474700Y-64745900D02*
X127623300Y-64597300D01*
X127623300Y-64597300D02*
X151630300Y-64597300D01*
X151630300Y-64597300D02*
X155598100Y-68565100D01*
X127474700Y-68250000D02*
X127196500Y-68250000D01*
X127196500Y-68250000D02*
X125898000Y-69548500D01*
X128000000Y-139250000D02*
X126974700Y-139250000D01*
X126974700Y-139250000D02*
X126974700Y-132160100D01*
X126974700Y-132160100D02*
X125957200Y-131142600D01*
X125898000Y-69548500D02*
X114089400Y-69548500D01*
X114089400Y-69548500D02*
X114000000Y-69637900D01*
X128500000Y-68250000D02*
X127474700Y-68250000D01*
X68000000Y-136000000D02*
X68000000Y-135349700D01*
X60615800Y-109350000D02*
X63313900Y-112048100D01*
X63313900Y-112048100D02*
X63313900Y-117443600D01*
X63313900Y-117443600D02*
X66905000Y-121034700D01*
X60615800Y-109350000D02*
X60175200Y-109350000D01*
X60615800Y-109350000D02*
X60615800Y-107409500D01*
X60615800Y-107409500D02*
X61500000Y-106525300D01*
X54500000Y-110500000D02*
X54500000Y-103746200D01*
X54500000Y-103746200D02*
X56049800Y-102196400D01*
X56049800Y-102196400D02*
X56049800Y-95462500D01*
X56049800Y-95462500D02*
X60987000Y-90525300D01*
X60987000Y-90525300D02*
X63500000Y-90525300D01*
X54500000Y-113000000D02*
X54500000Y-110500000D01*
X63500000Y-89500000D02*
X63500000Y-90525300D01*
X63810000Y-94000000D02*
X63810000Y-90835300D01*
X63810000Y-90835300D02*
X63500000Y-90525300D01*
X54500000Y-113000000D02*
X54500000Y-113850300D01*
X82794600Y-110075100D02*
X80617800Y-107898300D01*
X80617800Y-107898300D02*
X72252000Y-107898300D01*
X72252000Y-107898300D02*
X71150300Y-109000000D01*
X84150000Y-110825000D02*
X82999700Y-110825000D01*
X82999700Y-110825000D02*
X82999700Y-110280200D01*
X82999700Y-110280200D02*
X82794600Y-110075100D01*
X61695000Y-103750000D02*
X61270000Y-103325000D01*
X61270000Y-103325000D02*
X61270000Y-95270000D01*
X61695000Y-103750000D02*
X61500000Y-103945000D01*
X61500000Y-103945000D02*
X61500000Y-105500000D01*
X76500000Y-129150300D02*
X75015800Y-130634500D01*
X75015800Y-130634500D02*
X74874500Y-130634500D01*
X70500000Y-109000000D02*
X71150300Y-109000000D01*
X76500000Y-128000000D02*
X76500000Y-129150300D01*
X74874500Y-130634500D02*
X74176200Y-130634500D01*
X74176200Y-130634500D02*
X67287000Y-123745300D01*
X67287000Y-123745300D02*
X66905000Y-123745300D01*
X66905000Y-122390000D02*
X66905000Y-123745300D01*
X66905000Y-122390000D02*
X66905000Y-121034700D01*
X59150000Y-109350000D02*
X60175200Y-109350000D01*
X61500000Y-105500000D02*
X61500000Y-106525300D01*
G04 #@! TO.N,Net-(U18-Pad2)*
X45627900Y-122299000D02*
X45627900Y-108939600D01*
X45627900Y-108939600D02*
X52808900Y-101758600D01*
G04 #@! TO.N,SDA*
X71985000Y-112539700D02*
X73699700Y-110825000D01*
X71985000Y-122390000D02*
X71985000Y-112539700D01*
X71985000Y-112539700D02*
X71696300Y-112539700D01*
X71696300Y-112539700D02*
X71662200Y-112505600D01*
X74850000Y-110825000D02*
X73699700Y-110825000D01*
X60325300Y-113155000D02*
X60325300Y-112880300D01*
X60325300Y-112880300D02*
X60742700Y-112462900D01*
X59150000Y-113155000D02*
X60325300Y-113155000D01*
X59217400Y-99811800D02*
X59217400Y-108243800D01*
X59217400Y-108243800D02*
X59407700Y-108434100D01*
X59150000Y-113155000D02*
X57974700Y-113155000D01*
X56000000Y-113000000D02*
X57819700Y-113000000D01*
X57819700Y-113000000D02*
X57974700Y-113155000D01*
G04 #@! TO.N,RST*
X66150000Y-109345000D02*
X67325300Y-109345000D01*
X69000000Y-109000000D02*
X67670300Y-109000000D01*
X67670300Y-109000000D02*
X67325300Y-109345000D01*
X66150000Y-109345000D02*
X64974700Y-109345000D01*
X62540000Y-95270000D02*
X62540000Y-96170300D01*
X62540000Y-96170300D02*
X62839900Y-96470200D01*
X62839900Y-96470200D02*
X62839900Y-107210200D01*
X62839900Y-107210200D02*
X64974700Y-109345000D01*
G04 #@! TO.N,SCL*
X70813800Y-111244000D02*
X72010700Y-111244000D01*
X72010700Y-111244000D02*
X73699700Y-109555000D01*
X70715000Y-122390000D02*
X70715000Y-111342800D01*
X70715000Y-111342800D02*
X70813800Y-111244000D01*
X61554100Y-111487400D02*
X60681700Y-110615000D01*
X60681700Y-110615000D02*
X59150000Y-110615000D01*
X74850000Y-109555000D02*
X73699700Y-109555000D01*
X59150000Y-110615000D02*
X57974700Y-110615000D01*
X57927600Y-110500000D02*
X57927600Y-95985300D01*
X57927600Y-95985300D02*
X59912900Y-94000000D01*
X59912900Y-94000000D02*
X60000000Y-94000000D01*
X57974700Y-110615000D02*
X57974700Y-110547100D01*
X57974700Y-110547100D02*
X57927600Y-110500000D01*
X57927600Y-110500000D02*
X56650300Y-110500000D01*
X56000000Y-110500000D02*
X56650300Y-110500000D01*
G04 #@! TO.N,BTN1*
X64365000Y-131610000D02*
X64365000Y-134562500D01*
X64365000Y-134562500D02*
X72951500Y-143149000D01*
X72951500Y-143149000D02*
X99322800Y-143149000D01*
X99322800Y-143149000D02*
X103898400Y-138573400D01*
X103898400Y-138573400D02*
X103898400Y-107911500D01*
X103898400Y-107911500D02*
X109608700Y-102201200D01*
X109608700Y-102201200D02*
X109608700Y-97235800D01*
X109608700Y-97235800D02*
X119299700Y-87544800D01*
X119299700Y-87544800D02*
X119299700Y-83000000D01*
X119299700Y-83000000D02*
X112525000Y-83000000D01*
X120475000Y-83000000D02*
X119299700Y-83000000D01*
G04 #@! TO.N,BTN2*
X93150400Y-83000000D02*
X93150400Y-98370600D01*
X93150400Y-98370600D02*
X91574300Y-99946700D01*
X91574300Y-99946700D02*
X83980500Y-99946700D01*
X83980500Y-99946700D02*
X82099600Y-101827600D01*
X82099600Y-101827600D02*
X82099600Y-103959100D01*
X82099600Y-103959100D02*
X88567800Y-110427300D01*
X88567800Y-110427300D02*
X88567800Y-122718000D01*
X88567800Y-122718000D02*
X87969100Y-123316700D01*
X87969100Y-123316700D02*
X87400300Y-123316700D01*
X87400300Y-123316700D02*
X82823200Y-127893800D01*
X82823200Y-127893800D02*
X82823200Y-128462600D01*
X93150400Y-83000000D02*
X89275000Y-83000000D01*
X96049700Y-83000000D02*
X93150400Y-83000000D01*
X63095000Y-131610000D02*
X63095000Y-129842500D01*
X63095000Y-129842500D02*
X64474900Y-128462600D01*
X97225000Y-83000000D02*
X96049700Y-83000000D01*
G04 #@! TO.N,DOUT*
X150950000Y-127581100D02*
X139363800Y-115994900D01*
X139363800Y-115994900D02*
X139363800Y-108794800D01*
G04 #@! TO.N,Net-(U24-Pad2)*
X74850000Y-112095000D02*
X76000300Y-112095000D01*
X76000300Y-112095000D02*
X77792800Y-113887500D01*
X77792800Y-113887500D02*
X77792800Y-126056200D01*
X77792800Y-126056200D02*
X92618300Y-140881700D01*
G04 #@! TO.N,Net-(U8-Pad2)*
X79250000Y-69921600D02*
X71428700Y-69921600D01*
X71428700Y-69921600D02*
X69750000Y-71600300D01*
G04 #@! TO.N,Net-(U22-Pad2)*
X95121100Y-130905800D02*
X99112300Y-126914600D01*
X99112300Y-126914600D02*
X99112300Y-120250000D01*
G04 #@! TO.N,Net-(U21-Pad2)*
X87734700Y-122419100D02*
X86497300Y-122419100D01*
X86497300Y-122419100D02*
X78483600Y-114405400D01*
X78483600Y-114405400D02*
X78483600Y-108709700D01*
G04 #@! TO.N,Net-(U29-Pad2)*
X89904000Y-88345200D02*
X87497400Y-85938600D01*
X87497400Y-85938600D02*
X87497400Y-78167900D01*
X87497400Y-78167900D02*
X90086900Y-75578400D01*
X90086900Y-75578400D02*
X98437600Y-75578400D01*
G04 #@! TO.N,Net-(U42-Pad2)*
X102432800Y-138889200D02*
X102697700Y-138624300D01*
X102697700Y-138624300D02*
X102697700Y-106819800D01*
X102697700Y-106819800D02*
X106867500Y-102650000D01*
G04 #@! TO.N,Net-(U44-Pad2)*
X110763700Y-104385300D02*
X110763700Y-98008900D01*
X110763700Y-98008900D02*
X111619400Y-97153200D01*
X111619400Y-97153200D02*
X121402800Y-97153200D01*
X121402800Y-97153200D02*
X123688400Y-99438800D01*
X123688400Y-99438800D02*
X123688400Y-101638400D01*
G04 #@! TO.N,Net-(U45-Pad2)*
X123500000Y-104850000D02*
X131550300Y-96799700D01*
X131550300Y-96799700D02*
X140105100Y-96799700D01*
G04 #@! TO.N,Net-(D1-Pad2)*
X56000000Y-118250000D02*
X56000000Y-117599700D01*
X60675000Y-115322600D02*
X58277100Y-115322600D01*
X58277100Y-115322600D02*
X56000000Y-117599700D01*
X73100000Y-85750000D02*
X73100000Y-104022200D01*
X73100000Y-104022200D02*
X73634100Y-104556300D01*
G04 #@! TO.N,Net-(D2-Pad2)*
X117600000Y-85750000D02*
X117600000Y-86750300D01*
X58000000Y-118250000D02*
X58000000Y-118900300D01*
X59000000Y-118916400D02*
X58016100Y-118916400D01*
X58016100Y-118916400D02*
X58000000Y-118900300D01*
X117600000Y-86750300D02*
X102097300Y-102253000D01*
X102097300Y-102253000D02*
X102097300Y-112678200D01*
X102097300Y-112678200D02*
X88597600Y-126177900D01*
X88597600Y-126177900D02*
X87492700Y-126177900D01*
G04 #@! TO.N,Net-(D3-Pad2)*
X94350000Y-85750000D02*
X94350000Y-119571800D01*
X94350000Y-119571800D02*
X88604200Y-125317600D01*
X88604200Y-125317600D02*
X88228900Y-125317600D01*
X60000000Y-118250000D02*
X60000000Y-117599700D01*
X60800000Y-117450000D02*
X60650300Y-117599700D01*
X60650300Y-117599700D02*
X60000000Y-117599700D01*
G04 #@! TO.N,INT*
X64974700Y-110615000D02*
X64974700Y-117934800D01*
X64974700Y-117934800D02*
X67590000Y-120550100D01*
X66905000Y-131610000D02*
X66905000Y-130254700D01*
X66905000Y-130254700D02*
X66905000Y-124929000D01*
X66905000Y-124929000D02*
X66110400Y-124134400D01*
X66150000Y-110615000D02*
X64974700Y-110615000D01*
G04 #@! TO.N,Net-(R4-Pad1)*
X73255000Y-131610000D02*
X73255000Y-132965300D01*
X73255000Y-132965300D02*
X74000000Y-133710300D01*
X74000000Y-133710300D02*
X74000000Y-134500000D01*
G04 #@! TO.N,Net-(R5-Pad1)*
X72000000Y-134500000D02*
X72000000Y-133849700D01*
X71985000Y-131610000D02*
X71985000Y-133834700D01*
X71985000Y-133834700D02*
X72000000Y-133849700D01*
G04 #@! TO.N,Net-(R6-Pad1)*
X70000000Y-134500000D02*
X70000000Y-133849700D01*
X70715000Y-131610000D02*
X70715000Y-133134700D01*
X70715000Y-133134700D02*
X70000000Y-133849700D01*
G04 #@! TO.N,Net-(R7-Pad1)*
X69445000Y-131610000D02*
X69445000Y-132965300D01*
X68000000Y-134500000D02*
X68000000Y-133849700D01*
X69445000Y-132965300D02*
X68884400Y-132965300D01*
X68884400Y-132965300D02*
X68000000Y-133849700D01*
G04 #@! TO.N,LED0*
X56000000Y-119750000D02*
X56000000Y-120400300D01*
X56745000Y-122390000D02*
X56745000Y-121034700D01*
X56745000Y-121034700D02*
X56110600Y-120400300D01*
X56110600Y-120400300D02*
X56000000Y-120400300D01*
G04 #@! TO.N,LED1*
X58000000Y-119750000D02*
X58000000Y-120400300D01*
X58015000Y-122390000D02*
X58015000Y-120415300D01*
X58015000Y-120415300D02*
X58000000Y-120400300D01*
G04 #@! TO.N,LED2*
X59285000Y-122390000D02*
X59285000Y-121034700D01*
X60000000Y-119750000D02*
X60000000Y-120400300D01*
X59285000Y-121034700D02*
X59365600Y-121034700D01*
X59365600Y-121034700D02*
X60000000Y-120400300D01*
G04 #@! TO.N,BTN0*
X79689000Y-100802000D02*
X75975000Y-97088000D01*
X75975000Y-97088000D02*
X75975000Y-84050300D01*
X83429600Y-104037000D02*
X89174000Y-109781400D01*
X89174000Y-109781400D02*
X89174000Y-122967600D01*
X89174000Y-122967600D02*
X88224600Y-123917000D01*
X88224600Y-123917000D02*
X87648900Y-123917000D01*
X87648900Y-123917000D02*
X85327700Y-126238200D01*
X85327700Y-126238200D02*
X85327700Y-129226200D01*
X85327700Y-129226200D02*
X94291500Y-138190000D01*
X94291500Y-138190000D02*
X94291500Y-141558200D01*
X94291500Y-141558200D02*
X93301000Y-142548700D01*
X93301000Y-142548700D02*
X73275700Y-142548700D01*
X73275700Y-142548700D02*
X65635000Y-134908000D01*
X65635000Y-134908000D02*
X65635000Y-132965300D01*
X65635000Y-131610000D02*
X65635000Y-132965300D01*
X75975000Y-84050300D02*
X73033600Y-84050300D01*
X73033600Y-84050300D02*
X72099600Y-84984300D01*
X72099600Y-84984300D02*
X72099600Y-86329600D01*
X72099600Y-86329600D02*
X71678800Y-86750400D01*
X71678800Y-86750400D02*
X70122000Y-86750400D01*
X70122000Y-86750400D02*
X68025000Y-84653400D01*
X68025000Y-84653400D02*
X68025000Y-83000000D01*
X75975000Y-83000000D02*
X75975000Y-84050300D01*
G04 #@! TO.N,BTN3*
X91225000Y-103275100D02*
X91225000Y-121765500D01*
X91225000Y-121765500D02*
X88473200Y-124517300D01*
X88473200Y-124517300D02*
X87897500Y-124517300D01*
X87897500Y-124517300D02*
X86137200Y-126277600D01*
X86137200Y-126277600D02*
X86137200Y-127429000D01*
X61825000Y-131610000D02*
X61825000Y-128306000D01*
X61825000Y-128306000D02*
X62702000Y-127429000D01*
X83275000Y-102750000D02*
X84450300Y-102750000D01*
X91225000Y-103275100D02*
X84975400Y-103275100D01*
X84975400Y-103275100D02*
X84450300Y-102750000D01*
X91225000Y-102750000D02*
X91225000Y-103275100D01*
G04 #@! TO.N,BTN4*
X120475000Y-102750000D02*
X119299700Y-102750000D01*
X112525000Y-103275100D02*
X118774600Y-103275100D01*
X118774600Y-103275100D02*
X119299700Y-102750000D01*
X112525000Y-103275100D02*
X112525000Y-103800300D01*
X112525000Y-102750000D02*
X112525000Y-103275100D01*
X60555000Y-132965300D02*
X71339000Y-143749300D01*
X71339000Y-143749300D02*
X99571400Y-143749300D01*
X99571400Y-143749300D02*
X104498700Y-138822000D01*
X104498700Y-138822000D02*
X104498700Y-111826600D01*
X104498700Y-111826600D02*
X112525000Y-103800300D01*
X60555000Y-131610000D02*
X60555000Y-132965300D01*
G04 #@! TO.N,BTN5*
X59285000Y-132965300D02*
X70669300Y-144349600D01*
X70669300Y-144349600D02*
X99820000Y-144349600D01*
X99820000Y-144349600D02*
X112525000Y-131644600D01*
X112525000Y-131644600D02*
X112525000Y-121750000D01*
X59285000Y-131610000D02*
X59285000Y-132965300D01*
X120475000Y-121750000D02*
X112525000Y-121750000D01*
G04 #@! TO.N,Net-(U49-Pad4)*
X152797100Y-95650000D02*
X152797100Y-108314600D01*
X152797100Y-108314600D02*
X148550000Y-112561700D01*
X148550000Y-112561700D02*
X148550000Y-112910100D01*
G04 #@! TO.N,Net-(U54-Pad2)*
X149750000Y-88350000D02*
X152585500Y-85514500D01*
X152585500Y-85514500D02*
X152585500Y-76650000D01*
G04 #@! TO.N,Net-(U64-Pad4)*
X156750000Y-138062000D02*
X159156300Y-135655700D01*
X159156300Y-135655700D02*
X159156300Y-102650000D01*
G04 #@! TO.N,Net-(U64-Pad2)*
X156750000Y-104774900D02*
X156750000Y-103884800D01*
X156750000Y-103884800D02*
X158800800Y-101834000D01*
X158800800Y-101834000D02*
X165434000Y-101834000D01*
X165434000Y-101834000D02*
X166250000Y-102650000D01*
G04 #@! TO.N,Net-(U65-Pad4)*
X195200000Y-127588300D02*
X175276700Y-107665000D01*
X175276700Y-107665000D02*
X175276700Y-103798400D01*
G04 #@! TO.N,Net-(U66-Pad2)*
X195334200Y-87205300D02*
X195334200Y-96490900D01*
X195334200Y-96490900D02*
X193975100Y-97850000D01*
G04 #@! TO.N,Net-(U70-Pad2)*
X196419600Y-109650000D02*
X196419600Y-118882400D01*
X196419600Y-118882400D02*
X193952000Y-121350000D01*
G04 #@! TO.N,Net-(U72-Pad2)*
X213404300Y-72476400D02*
X217282700Y-68598000D01*
X217282700Y-68598000D02*
X220538400Y-68598000D01*
G04 #@! TO.N,Net-(U81-Pad4)*
X201000000Y-102440400D02*
X201000000Y-132561300D01*
X201000000Y-132561300D02*
X198849600Y-134711700D01*
G04 #@! TO.N,Net-(U83-Pad2)*
X224637100Y-121350000D02*
X228315600Y-125028500D01*
X228315600Y-125028500D02*
X228315600Y-127536800D01*
G04 #@! TO.N,Net-(U85-Pad2)*
X220000000Y-102440400D02*
X217590400Y-104850000D01*
X217590400Y-104850000D02*
X208140500Y-104850000D01*
G04 #@! TD*
D30*
G36*
X234873000Y-144873000D02*
X225720327Y-144873000D01*
X226721927Y-144465274D01*
X226743750Y-144455052D01*
X226766076Y-144445986D01*
X226810646Y-144423715D01*
X226810662Y-144423708D01*
X226810670Y-144423703D01*
X228173241Y-143697686D01*
X228193895Y-143685275D01*
X228215175Y-143673961D01*
X228257234Y-143647218D01*
X229537966Y-142784978D01*
X229557243Y-142770504D01*
X229577238Y-142757068D01*
X229616325Y-142726144D01*
X230801642Y-141736822D01*
X230819324Y-141720448D01*
X230837838Y-141705023D01*
X230873540Y-141670244D01*
X231950882Y-140564321D01*
X231966787Y-140546216D01*
X231983616Y-140528971D01*
X232015554Y-140490707D01*
X232973509Y-139279899D01*
X232987469Y-139260255D01*
X233002437Y-139241370D01*
X233030272Y-139200026D01*
X233858690Y-137897161D01*
X233870558Y-137876185D01*
X233883504Y-137855863D01*
X233906941Y-137811877D01*
X234597047Y-136430759D01*
X234606696Y-136408674D01*
X234617485Y-136387128D01*
X234636277Y-136340966D01*
X234873000Y-135712839D01*
X234873000Y-144873000D01*
X234873000Y-144873000D01*
G37*
X234873000Y-144873000D02*
X225720327Y-144873000D01*
X226721927Y-144465274D01*
X226743750Y-144455052D01*
X226766076Y-144445986D01*
X226810646Y-144423715D01*
X226810662Y-144423708D01*
X226810670Y-144423703D01*
X228173241Y-143697686D01*
X228193895Y-143685275D01*
X228215175Y-143673961D01*
X228257234Y-143647218D01*
X229537966Y-142784978D01*
X229557243Y-142770504D01*
X229577238Y-142757068D01*
X229616325Y-142726144D01*
X230801642Y-141736822D01*
X230819324Y-141720448D01*
X230837838Y-141705023D01*
X230873540Y-141670244D01*
X231950882Y-140564321D01*
X231966787Y-140546216D01*
X231983616Y-140528971D01*
X232015554Y-140490707D01*
X232973509Y-139279899D01*
X232987469Y-139260255D01*
X233002437Y-139241370D01*
X233030272Y-139200026D01*
X233858690Y-137897161D01*
X233870558Y-137876185D01*
X233883504Y-137855863D01*
X233906941Y-137811877D01*
X234597047Y-136430759D01*
X234606696Y-136408674D01*
X234617485Y-136387128D01*
X234636277Y-136340966D01*
X234873000Y-135712839D01*
X234873000Y-144873000D01*
G36*
X45534726Y-136721927D02*
X45544948Y-136743750D01*
X45554014Y-136766076D01*
X45576285Y-136810646D01*
X45576292Y-136810662D01*
X45576297Y-136810670D01*
X46302314Y-138173241D01*
X46314725Y-138193895D01*
X46326039Y-138215175D01*
X46352782Y-138257234D01*
X47215022Y-139537966D01*
X47229496Y-139557243D01*
X47242932Y-139577238D01*
X47273856Y-139616325D01*
X48263178Y-140801642D01*
X48279552Y-140819324D01*
X48294977Y-140837838D01*
X48329756Y-140873540D01*
X49435679Y-141950882D01*
X49453784Y-141966787D01*
X49471029Y-141983616D01*
X49509293Y-142015554D01*
X50720101Y-142973509D01*
X50739745Y-142987469D01*
X50758630Y-143002437D01*
X50799974Y-143030272D01*
X52102839Y-143858690D01*
X52123815Y-143870558D01*
X52144137Y-143883504D01*
X52188123Y-143906941D01*
X53569241Y-144597047D01*
X53591326Y-144606696D01*
X53612872Y-144617485D01*
X53659019Y-144636271D01*
X53659033Y-144636277D01*
X53659040Y-144636279D01*
X54287161Y-144873000D01*
X45127000Y-144873000D01*
X45127000Y-135720328D01*
X45534726Y-136721927D01*
X45534726Y-136721927D01*
G37*
X45534726Y-136721927D02*
X45544948Y-136743750D01*
X45554014Y-136766076D01*
X45576285Y-136810646D01*
X45576292Y-136810662D01*
X45576297Y-136810670D01*
X46302314Y-138173241D01*
X46314725Y-138193895D01*
X46326039Y-138215175D01*
X46352782Y-138257234D01*
X47215022Y-139537966D01*
X47229496Y-139557243D01*
X47242932Y-139577238D01*
X47273856Y-139616325D01*
X48263178Y-140801642D01*
X48279552Y-140819324D01*
X48294977Y-140837838D01*
X48329756Y-140873540D01*
X49435679Y-141950882D01*
X49453784Y-141966787D01*
X49471029Y-141983616D01*
X49509293Y-142015554D01*
X50720101Y-142973509D01*
X50739745Y-142987469D01*
X50758630Y-143002437D01*
X50799974Y-143030272D01*
X52102839Y-143858690D01*
X52123815Y-143870558D01*
X52144137Y-143883504D01*
X52188123Y-143906941D01*
X53569241Y-144597047D01*
X53591326Y-144606696D01*
X53612872Y-144617485D01*
X53659019Y-144636271D01*
X53659033Y-144636277D01*
X53659040Y-144636279D01*
X54287161Y-144873000D01*
X45127000Y-144873000D01*
X45127000Y-135720328D01*
X45534726Y-136721927D01*
G36*
X221443896Y-63527671D02*
X222872500Y-63750107D01*
X224270674Y-64118216D01*
X225623600Y-64628095D01*
X226916941Y-65274341D01*
X228137007Y-66050112D01*
X229178495Y-66874106D01*
X228572271Y-66623000D01*
X227427729Y-66623000D01*
X226370310Y-67060997D01*
X225560997Y-67870310D01*
X225123000Y-68927729D01*
X225123000Y-70072271D01*
X225560997Y-71129690D01*
X226370310Y-71939003D01*
X227427729Y-72377000D01*
X228572271Y-72377000D01*
X229629690Y-71939003D01*
X230439003Y-71129690D01*
X230877000Y-70072271D01*
X230877000Y-68927729D01*
X230640052Y-68355686D01*
X231232958Y-69066053D01*
X232040404Y-70265396D01*
X232720289Y-71541387D01*
X233265405Y-72880492D01*
X233669987Y-74268553D01*
X233929744Y-75690846D01*
X234043345Y-77150559D01*
X234048000Y-77506197D01*
X234048001Y-129975476D01*
X233972329Y-131443896D01*
X233749893Y-132872500D01*
X233381783Y-134270677D01*
X232871908Y-135623592D01*
X232225658Y-136916941D01*
X231449888Y-138137007D01*
X230625895Y-139178493D01*
X230877000Y-138572271D01*
X230877000Y-137427729D01*
X230439003Y-136370310D01*
X229629690Y-135560997D01*
X228572271Y-135123000D01*
X227427729Y-135123000D01*
X226370310Y-135560997D01*
X225560997Y-136370310D01*
X225123000Y-137427729D01*
X225123000Y-138572271D01*
X225560997Y-139629690D01*
X226370310Y-140439003D01*
X227427729Y-140877000D01*
X228572271Y-140877000D01*
X229144314Y-140640052D01*
X228433947Y-141232958D01*
X227234604Y-142040404D01*
X225958613Y-142720289D01*
X224619511Y-143265404D01*
X223231447Y-143669987D01*
X221809154Y-143929744D01*
X220349441Y-144043345D01*
X219993803Y-144048000D01*
X101644707Y-144048000D01*
X113211552Y-132481156D01*
X113301473Y-132421073D01*
X113379909Y-132303686D01*
X113488756Y-132140784D01*
X113539511Y-132064824D01*
X113602000Y-131750672D01*
X113602000Y-131750667D01*
X113623098Y-131644601D01*
X113602000Y-131538534D01*
X113602000Y-123234110D01*
X113642188Y-123226116D01*
X113932281Y-123032281D01*
X114069446Y-122827000D01*
X118930554Y-122827000D01*
X119067719Y-123032281D01*
X119357812Y-123226116D01*
X119700000Y-123294181D01*
X121215701Y-123294181D01*
X121215700Y-136961933D01*
X121194602Y-137068000D01*
X121215700Y-137174066D01*
X121215700Y-137174071D01*
X121278189Y-137488223D01*
X121516227Y-137844473D01*
X121606152Y-137904559D01*
X126138143Y-142436551D01*
X126198227Y-142526473D01*
X126288149Y-142586557D01*
X126288150Y-142586558D01*
X126419897Y-142674588D01*
X126530208Y-142748295D01*
X126548884Y-142842188D01*
X126742719Y-143132281D01*
X127032812Y-143326116D01*
X127375000Y-143394181D01*
X128625000Y-143394181D01*
X128967188Y-143326116D01*
X129257281Y-143132281D01*
X129451116Y-142842188D01*
X129519181Y-142500000D01*
X129519181Y-141000000D01*
X129451116Y-140657812D01*
X129345669Y-140500000D01*
X129451116Y-140342188D01*
X129519181Y-140000000D01*
X129519181Y-138500000D01*
X129451116Y-138157812D01*
X129257281Y-137867719D01*
X128967188Y-137673884D01*
X128625000Y-137605819D01*
X128051700Y-137605819D01*
X128051700Y-132266166D01*
X128072798Y-132160099D01*
X128051700Y-132054033D01*
X128051700Y-132054028D01*
X127989211Y-131739876D01*
X127860195Y-131546790D01*
X127811258Y-131473550D01*
X127811257Y-131473549D01*
X127751173Y-131383627D01*
X127661251Y-131323543D01*
X127234200Y-130896492D01*
X127234200Y-130888589D01*
X127039788Y-130419238D01*
X126680562Y-130060012D01*
X126211211Y-129865600D01*
X125703189Y-129865600D01*
X125233838Y-130060012D01*
X124874612Y-130419238D01*
X124680200Y-130888589D01*
X124680200Y-131396611D01*
X124874612Y-131865962D01*
X125233838Y-132225188D01*
X125703189Y-132419600D01*
X125711092Y-132419600D01*
X125897701Y-132606209D01*
X125897700Y-139143928D01*
X125896711Y-139148903D01*
X123369700Y-136621893D01*
X123369700Y-120224066D01*
X123390798Y-120118000D01*
X123369700Y-120011933D01*
X123369700Y-120011928D01*
X123307211Y-119697776D01*
X123203859Y-119543099D01*
X123129258Y-119431450D01*
X123129257Y-119431449D01*
X123069173Y-119341527D01*
X122979251Y-119281443D01*
X122021594Y-118323786D01*
X122076116Y-118242188D01*
X122144181Y-117900000D01*
X122144181Y-116600000D01*
X122076116Y-116257812D01*
X122021594Y-116176214D01*
X122336951Y-115860857D01*
X122426873Y-115800773D01*
X122486958Y-115710850D01*
X122664911Y-115444525D01*
X122697269Y-115281851D01*
X122727400Y-115130372D01*
X122727400Y-115130368D01*
X122748498Y-115024300D01*
X122727400Y-114918232D01*
X122727400Y-108540789D01*
X138086800Y-108540789D01*
X138086800Y-109048811D01*
X138281212Y-109518162D01*
X138286801Y-109523751D01*
X138286800Y-115888833D01*
X138265702Y-115994900D01*
X138286800Y-116100966D01*
X138286800Y-116100971D01*
X138349289Y-116415123D01*
X138587327Y-116771373D01*
X138677252Y-116831459D01*
X149673000Y-127827208D01*
X149673000Y-127835111D01*
X149867412Y-128304462D01*
X150226638Y-128663688D01*
X150695989Y-128858100D01*
X151204011Y-128858100D01*
X151673362Y-128663688D01*
X152032588Y-128304462D01*
X152227000Y-127835111D01*
X152227000Y-127327089D01*
X152032588Y-126857738D01*
X151673362Y-126498512D01*
X151204011Y-126304100D01*
X151196108Y-126304100D01*
X140440800Y-115548793D01*
X140440800Y-112656089D01*
X147273000Y-112656089D01*
X147273000Y-113164111D01*
X147467412Y-113633462D01*
X147826638Y-113992688D01*
X148295989Y-114187100D01*
X148804011Y-114187100D01*
X149273362Y-113992688D01*
X149632588Y-113633462D01*
X149827000Y-113164111D01*
X149827000Y-112807807D01*
X153483651Y-109151157D01*
X153573573Y-109091073D01*
X153811611Y-108734824D01*
X153874100Y-108420672D01*
X153874100Y-108420667D01*
X153895198Y-108314601D01*
X153874100Y-108208534D01*
X153874100Y-104520889D01*
X155473000Y-104520889D01*
X155473000Y-105028911D01*
X155667412Y-105498262D01*
X156026638Y-105857488D01*
X156495989Y-106051900D01*
X157004011Y-106051900D01*
X157473362Y-105857488D01*
X157832588Y-105498262D01*
X158027000Y-105028911D01*
X158027000Y-104520889D01*
X157912777Y-104245130D01*
X158079301Y-104078606D01*
X158079300Y-135209592D01*
X156503893Y-136785000D01*
X156495989Y-136785000D01*
X156026638Y-136979412D01*
X155667412Y-137338638D01*
X155473000Y-137807989D01*
X155473000Y-138316011D01*
X155667412Y-138785362D01*
X156026638Y-139144588D01*
X156495989Y-139339000D01*
X157004011Y-139339000D01*
X157473362Y-139144588D01*
X157832588Y-138785362D01*
X158027000Y-138316011D01*
X158027000Y-138308107D01*
X159842851Y-136492257D01*
X159932773Y-136432173D01*
X159995096Y-136338901D01*
X160124795Y-136144792D01*
X160170811Y-136075924D01*
X160233300Y-135761772D01*
X160233300Y-135761767D01*
X160254398Y-135655701D01*
X160233300Y-135549634D01*
X160233300Y-134457689D01*
X197572600Y-134457689D01*
X197572600Y-134965711D01*
X197767012Y-135435062D01*
X198126238Y-135794288D01*
X198595589Y-135988700D01*
X199103611Y-135988700D01*
X199572962Y-135794288D01*
X199932188Y-135435062D01*
X200126600Y-134965711D01*
X200126600Y-134957807D01*
X201686551Y-133397857D01*
X201776473Y-133337773D01*
X202014511Y-132981524D01*
X202077000Y-132667372D01*
X202077000Y-132667367D01*
X202098098Y-132561300D01*
X202077000Y-132455234D01*
X202077000Y-121095989D01*
X223360100Y-121095989D01*
X223360100Y-121604011D01*
X223554512Y-122073362D01*
X223913738Y-122432588D01*
X224383089Y-122627000D01*
X224390993Y-122627000D01*
X227238600Y-125474608D01*
X227238601Y-126807849D01*
X227233012Y-126813438D01*
X227038600Y-127282789D01*
X227038600Y-127790811D01*
X227233012Y-128260162D01*
X227592238Y-128619388D01*
X228061589Y-128813800D01*
X228569611Y-128813800D01*
X229038962Y-128619388D01*
X229398188Y-128260162D01*
X229592600Y-127790811D01*
X229592600Y-127282789D01*
X229398188Y-126813438D01*
X229392600Y-126807850D01*
X229392600Y-125134568D01*
X229413698Y-125028500D01*
X229392600Y-124922432D01*
X229392600Y-124922428D01*
X229330111Y-124608276D01*
X229330111Y-124608275D01*
X229152158Y-124341950D01*
X229152157Y-124341949D01*
X229092073Y-124252027D01*
X229002151Y-124191944D01*
X225914100Y-121103893D01*
X225914100Y-121095989D01*
X225719688Y-120626638D01*
X225360462Y-120267412D01*
X224891111Y-120073000D01*
X224383089Y-120073000D01*
X223913738Y-120267412D01*
X223554512Y-120626638D01*
X223360100Y-121095989D01*
X202077000Y-121095989D01*
X202077000Y-104595989D01*
X206863500Y-104595989D01*
X206863500Y-105104011D01*
X207057912Y-105573362D01*
X207417138Y-105932588D01*
X207886489Y-106127000D01*
X208394511Y-106127000D01*
X208863862Y-105932588D01*
X208869450Y-105927000D01*
X217484334Y-105927000D01*
X217590400Y-105948098D01*
X217696466Y-105927000D01*
X217696472Y-105927000D01*
X218010624Y-105864511D01*
X218366873Y-105626473D01*
X218426959Y-105536548D01*
X220246108Y-103717400D01*
X220254011Y-103717400D01*
X220723362Y-103522988D01*
X221082588Y-103163762D01*
X221277000Y-102694411D01*
X221277000Y-102186389D01*
X221082588Y-101717038D01*
X220723362Y-101357812D01*
X220254011Y-101163400D01*
X219745989Y-101163400D01*
X219276638Y-101357812D01*
X218917412Y-101717038D01*
X218723000Y-102186389D01*
X218723000Y-102194292D01*
X217144293Y-103773000D01*
X208869450Y-103773000D01*
X208863862Y-103767412D01*
X208394511Y-103573000D01*
X207886489Y-103573000D01*
X207417138Y-103767412D01*
X207057912Y-104126638D01*
X206863500Y-104595989D01*
X202077000Y-104595989D01*
X202077000Y-103169350D01*
X202082588Y-103163762D01*
X202277000Y-102694411D01*
X202277000Y-102186389D01*
X202082588Y-101717038D01*
X201723362Y-101357812D01*
X201254011Y-101163400D01*
X200745989Y-101163400D01*
X200276638Y-101357812D01*
X199917412Y-101717038D01*
X199723000Y-102186389D01*
X199723000Y-102694411D01*
X199917412Y-103163762D01*
X199923000Y-103169350D01*
X199923001Y-132115191D01*
X198603493Y-133434700D01*
X198595589Y-133434700D01*
X198126238Y-133629112D01*
X197767012Y-133988338D01*
X197572600Y-134457689D01*
X160233300Y-134457689D01*
X160233300Y-103378950D01*
X160238888Y-103373362D01*
X160430405Y-102911000D01*
X164975895Y-102911000D01*
X165167412Y-103373362D01*
X165526638Y-103732588D01*
X165995989Y-103927000D01*
X166504011Y-103927000D01*
X166973362Y-103732588D01*
X167161561Y-103544389D01*
X173999700Y-103544389D01*
X173999700Y-104052411D01*
X174194112Y-104521762D01*
X174199701Y-104527351D01*
X174199700Y-107558933D01*
X174178602Y-107665000D01*
X174199700Y-107771066D01*
X174199700Y-107771071D01*
X174262189Y-108085223D01*
X174500227Y-108441473D01*
X174590152Y-108501559D01*
X193923000Y-127834408D01*
X193923000Y-127842311D01*
X194117412Y-128311662D01*
X194476638Y-128670888D01*
X194945989Y-128865300D01*
X195454011Y-128865300D01*
X195923362Y-128670888D01*
X196282588Y-128311662D01*
X196477000Y-127842311D01*
X196477000Y-127334289D01*
X196282588Y-126864938D01*
X195923362Y-126505712D01*
X195454011Y-126311300D01*
X195446108Y-126311300D01*
X190230797Y-121095989D01*
X192675000Y-121095989D01*
X192675000Y-121604011D01*
X192869412Y-122073362D01*
X193228638Y-122432588D01*
X193697989Y-122627000D01*
X194206011Y-122627000D01*
X194675362Y-122432588D01*
X195034588Y-122073362D01*
X195229000Y-121604011D01*
X195229000Y-121596107D01*
X197106151Y-119718957D01*
X197196073Y-119658873D01*
X197434111Y-119302624D01*
X197496600Y-118988472D01*
X197496600Y-118988467D01*
X197517698Y-118882401D01*
X197496600Y-118776334D01*
X197496600Y-110378950D01*
X197502188Y-110373362D01*
X197696600Y-109904011D01*
X197696600Y-109395989D01*
X197502188Y-108926638D01*
X197142962Y-108567412D01*
X196673611Y-108373000D01*
X196165589Y-108373000D01*
X195696238Y-108567412D01*
X195337012Y-108926638D01*
X195142600Y-109395989D01*
X195142600Y-109904011D01*
X195337012Y-110373362D01*
X195342600Y-110378950D01*
X195342601Y-118436291D01*
X193705893Y-120073000D01*
X193697989Y-120073000D01*
X193228638Y-120267412D01*
X192869412Y-120626638D01*
X192675000Y-121095989D01*
X190230797Y-121095989D01*
X176353700Y-107218893D01*
X176353700Y-104527350D01*
X176359288Y-104521762D01*
X176553700Y-104052411D01*
X176553700Y-103544389D01*
X176359288Y-103075038D01*
X176000062Y-102715812D01*
X175530711Y-102521400D01*
X175022689Y-102521400D01*
X174553338Y-102715812D01*
X174194112Y-103075038D01*
X173999700Y-103544389D01*
X167161561Y-103544389D01*
X167332588Y-103373362D01*
X167527000Y-102904011D01*
X167527000Y-102395989D01*
X167332588Y-101926638D01*
X166973362Y-101567412D01*
X166504011Y-101373000D01*
X166496107Y-101373000D01*
X166270559Y-101147451D01*
X166210473Y-101057527D01*
X165854224Y-100819489D01*
X165540072Y-100757000D01*
X165540066Y-100757000D01*
X165434000Y-100735902D01*
X165327934Y-100757000D01*
X158906866Y-100757000D01*
X158800799Y-100735902D01*
X158694733Y-100757000D01*
X158694728Y-100757000D01*
X158380576Y-100819489D01*
X158380574Y-100819490D01*
X158380575Y-100819490D01*
X158114250Y-100997442D01*
X158114249Y-100997443D01*
X158024327Y-101057527D01*
X157964243Y-101147449D01*
X156063450Y-103048243D01*
X155973528Y-103108327D01*
X155913444Y-103198249D01*
X155913442Y-103198251D01*
X155791951Y-103380076D01*
X155735490Y-103464576D01*
X155673000Y-103778728D01*
X155673000Y-103778734D01*
X155651902Y-103884800D01*
X155673000Y-103990866D01*
X155673000Y-104045950D01*
X155667412Y-104051538D01*
X155473000Y-104520889D01*
X153874100Y-104520889D01*
X153874100Y-96378950D01*
X153879688Y-96373362D01*
X154074100Y-95904011D01*
X154074100Y-95395989D01*
X153879688Y-94926638D01*
X153520462Y-94567412D01*
X153051111Y-94373000D01*
X152543089Y-94373000D01*
X152073738Y-94567412D01*
X151714512Y-94926638D01*
X151520100Y-95395989D01*
X151520100Y-95904011D01*
X151714512Y-96373362D01*
X151720100Y-96378950D01*
X151720101Y-107868491D01*
X147863452Y-111725141D01*
X147773527Y-111785227D01*
X147581433Y-112072717D01*
X147467412Y-112186738D01*
X147273000Y-112656089D01*
X140440800Y-112656089D01*
X140440800Y-109523750D01*
X140446388Y-109518162D01*
X140640800Y-109048811D01*
X140640800Y-108540789D01*
X140446388Y-108071438D01*
X140087162Y-107712212D01*
X139617811Y-107517800D01*
X139109789Y-107517800D01*
X138640438Y-107712212D01*
X138281212Y-108071438D01*
X138086800Y-108540789D01*
X122727400Y-108540789D01*
X122727400Y-105883350D01*
X122776638Y-105932588D01*
X123245989Y-106127000D01*
X123754011Y-106127000D01*
X124223362Y-105932588D01*
X124582588Y-105573362D01*
X124777000Y-105104011D01*
X124777000Y-105096107D01*
X131996408Y-97876700D01*
X139376150Y-97876700D01*
X139381738Y-97882288D01*
X139851089Y-98076700D01*
X140359111Y-98076700D01*
X140828462Y-97882288D01*
X141187688Y-97523062D01*
X141382100Y-97053711D01*
X141382100Y-96545689D01*
X141187688Y-96076338D01*
X140828462Y-95717112D01*
X140359111Y-95522700D01*
X139851089Y-95522700D01*
X139381738Y-95717112D01*
X139376150Y-95722700D01*
X131656366Y-95722700D01*
X131550299Y-95701602D01*
X131444233Y-95722700D01*
X131444228Y-95722700D01*
X131130076Y-95785189D01*
X130773827Y-96023227D01*
X130713743Y-96113149D01*
X125633100Y-101193793D01*
X125633100Y-89660400D01*
X129771050Y-89660400D01*
X129776638Y-89665988D01*
X130245989Y-89860400D01*
X130754011Y-89860400D01*
X131223362Y-89665988D01*
X131582588Y-89306762D01*
X131777000Y-88837411D01*
X131777000Y-88329389D01*
X131680323Y-88095989D01*
X148473000Y-88095989D01*
X148473000Y-88604011D01*
X148667412Y-89073362D01*
X149026638Y-89432588D01*
X149495989Y-89627000D01*
X150004011Y-89627000D01*
X150473362Y-89432588D01*
X150832588Y-89073362D01*
X151027000Y-88604011D01*
X151027000Y-88596107D01*
X153272051Y-86351056D01*
X153361973Y-86290973D01*
X153442656Y-86170223D01*
X153600011Y-85934725D01*
X153638945Y-85738989D01*
X153662500Y-85620572D01*
X153662500Y-85620568D01*
X153683598Y-85514500D01*
X153662500Y-85408432D01*
X153662500Y-80249689D01*
X192216800Y-80249689D01*
X192216800Y-80757711D01*
X192411212Y-81227062D01*
X192416800Y-81232650D01*
X192416801Y-82411129D01*
X192395702Y-82517200D01*
X192479290Y-82937424D01*
X192657242Y-83203749D01*
X192657244Y-83203751D01*
X192717328Y-83293673D01*
X192807250Y-83353757D01*
X194897000Y-85443508D01*
X194897000Y-85451411D01*
X195091412Y-85920762D01*
X195098950Y-85928300D01*
X195080189Y-85928300D01*
X194610838Y-86122712D01*
X194251612Y-86481938D01*
X194057200Y-86951289D01*
X194057200Y-87459311D01*
X194251612Y-87928662D01*
X194257200Y-87934250D01*
X194257201Y-96044791D01*
X193728993Y-96573000D01*
X193721089Y-96573000D01*
X193251738Y-96767412D01*
X192892512Y-97126638D01*
X192698100Y-97595989D01*
X192698100Y-98104011D01*
X192892512Y-98573362D01*
X193251738Y-98932588D01*
X193721089Y-99127000D01*
X194229111Y-99127000D01*
X194698462Y-98932588D01*
X195057688Y-98573362D01*
X195252100Y-98104011D01*
X195252100Y-98096107D01*
X196020751Y-97327457D01*
X196110673Y-97267373D01*
X196173731Y-97173000D01*
X196348711Y-96911125D01*
X196367717Y-96815576D01*
X196411200Y-96596972D01*
X196411200Y-96596968D01*
X196432298Y-96490900D01*
X196411200Y-96384832D01*
X196411200Y-87934250D01*
X196416788Y-87928662D01*
X196611200Y-87459311D01*
X196611200Y-86951289D01*
X196416788Y-86481938D01*
X196409250Y-86474400D01*
X196428011Y-86474400D01*
X196897362Y-86279988D01*
X197256588Y-85920762D01*
X197451000Y-85451411D01*
X197451000Y-84943389D01*
X197256588Y-84474038D01*
X196897362Y-84114812D01*
X196428011Y-83920400D01*
X196420108Y-83920400D01*
X194570800Y-82071093D01*
X194570800Y-81232650D01*
X194576388Y-81227062D01*
X194770800Y-80757711D01*
X194770800Y-80249689D01*
X194576388Y-79780338D01*
X194217162Y-79421112D01*
X193747811Y-79226700D01*
X193239789Y-79226700D01*
X192770438Y-79421112D01*
X192411212Y-79780338D01*
X192216800Y-80249689D01*
X153662500Y-80249689D01*
X153662500Y-77378950D01*
X153668088Y-77373362D01*
X153862500Y-76904011D01*
X153862500Y-76395989D01*
X153668088Y-75926638D01*
X153308862Y-75567412D01*
X152839511Y-75373000D01*
X152331489Y-75373000D01*
X151862138Y-75567412D01*
X151502912Y-75926638D01*
X151308500Y-76395989D01*
X151308500Y-76904011D01*
X151502912Y-77373362D01*
X151508501Y-77378951D01*
X151508500Y-85068392D01*
X149503893Y-87073000D01*
X149495989Y-87073000D01*
X149026638Y-87267412D01*
X148667412Y-87626638D01*
X148473000Y-88095989D01*
X131680323Y-88095989D01*
X131582588Y-87860038D01*
X131223362Y-87500812D01*
X130754011Y-87306400D01*
X130245989Y-87306400D01*
X129776638Y-87500812D01*
X129771050Y-87506400D01*
X125633100Y-87506400D01*
X125633100Y-83737466D01*
X125654198Y-83631400D01*
X125633100Y-83525333D01*
X125633100Y-83525328D01*
X125570611Y-83211176D01*
X125453421Y-83035789D01*
X125392658Y-82944850D01*
X125392657Y-82944849D01*
X125332573Y-82854927D01*
X125242651Y-82794843D01*
X122021593Y-79573786D01*
X122076116Y-79492188D01*
X122144181Y-79150000D01*
X122144181Y-77885426D01*
X126902608Y-73127000D01*
X126910511Y-73127000D01*
X127379862Y-72932588D01*
X127739088Y-72573362D01*
X127793495Y-72442012D01*
X128013118Y-72222389D01*
X212127300Y-72222389D01*
X212127300Y-72730411D01*
X212321712Y-73199762D01*
X212680938Y-73558988D01*
X213150289Y-73753400D01*
X213658311Y-73753400D01*
X214127662Y-73558988D01*
X214486888Y-73199762D01*
X214681300Y-72730411D01*
X214681300Y-72722507D01*
X217728808Y-69675000D01*
X219809450Y-69675000D01*
X219815038Y-69680588D01*
X220284389Y-69875000D01*
X220792411Y-69875000D01*
X221261762Y-69680588D01*
X221620988Y-69321362D01*
X221815400Y-68852011D01*
X221815400Y-68343989D01*
X221620988Y-67874638D01*
X221261762Y-67515412D01*
X220792411Y-67321000D01*
X220284389Y-67321000D01*
X219815038Y-67515412D01*
X219809450Y-67521000D01*
X217388766Y-67521000D01*
X217282700Y-67499902D01*
X217176633Y-67521000D01*
X217176628Y-67521000D01*
X216862476Y-67583489D01*
X216774772Y-67642091D01*
X216596150Y-67761442D01*
X216596149Y-67761443D01*
X216506227Y-67821527D01*
X216446143Y-67911449D01*
X213158193Y-71199400D01*
X213150289Y-71199400D01*
X212680938Y-71393812D01*
X212321712Y-71753038D01*
X212127300Y-72222389D01*
X128013118Y-72222389D01*
X130211851Y-70023657D01*
X130301773Y-69963573D01*
X130425825Y-69777917D01*
X130477510Y-69700564D01*
X130539811Y-69607324D01*
X130602300Y-69293172D01*
X130602300Y-69293167D01*
X130623398Y-69187101D01*
X130602300Y-69081034D01*
X130602300Y-65856072D01*
X130623399Y-65750000D01*
X130608341Y-65674300D01*
X151184193Y-65674300D01*
X154321100Y-68811208D01*
X154321100Y-68819111D01*
X154515512Y-69288462D01*
X154874738Y-69647688D01*
X155344089Y-69842100D01*
X155852111Y-69842100D01*
X156321462Y-69647688D01*
X156680688Y-69288462D01*
X156875100Y-68819111D01*
X156875100Y-68311089D01*
X156680688Y-67841738D01*
X156321462Y-67482512D01*
X155852111Y-67288100D01*
X155844208Y-67288100D01*
X152466859Y-63910752D01*
X152406773Y-63820827D01*
X152050524Y-63582789D01*
X151736372Y-63520300D01*
X151736366Y-63520300D01*
X151630300Y-63499202D01*
X151524234Y-63520300D01*
X127729366Y-63520300D01*
X127623299Y-63499202D01*
X127517233Y-63520300D01*
X127517228Y-63520300D01*
X127203076Y-63582789D01*
X126846827Y-63820827D01*
X126787305Y-63909907D01*
X126698228Y-63969427D01*
X126638144Y-64059349D01*
X126638142Y-64059351D01*
X126460190Y-64325676D01*
X126376602Y-64745900D01*
X126397701Y-64851971D01*
X126397700Y-67506941D01*
X126359943Y-67563449D01*
X125651893Y-68271500D01*
X125643989Y-68271500D01*
X125174638Y-68465912D01*
X125169050Y-68471500D01*
X114521022Y-68471500D01*
X114254011Y-68360900D01*
X113745989Y-68360900D01*
X113276638Y-68555312D01*
X112917412Y-68914538D01*
X112723000Y-69383889D01*
X112723000Y-69891911D01*
X112917412Y-70361262D01*
X113276638Y-70720488D01*
X113745989Y-70914900D01*
X114254011Y-70914900D01*
X114723362Y-70720488D01*
X114818350Y-70625500D01*
X125169050Y-70625500D01*
X125174638Y-70631088D01*
X125643989Y-70825500D01*
X125875050Y-70825500D01*
X125573912Y-71126638D01*
X125379500Y-71595989D01*
X125379500Y-71603892D01*
X120610693Y-76372700D01*
X120581072Y-76372700D01*
X120475000Y-76351601D01*
X120368929Y-76372700D01*
X120368928Y-76372700D01*
X120054776Y-76435189D01*
X119698527Y-76673227D01*
X119548472Y-76897800D01*
X114331566Y-76897800D01*
X114225500Y-76876702D01*
X114119433Y-76897800D01*
X114119428Y-76897800D01*
X113805276Y-76960289D01*
X113676144Y-77046573D01*
X113642188Y-77023884D01*
X113300000Y-76955819D01*
X111750000Y-76955819D01*
X111407812Y-77023884D01*
X111117719Y-77217719D01*
X110923884Y-77507812D01*
X110855819Y-77850000D01*
X110855819Y-79150000D01*
X110923884Y-79492188D01*
X110978406Y-79573786D01*
X110903493Y-79648700D01*
X99371553Y-79648700D01*
X99295188Y-79464338D01*
X98935962Y-79105112D01*
X98894181Y-79087806D01*
X98894181Y-77850000D01*
X98826116Y-77507812D01*
X98632281Y-77217719D01*
X98342188Y-77023884D01*
X98000000Y-76955819D01*
X96450000Y-76955819D01*
X96107812Y-77023884D01*
X95817719Y-77217719D01*
X95623884Y-77507812D01*
X95555819Y-77850000D01*
X95555819Y-77948100D01*
X90944181Y-77948100D01*
X90944181Y-77850000D01*
X90876116Y-77507812D01*
X90682281Y-77217719D01*
X90392188Y-77023884D01*
X90202295Y-76986112D01*
X90533008Y-76655400D01*
X97708650Y-76655400D01*
X97714238Y-76660988D01*
X98183589Y-76855400D01*
X98691611Y-76855400D01*
X99160962Y-76660988D01*
X99520188Y-76301762D01*
X99714600Y-75832411D01*
X99714600Y-75324389D01*
X99520188Y-74855038D01*
X99160962Y-74495812D01*
X98691611Y-74301400D01*
X98183589Y-74301400D01*
X97714238Y-74495812D01*
X97708650Y-74501400D01*
X90192966Y-74501400D01*
X90086899Y-74480302D01*
X89980833Y-74501400D01*
X89980828Y-74501400D01*
X89666676Y-74563889D01*
X89586699Y-74617328D01*
X89400350Y-74741842D01*
X89400349Y-74741843D01*
X89310427Y-74801927D01*
X89250343Y-74891849D01*
X86810850Y-77331343D01*
X86720928Y-77391427D01*
X86660844Y-77481349D01*
X86660842Y-77481351D01*
X86510162Y-77706861D01*
X86482890Y-77747676D01*
X86422326Y-78052153D01*
X86399302Y-78167900D01*
X86420401Y-78273971D01*
X86420400Y-85832533D01*
X86399302Y-85938600D01*
X86420400Y-86044666D01*
X86420400Y-86044671D01*
X86482889Y-86358823D01*
X86720927Y-86715073D01*
X86810852Y-86775159D01*
X88627000Y-88591308D01*
X88627000Y-88599211D01*
X88821412Y-89068562D01*
X89180638Y-89427788D01*
X89649989Y-89622200D01*
X90148000Y-89622200D01*
X90148001Y-96765890D01*
X90107812Y-96773884D01*
X89817719Y-96967719D01*
X89640229Y-97233350D01*
X89629476Y-97235489D01*
X89563759Y-97279400D01*
X84936241Y-97279400D01*
X84870524Y-97235489D01*
X84859771Y-97233350D01*
X84682281Y-96967719D01*
X84392188Y-96773884D01*
X84050000Y-96705819D01*
X82500000Y-96705819D01*
X82157812Y-96773884D01*
X81867719Y-96967719D01*
X81673884Y-97257812D01*
X81605819Y-97600000D01*
X81605819Y-98900000D01*
X81619718Y-98969875D01*
X80781952Y-99807641D01*
X80692027Y-99867727D01*
X80639416Y-99946466D01*
X80412362Y-99719412D01*
X79943011Y-99525000D01*
X79935108Y-99525000D01*
X77052000Y-96641893D01*
X77052000Y-84484110D01*
X77092188Y-84476116D01*
X77382281Y-84282281D01*
X77576116Y-83992188D01*
X77644181Y-83650000D01*
X77644181Y-82350000D01*
X77576116Y-82007812D01*
X77382281Y-81717719D01*
X77092188Y-81523884D01*
X76750000Y-81455819D01*
X75592589Y-81455819D01*
X76661551Y-80386857D01*
X76751473Y-80326773D01*
X76811556Y-80236852D01*
X76811558Y-80236850D01*
X76969464Y-80000527D01*
X77092188Y-79976116D01*
X77382281Y-79782281D01*
X77576116Y-79492188D01*
X77644181Y-79150000D01*
X77644181Y-78879026D01*
X79951651Y-76571556D01*
X80041573Y-76511473D01*
X80279611Y-76155224D01*
X80342100Y-75841072D01*
X80342100Y-75841067D01*
X80363198Y-75735001D01*
X80342100Y-75628934D01*
X80342100Y-72578950D01*
X80347688Y-72573362D01*
X80542100Y-72104011D01*
X80542100Y-71595989D01*
X80347688Y-71126638D01*
X80099300Y-70878250D01*
X80332588Y-70644962D01*
X80527000Y-70175611D01*
X80527000Y-69667589D01*
X80332588Y-69198238D01*
X79973362Y-68839012D01*
X79504011Y-68644600D01*
X78995989Y-68644600D01*
X78526638Y-68839012D01*
X78521050Y-68844600D01*
X71534766Y-68844600D01*
X71428699Y-68823502D01*
X71322633Y-68844600D01*
X71322628Y-68844600D01*
X71008476Y-68907089D01*
X71008474Y-68907090D01*
X71008475Y-68907090D01*
X70742150Y-69085042D01*
X70742149Y-69085043D01*
X70652227Y-69145127D01*
X70592143Y-69235049D01*
X69503893Y-70323300D01*
X69495989Y-70323300D01*
X69026638Y-70517712D01*
X68667412Y-70876938D01*
X68473000Y-71346289D01*
X68473000Y-71854311D01*
X68667412Y-72323662D01*
X69026638Y-72682888D01*
X69495989Y-72877300D01*
X70004011Y-72877300D01*
X70473362Y-72682888D01*
X70832588Y-72323662D01*
X71027000Y-71854311D01*
X71027000Y-71846407D01*
X71874808Y-70998600D01*
X78310550Y-70998600D01*
X78182512Y-71126638D01*
X77988100Y-71595989D01*
X77988100Y-72104011D01*
X78182512Y-72573362D01*
X78188101Y-72578951D01*
X78188100Y-75288892D01*
X76521174Y-76955819D01*
X75200000Y-76955819D01*
X74857812Y-77023884D01*
X74567719Y-77217719D01*
X74373884Y-77507812D01*
X74305819Y-77850000D01*
X74305819Y-79150000D01*
X74373884Y-79492188D01*
X74428406Y-79573786D01*
X72079193Y-81923000D01*
X71920820Y-81923000D01*
X69571632Y-79573729D01*
X69626116Y-79492188D01*
X69694181Y-79150000D01*
X69694181Y-77850000D01*
X69626116Y-77507812D01*
X69432281Y-77217719D01*
X69142188Y-77023884D01*
X68800000Y-76955819D01*
X67250000Y-76955819D01*
X66907812Y-77023884D01*
X66617719Y-77217719D01*
X66423884Y-77507812D01*
X66355819Y-77850000D01*
X66355819Y-79150000D01*
X66423884Y-79492188D01*
X66617719Y-79782281D01*
X66907812Y-79976116D01*
X67030519Y-80000524D01*
X67132055Y-80152459D01*
X67180592Y-80225100D01*
X63753152Y-83652541D01*
X63663227Y-83712627D01*
X63425189Y-84068877D01*
X63362700Y-84383029D01*
X63362700Y-84383034D01*
X63341602Y-84489100D01*
X63362700Y-84595167D01*
X63362701Y-87397700D01*
X61106072Y-87397700D01*
X61000000Y-87376601D01*
X60893929Y-87397700D01*
X60893928Y-87397700D01*
X60579776Y-87460189D01*
X60223527Y-87698227D01*
X60001705Y-88030208D01*
X59907812Y-88048884D01*
X59617719Y-88242719D01*
X59459494Y-88479518D01*
X59429476Y-88485489D01*
X59429474Y-88485490D01*
X59429475Y-88485490D01*
X59163150Y-88663442D01*
X59163149Y-88663443D01*
X59073227Y-88723527D01*
X59013143Y-88813449D01*
X58330084Y-89496508D01*
X57170800Y-88337272D01*
X57170800Y-88329389D01*
X56976388Y-87860038D01*
X56617162Y-87500812D01*
X56147811Y-87306400D01*
X55639789Y-87306400D01*
X55170438Y-87500812D01*
X54811212Y-87860038D01*
X54616800Y-88329389D01*
X54616800Y-88837411D01*
X54811212Y-89306762D01*
X55170438Y-89665988D01*
X55639789Y-89860400D01*
X55647714Y-89860400D01*
X56806977Y-91019616D01*
X55880100Y-91946492D01*
X55880100Y-91478489D01*
X55685688Y-91009138D01*
X55326462Y-90649912D01*
X54857111Y-90455500D01*
X54849208Y-90455500D01*
X54364500Y-89970793D01*
X54364500Y-87482450D01*
X54370088Y-87476862D01*
X54564500Y-87007511D01*
X54564500Y-86499489D01*
X54370088Y-86030138D01*
X54010862Y-85670912D01*
X53541511Y-85476500D01*
X53033489Y-85476500D01*
X52564138Y-85670912D01*
X52204912Y-86030138D01*
X52010500Y-86499489D01*
X52010500Y-87007511D01*
X52204912Y-87476862D01*
X52210500Y-87482450D01*
X52210501Y-90310829D01*
X52189402Y-90416900D01*
X52272990Y-90837124D01*
X52450942Y-91103449D01*
X52450944Y-91103451D01*
X52511028Y-91193373D01*
X52600950Y-91253457D01*
X53326100Y-91978608D01*
X53326100Y-91986511D01*
X53520512Y-92455862D01*
X53879738Y-92815088D01*
X54349089Y-93009500D01*
X54817093Y-93009500D01*
X53762152Y-94064441D01*
X53672227Y-94124527D01*
X53434189Y-94480777D01*
X53371700Y-94794929D01*
X53371700Y-94794934D01*
X53350602Y-94901000D01*
X53371700Y-95007067D01*
X53371701Y-100609505D01*
X53062911Y-100481600D01*
X52554889Y-100481600D01*
X52085538Y-100676012D01*
X51726312Y-101035238D01*
X51531900Y-101504589D01*
X51531900Y-101512492D01*
X45952000Y-107092393D01*
X45952000Y-77524505D01*
X46027671Y-76056104D01*
X46250107Y-74627500D01*
X46618216Y-73229326D01*
X47128095Y-71876400D01*
X47774341Y-70583059D01*
X48550112Y-69362993D01*
X49374106Y-68321505D01*
X49123000Y-68927729D01*
X49123000Y-70072271D01*
X49560997Y-71129690D01*
X50370310Y-71939003D01*
X51427729Y-72377000D01*
X52572271Y-72377000D01*
X53629690Y-71939003D01*
X54439003Y-71129690D01*
X54877000Y-70072271D01*
X54877000Y-68927729D01*
X54439003Y-67870310D01*
X53629690Y-67060997D01*
X52572271Y-66623000D01*
X51427729Y-66623000D01*
X50855686Y-66859948D01*
X51566053Y-66267042D01*
X52765396Y-65459596D01*
X54041387Y-64779711D01*
X55380492Y-64234595D01*
X56768553Y-63830013D01*
X58190846Y-63570256D01*
X59650559Y-63456655D01*
X60006197Y-63452000D01*
X219975495Y-63452000D01*
X221443896Y-63527671D01*
X221443896Y-63527671D01*
G37*
X221443896Y-63527671D02*
X222872500Y-63750107D01*
X224270674Y-64118216D01*
X225623600Y-64628095D01*
X226916941Y-65274341D01*
X228137007Y-66050112D01*
X229178495Y-66874106D01*
X228572271Y-66623000D01*
X227427729Y-66623000D01*
X226370310Y-67060997D01*
X225560997Y-67870310D01*
X225123000Y-68927729D01*
X225123000Y-70072271D01*
X225560997Y-71129690D01*
X226370310Y-71939003D01*
X227427729Y-72377000D01*
X228572271Y-72377000D01*
X229629690Y-71939003D01*
X230439003Y-71129690D01*
X230877000Y-70072271D01*
X230877000Y-68927729D01*
X230640052Y-68355686D01*
X231232958Y-69066053D01*
X232040404Y-70265396D01*
X232720289Y-71541387D01*
X233265405Y-72880492D01*
X233669987Y-74268553D01*
X233929744Y-75690846D01*
X234043345Y-77150559D01*
X234048000Y-77506197D01*
X234048001Y-129975476D01*
X233972329Y-131443896D01*
X233749893Y-132872500D01*
X233381783Y-134270677D01*
X232871908Y-135623592D01*
X232225658Y-136916941D01*
X231449888Y-138137007D01*
X230625895Y-139178493D01*
X230877000Y-138572271D01*
X230877000Y-137427729D01*
X230439003Y-136370310D01*
X229629690Y-135560997D01*
X228572271Y-135123000D01*
X227427729Y-135123000D01*
X226370310Y-135560997D01*
X225560997Y-136370310D01*
X225123000Y-137427729D01*
X225123000Y-138572271D01*
X225560997Y-139629690D01*
X226370310Y-140439003D01*
X227427729Y-140877000D01*
X228572271Y-140877000D01*
X229144314Y-140640052D01*
X228433947Y-141232958D01*
X227234604Y-142040404D01*
X225958613Y-142720289D01*
X224619511Y-143265404D01*
X223231447Y-143669987D01*
X221809154Y-143929744D01*
X220349441Y-144043345D01*
X219993803Y-144048000D01*
X101644707Y-144048000D01*
X113211552Y-132481156D01*
X113301473Y-132421073D01*
X113379909Y-132303686D01*
X113488756Y-132140784D01*
X113539511Y-132064824D01*
X113602000Y-131750672D01*
X113602000Y-131750667D01*
X113623098Y-131644601D01*
X113602000Y-131538534D01*
X113602000Y-123234110D01*
X113642188Y-123226116D01*
X113932281Y-123032281D01*
X114069446Y-122827000D01*
X118930554Y-122827000D01*
X119067719Y-123032281D01*
X119357812Y-123226116D01*
X119700000Y-123294181D01*
X121215701Y-123294181D01*
X121215700Y-136961933D01*
X121194602Y-137068000D01*
X121215700Y-137174066D01*
X121215700Y-137174071D01*
X121278189Y-137488223D01*
X121516227Y-137844473D01*
X121606152Y-137904559D01*
X126138143Y-142436551D01*
X126198227Y-142526473D01*
X126288149Y-142586557D01*
X126288150Y-142586558D01*
X126419897Y-142674588D01*
X126530208Y-142748295D01*
X126548884Y-142842188D01*
X126742719Y-143132281D01*
X127032812Y-143326116D01*
X127375000Y-143394181D01*
X128625000Y-143394181D01*
X128967188Y-143326116D01*
X129257281Y-143132281D01*
X129451116Y-142842188D01*
X129519181Y-142500000D01*
X129519181Y-141000000D01*
X129451116Y-140657812D01*
X129345669Y-140500000D01*
X129451116Y-140342188D01*
X129519181Y-140000000D01*
X129519181Y-138500000D01*
X129451116Y-138157812D01*
X129257281Y-137867719D01*
X128967188Y-137673884D01*
X128625000Y-137605819D01*
X128051700Y-137605819D01*
X128051700Y-132266166D01*
X128072798Y-132160099D01*
X128051700Y-132054033D01*
X128051700Y-132054028D01*
X127989211Y-131739876D01*
X127860195Y-131546790D01*
X127811258Y-131473550D01*
X127811257Y-131473549D01*
X127751173Y-131383627D01*
X127661251Y-131323543D01*
X127234200Y-130896492D01*
X127234200Y-130888589D01*
X127039788Y-130419238D01*
X126680562Y-130060012D01*
X126211211Y-129865600D01*
X125703189Y-129865600D01*
X125233838Y-130060012D01*
X124874612Y-130419238D01*
X124680200Y-130888589D01*
X124680200Y-131396611D01*
X124874612Y-131865962D01*
X125233838Y-132225188D01*
X125703189Y-132419600D01*
X125711092Y-132419600D01*
X125897701Y-132606209D01*
X125897700Y-139143928D01*
X125896711Y-139148903D01*
X123369700Y-136621893D01*
X123369700Y-120224066D01*
X123390798Y-120118000D01*
X123369700Y-120011933D01*
X123369700Y-120011928D01*
X123307211Y-119697776D01*
X123203859Y-119543099D01*
X123129258Y-119431450D01*
X123129257Y-119431449D01*
X123069173Y-119341527D01*
X122979251Y-119281443D01*
X122021594Y-118323786D01*
X122076116Y-118242188D01*
X122144181Y-117900000D01*
X122144181Y-116600000D01*
X122076116Y-116257812D01*
X122021594Y-116176214D01*
X122336951Y-115860857D01*
X122426873Y-115800773D01*
X122486958Y-115710850D01*
X122664911Y-115444525D01*
X122697269Y-115281851D01*
X122727400Y-115130372D01*
X122727400Y-115130368D01*
X122748498Y-115024300D01*
X122727400Y-114918232D01*
X122727400Y-108540789D01*
X138086800Y-108540789D01*
X138086800Y-109048811D01*
X138281212Y-109518162D01*
X138286801Y-109523751D01*
X138286800Y-115888833D01*
X138265702Y-115994900D01*
X138286800Y-116100966D01*
X138286800Y-116100971D01*
X138349289Y-116415123D01*
X138587327Y-116771373D01*
X138677252Y-116831459D01*
X149673000Y-127827208D01*
X149673000Y-127835111D01*
X149867412Y-128304462D01*
X150226638Y-128663688D01*
X150695989Y-128858100D01*
X151204011Y-128858100D01*
X151673362Y-128663688D01*
X152032588Y-128304462D01*
X152227000Y-127835111D01*
X152227000Y-127327089D01*
X152032588Y-126857738D01*
X151673362Y-126498512D01*
X151204011Y-126304100D01*
X151196108Y-126304100D01*
X140440800Y-115548793D01*
X140440800Y-112656089D01*
X147273000Y-112656089D01*
X147273000Y-113164111D01*
X147467412Y-113633462D01*
X147826638Y-113992688D01*
X148295989Y-114187100D01*
X148804011Y-114187100D01*
X149273362Y-113992688D01*
X149632588Y-113633462D01*
X149827000Y-113164111D01*
X149827000Y-112807807D01*
X153483651Y-109151157D01*
X153573573Y-109091073D01*
X153811611Y-108734824D01*
X153874100Y-108420672D01*
X153874100Y-108420667D01*
X153895198Y-108314601D01*
X153874100Y-108208534D01*
X153874100Y-104520889D01*
X155473000Y-104520889D01*
X155473000Y-105028911D01*
X155667412Y-105498262D01*
X156026638Y-105857488D01*
X156495989Y-106051900D01*
X157004011Y-106051900D01*
X157473362Y-105857488D01*
X157832588Y-105498262D01*
X158027000Y-105028911D01*
X158027000Y-104520889D01*
X157912777Y-104245130D01*
X158079301Y-104078606D01*
X158079300Y-135209592D01*
X156503893Y-136785000D01*
X156495989Y-136785000D01*
X156026638Y-136979412D01*
X155667412Y-137338638D01*
X155473000Y-137807989D01*
X155473000Y-138316011D01*
X155667412Y-138785362D01*
X156026638Y-139144588D01*
X156495989Y-139339000D01*
X157004011Y-139339000D01*
X157473362Y-139144588D01*
X157832588Y-138785362D01*
X158027000Y-138316011D01*
X158027000Y-138308107D01*
X159842851Y-136492257D01*
X159932773Y-136432173D01*
X159995096Y-136338901D01*
X160124795Y-136144792D01*
X160170811Y-136075924D01*
X160233300Y-135761772D01*
X160233300Y-135761767D01*
X160254398Y-135655701D01*
X160233300Y-135549634D01*
X160233300Y-134457689D01*
X197572600Y-134457689D01*
X197572600Y-134965711D01*
X197767012Y-135435062D01*
X198126238Y-135794288D01*
X198595589Y-135988700D01*
X199103611Y-135988700D01*
X199572962Y-135794288D01*
X199932188Y-135435062D01*
X200126600Y-134965711D01*
X200126600Y-134957807D01*
X201686551Y-133397857D01*
X201776473Y-133337773D01*
X202014511Y-132981524D01*
X202077000Y-132667372D01*
X202077000Y-132667367D01*
X202098098Y-132561300D01*
X202077000Y-132455234D01*
X202077000Y-121095989D01*
X223360100Y-121095989D01*
X223360100Y-121604011D01*
X223554512Y-122073362D01*
X223913738Y-122432588D01*
X224383089Y-122627000D01*
X224390993Y-122627000D01*
X227238600Y-125474608D01*
X227238601Y-126807849D01*
X227233012Y-126813438D01*
X227038600Y-127282789D01*
X227038600Y-127790811D01*
X227233012Y-128260162D01*
X227592238Y-128619388D01*
X228061589Y-128813800D01*
X228569611Y-128813800D01*
X229038962Y-128619388D01*
X229398188Y-128260162D01*
X229592600Y-127790811D01*
X229592600Y-127282789D01*
X229398188Y-126813438D01*
X229392600Y-126807850D01*
X229392600Y-125134568D01*
X229413698Y-125028500D01*
X229392600Y-124922432D01*
X229392600Y-124922428D01*
X229330111Y-124608276D01*
X229330111Y-124608275D01*
X229152158Y-124341950D01*
X229152157Y-124341949D01*
X229092073Y-124252027D01*
X229002151Y-124191944D01*
X225914100Y-121103893D01*
X225914100Y-121095989D01*
X225719688Y-120626638D01*
X225360462Y-120267412D01*
X224891111Y-120073000D01*
X224383089Y-120073000D01*
X223913738Y-120267412D01*
X223554512Y-120626638D01*
X223360100Y-121095989D01*
X202077000Y-121095989D01*
X202077000Y-104595989D01*
X206863500Y-104595989D01*
X206863500Y-105104011D01*
X207057912Y-105573362D01*
X207417138Y-105932588D01*
X207886489Y-106127000D01*
X208394511Y-106127000D01*
X208863862Y-105932588D01*
X208869450Y-105927000D01*
X217484334Y-105927000D01*
X217590400Y-105948098D01*
X217696466Y-105927000D01*
X217696472Y-105927000D01*
X218010624Y-105864511D01*
X218366873Y-105626473D01*
X218426959Y-105536548D01*
X220246108Y-103717400D01*
X220254011Y-103717400D01*
X220723362Y-103522988D01*
X221082588Y-103163762D01*
X221277000Y-102694411D01*
X221277000Y-102186389D01*
X221082588Y-101717038D01*
X220723362Y-101357812D01*
X220254011Y-101163400D01*
X219745989Y-101163400D01*
X219276638Y-101357812D01*
X218917412Y-101717038D01*
X218723000Y-102186389D01*
X218723000Y-102194292D01*
X217144293Y-103773000D01*
X208869450Y-103773000D01*
X208863862Y-103767412D01*
X208394511Y-103573000D01*
X207886489Y-103573000D01*
X207417138Y-103767412D01*
X207057912Y-104126638D01*
X206863500Y-104595989D01*
X202077000Y-104595989D01*
X202077000Y-103169350D01*
X202082588Y-103163762D01*
X202277000Y-102694411D01*
X202277000Y-102186389D01*
X202082588Y-101717038D01*
X201723362Y-101357812D01*
X201254011Y-101163400D01*
X200745989Y-101163400D01*
X200276638Y-101357812D01*
X199917412Y-101717038D01*
X199723000Y-102186389D01*
X199723000Y-102694411D01*
X199917412Y-103163762D01*
X199923000Y-103169350D01*
X199923001Y-132115191D01*
X198603493Y-133434700D01*
X198595589Y-133434700D01*
X198126238Y-133629112D01*
X197767012Y-133988338D01*
X197572600Y-134457689D01*
X160233300Y-134457689D01*
X160233300Y-103378950D01*
X160238888Y-103373362D01*
X160430405Y-102911000D01*
X164975895Y-102911000D01*
X165167412Y-103373362D01*
X165526638Y-103732588D01*
X165995989Y-103927000D01*
X166504011Y-103927000D01*
X166973362Y-103732588D01*
X167161561Y-103544389D01*
X173999700Y-103544389D01*
X173999700Y-104052411D01*
X174194112Y-104521762D01*
X174199701Y-104527351D01*
X174199700Y-107558933D01*
X174178602Y-107665000D01*
X174199700Y-107771066D01*
X174199700Y-107771071D01*
X174262189Y-108085223D01*
X174500227Y-108441473D01*
X174590152Y-108501559D01*
X193923000Y-127834408D01*
X193923000Y-127842311D01*
X194117412Y-128311662D01*
X194476638Y-128670888D01*
X194945989Y-128865300D01*
X195454011Y-128865300D01*
X195923362Y-128670888D01*
X196282588Y-128311662D01*
X196477000Y-127842311D01*
X196477000Y-127334289D01*
X196282588Y-126864938D01*
X195923362Y-126505712D01*
X195454011Y-126311300D01*
X195446108Y-126311300D01*
X190230797Y-121095989D01*
X192675000Y-121095989D01*
X192675000Y-121604011D01*
X192869412Y-122073362D01*
X193228638Y-122432588D01*
X193697989Y-122627000D01*
X194206011Y-122627000D01*
X194675362Y-122432588D01*
X195034588Y-122073362D01*
X195229000Y-121604011D01*
X195229000Y-121596107D01*
X197106151Y-119718957D01*
X197196073Y-119658873D01*
X197434111Y-119302624D01*
X197496600Y-118988472D01*
X197496600Y-118988467D01*
X197517698Y-118882401D01*
X197496600Y-118776334D01*
X197496600Y-110378950D01*
X197502188Y-110373362D01*
X197696600Y-109904011D01*
X197696600Y-109395989D01*
X197502188Y-108926638D01*
X197142962Y-108567412D01*
X196673611Y-108373000D01*
X196165589Y-108373000D01*
X195696238Y-108567412D01*
X195337012Y-108926638D01*
X195142600Y-109395989D01*
X195142600Y-109904011D01*
X195337012Y-110373362D01*
X195342600Y-110378950D01*
X195342601Y-118436291D01*
X193705893Y-120073000D01*
X193697989Y-120073000D01*
X193228638Y-120267412D01*
X192869412Y-120626638D01*
X192675000Y-121095989D01*
X190230797Y-121095989D01*
X176353700Y-107218893D01*
X176353700Y-104527350D01*
X176359288Y-104521762D01*
X176553700Y-104052411D01*
X176553700Y-103544389D01*
X176359288Y-103075038D01*
X176000062Y-102715812D01*
X175530711Y-102521400D01*
X175022689Y-102521400D01*
X174553338Y-102715812D01*
X174194112Y-103075038D01*
X173999700Y-103544389D01*
X167161561Y-103544389D01*
X167332588Y-103373362D01*
X167527000Y-102904011D01*
X167527000Y-102395989D01*
X167332588Y-101926638D01*
X166973362Y-101567412D01*
X166504011Y-101373000D01*
X166496107Y-101373000D01*
X166270559Y-101147451D01*
X166210473Y-101057527D01*
X165854224Y-100819489D01*
X165540072Y-100757000D01*
X165540066Y-100757000D01*
X165434000Y-100735902D01*
X165327934Y-100757000D01*
X158906866Y-100757000D01*
X158800799Y-100735902D01*
X158694733Y-100757000D01*
X158694728Y-100757000D01*
X158380576Y-100819489D01*
X158380574Y-100819490D01*
X158380575Y-100819490D01*
X158114250Y-100997442D01*
X158114249Y-100997443D01*
X158024327Y-101057527D01*
X157964243Y-101147449D01*
X156063450Y-103048243D01*
X155973528Y-103108327D01*
X155913444Y-103198249D01*
X155913442Y-103198251D01*
X155791951Y-103380076D01*
X155735490Y-103464576D01*
X155673000Y-103778728D01*
X155673000Y-103778734D01*
X155651902Y-103884800D01*
X155673000Y-103990866D01*
X155673000Y-104045950D01*
X155667412Y-104051538D01*
X155473000Y-104520889D01*
X153874100Y-104520889D01*
X153874100Y-96378950D01*
X153879688Y-96373362D01*
X154074100Y-95904011D01*
X154074100Y-95395989D01*
X153879688Y-94926638D01*
X153520462Y-94567412D01*
X153051111Y-94373000D01*
X152543089Y-94373000D01*
X152073738Y-94567412D01*
X151714512Y-94926638D01*
X151520100Y-95395989D01*
X151520100Y-95904011D01*
X151714512Y-96373362D01*
X151720100Y-96378950D01*
X151720101Y-107868491D01*
X147863452Y-111725141D01*
X147773527Y-111785227D01*
X147581433Y-112072717D01*
X147467412Y-112186738D01*
X147273000Y-112656089D01*
X140440800Y-112656089D01*
X140440800Y-109523750D01*
X140446388Y-109518162D01*
X140640800Y-109048811D01*
X140640800Y-108540789D01*
X140446388Y-108071438D01*
X140087162Y-107712212D01*
X139617811Y-107517800D01*
X139109789Y-107517800D01*
X138640438Y-107712212D01*
X138281212Y-108071438D01*
X138086800Y-108540789D01*
X122727400Y-108540789D01*
X122727400Y-105883350D01*
X122776638Y-105932588D01*
X123245989Y-106127000D01*
X123754011Y-106127000D01*
X124223362Y-105932588D01*
X124582588Y-105573362D01*
X124777000Y-105104011D01*
X124777000Y-105096107D01*
X131996408Y-97876700D01*
X139376150Y-97876700D01*
X139381738Y-97882288D01*
X139851089Y-98076700D01*
X140359111Y-98076700D01*
X140828462Y-97882288D01*
X141187688Y-97523062D01*
X141382100Y-97053711D01*
X141382100Y-96545689D01*
X141187688Y-96076338D01*
X140828462Y-95717112D01*
X140359111Y-95522700D01*
X139851089Y-95522700D01*
X139381738Y-95717112D01*
X139376150Y-95722700D01*
X131656366Y-95722700D01*
X131550299Y-95701602D01*
X131444233Y-95722700D01*
X131444228Y-95722700D01*
X131130076Y-95785189D01*
X130773827Y-96023227D01*
X130713743Y-96113149D01*
X125633100Y-101193793D01*
X125633100Y-89660400D01*
X129771050Y-89660400D01*
X129776638Y-89665988D01*
X130245989Y-89860400D01*
X130754011Y-89860400D01*
X131223362Y-89665988D01*
X131582588Y-89306762D01*
X131777000Y-88837411D01*
X131777000Y-88329389D01*
X131680323Y-88095989D01*
X148473000Y-88095989D01*
X148473000Y-88604011D01*
X148667412Y-89073362D01*
X149026638Y-89432588D01*
X149495989Y-89627000D01*
X150004011Y-89627000D01*
X150473362Y-89432588D01*
X150832588Y-89073362D01*
X151027000Y-88604011D01*
X151027000Y-88596107D01*
X153272051Y-86351056D01*
X153361973Y-86290973D01*
X153442656Y-86170223D01*
X153600011Y-85934725D01*
X153638945Y-85738989D01*
X153662500Y-85620572D01*
X153662500Y-85620568D01*
X153683598Y-85514500D01*
X153662500Y-85408432D01*
X153662500Y-80249689D01*
X192216800Y-80249689D01*
X192216800Y-80757711D01*
X192411212Y-81227062D01*
X192416800Y-81232650D01*
X192416801Y-82411129D01*
X192395702Y-82517200D01*
X192479290Y-82937424D01*
X192657242Y-83203749D01*
X192657244Y-83203751D01*
X192717328Y-83293673D01*
X192807250Y-83353757D01*
X194897000Y-85443508D01*
X194897000Y-85451411D01*
X195091412Y-85920762D01*
X195098950Y-85928300D01*
X195080189Y-85928300D01*
X194610838Y-86122712D01*
X194251612Y-86481938D01*
X194057200Y-86951289D01*
X194057200Y-87459311D01*
X194251612Y-87928662D01*
X194257200Y-87934250D01*
X194257201Y-96044791D01*
X193728993Y-96573000D01*
X193721089Y-96573000D01*
X193251738Y-96767412D01*
X192892512Y-97126638D01*
X192698100Y-97595989D01*
X192698100Y-98104011D01*
X192892512Y-98573362D01*
X193251738Y-98932588D01*
X193721089Y-99127000D01*
X194229111Y-99127000D01*
X194698462Y-98932588D01*
X195057688Y-98573362D01*
X195252100Y-98104011D01*
X195252100Y-98096107D01*
X196020751Y-97327457D01*
X196110673Y-97267373D01*
X196173731Y-97173000D01*
X196348711Y-96911125D01*
X196367717Y-96815576D01*
X196411200Y-96596972D01*
X196411200Y-96596968D01*
X196432298Y-96490900D01*
X196411200Y-96384832D01*
X196411200Y-87934250D01*
X196416788Y-87928662D01*
X196611200Y-87459311D01*
X196611200Y-86951289D01*
X196416788Y-86481938D01*
X196409250Y-86474400D01*
X196428011Y-86474400D01*
X196897362Y-86279988D01*
X197256588Y-85920762D01*
X197451000Y-85451411D01*
X197451000Y-84943389D01*
X197256588Y-84474038D01*
X196897362Y-84114812D01*
X196428011Y-83920400D01*
X196420108Y-83920400D01*
X194570800Y-82071093D01*
X194570800Y-81232650D01*
X194576388Y-81227062D01*
X194770800Y-80757711D01*
X194770800Y-80249689D01*
X194576388Y-79780338D01*
X194217162Y-79421112D01*
X193747811Y-79226700D01*
X193239789Y-79226700D01*
X192770438Y-79421112D01*
X192411212Y-79780338D01*
X192216800Y-80249689D01*
X153662500Y-80249689D01*
X153662500Y-77378950D01*
X153668088Y-77373362D01*
X153862500Y-76904011D01*
X153862500Y-76395989D01*
X153668088Y-75926638D01*
X153308862Y-75567412D01*
X152839511Y-75373000D01*
X152331489Y-75373000D01*
X151862138Y-75567412D01*
X151502912Y-75926638D01*
X151308500Y-76395989D01*
X151308500Y-76904011D01*
X151502912Y-77373362D01*
X151508501Y-77378951D01*
X151508500Y-85068392D01*
X149503893Y-87073000D01*
X149495989Y-87073000D01*
X149026638Y-87267412D01*
X148667412Y-87626638D01*
X148473000Y-88095989D01*
X131680323Y-88095989D01*
X131582588Y-87860038D01*
X131223362Y-87500812D01*
X130754011Y-87306400D01*
X130245989Y-87306400D01*
X129776638Y-87500812D01*
X129771050Y-87506400D01*
X125633100Y-87506400D01*
X125633100Y-83737466D01*
X125654198Y-83631400D01*
X125633100Y-83525333D01*
X125633100Y-83525328D01*
X125570611Y-83211176D01*
X125453421Y-83035789D01*
X125392658Y-82944850D01*
X125392657Y-82944849D01*
X125332573Y-82854927D01*
X125242651Y-82794843D01*
X122021593Y-79573786D01*
X122076116Y-79492188D01*
X122144181Y-79150000D01*
X122144181Y-77885426D01*
X126902608Y-73127000D01*
X126910511Y-73127000D01*
X127379862Y-72932588D01*
X127739088Y-72573362D01*
X127793495Y-72442012D01*
X128013118Y-72222389D01*
X212127300Y-72222389D01*
X212127300Y-72730411D01*
X212321712Y-73199762D01*
X212680938Y-73558988D01*
X213150289Y-73753400D01*
X213658311Y-73753400D01*
X214127662Y-73558988D01*
X214486888Y-73199762D01*
X214681300Y-72730411D01*
X214681300Y-72722507D01*
X217728808Y-69675000D01*
X219809450Y-69675000D01*
X219815038Y-69680588D01*
X220284389Y-69875000D01*
X220792411Y-69875000D01*
X221261762Y-69680588D01*
X221620988Y-69321362D01*
X221815400Y-68852011D01*
X221815400Y-68343989D01*
X221620988Y-67874638D01*
X221261762Y-67515412D01*
X220792411Y-67321000D01*
X220284389Y-67321000D01*
X219815038Y-67515412D01*
X219809450Y-67521000D01*
X217388766Y-67521000D01*
X217282700Y-67499902D01*
X217176633Y-67521000D01*
X217176628Y-67521000D01*
X216862476Y-67583489D01*
X216774772Y-67642091D01*
X216596150Y-67761442D01*
X216596149Y-67761443D01*
X216506227Y-67821527D01*
X216446143Y-67911449D01*
X213158193Y-71199400D01*
X213150289Y-71199400D01*
X212680938Y-71393812D01*
X212321712Y-71753038D01*
X212127300Y-72222389D01*
X128013118Y-72222389D01*
X130211851Y-70023657D01*
X130301773Y-69963573D01*
X130425825Y-69777917D01*
X130477510Y-69700564D01*
X130539811Y-69607324D01*
X130602300Y-69293172D01*
X130602300Y-69293167D01*
X130623398Y-69187101D01*
X130602300Y-69081034D01*
X130602300Y-65856072D01*
X130623399Y-65750000D01*
X130608341Y-65674300D01*
X151184193Y-65674300D01*
X154321100Y-68811208D01*
X154321100Y-68819111D01*
X154515512Y-69288462D01*
X154874738Y-69647688D01*
X155344089Y-69842100D01*
X155852111Y-69842100D01*
X156321462Y-69647688D01*
X156680688Y-69288462D01*
X156875100Y-68819111D01*
X156875100Y-68311089D01*
X156680688Y-67841738D01*
X156321462Y-67482512D01*
X155852111Y-67288100D01*
X155844208Y-67288100D01*
X152466859Y-63910752D01*
X152406773Y-63820827D01*
X152050524Y-63582789D01*
X151736372Y-63520300D01*
X151736366Y-63520300D01*
X151630300Y-63499202D01*
X151524234Y-63520300D01*
X127729366Y-63520300D01*
X127623299Y-63499202D01*
X127517233Y-63520300D01*
X127517228Y-63520300D01*
X127203076Y-63582789D01*
X126846827Y-63820827D01*
X126787305Y-63909907D01*
X126698228Y-63969427D01*
X126638144Y-64059349D01*
X126638142Y-64059351D01*
X126460190Y-64325676D01*
X126376602Y-64745900D01*
X126397701Y-64851971D01*
X126397700Y-67506941D01*
X126359943Y-67563449D01*
X125651893Y-68271500D01*
X125643989Y-68271500D01*
X125174638Y-68465912D01*
X125169050Y-68471500D01*
X114521022Y-68471500D01*
X114254011Y-68360900D01*
X113745989Y-68360900D01*
X113276638Y-68555312D01*
X112917412Y-68914538D01*
X112723000Y-69383889D01*
X112723000Y-69891911D01*
X112917412Y-70361262D01*
X113276638Y-70720488D01*
X113745989Y-70914900D01*
X114254011Y-70914900D01*
X114723362Y-70720488D01*
X114818350Y-70625500D01*
X125169050Y-70625500D01*
X125174638Y-70631088D01*
X125643989Y-70825500D01*
X125875050Y-70825500D01*
X125573912Y-71126638D01*
X125379500Y-71595989D01*
X125379500Y-71603892D01*
X120610693Y-76372700D01*
X120581072Y-76372700D01*
X120475000Y-76351601D01*
X120368929Y-76372700D01*
X120368928Y-76372700D01*
X120054776Y-76435189D01*
X119698527Y-76673227D01*
X119548472Y-76897800D01*
X114331566Y-76897800D01*
X114225500Y-76876702D01*
X114119433Y-76897800D01*
X114119428Y-76897800D01*
X113805276Y-76960289D01*
X113676144Y-77046573D01*
X113642188Y-77023884D01*
X113300000Y-76955819D01*
X111750000Y-76955819D01*
X111407812Y-77023884D01*
X111117719Y-77217719D01*
X110923884Y-77507812D01*
X110855819Y-77850000D01*
X110855819Y-79150000D01*
X110923884Y-79492188D01*
X110978406Y-79573786D01*
X110903493Y-79648700D01*
X99371553Y-79648700D01*
X99295188Y-79464338D01*
X98935962Y-79105112D01*
X98894181Y-79087806D01*
X98894181Y-77850000D01*
X98826116Y-77507812D01*
X98632281Y-77217719D01*
X98342188Y-77023884D01*
X98000000Y-76955819D01*
X96450000Y-76955819D01*
X96107812Y-77023884D01*
X95817719Y-77217719D01*
X95623884Y-77507812D01*
X95555819Y-77850000D01*
X95555819Y-77948100D01*
X90944181Y-77948100D01*
X90944181Y-77850000D01*
X90876116Y-77507812D01*
X90682281Y-77217719D01*
X90392188Y-77023884D01*
X90202295Y-76986112D01*
X90533008Y-76655400D01*
X97708650Y-76655400D01*
X97714238Y-76660988D01*
X98183589Y-76855400D01*
X98691611Y-76855400D01*
X99160962Y-76660988D01*
X99520188Y-76301762D01*
X99714600Y-75832411D01*
X99714600Y-75324389D01*
X99520188Y-74855038D01*
X99160962Y-74495812D01*
X98691611Y-74301400D01*
X98183589Y-74301400D01*
X97714238Y-74495812D01*
X97708650Y-74501400D01*
X90192966Y-74501400D01*
X90086899Y-74480302D01*
X89980833Y-74501400D01*
X89980828Y-74501400D01*
X89666676Y-74563889D01*
X89586699Y-74617328D01*
X89400350Y-74741842D01*
X89400349Y-74741843D01*
X89310427Y-74801927D01*
X89250343Y-74891849D01*
X86810850Y-77331343D01*
X86720928Y-77391427D01*
X86660844Y-77481349D01*
X86660842Y-77481351D01*
X86510162Y-77706861D01*
X86482890Y-77747676D01*
X86422326Y-78052153D01*
X86399302Y-78167900D01*
X86420401Y-78273971D01*
X86420400Y-85832533D01*
X86399302Y-85938600D01*
X86420400Y-86044666D01*
X86420400Y-86044671D01*
X86482889Y-86358823D01*
X86720927Y-86715073D01*
X86810852Y-86775159D01*
X88627000Y-88591308D01*
X88627000Y-88599211D01*
X88821412Y-89068562D01*
X89180638Y-89427788D01*
X89649989Y-89622200D01*
X90148000Y-89622200D01*
X90148001Y-96765890D01*
X90107812Y-96773884D01*
X89817719Y-96967719D01*
X89640229Y-97233350D01*
X89629476Y-97235489D01*
X89563759Y-97279400D01*
X84936241Y-97279400D01*
X84870524Y-97235489D01*
X84859771Y-97233350D01*
X84682281Y-96967719D01*
X84392188Y-96773884D01*
X84050000Y-96705819D01*
X82500000Y-96705819D01*
X82157812Y-96773884D01*
X81867719Y-96967719D01*
X81673884Y-97257812D01*
X81605819Y-97600000D01*
X81605819Y-98900000D01*
X81619718Y-98969875D01*
X80781952Y-99807641D01*
X80692027Y-99867727D01*
X80639416Y-99946466D01*
X80412362Y-99719412D01*
X79943011Y-99525000D01*
X79935108Y-99525000D01*
X77052000Y-96641893D01*
X77052000Y-84484110D01*
X77092188Y-84476116D01*
X77382281Y-84282281D01*
X77576116Y-83992188D01*
X77644181Y-83650000D01*
X77644181Y-82350000D01*
X77576116Y-82007812D01*
X77382281Y-81717719D01*
X77092188Y-81523884D01*
X76750000Y-81455819D01*
X75592589Y-81455819D01*
X76661551Y-80386857D01*
X76751473Y-80326773D01*
X76811556Y-80236852D01*
X76811558Y-80236850D01*
X76969464Y-80000527D01*
X77092188Y-79976116D01*
X77382281Y-79782281D01*
X77576116Y-79492188D01*
X77644181Y-79150000D01*
X77644181Y-78879026D01*
X79951651Y-76571556D01*
X80041573Y-76511473D01*
X80279611Y-76155224D01*
X80342100Y-75841072D01*
X80342100Y-75841067D01*
X80363198Y-75735001D01*
X80342100Y-75628934D01*
X80342100Y-72578950D01*
X80347688Y-72573362D01*
X80542100Y-72104011D01*
X80542100Y-71595989D01*
X80347688Y-71126638D01*
X80099300Y-70878250D01*
X80332588Y-70644962D01*
X80527000Y-70175611D01*
X80527000Y-69667589D01*
X80332588Y-69198238D01*
X79973362Y-68839012D01*
X79504011Y-68644600D01*
X78995989Y-68644600D01*
X78526638Y-68839012D01*
X78521050Y-68844600D01*
X71534766Y-68844600D01*
X71428699Y-68823502D01*
X71322633Y-68844600D01*
X71322628Y-68844600D01*
X71008476Y-68907089D01*
X71008474Y-68907090D01*
X71008475Y-68907090D01*
X70742150Y-69085042D01*
X70742149Y-69085043D01*
X70652227Y-69145127D01*
X70592143Y-69235049D01*
X69503893Y-70323300D01*
X69495989Y-70323300D01*
X69026638Y-70517712D01*
X68667412Y-70876938D01*
X68473000Y-71346289D01*
X68473000Y-71854311D01*
X68667412Y-72323662D01*
X69026638Y-72682888D01*
X69495989Y-72877300D01*
X70004011Y-72877300D01*
X70473362Y-72682888D01*
X70832588Y-72323662D01*
X71027000Y-71854311D01*
X71027000Y-71846407D01*
X71874808Y-70998600D01*
X78310550Y-70998600D01*
X78182512Y-71126638D01*
X77988100Y-71595989D01*
X77988100Y-72104011D01*
X78182512Y-72573362D01*
X78188101Y-72578951D01*
X78188100Y-75288892D01*
X76521174Y-76955819D01*
X75200000Y-76955819D01*
X74857812Y-77023884D01*
X74567719Y-77217719D01*
X74373884Y-77507812D01*
X74305819Y-77850000D01*
X74305819Y-79150000D01*
X74373884Y-79492188D01*
X74428406Y-79573786D01*
X72079193Y-81923000D01*
X71920820Y-81923000D01*
X69571632Y-79573729D01*
X69626116Y-79492188D01*
X69694181Y-79150000D01*
X69694181Y-77850000D01*
X69626116Y-77507812D01*
X69432281Y-77217719D01*
X69142188Y-77023884D01*
X68800000Y-76955819D01*
X67250000Y-76955819D01*
X66907812Y-77023884D01*
X66617719Y-77217719D01*
X66423884Y-77507812D01*
X66355819Y-77850000D01*
X66355819Y-79150000D01*
X66423884Y-79492188D01*
X66617719Y-79782281D01*
X66907812Y-79976116D01*
X67030519Y-80000524D01*
X67132055Y-80152459D01*
X67180592Y-80225100D01*
X63753152Y-83652541D01*
X63663227Y-83712627D01*
X63425189Y-84068877D01*
X63362700Y-84383029D01*
X63362700Y-84383034D01*
X63341602Y-84489100D01*
X63362700Y-84595167D01*
X63362701Y-87397700D01*
X61106072Y-87397700D01*
X61000000Y-87376601D01*
X60893929Y-87397700D01*
X60893928Y-87397700D01*
X60579776Y-87460189D01*
X60223527Y-87698227D01*
X60001705Y-88030208D01*
X59907812Y-88048884D01*
X59617719Y-88242719D01*
X59459494Y-88479518D01*
X59429476Y-88485489D01*
X59429474Y-88485490D01*
X59429475Y-88485490D01*
X59163150Y-88663442D01*
X59163149Y-88663443D01*
X59073227Y-88723527D01*
X59013143Y-88813449D01*
X58330084Y-89496508D01*
X57170800Y-88337272D01*
X57170800Y-88329389D01*
X56976388Y-87860038D01*
X56617162Y-87500812D01*
X56147811Y-87306400D01*
X55639789Y-87306400D01*
X55170438Y-87500812D01*
X54811212Y-87860038D01*
X54616800Y-88329389D01*
X54616800Y-88837411D01*
X54811212Y-89306762D01*
X55170438Y-89665988D01*
X55639789Y-89860400D01*
X55647714Y-89860400D01*
X56806977Y-91019616D01*
X55880100Y-91946492D01*
X55880100Y-91478489D01*
X55685688Y-91009138D01*
X55326462Y-90649912D01*
X54857111Y-90455500D01*
X54849208Y-90455500D01*
X54364500Y-89970793D01*
X54364500Y-87482450D01*
X54370088Y-87476862D01*
X54564500Y-87007511D01*
X54564500Y-86499489D01*
X54370088Y-86030138D01*
X54010862Y-85670912D01*
X53541511Y-85476500D01*
X53033489Y-85476500D01*
X52564138Y-85670912D01*
X52204912Y-86030138D01*
X52010500Y-86499489D01*
X52010500Y-87007511D01*
X52204912Y-87476862D01*
X52210500Y-87482450D01*
X52210501Y-90310829D01*
X52189402Y-90416900D01*
X52272990Y-90837124D01*
X52450942Y-91103449D01*
X52450944Y-91103451D01*
X52511028Y-91193373D01*
X52600950Y-91253457D01*
X53326100Y-91978608D01*
X53326100Y-91986511D01*
X53520512Y-92455862D01*
X53879738Y-92815088D01*
X54349089Y-93009500D01*
X54817093Y-93009500D01*
X53762152Y-94064441D01*
X53672227Y-94124527D01*
X53434189Y-94480777D01*
X53371700Y-94794929D01*
X53371700Y-94794934D01*
X53350602Y-94901000D01*
X53371700Y-95007067D01*
X53371701Y-100609505D01*
X53062911Y-100481600D01*
X52554889Y-100481600D01*
X52085538Y-100676012D01*
X51726312Y-101035238D01*
X51531900Y-101504589D01*
X51531900Y-101512492D01*
X45952000Y-107092393D01*
X45952000Y-77524505D01*
X46027671Y-76056104D01*
X46250107Y-74627500D01*
X46618216Y-73229326D01*
X47128095Y-71876400D01*
X47774341Y-70583059D01*
X48550112Y-69362993D01*
X49374106Y-68321505D01*
X49123000Y-68927729D01*
X49123000Y-70072271D01*
X49560997Y-71129690D01*
X50370310Y-71939003D01*
X51427729Y-72377000D01*
X52572271Y-72377000D01*
X53629690Y-71939003D01*
X54439003Y-71129690D01*
X54877000Y-70072271D01*
X54877000Y-68927729D01*
X54439003Y-67870310D01*
X53629690Y-67060997D01*
X52572271Y-66623000D01*
X51427729Y-66623000D01*
X50855686Y-66859948D01*
X51566053Y-66267042D01*
X52765396Y-65459596D01*
X54041387Y-64779711D01*
X55380492Y-64234595D01*
X56768553Y-63830013D01*
X58190846Y-63570256D01*
X59650559Y-63456655D01*
X60006197Y-63452000D01*
X219975495Y-63452000D01*
X221443896Y-63527671D01*
G36*
X55557761Y-121400101D02*
X55550819Y-121435000D01*
X55550819Y-123345000D01*
X55618884Y-123687188D01*
X55812719Y-123977281D01*
X56102812Y-124171116D01*
X56445000Y-124239181D01*
X57045000Y-124239181D01*
X57380000Y-124172546D01*
X57715000Y-124239181D01*
X58315000Y-124239181D01*
X58650000Y-124172546D01*
X58985000Y-124239181D01*
X59585000Y-124239181D01*
X59920000Y-124172546D01*
X60255000Y-124239181D01*
X60855000Y-124239181D01*
X61190000Y-124172546D01*
X61525000Y-124239181D01*
X62125000Y-124239181D01*
X62460000Y-124172546D01*
X62795000Y-124239181D01*
X63395000Y-124239181D01*
X63730000Y-124172546D01*
X64065000Y-124239181D01*
X64665000Y-124239181D01*
X64833400Y-124205684D01*
X64833400Y-124388411D01*
X65027812Y-124857762D01*
X65387038Y-125216988D01*
X65828001Y-125399641D01*
X65828000Y-129760819D01*
X65335000Y-129760819D01*
X65000000Y-129827454D01*
X64694017Y-129766591D01*
X64721008Y-129739600D01*
X64728911Y-129739600D01*
X65198262Y-129545188D01*
X65557488Y-129185962D01*
X65751900Y-128716611D01*
X65751900Y-128208589D01*
X65557488Y-127739238D01*
X65198262Y-127380012D01*
X64728911Y-127185600D01*
X64220889Y-127185600D01*
X63979000Y-127285794D01*
X63979000Y-127174989D01*
X63784588Y-126705638D01*
X63425362Y-126346412D01*
X62956011Y-126152000D01*
X62447989Y-126152000D01*
X61978638Y-126346412D01*
X61619412Y-126705638D01*
X61425000Y-127174989D01*
X61425000Y-127182893D01*
X61138449Y-127469443D01*
X61048528Y-127529527D01*
X60988444Y-127619449D01*
X60988442Y-127619451D01*
X60839532Y-127842311D01*
X60810490Y-127885776D01*
X60750225Y-128188750D01*
X60726902Y-128306000D01*
X60748001Y-128412071D01*
X60748001Y-129760819D01*
X60255000Y-129760819D01*
X59920000Y-129827454D01*
X59585000Y-129760819D01*
X58985000Y-129760819D01*
X58650000Y-129827454D01*
X58315000Y-129760819D01*
X57715000Y-129760819D01*
X57380000Y-129827454D01*
X57045000Y-129760819D01*
X56445000Y-129760819D01*
X56102812Y-129828884D01*
X55812719Y-130022719D01*
X55618884Y-130312812D01*
X55550819Y-130655000D01*
X55550819Y-132565000D01*
X55618884Y-132907188D01*
X55812719Y-133197281D01*
X56102812Y-133391116D01*
X56445000Y-133459181D01*
X57045000Y-133459181D01*
X57380000Y-133392546D01*
X57715000Y-133459181D01*
X58315000Y-133459181D01*
X58319154Y-133458355D01*
X58448442Y-133651849D01*
X58448444Y-133651851D01*
X58508528Y-133741773D01*
X58598450Y-133801857D01*
X68844592Y-144048000D01*
X60024505Y-144048000D01*
X58556104Y-143972329D01*
X57127500Y-143749893D01*
X55729323Y-143381783D01*
X54376408Y-142871908D01*
X53083059Y-142225658D01*
X51862993Y-141449888D01*
X50821507Y-140625895D01*
X51427729Y-140877000D01*
X52572271Y-140877000D01*
X53629690Y-140439003D01*
X54439003Y-139629690D01*
X54877000Y-138572271D01*
X54877000Y-137427729D01*
X54439003Y-136370310D01*
X53629690Y-135560997D01*
X52572271Y-135123000D01*
X51427729Y-135123000D01*
X50370310Y-135560997D01*
X49560997Y-136370310D01*
X49123000Y-137427729D01*
X49123000Y-138572271D01*
X49359948Y-139144314D01*
X48767042Y-138433947D01*
X47959596Y-137234604D01*
X47279711Y-135958613D01*
X46734596Y-134619511D01*
X46330013Y-133231447D01*
X46070256Y-131809154D01*
X45956655Y-130349441D01*
X45954176Y-130160049D01*
X45959194Y-130163402D01*
X46404607Y-130252000D01*
X47538770Y-130252000D01*
X47727719Y-130534781D01*
X48017812Y-130728616D01*
X48360000Y-130796681D01*
X48523591Y-130796681D01*
X48697719Y-131057281D01*
X48987812Y-131251116D01*
X49330000Y-131319181D01*
X50730000Y-131319181D01*
X51072188Y-131251116D01*
X51362281Y-131057281D01*
X51556116Y-130767188D01*
X51624181Y-130425000D01*
X51624181Y-128425000D01*
X51592621Y-128266337D01*
X51868950Y-128081700D01*
X52004211Y-128081700D01*
X52473562Y-127887288D01*
X52832788Y-127528062D01*
X53027200Y-127058711D01*
X53027200Y-126828052D01*
X53067911Y-126767124D01*
X53130400Y-126452972D01*
X53130400Y-126452967D01*
X53136901Y-126420285D01*
X53136901Y-126834649D01*
X53131312Y-126840238D01*
X52936900Y-127309589D01*
X52936900Y-127817611D01*
X53131312Y-128286962D01*
X53490538Y-128646188D01*
X53959889Y-128840600D01*
X54467911Y-128840600D01*
X54937262Y-128646188D01*
X55296488Y-128286962D01*
X55490900Y-127817611D01*
X55490900Y-127309589D01*
X55296488Y-126840238D01*
X55290900Y-126834650D01*
X55290900Y-121221790D01*
X55557761Y-121400101D01*
X55557761Y-121400101D01*
G37*
X55557761Y-121400101D02*
X55550819Y-121435000D01*
X55550819Y-123345000D01*
X55618884Y-123687188D01*
X55812719Y-123977281D01*
X56102812Y-124171116D01*
X56445000Y-124239181D01*
X57045000Y-124239181D01*
X57380000Y-124172546D01*
X57715000Y-124239181D01*
X58315000Y-124239181D01*
X58650000Y-124172546D01*
X58985000Y-124239181D01*
X59585000Y-124239181D01*
X59920000Y-124172546D01*
X60255000Y-124239181D01*
X60855000Y-124239181D01*
X61190000Y-124172546D01*
X61525000Y-124239181D01*
X62125000Y-124239181D01*
X62460000Y-124172546D01*
X62795000Y-124239181D01*
X63395000Y-124239181D01*
X63730000Y-124172546D01*
X64065000Y-124239181D01*
X64665000Y-124239181D01*
X64833400Y-124205684D01*
X64833400Y-124388411D01*
X65027812Y-124857762D01*
X65387038Y-125216988D01*
X65828001Y-125399641D01*
X65828000Y-129760819D01*
X65335000Y-129760819D01*
X65000000Y-129827454D01*
X64694017Y-129766591D01*
X64721008Y-129739600D01*
X64728911Y-129739600D01*
X65198262Y-129545188D01*
X65557488Y-129185962D01*
X65751900Y-128716611D01*
X65751900Y-128208589D01*
X65557488Y-127739238D01*
X65198262Y-127380012D01*
X64728911Y-127185600D01*
X64220889Y-127185600D01*
X63979000Y-127285794D01*
X63979000Y-127174989D01*
X63784588Y-126705638D01*
X63425362Y-126346412D01*
X62956011Y-126152000D01*
X62447989Y-126152000D01*
X61978638Y-126346412D01*
X61619412Y-126705638D01*
X61425000Y-127174989D01*
X61425000Y-127182893D01*
X61138449Y-127469443D01*
X61048528Y-127529527D01*
X60988444Y-127619449D01*
X60988442Y-127619451D01*
X60839532Y-127842311D01*
X60810490Y-127885776D01*
X60750225Y-128188750D01*
X60726902Y-128306000D01*
X60748001Y-128412071D01*
X60748001Y-129760819D01*
X60255000Y-129760819D01*
X59920000Y-129827454D01*
X59585000Y-129760819D01*
X58985000Y-129760819D01*
X58650000Y-129827454D01*
X58315000Y-129760819D01*
X57715000Y-129760819D01*
X57380000Y-129827454D01*
X57045000Y-129760819D01*
X56445000Y-129760819D01*
X56102812Y-129828884D01*
X55812719Y-130022719D01*
X55618884Y-130312812D01*
X55550819Y-130655000D01*
X55550819Y-132565000D01*
X55618884Y-132907188D01*
X55812719Y-133197281D01*
X56102812Y-133391116D01*
X56445000Y-133459181D01*
X57045000Y-133459181D01*
X57380000Y-133392546D01*
X57715000Y-133459181D01*
X58315000Y-133459181D01*
X58319154Y-133458355D01*
X58448442Y-133651849D01*
X58448444Y-133651851D01*
X58508528Y-133741773D01*
X58598450Y-133801857D01*
X68844592Y-144048000D01*
X60024505Y-144048000D01*
X58556104Y-143972329D01*
X57127500Y-143749893D01*
X55729323Y-143381783D01*
X54376408Y-142871908D01*
X53083059Y-142225658D01*
X51862993Y-141449888D01*
X50821507Y-140625895D01*
X51427729Y-140877000D01*
X52572271Y-140877000D01*
X53629690Y-140439003D01*
X54439003Y-139629690D01*
X54877000Y-138572271D01*
X54877000Y-137427729D01*
X54439003Y-136370310D01*
X53629690Y-135560997D01*
X52572271Y-135123000D01*
X51427729Y-135123000D01*
X50370310Y-135560997D01*
X49560997Y-136370310D01*
X49123000Y-137427729D01*
X49123000Y-138572271D01*
X49359948Y-139144314D01*
X48767042Y-138433947D01*
X47959596Y-137234604D01*
X47279711Y-135958613D01*
X46734596Y-134619511D01*
X46330013Y-133231447D01*
X46070256Y-131809154D01*
X45956655Y-130349441D01*
X45954176Y-130160049D01*
X45959194Y-130163402D01*
X46404607Y-130252000D01*
X47538770Y-130252000D01*
X47727719Y-130534781D01*
X48017812Y-130728616D01*
X48360000Y-130796681D01*
X48523591Y-130796681D01*
X48697719Y-131057281D01*
X48987812Y-131251116D01*
X49330000Y-131319181D01*
X50730000Y-131319181D01*
X51072188Y-131251116D01*
X51362281Y-131057281D01*
X51556116Y-130767188D01*
X51624181Y-130425000D01*
X51624181Y-128425000D01*
X51592621Y-128266337D01*
X51868950Y-128081700D01*
X52004211Y-128081700D01*
X52473562Y-127887288D01*
X52832788Y-127528062D01*
X53027200Y-127058711D01*
X53027200Y-126828052D01*
X53067911Y-126767124D01*
X53130400Y-126452972D01*
X53130400Y-126452967D01*
X53136901Y-126420285D01*
X53136901Y-126834649D01*
X53131312Y-126840238D01*
X52936900Y-127309589D01*
X52936900Y-127817611D01*
X53131312Y-128286962D01*
X53490538Y-128646188D01*
X53959889Y-128840600D01*
X54467911Y-128840600D01*
X54937262Y-128646188D01*
X55296488Y-128286962D01*
X55490900Y-127817611D01*
X55490900Y-127309589D01*
X55296488Y-126840238D01*
X55290900Y-126834650D01*
X55290900Y-121221790D01*
X55557761Y-121400101D01*
G36*
X101620700Y-137895350D02*
X101350212Y-138165838D01*
X101155800Y-138635189D01*
X101155800Y-139143211D01*
X101346088Y-139602605D01*
X98876693Y-142072000D01*
X95243486Y-142072000D01*
X95306011Y-141978425D01*
X95329139Y-141862150D01*
X95368500Y-141664272D01*
X95368500Y-141664268D01*
X95389598Y-141558200D01*
X95368500Y-141452132D01*
X95368500Y-138296068D01*
X95389598Y-138190000D01*
X95368500Y-138083932D01*
X95368500Y-138083928D01*
X95316080Y-137820395D01*
X95306011Y-137769775D01*
X95128058Y-137503450D01*
X95128057Y-137503449D01*
X95067973Y-137413527D01*
X94978052Y-137353444D01*
X88276397Y-130651789D01*
X93844100Y-130651789D01*
X93844100Y-131159811D01*
X94038512Y-131629162D01*
X94397738Y-131988388D01*
X94867089Y-132182800D01*
X95375111Y-132182800D01*
X95844462Y-131988388D01*
X96203688Y-131629162D01*
X96398100Y-131159811D01*
X96398100Y-131151907D01*
X99798851Y-127751156D01*
X99888773Y-127691073D01*
X99957445Y-127588299D01*
X100126810Y-127334825D01*
X100126811Y-127334824D01*
X100189300Y-127020672D01*
X100189300Y-127020667D01*
X100210398Y-126914601D01*
X100189300Y-126808534D01*
X100189300Y-120978950D01*
X100194888Y-120973362D01*
X100389300Y-120504011D01*
X100389300Y-119995989D01*
X100194888Y-119526638D01*
X99835662Y-119167412D01*
X99366311Y-118973000D01*
X98858289Y-118973000D01*
X98388938Y-119167412D01*
X98029712Y-119526638D01*
X97835300Y-119995989D01*
X97835300Y-120504011D01*
X98029712Y-120973362D01*
X98035301Y-120978951D01*
X98035300Y-126468492D01*
X94874993Y-129628800D01*
X94867089Y-129628800D01*
X94397738Y-129823212D01*
X94038512Y-130182438D01*
X93844100Y-130651789D01*
X88276397Y-130651789D01*
X86404700Y-128780093D01*
X86404700Y-128700413D01*
X86860562Y-128511588D01*
X87219788Y-128152362D01*
X87414200Y-127683011D01*
X87414200Y-127454900D01*
X87746711Y-127454900D01*
X88216062Y-127260488D01*
X88221650Y-127254900D01*
X88491534Y-127254900D01*
X88597600Y-127275998D01*
X88703666Y-127254900D01*
X88703672Y-127254900D01*
X89017824Y-127192411D01*
X89374073Y-126954373D01*
X89434159Y-126864448D01*
X101620701Y-114677907D01*
X101620700Y-137895350D01*
X101620700Y-137895350D01*
G37*
X101620700Y-137895350D02*
X101350212Y-138165838D01*
X101155800Y-138635189D01*
X101155800Y-139143211D01*
X101346088Y-139602605D01*
X98876693Y-142072000D01*
X95243486Y-142072000D01*
X95306011Y-141978425D01*
X95329139Y-141862150D01*
X95368500Y-141664272D01*
X95368500Y-141664268D01*
X95389598Y-141558200D01*
X95368500Y-141452132D01*
X95368500Y-138296068D01*
X95389598Y-138190000D01*
X95368500Y-138083932D01*
X95368500Y-138083928D01*
X95316080Y-137820395D01*
X95306011Y-137769775D01*
X95128058Y-137503450D01*
X95128057Y-137503449D01*
X95067973Y-137413527D01*
X94978052Y-137353444D01*
X88276397Y-130651789D01*
X93844100Y-130651789D01*
X93844100Y-131159811D01*
X94038512Y-131629162D01*
X94397738Y-131988388D01*
X94867089Y-132182800D01*
X95375111Y-132182800D01*
X95844462Y-131988388D01*
X96203688Y-131629162D01*
X96398100Y-131159811D01*
X96398100Y-131151907D01*
X99798851Y-127751156D01*
X99888773Y-127691073D01*
X99957445Y-127588299D01*
X100126810Y-127334825D01*
X100126811Y-127334824D01*
X100189300Y-127020672D01*
X100189300Y-127020667D01*
X100210398Y-126914601D01*
X100189300Y-126808534D01*
X100189300Y-120978950D01*
X100194888Y-120973362D01*
X100389300Y-120504011D01*
X100389300Y-119995989D01*
X100194888Y-119526638D01*
X99835662Y-119167412D01*
X99366311Y-118973000D01*
X98858289Y-118973000D01*
X98388938Y-119167412D01*
X98029712Y-119526638D01*
X97835300Y-119995989D01*
X97835300Y-120504011D01*
X98029712Y-120973362D01*
X98035301Y-120978951D01*
X98035300Y-126468492D01*
X94874993Y-129628800D01*
X94867089Y-129628800D01*
X94397738Y-129823212D01*
X94038512Y-130182438D01*
X93844100Y-130651789D01*
X88276397Y-130651789D01*
X86404700Y-128780093D01*
X86404700Y-128700413D01*
X86860562Y-128511588D01*
X87219788Y-128152362D01*
X87414200Y-127683011D01*
X87414200Y-127454900D01*
X87746711Y-127454900D01*
X88216062Y-127260488D01*
X88221650Y-127254900D01*
X88491534Y-127254900D01*
X88597600Y-127275998D01*
X88703666Y-127254900D01*
X88703672Y-127254900D01*
X89017824Y-127192411D01*
X89374073Y-126954373D01*
X89434159Y-126864448D01*
X101620701Y-114677907D01*
X101620700Y-137895350D01*
G36*
X90544245Y-140330753D02*
X90491272Y-140458641D01*
X90491272Y-141304815D01*
X90560398Y-141471700D01*
X73721808Y-141471700D01*
X69355625Y-137105518D01*
X69550000Y-137144181D01*
X70450000Y-137144181D01*
X70787744Y-137077000D01*
X71212256Y-137077000D01*
X71550000Y-137144181D01*
X72450000Y-137144181D01*
X72787744Y-137077000D01*
X73212256Y-137077000D01*
X73550000Y-137144181D01*
X74450000Y-137144181D01*
X74765989Y-137081327D01*
X74850300Y-137098098D01*
X74956366Y-137077000D01*
X74956372Y-137077000D01*
X75270524Y-137014511D01*
X75626773Y-136776473D01*
X75686859Y-136686548D01*
X78211951Y-134161456D01*
X78301873Y-134101373D01*
X78364033Y-134008344D01*
X78539911Y-133745125D01*
X78564445Y-133621783D01*
X78602400Y-133430972D01*
X78602400Y-133430968D01*
X78623498Y-133324900D01*
X78602400Y-133218832D01*
X78602400Y-128388907D01*
X90544245Y-140330753D01*
X90544245Y-140330753D01*
G37*
X90544245Y-140330753D02*
X90491272Y-140458641D01*
X90491272Y-141304815D01*
X90560398Y-141471700D01*
X73721808Y-141471700D01*
X69355625Y-137105518D01*
X69550000Y-137144181D01*
X70450000Y-137144181D01*
X70787744Y-137077000D01*
X71212256Y-137077000D01*
X71550000Y-137144181D01*
X72450000Y-137144181D01*
X72787744Y-137077000D01*
X73212256Y-137077000D01*
X73550000Y-137144181D01*
X74450000Y-137144181D01*
X74765989Y-137081327D01*
X74850300Y-137098098D01*
X74956366Y-137077000D01*
X74956372Y-137077000D01*
X75270524Y-137014511D01*
X75626773Y-136776473D01*
X75686859Y-136686548D01*
X78211951Y-134161456D01*
X78301873Y-134101373D01*
X78364033Y-134008344D01*
X78539911Y-133745125D01*
X78564445Y-133621783D01*
X78602400Y-133430972D01*
X78602400Y-133430968D01*
X78623498Y-133324900D01*
X78602400Y-133218832D01*
X78602400Y-128388907D01*
X90544245Y-140330753D01*
G36*
X84250701Y-129120129D02*
X84229602Y-129226200D01*
X84250701Y-129332272D01*
X84298093Y-129570525D01*
X84313190Y-129646424D01*
X84491142Y-129912749D01*
X84491144Y-129912751D01*
X84551228Y-130002673D01*
X84641150Y-130062757D01*
X93214500Y-138636108D01*
X93214500Y-138826446D01*
X93041359Y-138754728D01*
X92195185Y-138754728D01*
X92067376Y-138807668D01*
X82999307Y-129739600D01*
X83077211Y-129739600D01*
X83546562Y-129545188D01*
X83905788Y-129185962D01*
X84100200Y-128716611D01*
X84100200Y-128208589D01*
X84080084Y-128160024D01*
X84250701Y-127989407D01*
X84250701Y-129120129D01*
X84250701Y-129120129D01*
G37*
X84250701Y-129120129D02*
X84229602Y-129226200D01*
X84250701Y-129332272D01*
X84298093Y-129570525D01*
X84313190Y-129646424D01*
X84491142Y-129912749D01*
X84491144Y-129912751D01*
X84551228Y-130002673D01*
X84641150Y-130062757D01*
X93214500Y-138636108D01*
X93214500Y-138826446D01*
X93041359Y-138754728D01*
X92195185Y-138754728D01*
X92067376Y-138807668D01*
X82999307Y-129739600D01*
X83077211Y-129739600D01*
X83546562Y-129545188D01*
X83905788Y-129185962D01*
X84100200Y-128716611D01*
X84100200Y-128208589D01*
X84080084Y-128160024D01*
X84250701Y-127989407D01*
X84250701Y-129120129D01*
G36*
X110855819Y-122400000D02*
X110923884Y-122742188D01*
X111117719Y-123032281D01*
X111407812Y-123226116D01*
X111448001Y-123234110D01*
X111448000Y-131198492D01*
X105575700Y-137070792D01*
X105575700Y-129051119D01*
X105983767Y-129220146D01*
X106829941Y-129220146D01*
X107611702Y-128896329D01*
X108210037Y-128297994D01*
X108533854Y-127516233D01*
X108533854Y-126670059D01*
X108210037Y-125888298D01*
X107611702Y-125289963D01*
X107483900Y-125237026D01*
X107483900Y-124864507D01*
X110855819Y-121492589D01*
X110855819Y-122400000D01*
X110855819Y-122400000D01*
G37*
X110855819Y-122400000D02*
X110923884Y-122742188D01*
X111117719Y-123032281D01*
X111407812Y-123226116D01*
X111448001Y-123234110D01*
X111448000Y-131198492D01*
X105575700Y-137070792D01*
X105575700Y-129051119D01*
X105983767Y-129220146D01*
X106829941Y-129220146D01*
X107611702Y-128896329D01*
X108210037Y-128297994D01*
X108533854Y-127516233D01*
X108533854Y-126670059D01*
X108210037Y-125888298D01*
X107611702Y-125289963D01*
X107483900Y-125237026D01*
X107483900Y-124864507D01*
X110855819Y-121492589D01*
X110855819Y-122400000D01*
G36*
X62795000Y-133459181D02*
X63288001Y-133459181D01*
X63288001Y-134175194D01*
X62516614Y-133403807D01*
X62795000Y-133459181D01*
X62795000Y-133459181D01*
G37*
X62795000Y-133459181D02*
X63288001Y-133459181D01*
X63288001Y-134175194D01*
X62516614Y-133403807D01*
X62795000Y-133459181D01*
G36*
X66952694Y-133594349D02*
X66917719Y-133617719D01*
X66723884Y-133907812D01*
X66712000Y-133967557D01*
X66712000Y-133459181D01*
X66979581Y-133459181D01*
X66952694Y-133594349D01*
X66952694Y-133594349D01*
G37*
X66952694Y-133594349D02*
X66917719Y-133617719D01*
X66723884Y-133907812D01*
X66712000Y-133967557D01*
X66712000Y-133459181D01*
X66979581Y-133459181D01*
X66952694Y-133594349D01*
G36*
X76448400Y-132878792D02*
X76070171Y-133257021D01*
X76025562Y-133212412D01*
X75951500Y-133181734D01*
X75951500Y-131221907D01*
X76448400Y-130725007D01*
X76448400Y-132878792D01*
X76448400Y-132878792D01*
G37*
X76448400Y-132878792D02*
X76070171Y-133257021D01*
X76025562Y-133212412D01*
X75951500Y-133181734D01*
X75951500Y-131221907D01*
X76448400Y-130725007D01*
X76448400Y-132878792D01*
G36*
X71779411Y-129760819D02*
X71685000Y-129760819D01*
X71350000Y-129827454D01*
X71015000Y-129760819D01*
X70415000Y-129760819D01*
X70080000Y-129827454D01*
X69745000Y-129760819D01*
X69145000Y-129760819D01*
X68810000Y-129827454D01*
X68475000Y-129760819D01*
X67982000Y-129760819D01*
X67982000Y-125963407D01*
X71779411Y-129760819D01*
X71779411Y-129760819D01*
G37*
X71779411Y-129760819D02*
X71685000Y-129760819D01*
X71350000Y-129827454D01*
X71015000Y-129760819D01*
X70415000Y-129760819D01*
X70080000Y-129827454D01*
X69745000Y-129760819D01*
X69145000Y-129760819D01*
X68810000Y-129827454D01*
X68475000Y-129760819D01*
X67982000Y-129760819D01*
X67982000Y-125963407D01*
X71779411Y-129760819D01*
G36*
X74980819Y-124824026D02*
X74980819Y-126250000D01*
X75048884Y-126592188D01*
X75154331Y-126750000D01*
X75048884Y-126907812D01*
X74980819Y-127250000D01*
X74980819Y-128750000D01*
X75046581Y-129080611D01*
X74596000Y-129531192D01*
X69887107Y-124822300D01*
X74979093Y-124822300D01*
X74980819Y-124824026D01*
X74980819Y-124824026D01*
G37*
X74980819Y-124824026D02*
X74980819Y-126250000D01*
X75048884Y-126592188D01*
X75154331Y-126750000D01*
X75048884Y-126907812D01*
X74980819Y-127250000D01*
X74980819Y-128750000D01*
X75046581Y-129080611D01*
X74596000Y-129531192D01*
X69887107Y-124822300D01*
X74979093Y-124822300D01*
X74980819Y-124824026D01*
G36*
X85660743Y-123105651D02*
X85720827Y-123195573D01*
X85810749Y-123255657D01*
X85810750Y-123255658D01*
X85887171Y-123306721D01*
X82136652Y-127057241D01*
X82046727Y-127117327D01*
X81808689Y-127473577D01*
X81759628Y-127720222D01*
X81740612Y-127739238D01*
X81546200Y-128208589D01*
X81546200Y-128286493D01*
X78869800Y-125610093D01*
X78869800Y-116314707D01*
X85660743Y-123105651D01*
X85660743Y-123105651D01*
G37*
X85660743Y-123105651D02*
X85720827Y-123195573D01*
X85810749Y-123255657D01*
X85810750Y-123255658D01*
X85887171Y-123306721D01*
X82136652Y-127057241D01*
X82046727Y-127117327D01*
X81808689Y-127473577D01*
X81759628Y-127720222D01*
X81740612Y-127739238D01*
X81546200Y-128208589D01*
X81546200Y-128286493D01*
X78869800Y-125610093D01*
X78869800Y-116314707D01*
X85660743Y-123105651D01*
G36*
X53136901Y-126273516D02*
X53130400Y-126240834D01*
X53130400Y-117579750D01*
X53135988Y-117574162D01*
X53136900Y-117571960D01*
X53136901Y-126273516D01*
X53136901Y-126273516D01*
G37*
X53136901Y-126273516D02*
X53130400Y-126240834D01*
X53130400Y-117579750D01*
X53135988Y-117574162D01*
X53136900Y-117571960D01*
X53136901Y-126273516D01*
G36*
X119357812Y-104226116D02*
X119700000Y-104294181D01*
X120573401Y-104294181D01*
X120573400Y-114578192D01*
X119788450Y-115363143D01*
X119698528Y-115423227D01*
X119638444Y-115513149D01*
X119638442Y-115513151D01*
X119550894Y-115644177D01*
X119480538Y-115749472D01*
X119357812Y-115773884D01*
X119067719Y-115967719D01*
X118930554Y-116173000D01*
X114069446Y-116173000D01*
X113932281Y-115967719D01*
X113642188Y-115773884D01*
X113300000Y-115705819D01*
X111750000Y-115705819D01*
X111407812Y-115773884D01*
X111117719Y-115967719D01*
X110923884Y-116257812D01*
X110855819Y-116600000D01*
X110855819Y-117900000D01*
X110923884Y-118242188D01*
X110978406Y-118323786D01*
X105720350Y-123581843D01*
X105630428Y-123641927D01*
X105575700Y-123723833D01*
X105575700Y-112272707D01*
X113211551Y-104636857D01*
X113301473Y-104576773D01*
X113361556Y-104486852D01*
X113361558Y-104486850D01*
X113451595Y-104352100D01*
X118668534Y-104352100D01*
X118774600Y-104373198D01*
X118880666Y-104352100D01*
X118880672Y-104352100D01*
X119194824Y-104289611D01*
X119323832Y-104203411D01*
X119357812Y-104226116D01*
X119357812Y-104226116D01*
G37*
X119357812Y-104226116D02*
X119700000Y-104294181D01*
X120573401Y-104294181D01*
X120573400Y-114578192D01*
X119788450Y-115363143D01*
X119698528Y-115423227D01*
X119638444Y-115513149D01*
X119638442Y-115513151D01*
X119550894Y-115644177D01*
X119480538Y-115749472D01*
X119357812Y-115773884D01*
X119067719Y-115967719D01*
X118930554Y-116173000D01*
X114069446Y-116173000D01*
X113932281Y-115967719D01*
X113642188Y-115773884D01*
X113300000Y-115705819D01*
X111750000Y-115705819D01*
X111407812Y-115773884D01*
X111117719Y-115967719D01*
X110923884Y-116257812D01*
X110855819Y-116600000D01*
X110855819Y-117900000D01*
X110923884Y-118242188D01*
X110978406Y-118323786D01*
X105720350Y-123581843D01*
X105630428Y-123641927D01*
X105575700Y-123723833D01*
X105575700Y-112272707D01*
X113211551Y-104636857D01*
X113301473Y-104576773D01*
X113361556Y-104486852D01*
X113361558Y-104486850D01*
X113451595Y-104352100D01*
X118668534Y-104352100D01*
X118774600Y-104373198D01*
X118880666Y-104352100D01*
X118880672Y-104352100D01*
X119194824Y-104289611D01*
X119323832Y-104203411D01*
X119357812Y-104226116D01*
G36*
X76715801Y-123294527D02*
X76606072Y-123272700D01*
X76502200Y-123252039D01*
X76502200Y-118675408D01*
X76686851Y-118490757D01*
X76715800Y-118471413D01*
X76715801Y-123294527D01*
X76715801Y-123294527D01*
G37*
X76715801Y-123294527D02*
X76606072Y-123272700D01*
X76502200Y-123252039D01*
X76502200Y-118675408D01*
X76686851Y-118490757D01*
X76715800Y-118471413D01*
X76715801Y-123294527D01*
G36*
X51576600Y-104637329D02*
X51576600Y-104637334D01*
X51555502Y-104743400D01*
X51576600Y-104849467D01*
X51576601Y-114321791D01*
X50766552Y-115131841D01*
X50676627Y-115191927D01*
X50438589Y-115548177D01*
X50376100Y-115862329D01*
X50376100Y-115862334D01*
X50367308Y-115906535D01*
X50238589Y-116099177D01*
X50176100Y-116413329D01*
X50176100Y-116413334D01*
X50155002Y-116519400D01*
X50176100Y-116625467D01*
X50176101Y-120680819D01*
X49330000Y-120680819D01*
X48987812Y-120748884D01*
X48697719Y-120942719D01*
X48523591Y-121203319D01*
X48360000Y-121203319D01*
X48017812Y-121271384D01*
X47727719Y-121465219D01*
X47538770Y-121748000D01*
X46781883Y-121748000D01*
X46710488Y-121575638D01*
X46704900Y-121570050D01*
X46704900Y-109385707D01*
X51607221Y-104483387D01*
X51576600Y-104637329D01*
X51576600Y-104637329D01*
G37*
X51576600Y-104637329D02*
X51576600Y-104637334D01*
X51555502Y-104743400D01*
X51576600Y-104849467D01*
X51576601Y-114321791D01*
X50766552Y-115131841D01*
X50676627Y-115191927D01*
X50438589Y-115548177D01*
X50376100Y-115862329D01*
X50376100Y-115862334D01*
X50367308Y-115906535D01*
X50238589Y-116099177D01*
X50176100Y-116413329D01*
X50176100Y-116413334D01*
X50155002Y-116519400D01*
X50176100Y-116625467D01*
X50176101Y-120680819D01*
X49330000Y-120680819D01*
X48987812Y-120748884D01*
X48697719Y-120942719D01*
X48523591Y-121203319D01*
X48360000Y-121203319D01*
X48017812Y-121271384D01*
X47727719Y-121465219D01*
X47538770Y-121748000D01*
X46781883Y-121748000D01*
X46710488Y-121575638D01*
X46704900Y-121570050D01*
X46704900Y-109385707D01*
X51607221Y-104483387D01*
X51576600Y-104637329D01*
G36*
X87490800Y-110873408D02*
X87490801Y-121142100D01*
X87480689Y-121142100D01*
X87011338Y-121336512D01*
X87005750Y-121342100D01*
X86943408Y-121342100D01*
X85183998Y-119582691D01*
X85242188Y-119571116D01*
X85287830Y-119540619D01*
X85300300Y-119543099D01*
X85406371Y-119522000D01*
X85406372Y-119522000D01*
X85720524Y-119459511D01*
X86076773Y-119221473D01*
X86314811Y-118865224D01*
X86398399Y-118445000D01*
X86377300Y-118338928D01*
X86377300Y-117281072D01*
X86398399Y-117175000D01*
X86370802Y-117036258D01*
X86314811Y-116754776D01*
X86239817Y-116642539D01*
X86248298Y-116599901D01*
X86227200Y-116493834D01*
X86227200Y-116306243D01*
X86314811Y-116175124D01*
X86377300Y-115860972D01*
X86377300Y-115860967D01*
X86398398Y-115754901D01*
X86377300Y-115648834D01*
X86377300Y-114741072D01*
X86398399Y-114635000D01*
X86377300Y-114528928D01*
X86377300Y-109759908D01*
X87490800Y-110873408D01*
X87490800Y-110873408D01*
G37*
X87490800Y-110873408D02*
X87490801Y-121142100D01*
X87480689Y-121142100D01*
X87011338Y-121336512D01*
X87005750Y-121342100D01*
X86943408Y-121342100D01*
X85183998Y-119582691D01*
X85242188Y-119571116D01*
X85287830Y-119540619D01*
X85300300Y-119543099D01*
X85406371Y-119522000D01*
X85406372Y-119522000D01*
X85720524Y-119459511D01*
X86076773Y-119221473D01*
X86314811Y-118865224D01*
X86398399Y-118445000D01*
X86377300Y-118338928D01*
X86377300Y-117281072D01*
X86398399Y-117175000D01*
X86370802Y-117036258D01*
X86314811Y-116754776D01*
X86239817Y-116642539D01*
X86248298Y-116599901D01*
X86227200Y-116493834D01*
X86227200Y-116306243D01*
X86314811Y-116175124D01*
X86377300Y-115860972D01*
X86377300Y-115860967D01*
X86398398Y-115754901D01*
X86377300Y-115648834D01*
X86377300Y-114741072D01*
X86398399Y-114635000D01*
X86377300Y-114528928D01*
X86377300Y-109759908D01*
X87490800Y-110873408D01*
G36*
X73205819Y-113065000D02*
X73205819Y-113665000D01*
X73272454Y-114000000D01*
X73205819Y-114335000D01*
X73205819Y-114935000D01*
X73272454Y-115270000D01*
X73205819Y-115605000D01*
X73205819Y-116205000D01*
X73272454Y-116540000D01*
X73205819Y-116875000D01*
X73205819Y-117475000D01*
X73272454Y-117810000D01*
X73205819Y-118145000D01*
X73205819Y-118745000D01*
X73273884Y-119087188D01*
X73467719Y-119377281D01*
X73757812Y-119571116D01*
X74100000Y-119639181D01*
X74348200Y-119639181D01*
X74348200Y-121043551D01*
X74187281Y-120802719D01*
X73897188Y-120608884D01*
X73555000Y-120540819D01*
X73062000Y-120540819D01*
X73062000Y-112985807D01*
X73261193Y-112786614D01*
X73205819Y-113065000D01*
X73205819Y-113065000D01*
G37*
X73205819Y-113065000D02*
X73205819Y-113665000D01*
X73272454Y-114000000D01*
X73205819Y-114335000D01*
X73205819Y-114935000D01*
X73272454Y-115270000D01*
X73205819Y-115605000D01*
X73205819Y-116205000D01*
X73272454Y-116540000D01*
X73205819Y-116875000D01*
X73205819Y-117475000D01*
X73272454Y-117810000D01*
X73205819Y-118145000D01*
X73205819Y-118745000D01*
X73273884Y-119087188D01*
X73467719Y-119377281D01*
X73757812Y-119571116D01*
X74100000Y-119639181D01*
X74348200Y-119639181D01*
X74348200Y-121043551D01*
X74187281Y-120802719D01*
X73897188Y-120608884D01*
X73555000Y-120540819D01*
X73062000Y-120540819D01*
X73062000Y-112985807D01*
X73261193Y-112786614D01*
X73205819Y-113065000D01*
G36*
X119067719Y-118532281D02*
X119357812Y-118726116D01*
X119480538Y-118750527D01*
X119638442Y-118986849D01*
X119638443Y-118986850D01*
X119698528Y-119076773D01*
X119788450Y-119136857D01*
X120857411Y-120205819D01*
X119700000Y-120205819D01*
X119357812Y-120273884D01*
X119067719Y-120467719D01*
X118930554Y-120673000D01*
X114069446Y-120673000D01*
X113932281Y-120467719D01*
X113642188Y-120273884D01*
X113300000Y-120205819D01*
X112142589Y-120205819D01*
X113211551Y-119136857D01*
X113301473Y-119076773D01*
X113361559Y-118986849D01*
X113490295Y-118794181D01*
X113519463Y-118750527D01*
X113642188Y-118726116D01*
X113932281Y-118532281D01*
X114069446Y-118327000D01*
X118930554Y-118327000D01*
X119067719Y-118532281D01*
X119067719Y-118532281D01*
G37*
X119067719Y-118532281D02*
X119357812Y-118726116D01*
X119480538Y-118750527D01*
X119638442Y-118986849D01*
X119638443Y-118986850D01*
X119698528Y-119076773D01*
X119788450Y-119136857D01*
X120857411Y-120205819D01*
X119700000Y-120205819D01*
X119357812Y-120273884D01*
X119067719Y-120467719D01*
X118930554Y-120673000D01*
X114069446Y-120673000D01*
X113932281Y-120467719D01*
X113642188Y-120273884D01*
X113300000Y-120205819D01*
X112142589Y-120205819D01*
X113211551Y-119136857D01*
X113301473Y-119076773D01*
X113361559Y-118986849D01*
X113490295Y-118794181D01*
X113519463Y-118750527D01*
X113642188Y-118726116D01*
X113932281Y-118532281D01*
X114069446Y-118327000D01*
X118930554Y-118327000D01*
X119067719Y-118532281D01*
G36*
X62236901Y-117337529D02*
X62215802Y-117443600D01*
X62236901Y-117549672D01*
X62260543Y-117668527D01*
X62299390Y-117863824D01*
X62477342Y-118130149D01*
X62477344Y-118130151D01*
X62537428Y-118220073D01*
X62627350Y-118280157D01*
X64943384Y-120596193D01*
X64665000Y-120540819D01*
X64065000Y-120540819D01*
X63730000Y-120607454D01*
X63395000Y-120540819D01*
X62795000Y-120540819D01*
X62460000Y-120607454D01*
X62125000Y-120540819D01*
X61525000Y-120540819D01*
X61190000Y-120607454D01*
X61109561Y-120591454D01*
X61276116Y-120342188D01*
X61344181Y-120000000D01*
X61344181Y-119500000D01*
X61276116Y-119157812D01*
X61170669Y-119000000D01*
X61276116Y-118842188D01*
X61321028Y-118616398D01*
X61523362Y-118532588D01*
X61882588Y-118173362D01*
X62077000Y-117704011D01*
X62077000Y-117195989D01*
X61882588Y-116726638D01*
X61523362Y-116367412D01*
X61461685Y-116341865D01*
X61757588Y-116045962D01*
X61952000Y-115576611D01*
X61952000Y-115068589D01*
X61757588Y-114599238D01*
X61398362Y-114240012D01*
X60930220Y-114046101D01*
X61101773Y-113931473D01*
X61318969Y-113606416D01*
X61466062Y-113545488D01*
X61825288Y-113186262D01*
X62019700Y-112716911D01*
X62019700Y-112676757D01*
X62236900Y-112586789D01*
X62236901Y-117337529D01*
X62236901Y-117337529D01*
G37*
X62236901Y-117337529D02*
X62215802Y-117443600D01*
X62236901Y-117549672D01*
X62260543Y-117668527D01*
X62299390Y-117863824D01*
X62477342Y-118130149D01*
X62477344Y-118130151D01*
X62537428Y-118220073D01*
X62627350Y-118280157D01*
X64943384Y-120596193D01*
X64665000Y-120540819D01*
X64065000Y-120540819D01*
X63730000Y-120607454D01*
X63395000Y-120540819D01*
X62795000Y-120540819D01*
X62460000Y-120607454D01*
X62125000Y-120540819D01*
X61525000Y-120540819D01*
X61190000Y-120607454D01*
X61109561Y-120591454D01*
X61276116Y-120342188D01*
X61344181Y-120000000D01*
X61344181Y-119500000D01*
X61276116Y-119157812D01*
X61170669Y-119000000D01*
X61276116Y-118842188D01*
X61321028Y-118616398D01*
X61523362Y-118532588D01*
X61882588Y-118173362D01*
X62077000Y-117704011D01*
X62077000Y-117195989D01*
X61882588Y-116726638D01*
X61523362Y-116367412D01*
X61461685Y-116341865D01*
X61757588Y-116045962D01*
X61952000Y-115576611D01*
X61952000Y-115068589D01*
X61757588Y-114599238D01*
X61398362Y-114240012D01*
X60930220Y-114046101D01*
X61101773Y-113931473D01*
X61318969Y-113606416D01*
X61466062Y-113545488D01*
X61825288Y-113186262D01*
X62019700Y-112716911D01*
X62019700Y-112676757D01*
X62236900Y-112586789D01*
X62236901Y-117337529D01*
G36*
X69638000Y-120540819D02*
X69511700Y-120540819D01*
X69511700Y-114370468D01*
X69532798Y-114264400D01*
X69511700Y-114158332D01*
X69511700Y-114158328D01*
X69449211Y-113844176D01*
X69449211Y-113844175D01*
X69271258Y-113577850D01*
X69271257Y-113577849D01*
X69211173Y-113487927D01*
X69121251Y-113427843D01*
X68848408Y-113155000D01*
X69638001Y-112365407D01*
X69638000Y-120540819D01*
X69638000Y-120540819D01*
G37*
X69638000Y-120540819D02*
X69511700Y-120540819D01*
X69511700Y-114370468D01*
X69532798Y-114264400D01*
X69511700Y-114158332D01*
X69511700Y-114158328D01*
X69449211Y-113844176D01*
X69449211Y-113844175D01*
X69271258Y-113577850D01*
X69271257Y-113577849D01*
X69211173Y-113487927D01*
X69121251Y-113427843D01*
X68848408Y-113155000D01*
X69638001Y-112365407D01*
X69638000Y-120540819D01*
G36*
X93273001Y-119125691D02*
X92302000Y-120096692D01*
X92302000Y-104234110D01*
X92342188Y-104226116D01*
X92632281Y-104032281D01*
X92826116Y-103742188D01*
X92894181Y-103400000D01*
X92894181Y-102100000D01*
X92826116Y-101757812D01*
X92632281Y-101467719D01*
X92342188Y-101273884D01*
X92000000Y-101205819D01*
X90450000Y-101205819D01*
X90107812Y-101273884D01*
X89817719Y-101467719D01*
X89623884Y-101757812D01*
X89555819Y-102100000D01*
X89555819Y-102198100D01*
X85421507Y-102198100D01*
X85286859Y-102063452D01*
X85226773Y-101973527D01*
X84870524Y-101735489D01*
X84859771Y-101733350D01*
X84682281Y-101467719D01*
X84392188Y-101273884D01*
X84212221Y-101238087D01*
X84426608Y-101023700D01*
X91468234Y-101023700D01*
X91574300Y-101044798D01*
X91680366Y-101023700D01*
X91680372Y-101023700D01*
X91994524Y-100961211D01*
X92350773Y-100723173D01*
X92410859Y-100633248D01*
X93273000Y-99771107D01*
X93273001Y-119125691D01*
X93273001Y-119125691D01*
G37*
X93273001Y-119125691D02*
X92302000Y-120096692D01*
X92302000Y-104234110D01*
X92342188Y-104226116D01*
X92632281Y-104032281D01*
X92826116Y-103742188D01*
X92894181Y-103400000D01*
X92894181Y-102100000D01*
X92826116Y-101757812D01*
X92632281Y-101467719D01*
X92342188Y-101273884D01*
X92000000Y-101205819D01*
X90450000Y-101205819D01*
X90107812Y-101273884D01*
X89817719Y-101467719D01*
X89623884Y-101757812D01*
X89555819Y-102100000D01*
X89555819Y-102198100D01*
X85421507Y-102198100D01*
X85286859Y-102063452D01*
X85226773Y-101973527D01*
X84870524Y-101735489D01*
X84859771Y-101733350D01*
X84682281Y-101467719D01*
X84392188Y-101273884D01*
X84212221Y-101238087D01*
X84426608Y-101023700D01*
X91468234Y-101023700D01*
X91574300Y-101044798D01*
X91680366Y-101023700D01*
X91680372Y-101023700D01*
X91994524Y-100961211D01*
X92350773Y-100723173D01*
X92410859Y-100633248D01*
X93273000Y-99771107D01*
X93273001Y-119125691D01*
G36*
X67357700Y-114710508D02*
X67357701Y-118794693D01*
X66051700Y-117488693D01*
X66051700Y-114349181D01*
X66925000Y-114349181D01*
X66984532Y-114337339D01*
X67357700Y-114710508D01*
X67357700Y-114710508D01*
G37*
X67357700Y-114710508D02*
X67357701Y-118794693D01*
X66051700Y-117488693D01*
X66051700Y-114349181D01*
X66925000Y-114349181D01*
X66984532Y-114337339D01*
X67357700Y-114710508D01*
G36*
X110272600Y-83784333D02*
X110251502Y-83890400D01*
X110272600Y-83996466D01*
X110272600Y-83996471D01*
X110335089Y-84310623D01*
X110573127Y-84666873D01*
X110663052Y-84726959D01*
X112722643Y-86786551D01*
X112782727Y-86876473D01*
X112872649Y-86936557D01*
X112872650Y-86936558D01*
X112941080Y-86982281D01*
X113138976Y-87114511D01*
X113453128Y-87177000D01*
X113453133Y-87177000D01*
X113559199Y-87198098D01*
X113665266Y-87177000D01*
X114462256Y-87177000D01*
X114800000Y-87244181D01*
X115583011Y-87244181D01*
X101410752Y-101416441D01*
X101320827Y-101476527D01*
X101082789Y-101832777D01*
X101020300Y-102146929D01*
X101020300Y-102146934D01*
X100999202Y-102253000D01*
X101020300Y-102359067D01*
X101020301Y-112232091D01*
X95427000Y-117825392D01*
X95427000Y-87086037D01*
X95582281Y-86982281D01*
X95776116Y-86692188D01*
X95844181Y-86350000D01*
X95844181Y-85150000D01*
X95776116Y-84807812D01*
X95582281Y-84517719D01*
X95292188Y-84323884D01*
X94950000Y-84255819D01*
X94227400Y-84255819D01*
X94227400Y-84077000D01*
X95680554Y-84077000D01*
X95817719Y-84282281D01*
X96107812Y-84476116D01*
X96450000Y-84544181D01*
X98000000Y-84544181D01*
X98342188Y-84476116D01*
X98632281Y-84282281D01*
X98826116Y-83992188D01*
X98894181Y-83650000D01*
X98894181Y-82350000D01*
X98826116Y-82007812D01*
X98695890Y-81812915D01*
X98750600Y-81823798D01*
X98856666Y-81802700D01*
X110272601Y-81802700D01*
X110272600Y-83784333D01*
X110272600Y-83784333D01*
G37*
X110272600Y-83784333D02*
X110251502Y-83890400D01*
X110272600Y-83996466D01*
X110272600Y-83996471D01*
X110335089Y-84310623D01*
X110573127Y-84666873D01*
X110663052Y-84726959D01*
X112722643Y-86786551D01*
X112782727Y-86876473D01*
X112872649Y-86936557D01*
X112872650Y-86936558D01*
X112941080Y-86982281D01*
X113138976Y-87114511D01*
X113453128Y-87177000D01*
X113453133Y-87177000D01*
X113559199Y-87198098D01*
X113665266Y-87177000D01*
X114462256Y-87177000D01*
X114800000Y-87244181D01*
X115583011Y-87244181D01*
X101410752Y-101416441D01*
X101320827Y-101476527D01*
X101082789Y-101832777D01*
X101020300Y-102146929D01*
X101020300Y-102146934D01*
X100999202Y-102253000D01*
X101020300Y-102359067D01*
X101020301Y-112232091D01*
X95427000Y-117825392D01*
X95427000Y-87086037D01*
X95582281Y-86982281D01*
X95776116Y-86692188D01*
X95844181Y-86350000D01*
X95844181Y-85150000D01*
X95776116Y-84807812D01*
X95582281Y-84517719D01*
X95292188Y-84323884D01*
X94950000Y-84255819D01*
X94227400Y-84255819D01*
X94227400Y-84077000D01*
X95680554Y-84077000D01*
X95817719Y-84282281D01*
X96107812Y-84476116D01*
X96450000Y-84544181D01*
X98000000Y-84544181D01*
X98342188Y-84476116D01*
X98632281Y-84282281D01*
X98826116Y-83992188D01*
X98894181Y-83650000D01*
X98894181Y-82350000D01*
X98826116Y-82007812D01*
X98695890Y-81812915D01*
X98750600Y-81823798D01*
X98856666Y-81802700D01*
X110272601Y-81802700D01*
X110272600Y-83784333D01*
G36*
X59951638Y-116405188D02*
X60013315Y-116430735D01*
X59928159Y-116515891D01*
X59893929Y-116522700D01*
X59893928Y-116522700D01*
X59579776Y-116585189D01*
X59223527Y-116823227D01*
X58985489Y-117179476D01*
X58963793Y-117288548D01*
X58792188Y-117173884D01*
X58450000Y-117105819D01*
X58016989Y-117105819D01*
X58723208Y-116399600D01*
X59946050Y-116399600D01*
X59951638Y-116405188D01*
X59951638Y-116405188D01*
G37*
X59951638Y-116405188D02*
X60013315Y-116430735D01*
X59928159Y-116515891D01*
X59893929Y-116522700D01*
X59893928Y-116522700D01*
X59579776Y-116585189D01*
X59223527Y-116823227D01*
X58985489Y-117179476D01*
X58963793Y-117288548D01*
X58792188Y-117173884D01*
X58450000Y-117105819D01*
X58016989Y-117105819D01*
X58723208Y-116399600D01*
X59946050Y-116399600D01*
X59951638Y-116405188D01*
G36*
X81517600Y-110321208D02*
X81517600Y-110329111D01*
X81712012Y-110798462D01*
X81942087Y-111028537D01*
X81985189Y-111245224D01*
X82223227Y-111601473D01*
X82506645Y-111790847D01*
X82505819Y-111795000D01*
X82505819Y-112395000D01*
X82572454Y-112730000D01*
X82505819Y-113065000D01*
X82505819Y-113665000D01*
X82572454Y-114000000D01*
X82505819Y-114335000D01*
X82505819Y-114935000D01*
X82572454Y-115270000D01*
X82505819Y-115605000D01*
X82505819Y-116205000D01*
X82572454Y-116540000D01*
X82505819Y-116875000D01*
X82505819Y-116904512D01*
X79560600Y-113959293D01*
X79560600Y-109438650D01*
X79566188Y-109433062D01*
X79755800Y-108975300D01*
X80171693Y-108975300D01*
X81517600Y-110321208D01*
X81517600Y-110321208D01*
G37*
X81517600Y-110321208D02*
X81517600Y-110329111D01*
X81712012Y-110798462D01*
X81942087Y-111028537D01*
X81985189Y-111245224D01*
X82223227Y-111601473D01*
X82506645Y-111790847D01*
X82505819Y-111795000D01*
X82505819Y-112395000D01*
X82572454Y-112730000D01*
X82505819Y-113065000D01*
X82505819Y-113665000D01*
X82572454Y-114000000D01*
X82505819Y-114335000D01*
X82505819Y-114935000D01*
X82572454Y-115270000D01*
X82505819Y-115605000D01*
X82505819Y-116205000D01*
X82572454Y-116540000D01*
X82505819Y-116875000D01*
X82505819Y-116904512D01*
X79560600Y-113959293D01*
X79560600Y-109438650D01*
X79566188Y-109433062D01*
X79755800Y-108975300D01*
X80171693Y-108975300D01*
X81517600Y-110321208D01*
G36*
X57554476Y-114169511D02*
X57868628Y-114232000D01*
X57868633Y-114232000D01*
X57974699Y-114253098D01*
X57987168Y-114250618D01*
X58023559Y-114274933D01*
X57919877Y-114295557D01*
X57856875Y-114308089D01*
X57590550Y-114486042D01*
X57590549Y-114486043D01*
X57500627Y-114546127D01*
X57440543Y-114636049D01*
X55313450Y-116763143D01*
X55290900Y-116778210D01*
X55290900Y-116510507D01*
X55836951Y-115964457D01*
X55926873Y-115904373D01*
X55996097Y-115800773D01*
X56109987Y-115630324D01*
X56164911Y-115548124D01*
X56227400Y-115233972D01*
X56227400Y-115233967D01*
X56248498Y-115127901D01*
X56227400Y-115021834D01*
X56227400Y-114344181D01*
X56250000Y-114344181D01*
X56592188Y-114276116D01*
X56882281Y-114082281D01*
X56885810Y-114077000D01*
X57416024Y-114077000D01*
X57554476Y-114169511D01*
X57554476Y-114169511D01*
G37*
X57554476Y-114169511D02*
X57868628Y-114232000D01*
X57868633Y-114232000D01*
X57974699Y-114253098D01*
X57987168Y-114250618D01*
X58023559Y-114274933D01*
X57919877Y-114295557D01*
X57856875Y-114308089D01*
X57590550Y-114486042D01*
X57590549Y-114486043D01*
X57500627Y-114546127D01*
X57440543Y-114636049D01*
X55313450Y-116763143D01*
X55290900Y-116778210D01*
X55290900Y-116510507D01*
X55836951Y-115964457D01*
X55926873Y-115904373D01*
X55996097Y-115800773D01*
X56109987Y-115630324D01*
X56164911Y-115548124D01*
X56227400Y-115233972D01*
X56227400Y-115233967D01*
X56248498Y-115127901D01*
X56227400Y-115021834D01*
X56227400Y-114344181D01*
X56250000Y-114344181D01*
X56592188Y-114276116D01*
X56882281Y-114082281D01*
X56885810Y-114077000D01*
X57416024Y-114077000D01*
X57554476Y-114169511D01*
G36*
X77401012Y-109433062D02*
X77406601Y-109438651D01*
X77406600Y-111978193D01*
X76836859Y-111408452D01*
X76776773Y-111318527D01*
X76493355Y-111129153D01*
X76494181Y-111125000D01*
X76494181Y-110525000D01*
X76427546Y-110190000D01*
X76494181Y-109855000D01*
X76494181Y-109255000D01*
X76438546Y-108975300D01*
X77211400Y-108975300D01*
X77401012Y-109433062D01*
X77401012Y-109433062D01*
G37*
X77401012Y-109433062D02*
X77406601Y-109438651D01*
X77406600Y-111978193D01*
X76836859Y-111408452D01*
X76776773Y-111318527D01*
X76493355Y-111129153D01*
X76494181Y-111125000D01*
X76494181Y-110525000D01*
X76427546Y-110190000D01*
X76494181Y-109855000D01*
X76494181Y-109255000D01*
X76438546Y-108975300D01*
X77211400Y-108975300D01*
X77401012Y-109433062D01*
G36*
X68407812Y-110276116D02*
X68574600Y-110309292D01*
X68574600Y-110382592D01*
X67763807Y-111193385D01*
X67819181Y-110915000D01*
X67819181Y-110315000D01*
X67818355Y-110310847D01*
X68101773Y-110121473D01*
X68124799Y-110087012D01*
X68407812Y-110276116D01*
X68407812Y-110276116D01*
G37*
X68407812Y-110276116D02*
X68574600Y-110309292D01*
X68574600Y-110382592D01*
X67763807Y-111193385D01*
X67819181Y-110915000D01*
X67819181Y-110315000D01*
X67818355Y-110310847D01*
X68101773Y-110121473D01*
X68124799Y-110087012D01*
X68407812Y-110276116D01*
G36*
X62003342Y-107896749D02*
X62003344Y-107896751D01*
X62063428Y-107986673D01*
X62153350Y-108046757D01*
X64096846Y-109990254D01*
X63960189Y-110194776D01*
X63876601Y-110615000D01*
X63897700Y-110721071D01*
X63897700Y-111108792D01*
X61692800Y-108903893D01*
X61692800Y-107855607D01*
X61862478Y-107685930D01*
X62003342Y-107896749D01*
X62003342Y-107896749D01*
G37*
X62003342Y-107896749D02*
X62003344Y-107896751D01*
X62063428Y-107986673D01*
X62153350Y-108046757D01*
X64096846Y-109990254D01*
X63960189Y-110194776D01*
X63876601Y-110615000D01*
X63897700Y-110721071D01*
X63897700Y-111108792D01*
X61692800Y-108903893D01*
X61692800Y-107855607D01*
X61862478Y-107685930D01*
X62003342Y-107896749D01*
G36*
X71564593Y-110167000D02*
X71542750Y-110167000D01*
X71537162Y-110161412D01*
X71368444Y-110091527D01*
X71382281Y-110082281D01*
X71405650Y-110047307D01*
X71570524Y-110014511D01*
X71926773Y-109776473D01*
X71986859Y-109686548D01*
X72698108Y-108975300D01*
X72756292Y-108975300D01*
X71564593Y-110167000D01*
X71564593Y-110167000D01*
G37*
X71564593Y-110167000D02*
X71542750Y-110167000D01*
X71537162Y-110161412D01*
X71368444Y-110091527D01*
X71382281Y-110082281D01*
X71405650Y-110047307D01*
X71570524Y-110014511D01*
X71926773Y-109776473D01*
X71986859Y-109686548D01*
X72698108Y-108975300D01*
X72756292Y-108975300D01*
X71564593Y-110167000D01*
G36*
X109686700Y-103656350D02*
X109681112Y-103661938D01*
X109486700Y-104131289D01*
X109486700Y-104639311D01*
X109681112Y-105108662D01*
X109687321Y-105114871D01*
X104975400Y-109826793D01*
X104975400Y-108357607D01*
X109686700Y-103646308D01*
X109686700Y-103656350D01*
X109686700Y-103656350D01*
G37*
X109686700Y-103656350D02*
X109681112Y-103661938D01*
X109486700Y-104131289D01*
X109486700Y-104639311D01*
X109681112Y-105108662D01*
X109687321Y-105114871D01*
X104975400Y-109826793D01*
X104975400Y-108357607D01*
X109686700Y-103646308D01*
X109686700Y-103656350D01*
G36*
X56850600Y-109396550D02*
X56592188Y-109223884D01*
X56374200Y-109180524D01*
X56374200Y-104668407D01*
X56850600Y-104192007D01*
X56850600Y-109396550D01*
X56850600Y-109396550D01*
G37*
X56850600Y-109396550D02*
X56592188Y-109223884D01*
X56374200Y-109180524D01*
X56374200Y-104668407D01*
X56850600Y-104192007D01*
X56850600Y-109396550D01*
G36*
X90148000Y-109300548D02*
X89950473Y-109004927D01*
X89860552Y-108944844D01*
X85267807Y-104352100D01*
X90148000Y-104352100D01*
X90148000Y-109300548D01*
X90148000Y-109300548D01*
G37*
X90148000Y-109300548D02*
X89950473Y-109004927D01*
X89860552Y-108944844D01*
X85267807Y-104352100D01*
X90148000Y-104352100D01*
X90148000Y-109300548D01*
G36*
X81824689Y-106367100D02*
X81832593Y-106367100D01*
X83826311Y-108360819D01*
X83400000Y-108360819D01*
X83057812Y-108428884D01*
X82826230Y-108583623D01*
X81454359Y-107211752D01*
X81394273Y-107121827D01*
X81038024Y-106883789D01*
X80723872Y-106821300D01*
X80723866Y-106821300D01*
X80617800Y-106800202D01*
X80511734Y-106821300D01*
X72358066Y-106821300D01*
X72251999Y-106800202D01*
X72145933Y-106821300D01*
X72145928Y-106821300D01*
X71831776Y-106883789D01*
X71812021Y-106896989D01*
X71565450Y-107061742D01*
X71565449Y-107061743D01*
X71475527Y-107121827D01*
X71415443Y-107211749D01*
X70934645Y-107692547D01*
X70750000Y-107655819D01*
X70728600Y-107655819D01*
X70728600Y-106777300D01*
X80752234Y-106777300D01*
X80858300Y-106798398D01*
X80964366Y-106777300D01*
X80964372Y-106777300D01*
X81278524Y-106714811D01*
X81634773Y-106476773D01*
X81694859Y-106386848D01*
X81746849Y-106334858D01*
X81824689Y-106367100D01*
X81824689Y-106367100D01*
G37*
X81824689Y-106367100D02*
X81832593Y-106367100D01*
X83826311Y-108360819D01*
X83400000Y-108360819D01*
X83057812Y-108428884D01*
X82826230Y-108583623D01*
X81454359Y-107211752D01*
X81394273Y-107121827D01*
X81038024Y-106883789D01*
X80723872Y-106821300D01*
X80723866Y-106821300D01*
X80617800Y-106800202D01*
X80511734Y-106821300D01*
X72358066Y-106821300D01*
X72251999Y-106800202D01*
X72145933Y-106821300D01*
X72145928Y-106821300D01*
X71831776Y-106883789D01*
X71812021Y-106896989D01*
X71565450Y-107061742D01*
X71565449Y-107061743D01*
X71475527Y-107121827D01*
X71415443Y-107211749D01*
X70934645Y-107692547D01*
X70750000Y-107655819D01*
X70728600Y-107655819D01*
X70728600Y-106777300D01*
X80752234Y-106777300D01*
X80858300Y-106798398D01*
X80964366Y-106777300D01*
X80964372Y-106777300D01*
X81278524Y-106714811D01*
X81634773Y-106476773D01*
X81694859Y-106386848D01*
X81746849Y-106334858D01*
X81824689Y-106367100D01*
G36*
X65760376Y-106714811D02*
X66074528Y-106777300D01*
X66074534Y-106777300D01*
X66180600Y-106798398D01*
X66286666Y-106777300D01*
X68574601Y-106777300D01*
X68574601Y-107690708D01*
X68407812Y-107723884D01*
X68117719Y-107917719D01*
X68114190Y-107923000D01*
X67776368Y-107923000D01*
X67670300Y-107901902D01*
X67564232Y-107923000D01*
X67564228Y-107923000D01*
X67250076Y-107985489D01*
X66984831Y-108162720D01*
X66925000Y-108150819D01*
X65375000Y-108150819D01*
X65315468Y-108162661D01*
X64171988Y-107019181D01*
X64750000Y-107019181D01*
X65092188Y-106951116D01*
X65382281Y-106757281D01*
X65502742Y-106577000D01*
X65554127Y-106577000D01*
X65760376Y-106714811D01*
X65760376Y-106714811D01*
G37*
X65760376Y-106714811D02*
X66074528Y-106777300D01*
X66074534Y-106777300D01*
X66180600Y-106798398D01*
X66286666Y-106777300D01*
X68574601Y-106777300D01*
X68574601Y-107690708D01*
X68407812Y-107723884D01*
X68117719Y-107917719D01*
X68114190Y-107923000D01*
X67776368Y-107923000D01*
X67670300Y-107901902D01*
X67564232Y-107923000D01*
X67564228Y-107923000D01*
X67250076Y-107985489D01*
X66984831Y-108162720D01*
X66925000Y-108150819D01*
X65375000Y-108150819D01*
X65315468Y-108162661D01*
X64171988Y-107019181D01*
X64750000Y-107019181D01*
X65092188Y-106951116D01*
X65382281Y-106757281D01*
X65502742Y-106577000D01*
X65554127Y-106577000D01*
X65760376Y-106714811D01*
G36*
X108531701Y-97341871D02*
X108531700Y-101755092D01*
X108070194Y-102216598D01*
X107950088Y-101926638D01*
X107590862Y-101567412D01*
X107121511Y-101373000D01*
X106613489Y-101373000D01*
X106144138Y-101567412D01*
X105784912Y-101926638D01*
X105590500Y-102395989D01*
X105590500Y-102403892D01*
X103174300Y-104820093D01*
X103174300Y-102699107D01*
X108531674Y-97341734D01*
X108531701Y-97341871D01*
X108531701Y-97341871D01*
G37*
X108531701Y-97341871D02*
X108531700Y-101755092D01*
X108070194Y-102216598D01*
X107950088Y-101926638D01*
X107590862Y-101567412D01*
X107121511Y-101373000D01*
X106613489Y-101373000D01*
X106144138Y-101567412D01*
X105784912Y-101926638D01*
X105590500Y-102395989D01*
X105590500Y-102403892D01*
X103174300Y-104820093D01*
X103174300Y-102699107D01*
X108531674Y-97341734D01*
X108531701Y-97341871D01*
G36*
X66617719Y-84282281D02*
X66907812Y-84476116D01*
X66948000Y-84484110D01*
X66948000Y-84547334D01*
X66926902Y-84653400D01*
X66948000Y-84759466D01*
X66948000Y-84759471D01*
X67010489Y-85073623D01*
X67248527Y-85429873D01*
X67338452Y-85489959D01*
X69285443Y-87436951D01*
X69345527Y-87526873D01*
X69435449Y-87586957D01*
X69435450Y-87586958D01*
X69542744Y-87658649D01*
X69701776Y-87764911D01*
X70015928Y-87827400D01*
X70015933Y-87827400D01*
X70122000Y-87848498D01*
X70228066Y-87827400D01*
X71572734Y-87827400D01*
X71678800Y-87848498D01*
X71784866Y-87827400D01*
X71784872Y-87827400D01*
X72023000Y-87780033D01*
X72023001Y-103916129D01*
X72001902Y-104022200D01*
X72023001Y-104128272D01*
X72055372Y-104291011D01*
X72085490Y-104442424D01*
X72206347Y-104623300D01*
X70540350Y-104623300D01*
X70534762Y-104617712D01*
X70065411Y-104423300D01*
X69557389Y-104423300D01*
X69088038Y-104617712D01*
X69082450Y-104623300D01*
X67057300Y-104623300D01*
X67057300Y-95376071D01*
X67078399Y-95270000D01*
X67057300Y-95163928D01*
X67057300Y-90121366D01*
X67078398Y-90015299D01*
X67057300Y-89909233D01*
X67057300Y-89909228D01*
X66994811Y-89595076D01*
X66756773Y-89238827D01*
X66666851Y-89178743D01*
X65516700Y-88028593D01*
X65516700Y-84935207D01*
X66438238Y-84013670D01*
X66617719Y-84282281D01*
X66617719Y-84282281D01*
G37*
X66617719Y-84282281D02*
X66907812Y-84476116D01*
X66948000Y-84484110D01*
X66948000Y-84547334D01*
X66926902Y-84653400D01*
X66948000Y-84759466D01*
X66948000Y-84759471D01*
X67010489Y-85073623D01*
X67248527Y-85429873D01*
X67338452Y-85489959D01*
X69285443Y-87436951D01*
X69345527Y-87526873D01*
X69435449Y-87586957D01*
X69435450Y-87586958D01*
X69542744Y-87658649D01*
X69701776Y-87764911D01*
X70015928Y-87827400D01*
X70015933Y-87827400D01*
X70122000Y-87848498D01*
X70228066Y-87827400D01*
X71572734Y-87827400D01*
X71678800Y-87848498D01*
X71784866Y-87827400D01*
X71784872Y-87827400D01*
X72023000Y-87780033D01*
X72023001Y-103916129D01*
X72001902Y-104022200D01*
X72023001Y-104128272D01*
X72055372Y-104291011D01*
X72085490Y-104442424D01*
X72206347Y-104623300D01*
X70540350Y-104623300D01*
X70534762Y-104617712D01*
X70065411Y-104423300D01*
X69557389Y-104423300D01*
X69088038Y-104617712D01*
X69082450Y-104623300D01*
X67057300Y-104623300D01*
X67057300Y-95376071D01*
X67078399Y-95270000D01*
X67057300Y-95163928D01*
X67057300Y-90121366D01*
X67078398Y-90015299D01*
X67057300Y-89909233D01*
X67057300Y-89909228D01*
X66994811Y-89595076D01*
X66756773Y-89238827D01*
X66666851Y-89178743D01*
X65516700Y-88028593D01*
X65516700Y-84935207D01*
X66438238Y-84013670D01*
X66617719Y-84282281D01*
G36*
X74898000Y-96981933D02*
X74876902Y-97088000D01*
X74898000Y-97194066D01*
X74898000Y-97194071D01*
X74960489Y-97508223D01*
X75198527Y-97864473D01*
X75288452Y-97924559D01*
X78412000Y-101048108D01*
X78412000Y-101056011D01*
X78606412Y-101525362D01*
X78965638Y-101884588D01*
X79434989Y-102079000D01*
X79943011Y-102079000D01*
X80391500Y-101893229D01*
X80391501Y-104623300D01*
X74911100Y-104623300D01*
X74911100Y-104302289D01*
X74716688Y-103832938D01*
X74357462Y-103473712D01*
X74177000Y-103398962D01*
X74177000Y-87086037D01*
X74332281Y-86982281D01*
X74526116Y-86692188D01*
X74594181Y-86350000D01*
X74594181Y-85150000D01*
X74589666Y-85127300D01*
X74898001Y-85127300D01*
X74898000Y-96981933D01*
X74898000Y-96981933D01*
G37*
X74898000Y-96981933D02*
X74876902Y-97088000D01*
X74898000Y-97194066D01*
X74898000Y-97194071D01*
X74960489Y-97508223D01*
X75198527Y-97864473D01*
X75288452Y-97924559D01*
X78412000Y-101048108D01*
X78412000Y-101056011D01*
X78606412Y-101525362D01*
X78965638Y-101884588D01*
X79434989Y-102079000D01*
X79943011Y-102079000D01*
X80391500Y-101893229D01*
X80391501Y-104623300D01*
X74911100Y-104623300D01*
X74911100Y-104302289D01*
X74716688Y-103832938D01*
X74357462Y-103473712D01*
X74177000Y-103398962D01*
X74177000Y-87086037D01*
X74332281Y-86982281D01*
X74526116Y-86692188D01*
X74594181Y-86350000D01*
X74594181Y-85150000D01*
X74589666Y-85127300D01*
X74898001Y-85127300D01*
X74898000Y-96981933D01*
G36*
X60407381Y-103972547D02*
X60422004Y-104046061D01*
X60407812Y-104048884D01*
X60294400Y-104124664D01*
X60294400Y-103803458D01*
X60407381Y-103972547D01*
X60407381Y-103972547D01*
G37*
X60407381Y-103972547D02*
X60422004Y-104046061D01*
X60407812Y-104048884D01*
X60294400Y-104124664D01*
X60294400Y-103803458D01*
X60407381Y-103972547D01*
G36*
X64542721Y-96567106D02*
X64903301Y-96638829D01*
X64903300Y-104011312D01*
X64750000Y-103980819D01*
X63916900Y-103980819D01*
X63916900Y-96647000D01*
X63945623Y-96647000D01*
X64347279Y-96567106D01*
X64445000Y-96501811D01*
X64542721Y-96567106D01*
X64542721Y-96567106D01*
G37*
X64542721Y-96567106D02*
X64903301Y-96638829D01*
X64903300Y-104011312D01*
X64750000Y-103980819D01*
X63916900Y-103980819D01*
X63916900Y-96647000D01*
X63945623Y-96647000D01*
X64347279Y-96567106D01*
X64445000Y-96501811D01*
X64542721Y-96567106D01*
G36*
X123253893Y-103573000D02*
X123245989Y-103573000D01*
X122776638Y-103767412D01*
X122727400Y-103816650D01*
X122727400Y-103547300D01*
X123279593Y-103547300D01*
X123253893Y-103573000D01*
X123253893Y-103573000D01*
G37*
X123253893Y-103573000D02*
X123245989Y-103573000D01*
X122776638Y-103767412D01*
X122727400Y-103816650D01*
X122727400Y-103547300D01*
X123279593Y-103547300D01*
X123253893Y-103573000D01*
G36*
X113805175Y-99789611D02*
X113849356Y-99798399D01*
X114119328Y-99852100D01*
X114119332Y-99852100D01*
X114225400Y-99873198D01*
X114331468Y-99852100D01*
X119548406Y-99852100D01*
X119562503Y-99873198D01*
X119611616Y-99946700D01*
X119698528Y-100076773D01*
X119788450Y-100136857D01*
X120573401Y-100921808D01*
X120573401Y-101205819D01*
X119700000Y-101205819D01*
X119357812Y-101273884D01*
X119067719Y-101467719D01*
X118890229Y-101733350D01*
X118879475Y-101735489D01*
X118741622Y-101827600D01*
X118523227Y-101973527D01*
X118463141Y-102063452D01*
X118328493Y-102198100D01*
X114194181Y-102198100D01*
X114194181Y-102100000D01*
X114126116Y-101757812D01*
X113932281Y-101467719D01*
X113642188Y-101273884D01*
X113300000Y-101205819D01*
X111840700Y-101205819D01*
X111840700Y-99794181D01*
X113300000Y-99794181D01*
X113642188Y-99726116D01*
X113676168Y-99703411D01*
X113805175Y-99789611D01*
X113805175Y-99789611D01*
G37*
X113805175Y-99789611D02*
X113849356Y-99798399D01*
X114119328Y-99852100D01*
X114119332Y-99852100D01*
X114225400Y-99873198D01*
X114331468Y-99852100D01*
X119548406Y-99852100D01*
X119562503Y-99873198D01*
X119611616Y-99946700D01*
X119698528Y-100076773D01*
X119788450Y-100136857D01*
X120573401Y-100921808D01*
X120573401Y-101205819D01*
X119700000Y-101205819D01*
X119357812Y-101273884D01*
X119067719Y-101467719D01*
X118890229Y-101733350D01*
X118879475Y-101735489D01*
X118741622Y-101827600D01*
X118523227Y-101973527D01*
X118463141Y-102063452D01*
X118328493Y-102198100D01*
X114194181Y-102198100D01*
X114194181Y-102100000D01*
X114126116Y-101757812D01*
X113932281Y-101467719D01*
X113642188Y-101273884D01*
X113300000Y-101205819D01*
X111840700Y-101205819D01*
X111840700Y-99794181D01*
X113300000Y-99794181D01*
X113642188Y-99726116D01*
X113676168Y-99703411D01*
X113805175Y-99789611D01*
G36*
X122611400Y-99884908D02*
X122611400Y-99975391D01*
X122486958Y-99789150D01*
X122486957Y-99789149D01*
X122429196Y-99702704D01*
X122611400Y-99884908D01*
X122611400Y-99884908D01*
G37*
X122611400Y-99884908D02*
X122611400Y-99975391D01*
X122486958Y-99789150D01*
X122486957Y-99789149D01*
X122429196Y-99702704D01*
X122611400Y-99884908D01*
G36*
X122423396Y-99696904D02*
X122336951Y-99639143D01*
X122021594Y-99323786D01*
X122033083Y-99306591D01*
X122423396Y-99696904D01*
X122423396Y-99696904D01*
G37*
X122423396Y-99696904D02*
X122336951Y-99639143D01*
X122021594Y-99323786D01*
X122033083Y-99306591D01*
X122423396Y-99696904D01*
G36*
X59462721Y-96567106D02*
X59864377Y-96647000D01*
X60135623Y-96647000D01*
X60193001Y-96635587D01*
X60193001Y-98981451D01*
X59940762Y-98729212D01*
X59471411Y-98534800D01*
X59004600Y-98534800D01*
X59004600Y-96431407D01*
X59106752Y-96329255D01*
X59462721Y-96567106D01*
X59462721Y-96567106D01*
G37*
X59462721Y-96567106D02*
X59864377Y-96647000D01*
X60135623Y-96647000D01*
X60193001Y-96635587D01*
X60193001Y-98981451D01*
X59940762Y-98729212D01*
X59471411Y-98534800D01*
X59004600Y-98534800D01*
X59004600Y-96431407D01*
X59106752Y-96329255D01*
X59462721Y-96567106D01*
G36*
X123479101Y-84077509D02*
X123479100Y-88477328D01*
X123458001Y-88583400D01*
X123479101Y-88689476D01*
X123479100Y-97706393D01*
X122239359Y-96466652D01*
X122179273Y-96376727D01*
X121823024Y-96138689D01*
X121508872Y-96076200D01*
X121508866Y-96076200D01*
X121402800Y-96055102D01*
X121296734Y-96076200D01*
X112291407Y-96076200D01*
X119986252Y-88381356D01*
X120076173Y-88321273D01*
X120226703Y-88095989D01*
X120314211Y-87965025D01*
X120335858Y-87856198D01*
X120376700Y-87650872D01*
X120376700Y-87650868D01*
X120397798Y-87544800D01*
X120376700Y-87438732D01*
X120376700Y-84544181D01*
X121250000Y-84544181D01*
X121592188Y-84476116D01*
X121882281Y-84282281D01*
X122076116Y-83992188D01*
X122144181Y-83650000D01*
X122144181Y-82742589D01*
X123479101Y-84077509D01*
X123479101Y-84077509D01*
G37*
X123479101Y-84077509D02*
X123479100Y-88477328D01*
X123458001Y-88583400D01*
X123479101Y-88689476D01*
X123479100Y-97706393D01*
X122239359Y-96466652D01*
X122179273Y-96376727D01*
X121823024Y-96138689D01*
X121508872Y-96076200D01*
X121508866Y-96076200D01*
X121402800Y-96055102D01*
X121296734Y-96076200D01*
X112291407Y-96076200D01*
X119986252Y-88381356D01*
X120076173Y-88321273D01*
X120226703Y-88095989D01*
X120314211Y-87965025D01*
X120335858Y-87856198D01*
X120376700Y-87650872D01*
X120376700Y-87650868D01*
X120397798Y-87544800D01*
X120376700Y-87438732D01*
X120376700Y-84544181D01*
X121250000Y-84544181D01*
X121592188Y-84476116D01*
X121882281Y-84282281D01*
X122076116Y-83992188D01*
X122144181Y-83650000D01*
X122144181Y-82742589D01*
X123479101Y-84077509D01*
G36*
X62733000Y-92634413D02*
X62675623Y-92623000D01*
X62404377Y-92623000D01*
X62265264Y-92650671D01*
X62046473Y-92323227D01*
X61690224Y-92085189D01*
X61376072Y-92022700D01*
X61270000Y-92001601D01*
X61163929Y-92022700D01*
X61012708Y-92022700D01*
X61433108Y-91602300D01*
X62733001Y-91602300D01*
X62733000Y-92634413D01*
X62733000Y-92634413D01*
G37*
X62733000Y-92634413D02*
X62675623Y-92623000D01*
X62404377Y-92623000D01*
X62265264Y-92650671D01*
X62046473Y-92323227D01*
X61690224Y-92085189D01*
X61376072Y-92022700D01*
X61270000Y-92001601D01*
X61163929Y-92022700D01*
X61012708Y-92022700D01*
X61433108Y-91602300D01*
X62733001Y-91602300D01*
X62733000Y-92634413D01*
G36*
X64903301Y-92631171D02*
X64887000Y-92634413D01*
X64887000Y-90941366D01*
X64903301Y-90859416D01*
X64903301Y-92631171D01*
X64903301Y-92631171D01*
G37*
X64903301Y-92631171D02*
X64887000Y-92634413D01*
X64887000Y-90941366D01*
X64903301Y-90859416D01*
X64903301Y-92631171D01*
G36*
X64903301Y-90811182D02*
X64890217Y-90745404D01*
X64903301Y-90725823D01*
X64903301Y-90811182D01*
X64903301Y-90811182D01*
G37*
X64903301Y-90811182D02*
X64890217Y-90745404D01*
X64903301Y-90725823D01*
X64903301Y-90811182D01*
G36*
X118222701Y-84260334D02*
X118200000Y-84255819D01*
X117000000Y-84255819D01*
X116657812Y-84323884D01*
X116500000Y-84429331D01*
X116342188Y-84323884D01*
X116000000Y-84255819D01*
X114800000Y-84255819D01*
X114457812Y-84323884D01*
X114167719Y-84517719D01*
X113973884Y-84807812D01*
X113943396Y-84961088D01*
X113488912Y-84506604D01*
X113642188Y-84476116D01*
X113932281Y-84282281D01*
X114069446Y-84077000D01*
X118222701Y-84077000D01*
X118222701Y-84260334D01*
X118222701Y-84260334D01*
G37*
X118222701Y-84260334D02*
X118200000Y-84255819D01*
X117000000Y-84255819D01*
X116657812Y-84323884D01*
X116500000Y-84429331D01*
X116342188Y-84323884D01*
X116000000Y-84255819D01*
X114800000Y-84255819D01*
X114457812Y-84323884D01*
X114167719Y-84517719D01*
X113973884Y-84807812D01*
X113943396Y-84961088D01*
X113488912Y-84506604D01*
X113642188Y-84476116D01*
X113932281Y-84282281D01*
X114069446Y-84077000D01*
X118222701Y-84077000D01*
X118222701Y-84260334D01*
G36*
X92073400Y-84255819D02*
X91550000Y-84255819D01*
X91207812Y-84323884D01*
X90917719Y-84517719D01*
X90723884Y-84807812D01*
X90695022Y-84952914D01*
X90247086Y-84504978D01*
X90392188Y-84476116D01*
X90682281Y-84282281D01*
X90819446Y-84077000D01*
X92073400Y-84077000D01*
X92073400Y-84255819D01*
X92073400Y-84255819D01*
G37*
X92073400Y-84255819D02*
X91550000Y-84255819D01*
X91207812Y-84323884D01*
X90917719Y-84517719D01*
X90723884Y-84807812D01*
X90695022Y-84952914D01*
X90247086Y-84504978D01*
X90392188Y-84476116D01*
X90682281Y-84282281D01*
X90819446Y-84077000D01*
X92073400Y-84077000D01*
X92073400Y-84255819D01*
G36*
X70397700Y-83446097D02*
X70397700Y-83728893D01*
X70213450Y-83913143D01*
X70123528Y-83973227D01*
X70063444Y-84063149D01*
X70063442Y-84063151D01*
X69889226Y-84323884D01*
X69885490Y-84329476D01*
X69875687Y-84378759D01*
X69667719Y-84517719D01*
X69565463Y-84670755D01*
X69279245Y-84384537D01*
X69432281Y-84282281D01*
X69626116Y-83992188D01*
X69694181Y-83650000D01*
X69694181Y-82742552D01*
X70397700Y-83446097D01*
X70397700Y-83446097D01*
G37*
X70397700Y-83446097D02*
X70397700Y-83728893D01*
X70213450Y-83913143D01*
X70123528Y-83973227D01*
X70063444Y-84063149D01*
X70063442Y-84063151D01*
X69889226Y-84323884D01*
X69885490Y-84329476D01*
X69875687Y-84378759D01*
X69667719Y-84517719D01*
X69565463Y-84670755D01*
X69279245Y-84384537D01*
X69432281Y-84282281D01*
X69626116Y-83992188D01*
X69694181Y-83650000D01*
X69694181Y-82742552D01*
X70397700Y-83446097D01*
G36*
X74305819Y-82973300D02*
X74075107Y-82973300D01*
X74305819Y-82742588D01*
X74305819Y-82973300D01*
X74305819Y-82973300D01*
G37*
X74305819Y-82973300D02*
X74075107Y-82973300D01*
X74305819Y-82742588D01*
X74305819Y-82973300D01*
G36*
X118805819Y-79150000D02*
X118873884Y-79492188D01*
X119067719Y-79782281D01*
X119357812Y-79976116D01*
X119480538Y-80000527D01*
X119638442Y-80236849D01*
X119638443Y-80236850D01*
X119698528Y-80326773D01*
X119788450Y-80386857D01*
X120857412Y-81455819D01*
X119700000Y-81455819D01*
X119357812Y-81523884D01*
X119067719Y-81717719D01*
X118930554Y-81923000D01*
X114069446Y-81923000D01*
X113932281Y-81717719D01*
X113642188Y-81523884D01*
X113300000Y-81455819D01*
X112426600Y-81455819D01*
X112426600Y-81171807D01*
X113211551Y-80386857D01*
X113301473Y-80326773D01*
X113361558Y-80236850D01*
X113519464Y-80000527D01*
X113642188Y-79976116D01*
X113932281Y-79782281D01*
X114109771Y-79516650D01*
X114120524Y-79514511D01*
X114476773Y-79276473D01*
X114536859Y-79186548D01*
X114671607Y-79051800D01*
X118805819Y-79051800D01*
X118805819Y-79150000D01*
X118805819Y-79150000D01*
G37*
X118805819Y-79150000D02*
X118873884Y-79492188D01*
X119067719Y-79782281D01*
X119357812Y-79976116D01*
X119480538Y-80000527D01*
X119638442Y-80236849D01*
X119638443Y-80236850D01*
X119698528Y-80326773D01*
X119788450Y-80386857D01*
X120857412Y-81455819D01*
X119700000Y-81455819D01*
X119357812Y-81523884D01*
X119067719Y-81717719D01*
X118930554Y-81923000D01*
X114069446Y-81923000D01*
X113932281Y-81717719D01*
X113642188Y-81523884D01*
X113300000Y-81455819D01*
X112426600Y-81455819D01*
X112426600Y-81171807D01*
X113211551Y-80386857D01*
X113301473Y-80326773D01*
X113361558Y-80236850D01*
X113519464Y-80000527D01*
X113642188Y-79976116D01*
X113932281Y-79782281D01*
X114109771Y-79516650D01*
X114120524Y-79514511D01*
X114476773Y-79276473D01*
X114536859Y-79186548D01*
X114671607Y-79051800D01*
X118805819Y-79051800D01*
X118805819Y-79150000D01*
G36*
X96381862Y-80227000D02*
X96448528Y-80326773D01*
X96538450Y-80386857D01*
X97025841Y-80874248D01*
X97085927Y-80964173D01*
X97175851Y-81024258D01*
X97378845Y-81159895D01*
X97489238Y-81270288D01*
X97937148Y-81455819D01*
X96450000Y-81455819D01*
X96107812Y-81523884D01*
X95817719Y-81717719D01*
X95680554Y-81923000D01*
X93256471Y-81923000D01*
X93150400Y-81901901D01*
X93044328Y-81923000D01*
X90819446Y-81923000D01*
X90682281Y-81717719D01*
X90392188Y-81523884D01*
X90050000Y-81455819D01*
X89176600Y-81455819D01*
X89176600Y-81171807D01*
X89961551Y-80386857D01*
X90051473Y-80326773D01*
X90111556Y-80236852D01*
X90111558Y-80236850D01*
X90201595Y-80102100D01*
X96298406Y-80102100D01*
X96381862Y-80227000D01*
X96381862Y-80227000D01*
G37*
X96381862Y-80227000D02*
X96448528Y-80326773D01*
X96538450Y-80386857D01*
X97025841Y-80874248D01*
X97085927Y-80964173D01*
X97175851Y-81024258D01*
X97378845Y-81159895D01*
X97489238Y-81270288D01*
X97937148Y-81455819D01*
X96450000Y-81455819D01*
X96107812Y-81523884D01*
X95817719Y-81717719D01*
X95680554Y-81923000D01*
X93256471Y-81923000D01*
X93150400Y-81901901D01*
X93044328Y-81923000D01*
X90819446Y-81923000D01*
X90682281Y-81717719D01*
X90392188Y-81523884D01*
X90050000Y-81455819D01*
X89176600Y-81455819D01*
X89176600Y-81171807D01*
X89961551Y-80386857D01*
X90051473Y-80326773D01*
X90111556Y-80236852D01*
X90111558Y-80236850D01*
X90201595Y-80102100D01*
X96298406Y-80102100D01*
X96381862Y-80227000D01*
G36*
X234873000Y-71779673D02*
X234465274Y-70778074D01*
X234455055Y-70756258D01*
X234445986Y-70733924D01*
X234423708Y-70689339D01*
X233697686Y-69326759D01*
X233685275Y-69306105D01*
X233673961Y-69284825D01*
X233647218Y-69242766D01*
X232784978Y-67962034D01*
X232770511Y-67942766D01*
X232757069Y-67922762D01*
X232726144Y-67883675D01*
X231736822Y-66698358D01*
X231720448Y-66680676D01*
X231705023Y-66662162D01*
X231670245Y-66626461D01*
X230564321Y-65549118D01*
X230546211Y-65533208D01*
X230528971Y-65516384D01*
X230490707Y-65484446D01*
X229279900Y-64526491D01*
X229260249Y-64512526D01*
X229241370Y-64497563D01*
X229200026Y-64469728D01*
X227897161Y-63641310D01*
X227876183Y-63629441D01*
X227855863Y-63616496D01*
X227811877Y-63593058D01*
X226430759Y-62902953D01*
X226408675Y-62893305D01*
X226387128Y-62882515D01*
X226340980Y-62863729D01*
X226340966Y-62863723D01*
X226340959Y-62863721D01*
X224896227Y-62319242D01*
X224873265Y-62311914D01*
X224850727Y-62303398D01*
X224802877Y-62289450D01*
X223309822Y-61896361D01*
X223286221Y-61891430D01*
X223262934Y-61885278D01*
X223213912Y-61876324D01*
X223213905Y-61876323D01*
X223213902Y-61876323D01*
X221688351Y-61638792D01*
X221664381Y-61636315D01*
X221640573Y-61632587D01*
X221590882Y-61628720D01*
X220117976Y-61552817D01*
X220093760Y-61548000D01*
X59906240Y-61548000D01*
X59900071Y-61549227D01*
X59594885Y-61553222D01*
X59589078Y-61553597D01*
X59583256Y-61553445D01*
X59533481Y-61556010D01*
X57994201Y-61675803D01*
X57970294Y-61678908D01*
X57946277Y-61680756D01*
X57897029Y-61688423D01*
X56378217Y-61965807D01*
X56354758Y-61971352D01*
X56331056Y-61975660D01*
X56282857Y-61988349D01*
X54800603Y-62420386D01*
X54777834Y-62428315D01*
X54754704Y-62435035D01*
X54708088Y-62452603D01*
X54708066Y-62452611D01*
X54708056Y-62452616D01*
X53278074Y-63034726D01*
X53256258Y-63044945D01*
X53233924Y-63054014D01*
X53189339Y-63076292D01*
X51826759Y-63802314D01*
X51806105Y-63814725D01*
X51784825Y-63826039D01*
X51742766Y-63852782D01*
X50462034Y-64715022D01*
X50442766Y-64729489D01*
X50422762Y-64742931D01*
X50383675Y-64773856D01*
X49198358Y-65763178D01*
X49180676Y-65779552D01*
X49162162Y-65794977D01*
X49126461Y-65829755D01*
X48049118Y-66935679D01*
X48033208Y-66953789D01*
X48016384Y-66971029D01*
X47984446Y-67009293D01*
X47026491Y-68220100D01*
X47012526Y-68239751D01*
X46997563Y-68258630D01*
X46969728Y-68299974D01*
X46141310Y-69602839D01*
X46129441Y-69623817D01*
X46116496Y-69644137D01*
X46093058Y-69688123D01*
X45402953Y-71069241D01*
X45393305Y-71091325D01*
X45382515Y-71112872D01*
X45363723Y-71159035D01*
X45127000Y-71787161D01*
X45127000Y-60127000D01*
X234873000Y-60127000D01*
X234873000Y-71779673D01*
X234873000Y-71779673D01*
G37*
X234873000Y-71779673D02*
X234465274Y-70778074D01*
X234455055Y-70756258D01*
X234445986Y-70733924D01*
X234423708Y-70689339D01*
X233697686Y-69326759D01*
X233685275Y-69306105D01*
X233673961Y-69284825D01*
X233647218Y-69242766D01*
X232784978Y-67962034D01*
X232770511Y-67942766D01*
X232757069Y-67922762D01*
X232726144Y-67883675D01*
X231736822Y-66698358D01*
X231720448Y-66680676D01*
X231705023Y-66662162D01*
X231670245Y-66626461D01*
X230564321Y-65549118D01*
X230546211Y-65533208D01*
X230528971Y-65516384D01*
X230490707Y-65484446D01*
X229279900Y-64526491D01*
X229260249Y-64512526D01*
X229241370Y-64497563D01*
X229200026Y-64469728D01*
X227897161Y-63641310D01*
X227876183Y-63629441D01*
X227855863Y-63616496D01*
X227811877Y-63593058D01*
X226430759Y-62902953D01*
X226408675Y-62893305D01*
X226387128Y-62882515D01*
X226340980Y-62863729D01*
X226340966Y-62863723D01*
X226340959Y-62863721D01*
X224896227Y-62319242D01*
X224873265Y-62311914D01*
X224850727Y-62303398D01*
X224802877Y-62289450D01*
X223309822Y-61896361D01*
X223286221Y-61891430D01*
X223262934Y-61885278D01*
X223213912Y-61876324D01*
X223213905Y-61876323D01*
X223213902Y-61876323D01*
X221688351Y-61638792D01*
X221664381Y-61636315D01*
X221640573Y-61632587D01*
X221590882Y-61628720D01*
X220117976Y-61552817D01*
X220093760Y-61548000D01*
X59906240Y-61548000D01*
X59900071Y-61549227D01*
X59594885Y-61553222D01*
X59589078Y-61553597D01*
X59583256Y-61553445D01*
X59533481Y-61556010D01*
X57994201Y-61675803D01*
X57970294Y-61678908D01*
X57946277Y-61680756D01*
X57897029Y-61688423D01*
X56378217Y-61965807D01*
X56354758Y-61971352D01*
X56331056Y-61975660D01*
X56282857Y-61988349D01*
X54800603Y-62420386D01*
X54777834Y-62428315D01*
X54754704Y-62435035D01*
X54708088Y-62452603D01*
X54708066Y-62452611D01*
X54708056Y-62452616D01*
X53278074Y-63034726D01*
X53256258Y-63044945D01*
X53233924Y-63054014D01*
X53189339Y-63076292D01*
X51826759Y-63802314D01*
X51806105Y-63814725D01*
X51784825Y-63826039D01*
X51742766Y-63852782D01*
X50462034Y-64715022D01*
X50442766Y-64729489D01*
X50422762Y-64742931D01*
X50383675Y-64773856D01*
X49198358Y-65763178D01*
X49180676Y-65779552D01*
X49162162Y-65794977D01*
X49126461Y-65829755D01*
X48049118Y-66935679D01*
X48033208Y-66953789D01*
X48016384Y-66971029D01*
X47984446Y-67009293D01*
X47026491Y-68220100D01*
X47012526Y-68239751D01*
X46997563Y-68258630D01*
X46969728Y-68299974D01*
X46141310Y-69602839D01*
X46129441Y-69623817D01*
X46116496Y-69644137D01*
X46093058Y-69688123D01*
X45402953Y-71069241D01*
X45393305Y-71091325D01*
X45382515Y-71112872D01*
X45363723Y-71159035D01*
X45127000Y-71787161D01*
X45127000Y-60127000D01*
X234873000Y-60127000D01*
X234873000Y-71779673D01*
G36*
X127431123Y-69758169D02*
X127025247Y-70164045D01*
X127175000Y-69802511D01*
X127175000Y-69794607D01*
X127299432Y-69670176D01*
X127431123Y-69758169D01*
X127431123Y-69758169D01*
G37*
X127431123Y-69758169D02*
X127025247Y-70164045D01*
X127175000Y-69802511D01*
X127175000Y-69794607D01*
X127299432Y-69670176D01*
X127431123Y-69758169D01*
M02*
