M48
;DRILL file {KiCad (5.0.0)} date 11/19/20 16:59:31
;FORMAT={-:-/ absolute / metric / decimal}
FMAT,2
METRIC,TZ
T1C0.400
T2C0.650
T3C0.700
T4C1.200
T5C3.000
%
G90
G05
M71
T1
X45.628Y-122.299
X51.75Y-126.805
X52.053Y-116.851
X52.809Y-101.759
X53.287Y-86.754
X54.214Y-127.564
X54.603Y-91.733
X55.894Y-88.583
X59.Y-118.916
X59.217Y-99.812
X59.408Y-108.434
X60.675Y-115.323
X60.743Y-112.463
X60.8Y-117.45
X61.554Y-111.487
X61.695Y-103.75
X62.702Y-127.429
X64.475Y-128.463
X66.11Y-124.134
X67.59Y-120.55
X69.75Y-71.6
X69.811Y-105.7
X70.814Y-111.244
X71.662Y-112.506
X73.634Y-104.556
X75.302Y-134.295
X78.484Y-108.71
X79.25Y-69.922
X79.265Y-71.85
X79.689Y-100.802
X82.079Y-105.09
X82.795Y-110.075
X82.823Y-128.463
X83.43Y-104.037
X86.137Y-127.429
X87.493Y-126.178
X87.735Y-122.419
X88.229Y-125.318
X89.837Y-98.7
X89.904Y-88.345
X95.121Y-130.906
X98.213Y-80.188
X98.438Y-75.578
X99.112Y-120.25
X102.433Y-138.889
X106.867Y-102.65
X110.764Y-104.385
X114.Y-69.638
X123.5Y-104.85
X123.688Y-101.638
X125.898Y-69.548
X125.957Y-131.143
X126.656Y-71.85
X130.5Y-88.583
X139.364Y-108.795
X140.105Y-96.8
X148.55Y-112.91
X149.75Y-88.35
X150.95Y-127.581
X152.585Y-76.65
X152.797Y-95.65
X155.598Y-68.565
X156.75Y-104.775
X156.75Y-138.062
X159.156Y-102.65
X166.25Y-102.65
X175.277Y-103.798
X193.494Y-80.504
X193.952Y-121.35
X193.975Y-97.85
X195.2Y-127.588
X195.334Y-87.205
X196.174Y-85.197
X196.42Y-109.65
X198.85Y-134.712
X201.Y-102.44
X208.141Y-104.85
X213.404Y-72.476
X220.Y-102.44
X220.538Y-68.598
X224.637Y-121.35
X228.316Y-127.537
T2
X60.Y-94.
X60.Y-95.27
X61.27Y-94.
X61.27Y-95.27
X62.54Y-94.
X62.54Y-95.27
X63.81Y-94.
X63.81Y-95.27
X65.08Y-94.
X65.08Y-95.27
T4
X92.618Y-140.882
X106.407Y-127.093
T5
X52.Y-138.
X228.Y-69.5
X52.Y-69.5
X228.Y-138.
T3
X46.75Y-123.275G85X47.25Y-123.275
G05
X46.75Y-128.725G85X47.25Y-128.725
G05
X49.855Y-123.1G85X50.205Y-123.1
G05
X49.855Y-128.9G85X50.205Y-128.9
G05
T0
M30
