G04 #@! TF.GenerationSoftware,KiCad,Pcbnew,(5.0.0)*
G04 #@! TF.CreationDate,2020-11-19T16:59:29-05:00*
G04 #@! TF.ProjectId,WS2812B Mini Clock,57533238313242204D696E6920436C6F,rev?*
G04 #@! TF.SameCoordinates,Original*
G04 #@! TF.FileFunction,Legend,Top*
G04 #@! TF.FilePolarity,Positive*
%FSLAX46Y46*%
G04 Gerber Fmt 4.6, Leading zero omitted, Abs format (unit mm)*
G04 Created by KiCad (PCBNEW (5.0.0)) date 11/19/20 16:59:29*
%MOMM*%
%LPD*%
G01*
G04 APERTURE LIST*
%ADD10C,0.300000*%
%ADD11C,0.100000*%
%ADD12C,0.200000*%
G04 APERTURE END LIST*
D10*
X134178571Y-108000000D02*
X135250000Y-108000000D01*
X135464285Y-108071428D01*
X135607142Y-108214285D01*
X135678571Y-108428571D01*
X135678571Y-108571428D01*
X135678571Y-106571428D02*
X135678571Y-107285714D01*
X134178571Y-107285714D01*
X135535714Y-105214285D02*
X135607142Y-105285714D01*
X135678571Y-105500000D01*
X135678571Y-105642857D01*
X135607142Y-105857142D01*
X135464285Y-106000000D01*
X135321428Y-106071428D01*
X135035714Y-106142857D01*
X134821428Y-106142857D01*
X134535714Y-106071428D01*
X134392857Y-106000000D01*
X134250000Y-105857142D01*
X134178571Y-105642857D01*
X134178571Y-105500000D01*
X134250000Y-105285714D01*
X134321428Y-105214285D01*
X134178571Y-104142857D02*
X135250000Y-104142857D01*
X135464285Y-104214285D01*
X135607142Y-104357142D01*
X135678571Y-104571428D01*
X135678571Y-104714285D01*
X135678571Y-102714285D02*
X135678571Y-103428571D01*
X134178571Y-103428571D01*
X135535714Y-101357142D02*
X135607142Y-101428571D01*
X135678571Y-101642857D01*
X135678571Y-101785714D01*
X135607142Y-102000000D01*
X135464285Y-102142857D01*
X135321428Y-102214285D01*
X135035714Y-102285714D01*
X134821428Y-102285714D01*
X134535714Y-102214285D01*
X134392857Y-102142857D01*
X134250000Y-102000000D01*
X134178571Y-101785714D01*
X134178571Y-101642857D01*
X134250000Y-101428571D01*
X134321428Y-101357142D01*
X134178571Y-100285714D02*
X135250000Y-100285714D01*
X135464285Y-100357142D01*
X135607142Y-100500000D01*
X135678571Y-100714285D01*
X135678571Y-100857142D01*
X135678571Y-98857142D02*
X135678571Y-99571428D01*
X134178571Y-99571428D01*
X135535714Y-97500000D02*
X135607142Y-97571428D01*
X135678571Y-97785714D01*
X135678571Y-97928571D01*
X135607142Y-98142857D01*
X135464285Y-98285714D01*
X135321428Y-98357142D01*
X135035714Y-98428571D01*
X134821428Y-98428571D01*
X134535714Y-98357142D01*
X134392857Y-98285714D01*
X134250000Y-98142857D01*
X134178571Y-97928571D01*
X134178571Y-97785714D01*
X134250000Y-97571428D01*
X134321428Y-97500000D01*
D11*
G04 #@! TO.C,U71*
X194000000Y-87350000D02*
X194000000Y-87150000D01*
X193900000Y-87250000D02*
X194100000Y-87250000D01*
X195700000Y-86750000D02*
X195800000Y-86750000D01*
X195700000Y-87750000D02*
X195700000Y-86750000D01*
X192300000Y-87750000D02*
X192200000Y-87750000D01*
X192300000Y-86750000D02*
X192200000Y-86750000D01*
X192300000Y-87750000D02*
X192300000Y-86750000D01*
D12*
X194500000Y-87750000D02*
X194600000Y-87750000D01*
X194500000Y-87850000D02*
X194500000Y-87750000D01*
X194600000Y-87750000D02*
X195800000Y-87750000D01*
X194500000Y-89050000D02*
X194500000Y-87850000D01*
D11*
X192200000Y-85450000D02*
X194000000Y-85450000D01*
X192200000Y-89050000D02*
X192200000Y-85450000D01*
X195500000Y-89050000D02*
X192200000Y-89050000D01*
X195800000Y-88750000D02*
X195500000Y-89050000D01*
X195800000Y-85450000D02*
X195800000Y-88750000D01*
X194200000Y-85450000D02*
X195800000Y-85450000D01*
X194000000Y-85450000D02*
X194200000Y-85450000D01*
G04 #@! TO.C,U54*
X149750000Y-87350000D02*
X149750000Y-87150000D01*
X149650000Y-87250000D02*
X149850000Y-87250000D01*
X151450000Y-86750000D02*
X151550000Y-86750000D01*
X151450000Y-87750000D02*
X151450000Y-86750000D01*
X148050000Y-87750000D02*
X147950000Y-87750000D01*
X148050000Y-86750000D02*
X147950000Y-86750000D01*
X148050000Y-87750000D02*
X148050000Y-86750000D01*
D12*
X150250000Y-87750000D02*
X150350000Y-87750000D01*
X150250000Y-87850000D02*
X150250000Y-87750000D01*
X150350000Y-87750000D02*
X151550000Y-87750000D01*
X150250000Y-89050000D02*
X150250000Y-87850000D01*
D11*
X147950000Y-85450000D02*
X149750000Y-85450000D01*
X147950000Y-89050000D02*
X147950000Y-85450000D01*
X151250000Y-89050000D02*
X147950000Y-89050000D01*
X151550000Y-88750000D02*
X151250000Y-89050000D01*
X151550000Y-85450000D02*
X151550000Y-88750000D01*
X149950000Y-85450000D02*
X151550000Y-85450000D01*
X149750000Y-85450000D02*
X149950000Y-85450000D01*
G04 #@! TO.C,U58*
X149750000Y-110850000D02*
X149750000Y-110650000D01*
X149650000Y-110750000D02*
X149850000Y-110750000D01*
X151450000Y-110250000D02*
X151550000Y-110250000D01*
X151450000Y-111250000D02*
X151450000Y-110250000D01*
X148050000Y-111250000D02*
X147950000Y-111250000D01*
X148050000Y-110250000D02*
X147950000Y-110250000D01*
X148050000Y-111250000D02*
X148050000Y-110250000D01*
D12*
X150250000Y-111250000D02*
X150350000Y-111250000D01*
X150250000Y-111350000D02*
X150250000Y-111250000D01*
X150350000Y-111250000D02*
X151550000Y-111250000D01*
X150250000Y-112550000D02*
X150250000Y-111350000D01*
D11*
X147950000Y-108950000D02*
X149750000Y-108950000D01*
X147950000Y-112550000D02*
X147950000Y-108950000D01*
X151250000Y-112550000D02*
X147950000Y-112550000D01*
X151550000Y-112250000D02*
X151250000Y-112550000D01*
X151550000Y-108950000D02*
X151550000Y-112250000D01*
X149950000Y-108950000D02*
X151550000Y-108950000D01*
X149750000Y-108950000D02*
X149950000Y-108950000D01*
G04 #@! TO.C,U49*
X149750000Y-96850000D02*
X149750000Y-96650000D01*
X149650000Y-96750000D02*
X149850000Y-96750000D01*
X151450000Y-96250000D02*
X151550000Y-96250000D01*
X151450000Y-97250000D02*
X151450000Y-96250000D01*
X148050000Y-97250000D02*
X147950000Y-97250000D01*
X148050000Y-96250000D02*
X147950000Y-96250000D01*
X148050000Y-97250000D02*
X148050000Y-96250000D01*
D12*
X150250000Y-97250000D02*
X150350000Y-97250000D01*
X150250000Y-97350000D02*
X150250000Y-97250000D01*
X150350000Y-97250000D02*
X151550000Y-97250000D01*
X150250000Y-98550000D02*
X150250000Y-97350000D01*
D11*
X147950000Y-94950000D02*
X149750000Y-94950000D01*
X147950000Y-98550000D02*
X147950000Y-94950000D01*
X151250000Y-98550000D02*
X147950000Y-98550000D01*
X151550000Y-98250000D02*
X151250000Y-98550000D01*
X151550000Y-94950000D02*
X151550000Y-98250000D01*
X149950000Y-94950000D02*
X151550000Y-94950000D01*
X149750000Y-94950000D02*
X149950000Y-94950000D01*
G04 #@! TO.C,U59*
X149750000Y-77850000D02*
X149750000Y-77650000D01*
X149650000Y-77750000D02*
X149850000Y-77750000D01*
X151450000Y-77250000D02*
X151550000Y-77250000D01*
X151450000Y-78250000D02*
X151450000Y-77250000D01*
X148050000Y-78250000D02*
X147950000Y-78250000D01*
X148050000Y-77250000D02*
X147950000Y-77250000D01*
X148050000Y-78250000D02*
X148050000Y-77250000D01*
D12*
X150250000Y-78250000D02*
X150350000Y-78250000D01*
X150250000Y-78350000D02*
X150250000Y-78250000D01*
X150350000Y-78250000D02*
X151550000Y-78250000D01*
X150250000Y-79550000D02*
X150250000Y-78350000D01*
D11*
X147950000Y-75950000D02*
X149750000Y-75950000D01*
X147950000Y-79550000D02*
X147950000Y-75950000D01*
X151250000Y-79550000D02*
X147950000Y-79550000D01*
X151550000Y-79250000D02*
X151250000Y-79550000D01*
X151550000Y-75950000D02*
X151550000Y-79250000D01*
X149950000Y-75950000D02*
X151550000Y-75950000D01*
X149750000Y-75950000D02*
X149950000Y-75950000D01*
G04 #@! TO.C,U53*
X149750000Y-120350000D02*
X149750000Y-120150000D01*
X149650000Y-120250000D02*
X149850000Y-120250000D01*
X151450000Y-119750000D02*
X151550000Y-119750000D01*
X151450000Y-120750000D02*
X151450000Y-119750000D01*
X148050000Y-120750000D02*
X147950000Y-120750000D01*
X148050000Y-119750000D02*
X147950000Y-119750000D01*
X148050000Y-120750000D02*
X148050000Y-119750000D01*
D12*
X150250000Y-120750000D02*
X150350000Y-120750000D01*
X150250000Y-120850000D02*
X150250000Y-120750000D01*
X150350000Y-120750000D02*
X151550000Y-120750000D01*
X150250000Y-122050000D02*
X150250000Y-120850000D01*
D11*
X147950000Y-118450000D02*
X149750000Y-118450000D01*
X147950000Y-122050000D02*
X147950000Y-118450000D01*
X151250000Y-122050000D02*
X147950000Y-122050000D01*
X151550000Y-121750000D02*
X151250000Y-122050000D01*
X151550000Y-118450000D02*
X151550000Y-121750000D01*
X149950000Y-118450000D02*
X151550000Y-118450000D01*
X149750000Y-118450000D02*
X149950000Y-118450000D01*
G04 #@! TO.C,U89*
X220000000Y-103850000D02*
X220000000Y-103650000D01*
X219900000Y-103750000D02*
X220100000Y-103750000D01*
X221700000Y-103250000D02*
X221800000Y-103250000D01*
X221700000Y-104250000D02*
X221700000Y-103250000D01*
X218300000Y-104250000D02*
X218200000Y-104250000D01*
X218300000Y-103250000D02*
X218200000Y-103250000D01*
X218300000Y-104250000D02*
X218300000Y-103250000D01*
D12*
X220500000Y-104250000D02*
X220600000Y-104250000D01*
X220500000Y-104350000D02*
X220500000Y-104250000D01*
X220600000Y-104250000D02*
X221800000Y-104250000D01*
X220500000Y-105550000D02*
X220500000Y-104350000D01*
D11*
X218200000Y-101950000D02*
X220000000Y-101950000D01*
X218200000Y-105550000D02*
X218200000Y-101950000D01*
X221500000Y-105550000D02*
X218200000Y-105550000D01*
X221800000Y-105250000D02*
X221500000Y-105550000D01*
X221800000Y-101950000D02*
X221800000Y-105250000D01*
X220200000Y-101950000D02*
X221800000Y-101950000D01*
X220000000Y-101950000D02*
X220200000Y-101950000D01*
G04 #@! TO.C,U80*
X220000000Y-136850000D02*
X220000000Y-136650000D01*
X219900000Y-136750000D02*
X220100000Y-136750000D01*
X221700000Y-136250000D02*
X221800000Y-136250000D01*
X221700000Y-137250000D02*
X221700000Y-136250000D01*
X218300000Y-137250000D02*
X218200000Y-137250000D01*
X218300000Y-136250000D02*
X218200000Y-136250000D01*
X218300000Y-137250000D02*
X218300000Y-136250000D01*
D12*
X220500000Y-137250000D02*
X220600000Y-137250000D01*
X220500000Y-137350000D02*
X220500000Y-137250000D01*
X220600000Y-137250000D02*
X221800000Y-137250000D01*
X220500000Y-138550000D02*
X220500000Y-137350000D01*
D11*
X218200000Y-134950000D02*
X220000000Y-134950000D01*
X218200000Y-138550000D02*
X218200000Y-134950000D01*
X221500000Y-138550000D02*
X218200000Y-138550000D01*
X221800000Y-138250000D02*
X221500000Y-138550000D01*
X221800000Y-134950000D02*
X221800000Y-138250000D01*
X220200000Y-134950000D02*
X221800000Y-134950000D01*
X220000000Y-134950000D02*
X220200000Y-134950000D01*
G04 #@! TO.C,U86*
X227000000Y-96850000D02*
X227000000Y-96650000D01*
X226900000Y-96750000D02*
X227100000Y-96750000D01*
X228700000Y-96250000D02*
X228800000Y-96250000D01*
X228700000Y-97250000D02*
X228700000Y-96250000D01*
X225300000Y-97250000D02*
X225200000Y-97250000D01*
X225300000Y-96250000D02*
X225200000Y-96250000D01*
X225300000Y-97250000D02*
X225300000Y-96250000D01*
D12*
X227500000Y-97250000D02*
X227600000Y-97250000D01*
X227500000Y-97350000D02*
X227500000Y-97250000D01*
X227600000Y-97250000D02*
X228800000Y-97250000D01*
X227500000Y-98550000D02*
X227500000Y-97350000D01*
D11*
X225200000Y-94950000D02*
X227000000Y-94950000D01*
X225200000Y-98550000D02*
X225200000Y-94950000D01*
X228500000Y-98550000D02*
X225200000Y-98550000D01*
X228800000Y-98250000D02*
X228500000Y-98550000D01*
X228800000Y-94950000D02*
X228800000Y-98250000D01*
X227200000Y-94950000D02*
X228800000Y-94950000D01*
X227000000Y-94950000D02*
X227200000Y-94950000D01*
G04 #@! TO.C,U67*
X201000000Y-70850000D02*
X201000000Y-70650000D01*
X200900000Y-70750000D02*
X201100000Y-70750000D01*
X202700000Y-70250000D02*
X202800000Y-70250000D01*
X202700000Y-71250000D02*
X202700000Y-70250000D01*
X199300000Y-71250000D02*
X199200000Y-71250000D01*
X199300000Y-70250000D02*
X199200000Y-70250000D01*
X199300000Y-71250000D02*
X199300000Y-70250000D01*
D12*
X201500000Y-71250000D02*
X201600000Y-71250000D01*
X201500000Y-71350000D02*
X201500000Y-71250000D01*
X201600000Y-71250000D02*
X202800000Y-71250000D01*
X201500000Y-72550000D02*
X201500000Y-71350000D01*
D11*
X199200000Y-68950000D02*
X201000000Y-68950000D01*
X199200000Y-72550000D02*
X199200000Y-68950000D01*
X202500000Y-72550000D02*
X199200000Y-72550000D01*
X202800000Y-72250000D02*
X202500000Y-72550000D01*
X202800000Y-68950000D02*
X202800000Y-72250000D01*
X201200000Y-68950000D02*
X202800000Y-68950000D01*
X201000000Y-68950000D02*
X201200000Y-68950000D01*
G04 #@! TO.C,U82*
X227000000Y-87350000D02*
X227000000Y-87150000D01*
X226900000Y-87250000D02*
X227100000Y-87250000D01*
X228700000Y-86750000D02*
X228800000Y-86750000D01*
X228700000Y-87750000D02*
X228700000Y-86750000D01*
X225300000Y-87750000D02*
X225200000Y-87750000D01*
X225300000Y-86750000D02*
X225200000Y-86750000D01*
X225300000Y-87750000D02*
X225300000Y-86750000D01*
D12*
X227500000Y-87750000D02*
X227600000Y-87750000D01*
X227500000Y-87850000D02*
X227500000Y-87750000D01*
X227600000Y-87750000D02*
X228800000Y-87750000D01*
X227500000Y-89050000D02*
X227500000Y-87850000D01*
D11*
X225200000Y-85450000D02*
X227000000Y-85450000D01*
X225200000Y-89050000D02*
X225200000Y-85450000D01*
X228500000Y-89050000D02*
X225200000Y-89050000D01*
X228800000Y-88750000D02*
X228500000Y-89050000D01*
X228800000Y-85450000D02*
X228800000Y-88750000D01*
X227200000Y-85450000D02*
X228800000Y-85450000D01*
X227000000Y-85450000D02*
X227200000Y-85450000D01*
G04 #@! TO.C,U72*
X210500000Y-70850000D02*
X210500000Y-70650000D01*
X210400000Y-70750000D02*
X210600000Y-70750000D01*
X212200000Y-70250000D02*
X212300000Y-70250000D01*
X212200000Y-71250000D02*
X212200000Y-70250000D01*
X208800000Y-71250000D02*
X208700000Y-71250000D01*
X208800000Y-70250000D02*
X208700000Y-70250000D01*
X208800000Y-71250000D02*
X208800000Y-70250000D01*
D12*
X211000000Y-71250000D02*
X211100000Y-71250000D01*
X211000000Y-71350000D02*
X211000000Y-71250000D01*
X211100000Y-71250000D02*
X212300000Y-71250000D01*
X211000000Y-72550000D02*
X211000000Y-71350000D01*
D11*
X208700000Y-68950000D02*
X210500000Y-68950000D01*
X208700000Y-72550000D02*
X208700000Y-68950000D01*
X212000000Y-72550000D02*
X208700000Y-72550000D01*
X212300000Y-72250000D02*
X212000000Y-72550000D01*
X212300000Y-68950000D02*
X212300000Y-72250000D01*
X210700000Y-68950000D02*
X212300000Y-68950000D01*
X210500000Y-68950000D02*
X210700000Y-68950000D01*
G04 #@! TO.C,U87*
X227000000Y-129850000D02*
X227000000Y-129650000D01*
X226900000Y-129750000D02*
X227100000Y-129750000D01*
X228700000Y-129250000D02*
X228800000Y-129250000D01*
X228700000Y-130250000D02*
X228700000Y-129250000D01*
X225300000Y-130250000D02*
X225200000Y-130250000D01*
X225300000Y-129250000D02*
X225200000Y-129250000D01*
X225300000Y-130250000D02*
X225300000Y-129250000D01*
D12*
X227500000Y-130250000D02*
X227600000Y-130250000D01*
X227500000Y-130350000D02*
X227500000Y-130250000D01*
X227600000Y-130250000D02*
X228800000Y-130250000D01*
X227500000Y-131550000D02*
X227500000Y-130350000D01*
D11*
X225200000Y-127950000D02*
X227000000Y-127950000D01*
X225200000Y-131550000D02*
X225200000Y-127950000D01*
X228500000Y-131550000D02*
X225200000Y-131550000D01*
X228800000Y-131250000D02*
X228500000Y-131550000D01*
X228800000Y-127950000D02*
X228800000Y-131250000D01*
X227200000Y-127950000D02*
X228800000Y-127950000D01*
X227000000Y-127950000D02*
X227200000Y-127950000D01*
G04 #@! TO.C,U83*
X227000000Y-120350000D02*
X227000000Y-120150000D01*
X226900000Y-120250000D02*
X227100000Y-120250000D01*
X228700000Y-119750000D02*
X228800000Y-119750000D01*
X228700000Y-120750000D02*
X228700000Y-119750000D01*
X225300000Y-120750000D02*
X225200000Y-120750000D01*
X225300000Y-119750000D02*
X225200000Y-119750000D01*
X225300000Y-120750000D02*
X225300000Y-119750000D01*
D12*
X227500000Y-120750000D02*
X227600000Y-120750000D01*
X227500000Y-120850000D02*
X227500000Y-120750000D01*
X227600000Y-120750000D02*
X228800000Y-120750000D01*
X227500000Y-122050000D02*
X227500000Y-120850000D01*
D11*
X225200000Y-118450000D02*
X227000000Y-118450000D01*
X225200000Y-122050000D02*
X225200000Y-118450000D01*
X228500000Y-122050000D02*
X225200000Y-122050000D01*
X228800000Y-121750000D02*
X228500000Y-122050000D01*
X228800000Y-118450000D02*
X228800000Y-121750000D01*
X227200000Y-118450000D02*
X228800000Y-118450000D01*
X227000000Y-118450000D02*
X227200000Y-118450000D01*
G04 #@! TO.C,U79*
X227000000Y-110850000D02*
X227000000Y-110650000D01*
X226900000Y-110750000D02*
X227100000Y-110750000D01*
X228700000Y-110250000D02*
X228800000Y-110250000D01*
X228700000Y-111250000D02*
X228700000Y-110250000D01*
X225300000Y-111250000D02*
X225200000Y-111250000D01*
X225300000Y-110250000D02*
X225200000Y-110250000D01*
X225300000Y-111250000D02*
X225300000Y-110250000D01*
D12*
X227500000Y-111250000D02*
X227600000Y-111250000D01*
X227500000Y-111350000D02*
X227500000Y-111250000D01*
X227600000Y-111250000D02*
X228800000Y-111250000D01*
X227500000Y-112550000D02*
X227500000Y-111350000D01*
D11*
X225200000Y-108950000D02*
X227000000Y-108950000D01*
X225200000Y-112550000D02*
X225200000Y-108950000D01*
X228500000Y-112550000D02*
X225200000Y-112550000D01*
X228800000Y-112250000D02*
X228500000Y-112550000D01*
X228800000Y-108950000D02*
X228800000Y-112250000D01*
X227200000Y-108950000D02*
X228800000Y-108950000D01*
X227000000Y-108950000D02*
X227200000Y-108950000D01*
G04 #@! TO.C,U66*
X194000000Y-96850000D02*
X194000000Y-96650000D01*
X193900000Y-96750000D02*
X194100000Y-96750000D01*
X195700000Y-96250000D02*
X195800000Y-96250000D01*
X195700000Y-97250000D02*
X195700000Y-96250000D01*
X192300000Y-97250000D02*
X192200000Y-97250000D01*
X192300000Y-96250000D02*
X192200000Y-96250000D01*
X192300000Y-97250000D02*
X192300000Y-96250000D01*
D12*
X194500000Y-97250000D02*
X194600000Y-97250000D01*
X194500000Y-97350000D02*
X194500000Y-97250000D01*
X194600000Y-97250000D02*
X195800000Y-97250000D01*
X194500000Y-98550000D02*
X194500000Y-97350000D01*
D11*
X192200000Y-94950000D02*
X194000000Y-94950000D01*
X192200000Y-98550000D02*
X192200000Y-94950000D01*
X195500000Y-98550000D02*
X192200000Y-98550000D01*
X195800000Y-98250000D02*
X195500000Y-98550000D01*
X195800000Y-94950000D02*
X195800000Y-98250000D01*
X194200000Y-94950000D02*
X195800000Y-94950000D01*
X194000000Y-94950000D02*
X194200000Y-94950000D01*
G04 #@! TO.C,U76*
X194000000Y-77850000D02*
X194000000Y-77650000D01*
X193900000Y-77750000D02*
X194100000Y-77750000D01*
X195700000Y-77250000D02*
X195800000Y-77250000D01*
X195700000Y-78250000D02*
X195700000Y-77250000D01*
X192300000Y-78250000D02*
X192200000Y-78250000D01*
X192300000Y-77250000D02*
X192200000Y-77250000D01*
X192300000Y-78250000D02*
X192300000Y-77250000D01*
D12*
X194500000Y-78250000D02*
X194600000Y-78250000D01*
X194500000Y-78350000D02*
X194500000Y-78250000D01*
X194600000Y-78250000D02*
X195800000Y-78250000D01*
X194500000Y-79550000D02*
X194500000Y-78350000D01*
D11*
X192200000Y-75950000D02*
X194000000Y-75950000D01*
X192200000Y-79550000D02*
X192200000Y-75950000D01*
X195500000Y-79550000D02*
X192200000Y-79550000D01*
X195800000Y-79250000D02*
X195500000Y-79550000D01*
X195800000Y-75950000D02*
X195800000Y-79250000D01*
X194200000Y-75950000D02*
X195800000Y-75950000D01*
X194000000Y-75950000D02*
X194200000Y-75950000D01*
G04 #@! TO.C,U85*
X210500000Y-103850000D02*
X210500000Y-103650000D01*
X210400000Y-103750000D02*
X210600000Y-103750000D01*
X212200000Y-103250000D02*
X212300000Y-103250000D01*
X212200000Y-104250000D02*
X212200000Y-103250000D01*
X208800000Y-104250000D02*
X208700000Y-104250000D01*
X208800000Y-103250000D02*
X208700000Y-103250000D01*
X208800000Y-104250000D02*
X208800000Y-103250000D01*
D12*
X211000000Y-104250000D02*
X211100000Y-104250000D01*
X211000000Y-104350000D02*
X211000000Y-104250000D01*
X211100000Y-104250000D02*
X212300000Y-104250000D01*
X211000000Y-105550000D02*
X211000000Y-104350000D01*
D11*
X208700000Y-101950000D02*
X210500000Y-101950000D01*
X208700000Y-105550000D02*
X208700000Y-101950000D01*
X212000000Y-105550000D02*
X208700000Y-105550000D01*
X212300000Y-105250000D02*
X212000000Y-105550000D01*
X212300000Y-101950000D02*
X212300000Y-105250000D01*
X210700000Y-101950000D02*
X212300000Y-101950000D01*
X210500000Y-101950000D02*
X210700000Y-101950000D01*
G04 #@! TO.C,U81*
X201000000Y-103850000D02*
X201000000Y-103650000D01*
X200900000Y-103750000D02*
X201100000Y-103750000D01*
X202700000Y-103250000D02*
X202800000Y-103250000D01*
X202700000Y-104250000D02*
X202700000Y-103250000D01*
X199300000Y-104250000D02*
X199200000Y-104250000D01*
X199300000Y-103250000D02*
X199200000Y-103250000D01*
X199300000Y-104250000D02*
X199300000Y-103250000D01*
D12*
X201500000Y-104250000D02*
X201600000Y-104250000D01*
X201500000Y-104350000D02*
X201500000Y-104250000D01*
X201600000Y-104250000D02*
X202800000Y-104250000D01*
X201500000Y-105550000D02*
X201500000Y-104350000D01*
D11*
X199200000Y-101950000D02*
X201000000Y-101950000D01*
X199200000Y-105550000D02*
X199200000Y-101950000D01*
X202500000Y-105550000D02*
X199200000Y-105550000D01*
X202800000Y-105250000D02*
X202500000Y-105550000D01*
X202800000Y-101950000D02*
X202800000Y-105250000D01*
X201200000Y-101950000D02*
X202800000Y-101950000D01*
X201000000Y-101950000D02*
X201200000Y-101950000D01*
G04 #@! TO.C,U88*
X201000000Y-136850000D02*
X201000000Y-136650000D01*
X200900000Y-136750000D02*
X201100000Y-136750000D01*
X202700000Y-136250000D02*
X202800000Y-136250000D01*
X202700000Y-137250000D02*
X202700000Y-136250000D01*
X199300000Y-137250000D02*
X199200000Y-137250000D01*
X199300000Y-136250000D02*
X199200000Y-136250000D01*
X199300000Y-137250000D02*
X199300000Y-136250000D01*
D12*
X201500000Y-137250000D02*
X201600000Y-137250000D01*
X201500000Y-137350000D02*
X201500000Y-137250000D01*
X201600000Y-137250000D02*
X202800000Y-137250000D01*
X201500000Y-138550000D02*
X201500000Y-137350000D01*
D11*
X199200000Y-134950000D02*
X201000000Y-134950000D01*
X199200000Y-138550000D02*
X199200000Y-134950000D01*
X202500000Y-138550000D02*
X199200000Y-138550000D01*
X202800000Y-138250000D02*
X202500000Y-138550000D01*
X202800000Y-134950000D02*
X202800000Y-138250000D01*
X201200000Y-134950000D02*
X202800000Y-134950000D01*
X201000000Y-134950000D02*
X201200000Y-134950000D01*
G04 #@! TO.C,U78*
X227000000Y-77850000D02*
X227000000Y-77650000D01*
X226900000Y-77750000D02*
X227100000Y-77750000D01*
X228700000Y-77250000D02*
X228800000Y-77250000D01*
X228700000Y-78250000D02*
X228700000Y-77250000D01*
X225300000Y-78250000D02*
X225200000Y-78250000D01*
X225300000Y-77250000D02*
X225200000Y-77250000D01*
X225300000Y-78250000D02*
X225300000Y-77250000D01*
D12*
X227500000Y-78250000D02*
X227600000Y-78250000D01*
X227500000Y-78350000D02*
X227500000Y-78250000D01*
X227600000Y-78250000D02*
X228800000Y-78250000D01*
X227500000Y-79550000D02*
X227500000Y-78350000D01*
D11*
X225200000Y-75950000D02*
X227000000Y-75950000D01*
X225200000Y-79550000D02*
X225200000Y-75950000D01*
X228500000Y-79550000D02*
X225200000Y-79550000D01*
X228800000Y-79250000D02*
X228500000Y-79550000D01*
X228800000Y-75950000D02*
X228800000Y-79250000D01*
X227200000Y-75950000D02*
X228800000Y-75950000D01*
X227000000Y-75950000D02*
X227200000Y-75950000D01*
G04 #@! TO.C,U75*
X194000000Y-110850000D02*
X194000000Y-110650000D01*
X193900000Y-110750000D02*
X194100000Y-110750000D01*
X195700000Y-110250000D02*
X195800000Y-110250000D01*
X195700000Y-111250000D02*
X195700000Y-110250000D01*
X192300000Y-111250000D02*
X192200000Y-111250000D01*
X192300000Y-110250000D02*
X192200000Y-110250000D01*
X192300000Y-111250000D02*
X192300000Y-110250000D01*
D12*
X194500000Y-111250000D02*
X194600000Y-111250000D01*
X194500000Y-111350000D02*
X194500000Y-111250000D01*
X194600000Y-111250000D02*
X195800000Y-111250000D01*
X194500000Y-112550000D02*
X194500000Y-111350000D01*
D11*
X192200000Y-108950000D02*
X194000000Y-108950000D01*
X192200000Y-112550000D02*
X192200000Y-108950000D01*
X195500000Y-112550000D02*
X192200000Y-112550000D01*
X195800000Y-112250000D02*
X195500000Y-112550000D01*
X195800000Y-108950000D02*
X195800000Y-112250000D01*
X194200000Y-108950000D02*
X195800000Y-108950000D01*
X194000000Y-108950000D02*
X194200000Y-108950000D01*
G04 #@! TO.C,U77*
X220000000Y-70850000D02*
X220000000Y-70650000D01*
X219900000Y-70750000D02*
X220100000Y-70750000D01*
X221700000Y-70250000D02*
X221800000Y-70250000D01*
X221700000Y-71250000D02*
X221700000Y-70250000D01*
X218300000Y-71250000D02*
X218200000Y-71250000D01*
X218300000Y-70250000D02*
X218200000Y-70250000D01*
X218300000Y-71250000D02*
X218300000Y-70250000D01*
D12*
X220500000Y-71250000D02*
X220600000Y-71250000D01*
X220500000Y-71350000D02*
X220500000Y-71250000D01*
X220600000Y-71250000D02*
X221800000Y-71250000D01*
X220500000Y-72550000D02*
X220500000Y-71350000D01*
D11*
X218200000Y-68950000D02*
X220000000Y-68950000D01*
X218200000Y-72550000D02*
X218200000Y-68950000D01*
X221500000Y-72550000D02*
X218200000Y-72550000D01*
X221800000Y-72250000D02*
X221500000Y-72550000D01*
X221800000Y-68950000D02*
X221800000Y-72250000D01*
X220200000Y-68950000D02*
X221800000Y-68950000D01*
X220000000Y-68950000D02*
X220200000Y-68950000D01*
G04 #@! TO.C,U84*
X210500000Y-136850000D02*
X210500000Y-136650000D01*
X210400000Y-136750000D02*
X210600000Y-136750000D01*
X212200000Y-136250000D02*
X212300000Y-136250000D01*
X212200000Y-137250000D02*
X212200000Y-136250000D01*
X208800000Y-137250000D02*
X208700000Y-137250000D01*
X208800000Y-136250000D02*
X208700000Y-136250000D01*
X208800000Y-137250000D02*
X208800000Y-136250000D01*
D12*
X211000000Y-137250000D02*
X211100000Y-137250000D01*
X211000000Y-137350000D02*
X211000000Y-137250000D01*
X211100000Y-137250000D02*
X212300000Y-137250000D01*
X211000000Y-138550000D02*
X211000000Y-137350000D01*
D11*
X208700000Y-134950000D02*
X210500000Y-134950000D01*
X208700000Y-138550000D02*
X208700000Y-134950000D01*
X212000000Y-138550000D02*
X208700000Y-138550000D01*
X212300000Y-138250000D02*
X212000000Y-138550000D01*
X212300000Y-134950000D02*
X212300000Y-138250000D01*
X210700000Y-134950000D02*
X212300000Y-134950000D01*
X210500000Y-134950000D02*
X210700000Y-134950000D01*
G04 #@! TO.C,U50*
X156750000Y-70850000D02*
X156750000Y-70650000D01*
X156650000Y-70750000D02*
X156850000Y-70750000D01*
X158450000Y-70250000D02*
X158550000Y-70250000D01*
X158450000Y-71250000D02*
X158450000Y-70250000D01*
X155050000Y-71250000D02*
X154950000Y-71250000D01*
X155050000Y-70250000D02*
X154950000Y-70250000D01*
X155050000Y-71250000D02*
X155050000Y-70250000D01*
D12*
X157250000Y-71250000D02*
X157350000Y-71250000D01*
X157250000Y-71350000D02*
X157250000Y-71250000D01*
X157350000Y-71250000D02*
X158550000Y-71250000D01*
X157250000Y-72550000D02*
X157250000Y-71350000D01*
D11*
X154950000Y-68950000D02*
X156750000Y-68950000D01*
X154950000Y-72550000D02*
X154950000Y-68950000D01*
X158250000Y-72550000D02*
X154950000Y-72550000D01*
X158550000Y-72250000D02*
X158250000Y-72550000D01*
X158550000Y-68950000D02*
X158550000Y-72250000D01*
X156950000Y-68950000D02*
X158550000Y-68950000D01*
X156750000Y-68950000D02*
X156950000Y-68950000D01*
G04 #@! TO.C,U73*
X156750000Y-136850000D02*
X156750000Y-136650000D01*
X156650000Y-136750000D02*
X156850000Y-136750000D01*
X158450000Y-136250000D02*
X158550000Y-136250000D01*
X158450000Y-137250000D02*
X158450000Y-136250000D01*
X155050000Y-137250000D02*
X154950000Y-137250000D01*
X155050000Y-136250000D02*
X154950000Y-136250000D01*
X155050000Y-137250000D02*
X155050000Y-136250000D01*
D12*
X157250000Y-137250000D02*
X157350000Y-137250000D01*
X157250000Y-137350000D02*
X157250000Y-137250000D01*
X157350000Y-137250000D02*
X158550000Y-137250000D01*
X157250000Y-138550000D02*
X157250000Y-137350000D01*
D11*
X154950000Y-134950000D02*
X156750000Y-134950000D01*
X154950000Y-138550000D02*
X154950000Y-134950000D01*
X158250000Y-138550000D02*
X154950000Y-138550000D01*
X158550000Y-138250000D02*
X158250000Y-138550000D01*
X158550000Y-134950000D02*
X158550000Y-138250000D01*
X156950000Y-134950000D02*
X158550000Y-134950000D01*
X156750000Y-134950000D02*
X156950000Y-134950000D01*
G04 #@! TO.C,U56*
X182750000Y-87350000D02*
X182750000Y-87150000D01*
X182650000Y-87250000D02*
X182850000Y-87250000D01*
X184450000Y-86750000D02*
X184550000Y-86750000D01*
X184450000Y-87750000D02*
X184450000Y-86750000D01*
X181050000Y-87750000D02*
X180950000Y-87750000D01*
X181050000Y-86750000D02*
X180950000Y-86750000D01*
X181050000Y-87750000D02*
X181050000Y-86750000D01*
D12*
X183250000Y-87750000D02*
X183350000Y-87750000D01*
X183250000Y-87850000D02*
X183250000Y-87750000D01*
X183350000Y-87750000D02*
X184550000Y-87750000D01*
X183250000Y-89050000D02*
X183250000Y-87850000D01*
D11*
X180950000Y-85450000D02*
X182750000Y-85450000D01*
X180950000Y-89050000D02*
X180950000Y-85450000D01*
X184250000Y-89050000D02*
X180950000Y-89050000D01*
X184550000Y-88750000D02*
X184250000Y-89050000D01*
X184550000Y-85450000D02*
X184550000Y-88750000D01*
X182950000Y-85450000D02*
X184550000Y-85450000D01*
X182750000Y-85450000D02*
X182950000Y-85450000D01*
G04 #@! TO.C,U65*
X194000000Y-129850000D02*
X194000000Y-129650000D01*
X193900000Y-129750000D02*
X194100000Y-129750000D01*
X195700000Y-129250000D02*
X195800000Y-129250000D01*
X195700000Y-130250000D02*
X195700000Y-129250000D01*
X192300000Y-130250000D02*
X192200000Y-130250000D01*
X192300000Y-129250000D02*
X192200000Y-129250000D01*
X192300000Y-130250000D02*
X192300000Y-129250000D01*
D12*
X194500000Y-130250000D02*
X194600000Y-130250000D01*
X194500000Y-130350000D02*
X194500000Y-130250000D01*
X194600000Y-130250000D02*
X195800000Y-130250000D01*
X194500000Y-131550000D02*
X194500000Y-130350000D01*
D11*
X192200000Y-127950000D02*
X194000000Y-127950000D01*
X192200000Y-131550000D02*
X192200000Y-127950000D01*
X195500000Y-131550000D02*
X192200000Y-131550000D01*
X195800000Y-131250000D02*
X195500000Y-131550000D01*
X195800000Y-127950000D02*
X195800000Y-131250000D01*
X194200000Y-127950000D02*
X195800000Y-127950000D01*
X194000000Y-127950000D02*
X194200000Y-127950000D01*
G04 #@! TO.C,U57*
X182750000Y-120350000D02*
X182750000Y-120150000D01*
X182650000Y-120250000D02*
X182850000Y-120250000D01*
X184450000Y-119750000D02*
X184550000Y-119750000D01*
X184450000Y-120750000D02*
X184450000Y-119750000D01*
X181050000Y-120750000D02*
X180950000Y-120750000D01*
X181050000Y-119750000D02*
X180950000Y-119750000D01*
X181050000Y-120750000D02*
X181050000Y-119750000D01*
D12*
X183250000Y-120750000D02*
X183350000Y-120750000D01*
X183250000Y-120850000D02*
X183250000Y-120750000D01*
X183350000Y-120750000D02*
X184550000Y-120750000D01*
X183250000Y-122050000D02*
X183250000Y-120850000D01*
D11*
X180950000Y-118450000D02*
X182750000Y-118450000D01*
X180950000Y-122050000D02*
X180950000Y-118450000D01*
X184250000Y-122050000D02*
X180950000Y-122050000D01*
X184550000Y-121750000D02*
X184250000Y-122050000D01*
X184550000Y-118450000D02*
X184550000Y-121750000D01*
X182950000Y-118450000D02*
X184550000Y-118450000D01*
X182750000Y-118450000D02*
X182950000Y-118450000D01*
G04 #@! TO.C,U55*
X166250000Y-70850000D02*
X166250000Y-70650000D01*
X166150000Y-70750000D02*
X166350000Y-70750000D01*
X167950000Y-70250000D02*
X168050000Y-70250000D01*
X167950000Y-71250000D02*
X167950000Y-70250000D01*
X164550000Y-71250000D02*
X164450000Y-71250000D01*
X164550000Y-70250000D02*
X164450000Y-70250000D01*
X164550000Y-71250000D02*
X164550000Y-70250000D01*
D12*
X166750000Y-71250000D02*
X166850000Y-71250000D01*
X166750000Y-71350000D02*
X166750000Y-71250000D01*
X166850000Y-71250000D02*
X168050000Y-71250000D01*
X166750000Y-72550000D02*
X166750000Y-71350000D01*
D11*
X164450000Y-68950000D02*
X166250000Y-68950000D01*
X164450000Y-72550000D02*
X164450000Y-68950000D01*
X167750000Y-72550000D02*
X164450000Y-72550000D01*
X168050000Y-72250000D02*
X167750000Y-72550000D01*
X168050000Y-68950000D02*
X168050000Y-72250000D01*
X166450000Y-68950000D02*
X168050000Y-68950000D01*
X166250000Y-68950000D02*
X166450000Y-68950000D01*
G04 #@! TO.C,U62*
X182750000Y-129850000D02*
X182750000Y-129650000D01*
X182650000Y-129750000D02*
X182850000Y-129750000D01*
X184450000Y-129250000D02*
X184550000Y-129250000D01*
X184450000Y-130250000D02*
X184450000Y-129250000D01*
X181050000Y-130250000D02*
X180950000Y-130250000D01*
X181050000Y-129250000D02*
X180950000Y-129250000D01*
X181050000Y-130250000D02*
X181050000Y-129250000D01*
D12*
X183250000Y-130250000D02*
X183350000Y-130250000D01*
X183250000Y-130350000D02*
X183250000Y-130250000D01*
X183350000Y-130250000D02*
X184550000Y-130250000D01*
X183250000Y-131550000D02*
X183250000Y-130350000D01*
D11*
X180950000Y-127950000D02*
X182750000Y-127950000D01*
X180950000Y-131550000D02*
X180950000Y-127950000D01*
X184250000Y-131550000D02*
X180950000Y-131550000D01*
X184550000Y-131250000D02*
X184250000Y-131550000D01*
X184550000Y-127950000D02*
X184550000Y-131250000D01*
X182950000Y-127950000D02*
X184550000Y-127950000D01*
X182750000Y-127950000D02*
X182950000Y-127950000D01*
G04 #@! TO.C,U48*
X149750000Y-129850000D02*
X149750000Y-129650000D01*
X149650000Y-129750000D02*
X149850000Y-129750000D01*
X151450000Y-129250000D02*
X151550000Y-129250000D01*
X151450000Y-130250000D02*
X151450000Y-129250000D01*
X148050000Y-130250000D02*
X147950000Y-130250000D01*
X148050000Y-129250000D02*
X147950000Y-129250000D01*
X148050000Y-130250000D02*
X148050000Y-129250000D01*
D12*
X150250000Y-130250000D02*
X150350000Y-130250000D01*
X150250000Y-130350000D02*
X150250000Y-130250000D01*
X150350000Y-130250000D02*
X151550000Y-130250000D01*
X150250000Y-131550000D02*
X150250000Y-130350000D01*
D11*
X147950000Y-127950000D02*
X149750000Y-127950000D01*
X147950000Y-131550000D02*
X147950000Y-127950000D01*
X151250000Y-131550000D02*
X147950000Y-131550000D01*
X151550000Y-131250000D02*
X151250000Y-131550000D01*
X151550000Y-127950000D02*
X151550000Y-131250000D01*
X149950000Y-127950000D02*
X151550000Y-127950000D01*
X149750000Y-127950000D02*
X149950000Y-127950000D01*
G04 #@! TO.C,U51*
X182750000Y-77850000D02*
X182750000Y-77650000D01*
X182650000Y-77750000D02*
X182850000Y-77750000D01*
X184450000Y-77250000D02*
X184550000Y-77250000D01*
X184450000Y-78250000D02*
X184450000Y-77250000D01*
X181050000Y-78250000D02*
X180950000Y-78250000D01*
X181050000Y-77250000D02*
X180950000Y-77250000D01*
X181050000Y-78250000D02*
X181050000Y-77250000D01*
D12*
X183250000Y-78250000D02*
X183350000Y-78250000D01*
X183250000Y-78350000D02*
X183250000Y-78250000D01*
X183350000Y-78250000D02*
X184550000Y-78250000D01*
X183250000Y-79550000D02*
X183250000Y-78350000D01*
D11*
X180950000Y-75950000D02*
X182750000Y-75950000D01*
X180950000Y-79550000D02*
X180950000Y-75950000D01*
X184250000Y-79550000D02*
X180950000Y-79550000D01*
X184550000Y-79250000D02*
X184250000Y-79550000D01*
X184550000Y-75950000D02*
X184550000Y-79250000D01*
X182950000Y-75950000D02*
X184550000Y-75950000D01*
X182750000Y-75950000D02*
X182950000Y-75950000D01*
G04 #@! TO.C,U64*
X156750000Y-103850000D02*
X156750000Y-103650000D01*
X156650000Y-103750000D02*
X156850000Y-103750000D01*
X158450000Y-103250000D02*
X158550000Y-103250000D01*
X158450000Y-104250000D02*
X158450000Y-103250000D01*
X155050000Y-104250000D02*
X154950000Y-104250000D01*
X155050000Y-103250000D02*
X154950000Y-103250000D01*
X155050000Y-104250000D02*
X155050000Y-103250000D01*
D12*
X157250000Y-104250000D02*
X157350000Y-104250000D01*
X157250000Y-104350000D02*
X157250000Y-104250000D01*
X157350000Y-104250000D02*
X158550000Y-104250000D01*
X157250000Y-105550000D02*
X157250000Y-104350000D01*
D11*
X154950000Y-101950000D02*
X156750000Y-101950000D01*
X154950000Y-105550000D02*
X154950000Y-101950000D01*
X158250000Y-105550000D02*
X154950000Y-105550000D01*
X158550000Y-105250000D02*
X158250000Y-105550000D01*
X158550000Y-101950000D02*
X158550000Y-105250000D01*
X156950000Y-101950000D02*
X158550000Y-101950000D01*
X156750000Y-101950000D02*
X156950000Y-101950000D01*
G04 #@! TO.C,U70*
X194000000Y-120350000D02*
X194000000Y-120150000D01*
X193900000Y-120250000D02*
X194100000Y-120250000D01*
X195700000Y-119750000D02*
X195800000Y-119750000D01*
X195700000Y-120750000D02*
X195700000Y-119750000D01*
X192300000Y-120750000D02*
X192200000Y-120750000D01*
X192300000Y-119750000D02*
X192200000Y-119750000D01*
X192300000Y-120750000D02*
X192300000Y-119750000D01*
D12*
X194500000Y-120750000D02*
X194600000Y-120750000D01*
X194500000Y-120850000D02*
X194500000Y-120750000D01*
X194600000Y-120750000D02*
X195800000Y-120750000D01*
X194500000Y-122050000D02*
X194500000Y-120850000D01*
D11*
X192200000Y-118450000D02*
X194000000Y-118450000D01*
X192200000Y-122050000D02*
X192200000Y-118450000D01*
X195500000Y-122050000D02*
X192200000Y-122050000D01*
X195800000Y-121750000D02*
X195500000Y-122050000D01*
X195800000Y-118450000D02*
X195800000Y-121750000D01*
X194200000Y-118450000D02*
X195800000Y-118450000D01*
X194000000Y-118450000D02*
X194200000Y-118450000D01*
G04 #@! TO.C,U63*
X175750000Y-136850000D02*
X175750000Y-136650000D01*
X175650000Y-136750000D02*
X175850000Y-136750000D01*
X177450000Y-136250000D02*
X177550000Y-136250000D01*
X177450000Y-137250000D02*
X177450000Y-136250000D01*
X174050000Y-137250000D02*
X173950000Y-137250000D01*
X174050000Y-136250000D02*
X173950000Y-136250000D01*
X174050000Y-137250000D02*
X174050000Y-136250000D01*
D12*
X176250000Y-137250000D02*
X176350000Y-137250000D01*
X176250000Y-137350000D02*
X176250000Y-137250000D01*
X176350000Y-137250000D02*
X177550000Y-137250000D01*
X176250000Y-138550000D02*
X176250000Y-137350000D01*
D11*
X173950000Y-134950000D02*
X175750000Y-134950000D01*
X173950000Y-138550000D02*
X173950000Y-134950000D01*
X177250000Y-138550000D02*
X173950000Y-138550000D01*
X177550000Y-138250000D02*
X177250000Y-138550000D01*
X177550000Y-134950000D02*
X177550000Y-138250000D01*
X175950000Y-134950000D02*
X177550000Y-134950000D01*
X175750000Y-134950000D02*
X175950000Y-134950000D01*
G04 #@! TO.C,U74*
X175750000Y-103850000D02*
X175750000Y-103650000D01*
X175650000Y-103750000D02*
X175850000Y-103750000D01*
X177450000Y-103250000D02*
X177550000Y-103250000D01*
X177450000Y-104250000D02*
X177450000Y-103250000D01*
X174050000Y-104250000D02*
X173950000Y-104250000D01*
X174050000Y-103250000D02*
X173950000Y-103250000D01*
X174050000Y-104250000D02*
X174050000Y-103250000D01*
D12*
X176250000Y-104250000D02*
X176350000Y-104250000D01*
X176250000Y-104350000D02*
X176250000Y-104250000D01*
X176350000Y-104250000D02*
X177550000Y-104250000D01*
X176250000Y-105550000D02*
X176250000Y-104350000D01*
D11*
X173950000Y-101950000D02*
X175750000Y-101950000D01*
X173950000Y-105550000D02*
X173950000Y-101950000D01*
X177250000Y-105550000D02*
X173950000Y-105550000D01*
X177550000Y-105250000D02*
X177250000Y-105550000D01*
X177550000Y-101950000D02*
X177550000Y-105250000D01*
X175950000Y-101950000D02*
X177550000Y-101950000D01*
X175750000Y-101950000D02*
X175950000Y-101950000D01*
G04 #@! TO.C,U68*
X166250000Y-136850000D02*
X166250000Y-136650000D01*
X166150000Y-136750000D02*
X166350000Y-136750000D01*
X167950000Y-136250000D02*
X168050000Y-136250000D01*
X167950000Y-137250000D02*
X167950000Y-136250000D01*
X164550000Y-137250000D02*
X164450000Y-137250000D01*
X164550000Y-136250000D02*
X164450000Y-136250000D01*
X164550000Y-137250000D02*
X164550000Y-136250000D01*
D12*
X166750000Y-137250000D02*
X166850000Y-137250000D01*
X166750000Y-137350000D02*
X166750000Y-137250000D01*
X166850000Y-137250000D02*
X168050000Y-137250000D01*
X166750000Y-138550000D02*
X166750000Y-137350000D01*
D11*
X164450000Y-134950000D02*
X166250000Y-134950000D01*
X164450000Y-138550000D02*
X164450000Y-134950000D01*
X167750000Y-138550000D02*
X164450000Y-138550000D01*
X168050000Y-138250000D02*
X167750000Y-138550000D01*
X168050000Y-134950000D02*
X168050000Y-138250000D01*
X166450000Y-134950000D02*
X168050000Y-134950000D01*
X166250000Y-134950000D02*
X166450000Y-134950000D01*
G04 #@! TO.C,U52*
X182750000Y-110850000D02*
X182750000Y-110650000D01*
X182650000Y-110750000D02*
X182850000Y-110750000D01*
X184450000Y-110250000D02*
X184550000Y-110250000D01*
X184450000Y-111250000D02*
X184450000Y-110250000D01*
X181050000Y-111250000D02*
X180950000Y-111250000D01*
X181050000Y-110250000D02*
X180950000Y-110250000D01*
X181050000Y-111250000D02*
X181050000Y-110250000D01*
D12*
X183250000Y-111250000D02*
X183350000Y-111250000D01*
X183250000Y-111350000D02*
X183250000Y-111250000D01*
X183350000Y-111250000D02*
X184550000Y-111250000D01*
X183250000Y-112550000D02*
X183250000Y-111350000D01*
D11*
X180950000Y-108950000D02*
X182750000Y-108950000D01*
X180950000Y-112550000D02*
X180950000Y-108950000D01*
X184250000Y-112550000D02*
X180950000Y-112550000D01*
X184550000Y-112250000D02*
X184250000Y-112550000D01*
X184550000Y-108950000D02*
X184550000Y-112250000D01*
X182950000Y-108950000D02*
X184550000Y-108950000D01*
X182750000Y-108950000D02*
X182950000Y-108950000D01*
G04 #@! TO.C,U61*
X182750000Y-96850000D02*
X182750000Y-96650000D01*
X182650000Y-96750000D02*
X182850000Y-96750000D01*
X184450000Y-96250000D02*
X184550000Y-96250000D01*
X184450000Y-97250000D02*
X184450000Y-96250000D01*
X181050000Y-97250000D02*
X180950000Y-97250000D01*
X181050000Y-96250000D02*
X180950000Y-96250000D01*
X181050000Y-97250000D02*
X181050000Y-96250000D01*
D12*
X183250000Y-97250000D02*
X183350000Y-97250000D01*
X183250000Y-97350000D02*
X183250000Y-97250000D01*
X183350000Y-97250000D02*
X184550000Y-97250000D01*
X183250000Y-98550000D02*
X183250000Y-97350000D01*
D11*
X180950000Y-94950000D02*
X182750000Y-94950000D01*
X180950000Y-98550000D02*
X180950000Y-94950000D01*
X184250000Y-98550000D02*
X180950000Y-98550000D01*
X184550000Y-98250000D02*
X184250000Y-98550000D01*
X184550000Y-94950000D02*
X184550000Y-98250000D01*
X182950000Y-94950000D02*
X184550000Y-94950000D01*
X182750000Y-94950000D02*
X182950000Y-94950000D01*
G04 #@! TO.C,U60*
X175750000Y-70850000D02*
X175750000Y-70650000D01*
X175650000Y-70750000D02*
X175850000Y-70750000D01*
X177450000Y-70250000D02*
X177550000Y-70250000D01*
X177450000Y-71250000D02*
X177450000Y-70250000D01*
X174050000Y-71250000D02*
X173950000Y-71250000D01*
X174050000Y-70250000D02*
X173950000Y-70250000D01*
X174050000Y-71250000D02*
X174050000Y-70250000D01*
D12*
X176250000Y-71250000D02*
X176350000Y-71250000D01*
X176250000Y-71350000D02*
X176250000Y-71250000D01*
X176350000Y-71250000D02*
X177550000Y-71250000D01*
X176250000Y-72550000D02*
X176250000Y-71350000D01*
D11*
X173950000Y-68950000D02*
X175750000Y-68950000D01*
X173950000Y-72550000D02*
X173950000Y-68950000D01*
X177250000Y-72550000D02*
X173950000Y-72550000D01*
X177550000Y-72250000D02*
X177250000Y-72550000D01*
X177550000Y-68950000D02*
X177550000Y-72250000D01*
X175950000Y-68950000D02*
X177550000Y-68950000D01*
X175750000Y-68950000D02*
X175950000Y-68950000D01*
G04 #@! TO.C,U69*
X166250000Y-103850000D02*
X166250000Y-103650000D01*
X166150000Y-103750000D02*
X166350000Y-103750000D01*
X167950000Y-103250000D02*
X168050000Y-103250000D01*
X167950000Y-104250000D02*
X167950000Y-103250000D01*
X164550000Y-104250000D02*
X164450000Y-104250000D01*
X164550000Y-103250000D02*
X164450000Y-103250000D01*
X164550000Y-104250000D02*
X164550000Y-103250000D01*
D12*
X166750000Y-104250000D02*
X166850000Y-104250000D01*
X166750000Y-104350000D02*
X166750000Y-104250000D01*
X166850000Y-104250000D02*
X168050000Y-104250000D01*
X166750000Y-105550000D02*
X166750000Y-104350000D01*
D11*
X164450000Y-101950000D02*
X166250000Y-101950000D01*
X164450000Y-105550000D02*
X164450000Y-101950000D01*
X167750000Y-105550000D02*
X164450000Y-105550000D01*
X168050000Y-105250000D02*
X167750000Y-105550000D01*
X168050000Y-101950000D02*
X168050000Y-105250000D01*
X166450000Y-101950000D02*
X168050000Y-101950000D01*
X166250000Y-101950000D02*
X166450000Y-101950000D01*
G04 #@! TO.C,U6*
X53250000Y-75950000D02*
X53450000Y-75950000D01*
X53450000Y-75950000D02*
X55050000Y-75950000D01*
X55050000Y-75950000D02*
X55050000Y-79250000D01*
X55050000Y-79250000D02*
X54750000Y-79550000D01*
X54750000Y-79550000D02*
X51450000Y-79550000D01*
X51450000Y-79550000D02*
X51450000Y-75950000D01*
X51450000Y-75950000D02*
X53250000Y-75950000D01*
D12*
X53750000Y-79550000D02*
X53750000Y-78350000D01*
X53850000Y-78250000D02*
X55050000Y-78250000D01*
X53750000Y-78350000D02*
X53750000Y-78250000D01*
X53750000Y-78250000D02*
X53850000Y-78250000D01*
D11*
X51550000Y-78250000D02*
X51550000Y-77250000D01*
X51550000Y-77250000D02*
X51450000Y-77250000D01*
X51550000Y-78250000D02*
X51450000Y-78250000D01*
X54950000Y-78250000D02*
X54950000Y-77250000D01*
X54950000Y-77250000D02*
X55050000Y-77250000D01*
X53150000Y-77750000D02*
X53350000Y-77750000D01*
X53250000Y-77850000D02*
X53250000Y-77650000D01*
G04 #@! TO.C,U3*
X53250000Y-108950000D02*
X53450000Y-108950000D01*
X53450000Y-108950000D02*
X55050000Y-108950000D01*
X55050000Y-108950000D02*
X55050000Y-112250000D01*
X55050000Y-112250000D02*
X54750000Y-112550000D01*
X54750000Y-112550000D02*
X51450000Y-112550000D01*
X51450000Y-112550000D02*
X51450000Y-108950000D01*
X51450000Y-108950000D02*
X53250000Y-108950000D01*
D12*
X53750000Y-112550000D02*
X53750000Y-111350000D01*
X53850000Y-111250000D02*
X55050000Y-111250000D01*
X53750000Y-111350000D02*
X53750000Y-111250000D01*
X53750000Y-111250000D02*
X53850000Y-111250000D01*
D11*
X51550000Y-111250000D02*
X51550000Y-110250000D01*
X51550000Y-110250000D02*
X51450000Y-110250000D01*
X51550000Y-111250000D02*
X51450000Y-111250000D01*
X54950000Y-111250000D02*
X54950000Y-110250000D01*
X54950000Y-110250000D02*
X55050000Y-110250000D01*
X53150000Y-110750000D02*
X53350000Y-110750000D01*
X53250000Y-110850000D02*
X53250000Y-110650000D01*
G04 #@! TO.C,U4*
X53250000Y-94950000D02*
X53450000Y-94950000D01*
X53450000Y-94950000D02*
X55050000Y-94950000D01*
X55050000Y-94950000D02*
X55050000Y-98250000D01*
X55050000Y-98250000D02*
X54750000Y-98550000D01*
X54750000Y-98550000D02*
X51450000Y-98550000D01*
X51450000Y-98550000D02*
X51450000Y-94950000D01*
X51450000Y-94950000D02*
X53250000Y-94950000D01*
D12*
X53750000Y-98550000D02*
X53750000Y-97350000D01*
X53850000Y-97250000D02*
X55050000Y-97250000D01*
X53750000Y-97350000D02*
X53750000Y-97250000D01*
X53750000Y-97250000D02*
X53850000Y-97250000D01*
D11*
X51550000Y-97250000D02*
X51550000Y-96250000D01*
X51550000Y-96250000D02*
X51450000Y-96250000D01*
X51550000Y-97250000D02*
X51450000Y-97250000D01*
X54950000Y-97250000D02*
X54950000Y-96250000D01*
X54950000Y-96250000D02*
X55050000Y-96250000D01*
X53150000Y-96750000D02*
X53350000Y-96750000D01*
X53250000Y-96850000D02*
X53250000Y-96650000D01*
G04 #@! TO.C,U5*
X53250000Y-85450000D02*
X53450000Y-85450000D01*
X53450000Y-85450000D02*
X55050000Y-85450000D01*
X55050000Y-85450000D02*
X55050000Y-88750000D01*
X55050000Y-88750000D02*
X54750000Y-89050000D01*
X54750000Y-89050000D02*
X51450000Y-89050000D01*
X51450000Y-89050000D02*
X51450000Y-85450000D01*
X51450000Y-85450000D02*
X53250000Y-85450000D01*
D12*
X53750000Y-89050000D02*
X53750000Y-87850000D01*
X53850000Y-87750000D02*
X55050000Y-87750000D01*
X53750000Y-87850000D02*
X53750000Y-87750000D01*
X53750000Y-87750000D02*
X53850000Y-87750000D01*
D11*
X51550000Y-87750000D02*
X51550000Y-86750000D01*
X51550000Y-86750000D02*
X51450000Y-86750000D01*
X51550000Y-87750000D02*
X51450000Y-87750000D01*
X54950000Y-87750000D02*
X54950000Y-86750000D01*
X54950000Y-86750000D02*
X55050000Y-86750000D01*
X53150000Y-87250000D02*
X53350000Y-87250000D01*
X53250000Y-87350000D02*
X53250000Y-87150000D01*
G04 #@! TO.C,U2*
X53250000Y-118450000D02*
X53450000Y-118450000D01*
X53450000Y-118450000D02*
X55050000Y-118450000D01*
X55050000Y-118450000D02*
X55050000Y-121750000D01*
X55050000Y-121750000D02*
X54750000Y-122050000D01*
X54750000Y-122050000D02*
X51450000Y-122050000D01*
X51450000Y-122050000D02*
X51450000Y-118450000D01*
X51450000Y-118450000D02*
X53250000Y-118450000D01*
D12*
X53750000Y-122050000D02*
X53750000Y-120850000D01*
X53850000Y-120750000D02*
X55050000Y-120750000D01*
X53750000Y-120850000D02*
X53750000Y-120750000D01*
X53750000Y-120750000D02*
X53850000Y-120750000D01*
D11*
X51550000Y-120750000D02*
X51550000Y-119750000D01*
X51550000Y-119750000D02*
X51450000Y-119750000D01*
X51550000Y-120750000D02*
X51450000Y-120750000D01*
X54950000Y-120750000D02*
X54950000Y-119750000D01*
X54950000Y-119750000D02*
X55050000Y-119750000D01*
X53150000Y-120250000D02*
X53350000Y-120250000D01*
X53250000Y-120350000D02*
X53250000Y-120150000D01*
G04 #@! TO.C,U1*
X53250000Y-127950000D02*
X53450000Y-127950000D01*
X53450000Y-127950000D02*
X55050000Y-127950000D01*
X55050000Y-127950000D02*
X55050000Y-131250000D01*
X55050000Y-131250000D02*
X54750000Y-131550000D01*
X54750000Y-131550000D02*
X51450000Y-131550000D01*
X51450000Y-131550000D02*
X51450000Y-127950000D01*
X51450000Y-127950000D02*
X53250000Y-127950000D01*
D12*
X53750000Y-131550000D02*
X53750000Y-130350000D01*
X53850000Y-130250000D02*
X55050000Y-130250000D01*
X53750000Y-130350000D02*
X53750000Y-130250000D01*
X53750000Y-130250000D02*
X53850000Y-130250000D01*
D11*
X51550000Y-130250000D02*
X51550000Y-129250000D01*
X51550000Y-129250000D02*
X51450000Y-129250000D01*
X51550000Y-130250000D02*
X51450000Y-130250000D01*
X54950000Y-130250000D02*
X54950000Y-129250000D01*
X54950000Y-129250000D02*
X55050000Y-129250000D01*
X53150000Y-129750000D02*
X53350000Y-129750000D01*
X53250000Y-129850000D02*
X53250000Y-129650000D01*
G04 #@! TO.C,U7*
X60250000Y-68950000D02*
X60450000Y-68950000D01*
X60450000Y-68950000D02*
X62050000Y-68950000D01*
X62050000Y-68950000D02*
X62050000Y-72250000D01*
X62050000Y-72250000D02*
X61750000Y-72550000D01*
X61750000Y-72550000D02*
X58450000Y-72550000D01*
X58450000Y-72550000D02*
X58450000Y-68950000D01*
X58450000Y-68950000D02*
X60250000Y-68950000D01*
D12*
X60750000Y-72550000D02*
X60750000Y-71350000D01*
X60850000Y-71250000D02*
X62050000Y-71250000D01*
X60750000Y-71350000D02*
X60750000Y-71250000D01*
X60750000Y-71250000D02*
X60850000Y-71250000D01*
D11*
X58550000Y-71250000D02*
X58550000Y-70250000D01*
X58550000Y-70250000D02*
X58450000Y-70250000D01*
X58550000Y-71250000D02*
X58450000Y-71250000D01*
X61950000Y-71250000D02*
X61950000Y-70250000D01*
X61950000Y-70250000D02*
X62050000Y-70250000D01*
X60150000Y-70750000D02*
X60350000Y-70750000D01*
X60250000Y-70850000D02*
X60250000Y-70650000D01*
G04 #@! TO.C,U8*
X69750000Y-68950000D02*
X69950000Y-68950000D01*
X69950000Y-68950000D02*
X71550000Y-68950000D01*
X71550000Y-68950000D02*
X71550000Y-72250000D01*
X71550000Y-72250000D02*
X71250000Y-72550000D01*
X71250000Y-72550000D02*
X67950000Y-72550000D01*
X67950000Y-72550000D02*
X67950000Y-68950000D01*
X67950000Y-68950000D02*
X69750000Y-68950000D01*
D12*
X70250000Y-72550000D02*
X70250000Y-71350000D01*
X70350000Y-71250000D02*
X71550000Y-71250000D01*
X70250000Y-71350000D02*
X70250000Y-71250000D01*
X70250000Y-71250000D02*
X70350000Y-71250000D01*
D11*
X68050000Y-71250000D02*
X68050000Y-70250000D01*
X68050000Y-70250000D02*
X67950000Y-70250000D01*
X68050000Y-71250000D02*
X67950000Y-71250000D01*
X71450000Y-71250000D02*
X71450000Y-70250000D01*
X71450000Y-70250000D02*
X71550000Y-70250000D01*
X69650000Y-70750000D02*
X69850000Y-70750000D01*
X69750000Y-70850000D02*
X69750000Y-70650000D01*
G04 #@! TO.C,U9*
X79250000Y-68950000D02*
X79450000Y-68950000D01*
X79450000Y-68950000D02*
X81050000Y-68950000D01*
X81050000Y-68950000D02*
X81050000Y-72250000D01*
X81050000Y-72250000D02*
X80750000Y-72550000D01*
X80750000Y-72550000D02*
X77450000Y-72550000D01*
X77450000Y-72550000D02*
X77450000Y-68950000D01*
X77450000Y-68950000D02*
X79250000Y-68950000D01*
D12*
X79750000Y-72550000D02*
X79750000Y-71350000D01*
X79850000Y-71250000D02*
X81050000Y-71250000D01*
X79750000Y-71350000D02*
X79750000Y-71250000D01*
X79750000Y-71250000D02*
X79850000Y-71250000D01*
D11*
X77550000Y-71250000D02*
X77550000Y-70250000D01*
X77550000Y-70250000D02*
X77450000Y-70250000D01*
X77550000Y-71250000D02*
X77450000Y-71250000D01*
X80950000Y-71250000D02*
X80950000Y-70250000D01*
X80950000Y-70250000D02*
X81050000Y-70250000D01*
X79150000Y-70750000D02*
X79350000Y-70750000D01*
X79250000Y-70850000D02*
X79250000Y-70650000D01*
G04 #@! TO.C,U10*
X86250000Y-75950000D02*
X86450000Y-75950000D01*
X86450000Y-75950000D02*
X88050000Y-75950000D01*
X88050000Y-75950000D02*
X88050000Y-79250000D01*
X88050000Y-79250000D02*
X87750000Y-79550000D01*
X87750000Y-79550000D02*
X84450000Y-79550000D01*
X84450000Y-79550000D02*
X84450000Y-75950000D01*
X84450000Y-75950000D02*
X86250000Y-75950000D01*
D12*
X86750000Y-79550000D02*
X86750000Y-78350000D01*
X86850000Y-78250000D02*
X88050000Y-78250000D01*
X86750000Y-78350000D02*
X86750000Y-78250000D01*
X86750000Y-78250000D02*
X86850000Y-78250000D01*
D11*
X84550000Y-78250000D02*
X84550000Y-77250000D01*
X84550000Y-77250000D02*
X84450000Y-77250000D01*
X84550000Y-78250000D02*
X84450000Y-78250000D01*
X87950000Y-78250000D02*
X87950000Y-77250000D01*
X87950000Y-77250000D02*
X88050000Y-77250000D01*
X86150000Y-77750000D02*
X86350000Y-77750000D01*
X86250000Y-77850000D02*
X86250000Y-77650000D01*
G04 #@! TO.C,U11*
X86250000Y-85450000D02*
X86450000Y-85450000D01*
X86450000Y-85450000D02*
X88050000Y-85450000D01*
X88050000Y-85450000D02*
X88050000Y-88750000D01*
X88050000Y-88750000D02*
X87750000Y-89050000D01*
X87750000Y-89050000D02*
X84450000Y-89050000D01*
X84450000Y-89050000D02*
X84450000Y-85450000D01*
X84450000Y-85450000D02*
X86250000Y-85450000D01*
D12*
X86750000Y-89050000D02*
X86750000Y-87850000D01*
X86850000Y-87750000D02*
X88050000Y-87750000D01*
X86750000Y-87850000D02*
X86750000Y-87750000D01*
X86750000Y-87750000D02*
X86850000Y-87750000D01*
D11*
X84550000Y-87750000D02*
X84550000Y-86750000D01*
X84550000Y-86750000D02*
X84450000Y-86750000D01*
X84550000Y-87750000D02*
X84450000Y-87750000D01*
X87950000Y-87750000D02*
X87950000Y-86750000D01*
X87950000Y-86750000D02*
X88050000Y-86750000D01*
X86150000Y-87250000D02*
X86350000Y-87250000D01*
X86250000Y-87350000D02*
X86250000Y-87150000D01*
G04 #@! TO.C,U12*
X86250000Y-94950000D02*
X86450000Y-94950000D01*
X86450000Y-94950000D02*
X88050000Y-94950000D01*
X88050000Y-94950000D02*
X88050000Y-98250000D01*
X88050000Y-98250000D02*
X87750000Y-98550000D01*
X87750000Y-98550000D02*
X84450000Y-98550000D01*
X84450000Y-98550000D02*
X84450000Y-94950000D01*
X84450000Y-94950000D02*
X86250000Y-94950000D01*
D12*
X86750000Y-98550000D02*
X86750000Y-97350000D01*
X86850000Y-97250000D02*
X88050000Y-97250000D01*
X86750000Y-97350000D02*
X86750000Y-97250000D01*
X86750000Y-97250000D02*
X86850000Y-97250000D01*
D11*
X84550000Y-97250000D02*
X84550000Y-96250000D01*
X84550000Y-96250000D02*
X84450000Y-96250000D01*
X84550000Y-97250000D02*
X84450000Y-97250000D01*
X87950000Y-97250000D02*
X87950000Y-96250000D01*
X87950000Y-96250000D02*
X88050000Y-96250000D01*
X86150000Y-96750000D02*
X86350000Y-96750000D01*
X86250000Y-96850000D02*
X86250000Y-96650000D01*
G04 #@! TO.C,U13*
X86250000Y-108950000D02*
X86450000Y-108950000D01*
X86450000Y-108950000D02*
X88050000Y-108950000D01*
X88050000Y-108950000D02*
X88050000Y-112250000D01*
X88050000Y-112250000D02*
X87750000Y-112550000D01*
X87750000Y-112550000D02*
X84450000Y-112550000D01*
X84450000Y-112550000D02*
X84450000Y-108950000D01*
X84450000Y-108950000D02*
X86250000Y-108950000D01*
D12*
X86750000Y-112550000D02*
X86750000Y-111350000D01*
X86850000Y-111250000D02*
X88050000Y-111250000D01*
X86750000Y-111350000D02*
X86750000Y-111250000D01*
X86750000Y-111250000D02*
X86850000Y-111250000D01*
D11*
X84550000Y-111250000D02*
X84550000Y-110250000D01*
X84550000Y-110250000D02*
X84450000Y-110250000D01*
X84550000Y-111250000D02*
X84450000Y-111250000D01*
X87950000Y-111250000D02*
X87950000Y-110250000D01*
X87950000Y-110250000D02*
X88050000Y-110250000D01*
X86150000Y-110750000D02*
X86350000Y-110750000D01*
X86250000Y-110850000D02*
X86250000Y-110650000D01*
G04 #@! TO.C,U14*
X86250000Y-118450000D02*
X86450000Y-118450000D01*
X86450000Y-118450000D02*
X88050000Y-118450000D01*
X88050000Y-118450000D02*
X88050000Y-121750000D01*
X88050000Y-121750000D02*
X87750000Y-122050000D01*
X87750000Y-122050000D02*
X84450000Y-122050000D01*
X84450000Y-122050000D02*
X84450000Y-118450000D01*
X84450000Y-118450000D02*
X86250000Y-118450000D01*
D12*
X86750000Y-122050000D02*
X86750000Y-120850000D01*
X86850000Y-120750000D02*
X88050000Y-120750000D01*
X86750000Y-120850000D02*
X86750000Y-120750000D01*
X86750000Y-120750000D02*
X86850000Y-120750000D01*
D11*
X84550000Y-120750000D02*
X84550000Y-119750000D01*
X84550000Y-119750000D02*
X84450000Y-119750000D01*
X84550000Y-120750000D02*
X84450000Y-120750000D01*
X87950000Y-120750000D02*
X87950000Y-119750000D01*
X87950000Y-119750000D02*
X88050000Y-119750000D01*
X86150000Y-120250000D02*
X86350000Y-120250000D01*
X86250000Y-120350000D02*
X86250000Y-120150000D01*
G04 #@! TO.C,U15*
X86250000Y-127950000D02*
X86450000Y-127950000D01*
X86450000Y-127950000D02*
X88050000Y-127950000D01*
X88050000Y-127950000D02*
X88050000Y-131250000D01*
X88050000Y-131250000D02*
X87750000Y-131550000D01*
X87750000Y-131550000D02*
X84450000Y-131550000D01*
X84450000Y-131550000D02*
X84450000Y-127950000D01*
X84450000Y-127950000D02*
X86250000Y-127950000D01*
D12*
X86750000Y-131550000D02*
X86750000Y-130350000D01*
X86850000Y-130250000D02*
X88050000Y-130250000D01*
X86750000Y-130350000D02*
X86750000Y-130250000D01*
X86750000Y-130250000D02*
X86850000Y-130250000D01*
D11*
X84550000Y-130250000D02*
X84550000Y-129250000D01*
X84550000Y-129250000D02*
X84450000Y-129250000D01*
X84550000Y-130250000D02*
X84450000Y-130250000D01*
X87950000Y-130250000D02*
X87950000Y-129250000D01*
X87950000Y-129250000D02*
X88050000Y-129250000D01*
X86150000Y-129750000D02*
X86350000Y-129750000D01*
X86250000Y-129850000D02*
X86250000Y-129650000D01*
G04 #@! TO.C,U16*
X79250000Y-134950000D02*
X79450000Y-134950000D01*
X79450000Y-134950000D02*
X81050000Y-134950000D01*
X81050000Y-134950000D02*
X81050000Y-138250000D01*
X81050000Y-138250000D02*
X80750000Y-138550000D01*
X80750000Y-138550000D02*
X77450000Y-138550000D01*
X77450000Y-138550000D02*
X77450000Y-134950000D01*
X77450000Y-134950000D02*
X79250000Y-134950000D01*
D12*
X79750000Y-138550000D02*
X79750000Y-137350000D01*
X79850000Y-137250000D02*
X81050000Y-137250000D01*
X79750000Y-137350000D02*
X79750000Y-137250000D01*
X79750000Y-137250000D02*
X79850000Y-137250000D01*
D11*
X77550000Y-137250000D02*
X77550000Y-136250000D01*
X77550000Y-136250000D02*
X77450000Y-136250000D01*
X77550000Y-137250000D02*
X77450000Y-137250000D01*
X80950000Y-137250000D02*
X80950000Y-136250000D01*
X80950000Y-136250000D02*
X81050000Y-136250000D01*
X79150000Y-136750000D02*
X79350000Y-136750000D01*
X79250000Y-136850000D02*
X79250000Y-136650000D01*
G04 #@! TO.C,U17*
X69750000Y-134950000D02*
X69950000Y-134950000D01*
X69950000Y-134950000D02*
X71550000Y-134950000D01*
X71550000Y-134950000D02*
X71550000Y-138250000D01*
X71550000Y-138250000D02*
X71250000Y-138550000D01*
X71250000Y-138550000D02*
X67950000Y-138550000D01*
X67950000Y-138550000D02*
X67950000Y-134950000D01*
X67950000Y-134950000D02*
X69750000Y-134950000D01*
D12*
X70250000Y-138550000D02*
X70250000Y-137350000D01*
X70350000Y-137250000D02*
X71550000Y-137250000D01*
X70250000Y-137350000D02*
X70250000Y-137250000D01*
X70250000Y-137250000D02*
X70350000Y-137250000D01*
D11*
X68050000Y-137250000D02*
X68050000Y-136250000D01*
X68050000Y-136250000D02*
X67950000Y-136250000D01*
X68050000Y-137250000D02*
X67950000Y-137250000D01*
X71450000Y-137250000D02*
X71450000Y-136250000D01*
X71450000Y-136250000D02*
X71550000Y-136250000D01*
X69650000Y-136750000D02*
X69850000Y-136750000D01*
X69750000Y-136850000D02*
X69750000Y-136650000D01*
G04 #@! TO.C,U18*
X60250000Y-134950000D02*
X60450000Y-134950000D01*
X60450000Y-134950000D02*
X62050000Y-134950000D01*
X62050000Y-134950000D02*
X62050000Y-138250000D01*
X62050000Y-138250000D02*
X61750000Y-138550000D01*
X61750000Y-138550000D02*
X58450000Y-138550000D01*
X58450000Y-138550000D02*
X58450000Y-134950000D01*
X58450000Y-134950000D02*
X60250000Y-134950000D01*
D12*
X60750000Y-138550000D02*
X60750000Y-137350000D01*
X60850000Y-137250000D02*
X62050000Y-137250000D01*
X60750000Y-137350000D02*
X60750000Y-137250000D01*
X60750000Y-137250000D02*
X60850000Y-137250000D01*
D11*
X58550000Y-137250000D02*
X58550000Y-136250000D01*
X58550000Y-136250000D02*
X58450000Y-136250000D01*
X58550000Y-137250000D02*
X58450000Y-137250000D01*
X61950000Y-137250000D02*
X61950000Y-136250000D01*
X61950000Y-136250000D02*
X62050000Y-136250000D01*
X60150000Y-136750000D02*
X60350000Y-136750000D01*
X60250000Y-136850000D02*
X60250000Y-136650000D01*
G04 #@! TO.C,U19*
X60250000Y-101950000D02*
X60450000Y-101950000D01*
X60450000Y-101950000D02*
X62050000Y-101950000D01*
X62050000Y-101950000D02*
X62050000Y-105250000D01*
X62050000Y-105250000D02*
X61750000Y-105550000D01*
X61750000Y-105550000D02*
X58450000Y-105550000D01*
X58450000Y-105550000D02*
X58450000Y-101950000D01*
X58450000Y-101950000D02*
X60250000Y-101950000D01*
D12*
X60750000Y-105550000D02*
X60750000Y-104350000D01*
X60850000Y-104250000D02*
X62050000Y-104250000D01*
X60750000Y-104350000D02*
X60750000Y-104250000D01*
X60750000Y-104250000D02*
X60850000Y-104250000D01*
D11*
X58550000Y-104250000D02*
X58550000Y-103250000D01*
X58550000Y-103250000D02*
X58450000Y-103250000D01*
X58550000Y-104250000D02*
X58450000Y-104250000D01*
X61950000Y-104250000D02*
X61950000Y-103250000D01*
X61950000Y-103250000D02*
X62050000Y-103250000D01*
X60150000Y-103750000D02*
X60350000Y-103750000D01*
X60250000Y-103850000D02*
X60250000Y-103650000D01*
G04 #@! TO.C,U20*
X69750000Y-101950000D02*
X69950000Y-101950000D01*
X69950000Y-101950000D02*
X71550000Y-101950000D01*
X71550000Y-101950000D02*
X71550000Y-105250000D01*
X71550000Y-105250000D02*
X71250000Y-105550000D01*
X71250000Y-105550000D02*
X67950000Y-105550000D01*
X67950000Y-105550000D02*
X67950000Y-101950000D01*
X67950000Y-101950000D02*
X69750000Y-101950000D01*
D12*
X70250000Y-105550000D02*
X70250000Y-104350000D01*
X70350000Y-104250000D02*
X71550000Y-104250000D01*
X70250000Y-104350000D02*
X70250000Y-104250000D01*
X70250000Y-104250000D02*
X70350000Y-104250000D01*
D11*
X68050000Y-104250000D02*
X68050000Y-103250000D01*
X68050000Y-103250000D02*
X67950000Y-103250000D01*
X68050000Y-104250000D02*
X67950000Y-104250000D01*
X71450000Y-104250000D02*
X71450000Y-103250000D01*
X71450000Y-103250000D02*
X71550000Y-103250000D01*
X69650000Y-103750000D02*
X69850000Y-103750000D01*
X69750000Y-103850000D02*
X69750000Y-103650000D01*
G04 #@! TO.C,U21*
X79250000Y-101950000D02*
X79450000Y-101950000D01*
X79450000Y-101950000D02*
X81050000Y-101950000D01*
X81050000Y-101950000D02*
X81050000Y-105250000D01*
X81050000Y-105250000D02*
X80750000Y-105550000D01*
X80750000Y-105550000D02*
X77450000Y-105550000D01*
X77450000Y-105550000D02*
X77450000Y-101950000D01*
X77450000Y-101950000D02*
X79250000Y-101950000D01*
D12*
X79750000Y-105550000D02*
X79750000Y-104350000D01*
X79850000Y-104250000D02*
X81050000Y-104250000D01*
X79750000Y-104350000D02*
X79750000Y-104250000D01*
X79750000Y-104250000D02*
X79850000Y-104250000D01*
D11*
X77550000Y-104250000D02*
X77550000Y-103250000D01*
X77550000Y-103250000D02*
X77450000Y-103250000D01*
X77550000Y-104250000D02*
X77450000Y-104250000D01*
X80950000Y-104250000D02*
X80950000Y-103250000D01*
X80950000Y-103250000D02*
X81050000Y-103250000D01*
X79150000Y-103750000D02*
X79350000Y-103750000D01*
X79250000Y-103850000D02*
X79250000Y-103650000D01*
G04 #@! TO.C,U22*
X97500000Y-127950000D02*
X97700000Y-127950000D01*
X97700000Y-127950000D02*
X99300000Y-127950000D01*
X99300000Y-127950000D02*
X99300000Y-131250000D01*
X99300000Y-131250000D02*
X99000000Y-131550000D01*
X99000000Y-131550000D02*
X95700000Y-131550000D01*
X95700000Y-131550000D02*
X95700000Y-127950000D01*
X95700000Y-127950000D02*
X97500000Y-127950000D01*
D12*
X98000000Y-131550000D02*
X98000000Y-130350000D01*
X98100000Y-130250000D02*
X99300000Y-130250000D01*
X98000000Y-130350000D02*
X98000000Y-130250000D01*
X98000000Y-130250000D02*
X98100000Y-130250000D01*
D11*
X95800000Y-130250000D02*
X95800000Y-129250000D01*
X95800000Y-129250000D02*
X95700000Y-129250000D01*
X95800000Y-130250000D02*
X95700000Y-130250000D01*
X99200000Y-130250000D02*
X99200000Y-129250000D01*
X99200000Y-129250000D02*
X99300000Y-129250000D01*
X97400000Y-129750000D02*
X97600000Y-129750000D01*
X97500000Y-129850000D02*
X97500000Y-129650000D01*
G04 #@! TO.C,U23*
X97500000Y-118450000D02*
X97700000Y-118450000D01*
X97700000Y-118450000D02*
X99300000Y-118450000D01*
X99300000Y-118450000D02*
X99300000Y-121750000D01*
X99300000Y-121750000D02*
X99000000Y-122050000D01*
X99000000Y-122050000D02*
X95700000Y-122050000D01*
X95700000Y-122050000D02*
X95700000Y-118450000D01*
X95700000Y-118450000D02*
X97500000Y-118450000D01*
D12*
X98000000Y-122050000D02*
X98000000Y-120850000D01*
X98100000Y-120750000D02*
X99300000Y-120750000D01*
X98000000Y-120850000D02*
X98000000Y-120750000D01*
X98000000Y-120750000D02*
X98100000Y-120750000D01*
D11*
X95800000Y-120750000D02*
X95800000Y-119750000D01*
X95800000Y-119750000D02*
X95700000Y-119750000D01*
X95800000Y-120750000D02*
X95700000Y-120750000D01*
X99200000Y-120750000D02*
X99200000Y-119750000D01*
X99200000Y-119750000D02*
X99300000Y-119750000D01*
X97400000Y-120250000D02*
X97600000Y-120250000D01*
X97500000Y-120350000D02*
X97500000Y-120150000D01*
G04 #@! TO.C,U27*
X97500000Y-108950000D02*
X97700000Y-108950000D01*
X97700000Y-108950000D02*
X99300000Y-108950000D01*
X99300000Y-108950000D02*
X99300000Y-112250000D01*
X99300000Y-112250000D02*
X99000000Y-112550000D01*
X99000000Y-112550000D02*
X95700000Y-112550000D01*
X95700000Y-112550000D02*
X95700000Y-108950000D01*
X95700000Y-108950000D02*
X97500000Y-108950000D01*
D12*
X98000000Y-112550000D02*
X98000000Y-111350000D01*
X98100000Y-111250000D02*
X99300000Y-111250000D01*
X98000000Y-111350000D02*
X98000000Y-111250000D01*
X98000000Y-111250000D02*
X98100000Y-111250000D01*
D11*
X95800000Y-111250000D02*
X95800000Y-110250000D01*
X95800000Y-110250000D02*
X95700000Y-110250000D01*
X95800000Y-111250000D02*
X95700000Y-111250000D01*
X99200000Y-111250000D02*
X99200000Y-110250000D01*
X99200000Y-110250000D02*
X99300000Y-110250000D01*
X97400000Y-110750000D02*
X97600000Y-110750000D01*
X97500000Y-110850000D02*
X97500000Y-110650000D01*
G04 #@! TO.C,U28*
X97500000Y-94950000D02*
X97700000Y-94950000D01*
X97700000Y-94950000D02*
X99300000Y-94950000D01*
X99300000Y-94950000D02*
X99300000Y-98250000D01*
X99300000Y-98250000D02*
X99000000Y-98550000D01*
X99000000Y-98550000D02*
X95700000Y-98550000D01*
X95700000Y-98550000D02*
X95700000Y-94950000D01*
X95700000Y-94950000D02*
X97500000Y-94950000D01*
D12*
X98000000Y-98550000D02*
X98000000Y-97350000D01*
X98100000Y-97250000D02*
X99300000Y-97250000D01*
X98000000Y-97350000D02*
X98000000Y-97250000D01*
X98000000Y-97250000D02*
X98100000Y-97250000D01*
D11*
X95800000Y-97250000D02*
X95800000Y-96250000D01*
X95800000Y-96250000D02*
X95700000Y-96250000D01*
X95800000Y-97250000D02*
X95700000Y-97250000D01*
X99200000Y-97250000D02*
X99200000Y-96250000D01*
X99200000Y-96250000D02*
X99300000Y-96250000D01*
X97400000Y-96750000D02*
X97600000Y-96750000D01*
X97500000Y-96850000D02*
X97500000Y-96650000D01*
G04 #@! TO.C,U29*
X97500000Y-85450000D02*
X97700000Y-85450000D01*
X97700000Y-85450000D02*
X99300000Y-85450000D01*
X99300000Y-85450000D02*
X99300000Y-88750000D01*
X99300000Y-88750000D02*
X99000000Y-89050000D01*
X99000000Y-89050000D02*
X95700000Y-89050000D01*
X95700000Y-89050000D02*
X95700000Y-85450000D01*
X95700000Y-85450000D02*
X97500000Y-85450000D01*
D12*
X98000000Y-89050000D02*
X98000000Y-87850000D01*
X98100000Y-87750000D02*
X99300000Y-87750000D01*
X98000000Y-87850000D02*
X98000000Y-87750000D01*
X98000000Y-87750000D02*
X98100000Y-87750000D01*
D11*
X95800000Y-87750000D02*
X95800000Y-86750000D01*
X95800000Y-86750000D02*
X95700000Y-86750000D01*
X95800000Y-87750000D02*
X95700000Y-87750000D01*
X99200000Y-87750000D02*
X99200000Y-86750000D01*
X99200000Y-86750000D02*
X99300000Y-86750000D01*
X97400000Y-87250000D02*
X97600000Y-87250000D01*
X97500000Y-87350000D02*
X97500000Y-87150000D01*
G04 #@! TO.C,U30*
X97500000Y-75950000D02*
X97700000Y-75950000D01*
X97700000Y-75950000D02*
X99300000Y-75950000D01*
X99300000Y-75950000D02*
X99300000Y-79250000D01*
X99300000Y-79250000D02*
X99000000Y-79550000D01*
X99000000Y-79550000D02*
X95700000Y-79550000D01*
X95700000Y-79550000D02*
X95700000Y-75950000D01*
X95700000Y-75950000D02*
X97500000Y-75950000D01*
D12*
X98000000Y-79550000D02*
X98000000Y-78350000D01*
X98100000Y-78250000D02*
X99300000Y-78250000D01*
X98000000Y-78350000D02*
X98000000Y-78250000D01*
X98000000Y-78250000D02*
X98100000Y-78250000D01*
D11*
X95800000Y-78250000D02*
X95800000Y-77250000D01*
X95800000Y-77250000D02*
X95700000Y-77250000D01*
X95800000Y-78250000D02*
X95700000Y-78250000D01*
X99200000Y-78250000D02*
X99200000Y-77250000D01*
X99200000Y-77250000D02*
X99300000Y-77250000D01*
X97400000Y-77750000D02*
X97600000Y-77750000D01*
X97500000Y-77850000D02*
X97500000Y-77650000D01*
G04 #@! TO.C,U31*
X104500000Y-68950000D02*
X104700000Y-68950000D01*
X104700000Y-68950000D02*
X106300000Y-68950000D01*
X106300000Y-68950000D02*
X106300000Y-72250000D01*
X106300000Y-72250000D02*
X106000000Y-72550000D01*
X106000000Y-72550000D02*
X102700000Y-72550000D01*
X102700000Y-72550000D02*
X102700000Y-68950000D01*
X102700000Y-68950000D02*
X104500000Y-68950000D01*
D12*
X105000000Y-72550000D02*
X105000000Y-71350000D01*
X105100000Y-71250000D02*
X106300000Y-71250000D01*
X105000000Y-71350000D02*
X105000000Y-71250000D01*
X105000000Y-71250000D02*
X105100000Y-71250000D01*
D11*
X102800000Y-71250000D02*
X102800000Y-70250000D01*
X102800000Y-70250000D02*
X102700000Y-70250000D01*
X102800000Y-71250000D02*
X102700000Y-71250000D01*
X106200000Y-71250000D02*
X106200000Y-70250000D01*
X106200000Y-70250000D02*
X106300000Y-70250000D01*
X104400000Y-70750000D02*
X104600000Y-70750000D01*
X104500000Y-70850000D02*
X104500000Y-70650000D01*
G04 #@! TO.C,U32*
X114000000Y-68950000D02*
X114200000Y-68950000D01*
X114200000Y-68950000D02*
X115800000Y-68950000D01*
X115800000Y-68950000D02*
X115800000Y-72250000D01*
X115800000Y-72250000D02*
X115500000Y-72550000D01*
X115500000Y-72550000D02*
X112200000Y-72550000D01*
X112200000Y-72550000D02*
X112200000Y-68950000D01*
X112200000Y-68950000D02*
X114000000Y-68950000D01*
D12*
X114500000Y-72550000D02*
X114500000Y-71350000D01*
X114600000Y-71250000D02*
X115800000Y-71250000D01*
X114500000Y-71350000D02*
X114500000Y-71250000D01*
X114500000Y-71250000D02*
X114600000Y-71250000D01*
D11*
X112300000Y-71250000D02*
X112300000Y-70250000D01*
X112300000Y-70250000D02*
X112200000Y-70250000D01*
X112300000Y-71250000D02*
X112200000Y-71250000D01*
X115700000Y-71250000D02*
X115700000Y-70250000D01*
X115700000Y-70250000D02*
X115800000Y-70250000D01*
X113900000Y-70750000D02*
X114100000Y-70750000D01*
X114000000Y-70850000D02*
X114000000Y-70650000D01*
G04 #@! TO.C,U33*
X123500000Y-68950000D02*
X123700000Y-68950000D01*
X123700000Y-68950000D02*
X125300000Y-68950000D01*
X125300000Y-68950000D02*
X125300000Y-72250000D01*
X125300000Y-72250000D02*
X125000000Y-72550000D01*
X125000000Y-72550000D02*
X121700000Y-72550000D01*
X121700000Y-72550000D02*
X121700000Y-68950000D01*
X121700000Y-68950000D02*
X123500000Y-68950000D01*
D12*
X124000000Y-72550000D02*
X124000000Y-71350000D01*
X124100000Y-71250000D02*
X125300000Y-71250000D01*
X124000000Y-71350000D02*
X124000000Y-71250000D01*
X124000000Y-71250000D02*
X124100000Y-71250000D01*
D11*
X121800000Y-71250000D02*
X121800000Y-70250000D01*
X121800000Y-70250000D02*
X121700000Y-70250000D01*
X121800000Y-71250000D02*
X121700000Y-71250000D01*
X125200000Y-71250000D02*
X125200000Y-70250000D01*
X125200000Y-70250000D02*
X125300000Y-70250000D01*
X123400000Y-70750000D02*
X123600000Y-70750000D01*
X123500000Y-70850000D02*
X123500000Y-70650000D01*
G04 #@! TO.C,U34*
X130500000Y-75950000D02*
X130700000Y-75950000D01*
X130700000Y-75950000D02*
X132300000Y-75950000D01*
X132300000Y-75950000D02*
X132300000Y-79250000D01*
X132300000Y-79250000D02*
X132000000Y-79550000D01*
X132000000Y-79550000D02*
X128700000Y-79550000D01*
X128700000Y-79550000D02*
X128700000Y-75950000D01*
X128700000Y-75950000D02*
X130500000Y-75950000D01*
D12*
X131000000Y-79550000D02*
X131000000Y-78350000D01*
X131100000Y-78250000D02*
X132300000Y-78250000D01*
X131000000Y-78350000D02*
X131000000Y-78250000D01*
X131000000Y-78250000D02*
X131100000Y-78250000D01*
D11*
X128800000Y-78250000D02*
X128800000Y-77250000D01*
X128800000Y-77250000D02*
X128700000Y-77250000D01*
X128800000Y-78250000D02*
X128700000Y-78250000D01*
X132200000Y-78250000D02*
X132200000Y-77250000D01*
X132200000Y-77250000D02*
X132300000Y-77250000D01*
X130400000Y-77750000D02*
X130600000Y-77750000D01*
X130500000Y-77850000D02*
X130500000Y-77650000D01*
G04 #@! TO.C,U35*
X130500000Y-85450000D02*
X130700000Y-85450000D01*
X130700000Y-85450000D02*
X132300000Y-85450000D01*
X132300000Y-85450000D02*
X132300000Y-88750000D01*
X132300000Y-88750000D02*
X132000000Y-89050000D01*
X132000000Y-89050000D02*
X128700000Y-89050000D01*
X128700000Y-89050000D02*
X128700000Y-85450000D01*
X128700000Y-85450000D02*
X130500000Y-85450000D01*
D12*
X131000000Y-89050000D02*
X131000000Y-87850000D01*
X131100000Y-87750000D02*
X132300000Y-87750000D01*
X131000000Y-87850000D02*
X131000000Y-87750000D01*
X131000000Y-87750000D02*
X131100000Y-87750000D01*
D11*
X128800000Y-87750000D02*
X128800000Y-86750000D01*
X128800000Y-86750000D02*
X128700000Y-86750000D01*
X128800000Y-87750000D02*
X128700000Y-87750000D01*
X132200000Y-87750000D02*
X132200000Y-86750000D01*
X132200000Y-86750000D02*
X132300000Y-86750000D01*
X130400000Y-87250000D02*
X130600000Y-87250000D01*
X130500000Y-87350000D02*
X130500000Y-87150000D01*
G04 #@! TO.C,U36*
X130500000Y-94950000D02*
X130700000Y-94950000D01*
X130700000Y-94950000D02*
X132300000Y-94950000D01*
X132300000Y-94950000D02*
X132300000Y-98250000D01*
X132300000Y-98250000D02*
X132000000Y-98550000D01*
X132000000Y-98550000D02*
X128700000Y-98550000D01*
X128700000Y-98550000D02*
X128700000Y-94950000D01*
X128700000Y-94950000D02*
X130500000Y-94950000D01*
D12*
X131000000Y-98550000D02*
X131000000Y-97350000D01*
X131100000Y-97250000D02*
X132300000Y-97250000D01*
X131000000Y-97350000D02*
X131000000Y-97250000D01*
X131000000Y-97250000D02*
X131100000Y-97250000D01*
D11*
X128800000Y-97250000D02*
X128800000Y-96250000D01*
X128800000Y-96250000D02*
X128700000Y-96250000D01*
X128800000Y-97250000D02*
X128700000Y-97250000D01*
X132200000Y-97250000D02*
X132200000Y-96250000D01*
X132200000Y-96250000D02*
X132300000Y-96250000D01*
X130400000Y-96750000D02*
X130600000Y-96750000D01*
X130500000Y-96850000D02*
X130500000Y-96650000D01*
G04 #@! TO.C,U37*
X130500000Y-108950000D02*
X130700000Y-108950000D01*
X130700000Y-108950000D02*
X132300000Y-108950000D01*
X132300000Y-108950000D02*
X132300000Y-112250000D01*
X132300000Y-112250000D02*
X132000000Y-112550000D01*
X132000000Y-112550000D02*
X128700000Y-112550000D01*
X128700000Y-112550000D02*
X128700000Y-108950000D01*
X128700000Y-108950000D02*
X130500000Y-108950000D01*
D12*
X131000000Y-112550000D02*
X131000000Y-111350000D01*
X131100000Y-111250000D02*
X132300000Y-111250000D01*
X131000000Y-111350000D02*
X131000000Y-111250000D01*
X131000000Y-111250000D02*
X131100000Y-111250000D01*
D11*
X128800000Y-111250000D02*
X128800000Y-110250000D01*
X128800000Y-110250000D02*
X128700000Y-110250000D01*
X128800000Y-111250000D02*
X128700000Y-111250000D01*
X132200000Y-111250000D02*
X132200000Y-110250000D01*
X132200000Y-110250000D02*
X132300000Y-110250000D01*
X130400000Y-110750000D02*
X130600000Y-110750000D01*
X130500000Y-110850000D02*
X130500000Y-110650000D01*
G04 #@! TO.C,U38*
X130500000Y-118450000D02*
X130700000Y-118450000D01*
X130700000Y-118450000D02*
X132300000Y-118450000D01*
X132300000Y-118450000D02*
X132300000Y-121750000D01*
X132300000Y-121750000D02*
X132000000Y-122050000D01*
X132000000Y-122050000D02*
X128700000Y-122050000D01*
X128700000Y-122050000D02*
X128700000Y-118450000D01*
X128700000Y-118450000D02*
X130500000Y-118450000D01*
D12*
X131000000Y-122050000D02*
X131000000Y-120850000D01*
X131100000Y-120750000D02*
X132300000Y-120750000D01*
X131000000Y-120850000D02*
X131000000Y-120750000D01*
X131000000Y-120750000D02*
X131100000Y-120750000D01*
D11*
X128800000Y-120750000D02*
X128800000Y-119750000D01*
X128800000Y-119750000D02*
X128700000Y-119750000D01*
X128800000Y-120750000D02*
X128700000Y-120750000D01*
X132200000Y-120750000D02*
X132200000Y-119750000D01*
X132200000Y-119750000D02*
X132300000Y-119750000D01*
X130400000Y-120250000D02*
X130600000Y-120250000D01*
X130500000Y-120350000D02*
X130500000Y-120150000D01*
G04 #@! TO.C,U39*
X130500000Y-127950000D02*
X130700000Y-127950000D01*
X130700000Y-127950000D02*
X132300000Y-127950000D01*
X132300000Y-127950000D02*
X132300000Y-131250000D01*
X132300000Y-131250000D02*
X132000000Y-131550000D01*
X132000000Y-131550000D02*
X128700000Y-131550000D01*
X128700000Y-131550000D02*
X128700000Y-127950000D01*
X128700000Y-127950000D02*
X130500000Y-127950000D01*
D12*
X131000000Y-131550000D02*
X131000000Y-130350000D01*
X131100000Y-130250000D02*
X132300000Y-130250000D01*
X131000000Y-130350000D02*
X131000000Y-130250000D01*
X131000000Y-130250000D02*
X131100000Y-130250000D01*
D11*
X128800000Y-130250000D02*
X128800000Y-129250000D01*
X128800000Y-129250000D02*
X128700000Y-129250000D01*
X128800000Y-130250000D02*
X128700000Y-130250000D01*
X132200000Y-130250000D02*
X132200000Y-129250000D01*
X132200000Y-129250000D02*
X132300000Y-129250000D01*
X130400000Y-129750000D02*
X130600000Y-129750000D01*
X130500000Y-129850000D02*
X130500000Y-129650000D01*
G04 #@! TO.C,U40*
X123500000Y-134950000D02*
X123700000Y-134950000D01*
X123700000Y-134950000D02*
X125300000Y-134950000D01*
X125300000Y-134950000D02*
X125300000Y-138250000D01*
X125300000Y-138250000D02*
X125000000Y-138550000D01*
X125000000Y-138550000D02*
X121700000Y-138550000D01*
X121700000Y-138550000D02*
X121700000Y-134950000D01*
X121700000Y-134950000D02*
X123500000Y-134950000D01*
D12*
X124000000Y-138550000D02*
X124000000Y-137350000D01*
X124100000Y-137250000D02*
X125300000Y-137250000D01*
X124000000Y-137350000D02*
X124000000Y-137250000D01*
X124000000Y-137250000D02*
X124100000Y-137250000D01*
D11*
X121800000Y-137250000D02*
X121800000Y-136250000D01*
X121800000Y-136250000D02*
X121700000Y-136250000D01*
X121800000Y-137250000D02*
X121700000Y-137250000D01*
X125200000Y-137250000D02*
X125200000Y-136250000D01*
X125200000Y-136250000D02*
X125300000Y-136250000D01*
X123400000Y-136750000D02*
X123600000Y-136750000D01*
X123500000Y-136850000D02*
X123500000Y-136650000D01*
G04 #@! TO.C,U41*
X114000000Y-134950000D02*
X114200000Y-134950000D01*
X114200000Y-134950000D02*
X115800000Y-134950000D01*
X115800000Y-134950000D02*
X115800000Y-138250000D01*
X115800000Y-138250000D02*
X115500000Y-138550000D01*
X115500000Y-138550000D02*
X112200000Y-138550000D01*
X112200000Y-138550000D02*
X112200000Y-134950000D01*
X112200000Y-134950000D02*
X114000000Y-134950000D01*
D12*
X114500000Y-138550000D02*
X114500000Y-137350000D01*
X114600000Y-137250000D02*
X115800000Y-137250000D01*
X114500000Y-137350000D02*
X114500000Y-137250000D01*
X114500000Y-137250000D02*
X114600000Y-137250000D01*
D11*
X112300000Y-137250000D02*
X112300000Y-136250000D01*
X112300000Y-136250000D02*
X112200000Y-136250000D01*
X112300000Y-137250000D02*
X112200000Y-137250000D01*
X115700000Y-137250000D02*
X115700000Y-136250000D01*
X115700000Y-136250000D02*
X115800000Y-136250000D01*
X113900000Y-136750000D02*
X114100000Y-136750000D01*
X114000000Y-136850000D02*
X114000000Y-136650000D01*
G04 #@! TO.C,U42*
X104500000Y-134950000D02*
X104700000Y-134950000D01*
X104700000Y-134950000D02*
X106300000Y-134950000D01*
X106300000Y-134950000D02*
X106300000Y-138250000D01*
X106300000Y-138250000D02*
X106000000Y-138550000D01*
X106000000Y-138550000D02*
X102700000Y-138550000D01*
X102700000Y-138550000D02*
X102700000Y-134950000D01*
X102700000Y-134950000D02*
X104500000Y-134950000D01*
D12*
X105000000Y-138550000D02*
X105000000Y-137350000D01*
X105100000Y-137250000D02*
X106300000Y-137250000D01*
X105000000Y-137350000D02*
X105000000Y-137250000D01*
X105000000Y-137250000D02*
X105100000Y-137250000D01*
D11*
X102800000Y-137250000D02*
X102800000Y-136250000D01*
X102800000Y-136250000D02*
X102700000Y-136250000D01*
X102800000Y-137250000D02*
X102700000Y-137250000D01*
X106200000Y-137250000D02*
X106200000Y-136250000D01*
X106200000Y-136250000D02*
X106300000Y-136250000D01*
X104400000Y-136750000D02*
X104600000Y-136750000D01*
X104500000Y-136850000D02*
X104500000Y-136650000D01*
G04 #@! TO.C,U43*
X104500000Y-101950000D02*
X104700000Y-101950000D01*
X104700000Y-101950000D02*
X106300000Y-101950000D01*
X106300000Y-101950000D02*
X106300000Y-105250000D01*
X106300000Y-105250000D02*
X106000000Y-105550000D01*
X106000000Y-105550000D02*
X102700000Y-105550000D01*
X102700000Y-105550000D02*
X102700000Y-101950000D01*
X102700000Y-101950000D02*
X104500000Y-101950000D01*
D12*
X105000000Y-105550000D02*
X105000000Y-104350000D01*
X105100000Y-104250000D02*
X106300000Y-104250000D01*
X105000000Y-104350000D02*
X105000000Y-104250000D01*
X105000000Y-104250000D02*
X105100000Y-104250000D01*
D11*
X102800000Y-104250000D02*
X102800000Y-103250000D01*
X102800000Y-103250000D02*
X102700000Y-103250000D01*
X102800000Y-104250000D02*
X102700000Y-104250000D01*
X106200000Y-104250000D02*
X106200000Y-103250000D01*
X106200000Y-103250000D02*
X106300000Y-103250000D01*
X104400000Y-103750000D02*
X104600000Y-103750000D01*
X104500000Y-103850000D02*
X104500000Y-103650000D01*
G04 #@! TO.C,U44*
X114000000Y-101950000D02*
X114200000Y-101950000D01*
X114200000Y-101950000D02*
X115800000Y-101950000D01*
X115800000Y-101950000D02*
X115800000Y-105250000D01*
X115800000Y-105250000D02*
X115500000Y-105550000D01*
X115500000Y-105550000D02*
X112200000Y-105550000D01*
X112200000Y-105550000D02*
X112200000Y-101950000D01*
X112200000Y-101950000D02*
X114000000Y-101950000D01*
D12*
X114500000Y-105550000D02*
X114500000Y-104350000D01*
X114600000Y-104250000D02*
X115800000Y-104250000D01*
X114500000Y-104350000D02*
X114500000Y-104250000D01*
X114500000Y-104250000D02*
X114600000Y-104250000D01*
D11*
X112300000Y-104250000D02*
X112300000Y-103250000D01*
X112300000Y-103250000D02*
X112200000Y-103250000D01*
X112300000Y-104250000D02*
X112200000Y-104250000D01*
X115700000Y-104250000D02*
X115700000Y-103250000D01*
X115700000Y-103250000D02*
X115800000Y-103250000D01*
X113900000Y-103750000D02*
X114100000Y-103750000D01*
X114000000Y-103850000D02*
X114000000Y-103650000D01*
G04 #@! TO.C,U45*
X123500000Y-101950000D02*
X123700000Y-101950000D01*
X123700000Y-101950000D02*
X125300000Y-101950000D01*
X125300000Y-101950000D02*
X125300000Y-105250000D01*
X125300000Y-105250000D02*
X125000000Y-105550000D01*
X125000000Y-105550000D02*
X121700000Y-105550000D01*
X121700000Y-105550000D02*
X121700000Y-101950000D01*
X121700000Y-101950000D02*
X123500000Y-101950000D01*
D12*
X124000000Y-105550000D02*
X124000000Y-104350000D01*
X124100000Y-104250000D02*
X125300000Y-104250000D01*
X124000000Y-104350000D02*
X124000000Y-104250000D01*
X124000000Y-104250000D02*
X124100000Y-104250000D01*
D11*
X121800000Y-104250000D02*
X121800000Y-103250000D01*
X121800000Y-103250000D02*
X121700000Y-103250000D01*
X121800000Y-104250000D02*
X121700000Y-104250000D01*
X125200000Y-104250000D02*
X125200000Y-103250000D01*
X125200000Y-103250000D02*
X125300000Y-103250000D01*
X123400000Y-103750000D02*
X123600000Y-103750000D01*
X123500000Y-103850000D02*
X123500000Y-103650000D01*
G04 #@! TO.C,U46*
X140250000Y-96950000D02*
X140450000Y-96950000D01*
X140450000Y-96950000D02*
X142050000Y-96950000D01*
X142050000Y-96950000D02*
X142050000Y-100250000D01*
X142050000Y-100250000D02*
X141750000Y-100550000D01*
X141750000Y-100550000D02*
X138450000Y-100550000D01*
X138450000Y-100550000D02*
X138450000Y-96950000D01*
X138450000Y-96950000D02*
X140250000Y-96950000D01*
D12*
X140750000Y-100550000D02*
X140750000Y-99350000D01*
X140850000Y-99250000D02*
X142050000Y-99250000D01*
X140750000Y-99350000D02*
X140750000Y-99250000D01*
X140750000Y-99250000D02*
X140850000Y-99250000D01*
D11*
X138550000Y-99250000D02*
X138550000Y-98250000D01*
X138550000Y-98250000D02*
X138450000Y-98250000D01*
X138550000Y-99250000D02*
X138450000Y-99250000D01*
X141950000Y-99250000D02*
X141950000Y-98250000D01*
X141950000Y-98250000D02*
X142050000Y-98250000D01*
X140150000Y-98750000D02*
X140350000Y-98750000D01*
X140250000Y-98850000D02*
X140250000Y-98650000D01*
G04 #@! TO.C,U47*
X140250000Y-106950000D02*
X140450000Y-106950000D01*
X140450000Y-106950000D02*
X142050000Y-106950000D01*
X142050000Y-106950000D02*
X142050000Y-110250000D01*
X142050000Y-110250000D02*
X141750000Y-110550000D01*
X141750000Y-110550000D02*
X138450000Y-110550000D01*
X138450000Y-110550000D02*
X138450000Y-106950000D01*
X138450000Y-106950000D02*
X140250000Y-106950000D01*
D12*
X140750000Y-110550000D02*
X140750000Y-109350000D01*
X140850000Y-109250000D02*
X142050000Y-109250000D01*
X140750000Y-109350000D02*
X140750000Y-109250000D01*
X140750000Y-109250000D02*
X140850000Y-109250000D01*
D11*
X138550000Y-109250000D02*
X138550000Y-108250000D01*
X138550000Y-108250000D02*
X138450000Y-108250000D01*
X138550000Y-109250000D02*
X138450000Y-109250000D01*
X141950000Y-109250000D02*
X141950000Y-108250000D01*
X141950000Y-108250000D02*
X142050000Y-108250000D01*
X140150000Y-108750000D02*
X140350000Y-108750000D01*
X140250000Y-108850000D02*
X140250000Y-108650000D01*
G04 #@! TD*
M02*
