G04 #@! TF.GenerationSoftware,KiCad,Pcbnew,(5.0.0)*
G04 #@! TF.CreationDate,2020-11-20T22:11:44-05:00*
G04 #@! TF.ProjectId,WS2812B Mini Clock,57533238313242204D696E6920436C6F,rev?*
G04 #@! TF.SameCoordinates,Original*
G04 #@! TF.FileFunction,Copper,L2,Bot,Signal*
G04 #@! TF.FilePolarity,Positive*
%FSLAX46Y46*%
G04 Gerber Fmt 4.6, Leading zero omitted, Abs format (unit mm)*
G04 Created by KiCad (PCBNEW (5.0.0)) date 11/20/20 22:11:44*
%MOMM*%
%LPD*%
G01*
G04 APERTURE LIST*
G04 #@! TA.AperFunction,ComponentPad*
%ADD10C,5.000000*%
G04 #@! TD*
G04 #@! TA.AperFunction,ComponentPad*
%ADD11C,2.500000*%
G04 #@! TD*
G04 #@! TA.AperFunction,SMDPad,CuDef*
%ADD12R,2.500000X1.425000*%
G04 #@! TD*
G04 #@! TA.AperFunction,SMDPad,CuDef*
%ADD13R,0.700000X1.825000*%
G04 #@! TD*
G04 #@! TA.AperFunction,ComponentPad*
%ADD14O,3.150000X1.300000*%
G04 #@! TD*
G04 #@! TA.AperFunction,SMDPad,CuDef*
%ADD15R,1.750000X0.400000*%
G04 #@! TD*
G04 #@! TA.AperFunction,ComponentPad*
%ADD16R,1.400000X2.000000*%
G04 #@! TD*
G04 #@! TA.AperFunction,SMDPad,CuDef*
%ADD17R,1.550000X0.600000*%
G04 #@! TD*
G04 #@! TA.AperFunction,SMDPad,CuDef*
%ADD18R,1.250000X1.500000*%
G04 #@! TD*
G04 #@! TA.AperFunction,SMDPad,CuDef*
%ADD19R,1.500000X1.250000*%
G04 #@! TD*
G04 #@! TA.AperFunction,ComponentPad*
%ADD20R,1.000000X1.000000*%
G04 #@! TD*
G04 #@! TA.AperFunction,ComponentPad*
%ADD21O,1.000000X1.000000*%
G04 #@! TD*
G04 #@! TA.AperFunction,SMDPad,CuDef*
%ADD22R,0.500000X0.900000*%
G04 #@! TD*
G04 #@! TA.AperFunction,SMDPad,CuDef*
%ADD23R,1.500000X0.600000*%
G04 #@! TD*
G04 #@! TA.AperFunction,SMDPad,CuDef*
%ADD24R,1.200000X1.200000*%
G04 #@! TD*
G04 #@! TA.AperFunction,SMDPad,CuDef*
%ADD25R,0.900000X0.500000*%
G04 #@! TD*
G04 #@! TA.AperFunction,SMDPad,CuDef*
%ADD26R,1.550000X1.300000*%
G04 #@! TD*
G04 #@! TA.AperFunction,SMDPad,CuDef*
%ADD27R,0.600000X1.910000*%
G04 #@! TD*
G04 #@! TA.AperFunction,ComponentPad*
%ADD28C,1.500000*%
G04 #@! TD*
G04 #@! TA.AperFunction,ComponentPad*
%ADD29R,3.500000X3.500000*%
G04 #@! TD*
G04 #@! TA.AperFunction,SMDPad,CuDef*
%ADD30R,2.000000X3.800000*%
G04 #@! TD*
G04 #@! TA.AperFunction,SMDPad,CuDef*
%ADD31R,2.000000X1.500000*%
G04 #@! TD*
G04 #@! TA.AperFunction,ViaPad*
%ADD32C,0.800000*%
G04 #@! TD*
G04 #@! TA.AperFunction,Conductor*
%ADD33C,0.400000*%
G04 #@! TD*
G04 #@! TA.AperFunction,Conductor*
%ADD34C,0.254000*%
G04 #@! TD*
G04 APERTURE END LIST*
D10*
G04 #@! TO.P,REF3,1*
G04 #@! TO.N,N/C*
X228000000Y-69500000D03*
G04 #@! TD*
G04 #@! TO.P,REF4,1*
G04 #@! TO.N,N/C*
X228000000Y-138000000D03*
G04 #@! TD*
G04 #@! TO.P,REF2,1*
G04 #@! TO.N,N/C*
X52000000Y-69500000D03*
G04 #@! TD*
D11*
G04 #@! TO.P,U24,2*
G04 #@! TO.N,Net-(U24-Pad2)*
X92618272Y-140881728D03*
G04 #@! TO.P,U24,1*
G04 #@! TO.N,GND*
X106406854Y-127093146D03*
G04 #@! TD*
D12*
G04 #@! TO.P,USB1,SH*
G04 #@! TO.N,N/C*
X46550000Y-104800000D03*
D13*
X48510000Y-100810000D03*
D14*
X47280000Y-101075000D03*
D15*
G04 #@! TO.P,USB1,5*
G04 #@! TO.N,GND*
X49625000Y-102500000D03*
G04 #@! TO.P,USB1,4*
G04 #@! TO.N,N/C*
X49625000Y-103150000D03*
G04 #@! TO.P,USB1,3*
X49625000Y-103800000D03*
G04 #@! TO.P,USB1,2*
X49625000Y-104450000D03*
D16*
G04 #@! TO.P,USB1,SH*
X49830000Y-100375000D03*
D15*
G04 #@! TO.P,USB1,1*
G04 #@! TO.N,+5V*
X49625000Y-105100000D03*
D16*
G04 #@! TO.P,USB1,SH*
G04 #@! TO.N,N/C*
X49830000Y-107225000D03*
D14*
X47280000Y-106525000D03*
D13*
X48510000Y-106790000D03*
D12*
X46550000Y-102800000D03*
G04 #@! TD*
D17*
G04 #@! TO.P,MCU1,8*
G04 #@! TO.N,+5V*
X59150000Y-109350000D03*
G04 #@! TO.P,MCU1,7*
G04 #@! TO.N,SCL*
X59150000Y-110615000D03*
G04 #@! TO.P,MCU1,6*
G04 #@! TO.N,DIN*
X59150000Y-111885000D03*
G04 #@! TO.P,MCU1,5*
G04 #@! TO.N,SDA*
X59150000Y-113155000D03*
G04 #@! TO.P,MCU1,4*
G04 #@! TO.N,GND*
X66150000Y-113155000D03*
G04 #@! TO.P,MCU1,3*
G04 #@! TO.N,N/C*
X66150000Y-111885000D03*
G04 #@! TO.P,MCU1,2*
G04 #@! TO.N,INT*
X66150000Y-110615000D03*
G04 #@! TO.P,MCU1,1*
G04 #@! TO.N,RST*
X66150000Y-109345000D03*
G04 #@! TD*
D18*
G04 #@! TO.P,C3,1*
G04 #@! TO.N,+5V*
X128000000Y-139250000D03*
G04 #@! TO.P,C3,2*
G04 #@! TO.N,GND*
X128000000Y-141750000D03*
G04 #@! TD*
G04 #@! TO.P,C4,1*
G04 #@! TO.N,+5V*
X76500000Y-128000000D03*
G04 #@! TO.P,C4,2*
G04 #@! TO.N,GND*
X76500000Y-125500000D03*
G04 #@! TD*
D19*
G04 #@! TO.P,C5,1*
G04 #@! TO.N,+5V*
X63500000Y-89500000D03*
G04 #@! TO.P,C5,2*
G04 #@! TO.N,GND*
X61000000Y-89500000D03*
G04 #@! TD*
D18*
G04 #@! TO.P,C6,1*
G04 #@! TO.N,+5V*
X128500000Y-68250000D03*
G04 #@! TO.P,C6,2*
G04 #@! TO.N,GND*
X128500000Y-65750000D03*
G04 #@! TD*
D19*
G04 #@! TO.P,C7,1*
G04 #@! TO.N,+5V*
X61500000Y-105500000D03*
G04 #@! TO.P,C7,2*
G04 #@! TO.N,GND*
X64000000Y-105500000D03*
G04 #@! TD*
D20*
G04 #@! TO.P,J1,1*
G04 #@! TO.N,SCL*
X60000000Y-94000000D03*
D21*
G04 #@! TO.P,J1,2*
G04 #@! TO.N,GND*
X60000000Y-95270000D03*
G04 #@! TO.P,J1,3*
G04 #@! TO.N,DIN*
X61270000Y-94000000D03*
G04 #@! TO.P,J1,4*
G04 #@! TO.N,+5V*
X61270000Y-95270000D03*
G04 #@! TO.P,J1,5*
G04 #@! TO.N,N/C*
X62540000Y-94000000D03*
G04 #@! TO.P,J1,6*
G04 #@! TO.N,RST*
X62540000Y-95270000D03*
G04 #@! TO.P,J1,7*
G04 #@! TO.N,+5V*
X63810000Y-94000000D03*
G04 #@! TO.P,J1,8*
G04 #@! TO.N,N/C*
X63810000Y-95270000D03*
G04 #@! TO.P,J1,9*
G04 #@! TO.N,SDA*
X65080000Y-94000000D03*
G04 #@! TO.P,J1,10*
G04 #@! TO.N,GND*
X65080000Y-95270000D03*
G04 #@! TD*
D22*
G04 #@! TO.P,R1,1*
G04 #@! TO.N,+5V*
X70500000Y-109000000D03*
G04 #@! TO.P,R1,2*
G04 #@! TO.N,RST*
X69000000Y-109000000D03*
G04 #@! TD*
G04 #@! TO.P,R2,1*
G04 #@! TO.N,+5V*
X54500000Y-113000000D03*
G04 #@! TO.P,R2,2*
G04 #@! TO.N,SDA*
X56000000Y-113000000D03*
G04 #@! TD*
D23*
G04 #@! TO.P,U25,1*
G04 #@! TO.N,N/C*
X84150000Y-109555000D03*
G04 #@! TO.P,U25,2*
G04 #@! TO.N,+5V*
X84150000Y-110825000D03*
G04 #@! TO.P,U25,3*
G04 #@! TO.N,N/C*
X84150000Y-112095000D03*
G04 #@! TO.P,U25,4*
X84150000Y-113365000D03*
G04 #@! TO.P,U25,5*
G04 #@! TO.N,GND*
X84150000Y-114635000D03*
G04 #@! TO.P,U25,6*
X84150000Y-115905000D03*
G04 #@! TO.P,U25,7*
X84150000Y-117175000D03*
G04 #@! TO.P,U25,8*
X84150000Y-118445000D03*
G04 #@! TO.P,U25,9*
X74850000Y-118445000D03*
G04 #@! TO.P,U25,10*
X74850000Y-117175000D03*
G04 #@! TO.P,U25,11*
X74850000Y-115905000D03*
G04 #@! TO.P,U25,12*
X74850000Y-114635000D03*
G04 #@! TO.P,U25,13*
X74850000Y-113365000D03*
G04 #@! TO.P,U25,14*
G04 #@! TO.N,Net-(U24-Pad2)*
X74850000Y-112095000D03*
G04 #@! TO.P,U25,15*
G04 #@! TO.N,SDA*
X74850000Y-110825000D03*
G04 #@! TO.P,U25,16*
G04 #@! TO.N,SCL*
X74850000Y-109555000D03*
G04 #@! TD*
D22*
G04 #@! TO.P,R3,1*
G04 #@! TO.N,+5V*
X54500000Y-110500000D03*
G04 #@! TO.P,R3,2*
G04 #@! TO.N,SCL*
X56000000Y-110500000D03*
G04 #@! TD*
D24*
G04 #@! TO.P,D1,2*
G04 #@! TO.N,Net-(D1-Pad2)*
X73100000Y-85750000D03*
G04 #@! TO.P,D1,1*
G04 #@! TO.N,GND*
X70900000Y-85750000D03*
G04 #@! TD*
G04 #@! TO.P,D2,2*
G04 #@! TO.N,Net-(D2-Pad2)*
X117600000Y-85750000D03*
G04 #@! TO.P,D2,1*
G04 #@! TO.N,GND*
X115400000Y-85750000D03*
G04 #@! TD*
G04 #@! TO.P,D3,2*
G04 #@! TO.N,Net-(D3-Pad2)*
X94350000Y-85750000D03*
G04 #@! TO.P,D3,1*
G04 #@! TO.N,GND*
X92150000Y-85750000D03*
G04 #@! TD*
D25*
G04 #@! TO.P,R4,1*
G04 #@! TO.N,Net-(R4-Pad1)*
X74000000Y-134500000D03*
G04 #@! TO.P,R4,2*
G04 #@! TO.N,GND*
X74000000Y-136000000D03*
G04 #@! TD*
G04 #@! TO.P,R5,1*
G04 #@! TO.N,Net-(R5-Pad1)*
X72000000Y-134500000D03*
G04 #@! TO.P,R5,2*
G04 #@! TO.N,GND*
X72000000Y-136000000D03*
G04 #@! TD*
G04 #@! TO.P,R6,1*
G04 #@! TO.N,Net-(R6-Pad1)*
X70000000Y-134500000D03*
G04 #@! TO.P,R6,2*
G04 #@! TO.N,GND*
X70000000Y-136000000D03*
G04 #@! TD*
G04 #@! TO.P,R7,1*
G04 #@! TO.N,Net-(R7-Pad1)*
X68000000Y-134500000D03*
G04 #@! TO.P,R7,2*
G04 #@! TO.N,+5V*
X68000000Y-136000000D03*
G04 #@! TD*
G04 #@! TO.P,R8,1*
G04 #@! TO.N,Net-(D1-Pad2)*
X56000000Y-118250000D03*
G04 #@! TO.P,R8,2*
G04 #@! TO.N,LED0*
X56000000Y-119750000D03*
G04 #@! TD*
G04 #@! TO.P,R9,1*
G04 #@! TO.N,Net-(D2-Pad2)*
X58000000Y-118250000D03*
G04 #@! TO.P,R9,2*
G04 #@! TO.N,LED1*
X58000000Y-119750000D03*
G04 #@! TD*
G04 #@! TO.P,R10,1*
G04 #@! TO.N,Net-(D3-Pad2)*
X60000000Y-118250000D03*
G04 #@! TO.P,R10,2*
G04 #@! TO.N,LED2*
X60000000Y-119750000D03*
G04 #@! TD*
D26*
G04 #@! TO.P,SW0,1*
G04 #@! TO.N,BTN0*
X68025000Y-83000000D03*
X75975000Y-83000000D03*
G04 #@! TO.P,SW0,2*
G04 #@! TO.N,GND*
X68025000Y-78500000D03*
X75975000Y-78500000D03*
G04 #@! TD*
G04 #@! TO.P,SW1,1*
G04 #@! TO.N,BTN1*
X112525000Y-83000000D03*
X120475000Y-83000000D03*
G04 #@! TO.P,SW1,2*
G04 #@! TO.N,GND*
X112525000Y-78500000D03*
X120475000Y-78500000D03*
G04 #@! TD*
G04 #@! TO.P,SW2,1*
G04 #@! TO.N,BTN2*
X89275000Y-83000000D03*
X97225000Y-83000000D03*
G04 #@! TO.P,SW2,2*
G04 #@! TO.N,GND*
X89275000Y-78500000D03*
X97225000Y-78500000D03*
G04 #@! TD*
G04 #@! TO.P,SW3,1*
G04 #@! TO.N,BTN3*
X83275000Y-102750000D03*
X91225000Y-102750000D03*
G04 #@! TO.P,SW3,2*
G04 #@! TO.N,GND*
X83275000Y-98250000D03*
X91225000Y-98250000D03*
G04 #@! TD*
G04 #@! TO.P,SW4,1*
G04 #@! TO.N,BTN4*
X112525000Y-102750000D03*
X120475000Y-102750000D03*
G04 #@! TO.P,SW4,2*
G04 #@! TO.N,GND*
X112525000Y-98250000D03*
X120475000Y-98250000D03*
G04 #@! TD*
G04 #@! TO.P,SW5,1*
G04 #@! TO.N,BTN5*
X112525000Y-121750000D03*
X120475000Y-121750000D03*
G04 #@! TO.P,SW5,2*
G04 #@! TO.N,GND*
X112525000Y-117250000D03*
X120475000Y-117250000D03*
G04 #@! TD*
D27*
G04 #@! TO.P,U26,28*
G04 #@! TO.N,N/C*
X56745000Y-131610000D03*
G04 #@! TO.P,U26,27*
X58015000Y-131610000D03*
G04 #@! TO.P,U26,26*
G04 #@! TO.N,BTN5*
X59285000Y-131610000D03*
G04 #@! TO.P,U26,25*
G04 #@! TO.N,BTN4*
X60555000Y-131610000D03*
G04 #@! TO.P,U26,24*
G04 #@! TO.N,BTN3*
X61825000Y-131610000D03*
G04 #@! TO.P,U26,23*
G04 #@! TO.N,BTN2*
X63095000Y-131610000D03*
G04 #@! TO.P,U26,22*
G04 #@! TO.N,BTN1*
X64365000Y-131610000D03*
G04 #@! TO.P,U26,21*
G04 #@! TO.N,BTN0*
X65635000Y-131610000D03*
G04 #@! TO.P,U26,20*
G04 #@! TO.N,INT*
X66905000Y-131610000D03*
G04 #@! TO.P,U26,19*
G04 #@! TO.N,N/C*
X68175000Y-131610000D03*
G04 #@! TO.P,U26,18*
G04 #@! TO.N,Net-(R7-Pad1)*
X69445000Y-131610000D03*
G04 #@! TO.P,U26,17*
G04 #@! TO.N,Net-(R6-Pad1)*
X70715000Y-131610000D03*
G04 #@! TO.P,U26,16*
G04 #@! TO.N,Net-(R5-Pad1)*
X71985000Y-131610000D03*
G04 #@! TO.P,U26,15*
G04 #@! TO.N,Net-(R4-Pad1)*
X73255000Y-131610000D03*
G04 #@! TO.P,U26,14*
G04 #@! TO.N,N/C*
X73255000Y-122390000D03*
G04 #@! TO.P,U26,13*
G04 #@! TO.N,SDA*
X71985000Y-122390000D03*
G04 #@! TO.P,U26,12*
G04 #@! TO.N,SCL*
X70715000Y-122390000D03*
G04 #@! TO.P,U26,11*
G04 #@! TO.N,N/C*
X69445000Y-122390000D03*
G04 #@! TO.P,U26,10*
G04 #@! TO.N,GND*
X68175000Y-122390000D03*
G04 #@! TO.P,U26,9*
G04 #@! TO.N,+5V*
X66905000Y-122390000D03*
G04 #@! TO.P,U26,8*
G04 #@! TO.N,N/C*
X65635000Y-122390000D03*
G04 #@! TO.P,U26,7*
X64365000Y-122390000D03*
G04 #@! TO.P,U26,6*
X63095000Y-122390000D03*
G04 #@! TO.P,U26,5*
X61825000Y-122390000D03*
G04 #@! TO.P,U26,4*
X60555000Y-122390000D03*
G04 #@! TO.P,U26,3*
G04 #@! TO.N,LED2*
X59285000Y-122390000D03*
G04 #@! TO.P,U26,2*
G04 #@! TO.N,LED1*
X58015000Y-122390000D03*
G04 #@! TO.P,U26,1*
G04 #@! TO.N,LED0*
X56745000Y-122390000D03*
G04 #@! TD*
D10*
G04 #@! TO.P,REF\002A\002A,1*
G04 #@! TO.N,N/C*
X52000000Y-138000000D03*
G04 #@! TD*
D28*
G04 #@! TO.P,J2,1*
G04 #@! TO.N,+5V*
X111000000Y-143000000D03*
G04 #@! TD*
G04 #@! TO.P,J3,1*
G04 #@! TO.N,GND*
X121000000Y-143000000D03*
G04 #@! TD*
D29*
G04 #@! TO.P,J4,1*
G04 #@! TO.N,Net-(J4-Pad1)*
X141200000Y-130800000D03*
G04 #@! TO.P,J4,2*
G04 #@! TO.N,GND*
X141200000Y-136800000D03*
G04 #@! TO.P,J4,3*
G04 #@! TO.N,N/C*
X136500000Y-133800000D03*
G04 #@! TD*
D30*
G04 #@! TO.P,U90,2*
G04 #@! TO.N,+5V*
X142750000Y-125000000D03*
D31*
X136450000Y-125000000D03*
G04 #@! TO.P,U90,3*
G04 #@! TO.N,Net-(J4-Pad1)*
X136450000Y-122700000D03*
G04 #@! TO.P,U90,1*
G04 #@! TO.N,GND*
X136450000Y-127300000D03*
G04 #@! TD*
D32*
G04 #@! TO.N,DIN*
X59014700Y-117102400D03*
G04 #@! TO.N,GND*
X51321000Y-102686400D03*
X75110800Y-134741000D03*
X68465900Y-120633300D03*
X61250000Y-87451700D03*
X130600000Y-64424000D03*
X63206300Y-104050100D03*
X125762500Y-143075900D03*
X121935500Y-98239200D03*
X114762500Y-99270500D03*
X97506100Y-80620200D03*
X82765000Y-96846200D03*
X75046400Y-125934800D03*
X75116100Y-119605700D03*
X69550000Y-85589200D03*
X66462500Y-114068300D03*
X86693800Y-115564200D03*
X114050000Y-85589200D03*
X90800000Y-85589200D03*
X66693800Y-80620200D03*
X74618800Y-80620200D03*
X114762500Y-78651100D03*
X122700000Y-78651100D03*
X91250000Y-78651100D03*
X90962500Y-100340400D03*
X114762500Y-117066600D03*
X122700000Y-117066600D03*
X136743800Y-128698800D03*
X51600000Y-125400000D03*
X63800000Y-109000000D03*
X65200000Y-117200000D03*
X52800000Y-91600000D03*
X89200000Y-123600000D03*
X90800000Y-116600000D03*
X63000000Y-120200000D03*
X69000000Y-117000000D03*
X59200000Y-126000000D03*
X55400000Y-125200000D03*
X95000000Y-81600000D03*
X97600000Y-92000000D03*
X83600000Y-72800000D03*
X104600000Y-116600000D03*
X130600000Y-120800000D03*
X176000000Y-104600000D03*
X171000000Y-104600000D03*
X183000000Y-104800000D03*
X185800000Y-82000000D03*
X188800000Y-86600000D03*
X196400000Y-90600000D03*
X188600000Y-126400000D03*
X194400000Y-133000000D03*
X82000000Y-116800000D03*
X80800000Y-109600000D03*
X62200000Y-116000000D03*
X72000000Y-108000000D03*
X64800000Y-97600000D03*
X58400000Y-98800000D03*
X73400000Y-116600000D03*
X56400000Y-92550000D03*
X84350000Y-104950000D03*
X85000000Y-100900000D03*
X86250000Y-126350000D03*
X150850000Y-124650000D03*
X154600000Y-129500000D03*
X125350000Y-99550000D03*
X140900000Y-111900000D03*
X137150000Y-112550000D03*
X47850000Y-109250000D03*
G04 #@! TO.N,+5V*
X77075000Y-133967800D03*
X128618800Y-69638000D03*
G04 #@! TO.N,Net-(U18-Pad2)*
X57910200Y-136287000D03*
X54639800Y-114732100D03*
G04 #@! TO.N,SCL*
X61371200Y-111140900D03*
X70483100Y-112687900D03*
G04 #@! TO.N,BTN1*
X76524800Y-123684500D03*
X64688800Y-130001300D03*
G04 #@! TO.N,BTN2*
X71031400Y-127753700D03*
X63368800Y-127566900D03*
G04 #@! TO.N,Net-(U24-Pad2)*
X53009800Y-130269600D03*
X72411300Y-119968800D03*
G04 #@! TO.N,Net-(U22-Pad2)*
X97320500Y-131334300D03*
X105965800Y-119502300D03*
G04 #@! TO.N,Net-(U42-Pad2)*
X104951400Y-135922800D03*
X106924300Y-124112200D03*
G04 #@! TO.N,Net-(U45-Pad2)*
X129583300Y-100588200D03*
X140975000Y-97246400D03*
G04 #@! TO.N,Net-(D1-Pad2)*
X56068300Y-115878600D03*
X73864700Y-101994300D03*
G04 #@! TO.N,Net-(D2-Pad2)*
X59000000Y-118916400D03*
X81675600Y-119184200D03*
G04 #@! TO.N,Net-(D3-Pad2)*
X65131100Y-115063700D03*
X78320000Y-106837100D03*
G04 #@! TO.N,INT*
X63621400Y-111551700D03*
X57173000Y-114274300D03*
X59959400Y-134561100D03*
X64100500Y-134020700D03*
G04 #@! TO.N,BTN3*
X77966200Y-119871500D03*
X61822500Y-128552700D03*
G04 #@! TO.N,Net-(U49-Pad4)*
X145206300Y-111626100D03*
X150050200Y-95873700D03*
G04 #@! TO.N,Net-(U64-Pad4)*
X157048400Y-136737000D03*
X156902800Y-104587300D03*
G04 #@! TO.N,Net-(U66-Pad4)*
X194329100Y-97849100D03*
X190556000Y-110991500D03*
G04 #@! TO.N,Net-(U81-Pad4)*
X201063400Y-102306000D03*
X198927400Y-136436900D03*
G04 #@! TD*
D33*
G04 #@! TO.N,DIN*
X61270000Y-94000000D02*
X61270000Y-93099700D01*
X61270000Y-93099700D02*
X59326800Y-93099700D01*
X59326800Y-93099700D02*
X55297200Y-97129300D01*
X55297200Y-97129300D02*
X55297200Y-111097300D01*
X55297200Y-111097300D02*
X56084900Y-111885000D01*
X56084900Y-111885000D02*
X59150000Y-111885000D01*
X59150000Y-111885000D02*
X60325300Y-111885000D01*
X59014700Y-117102400D02*
X60325300Y-115791800D01*
X60325300Y-115791800D02*
X60325300Y-111885000D01*
G04 #@! TO.N,GND*
X51321000Y-102686400D02*
X51134600Y-102500000D01*
X51134600Y-102500000D02*
X49625000Y-102500000D01*
X84437600Y-117175000D02*
X84150000Y-117462600D01*
X84150000Y-117462600D02*
X84150000Y-118445000D01*
X84437600Y-117175000D02*
X84725200Y-117175000D01*
X84150000Y-117175000D02*
X84437600Y-117175000D01*
X75110800Y-134741000D02*
X74177000Y-135674800D01*
X74177000Y-135674800D02*
X74000000Y-135674800D01*
X72000000Y-136000000D02*
X72850300Y-136000000D01*
X74000000Y-135674800D02*
X73175500Y-135674800D01*
X73175500Y-135674800D02*
X72850300Y-136000000D01*
X74000000Y-136000000D02*
X74000000Y-135674800D01*
X68465900Y-120633300D02*
X68175000Y-120924200D01*
X68175000Y-120924200D02*
X68175000Y-122390000D01*
X61250000Y-87451700D02*
X61000000Y-87701700D01*
X61000000Y-87701700D02*
X61000000Y-89500000D01*
X128500000Y-65750000D02*
X129525300Y-65750000D01*
X130600000Y-64424000D02*
X129525300Y-65498700D01*
X129525300Y-65498700D02*
X129525300Y-65750000D01*
X84725200Y-115905000D02*
X85300300Y-115905000D01*
X84150000Y-115905000D02*
X84725200Y-115905000D01*
X84725200Y-115905000D02*
X84725200Y-117175000D01*
X64000000Y-105500000D02*
X64000000Y-104474700D01*
X63206300Y-104050100D02*
X63630900Y-104474700D01*
X63630900Y-104474700D02*
X64000000Y-104474700D01*
X128000000Y-141750000D02*
X126974700Y-141750000D01*
X125762500Y-143075900D02*
X126974700Y-141863700D01*
X126974700Y-141863700D02*
X126974700Y-141750000D01*
X120475000Y-98250000D02*
X121650300Y-98250000D01*
X121935500Y-98239200D02*
X121661100Y-98239200D01*
X121661100Y-98239200D02*
X121650300Y-98250000D01*
X112525000Y-98250000D02*
X113700300Y-98250000D01*
X114762500Y-99270500D02*
X114720800Y-99270500D01*
X114720800Y-99270500D02*
X113700300Y-98250000D01*
X97506100Y-80620200D02*
X97225000Y-80339100D01*
X97225000Y-80339100D02*
X97225000Y-78500000D01*
X83275000Y-98250000D02*
X83275000Y-97199700D01*
X82765000Y-96846200D02*
X83118500Y-97199700D01*
X83118500Y-97199700D02*
X83275000Y-97199700D01*
X76500000Y-125500000D02*
X75474700Y-125500000D01*
X75046400Y-125934800D02*
X75474700Y-125506500D01*
X75474700Y-125506500D02*
X75474700Y-125500000D01*
X75116100Y-118445000D02*
X76000300Y-118445000D01*
X74850000Y-118445000D02*
X75116100Y-118445000D01*
X75116100Y-119605700D02*
X75116100Y-118445000D01*
X70900000Y-85750000D02*
X69899700Y-85750000D01*
X69550000Y-85589200D02*
X69738900Y-85589200D01*
X69738900Y-85589200D02*
X69899700Y-85750000D01*
X74850000Y-113365000D02*
X76000300Y-113365000D01*
X74850000Y-114635000D02*
X76000300Y-114635000D01*
X74850000Y-115905000D02*
X76000300Y-115905000D01*
X74850000Y-117175000D02*
X76000300Y-117175000D01*
X66462500Y-114068300D02*
X66150000Y-113755800D01*
X66150000Y-113755800D02*
X66150000Y-113155000D01*
X72000000Y-136000000D02*
X70000000Y-136000000D01*
X85300300Y-115564200D02*
X85300300Y-115905000D01*
X85300300Y-114635000D02*
X85300300Y-115564200D01*
X86693800Y-115564200D02*
X85300300Y-115564200D01*
X84150000Y-114635000D02*
X85300300Y-114635000D01*
X76000300Y-118445000D02*
X76000300Y-117175000D01*
X76000300Y-117175000D02*
X76000300Y-115905000D01*
X76000300Y-115905000D02*
X76000300Y-114635000D01*
X76000300Y-114635000D02*
X76000300Y-113365000D01*
X115400000Y-85750000D02*
X114399700Y-85750000D01*
X114050000Y-85589200D02*
X114238900Y-85589200D01*
X114238900Y-85589200D02*
X114399700Y-85750000D01*
X92150000Y-85750000D02*
X91149700Y-85750000D01*
X90800000Y-85589200D02*
X90988900Y-85589200D01*
X90988900Y-85589200D02*
X91149700Y-85750000D01*
X68025000Y-78500000D02*
X68025000Y-79550300D01*
X66693800Y-80620200D02*
X67763700Y-79550300D01*
X67763700Y-79550300D02*
X68025000Y-79550300D01*
X75975000Y-78500000D02*
X75975000Y-79550300D01*
X74618800Y-80620200D02*
X75688700Y-79550300D01*
X75688700Y-79550300D02*
X75975000Y-79550300D01*
X112525000Y-78500000D02*
X113700300Y-78500000D01*
X114762500Y-78651100D02*
X113851400Y-78651100D01*
X113851400Y-78651100D02*
X113700300Y-78500000D01*
X120475000Y-78500000D02*
X121650300Y-78500000D01*
X122700000Y-78651100D02*
X121801400Y-78651100D01*
X121801400Y-78651100D02*
X121650300Y-78500000D01*
X89275000Y-78500000D02*
X90450300Y-78500000D01*
X91250000Y-78651100D02*
X90601400Y-78651100D01*
X90601400Y-78651100D02*
X90450300Y-78500000D01*
X90962500Y-100340400D02*
X91225000Y-100077900D01*
X91225000Y-100077900D02*
X91225000Y-98250000D01*
X112525000Y-117250000D02*
X113700300Y-117250000D01*
X114762500Y-117066600D02*
X113883700Y-117066600D01*
X113883700Y-117066600D02*
X113700300Y-117250000D01*
X120475000Y-117250000D02*
X121650300Y-117250000D01*
X122700000Y-117066600D02*
X121833700Y-117066600D01*
X121833700Y-117066600D02*
X121650300Y-117250000D01*
X136450000Y-127300000D02*
X136450000Y-128450300D01*
X136743800Y-128698800D02*
X136495300Y-128450300D01*
X136495300Y-128450300D02*
X136450000Y-128450300D01*
X74850000Y-115905000D02*
X74095000Y-115905000D01*
X74095000Y-115905000D02*
X73400000Y-116600000D01*
X60000000Y-97200000D02*
X58400000Y-98800000D01*
X60000000Y-95270000D02*
X60000000Y-97200000D01*
G04 #@! TO.N,+5V*
X135049700Y-125000000D02*
X128000000Y-132049700D01*
X128000000Y-132049700D02*
X128000000Y-139250000D01*
X135199800Y-125000000D02*
X135049700Y-125000000D01*
X136450000Y-125000000D02*
X135199800Y-125000000D01*
X142750000Y-125000000D02*
X142750000Y-122699700D01*
X142750000Y-122699700D02*
X141550200Y-121499900D01*
X141550200Y-121499900D02*
X135329900Y-121499900D01*
X135329900Y-121499900D02*
X135049700Y-121780100D01*
X135049700Y-121780100D02*
X135049700Y-125000000D01*
X63500000Y-92431300D02*
X59072200Y-92431300D01*
X59072200Y-92431300D02*
X52607400Y-98896100D01*
X52607400Y-98896100D02*
X52607400Y-103486800D01*
X52607400Y-103486800D02*
X50994200Y-105100000D01*
X63810000Y-94000000D02*
X63810000Y-92431300D01*
X63810000Y-92431300D02*
X63500000Y-92431300D01*
X63500000Y-92431300D02*
X63500000Y-90525300D01*
X50994200Y-105100000D02*
X50900300Y-105100000D01*
X54500000Y-110500000D02*
X54500000Y-108605800D01*
X54500000Y-108605800D02*
X50994200Y-105100000D01*
X63500000Y-89500000D02*
X63500000Y-90525300D01*
X54500000Y-113000000D02*
X54500000Y-110500000D01*
X49625000Y-105100000D02*
X50900300Y-105100000D01*
X82999700Y-110825000D02*
X80875300Y-112949400D01*
X80875300Y-112949400D02*
X80875300Y-124650000D01*
X80875300Y-124650000D02*
X77525300Y-128000000D01*
X76500000Y-128000000D02*
X77525300Y-128000000D01*
X84150000Y-110825000D02*
X82999700Y-110825000D01*
X76500000Y-133967800D02*
X76500000Y-134769500D01*
X76500000Y-134769500D02*
X74619200Y-136650300D01*
X74619200Y-136650300D02*
X68000000Y-136650300D01*
X76500000Y-129150300D02*
X76500000Y-133967800D01*
X77075000Y-133967800D02*
X76500000Y-133967800D01*
X76500000Y-128000000D02*
X76500000Y-129150300D01*
X66686500Y-115005100D02*
X66204300Y-115005100D01*
X66204300Y-115005100D02*
X65462600Y-114263400D01*
X65462600Y-114263400D02*
X65173500Y-114263400D01*
X65173500Y-114263400D02*
X62192400Y-111282300D01*
X62192400Y-111282300D02*
X62192400Y-110789000D01*
X62192400Y-110789000D02*
X60539400Y-109135900D01*
X60539400Y-109135900D02*
X60325300Y-109350000D01*
X61500000Y-106525300D02*
X61500000Y-108175300D01*
X61500000Y-108175300D02*
X60539400Y-109135900D01*
X128000000Y-139250000D02*
X114750000Y-139250000D01*
X114750000Y-139250000D02*
X111000000Y-143000000D01*
X128618800Y-69638000D02*
X128500000Y-69519200D01*
X128500000Y-69519200D02*
X128500000Y-68250000D01*
X61500000Y-105500000D02*
X61500000Y-104474700D01*
X61270000Y-95270000D02*
X61270000Y-104244700D01*
X61270000Y-104244700D02*
X61500000Y-104474700D01*
X59150000Y-109350000D02*
X60325300Y-109350000D01*
X66686500Y-115005100D02*
X70500000Y-111191600D01*
X70500000Y-111191600D02*
X70500000Y-109000000D01*
X66905000Y-121034700D02*
X66686500Y-120816200D01*
X66686500Y-120816200D02*
X66686500Y-115005100D01*
X61500000Y-105500000D02*
X61500000Y-106525300D01*
X68000000Y-136000000D02*
X68000000Y-136650300D01*
X66905000Y-122390000D02*
X66905000Y-121034700D01*
G04 #@! TO.N,Net-(U18-Pad2)*
X54639800Y-114732100D02*
X53927900Y-115444000D01*
X53927900Y-115444000D02*
X53927900Y-132304700D01*
X53927900Y-132304700D02*
X57910200Y-136287000D01*
G04 #@! TO.N,SDA*
X71985000Y-122390000D02*
X71985000Y-121034700D01*
X73699700Y-110825000D02*
X71611000Y-112913700D01*
X71611000Y-112913700D02*
X71611000Y-120660700D01*
X71611000Y-120660700D02*
X71985000Y-121034700D01*
X56000000Y-113000000D02*
X57819700Y-113000000D01*
X57819700Y-113000000D02*
X57974700Y-113155000D01*
X59150000Y-113155000D02*
X57974700Y-113155000D01*
X71985000Y-122390000D02*
X71985000Y-123745300D01*
X71985000Y-123745300D02*
X56262800Y-123745300D01*
X56262800Y-123745300D02*
X55149600Y-122632100D01*
X55149600Y-122632100D02*
X55149600Y-119274600D01*
X55149600Y-119274600D02*
X55324600Y-119099600D01*
X55324600Y-119099600D02*
X56480000Y-119099600D01*
X56480000Y-119099600D02*
X56868700Y-118710900D01*
X56868700Y-118710900D02*
X56868700Y-116136600D01*
X56868700Y-116136600D02*
X57974700Y-115030600D01*
X57974700Y-115030600D02*
X57974700Y-113155000D01*
X65980300Y-94000000D02*
X65980300Y-95241600D01*
X65980300Y-95241600D02*
X76000300Y-105261600D01*
X76000300Y-105261600D02*
X76000300Y-110825000D01*
X65080000Y-94000000D02*
X65980300Y-94000000D01*
X74850000Y-110825000D02*
X76000300Y-110825000D01*
X74425000Y-110825000D02*
X74850000Y-110825000D01*
X74425000Y-110825000D02*
X73699700Y-110825000D01*
G04 #@! TO.N,RST*
X66737700Y-109345000D02*
X66737700Y-102123900D01*
X66737700Y-102123900D02*
X62540000Y-97926200D01*
X62540000Y-97926200D02*
X62540000Y-95270000D01*
X66737700Y-109345000D02*
X67325300Y-109345000D01*
X66150000Y-109345000D02*
X66737700Y-109345000D01*
X69000000Y-109000000D02*
X67670300Y-109000000D01*
X67670300Y-109000000D02*
X67325300Y-109345000D01*
G04 #@! TO.N,SCL*
X56325200Y-110500000D02*
X56325200Y-97584700D01*
X56325200Y-97584700D02*
X59909900Y-94000000D01*
X59909900Y-94000000D02*
X60000000Y-94000000D01*
X70715000Y-112687900D02*
X73699700Y-109703200D01*
X73699700Y-109703200D02*
X73699700Y-109555000D01*
X70715000Y-122390000D02*
X70715000Y-112687900D01*
X70715000Y-112687900D02*
X70483100Y-112687900D01*
X59150000Y-110615000D02*
X60325300Y-110615000D01*
X61371200Y-111140900D02*
X60851200Y-111140900D01*
X60851200Y-111140900D02*
X60325300Y-110615000D01*
X56325200Y-110500000D02*
X56650300Y-110500000D01*
X56000000Y-110500000D02*
X56325200Y-110500000D01*
X59150000Y-110615000D02*
X56765300Y-110615000D01*
X56765300Y-110615000D02*
X56650300Y-110500000D01*
X74850000Y-109555000D02*
X73699700Y-109555000D01*
G04 #@! TO.N,BTN1*
X64365000Y-131610000D02*
X64365000Y-130254700D01*
X76524800Y-123684500D02*
X79926000Y-120283300D01*
X79926000Y-120283300D02*
X79926000Y-112108100D01*
X79926000Y-112108100D02*
X86142800Y-105891300D01*
X86142800Y-105891300D02*
X90158800Y-105891300D01*
X90158800Y-105891300D02*
X112525000Y-83525100D01*
X64365000Y-130254700D02*
X64435400Y-130254700D01*
X64435400Y-130254700D02*
X64688800Y-130001300D01*
X120475000Y-83000000D02*
X119299700Y-83000000D01*
X112525000Y-83525100D02*
X118774600Y-83525100D01*
X118774600Y-83525100D02*
X119299700Y-83000000D01*
X112525000Y-83000000D02*
X112525000Y-83525100D01*
G04 #@! TO.N,BTN2*
X89275000Y-84050300D02*
X77311800Y-96013500D01*
X77311800Y-96013500D02*
X77311800Y-119394200D01*
X77311800Y-119394200D02*
X77132700Y-119573300D01*
X77132700Y-119573300D02*
X77132700Y-121652400D01*
X77132700Y-121652400D02*
X71031400Y-127753700D01*
X97225000Y-83000000D02*
X96049700Y-83000000D01*
X89275000Y-83525100D02*
X95524600Y-83525100D01*
X95524600Y-83525100D02*
X96049700Y-83000000D01*
X89275000Y-83525100D02*
X89275000Y-84050300D01*
X89275000Y-83000000D02*
X89275000Y-83525100D01*
X63095000Y-131610000D02*
X63095000Y-127840700D01*
X63095000Y-127840700D02*
X63368800Y-127566900D01*
G04 #@! TO.N,Net-(U24-Pad2)*
X74850000Y-112095000D02*
X73699700Y-112095000D01*
X53009800Y-130269600D02*
X53009800Y-132529400D01*
X53009800Y-132529400D02*
X61362100Y-140881700D01*
X61362100Y-140881700D02*
X92618300Y-140881700D01*
X72411300Y-113383400D02*
X73699700Y-112095000D01*
X72411300Y-119968800D02*
X72411300Y-113383400D01*
G04 #@! TO.N,Net-(U22-Pad2)*
X105965800Y-119502300D02*
X97320500Y-128147600D01*
X97320500Y-128147600D02*
X97320500Y-131334300D01*
G04 #@! TO.N,Net-(U42-Pad2)*
X106924300Y-124112200D02*
X104739200Y-126297300D01*
X104739200Y-126297300D02*
X104739200Y-135710600D01*
X104739200Y-135710600D02*
X104951400Y-135922800D01*
G04 #@! TO.N,Net-(U45-Pad2)*
X140975000Y-97246400D02*
X132925100Y-97246400D01*
X132925100Y-97246400D02*
X129583300Y-100588200D01*
G04 #@! TO.N,Net-(D1-Pad2)*
X73100000Y-85750000D02*
X73100000Y-86750300D01*
X56000000Y-118250000D02*
X56000000Y-117599700D01*
X56068300Y-115878600D02*
X56068300Y-117531400D01*
X56068300Y-117531400D02*
X56000000Y-117599700D01*
X73100000Y-86750300D02*
X73864700Y-87515000D01*
X73864700Y-87515000D02*
X73864700Y-101994300D01*
G04 #@! TO.N,Net-(D2-Pad2)*
X117600000Y-85750000D02*
X117600000Y-86750300D01*
X58000000Y-118250000D02*
X58000000Y-118900300D01*
X59000000Y-118916400D02*
X58016100Y-118916400D01*
X58016100Y-118916400D02*
X58000000Y-118900300D01*
X117600000Y-86750300D02*
X85166100Y-119184200D01*
X85166100Y-119184200D02*
X81675600Y-119184200D01*
G04 #@! TO.N,Net-(D3-Pad2)*
X65131100Y-115063700D02*
X61944800Y-118250000D01*
X61944800Y-118250000D02*
X60000000Y-118250000D01*
X94350000Y-85750000D02*
X94350000Y-89166100D01*
X94350000Y-89166100D02*
X78320000Y-105196100D01*
X78320000Y-105196100D02*
X78320000Y-106837100D01*
G04 #@! TO.N,INT*
X57173000Y-114274300D02*
X56540900Y-114274300D01*
X56540900Y-114274300D02*
X54528300Y-116286900D01*
X54528300Y-116286900D02*
X54528300Y-131260000D01*
X54528300Y-131260000D02*
X57829400Y-134561100D01*
X57829400Y-134561100D02*
X59959400Y-134561100D01*
X66905000Y-131610000D02*
X66905000Y-132965300D01*
X63621400Y-111551700D02*
X64558100Y-110615000D01*
X64558100Y-110615000D02*
X66150000Y-110615000D01*
X66905000Y-132965300D02*
X65155900Y-132965300D01*
X65155900Y-132965300D02*
X64100500Y-134020700D01*
G04 #@! TO.N,Net-(R4-Pad1)*
X73255000Y-131610000D02*
X73255000Y-132965300D01*
X73255000Y-132965300D02*
X74000000Y-133710300D01*
X74000000Y-133710300D02*
X74000000Y-134500000D01*
G04 #@! TO.N,Net-(R5-Pad1)*
X72000000Y-134500000D02*
X72000000Y-133849700D01*
X71985000Y-131610000D02*
X71985000Y-133834700D01*
X71985000Y-133834700D02*
X72000000Y-133849700D01*
G04 #@! TO.N,Net-(R6-Pad1)*
X70715000Y-131610000D02*
X70715000Y-133134700D01*
X70715000Y-133134700D02*
X70000000Y-133849700D01*
X70000000Y-134500000D02*
X70000000Y-133849700D01*
G04 #@! TO.N,Net-(R7-Pad1)*
X69445000Y-131610000D02*
X69445000Y-132965300D01*
X68000000Y-134500000D02*
X68000000Y-133849700D01*
X69445000Y-132965300D02*
X68884400Y-132965300D01*
X68884400Y-132965300D02*
X68000000Y-133849700D01*
G04 #@! TO.N,LED0*
X56000000Y-119750000D02*
X56000000Y-120400300D01*
X56745000Y-122390000D02*
X56745000Y-121034700D01*
X56745000Y-121034700D02*
X56110600Y-120400300D01*
X56110600Y-120400300D02*
X56000000Y-120400300D01*
G04 #@! TO.N,LED1*
X58000000Y-119750000D02*
X58000000Y-120400300D01*
X58015000Y-122390000D02*
X58015000Y-120415300D01*
X58015000Y-120415300D02*
X58000000Y-120400300D01*
G04 #@! TO.N,LED2*
X59285000Y-122390000D02*
X59285000Y-121034700D01*
X60000000Y-119750000D02*
X60000000Y-120400300D01*
X59285000Y-121034700D02*
X59365600Y-121034700D01*
X59365600Y-121034700D02*
X60000000Y-120400300D01*
G04 #@! TO.N,BTN0*
X75975000Y-84050300D02*
X76608500Y-84683800D01*
X76608500Y-84683800D02*
X76608500Y-119248600D01*
X76608500Y-119248600D02*
X76532400Y-119324700D01*
X76532400Y-119324700D02*
X76532400Y-121020700D01*
X76532400Y-121020700D02*
X67298400Y-130254700D01*
X67298400Y-130254700D02*
X65635000Y-130254700D01*
X75975000Y-83000000D02*
X75975000Y-84050300D01*
X65635000Y-131610000D02*
X65635000Y-130254700D01*
X75975000Y-83000000D02*
X68025000Y-83000000D01*
G04 #@! TO.N,BTN3*
X61825000Y-131610000D02*
X61825000Y-130254700D01*
X77966200Y-119871500D02*
X77966200Y-108583900D01*
X77966200Y-108583900D02*
X83275000Y-103275100D01*
X61825000Y-130254700D02*
X61822500Y-130252200D01*
X61822500Y-130252200D02*
X61822500Y-128552700D01*
X91225000Y-102750000D02*
X90049700Y-102750000D01*
X83275000Y-103275100D02*
X89524600Y-103275100D01*
X89524600Y-103275100D02*
X90049700Y-102750000D01*
X83275000Y-102750000D02*
X83275000Y-103275100D01*
G04 #@! TO.N,BTN4*
X120475000Y-102750000D02*
X119299700Y-102750000D01*
X112525000Y-103275100D02*
X118774600Y-103275100D01*
X118774600Y-103275100D02*
X119299700Y-102750000D01*
X112525000Y-103275100D02*
X112525000Y-103800300D01*
X112525000Y-102750000D02*
X112525000Y-103275100D01*
X60555000Y-132965300D02*
X64892500Y-137302800D01*
X64892500Y-137302800D02*
X79022500Y-137302800D01*
X79022500Y-137302800D02*
X112525000Y-103800300D01*
X60555000Y-131610000D02*
X60555000Y-132965300D01*
G04 #@! TO.N,BTN5*
X59285000Y-131610000D02*
X59285000Y-132965300D01*
X59285000Y-132965300D02*
X59705900Y-132965300D01*
X59705900Y-132965300D02*
X64649300Y-137908700D01*
X64649300Y-137908700D02*
X91901800Y-137908700D01*
X91901800Y-137908700D02*
X108060500Y-121750000D01*
X108060500Y-121750000D02*
X112525000Y-121750000D01*
X120475000Y-121750000D02*
X112525000Y-121750000D01*
G04 #@! TO.N,Net-(U49-Pad4)*
X150050200Y-95873700D02*
X145206300Y-100717600D01*
X145206300Y-100717600D02*
X145206300Y-111626100D01*
G04 #@! TO.N,Net-(U64-Pad4)*
X156902800Y-104587300D02*
X156902800Y-136591400D01*
X156902800Y-136591400D02*
X157048400Y-136737000D01*
G04 #@! TO.N,Net-(U66-Pad4)*
X190556000Y-110991500D02*
X190556000Y-101622200D01*
X190556000Y-101622200D02*
X194329100Y-97849100D01*
G04 #@! TO.N,Net-(U81-Pad4)*
X198927400Y-136436900D02*
X198927400Y-104442000D01*
X198927400Y-104442000D02*
X201063400Y-102306000D01*
G04 #@! TO.N,Net-(J4-Pad1)*
X141200000Y-130800000D02*
X141200000Y-128649700D01*
X136450000Y-122700000D02*
X137850300Y-122700000D01*
X137850300Y-122700000D02*
X137850300Y-125300000D01*
X137850300Y-125300000D02*
X141200000Y-128649700D01*
G04 #@! TD*
D34*
G04 #@! TO.N,GND*
G36*
X221443896Y-63527671D02*
X222872500Y-63750107D01*
X224270674Y-64118216D01*
X225623600Y-64628095D01*
X226916941Y-65274341D01*
X228137007Y-66050112D01*
X228229134Y-66123000D01*
X227328273Y-66123000D01*
X226087083Y-66637118D01*
X225137118Y-67587083D01*
X224623000Y-68828273D01*
X224623000Y-70171727D01*
X225137118Y-71412917D01*
X226087083Y-72362882D01*
X227328273Y-72877000D01*
X228671727Y-72877000D01*
X229912917Y-72362882D01*
X230862882Y-71412917D01*
X231377000Y-70171727D01*
X231377000Y-69280006D01*
X232040404Y-70265396D01*
X232720289Y-71541387D01*
X233265405Y-72880492D01*
X233669987Y-74268553D01*
X233929744Y-75690846D01*
X234043345Y-77150559D01*
X234048000Y-77506197D01*
X234048001Y-129975476D01*
X233972329Y-131443896D01*
X233749893Y-132872500D01*
X233381783Y-134270677D01*
X232871908Y-135623592D01*
X232225658Y-136916941D01*
X231449888Y-138137007D01*
X231377000Y-138229134D01*
X231377000Y-137328273D01*
X230862882Y-136087083D01*
X229912917Y-135137118D01*
X228671727Y-134623000D01*
X227328273Y-134623000D01*
X226087083Y-135137118D01*
X225137118Y-136087083D01*
X224623000Y-137328273D01*
X224623000Y-138671727D01*
X225137118Y-139912917D01*
X226087083Y-140862882D01*
X227328273Y-141377000D01*
X228219994Y-141377000D01*
X227234604Y-142040404D01*
X225958613Y-142720289D01*
X224619511Y-143265404D01*
X223231447Y-143669987D01*
X221809154Y-143929744D01*
X220349441Y-144043345D01*
X219993803Y-144048000D01*
X121770330Y-144048000D01*
X121791912Y-143971517D01*
X121000000Y-143179605D01*
X120208088Y-143971517D01*
X120229670Y-144048000D01*
X112252926Y-144048000D01*
X112379304Y-143921622D01*
X112627000Y-143323630D01*
X112627000Y-142896107D01*
X112727936Y-142795171D01*
X119602799Y-142795171D01*
X119630770Y-143345448D01*
X119787540Y-143723923D01*
X120028483Y-143791912D01*
X120820395Y-143000000D01*
X121179605Y-143000000D01*
X121971517Y-143791912D01*
X122212460Y-143723923D01*
X122397201Y-143204829D01*
X122369230Y-142654552D01*
X122212460Y-142276077D01*
X121971517Y-142208088D01*
X121179605Y-143000000D01*
X120820395Y-143000000D01*
X120028483Y-142208088D01*
X119787540Y-142276077D01*
X119602799Y-142795171D01*
X112727936Y-142795171D01*
X113494624Y-142028483D01*
X120208088Y-142028483D01*
X121000000Y-142820395D01*
X121784645Y-142035750D01*
X126740000Y-142035750D01*
X126740000Y-142626309D01*
X126836673Y-142859698D01*
X127015301Y-143038327D01*
X127248690Y-143135000D01*
X127714250Y-143135000D01*
X127873000Y-142976250D01*
X127873000Y-141877000D01*
X128127000Y-141877000D01*
X128127000Y-142976250D01*
X128285750Y-143135000D01*
X128751310Y-143135000D01*
X128984699Y-143038327D01*
X129163327Y-142859698D01*
X129260000Y-142626309D01*
X129260000Y-142035750D01*
X129101250Y-141877000D01*
X128127000Y-141877000D01*
X127873000Y-141877000D01*
X126898750Y-141877000D01*
X126740000Y-142035750D01*
X121784645Y-142035750D01*
X121791912Y-142028483D01*
X121723923Y-141787540D01*
X121204829Y-141602799D01*
X120654552Y-141630770D01*
X120276077Y-141787540D01*
X120208088Y-142028483D01*
X113494624Y-142028483D01*
X115196108Y-140327000D01*
X126545863Y-140327000D01*
X126548884Y-140342188D01*
X126742719Y-140632281D01*
X126818908Y-140683189D01*
X126740000Y-140873691D01*
X126740000Y-141464250D01*
X126898750Y-141623000D01*
X127873000Y-141623000D01*
X127873000Y-141603000D01*
X128127000Y-141603000D01*
X128127000Y-141623000D01*
X129101250Y-141623000D01*
X129260000Y-141464250D01*
X129260000Y-140873691D01*
X129181092Y-140683189D01*
X129257281Y-140632281D01*
X129451116Y-140342188D01*
X129519181Y-140000000D01*
X129519181Y-138500000D01*
X129451116Y-138157812D01*
X129257281Y-137867719D01*
X129077000Y-137747258D01*
X129077000Y-137085750D01*
X138815000Y-137085750D01*
X138815000Y-138676309D01*
X138911673Y-138909698D01*
X139090301Y-139088327D01*
X139323690Y-139185000D01*
X140914250Y-139185000D01*
X141073000Y-139026250D01*
X141073000Y-136927000D01*
X141327000Y-136927000D01*
X141327000Y-139026250D01*
X141485750Y-139185000D01*
X143076310Y-139185000D01*
X143309699Y-139088327D01*
X143488327Y-138909698D01*
X143585000Y-138676309D01*
X143585000Y-137085750D01*
X143426250Y-136927000D01*
X141327000Y-136927000D01*
X141073000Y-136927000D01*
X138973750Y-136927000D01*
X138815000Y-137085750D01*
X129077000Y-137085750D01*
X129077000Y-132495807D01*
X133987057Y-127585750D01*
X134815000Y-127585750D01*
X134815000Y-128176310D01*
X134911673Y-128409699D01*
X135090302Y-128588327D01*
X135323691Y-128685000D01*
X136164250Y-128685000D01*
X136323000Y-128526250D01*
X136323000Y-127427000D01*
X136577000Y-127427000D01*
X136577000Y-128526250D01*
X136735750Y-128685000D01*
X137576309Y-128685000D01*
X137809698Y-128588327D01*
X137988327Y-128409699D01*
X138085000Y-128176310D01*
X138085000Y-127585750D01*
X137926250Y-127427000D01*
X136577000Y-127427000D01*
X136323000Y-127427000D01*
X134973750Y-127427000D01*
X134815000Y-127585750D01*
X133987057Y-127585750D01*
X134815000Y-126757808D01*
X134815000Y-127014250D01*
X134973750Y-127173000D01*
X136323000Y-127173000D01*
X136323000Y-127153000D01*
X136577000Y-127153000D01*
X136577000Y-127173000D01*
X137926250Y-127173000D01*
X138063221Y-127036029D01*
X139227307Y-128200115D01*
X139107812Y-128223884D01*
X138817719Y-128417719D01*
X138623884Y-128707812D01*
X138555819Y-129050000D01*
X138555819Y-131216650D01*
X138250000Y-131155819D01*
X134750000Y-131155819D01*
X134407812Y-131223884D01*
X134117719Y-131417719D01*
X133923884Y-131707812D01*
X133855819Y-132050000D01*
X133855819Y-135550000D01*
X133923884Y-135892188D01*
X134117719Y-136182281D01*
X134407812Y-136376116D01*
X134750000Y-136444181D01*
X138250000Y-136444181D01*
X138592188Y-136376116D01*
X138815000Y-136227237D01*
X138815000Y-136514250D01*
X138973750Y-136673000D01*
X141073000Y-136673000D01*
X141073000Y-134573750D01*
X141327000Y-134573750D01*
X141327000Y-136673000D01*
X143426250Y-136673000D01*
X143585000Y-136514250D01*
X143585000Y-134923691D01*
X143488327Y-134690302D01*
X143309699Y-134511673D01*
X143076310Y-134415000D01*
X141485750Y-134415000D01*
X141327000Y-134573750D01*
X141073000Y-134573750D01*
X140914250Y-134415000D01*
X139323690Y-134415000D01*
X139144181Y-134489355D01*
X139144181Y-133383350D01*
X139450000Y-133444181D01*
X142950000Y-133444181D01*
X143292188Y-133376116D01*
X143582281Y-133182281D01*
X143776116Y-132892188D01*
X143844181Y-132550000D01*
X143844181Y-129050000D01*
X143776116Y-128707812D01*
X143582281Y-128417719D01*
X143292188Y-128223884D01*
X142950000Y-128155819D01*
X142165295Y-128155819D01*
X142088928Y-128041528D01*
X142036558Y-127963150D01*
X142036557Y-127963149D01*
X141976473Y-127873227D01*
X141886551Y-127813143D01*
X141867589Y-127794181D01*
X143750000Y-127794181D01*
X144092188Y-127726116D01*
X144382281Y-127532281D01*
X144576116Y-127242188D01*
X144644181Y-126900000D01*
X144644181Y-123100000D01*
X144576116Y-122757812D01*
X144382281Y-122467719D01*
X144092188Y-122273884D01*
X143750000Y-122205819D01*
X143715295Y-122205819D01*
X143526473Y-121923227D01*
X143436551Y-121863143D01*
X142386759Y-120813352D01*
X142326673Y-120723427D01*
X141970424Y-120485389D01*
X141656272Y-120422900D01*
X141656266Y-120422900D01*
X141550200Y-120401802D01*
X141444134Y-120422900D01*
X135435968Y-120422900D01*
X135329900Y-120401802D01*
X135223832Y-120422900D01*
X135223828Y-120422900D01*
X134909676Y-120485389D01*
X134553427Y-120723427D01*
X134493341Y-120813352D01*
X134363152Y-120943541D01*
X134273227Y-121003627D01*
X134035189Y-121359877D01*
X133972700Y-121674029D01*
X133972700Y-121674034D01*
X133951602Y-121780100D01*
X133972700Y-121886167D01*
X133972701Y-124553891D01*
X127313452Y-131213141D01*
X127223527Y-131273227D01*
X126985489Y-131629477D01*
X126923000Y-131943629D01*
X126923000Y-131943634D01*
X126901902Y-132049700D01*
X126923000Y-132155767D01*
X126923001Y-137747258D01*
X126742719Y-137867719D01*
X126548884Y-138157812D01*
X126545863Y-138173000D01*
X114856066Y-138173000D01*
X114750000Y-138151902D01*
X114643933Y-138173000D01*
X114643928Y-138173000D01*
X114329776Y-138235489D01*
X114287563Y-138263695D01*
X114063450Y-138413442D01*
X114063449Y-138413443D01*
X113973527Y-138473527D01*
X113913443Y-138563449D01*
X111103893Y-141373000D01*
X110676370Y-141373000D01*
X110078378Y-141620696D01*
X109620696Y-142078378D01*
X109373000Y-142676370D01*
X109373000Y-143323630D01*
X109620696Y-143921622D01*
X109747074Y-144048000D01*
X60024505Y-144048000D01*
X58556104Y-143972329D01*
X57127500Y-143749893D01*
X55729323Y-143381783D01*
X54376408Y-142871908D01*
X53083059Y-142225658D01*
X51862993Y-141449888D01*
X51770866Y-141377000D01*
X52671727Y-141377000D01*
X53912917Y-140862882D01*
X54862882Y-139912917D01*
X55377000Y-138671727D01*
X55377000Y-137328273D01*
X54862882Y-136087083D01*
X53912917Y-135137118D01*
X52671727Y-134623000D01*
X51328273Y-134623000D01*
X50087083Y-135137118D01*
X49137118Y-136087083D01*
X48623000Y-137328273D01*
X48623000Y-138219994D01*
X47959596Y-137234604D01*
X47279711Y-135958613D01*
X46734596Y-134619511D01*
X46330013Y-133231447D01*
X46070256Y-131809154D01*
X45956655Y-130349441D01*
X45952000Y-129993803D01*
X45952000Y-108001753D01*
X46204607Y-108052000D01*
X47338770Y-108052000D01*
X47527719Y-108334781D01*
X47817812Y-108528616D01*
X48160000Y-108596681D01*
X48323591Y-108596681D01*
X48497719Y-108857281D01*
X48787812Y-109051116D01*
X49130000Y-109119181D01*
X50530000Y-109119181D01*
X50872188Y-109051116D01*
X51162281Y-108857281D01*
X51356116Y-108567188D01*
X51424181Y-108225000D01*
X51424181Y-107053088D01*
X53423001Y-109051909D01*
X53423000Y-109712254D01*
X53355819Y-110050000D01*
X53355819Y-110950000D01*
X53423001Y-111287747D01*
X53423000Y-112212255D01*
X53355819Y-112550000D01*
X53355819Y-113450000D01*
X53423884Y-113792188D01*
X53564026Y-114001924D01*
X53557212Y-114008738D01*
X53362800Y-114478089D01*
X53362800Y-114485993D01*
X53241351Y-114607441D01*
X53151427Y-114667527D01*
X52913389Y-115023777D01*
X52850900Y-115337929D01*
X52850900Y-115337934D01*
X52829802Y-115444000D01*
X52850900Y-115550067D01*
X52850901Y-128992600D01*
X52755789Y-128992600D01*
X52286438Y-129187012D01*
X51927212Y-129546238D01*
X51732800Y-130015589D01*
X51732800Y-130523611D01*
X51927212Y-130992962D01*
X51932800Y-130998550D01*
X51932801Y-132423329D01*
X51911702Y-132529400D01*
X51932801Y-132635472D01*
X51948516Y-132714476D01*
X51995290Y-132949624D01*
X52173242Y-133215949D01*
X52173244Y-133215951D01*
X52233328Y-133305873D01*
X52323250Y-133365957D01*
X60525543Y-141568251D01*
X60585627Y-141658173D01*
X60675549Y-141718257D01*
X60675550Y-141718258D01*
X60779238Y-141787540D01*
X60941876Y-141896211D01*
X61256028Y-141958700D01*
X61256033Y-141958700D01*
X61362100Y-141979798D01*
X61468166Y-141958700D01*
X90762121Y-141958700D01*
X90815089Y-142086576D01*
X91413424Y-142684911D01*
X92195185Y-143008728D01*
X93041359Y-143008728D01*
X93823120Y-142684911D01*
X94421455Y-142086576D01*
X94745272Y-141304815D01*
X94745272Y-140458641D01*
X94421455Y-139676880D01*
X93823120Y-139078545D01*
X93041359Y-138754728D01*
X92574177Y-138754728D01*
X92678273Y-138685173D01*
X92738359Y-138595248D01*
X103662200Y-127671408D01*
X103662201Y-135604529D01*
X103641102Y-135710600D01*
X103662201Y-135816672D01*
X103674400Y-135878000D01*
X103674400Y-136176811D01*
X103868812Y-136646162D01*
X104228038Y-137005388D01*
X104697389Y-137199800D01*
X105205411Y-137199800D01*
X105674762Y-137005388D01*
X106033988Y-136646162D01*
X106228400Y-136176811D01*
X106228400Y-135668789D01*
X106033988Y-135199438D01*
X105816200Y-134981650D01*
X105816200Y-128898960D01*
X105981419Y-128967396D01*
X106279854Y-128851745D01*
X106279854Y-127399754D01*
X106392713Y-127286895D01*
X106325964Y-127220146D01*
X106533854Y-127220146D01*
X106533854Y-128851745D01*
X106832289Y-128967396D01*
X107517149Y-128661920D01*
X108032977Y-128117613D01*
X108281104Y-127518581D01*
X108165453Y-127220146D01*
X106533854Y-127220146D01*
X106325964Y-127220146D01*
X106213105Y-127107287D01*
X106100246Y-127220146D01*
X105816200Y-127220146D01*
X105816200Y-126966146D01*
X106100246Y-126966146D01*
X106213105Y-127079005D01*
X106392713Y-126899397D01*
X106279854Y-126786538D01*
X106279854Y-126279753D01*
X106533854Y-126025753D01*
X106533854Y-126966146D01*
X108165453Y-126966146D01*
X108281104Y-126667711D01*
X107975628Y-125982851D01*
X107431321Y-125467023D01*
X107210875Y-125375711D01*
X107647662Y-125194788D01*
X108006888Y-124835562D01*
X108201300Y-124366211D01*
X108201300Y-123858189D01*
X108006888Y-123388838D01*
X107975829Y-123357779D01*
X108506608Y-122827000D01*
X110980554Y-122827000D01*
X111117719Y-123032281D01*
X111407812Y-123226116D01*
X111750000Y-123294181D01*
X113300000Y-123294181D01*
X113642188Y-123226116D01*
X113932281Y-123032281D01*
X114069446Y-122827000D01*
X118930554Y-122827000D01*
X119067719Y-123032281D01*
X119357812Y-123226116D01*
X119700000Y-123294181D01*
X121250000Y-123294181D01*
X121592188Y-123226116D01*
X121882281Y-123032281D01*
X122076116Y-122742188D01*
X122144181Y-122400000D01*
X122144181Y-121100000D01*
X122076116Y-120757812D01*
X121882281Y-120467719D01*
X121592188Y-120273884D01*
X121250000Y-120205819D01*
X119700000Y-120205819D01*
X119357812Y-120273884D01*
X119067719Y-120467719D01*
X118930554Y-120673000D01*
X114069446Y-120673000D01*
X113932281Y-120467719D01*
X113642188Y-120273884D01*
X113300000Y-120205819D01*
X111750000Y-120205819D01*
X111407812Y-120273884D01*
X111117719Y-120467719D01*
X110980554Y-120673000D01*
X108166568Y-120673000D01*
X108060500Y-120651902D01*
X107954432Y-120673000D01*
X107954428Y-120673000D01*
X107703277Y-120722957D01*
X107640275Y-120735489D01*
X107373950Y-120913442D01*
X107373949Y-120913443D01*
X107284027Y-120973527D01*
X107223943Y-121063449D01*
X98397500Y-129889893D01*
X98397500Y-128593707D01*
X106211908Y-120779300D01*
X106219811Y-120779300D01*
X106689162Y-120584888D01*
X107048388Y-120225662D01*
X107242800Y-119756311D01*
X107242800Y-119248289D01*
X107048388Y-118778938D01*
X106689162Y-118419712D01*
X106219811Y-118225300D01*
X105711789Y-118225300D01*
X105242438Y-118419712D01*
X104883212Y-118778938D01*
X104688800Y-119248289D01*
X104688800Y-119256192D01*
X96633952Y-127311041D01*
X96544027Y-127371127D01*
X96305989Y-127727377D01*
X96243500Y-128041529D01*
X96243500Y-128041534D01*
X96222402Y-128147600D01*
X96243500Y-128253667D01*
X96243501Y-130605349D01*
X96237912Y-130610938D01*
X96043500Y-131080289D01*
X96043500Y-131588311D01*
X96235516Y-132051877D01*
X91455693Y-136831700D01*
X81016707Y-136831700D01*
X100312657Y-117535750D01*
X111115000Y-117535750D01*
X111115000Y-118026310D01*
X111211673Y-118259699D01*
X111390302Y-118438327D01*
X111623691Y-118535000D01*
X112239250Y-118535000D01*
X112398000Y-118376250D01*
X112398000Y-117377000D01*
X112652000Y-117377000D01*
X112652000Y-118376250D01*
X112810750Y-118535000D01*
X113426309Y-118535000D01*
X113659698Y-118438327D01*
X113838327Y-118259699D01*
X113935000Y-118026310D01*
X113935000Y-117535750D01*
X119065000Y-117535750D01*
X119065000Y-118026310D01*
X119161673Y-118259699D01*
X119340302Y-118438327D01*
X119573691Y-118535000D01*
X120189250Y-118535000D01*
X120348000Y-118376250D01*
X120348000Y-117377000D01*
X120602000Y-117377000D01*
X120602000Y-118376250D01*
X120760750Y-118535000D01*
X121376309Y-118535000D01*
X121609698Y-118438327D01*
X121788327Y-118259699D01*
X121885000Y-118026310D01*
X121885000Y-117535750D01*
X121726250Y-117377000D01*
X120602000Y-117377000D01*
X120348000Y-117377000D01*
X119223750Y-117377000D01*
X119065000Y-117535750D01*
X113935000Y-117535750D01*
X113776250Y-117377000D01*
X112652000Y-117377000D01*
X112398000Y-117377000D01*
X111273750Y-117377000D01*
X111115000Y-117535750D01*
X100312657Y-117535750D01*
X101374717Y-116473690D01*
X111115000Y-116473690D01*
X111115000Y-116964250D01*
X111273750Y-117123000D01*
X112398000Y-117123000D01*
X112398000Y-116123750D01*
X112652000Y-116123750D01*
X112652000Y-117123000D01*
X113776250Y-117123000D01*
X113935000Y-116964250D01*
X113935000Y-116473690D01*
X119065000Y-116473690D01*
X119065000Y-116964250D01*
X119223750Y-117123000D01*
X120348000Y-117123000D01*
X120348000Y-116123750D01*
X120602000Y-116123750D01*
X120602000Y-117123000D01*
X121726250Y-117123000D01*
X121885000Y-116964250D01*
X121885000Y-116473690D01*
X121788327Y-116240301D01*
X121609698Y-116061673D01*
X121376309Y-115965000D01*
X120760750Y-115965000D01*
X120602000Y-116123750D01*
X120348000Y-116123750D01*
X120189250Y-115965000D01*
X119573691Y-115965000D01*
X119340302Y-116061673D01*
X119161673Y-116240301D01*
X119065000Y-116473690D01*
X113935000Y-116473690D01*
X113838327Y-116240301D01*
X113659698Y-116061673D01*
X113426309Y-115965000D01*
X112810750Y-115965000D01*
X112652000Y-116123750D01*
X112398000Y-116123750D01*
X112239250Y-115965000D01*
X111623691Y-115965000D01*
X111390302Y-116061673D01*
X111211673Y-116240301D01*
X111115000Y-116473690D01*
X101374717Y-116473690D01*
X106476318Y-111372089D01*
X143929300Y-111372089D01*
X143929300Y-111880111D01*
X144123712Y-112349462D01*
X144482938Y-112708688D01*
X144952289Y-112903100D01*
X145460311Y-112903100D01*
X145929662Y-112708688D01*
X146288888Y-112349462D01*
X146483300Y-111880111D01*
X146483300Y-111372089D01*
X146288888Y-110902738D01*
X146283300Y-110897150D01*
X146283300Y-104333289D01*
X155625800Y-104333289D01*
X155625800Y-104841311D01*
X155820212Y-105310662D01*
X155825800Y-105316250D01*
X155825801Y-136351654D01*
X155771400Y-136482989D01*
X155771400Y-136991011D01*
X155965812Y-137460362D01*
X156325038Y-137819588D01*
X156794389Y-138014000D01*
X157302411Y-138014000D01*
X157771762Y-137819588D01*
X158130988Y-137460362D01*
X158325400Y-136991011D01*
X158325400Y-136482989D01*
X158201095Y-136182889D01*
X197650400Y-136182889D01*
X197650400Y-136690911D01*
X197844812Y-137160262D01*
X198204038Y-137519488D01*
X198673389Y-137713900D01*
X199181411Y-137713900D01*
X199650762Y-137519488D01*
X200009988Y-137160262D01*
X200204400Y-136690911D01*
X200204400Y-136182889D01*
X200009988Y-135713538D01*
X200004400Y-135707950D01*
X200004400Y-104888107D01*
X201309508Y-103583000D01*
X201317411Y-103583000D01*
X201786762Y-103388588D01*
X202145988Y-103029362D01*
X202340400Y-102560011D01*
X202340400Y-102051989D01*
X202145988Y-101582638D01*
X201786762Y-101223412D01*
X201317411Y-101029000D01*
X200809389Y-101029000D01*
X200340038Y-101223412D01*
X199980812Y-101582638D01*
X199786400Y-102051989D01*
X199786400Y-102059892D01*
X198240850Y-103605443D01*
X198150928Y-103665527D01*
X198090844Y-103755449D01*
X198090842Y-103755451D01*
X197939280Y-103982281D01*
X197912890Y-104021776D01*
X197864820Y-104263442D01*
X197829302Y-104442000D01*
X197850401Y-104548071D01*
X197850400Y-135707950D01*
X197844812Y-135713538D01*
X197650400Y-136182889D01*
X158201095Y-136182889D01*
X158130988Y-136013638D01*
X157979800Y-135862450D01*
X157979800Y-110737489D01*
X189279000Y-110737489D01*
X189279000Y-111245511D01*
X189473412Y-111714862D01*
X189832638Y-112074088D01*
X190301989Y-112268500D01*
X190810011Y-112268500D01*
X191279362Y-112074088D01*
X191638588Y-111714862D01*
X191833000Y-111245511D01*
X191833000Y-110737489D01*
X191638588Y-110268138D01*
X191633000Y-110262550D01*
X191633000Y-102068307D01*
X194575208Y-99126100D01*
X194583111Y-99126100D01*
X195052462Y-98931688D01*
X195411688Y-98572462D01*
X195606100Y-98103111D01*
X195606100Y-97595089D01*
X195411688Y-97125738D01*
X195052462Y-96766512D01*
X194583111Y-96572100D01*
X194075089Y-96572100D01*
X193605738Y-96766512D01*
X193246512Y-97125738D01*
X193052100Y-97595089D01*
X193052100Y-97602992D01*
X189869450Y-100785643D01*
X189779528Y-100845727D01*
X189719444Y-100935649D01*
X189719442Y-100935651D01*
X189584355Y-101137824D01*
X189541490Y-101201976D01*
X189488288Y-101469442D01*
X189457902Y-101622200D01*
X189479001Y-101728271D01*
X189479000Y-110262550D01*
X189473412Y-110268138D01*
X189279000Y-110737489D01*
X157979800Y-110737489D01*
X157979800Y-105316250D01*
X157985388Y-105310662D01*
X158179800Y-104841311D01*
X158179800Y-104333289D01*
X157985388Y-103863938D01*
X157626162Y-103504712D01*
X157156811Y-103310300D01*
X156648789Y-103310300D01*
X156179438Y-103504712D01*
X155820212Y-103863938D01*
X155625800Y-104333289D01*
X146283300Y-104333289D01*
X146283300Y-101163707D01*
X150296308Y-97150700D01*
X150304211Y-97150700D01*
X150773562Y-96956288D01*
X151132788Y-96597062D01*
X151327200Y-96127711D01*
X151327200Y-95619689D01*
X151132788Y-95150338D01*
X150773562Y-94791112D01*
X150304211Y-94596700D01*
X149796189Y-94596700D01*
X149326838Y-94791112D01*
X148967612Y-95150338D01*
X148773200Y-95619689D01*
X148773200Y-95627592D01*
X144519752Y-99881041D01*
X144429827Y-99941127D01*
X144191789Y-100297377D01*
X144129300Y-100611529D01*
X144129300Y-100611534D01*
X144108202Y-100717600D01*
X144129300Y-100823667D01*
X144129301Y-110897149D01*
X144123712Y-110902738D01*
X143929300Y-111372089D01*
X106476318Y-111372089D01*
X113211551Y-104636857D01*
X113301473Y-104576773D01*
X113361556Y-104486852D01*
X113361558Y-104486850D01*
X113451595Y-104352100D01*
X118668534Y-104352100D01*
X118774600Y-104373198D01*
X118880666Y-104352100D01*
X118880672Y-104352100D01*
X119194824Y-104289611D01*
X119323832Y-104203411D01*
X119357812Y-104226116D01*
X119700000Y-104294181D01*
X121250000Y-104294181D01*
X121592188Y-104226116D01*
X121882281Y-104032281D01*
X122076116Y-103742188D01*
X122144181Y-103400000D01*
X122144181Y-102100000D01*
X122076116Y-101757812D01*
X121882281Y-101467719D01*
X121592188Y-101273884D01*
X121250000Y-101205819D01*
X119700000Y-101205819D01*
X119357812Y-101273884D01*
X119067719Y-101467719D01*
X118890229Y-101733350D01*
X118879475Y-101735489D01*
X118747384Y-101823750D01*
X118523227Y-101973527D01*
X118463141Y-102063452D01*
X118328493Y-102198100D01*
X114194181Y-102198100D01*
X114194181Y-102100000D01*
X114126116Y-101757812D01*
X113932281Y-101467719D01*
X113642188Y-101273884D01*
X113300000Y-101205819D01*
X111750000Y-101205819D01*
X111407812Y-101273884D01*
X111117719Y-101467719D01*
X110923884Y-101757812D01*
X110855819Y-102100000D01*
X110855819Y-103400000D01*
X110923884Y-103742188D01*
X110978406Y-103823786D01*
X78576393Y-136225800D01*
X76566808Y-136225800D01*
X77186551Y-135606057D01*
X77276473Y-135545973D01*
X77345703Y-135442364D01*
X77478622Y-135243436D01*
X77514511Y-135189724D01*
X77519228Y-135166009D01*
X77798362Y-135050388D01*
X78157588Y-134691162D01*
X78352000Y-134221811D01*
X78352000Y-133713789D01*
X78157588Y-133244438D01*
X77798362Y-132885212D01*
X77577000Y-132793521D01*
X77577000Y-129502742D01*
X77757281Y-129382281D01*
X77951116Y-129092188D01*
X77969792Y-128998295D01*
X78301773Y-128776473D01*
X78361859Y-128686548D01*
X81561851Y-125486557D01*
X81651773Y-125426473D01*
X81889811Y-125070224D01*
X81952300Y-124756072D01*
X81952300Y-124756067D01*
X81973398Y-124650001D01*
X81952300Y-124543934D01*
X81952300Y-120451802D01*
X82398962Y-120266788D01*
X82404550Y-120261200D01*
X85060034Y-120261200D01*
X85166100Y-120282298D01*
X85272166Y-120261200D01*
X85272172Y-120261200D01*
X85586324Y-120198711D01*
X85942573Y-119960673D01*
X86002659Y-119870748D01*
X105539218Y-100334189D01*
X128306300Y-100334189D01*
X128306300Y-100842211D01*
X128500712Y-101311562D01*
X128859938Y-101670788D01*
X129329289Y-101865200D01*
X129837311Y-101865200D01*
X130306662Y-101670788D01*
X130665888Y-101311562D01*
X130860300Y-100842211D01*
X130860300Y-100834307D01*
X133371208Y-98323400D01*
X140246050Y-98323400D01*
X140251638Y-98328988D01*
X140720989Y-98523400D01*
X141229011Y-98523400D01*
X141698362Y-98328988D01*
X142057588Y-97969762D01*
X142252000Y-97500411D01*
X142252000Y-96992389D01*
X142057588Y-96523038D01*
X141698362Y-96163812D01*
X141229011Y-95969400D01*
X140720989Y-95969400D01*
X140251638Y-96163812D01*
X140246050Y-96169400D01*
X133031166Y-96169400D01*
X132925100Y-96148302D01*
X132819033Y-96169400D01*
X132819028Y-96169400D01*
X132504876Y-96231889D01*
X132412033Y-96293925D01*
X132238550Y-96409842D01*
X132238549Y-96409843D01*
X132148627Y-96469927D01*
X132088543Y-96559849D01*
X129337193Y-99311200D01*
X129329289Y-99311200D01*
X128859938Y-99505612D01*
X128500712Y-99864838D01*
X128306300Y-100334189D01*
X105539218Y-100334189D01*
X107337657Y-98535750D01*
X111115000Y-98535750D01*
X111115000Y-99026310D01*
X111211673Y-99259699D01*
X111390302Y-99438327D01*
X111623691Y-99535000D01*
X112239250Y-99535000D01*
X112398000Y-99376250D01*
X112398000Y-98377000D01*
X112652000Y-98377000D01*
X112652000Y-99376250D01*
X112810750Y-99535000D01*
X113426309Y-99535000D01*
X113659698Y-99438327D01*
X113838327Y-99259699D01*
X113935000Y-99026310D01*
X113935000Y-98535750D01*
X119065000Y-98535750D01*
X119065000Y-99026310D01*
X119161673Y-99259699D01*
X119340302Y-99438327D01*
X119573691Y-99535000D01*
X120189250Y-99535000D01*
X120348000Y-99376250D01*
X120348000Y-98377000D01*
X120602000Y-98377000D01*
X120602000Y-99376250D01*
X120760750Y-99535000D01*
X121376309Y-99535000D01*
X121609698Y-99438327D01*
X121788327Y-99259699D01*
X121885000Y-99026310D01*
X121885000Y-98535750D01*
X121726250Y-98377000D01*
X120602000Y-98377000D01*
X120348000Y-98377000D01*
X119223750Y-98377000D01*
X119065000Y-98535750D01*
X113935000Y-98535750D01*
X113776250Y-98377000D01*
X112652000Y-98377000D01*
X112398000Y-98377000D01*
X111273750Y-98377000D01*
X111115000Y-98535750D01*
X107337657Y-98535750D01*
X108399717Y-97473690D01*
X111115000Y-97473690D01*
X111115000Y-97964250D01*
X111273750Y-98123000D01*
X112398000Y-98123000D01*
X112398000Y-97123750D01*
X112652000Y-97123750D01*
X112652000Y-98123000D01*
X113776250Y-98123000D01*
X113935000Y-97964250D01*
X113935000Y-97473690D01*
X119065000Y-97473690D01*
X119065000Y-97964250D01*
X119223750Y-98123000D01*
X120348000Y-98123000D01*
X120348000Y-97123750D01*
X120602000Y-97123750D01*
X120602000Y-98123000D01*
X121726250Y-98123000D01*
X121885000Y-97964250D01*
X121885000Y-97473690D01*
X121788327Y-97240301D01*
X121609698Y-97061673D01*
X121376309Y-96965000D01*
X120760750Y-96965000D01*
X120602000Y-97123750D01*
X120348000Y-97123750D01*
X120189250Y-96965000D01*
X119573691Y-96965000D01*
X119340302Y-97061673D01*
X119161673Y-97240301D01*
X119065000Y-97473690D01*
X113935000Y-97473690D01*
X113838327Y-97240301D01*
X113659698Y-97061673D01*
X113426309Y-96965000D01*
X112810750Y-96965000D01*
X112652000Y-97123750D01*
X112398000Y-97123750D01*
X112239250Y-96965000D01*
X111623691Y-96965000D01*
X111390302Y-97061673D01*
X111211673Y-97240301D01*
X111115000Y-97473690D01*
X108399717Y-97473690D01*
X118286551Y-87586857D01*
X118376473Y-87526773D01*
X118436559Y-87436849D01*
X118565295Y-87244181D01*
X118614511Y-87170524D01*
X118624314Y-87121241D01*
X118832281Y-86982281D01*
X119026116Y-86692188D01*
X119094181Y-86350000D01*
X119094181Y-85150000D01*
X119026116Y-84807812D01*
X118887725Y-84600697D01*
X119194824Y-84539611D01*
X119323832Y-84453411D01*
X119357812Y-84476116D01*
X119700000Y-84544181D01*
X121250000Y-84544181D01*
X121592188Y-84476116D01*
X121882281Y-84282281D01*
X122076116Y-83992188D01*
X122144181Y-83650000D01*
X122144181Y-82350000D01*
X122076116Y-82007812D01*
X121882281Y-81717719D01*
X121592188Y-81523884D01*
X121250000Y-81455819D01*
X119700000Y-81455819D01*
X119357812Y-81523884D01*
X119067719Y-81717719D01*
X118890229Y-81983350D01*
X118879475Y-81985489D01*
X118696244Y-82107921D01*
X118523227Y-82223527D01*
X118463141Y-82313452D01*
X118328493Y-82448100D01*
X114194181Y-82448100D01*
X114194181Y-82350000D01*
X114126116Y-82007812D01*
X113932281Y-81717719D01*
X113642188Y-81523884D01*
X113300000Y-81455819D01*
X111750000Y-81455819D01*
X111407812Y-81523884D01*
X111117719Y-81717719D01*
X110923884Y-82007812D01*
X110855819Y-82350000D01*
X110855819Y-83650000D01*
X110859332Y-83667660D01*
X92803311Y-101723682D01*
X92632281Y-101467719D01*
X92342188Y-101273884D01*
X92000000Y-101205819D01*
X90450000Y-101205819D01*
X90107812Y-101273884D01*
X89817719Y-101467719D01*
X89640229Y-101733350D01*
X89629475Y-101735489D01*
X89497384Y-101823750D01*
X89273227Y-101973527D01*
X89213141Y-102063452D01*
X89078493Y-102198100D01*
X84944181Y-102198100D01*
X84944181Y-102100000D01*
X84876116Y-101757812D01*
X84682281Y-101467719D01*
X84392188Y-101273884D01*
X84050000Y-101205819D01*
X83833388Y-101205819D01*
X86503457Y-98535750D01*
X89815000Y-98535750D01*
X89815000Y-99026310D01*
X89911673Y-99259699D01*
X90090302Y-99438327D01*
X90323691Y-99535000D01*
X90939250Y-99535000D01*
X91098000Y-99376250D01*
X91098000Y-98377000D01*
X91352000Y-98377000D01*
X91352000Y-99376250D01*
X91510750Y-99535000D01*
X92126309Y-99535000D01*
X92359698Y-99438327D01*
X92538327Y-99259699D01*
X92635000Y-99026310D01*
X92635000Y-98535750D01*
X92476250Y-98377000D01*
X91352000Y-98377000D01*
X91098000Y-98377000D01*
X89973750Y-98377000D01*
X89815000Y-98535750D01*
X86503457Y-98535750D01*
X87565517Y-97473690D01*
X89815000Y-97473690D01*
X89815000Y-97964250D01*
X89973750Y-98123000D01*
X91098000Y-98123000D01*
X91098000Y-97123750D01*
X91352000Y-97123750D01*
X91352000Y-98123000D01*
X92476250Y-98123000D01*
X92635000Y-97964250D01*
X92635000Y-97473690D01*
X92538327Y-97240301D01*
X92359698Y-97061673D01*
X92126309Y-96965000D01*
X91510750Y-96965000D01*
X91352000Y-97123750D01*
X91098000Y-97123750D01*
X90939250Y-96965000D01*
X90323691Y-96965000D01*
X90090302Y-97061673D01*
X89911673Y-97240301D01*
X89815000Y-97473690D01*
X87565517Y-97473690D01*
X95036551Y-90002657D01*
X95126473Y-89942573D01*
X95364511Y-89586324D01*
X95427000Y-89272172D01*
X95427000Y-89272167D01*
X95448098Y-89166101D01*
X95427000Y-89060034D01*
X95427000Y-87086037D01*
X95582281Y-86982281D01*
X95776116Y-86692188D01*
X95844181Y-86350000D01*
X95844181Y-85150000D01*
X95776116Y-84807812D01*
X95637725Y-84600697D01*
X95944824Y-84539611D01*
X96073832Y-84453411D01*
X96107812Y-84476116D01*
X96450000Y-84544181D01*
X98000000Y-84544181D01*
X98342188Y-84476116D01*
X98632281Y-84282281D01*
X98826116Y-83992188D01*
X98894181Y-83650000D01*
X98894181Y-82350000D01*
X98826116Y-82007812D01*
X98632281Y-81717719D01*
X98342188Y-81523884D01*
X98000000Y-81455819D01*
X96450000Y-81455819D01*
X96107812Y-81523884D01*
X95817719Y-81717719D01*
X95640229Y-81983350D01*
X95629475Y-81985489D01*
X95446244Y-82107921D01*
X95273227Y-82223527D01*
X95213141Y-82313452D01*
X95078493Y-82448100D01*
X90944181Y-82448100D01*
X90944181Y-82350000D01*
X90876116Y-82007812D01*
X90682281Y-81717719D01*
X90392188Y-81523884D01*
X90050000Y-81455819D01*
X88500000Y-81455819D01*
X88157812Y-81523884D01*
X87867719Y-81717719D01*
X87673884Y-82007812D01*
X87605819Y-82350000D01*
X87605819Y-83650000D01*
X87673884Y-83992188D01*
X87728406Y-84073786D01*
X77685500Y-94116693D01*
X77685500Y-84789866D01*
X77706598Y-84683799D01*
X77685500Y-84577733D01*
X77685500Y-84577728D01*
X77623011Y-84263576D01*
X77508895Y-84092790D01*
X77576116Y-83992188D01*
X77644181Y-83650000D01*
X77644181Y-82350000D01*
X77576116Y-82007812D01*
X77382281Y-81717719D01*
X77092188Y-81523884D01*
X76750000Y-81455819D01*
X75200000Y-81455819D01*
X74857812Y-81523884D01*
X74567719Y-81717719D01*
X74430554Y-81923000D01*
X69569446Y-81923000D01*
X69432281Y-81717719D01*
X69142188Y-81523884D01*
X68800000Y-81455819D01*
X67250000Y-81455819D01*
X66907812Y-81523884D01*
X66617719Y-81717719D01*
X66423884Y-82007812D01*
X66355819Y-82350000D01*
X66355819Y-83650000D01*
X66423884Y-83992188D01*
X66617719Y-84282281D01*
X66907812Y-84476116D01*
X67250000Y-84544181D01*
X68800000Y-84544181D01*
X69142188Y-84476116D01*
X69432281Y-84282281D01*
X69569446Y-84077000D01*
X74430554Y-84077000D01*
X74567719Y-84282281D01*
X74857812Y-84476116D01*
X74980538Y-84500527D01*
X75138442Y-84736849D01*
X75138443Y-84736850D01*
X75198528Y-84826773D01*
X75288450Y-84886857D01*
X75531500Y-85129907D01*
X75531501Y-103269693D01*
X74956714Y-102694906D01*
X75141700Y-102248311D01*
X75141700Y-101740289D01*
X74947288Y-101270938D01*
X74941700Y-101265350D01*
X74941700Y-87621066D01*
X74962798Y-87514999D01*
X74941700Y-87408933D01*
X74941700Y-87408928D01*
X74879211Y-87094776D01*
X74641173Y-86738527D01*
X74551251Y-86678443D01*
X74532567Y-86659759D01*
X74594181Y-86350000D01*
X74594181Y-85150000D01*
X74526116Y-84807812D01*
X74332281Y-84517719D01*
X74042188Y-84323884D01*
X73700000Y-84255819D01*
X72500000Y-84255819D01*
X72157812Y-84323884D01*
X71867719Y-84517719D01*
X71816811Y-84593908D01*
X71626309Y-84515000D01*
X71185750Y-84515000D01*
X71027000Y-84673750D01*
X71027000Y-85623000D01*
X71047000Y-85623000D01*
X71047000Y-85877000D01*
X71027000Y-85877000D01*
X71027000Y-86826250D01*
X71185750Y-86985000D01*
X71626309Y-86985000D01*
X71816811Y-86906092D01*
X71867719Y-86982281D01*
X72075687Y-87121242D01*
X72085490Y-87170524D01*
X72263442Y-87436849D01*
X72263443Y-87436850D01*
X72323528Y-87526773D01*
X72413449Y-87586857D01*
X72787700Y-87961108D01*
X72787701Y-100525893D01*
X67057300Y-94795493D01*
X67057300Y-94106071D01*
X67078399Y-94000000D01*
X66994811Y-93579776D01*
X66756773Y-93223527D01*
X66400524Y-92985489D01*
X66086372Y-92923000D01*
X66086371Y-92923000D01*
X65980300Y-92901901D01*
X65930068Y-92911893D01*
X65617279Y-92702894D01*
X65215623Y-92623000D01*
X64944377Y-92623000D01*
X64887000Y-92634413D01*
X64887000Y-92537371D01*
X64908099Y-92431300D01*
X64824511Y-92011076D01*
X64586473Y-91654827D01*
X64577000Y-91648497D01*
X64577000Y-90954137D01*
X64592188Y-90951116D01*
X64882281Y-90757281D01*
X65076116Y-90467188D01*
X65144181Y-90125000D01*
X65144181Y-88875000D01*
X65076116Y-88532812D01*
X64882281Y-88242719D01*
X64592188Y-88048884D01*
X64250000Y-87980819D01*
X62750000Y-87980819D01*
X62407812Y-88048884D01*
X62117719Y-88242719D01*
X62066811Y-88318908D01*
X61876309Y-88240000D01*
X61285750Y-88240000D01*
X61127000Y-88398750D01*
X61127000Y-89373000D01*
X61147000Y-89373000D01*
X61147000Y-89627000D01*
X61127000Y-89627000D01*
X61127000Y-90601250D01*
X61285750Y-90760000D01*
X61876309Y-90760000D01*
X62066811Y-90681092D01*
X62117719Y-90757281D01*
X62407812Y-90951116D01*
X62423001Y-90954137D01*
X62423001Y-91354300D01*
X59178266Y-91354300D01*
X59072200Y-91333202D01*
X58966133Y-91354300D01*
X58966128Y-91354300D01*
X58651976Y-91416789D01*
X58651974Y-91416790D01*
X58651975Y-91416790D01*
X58385650Y-91594742D01*
X58385649Y-91594743D01*
X58295727Y-91654827D01*
X58235643Y-91744749D01*
X51920852Y-98059541D01*
X51830927Y-98119627D01*
X51592889Y-98475877D01*
X51530400Y-98790029D01*
X51530400Y-98790034D01*
X51509302Y-98896100D01*
X51530400Y-99002167D01*
X51530401Y-103040691D01*
X51394181Y-103176911D01*
X51394181Y-102950000D01*
X51326116Y-102607812D01*
X51132281Y-102317719D01*
X51088071Y-102288179D01*
X51135000Y-102241250D01*
X51135000Y-102173691D01*
X51086927Y-102057632D01*
X51162281Y-102007281D01*
X51356116Y-101717188D01*
X51424181Y-101375000D01*
X51424181Y-99375000D01*
X51356116Y-99032812D01*
X51162281Y-98742719D01*
X50872188Y-98548884D01*
X50530000Y-98480819D01*
X49130000Y-98480819D01*
X48787812Y-98548884D01*
X48497719Y-98742719D01*
X48323591Y-99003319D01*
X48160000Y-99003319D01*
X47817812Y-99071384D01*
X47527719Y-99265219D01*
X47338770Y-99548000D01*
X46204607Y-99548000D01*
X45952000Y-99598247D01*
X45952000Y-89785750D01*
X59615000Y-89785750D01*
X59615000Y-90251310D01*
X59711673Y-90484699D01*
X59890302Y-90663327D01*
X60123691Y-90760000D01*
X60714250Y-90760000D01*
X60873000Y-90601250D01*
X60873000Y-89627000D01*
X59773750Y-89627000D01*
X59615000Y-89785750D01*
X45952000Y-89785750D01*
X45952000Y-88748690D01*
X59615000Y-88748690D01*
X59615000Y-89214250D01*
X59773750Y-89373000D01*
X60873000Y-89373000D01*
X60873000Y-88398750D01*
X60714250Y-88240000D01*
X60123691Y-88240000D01*
X59890302Y-88336673D01*
X59711673Y-88515301D01*
X59615000Y-88748690D01*
X45952000Y-88748690D01*
X45952000Y-86035750D01*
X69665000Y-86035750D01*
X69665000Y-86476310D01*
X69761673Y-86709699D01*
X69940302Y-86888327D01*
X70173691Y-86985000D01*
X70614250Y-86985000D01*
X70773000Y-86826250D01*
X70773000Y-85877000D01*
X69823750Y-85877000D01*
X69665000Y-86035750D01*
X45952000Y-86035750D01*
X45952000Y-85023690D01*
X69665000Y-85023690D01*
X69665000Y-85464250D01*
X69823750Y-85623000D01*
X70773000Y-85623000D01*
X70773000Y-84673750D01*
X70614250Y-84515000D01*
X70173691Y-84515000D01*
X69940302Y-84611673D01*
X69761673Y-84790301D01*
X69665000Y-85023690D01*
X45952000Y-85023690D01*
X45952000Y-78785750D01*
X66615000Y-78785750D01*
X66615000Y-79276310D01*
X66711673Y-79509699D01*
X66890302Y-79688327D01*
X67123691Y-79785000D01*
X67739250Y-79785000D01*
X67898000Y-79626250D01*
X67898000Y-78627000D01*
X68152000Y-78627000D01*
X68152000Y-79626250D01*
X68310750Y-79785000D01*
X68926309Y-79785000D01*
X69159698Y-79688327D01*
X69338327Y-79509699D01*
X69435000Y-79276310D01*
X69435000Y-78785750D01*
X74565000Y-78785750D01*
X74565000Y-79276310D01*
X74661673Y-79509699D01*
X74840302Y-79688327D01*
X75073691Y-79785000D01*
X75689250Y-79785000D01*
X75848000Y-79626250D01*
X75848000Y-78627000D01*
X76102000Y-78627000D01*
X76102000Y-79626250D01*
X76260750Y-79785000D01*
X76876309Y-79785000D01*
X77109698Y-79688327D01*
X77288327Y-79509699D01*
X77385000Y-79276310D01*
X77385000Y-78785750D01*
X87865000Y-78785750D01*
X87865000Y-79276310D01*
X87961673Y-79509699D01*
X88140302Y-79688327D01*
X88373691Y-79785000D01*
X88989250Y-79785000D01*
X89148000Y-79626250D01*
X89148000Y-78627000D01*
X89402000Y-78627000D01*
X89402000Y-79626250D01*
X89560750Y-79785000D01*
X90176309Y-79785000D01*
X90409698Y-79688327D01*
X90588327Y-79509699D01*
X90685000Y-79276310D01*
X90685000Y-78785750D01*
X95815000Y-78785750D01*
X95815000Y-79276310D01*
X95911673Y-79509699D01*
X96090302Y-79688327D01*
X96323691Y-79785000D01*
X96939250Y-79785000D01*
X97098000Y-79626250D01*
X97098000Y-78627000D01*
X97352000Y-78627000D01*
X97352000Y-79626250D01*
X97510750Y-79785000D01*
X98126309Y-79785000D01*
X98359698Y-79688327D01*
X98538327Y-79509699D01*
X98635000Y-79276310D01*
X98635000Y-78785750D01*
X111115000Y-78785750D01*
X111115000Y-79276310D01*
X111211673Y-79509699D01*
X111390302Y-79688327D01*
X111623691Y-79785000D01*
X112239250Y-79785000D01*
X112398000Y-79626250D01*
X112398000Y-78627000D01*
X112652000Y-78627000D01*
X112652000Y-79626250D01*
X112810750Y-79785000D01*
X113426309Y-79785000D01*
X113659698Y-79688327D01*
X113838327Y-79509699D01*
X113935000Y-79276310D01*
X113935000Y-78785750D01*
X119065000Y-78785750D01*
X119065000Y-79276310D01*
X119161673Y-79509699D01*
X119340302Y-79688327D01*
X119573691Y-79785000D01*
X120189250Y-79785000D01*
X120348000Y-79626250D01*
X120348000Y-78627000D01*
X120602000Y-78627000D01*
X120602000Y-79626250D01*
X120760750Y-79785000D01*
X121376309Y-79785000D01*
X121609698Y-79688327D01*
X121788327Y-79509699D01*
X121885000Y-79276310D01*
X121885000Y-78785750D01*
X121726250Y-78627000D01*
X120602000Y-78627000D01*
X120348000Y-78627000D01*
X119223750Y-78627000D01*
X119065000Y-78785750D01*
X113935000Y-78785750D01*
X113776250Y-78627000D01*
X112652000Y-78627000D01*
X112398000Y-78627000D01*
X111273750Y-78627000D01*
X111115000Y-78785750D01*
X98635000Y-78785750D01*
X98476250Y-78627000D01*
X97352000Y-78627000D01*
X97098000Y-78627000D01*
X95973750Y-78627000D01*
X95815000Y-78785750D01*
X90685000Y-78785750D01*
X90526250Y-78627000D01*
X89402000Y-78627000D01*
X89148000Y-78627000D01*
X88023750Y-78627000D01*
X87865000Y-78785750D01*
X77385000Y-78785750D01*
X77226250Y-78627000D01*
X76102000Y-78627000D01*
X75848000Y-78627000D01*
X74723750Y-78627000D01*
X74565000Y-78785750D01*
X69435000Y-78785750D01*
X69276250Y-78627000D01*
X68152000Y-78627000D01*
X67898000Y-78627000D01*
X66773750Y-78627000D01*
X66615000Y-78785750D01*
X45952000Y-78785750D01*
X45952000Y-77723690D01*
X66615000Y-77723690D01*
X66615000Y-78214250D01*
X66773750Y-78373000D01*
X67898000Y-78373000D01*
X67898000Y-77373750D01*
X68152000Y-77373750D01*
X68152000Y-78373000D01*
X69276250Y-78373000D01*
X69435000Y-78214250D01*
X69435000Y-77723690D01*
X74565000Y-77723690D01*
X74565000Y-78214250D01*
X74723750Y-78373000D01*
X75848000Y-78373000D01*
X75848000Y-77373750D01*
X76102000Y-77373750D01*
X76102000Y-78373000D01*
X77226250Y-78373000D01*
X77385000Y-78214250D01*
X77385000Y-77723690D01*
X87865000Y-77723690D01*
X87865000Y-78214250D01*
X88023750Y-78373000D01*
X89148000Y-78373000D01*
X89148000Y-77373750D01*
X89402000Y-77373750D01*
X89402000Y-78373000D01*
X90526250Y-78373000D01*
X90685000Y-78214250D01*
X90685000Y-77723690D01*
X95815000Y-77723690D01*
X95815000Y-78214250D01*
X95973750Y-78373000D01*
X97098000Y-78373000D01*
X97098000Y-77373750D01*
X97352000Y-77373750D01*
X97352000Y-78373000D01*
X98476250Y-78373000D01*
X98635000Y-78214250D01*
X98635000Y-77723690D01*
X111115000Y-77723690D01*
X111115000Y-78214250D01*
X111273750Y-78373000D01*
X112398000Y-78373000D01*
X112398000Y-77373750D01*
X112652000Y-77373750D01*
X112652000Y-78373000D01*
X113776250Y-78373000D01*
X113935000Y-78214250D01*
X113935000Y-77723690D01*
X119065000Y-77723690D01*
X119065000Y-78214250D01*
X119223750Y-78373000D01*
X120348000Y-78373000D01*
X120348000Y-77373750D01*
X120602000Y-77373750D01*
X120602000Y-78373000D01*
X121726250Y-78373000D01*
X121885000Y-78214250D01*
X121885000Y-77723690D01*
X121788327Y-77490301D01*
X121609698Y-77311673D01*
X121376309Y-77215000D01*
X120760750Y-77215000D01*
X120602000Y-77373750D01*
X120348000Y-77373750D01*
X120189250Y-77215000D01*
X119573691Y-77215000D01*
X119340302Y-77311673D01*
X119161673Y-77490301D01*
X119065000Y-77723690D01*
X113935000Y-77723690D01*
X113838327Y-77490301D01*
X113659698Y-77311673D01*
X113426309Y-77215000D01*
X112810750Y-77215000D01*
X112652000Y-77373750D01*
X112398000Y-77373750D01*
X112239250Y-77215000D01*
X111623691Y-77215000D01*
X111390302Y-77311673D01*
X111211673Y-77490301D01*
X111115000Y-77723690D01*
X98635000Y-77723690D01*
X98538327Y-77490301D01*
X98359698Y-77311673D01*
X98126309Y-77215000D01*
X97510750Y-77215000D01*
X97352000Y-77373750D01*
X97098000Y-77373750D01*
X96939250Y-77215000D01*
X96323691Y-77215000D01*
X96090302Y-77311673D01*
X95911673Y-77490301D01*
X95815000Y-77723690D01*
X90685000Y-77723690D01*
X90588327Y-77490301D01*
X90409698Y-77311673D01*
X90176309Y-77215000D01*
X89560750Y-77215000D01*
X89402000Y-77373750D01*
X89148000Y-77373750D01*
X88989250Y-77215000D01*
X88373691Y-77215000D01*
X88140302Y-77311673D01*
X87961673Y-77490301D01*
X87865000Y-77723690D01*
X77385000Y-77723690D01*
X77288327Y-77490301D01*
X77109698Y-77311673D01*
X76876309Y-77215000D01*
X76260750Y-77215000D01*
X76102000Y-77373750D01*
X75848000Y-77373750D01*
X75689250Y-77215000D01*
X75073691Y-77215000D01*
X74840302Y-77311673D01*
X74661673Y-77490301D01*
X74565000Y-77723690D01*
X69435000Y-77723690D01*
X69338327Y-77490301D01*
X69159698Y-77311673D01*
X68926309Y-77215000D01*
X68310750Y-77215000D01*
X68152000Y-77373750D01*
X67898000Y-77373750D01*
X67739250Y-77215000D01*
X67123691Y-77215000D01*
X66890302Y-77311673D01*
X66711673Y-77490301D01*
X66615000Y-77723690D01*
X45952000Y-77723690D01*
X45952000Y-77524505D01*
X46027671Y-76056104D01*
X46250107Y-74627500D01*
X46618216Y-73229326D01*
X47128095Y-71876400D01*
X47774341Y-70583059D01*
X48550112Y-69362993D01*
X48623000Y-69270866D01*
X48623000Y-70171727D01*
X49137118Y-71412917D01*
X50087083Y-72362882D01*
X51328273Y-72877000D01*
X52671727Y-72877000D01*
X53912917Y-72362882D01*
X54862882Y-71412917D01*
X55377000Y-70171727D01*
X55377000Y-68828273D01*
X54862882Y-67587083D01*
X54775799Y-67500000D01*
X126980819Y-67500000D01*
X126980819Y-69000000D01*
X127048884Y-69342188D01*
X127242719Y-69632281D01*
X127341800Y-69698485D01*
X127341800Y-69892011D01*
X127536212Y-70361362D01*
X127895438Y-70720588D01*
X128364789Y-70915000D01*
X128872811Y-70915000D01*
X129342162Y-70720588D01*
X129701388Y-70361362D01*
X129895800Y-69892011D01*
X129895800Y-69424974D01*
X129951116Y-69342188D01*
X130019181Y-69000000D01*
X130019181Y-67500000D01*
X129951116Y-67157812D01*
X129757281Y-66867719D01*
X129681092Y-66816811D01*
X129760000Y-66626309D01*
X129760000Y-66035750D01*
X129601250Y-65877000D01*
X128627000Y-65877000D01*
X128627000Y-65897000D01*
X128373000Y-65897000D01*
X128373000Y-65877000D01*
X127398750Y-65877000D01*
X127240000Y-66035750D01*
X127240000Y-66626309D01*
X127318908Y-66816811D01*
X127242719Y-66867719D01*
X127048884Y-67157812D01*
X126980819Y-67500000D01*
X54775799Y-67500000D01*
X53912917Y-66637118D01*
X52671727Y-66123000D01*
X51780006Y-66123000D01*
X52765396Y-65459596D01*
X53865007Y-64873691D01*
X127240000Y-64873691D01*
X127240000Y-65464250D01*
X127398750Y-65623000D01*
X128373000Y-65623000D01*
X128373000Y-64523750D01*
X128627000Y-64523750D01*
X128627000Y-65623000D01*
X129601250Y-65623000D01*
X129760000Y-65464250D01*
X129760000Y-64873691D01*
X129663327Y-64640302D01*
X129484699Y-64461673D01*
X129251310Y-64365000D01*
X128785750Y-64365000D01*
X128627000Y-64523750D01*
X128373000Y-64523750D01*
X128214250Y-64365000D01*
X127748690Y-64365000D01*
X127515301Y-64461673D01*
X127336673Y-64640302D01*
X127240000Y-64873691D01*
X53865007Y-64873691D01*
X54041387Y-64779711D01*
X55380492Y-64234595D01*
X56768553Y-63830013D01*
X58190846Y-63570256D01*
X59650559Y-63456655D01*
X60006197Y-63452000D01*
X219975495Y-63452000D01*
X221443896Y-63527671D01*
X221443896Y-63527671D01*
G37*
X221443896Y-63527671D02*
X222872500Y-63750107D01*
X224270674Y-64118216D01*
X225623600Y-64628095D01*
X226916941Y-65274341D01*
X228137007Y-66050112D01*
X228229134Y-66123000D01*
X227328273Y-66123000D01*
X226087083Y-66637118D01*
X225137118Y-67587083D01*
X224623000Y-68828273D01*
X224623000Y-70171727D01*
X225137118Y-71412917D01*
X226087083Y-72362882D01*
X227328273Y-72877000D01*
X228671727Y-72877000D01*
X229912917Y-72362882D01*
X230862882Y-71412917D01*
X231377000Y-70171727D01*
X231377000Y-69280006D01*
X232040404Y-70265396D01*
X232720289Y-71541387D01*
X233265405Y-72880492D01*
X233669987Y-74268553D01*
X233929744Y-75690846D01*
X234043345Y-77150559D01*
X234048000Y-77506197D01*
X234048001Y-129975476D01*
X233972329Y-131443896D01*
X233749893Y-132872500D01*
X233381783Y-134270677D01*
X232871908Y-135623592D01*
X232225658Y-136916941D01*
X231449888Y-138137007D01*
X231377000Y-138229134D01*
X231377000Y-137328273D01*
X230862882Y-136087083D01*
X229912917Y-135137118D01*
X228671727Y-134623000D01*
X227328273Y-134623000D01*
X226087083Y-135137118D01*
X225137118Y-136087083D01*
X224623000Y-137328273D01*
X224623000Y-138671727D01*
X225137118Y-139912917D01*
X226087083Y-140862882D01*
X227328273Y-141377000D01*
X228219994Y-141377000D01*
X227234604Y-142040404D01*
X225958613Y-142720289D01*
X224619511Y-143265404D01*
X223231447Y-143669987D01*
X221809154Y-143929744D01*
X220349441Y-144043345D01*
X219993803Y-144048000D01*
X121770330Y-144048000D01*
X121791912Y-143971517D01*
X121000000Y-143179605D01*
X120208088Y-143971517D01*
X120229670Y-144048000D01*
X112252926Y-144048000D01*
X112379304Y-143921622D01*
X112627000Y-143323630D01*
X112627000Y-142896107D01*
X112727936Y-142795171D01*
X119602799Y-142795171D01*
X119630770Y-143345448D01*
X119787540Y-143723923D01*
X120028483Y-143791912D01*
X120820395Y-143000000D01*
X121179605Y-143000000D01*
X121971517Y-143791912D01*
X122212460Y-143723923D01*
X122397201Y-143204829D01*
X122369230Y-142654552D01*
X122212460Y-142276077D01*
X121971517Y-142208088D01*
X121179605Y-143000000D01*
X120820395Y-143000000D01*
X120028483Y-142208088D01*
X119787540Y-142276077D01*
X119602799Y-142795171D01*
X112727936Y-142795171D01*
X113494624Y-142028483D01*
X120208088Y-142028483D01*
X121000000Y-142820395D01*
X121784645Y-142035750D01*
X126740000Y-142035750D01*
X126740000Y-142626309D01*
X126836673Y-142859698D01*
X127015301Y-143038327D01*
X127248690Y-143135000D01*
X127714250Y-143135000D01*
X127873000Y-142976250D01*
X127873000Y-141877000D01*
X128127000Y-141877000D01*
X128127000Y-142976250D01*
X128285750Y-143135000D01*
X128751310Y-143135000D01*
X128984699Y-143038327D01*
X129163327Y-142859698D01*
X129260000Y-142626309D01*
X129260000Y-142035750D01*
X129101250Y-141877000D01*
X128127000Y-141877000D01*
X127873000Y-141877000D01*
X126898750Y-141877000D01*
X126740000Y-142035750D01*
X121784645Y-142035750D01*
X121791912Y-142028483D01*
X121723923Y-141787540D01*
X121204829Y-141602799D01*
X120654552Y-141630770D01*
X120276077Y-141787540D01*
X120208088Y-142028483D01*
X113494624Y-142028483D01*
X115196108Y-140327000D01*
X126545863Y-140327000D01*
X126548884Y-140342188D01*
X126742719Y-140632281D01*
X126818908Y-140683189D01*
X126740000Y-140873691D01*
X126740000Y-141464250D01*
X126898750Y-141623000D01*
X127873000Y-141623000D01*
X127873000Y-141603000D01*
X128127000Y-141603000D01*
X128127000Y-141623000D01*
X129101250Y-141623000D01*
X129260000Y-141464250D01*
X129260000Y-140873691D01*
X129181092Y-140683189D01*
X129257281Y-140632281D01*
X129451116Y-140342188D01*
X129519181Y-140000000D01*
X129519181Y-138500000D01*
X129451116Y-138157812D01*
X129257281Y-137867719D01*
X129077000Y-137747258D01*
X129077000Y-137085750D01*
X138815000Y-137085750D01*
X138815000Y-138676309D01*
X138911673Y-138909698D01*
X139090301Y-139088327D01*
X139323690Y-139185000D01*
X140914250Y-139185000D01*
X141073000Y-139026250D01*
X141073000Y-136927000D01*
X141327000Y-136927000D01*
X141327000Y-139026250D01*
X141485750Y-139185000D01*
X143076310Y-139185000D01*
X143309699Y-139088327D01*
X143488327Y-138909698D01*
X143585000Y-138676309D01*
X143585000Y-137085750D01*
X143426250Y-136927000D01*
X141327000Y-136927000D01*
X141073000Y-136927000D01*
X138973750Y-136927000D01*
X138815000Y-137085750D01*
X129077000Y-137085750D01*
X129077000Y-132495807D01*
X133987057Y-127585750D01*
X134815000Y-127585750D01*
X134815000Y-128176310D01*
X134911673Y-128409699D01*
X135090302Y-128588327D01*
X135323691Y-128685000D01*
X136164250Y-128685000D01*
X136323000Y-128526250D01*
X136323000Y-127427000D01*
X136577000Y-127427000D01*
X136577000Y-128526250D01*
X136735750Y-128685000D01*
X137576309Y-128685000D01*
X137809698Y-128588327D01*
X137988327Y-128409699D01*
X138085000Y-128176310D01*
X138085000Y-127585750D01*
X137926250Y-127427000D01*
X136577000Y-127427000D01*
X136323000Y-127427000D01*
X134973750Y-127427000D01*
X134815000Y-127585750D01*
X133987057Y-127585750D01*
X134815000Y-126757808D01*
X134815000Y-127014250D01*
X134973750Y-127173000D01*
X136323000Y-127173000D01*
X136323000Y-127153000D01*
X136577000Y-127153000D01*
X136577000Y-127173000D01*
X137926250Y-127173000D01*
X138063221Y-127036029D01*
X139227307Y-128200115D01*
X139107812Y-128223884D01*
X138817719Y-128417719D01*
X138623884Y-128707812D01*
X138555819Y-129050000D01*
X138555819Y-131216650D01*
X138250000Y-131155819D01*
X134750000Y-131155819D01*
X134407812Y-131223884D01*
X134117719Y-131417719D01*
X133923884Y-131707812D01*
X133855819Y-132050000D01*
X133855819Y-135550000D01*
X133923884Y-135892188D01*
X134117719Y-136182281D01*
X134407812Y-136376116D01*
X134750000Y-136444181D01*
X138250000Y-136444181D01*
X138592188Y-136376116D01*
X138815000Y-136227237D01*
X138815000Y-136514250D01*
X138973750Y-136673000D01*
X141073000Y-136673000D01*
X141073000Y-134573750D01*
X141327000Y-134573750D01*
X141327000Y-136673000D01*
X143426250Y-136673000D01*
X143585000Y-136514250D01*
X143585000Y-134923691D01*
X143488327Y-134690302D01*
X143309699Y-134511673D01*
X143076310Y-134415000D01*
X141485750Y-134415000D01*
X141327000Y-134573750D01*
X141073000Y-134573750D01*
X140914250Y-134415000D01*
X139323690Y-134415000D01*
X139144181Y-134489355D01*
X139144181Y-133383350D01*
X139450000Y-133444181D01*
X142950000Y-133444181D01*
X143292188Y-133376116D01*
X143582281Y-133182281D01*
X143776116Y-132892188D01*
X143844181Y-132550000D01*
X143844181Y-129050000D01*
X143776116Y-128707812D01*
X143582281Y-128417719D01*
X143292188Y-128223884D01*
X142950000Y-128155819D01*
X142165295Y-128155819D01*
X142088928Y-128041528D01*
X142036558Y-127963150D01*
X142036557Y-127963149D01*
X141976473Y-127873227D01*
X141886551Y-127813143D01*
X141867589Y-127794181D01*
X143750000Y-127794181D01*
X144092188Y-127726116D01*
X144382281Y-127532281D01*
X144576116Y-127242188D01*
X144644181Y-126900000D01*
X144644181Y-123100000D01*
X144576116Y-122757812D01*
X144382281Y-122467719D01*
X144092188Y-122273884D01*
X143750000Y-122205819D01*
X143715295Y-122205819D01*
X143526473Y-121923227D01*
X143436551Y-121863143D01*
X142386759Y-120813352D01*
X142326673Y-120723427D01*
X141970424Y-120485389D01*
X141656272Y-120422900D01*
X141656266Y-120422900D01*
X141550200Y-120401802D01*
X141444134Y-120422900D01*
X135435968Y-120422900D01*
X135329900Y-120401802D01*
X135223832Y-120422900D01*
X135223828Y-120422900D01*
X134909676Y-120485389D01*
X134553427Y-120723427D01*
X134493341Y-120813352D01*
X134363152Y-120943541D01*
X134273227Y-121003627D01*
X134035189Y-121359877D01*
X133972700Y-121674029D01*
X133972700Y-121674034D01*
X133951602Y-121780100D01*
X133972700Y-121886167D01*
X133972701Y-124553891D01*
X127313452Y-131213141D01*
X127223527Y-131273227D01*
X126985489Y-131629477D01*
X126923000Y-131943629D01*
X126923000Y-131943634D01*
X126901902Y-132049700D01*
X126923000Y-132155767D01*
X126923001Y-137747258D01*
X126742719Y-137867719D01*
X126548884Y-138157812D01*
X126545863Y-138173000D01*
X114856066Y-138173000D01*
X114750000Y-138151902D01*
X114643933Y-138173000D01*
X114643928Y-138173000D01*
X114329776Y-138235489D01*
X114287563Y-138263695D01*
X114063450Y-138413442D01*
X114063449Y-138413443D01*
X113973527Y-138473527D01*
X113913443Y-138563449D01*
X111103893Y-141373000D01*
X110676370Y-141373000D01*
X110078378Y-141620696D01*
X109620696Y-142078378D01*
X109373000Y-142676370D01*
X109373000Y-143323630D01*
X109620696Y-143921622D01*
X109747074Y-144048000D01*
X60024505Y-144048000D01*
X58556104Y-143972329D01*
X57127500Y-143749893D01*
X55729323Y-143381783D01*
X54376408Y-142871908D01*
X53083059Y-142225658D01*
X51862993Y-141449888D01*
X51770866Y-141377000D01*
X52671727Y-141377000D01*
X53912917Y-140862882D01*
X54862882Y-139912917D01*
X55377000Y-138671727D01*
X55377000Y-137328273D01*
X54862882Y-136087083D01*
X53912917Y-135137118D01*
X52671727Y-134623000D01*
X51328273Y-134623000D01*
X50087083Y-135137118D01*
X49137118Y-136087083D01*
X48623000Y-137328273D01*
X48623000Y-138219994D01*
X47959596Y-137234604D01*
X47279711Y-135958613D01*
X46734596Y-134619511D01*
X46330013Y-133231447D01*
X46070256Y-131809154D01*
X45956655Y-130349441D01*
X45952000Y-129993803D01*
X45952000Y-108001753D01*
X46204607Y-108052000D01*
X47338770Y-108052000D01*
X47527719Y-108334781D01*
X47817812Y-108528616D01*
X48160000Y-108596681D01*
X48323591Y-108596681D01*
X48497719Y-108857281D01*
X48787812Y-109051116D01*
X49130000Y-109119181D01*
X50530000Y-109119181D01*
X50872188Y-109051116D01*
X51162281Y-108857281D01*
X51356116Y-108567188D01*
X51424181Y-108225000D01*
X51424181Y-107053088D01*
X53423001Y-109051909D01*
X53423000Y-109712254D01*
X53355819Y-110050000D01*
X53355819Y-110950000D01*
X53423001Y-111287747D01*
X53423000Y-112212255D01*
X53355819Y-112550000D01*
X53355819Y-113450000D01*
X53423884Y-113792188D01*
X53564026Y-114001924D01*
X53557212Y-114008738D01*
X53362800Y-114478089D01*
X53362800Y-114485993D01*
X53241351Y-114607441D01*
X53151427Y-114667527D01*
X52913389Y-115023777D01*
X52850900Y-115337929D01*
X52850900Y-115337934D01*
X52829802Y-115444000D01*
X52850900Y-115550067D01*
X52850901Y-128992600D01*
X52755789Y-128992600D01*
X52286438Y-129187012D01*
X51927212Y-129546238D01*
X51732800Y-130015589D01*
X51732800Y-130523611D01*
X51927212Y-130992962D01*
X51932800Y-130998550D01*
X51932801Y-132423329D01*
X51911702Y-132529400D01*
X51932801Y-132635472D01*
X51948516Y-132714476D01*
X51995290Y-132949624D01*
X52173242Y-133215949D01*
X52173244Y-133215951D01*
X52233328Y-133305873D01*
X52323250Y-133365957D01*
X60525543Y-141568251D01*
X60585627Y-141658173D01*
X60675549Y-141718257D01*
X60675550Y-141718258D01*
X60779238Y-141787540D01*
X60941876Y-141896211D01*
X61256028Y-141958700D01*
X61256033Y-141958700D01*
X61362100Y-141979798D01*
X61468166Y-141958700D01*
X90762121Y-141958700D01*
X90815089Y-142086576D01*
X91413424Y-142684911D01*
X92195185Y-143008728D01*
X93041359Y-143008728D01*
X93823120Y-142684911D01*
X94421455Y-142086576D01*
X94745272Y-141304815D01*
X94745272Y-140458641D01*
X94421455Y-139676880D01*
X93823120Y-139078545D01*
X93041359Y-138754728D01*
X92574177Y-138754728D01*
X92678273Y-138685173D01*
X92738359Y-138595248D01*
X103662200Y-127671408D01*
X103662201Y-135604529D01*
X103641102Y-135710600D01*
X103662201Y-135816672D01*
X103674400Y-135878000D01*
X103674400Y-136176811D01*
X103868812Y-136646162D01*
X104228038Y-137005388D01*
X104697389Y-137199800D01*
X105205411Y-137199800D01*
X105674762Y-137005388D01*
X106033988Y-136646162D01*
X106228400Y-136176811D01*
X106228400Y-135668789D01*
X106033988Y-135199438D01*
X105816200Y-134981650D01*
X105816200Y-128898960D01*
X105981419Y-128967396D01*
X106279854Y-128851745D01*
X106279854Y-127399754D01*
X106392713Y-127286895D01*
X106325964Y-127220146D01*
X106533854Y-127220146D01*
X106533854Y-128851745D01*
X106832289Y-128967396D01*
X107517149Y-128661920D01*
X108032977Y-128117613D01*
X108281104Y-127518581D01*
X108165453Y-127220146D01*
X106533854Y-127220146D01*
X106325964Y-127220146D01*
X106213105Y-127107287D01*
X106100246Y-127220146D01*
X105816200Y-127220146D01*
X105816200Y-126966146D01*
X106100246Y-126966146D01*
X106213105Y-127079005D01*
X106392713Y-126899397D01*
X106279854Y-126786538D01*
X106279854Y-126279753D01*
X106533854Y-126025753D01*
X106533854Y-126966146D01*
X108165453Y-126966146D01*
X108281104Y-126667711D01*
X107975628Y-125982851D01*
X107431321Y-125467023D01*
X107210875Y-125375711D01*
X107647662Y-125194788D01*
X108006888Y-124835562D01*
X108201300Y-124366211D01*
X108201300Y-123858189D01*
X108006888Y-123388838D01*
X107975829Y-123357779D01*
X108506608Y-122827000D01*
X110980554Y-122827000D01*
X111117719Y-123032281D01*
X111407812Y-123226116D01*
X111750000Y-123294181D01*
X113300000Y-123294181D01*
X113642188Y-123226116D01*
X113932281Y-123032281D01*
X114069446Y-122827000D01*
X118930554Y-122827000D01*
X119067719Y-123032281D01*
X119357812Y-123226116D01*
X119700000Y-123294181D01*
X121250000Y-123294181D01*
X121592188Y-123226116D01*
X121882281Y-123032281D01*
X122076116Y-122742188D01*
X122144181Y-122400000D01*
X122144181Y-121100000D01*
X122076116Y-120757812D01*
X121882281Y-120467719D01*
X121592188Y-120273884D01*
X121250000Y-120205819D01*
X119700000Y-120205819D01*
X119357812Y-120273884D01*
X119067719Y-120467719D01*
X118930554Y-120673000D01*
X114069446Y-120673000D01*
X113932281Y-120467719D01*
X113642188Y-120273884D01*
X113300000Y-120205819D01*
X111750000Y-120205819D01*
X111407812Y-120273884D01*
X111117719Y-120467719D01*
X110980554Y-120673000D01*
X108166568Y-120673000D01*
X108060500Y-120651902D01*
X107954432Y-120673000D01*
X107954428Y-120673000D01*
X107703277Y-120722957D01*
X107640275Y-120735489D01*
X107373950Y-120913442D01*
X107373949Y-120913443D01*
X107284027Y-120973527D01*
X107223943Y-121063449D01*
X98397500Y-129889893D01*
X98397500Y-128593707D01*
X106211908Y-120779300D01*
X106219811Y-120779300D01*
X106689162Y-120584888D01*
X107048388Y-120225662D01*
X107242800Y-119756311D01*
X107242800Y-119248289D01*
X107048388Y-118778938D01*
X106689162Y-118419712D01*
X106219811Y-118225300D01*
X105711789Y-118225300D01*
X105242438Y-118419712D01*
X104883212Y-118778938D01*
X104688800Y-119248289D01*
X104688800Y-119256192D01*
X96633952Y-127311041D01*
X96544027Y-127371127D01*
X96305989Y-127727377D01*
X96243500Y-128041529D01*
X96243500Y-128041534D01*
X96222402Y-128147600D01*
X96243500Y-128253667D01*
X96243501Y-130605349D01*
X96237912Y-130610938D01*
X96043500Y-131080289D01*
X96043500Y-131588311D01*
X96235516Y-132051877D01*
X91455693Y-136831700D01*
X81016707Y-136831700D01*
X100312657Y-117535750D01*
X111115000Y-117535750D01*
X111115000Y-118026310D01*
X111211673Y-118259699D01*
X111390302Y-118438327D01*
X111623691Y-118535000D01*
X112239250Y-118535000D01*
X112398000Y-118376250D01*
X112398000Y-117377000D01*
X112652000Y-117377000D01*
X112652000Y-118376250D01*
X112810750Y-118535000D01*
X113426309Y-118535000D01*
X113659698Y-118438327D01*
X113838327Y-118259699D01*
X113935000Y-118026310D01*
X113935000Y-117535750D01*
X119065000Y-117535750D01*
X119065000Y-118026310D01*
X119161673Y-118259699D01*
X119340302Y-118438327D01*
X119573691Y-118535000D01*
X120189250Y-118535000D01*
X120348000Y-118376250D01*
X120348000Y-117377000D01*
X120602000Y-117377000D01*
X120602000Y-118376250D01*
X120760750Y-118535000D01*
X121376309Y-118535000D01*
X121609698Y-118438327D01*
X121788327Y-118259699D01*
X121885000Y-118026310D01*
X121885000Y-117535750D01*
X121726250Y-117377000D01*
X120602000Y-117377000D01*
X120348000Y-117377000D01*
X119223750Y-117377000D01*
X119065000Y-117535750D01*
X113935000Y-117535750D01*
X113776250Y-117377000D01*
X112652000Y-117377000D01*
X112398000Y-117377000D01*
X111273750Y-117377000D01*
X111115000Y-117535750D01*
X100312657Y-117535750D01*
X101374717Y-116473690D01*
X111115000Y-116473690D01*
X111115000Y-116964250D01*
X111273750Y-117123000D01*
X112398000Y-117123000D01*
X112398000Y-116123750D01*
X112652000Y-116123750D01*
X112652000Y-117123000D01*
X113776250Y-117123000D01*
X113935000Y-116964250D01*
X113935000Y-116473690D01*
X119065000Y-116473690D01*
X119065000Y-116964250D01*
X119223750Y-117123000D01*
X120348000Y-117123000D01*
X120348000Y-116123750D01*
X120602000Y-116123750D01*
X120602000Y-117123000D01*
X121726250Y-117123000D01*
X121885000Y-116964250D01*
X121885000Y-116473690D01*
X121788327Y-116240301D01*
X121609698Y-116061673D01*
X121376309Y-115965000D01*
X120760750Y-115965000D01*
X120602000Y-116123750D01*
X120348000Y-116123750D01*
X120189250Y-115965000D01*
X119573691Y-115965000D01*
X119340302Y-116061673D01*
X119161673Y-116240301D01*
X119065000Y-116473690D01*
X113935000Y-116473690D01*
X113838327Y-116240301D01*
X113659698Y-116061673D01*
X113426309Y-115965000D01*
X112810750Y-115965000D01*
X112652000Y-116123750D01*
X112398000Y-116123750D01*
X112239250Y-115965000D01*
X111623691Y-115965000D01*
X111390302Y-116061673D01*
X111211673Y-116240301D01*
X111115000Y-116473690D01*
X101374717Y-116473690D01*
X106476318Y-111372089D01*
X143929300Y-111372089D01*
X143929300Y-111880111D01*
X144123712Y-112349462D01*
X144482938Y-112708688D01*
X144952289Y-112903100D01*
X145460311Y-112903100D01*
X145929662Y-112708688D01*
X146288888Y-112349462D01*
X146483300Y-111880111D01*
X146483300Y-111372089D01*
X146288888Y-110902738D01*
X146283300Y-110897150D01*
X146283300Y-104333289D01*
X155625800Y-104333289D01*
X155625800Y-104841311D01*
X155820212Y-105310662D01*
X155825800Y-105316250D01*
X155825801Y-136351654D01*
X155771400Y-136482989D01*
X155771400Y-136991011D01*
X155965812Y-137460362D01*
X156325038Y-137819588D01*
X156794389Y-138014000D01*
X157302411Y-138014000D01*
X157771762Y-137819588D01*
X158130988Y-137460362D01*
X158325400Y-136991011D01*
X158325400Y-136482989D01*
X158201095Y-136182889D01*
X197650400Y-136182889D01*
X197650400Y-136690911D01*
X197844812Y-137160262D01*
X198204038Y-137519488D01*
X198673389Y-137713900D01*
X199181411Y-137713900D01*
X199650762Y-137519488D01*
X200009988Y-137160262D01*
X200204400Y-136690911D01*
X200204400Y-136182889D01*
X200009988Y-135713538D01*
X200004400Y-135707950D01*
X200004400Y-104888107D01*
X201309508Y-103583000D01*
X201317411Y-103583000D01*
X201786762Y-103388588D01*
X202145988Y-103029362D01*
X202340400Y-102560011D01*
X202340400Y-102051989D01*
X202145988Y-101582638D01*
X201786762Y-101223412D01*
X201317411Y-101029000D01*
X200809389Y-101029000D01*
X200340038Y-101223412D01*
X199980812Y-101582638D01*
X199786400Y-102051989D01*
X199786400Y-102059892D01*
X198240850Y-103605443D01*
X198150928Y-103665527D01*
X198090844Y-103755449D01*
X198090842Y-103755451D01*
X197939280Y-103982281D01*
X197912890Y-104021776D01*
X197864820Y-104263442D01*
X197829302Y-104442000D01*
X197850401Y-104548071D01*
X197850400Y-135707950D01*
X197844812Y-135713538D01*
X197650400Y-136182889D01*
X158201095Y-136182889D01*
X158130988Y-136013638D01*
X157979800Y-135862450D01*
X157979800Y-110737489D01*
X189279000Y-110737489D01*
X189279000Y-111245511D01*
X189473412Y-111714862D01*
X189832638Y-112074088D01*
X190301989Y-112268500D01*
X190810011Y-112268500D01*
X191279362Y-112074088D01*
X191638588Y-111714862D01*
X191833000Y-111245511D01*
X191833000Y-110737489D01*
X191638588Y-110268138D01*
X191633000Y-110262550D01*
X191633000Y-102068307D01*
X194575208Y-99126100D01*
X194583111Y-99126100D01*
X195052462Y-98931688D01*
X195411688Y-98572462D01*
X195606100Y-98103111D01*
X195606100Y-97595089D01*
X195411688Y-97125738D01*
X195052462Y-96766512D01*
X194583111Y-96572100D01*
X194075089Y-96572100D01*
X193605738Y-96766512D01*
X193246512Y-97125738D01*
X193052100Y-97595089D01*
X193052100Y-97602992D01*
X189869450Y-100785643D01*
X189779528Y-100845727D01*
X189719444Y-100935649D01*
X189719442Y-100935651D01*
X189584355Y-101137824D01*
X189541490Y-101201976D01*
X189488288Y-101469442D01*
X189457902Y-101622200D01*
X189479001Y-101728271D01*
X189479000Y-110262550D01*
X189473412Y-110268138D01*
X189279000Y-110737489D01*
X157979800Y-110737489D01*
X157979800Y-105316250D01*
X157985388Y-105310662D01*
X158179800Y-104841311D01*
X158179800Y-104333289D01*
X157985388Y-103863938D01*
X157626162Y-103504712D01*
X157156811Y-103310300D01*
X156648789Y-103310300D01*
X156179438Y-103504712D01*
X155820212Y-103863938D01*
X155625800Y-104333289D01*
X146283300Y-104333289D01*
X146283300Y-101163707D01*
X150296308Y-97150700D01*
X150304211Y-97150700D01*
X150773562Y-96956288D01*
X151132788Y-96597062D01*
X151327200Y-96127711D01*
X151327200Y-95619689D01*
X151132788Y-95150338D01*
X150773562Y-94791112D01*
X150304211Y-94596700D01*
X149796189Y-94596700D01*
X149326838Y-94791112D01*
X148967612Y-95150338D01*
X148773200Y-95619689D01*
X148773200Y-95627592D01*
X144519752Y-99881041D01*
X144429827Y-99941127D01*
X144191789Y-100297377D01*
X144129300Y-100611529D01*
X144129300Y-100611534D01*
X144108202Y-100717600D01*
X144129300Y-100823667D01*
X144129301Y-110897149D01*
X144123712Y-110902738D01*
X143929300Y-111372089D01*
X106476318Y-111372089D01*
X113211551Y-104636857D01*
X113301473Y-104576773D01*
X113361556Y-104486852D01*
X113361558Y-104486850D01*
X113451595Y-104352100D01*
X118668534Y-104352100D01*
X118774600Y-104373198D01*
X118880666Y-104352100D01*
X118880672Y-104352100D01*
X119194824Y-104289611D01*
X119323832Y-104203411D01*
X119357812Y-104226116D01*
X119700000Y-104294181D01*
X121250000Y-104294181D01*
X121592188Y-104226116D01*
X121882281Y-104032281D01*
X122076116Y-103742188D01*
X122144181Y-103400000D01*
X122144181Y-102100000D01*
X122076116Y-101757812D01*
X121882281Y-101467719D01*
X121592188Y-101273884D01*
X121250000Y-101205819D01*
X119700000Y-101205819D01*
X119357812Y-101273884D01*
X119067719Y-101467719D01*
X118890229Y-101733350D01*
X118879475Y-101735489D01*
X118747384Y-101823750D01*
X118523227Y-101973527D01*
X118463141Y-102063452D01*
X118328493Y-102198100D01*
X114194181Y-102198100D01*
X114194181Y-102100000D01*
X114126116Y-101757812D01*
X113932281Y-101467719D01*
X113642188Y-101273884D01*
X113300000Y-101205819D01*
X111750000Y-101205819D01*
X111407812Y-101273884D01*
X111117719Y-101467719D01*
X110923884Y-101757812D01*
X110855819Y-102100000D01*
X110855819Y-103400000D01*
X110923884Y-103742188D01*
X110978406Y-103823786D01*
X78576393Y-136225800D01*
X76566808Y-136225800D01*
X77186551Y-135606057D01*
X77276473Y-135545973D01*
X77345703Y-135442364D01*
X77478622Y-135243436D01*
X77514511Y-135189724D01*
X77519228Y-135166009D01*
X77798362Y-135050388D01*
X78157588Y-134691162D01*
X78352000Y-134221811D01*
X78352000Y-133713789D01*
X78157588Y-133244438D01*
X77798362Y-132885212D01*
X77577000Y-132793521D01*
X77577000Y-129502742D01*
X77757281Y-129382281D01*
X77951116Y-129092188D01*
X77969792Y-128998295D01*
X78301773Y-128776473D01*
X78361859Y-128686548D01*
X81561851Y-125486557D01*
X81651773Y-125426473D01*
X81889811Y-125070224D01*
X81952300Y-124756072D01*
X81952300Y-124756067D01*
X81973398Y-124650001D01*
X81952300Y-124543934D01*
X81952300Y-120451802D01*
X82398962Y-120266788D01*
X82404550Y-120261200D01*
X85060034Y-120261200D01*
X85166100Y-120282298D01*
X85272166Y-120261200D01*
X85272172Y-120261200D01*
X85586324Y-120198711D01*
X85942573Y-119960673D01*
X86002659Y-119870748D01*
X105539218Y-100334189D01*
X128306300Y-100334189D01*
X128306300Y-100842211D01*
X128500712Y-101311562D01*
X128859938Y-101670788D01*
X129329289Y-101865200D01*
X129837311Y-101865200D01*
X130306662Y-101670788D01*
X130665888Y-101311562D01*
X130860300Y-100842211D01*
X130860300Y-100834307D01*
X133371208Y-98323400D01*
X140246050Y-98323400D01*
X140251638Y-98328988D01*
X140720989Y-98523400D01*
X141229011Y-98523400D01*
X141698362Y-98328988D01*
X142057588Y-97969762D01*
X142252000Y-97500411D01*
X142252000Y-96992389D01*
X142057588Y-96523038D01*
X141698362Y-96163812D01*
X141229011Y-95969400D01*
X140720989Y-95969400D01*
X140251638Y-96163812D01*
X140246050Y-96169400D01*
X133031166Y-96169400D01*
X132925100Y-96148302D01*
X132819033Y-96169400D01*
X132819028Y-96169400D01*
X132504876Y-96231889D01*
X132412033Y-96293925D01*
X132238550Y-96409842D01*
X132238549Y-96409843D01*
X132148627Y-96469927D01*
X132088543Y-96559849D01*
X129337193Y-99311200D01*
X129329289Y-99311200D01*
X128859938Y-99505612D01*
X128500712Y-99864838D01*
X128306300Y-100334189D01*
X105539218Y-100334189D01*
X107337657Y-98535750D01*
X111115000Y-98535750D01*
X111115000Y-99026310D01*
X111211673Y-99259699D01*
X111390302Y-99438327D01*
X111623691Y-99535000D01*
X112239250Y-99535000D01*
X112398000Y-99376250D01*
X112398000Y-98377000D01*
X112652000Y-98377000D01*
X112652000Y-99376250D01*
X112810750Y-99535000D01*
X113426309Y-99535000D01*
X113659698Y-99438327D01*
X113838327Y-99259699D01*
X113935000Y-99026310D01*
X113935000Y-98535750D01*
X119065000Y-98535750D01*
X119065000Y-99026310D01*
X119161673Y-99259699D01*
X119340302Y-99438327D01*
X119573691Y-99535000D01*
X120189250Y-99535000D01*
X120348000Y-99376250D01*
X120348000Y-98377000D01*
X120602000Y-98377000D01*
X120602000Y-99376250D01*
X120760750Y-99535000D01*
X121376309Y-99535000D01*
X121609698Y-99438327D01*
X121788327Y-99259699D01*
X121885000Y-99026310D01*
X121885000Y-98535750D01*
X121726250Y-98377000D01*
X120602000Y-98377000D01*
X120348000Y-98377000D01*
X119223750Y-98377000D01*
X119065000Y-98535750D01*
X113935000Y-98535750D01*
X113776250Y-98377000D01*
X112652000Y-98377000D01*
X112398000Y-98377000D01*
X111273750Y-98377000D01*
X111115000Y-98535750D01*
X107337657Y-98535750D01*
X108399717Y-97473690D01*
X111115000Y-97473690D01*
X111115000Y-97964250D01*
X111273750Y-98123000D01*
X112398000Y-98123000D01*
X112398000Y-97123750D01*
X112652000Y-97123750D01*
X112652000Y-98123000D01*
X113776250Y-98123000D01*
X113935000Y-97964250D01*
X113935000Y-97473690D01*
X119065000Y-97473690D01*
X119065000Y-97964250D01*
X119223750Y-98123000D01*
X120348000Y-98123000D01*
X120348000Y-97123750D01*
X120602000Y-97123750D01*
X120602000Y-98123000D01*
X121726250Y-98123000D01*
X121885000Y-97964250D01*
X121885000Y-97473690D01*
X121788327Y-97240301D01*
X121609698Y-97061673D01*
X121376309Y-96965000D01*
X120760750Y-96965000D01*
X120602000Y-97123750D01*
X120348000Y-97123750D01*
X120189250Y-96965000D01*
X119573691Y-96965000D01*
X119340302Y-97061673D01*
X119161673Y-97240301D01*
X119065000Y-97473690D01*
X113935000Y-97473690D01*
X113838327Y-97240301D01*
X113659698Y-97061673D01*
X113426309Y-96965000D01*
X112810750Y-96965000D01*
X112652000Y-97123750D01*
X112398000Y-97123750D01*
X112239250Y-96965000D01*
X111623691Y-96965000D01*
X111390302Y-97061673D01*
X111211673Y-97240301D01*
X111115000Y-97473690D01*
X108399717Y-97473690D01*
X118286551Y-87586857D01*
X118376473Y-87526773D01*
X118436559Y-87436849D01*
X118565295Y-87244181D01*
X118614511Y-87170524D01*
X118624314Y-87121241D01*
X118832281Y-86982281D01*
X119026116Y-86692188D01*
X119094181Y-86350000D01*
X119094181Y-85150000D01*
X119026116Y-84807812D01*
X118887725Y-84600697D01*
X119194824Y-84539611D01*
X119323832Y-84453411D01*
X119357812Y-84476116D01*
X119700000Y-84544181D01*
X121250000Y-84544181D01*
X121592188Y-84476116D01*
X121882281Y-84282281D01*
X122076116Y-83992188D01*
X122144181Y-83650000D01*
X122144181Y-82350000D01*
X122076116Y-82007812D01*
X121882281Y-81717719D01*
X121592188Y-81523884D01*
X121250000Y-81455819D01*
X119700000Y-81455819D01*
X119357812Y-81523884D01*
X119067719Y-81717719D01*
X118890229Y-81983350D01*
X118879475Y-81985489D01*
X118696244Y-82107921D01*
X118523227Y-82223527D01*
X118463141Y-82313452D01*
X118328493Y-82448100D01*
X114194181Y-82448100D01*
X114194181Y-82350000D01*
X114126116Y-82007812D01*
X113932281Y-81717719D01*
X113642188Y-81523884D01*
X113300000Y-81455819D01*
X111750000Y-81455819D01*
X111407812Y-81523884D01*
X111117719Y-81717719D01*
X110923884Y-82007812D01*
X110855819Y-82350000D01*
X110855819Y-83650000D01*
X110859332Y-83667660D01*
X92803311Y-101723682D01*
X92632281Y-101467719D01*
X92342188Y-101273884D01*
X92000000Y-101205819D01*
X90450000Y-101205819D01*
X90107812Y-101273884D01*
X89817719Y-101467719D01*
X89640229Y-101733350D01*
X89629475Y-101735489D01*
X89497384Y-101823750D01*
X89273227Y-101973527D01*
X89213141Y-102063452D01*
X89078493Y-102198100D01*
X84944181Y-102198100D01*
X84944181Y-102100000D01*
X84876116Y-101757812D01*
X84682281Y-101467719D01*
X84392188Y-101273884D01*
X84050000Y-101205819D01*
X83833388Y-101205819D01*
X86503457Y-98535750D01*
X89815000Y-98535750D01*
X89815000Y-99026310D01*
X89911673Y-99259699D01*
X90090302Y-99438327D01*
X90323691Y-99535000D01*
X90939250Y-99535000D01*
X91098000Y-99376250D01*
X91098000Y-98377000D01*
X91352000Y-98377000D01*
X91352000Y-99376250D01*
X91510750Y-99535000D01*
X92126309Y-99535000D01*
X92359698Y-99438327D01*
X92538327Y-99259699D01*
X92635000Y-99026310D01*
X92635000Y-98535750D01*
X92476250Y-98377000D01*
X91352000Y-98377000D01*
X91098000Y-98377000D01*
X89973750Y-98377000D01*
X89815000Y-98535750D01*
X86503457Y-98535750D01*
X87565517Y-97473690D01*
X89815000Y-97473690D01*
X89815000Y-97964250D01*
X89973750Y-98123000D01*
X91098000Y-98123000D01*
X91098000Y-97123750D01*
X91352000Y-97123750D01*
X91352000Y-98123000D01*
X92476250Y-98123000D01*
X92635000Y-97964250D01*
X92635000Y-97473690D01*
X92538327Y-97240301D01*
X92359698Y-97061673D01*
X92126309Y-96965000D01*
X91510750Y-96965000D01*
X91352000Y-97123750D01*
X91098000Y-97123750D01*
X90939250Y-96965000D01*
X90323691Y-96965000D01*
X90090302Y-97061673D01*
X89911673Y-97240301D01*
X89815000Y-97473690D01*
X87565517Y-97473690D01*
X95036551Y-90002657D01*
X95126473Y-89942573D01*
X95364511Y-89586324D01*
X95427000Y-89272172D01*
X95427000Y-89272167D01*
X95448098Y-89166101D01*
X95427000Y-89060034D01*
X95427000Y-87086037D01*
X95582281Y-86982281D01*
X95776116Y-86692188D01*
X95844181Y-86350000D01*
X95844181Y-85150000D01*
X95776116Y-84807812D01*
X95637725Y-84600697D01*
X95944824Y-84539611D01*
X96073832Y-84453411D01*
X96107812Y-84476116D01*
X96450000Y-84544181D01*
X98000000Y-84544181D01*
X98342188Y-84476116D01*
X98632281Y-84282281D01*
X98826116Y-83992188D01*
X98894181Y-83650000D01*
X98894181Y-82350000D01*
X98826116Y-82007812D01*
X98632281Y-81717719D01*
X98342188Y-81523884D01*
X98000000Y-81455819D01*
X96450000Y-81455819D01*
X96107812Y-81523884D01*
X95817719Y-81717719D01*
X95640229Y-81983350D01*
X95629475Y-81985489D01*
X95446244Y-82107921D01*
X95273227Y-82223527D01*
X95213141Y-82313452D01*
X95078493Y-82448100D01*
X90944181Y-82448100D01*
X90944181Y-82350000D01*
X90876116Y-82007812D01*
X90682281Y-81717719D01*
X90392188Y-81523884D01*
X90050000Y-81455819D01*
X88500000Y-81455819D01*
X88157812Y-81523884D01*
X87867719Y-81717719D01*
X87673884Y-82007812D01*
X87605819Y-82350000D01*
X87605819Y-83650000D01*
X87673884Y-83992188D01*
X87728406Y-84073786D01*
X77685500Y-94116693D01*
X77685500Y-84789866D01*
X77706598Y-84683799D01*
X77685500Y-84577733D01*
X77685500Y-84577728D01*
X77623011Y-84263576D01*
X77508895Y-84092790D01*
X77576116Y-83992188D01*
X77644181Y-83650000D01*
X77644181Y-82350000D01*
X77576116Y-82007812D01*
X77382281Y-81717719D01*
X77092188Y-81523884D01*
X76750000Y-81455819D01*
X75200000Y-81455819D01*
X74857812Y-81523884D01*
X74567719Y-81717719D01*
X74430554Y-81923000D01*
X69569446Y-81923000D01*
X69432281Y-81717719D01*
X69142188Y-81523884D01*
X68800000Y-81455819D01*
X67250000Y-81455819D01*
X66907812Y-81523884D01*
X66617719Y-81717719D01*
X66423884Y-82007812D01*
X66355819Y-82350000D01*
X66355819Y-83650000D01*
X66423884Y-83992188D01*
X66617719Y-84282281D01*
X66907812Y-84476116D01*
X67250000Y-84544181D01*
X68800000Y-84544181D01*
X69142188Y-84476116D01*
X69432281Y-84282281D01*
X69569446Y-84077000D01*
X74430554Y-84077000D01*
X74567719Y-84282281D01*
X74857812Y-84476116D01*
X74980538Y-84500527D01*
X75138442Y-84736849D01*
X75138443Y-84736850D01*
X75198528Y-84826773D01*
X75288450Y-84886857D01*
X75531500Y-85129907D01*
X75531501Y-103269693D01*
X74956714Y-102694906D01*
X75141700Y-102248311D01*
X75141700Y-101740289D01*
X74947288Y-101270938D01*
X74941700Y-101265350D01*
X74941700Y-87621066D01*
X74962798Y-87514999D01*
X74941700Y-87408933D01*
X74941700Y-87408928D01*
X74879211Y-87094776D01*
X74641173Y-86738527D01*
X74551251Y-86678443D01*
X74532567Y-86659759D01*
X74594181Y-86350000D01*
X74594181Y-85150000D01*
X74526116Y-84807812D01*
X74332281Y-84517719D01*
X74042188Y-84323884D01*
X73700000Y-84255819D01*
X72500000Y-84255819D01*
X72157812Y-84323884D01*
X71867719Y-84517719D01*
X71816811Y-84593908D01*
X71626309Y-84515000D01*
X71185750Y-84515000D01*
X71027000Y-84673750D01*
X71027000Y-85623000D01*
X71047000Y-85623000D01*
X71047000Y-85877000D01*
X71027000Y-85877000D01*
X71027000Y-86826250D01*
X71185750Y-86985000D01*
X71626309Y-86985000D01*
X71816811Y-86906092D01*
X71867719Y-86982281D01*
X72075687Y-87121242D01*
X72085490Y-87170524D01*
X72263442Y-87436849D01*
X72263443Y-87436850D01*
X72323528Y-87526773D01*
X72413449Y-87586857D01*
X72787700Y-87961108D01*
X72787701Y-100525893D01*
X67057300Y-94795493D01*
X67057300Y-94106071D01*
X67078399Y-94000000D01*
X66994811Y-93579776D01*
X66756773Y-93223527D01*
X66400524Y-92985489D01*
X66086372Y-92923000D01*
X66086371Y-92923000D01*
X65980300Y-92901901D01*
X65930068Y-92911893D01*
X65617279Y-92702894D01*
X65215623Y-92623000D01*
X64944377Y-92623000D01*
X64887000Y-92634413D01*
X64887000Y-92537371D01*
X64908099Y-92431300D01*
X64824511Y-92011076D01*
X64586473Y-91654827D01*
X64577000Y-91648497D01*
X64577000Y-90954137D01*
X64592188Y-90951116D01*
X64882281Y-90757281D01*
X65076116Y-90467188D01*
X65144181Y-90125000D01*
X65144181Y-88875000D01*
X65076116Y-88532812D01*
X64882281Y-88242719D01*
X64592188Y-88048884D01*
X64250000Y-87980819D01*
X62750000Y-87980819D01*
X62407812Y-88048884D01*
X62117719Y-88242719D01*
X62066811Y-88318908D01*
X61876309Y-88240000D01*
X61285750Y-88240000D01*
X61127000Y-88398750D01*
X61127000Y-89373000D01*
X61147000Y-89373000D01*
X61147000Y-89627000D01*
X61127000Y-89627000D01*
X61127000Y-90601250D01*
X61285750Y-90760000D01*
X61876309Y-90760000D01*
X62066811Y-90681092D01*
X62117719Y-90757281D01*
X62407812Y-90951116D01*
X62423001Y-90954137D01*
X62423001Y-91354300D01*
X59178266Y-91354300D01*
X59072200Y-91333202D01*
X58966133Y-91354300D01*
X58966128Y-91354300D01*
X58651976Y-91416789D01*
X58651974Y-91416790D01*
X58651975Y-91416790D01*
X58385650Y-91594742D01*
X58385649Y-91594743D01*
X58295727Y-91654827D01*
X58235643Y-91744749D01*
X51920852Y-98059541D01*
X51830927Y-98119627D01*
X51592889Y-98475877D01*
X51530400Y-98790029D01*
X51530400Y-98790034D01*
X51509302Y-98896100D01*
X51530400Y-99002167D01*
X51530401Y-103040691D01*
X51394181Y-103176911D01*
X51394181Y-102950000D01*
X51326116Y-102607812D01*
X51132281Y-102317719D01*
X51088071Y-102288179D01*
X51135000Y-102241250D01*
X51135000Y-102173691D01*
X51086927Y-102057632D01*
X51162281Y-102007281D01*
X51356116Y-101717188D01*
X51424181Y-101375000D01*
X51424181Y-99375000D01*
X51356116Y-99032812D01*
X51162281Y-98742719D01*
X50872188Y-98548884D01*
X50530000Y-98480819D01*
X49130000Y-98480819D01*
X48787812Y-98548884D01*
X48497719Y-98742719D01*
X48323591Y-99003319D01*
X48160000Y-99003319D01*
X47817812Y-99071384D01*
X47527719Y-99265219D01*
X47338770Y-99548000D01*
X46204607Y-99548000D01*
X45952000Y-99598247D01*
X45952000Y-89785750D01*
X59615000Y-89785750D01*
X59615000Y-90251310D01*
X59711673Y-90484699D01*
X59890302Y-90663327D01*
X60123691Y-90760000D01*
X60714250Y-90760000D01*
X60873000Y-90601250D01*
X60873000Y-89627000D01*
X59773750Y-89627000D01*
X59615000Y-89785750D01*
X45952000Y-89785750D01*
X45952000Y-88748690D01*
X59615000Y-88748690D01*
X59615000Y-89214250D01*
X59773750Y-89373000D01*
X60873000Y-89373000D01*
X60873000Y-88398750D01*
X60714250Y-88240000D01*
X60123691Y-88240000D01*
X59890302Y-88336673D01*
X59711673Y-88515301D01*
X59615000Y-88748690D01*
X45952000Y-88748690D01*
X45952000Y-86035750D01*
X69665000Y-86035750D01*
X69665000Y-86476310D01*
X69761673Y-86709699D01*
X69940302Y-86888327D01*
X70173691Y-86985000D01*
X70614250Y-86985000D01*
X70773000Y-86826250D01*
X70773000Y-85877000D01*
X69823750Y-85877000D01*
X69665000Y-86035750D01*
X45952000Y-86035750D01*
X45952000Y-85023690D01*
X69665000Y-85023690D01*
X69665000Y-85464250D01*
X69823750Y-85623000D01*
X70773000Y-85623000D01*
X70773000Y-84673750D01*
X70614250Y-84515000D01*
X70173691Y-84515000D01*
X69940302Y-84611673D01*
X69761673Y-84790301D01*
X69665000Y-85023690D01*
X45952000Y-85023690D01*
X45952000Y-78785750D01*
X66615000Y-78785750D01*
X66615000Y-79276310D01*
X66711673Y-79509699D01*
X66890302Y-79688327D01*
X67123691Y-79785000D01*
X67739250Y-79785000D01*
X67898000Y-79626250D01*
X67898000Y-78627000D01*
X68152000Y-78627000D01*
X68152000Y-79626250D01*
X68310750Y-79785000D01*
X68926309Y-79785000D01*
X69159698Y-79688327D01*
X69338327Y-79509699D01*
X69435000Y-79276310D01*
X69435000Y-78785750D01*
X74565000Y-78785750D01*
X74565000Y-79276310D01*
X74661673Y-79509699D01*
X74840302Y-79688327D01*
X75073691Y-79785000D01*
X75689250Y-79785000D01*
X75848000Y-79626250D01*
X75848000Y-78627000D01*
X76102000Y-78627000D01*
X76102000Y-79626250D01*
X76260750Y-79785000D01*
X76876309Y-79785000D01*
X77109698Y-79688327D01*
X77288327Y-79509699D01*
X77385000Y-79276310D01*
X77385000Y-78785750D01*
X87865000Y-78785750D01*
X87865000Y-79276310D01*
X87961673Y-79509699D01*
X88140302Y-79688327D01*
X88373691Y-79785000D01*
X88989250Y-79785000D01*
X89148000Y-79626250D01*
X89148000Y-78627000D01*
X89402000Y-78627000D01*
X89402000Y-79626250D01*
X89560750Y-79785000D01*
X90176309Y-79785000D01*
X90409698Y-79688327D01*
X90588327Y-79509699D01*
X90685000Y-79276310D01*
X90685000Y-78785750D01*
X95815000Y-78785750D01*
X95815000Y-79276310D01*
X95911673Y-79509699D01*
X96090302Y-79688327D01*
X96323691Y-79785000D01*
X96939250Y-79785000D01*
X97098000Y-79626250D01*
X97098000Y-78627000D01*
X97352000Y-78627000D01*
X97352000Y-79626250D01*
X97510750Y-79785000D01*
X98126309Y-79785000D01*
X98359698Y-79688327D01*
X98538327Y-79509699D01*
X98635000Y-79276310D01*
X98635000Y-78785750D01*
X111115000Y-78785750D01*
X111115000Y-79276310D01*
X111211673Y-79509699D01*
X111390302Y-79688327D01*
X111623691Y-79785000D01*
X112239250Y-79785000D01*
X112398000Y-79626250D01*
X112398000Y-78627000D01*
X112652000Y-78627000D01*
X112652000Y-79626250D01*
X112810750Y-79785000D01*
X113426309Y-79785000D01*
X113659698Y-79688327D01*
X113838327Y-79509699D01*
X113935000Y-79276310D01*
X113935000Y-78785750D01*
X119065000Y-78785750D01*
X119065000Y-79276310D01*
X119161673Y-79509699D01*
X119340302Y-79688327D01*
X119573691Y-79785000D01*
X120189250Y-79785000D01*
X120348000Y-79626250D01*
X120348000Y-78627000D01*
X120602000Y-78627000D01*
X120602000Y-79626250D01*
X120760750Y-79785000D01*
X121376309Y-79785000D01*
X121609698Y-79688327D01*
X121788327Y-79509699D01*
X121885000Y-79276310D01*
X121885000Y-78785750D01*
X121726250Y-78627000D01*
X120602000Y-78627000D01*
X120348000Y-78627000D01*
X119223750Y-78627000D01*
X119065000Y-78785750D01*
X113935000Y-78785750D01*
X113776250Y-78627000D01*
X112652000Y-78627000D01*
X112398000Y-78627000D01*
X111273750Y-78627000D01*
X111115000Y-78785750D01*
X98635000Y-78785750D01*
X98476250Y-78627000D01*
X97352000Y-78627000D01*
X97098000Y-78627000D01*
X95973750Y-78627000D01*
X95815000Y-78785750D01*
X90685000Y-78785750D01*
X90526250Y-78627000D01*
X89402000Y-78627000D01*
X89148000Y-78627000D01*
X88023750Y-78627000D01*
X87865000Y-78785750D01*
X77385000Y-78785750D01*
X77226250Y-78627000D01*
X76102000Y-78627000D01*
X75848000Y-78627000D01*
X74723750Y-78627000D01*
X74565000Y-78785750D01*
X69435000Y-78785750D01*
X69276250Y-78627000D01*
X68152000Y-78627000D01*
X67898000Y-78627000D01*
X66773750Y-78627000D01*
X66615000Y-78785750D01*
X45952000Y-78785750D01*
X45952000Y-77723690D01*
X66615000Y-77723690D01*
X66615000Y-78214250D01*
X66773750Y-78373000D01*
X67898000Y-78373000D01*
X67898000Y-77373750D01*
X68152000Y-77373750D01*
X68152000Y-78373000D01*
X69276250Y-78373000D01*
X69435000Y-78214250D01*
X69435000Y-77723690D01*
X74565000Y-77723690D01*
X74565000Y-78214250D01*
X74723750Y-78373000D01*
X75848000Y-78373000D01*
X75848000Y-77373750D01*
X76102000Y-77373750D01*
X76102000Y-78373000D01*
X77226250Y-78373000D01*
X77385000Y-78214250D01*
X77385000Y-77723690D01*
X87865000Y-77723690D01*
X87865000Y-78214250D01*
X88023750Y-78373000D01*
X89148000Y-78373000D01*
X89148000Y-77373750D01*
X89402000Y-77373750D01*
X89402000Y-78373000D01*
X90526250Y-78373000D01*
X90685000Y-78214250D01*
X90685000Y-77723690D01*
X95815000Y-77723690D01*
X95815000Y-78214250D01*
X95973750Y-78373000D01*
X97098000Y-78373000D01*
X97098000Y-77373750D01*
X97352000Y-77373750D01*
X97352000Y-78373000D01*
X98476250Y-78373000D01*
X98635000Y-78214250D01*
X98635000Y-77723690D01*
X111115000Y-77723690D01*
X111115000Y-78214250D01*
X111273750Y-78373000D01*
X112398000Y-78373000D01*
X112398000Y-77373750D01*
X112652000Y-77373750D01*
X112652000Y-78373000D01*
X113776250Y-78373000D01*
X113935000Y-78214250D01*
X113935000Y-77723690D01*
X119065000Y-77723690D01*
X119065000Y-78214250D01*
X119223750Y-78373000D01*
X120348000Y-78373000D01*
X120348000Y-77373750D01*
X120602000Y-77373750D01*
X120602000Y-78373000D01*
X121726250Y-78373000D01*
X121885000Y-78214250D01*
X121885000Y-77723690D01*
X121788327Y-77490301D01*
X121609698Y-77311673D01*
X121376309Y-77215000D01*
X120760750Y-77215000D01*
X120602000Y-77373750D01*
X120348000Y-77373750D01*
X120189250Y-77215000D01*
X119573691Y-77215000D01*
X119340302Y-77311673D01*
X119161673Y-77490301D01*
X119065000Y-77723690D01*
X113935000Y-77723690D01*
X113838327Y-77490301D01*
X113659698Y-77311673D01*
X113426309Y-77215000D01*
X112810750Y-77215000D01*
X112652000Y-77373750D01*
X112398000Y-77373750D01*
X112239250Y-77215000D01*
X111623691Y-77215000D01*
X111390302Y-77311673D01*
X111211673Y-77490301D01*
X111115000Y-77723690D01*
X98635000Y-77723690D01*
X98538327Y-77490301D01*
X98359698Y-77311673D01*
X98126309Y-77215000D01*
X97510750Y-77215000D01*
X97352000Y-77373750D01*
X97098000Y-77373750D01*
X96939250Y-77215000D01*
X96323691Y-77215000D01*
X96090302Y-77311673D01*
X95911673Y-77490301D01*
X95815000Y-77723690D01*
X90685000Y-77723690D01*
X90588327Y-77490301D01*
X90409698Y-77311673D01*
X90176309Y-77215000D01*
X89560750Y-77215000D01*
X89402000Y-77373750D01*
X89148000Y-77373750D01*
X88989250Y-77215000D01*
X88373691Y-77215000D01*
X88140302Y-77311673D01*
X87961673Y-77490301D01*
X87865000Y-77723690D01*
X77385000Y-77723690D01*
X77288327Y-77490301D01*
X77109698Y-77311673D01*
X76876309Y-77215000D01*
X76260750Y-77215000D01*
X76102000Y-77373750D01*
X75848000Y-77373750D01*
X75689250Y-77215000D01*
X75073691Y-77215000D01*
X74840302Y-77311673D01*
X74661673Y-77490301D01*
X74565000Y-77723690D01*
X69435000Y-77723690D01*
X69338327Y-77490301D01*
X69159698Y-77311673D01*
X68926309Y-77215000D01*
X68310750Y-77215000D01*
X68152000Y-77373750D01*
X67898000Y-77373750D01*
X67739250Y-77215000D01*
X67123691Y-77215000D01*
X66890302Y-77311673D01*
X66711673Y-77490301D01*
X66615000Y-77723690D01*
X45952000Y-77723690D01*
X45952000Y-77524505D01*
X46027671Y-76056104D01*
X46250107Y-74627500D01*
X46618216Y-73229326D01*
X47128095Y-71876400D01*
X47774341Y-70583059D01*
X48550112Y-69362993D01*
X48623000Y-69270866D01*
X48623000Y-70171727D01*
X49137118Y-71412917D01*
X50087083Y-72362882D01*
X51328273Y-72877000D01*
X52671727Y-72877000D01*
X53912917Y-72362882D01*
X54862882Y-71412917D01*
X55377000Y-70171727D01*
X55377000Y-68828273D01*
X54862882Y-67587083D01*
X54775799Y-67500000D01*
X126980819Y-67500000D01*
X126980819Y-69000000D01*
X127048884Y-69342188D01*
X127242719Y-69632281D01*
X127341800Y-69698485D01*
X127341800Y-69892011D01*
X127536212Y-70361362D01*
X127895438Y-70720588D01*
X128364789Y-70915000D01*
X128872811Y-70915000D01*
X129342162Y-70720588D01*
X129701388Y-70361362D01*
X129895800Y-69892011D01*
X129895800Y-69424974D01*
X129951116Y-69342188D01*
X130019181Y-69000000D01*
X130019181Y-67500000D01*
X129951116Y-67157812D01*
X129757281Y-66867719D01*
X129681092Y-66816811D01*
X129760000Y-66626309D01*
X129760000Y-66035750D01*
X129601250Y-65877000D01*
X128627000Y-65877000D01*
X128627000Y-65897000D01*
X128373000Y-65897000D01*
X128373000Y-65877000D01*
X127398750Y-65877000D01*
X127240000Y-66035750D01*
X127240000Y-66626309D01*
X127318908Y-66816811D01*
X127242719Y-66867719D01*
X127048884Y-67157812D01*
X126980819Y-67500000D01*
X54775799Y-67500000D01*
X53912917Y-66637118D01*
X52671727Y-66123000D01*
X51780006Y-66123000D01*
X52765396Y-65459596D01*
X53865007Y-64873691D01*
X127240000Y-64873691D01*
X127240000Y-65464250D01*
X127398750Y-65623000D01*
X128373000Y-65623000D01*
X128373000Y-64523750D01*
X128627000Y-64523750D01*
X128627000Y-65623000D01*
X129601250Y-65623000D01*
X129760000Y-65464250D01*
X129760000Y-64873691D01*
X129663327Y-64640302D01*
X129484699Y-64461673D01*
X129251310Y-64365000D01*
X128785750Y-64365000D01*
X128627000Y-64523750D01*
X128373000Y-64523750D01*
X128214250Y-64365000D01*
X127748690Y-64365000D01*
X127515301Y-64461673D01*
X127336673Y-64640302D01*
X127240000Y-64873691D01*
X53865007Y-64873691D01*
X54041387Y-64779711D01*
X55380492Y-64234595D01*
X56768553Y-63830013D01*
X58190846Y-63570256D01*
X59650559Y-63456655D01*
X60006197Y-63452000D01*
X219975495Y-63452000D01*
X221443896Y-63527671D01*
G36*
X79798301Y-124203891D02*
X77760000Y-126242193D01*
X77760000Y-125785750D01*
X77601250Y-125627000D01*
X76627000Y-125627000D01*
X76627000Y-125647000D01*
X76373000Y-125647000D01*
X76373000Y-125627000D01*
X75398750Y-125627000D01*
X75240000Y-125785750D01*
X75240000Y-126376309D01*
X75318908Y-126566811D01*
X75242719Y-126617719D01*
X75048884Y-126907812D01*
X74980819Y-127250000D01*
X74980819Y-128750000D01*
X75048884Y-129092188D01*
X75242719Y-129382281D01*
X75423000Y-129502742D01*
X75423001Y-133861724D01*
X75401901Y-133967800D01*
X75423000Y-134073872D01*
X75423000Y-134323392D01*
X75344181Y-134402211D01*
X75344181Y-134250000D01*
X75276116Y-133907812D01*
X75082281Y-133617719D01*
X75079284Y-133615717D01*
X75077000Y-133604233D01*
X75077000Y-133604228D01*
X75014511Y-133290076D01*
X74910692Y-133134700D01*
X74836558Y-133023750D01*
X74836557Y-133023749D01*
X74776473Y-132933827D01*
X74686551Y-132873743D01*
X74437339Y-132624532D01*
X74449181Y-132565000D01*
X74449181Y-130655000D01*
X74381116Y-130312812D01*
X74187281Y-130022719D01*
X73897188Y-129828884D01*
X73555000Y-129760819D01*
X72955000Y-129760819D01*
X72620000Y-129827454D01*
X72285000Y-129760819D01*
X71685000Y-129760819D01*
X71350000Y-129827454D01*
X71015000Y-129760819D01*
X70415000Y-129760819D01*
X70080000Y-129827454D01*
X69745000Y-129760819D01*
X69315388Y-129760819D01*
X70273979Y-128802229D01*
X70308038Y-128836288D01*
X70777389Y-129030700D01*
X71285411Y-129030700D01*
X71754762Y-128836288D01*
X72113988Y-128477062D01*
X72308400Y-128007711D01*
X72308400Y-127999807D01*
X75240000Y-125068208D01*
X75240000Y-125214250D01*
X75398750Y-125373000D01*
X76373000Y-125373000D01*
X76373000Y-125353000D01*
X76627000Y-125353000D01*
X76627000Y-125373000D01*
X77601250Y-125373000D01*
X77760000Y-125214250D01*
X77760000Y-124623691D01*
X77663327Y-124390302D01*
X77628915Y-124355890D01*
X77801800Y-123938511D01*
X77801800Y-123930607D01*
X79798301Y-121934107D01*
X79798301Y-124203891D01*
X79798301Y-124203891D01*
G37*
X79798301Y-124203891D02*
X77760000Y-126242193D01*
X77760000Y-125785750D01*
X77601250Y-125627000D01*
X76627000Y-125627000D01*
X76627000Y-125647000D01*
X76373000Y-125647000D01*
X76373000Y-125627000D01*
X75398750Y-125627000D01*
X75240000Y-125785750D01*
X75240000Y-126376309D01*
X75318908Y-126566811D01*
X75242719Y-126617719D01*
X75048884Y-126907812D01*
X74980819Y-127250000D01*
X74980819Y-128750000D01*
X75048884Y-129092188D01*
X75242719Y-129382281D01*
X75423000Y-129502742D01*
X75423001Y-133861724D01*
X75401901Y-133967800D01*
X75423000Y-134073872D01*
X75423000Y-134323392D01*
X75344181Y-134402211D01*
X75344181Y-134250000D01*
X75276116Y-133907812D01*
X75082281Y-133617719D01*
X75079284Y-133615717D01*
X75077000Y-133604233D01*
X75077000Y-133604228D01*
X75014511Y-133290076D01*
X74910692Y-133134700D01*
X74836558Y-133023750D01*
X74836557Y-133023749D01*
X74776473Y-132933827D01*
X74686551Y-132873743D01*
X74437339Y-132624532D01*
X74449181Y-132565000D01*
X74449181Y-130655000D01*
X74381116Y-130312812D01*
X74187281Y-130022719D01*
X73897188Y-129828884D01*
X73555000Y-129760819D01*
X72955000Y-129760819D01*
X72620000Y-129827454D01*
X72285000Y-129760819D01*
X71685000Y-129760819D01*
X71350000Y-129827454D01*
X71015000Y-129760819D01*
X70415000Y-129760819D01*
X70080000Y-129827454D01*
X69745000Y-129760819D01*
X69315388Y-129760819D01*
X70273979Y-128802229D01*
X70308038Y-128836288D01*
X70777389Y-129030700D01*
X71285411Y-129030700D01*
X71754762Y-128836288D01*
X72113988Y-128477062D01*
X72308400Y-128007711D01*
X72308400Y-127999807D01*
X75240000Y-125068208D01*
X75240000Y-125214250D01*
X75398750Y-125373000D01*
X76373000Y-125373000D01*
X76373000Y-125353000D01*
X76627000Y-125353000D01*
X76627000Y-125373000D01*
X77601250Y-125373000D01*
X77760000Y-125214250D01*
X77760000Y-124623691D01*
X77663327Y-124390302D01*
X77628915Y-124355890D01*
X77801800Y-123938511D01*
X77801800Y-123930607D01*
X79798301Y-121934107D01*
X79798301Y-124203891D01*
G36*
X55842575Y-124759811D02*
X55905577Y-124772343D01*
X56156728Y-124822300D01*
X56156732Y-124822300D01*
X56262800Y-124843398D01*
X56368868Y-124822300D01*
X71207692Y-124822300D01*
X66852293Y-129177700D01*
X65741072Y-129177700D01*
X65653788Y-129160338D01*
X65412162Y-128918712D01*
X64942811Y-128724300D01*
X64434789Y-128724300D01*
X64172000Y-128833151D01*
X64172000Y-128569650D01*
X64451388Y-128290262D01*
X64645800Y-127820911D01*
X64645800Y-127312889D01*
X64451388Y-126843538D01*
X64092162Y-126484312D01*
X63622811Y-126289900D01*
X63114789Y-126289900D01*
X62645438Y-126484312D01*
X62286212Y-126843538D01*
X62102709Y-127286552D01*
X62076511Y-127275700D01*
X61568489Y-127275700D01*
X61099138Y-127470112D01*
X60739912Y-127829338D01*
X60545500Y-128298689D01*
X60545500Y-128806711D01*
X60739912Y-129276062D01*
X60745500Y-129281650D01*
X60745500Y-129760819D01*
X60255000Y-129760819D01*
X59920000Y-129827454D01*
X59585000Y-129760819D01*
X58985000Y-129760819D01*
X58650000Y-129827454D01*
X58315000Y-129760819D01*
X57715000Y-129760819D01*
X57380000Y-129827454D01*
X57045000Y-129760819D01*
X56445000Y-129760819D01*
X56102812Y-129828884D01*
X55812719Y-130022719D01*
X55618884Y-130312812D01*
X55605300Y-130381104D01*
X55605300Y-124601269D01*
X55842575Y-124759811D01*
X55842575Y-124759811D01*
G37*
X55842575Y-124759811D02*
X55905577Y-124772343D01*
X56156728Y-124822300D01*
X56156732Y-124822300D01*
X56262800Y-124843398D01*
X56368868Y-124822300D01*
X71207692Y-124822300D01*
X66852293Y-129177700D01*
X65741072Y-129177700D01*
X65653788Y-129160338D01*
X65412162Y-128918712D01*
X64942811Y-128724300D01*
X64434789Y-128724300D01*
X64172000Y-128833151D01*
X64172000Y-128569650D01*
X64451388Y-128290262D01*
X64645800Y-127820911D01*
X64645800Y-127312889D01*
X64451388Y-126843538D01*
X64092162Y-126484312D01*
X63622811Y-126289900D01*
X63114789Y-126289900D01*
X62645438Y-126484312D01*
X62286212Y-126843538D01*
X62102709Y-127286552D01*
X62076511Y-127275700D01*
X61568489Y-127275700D01*
X61099138Y-127470112D01*
X60739912Y-127829338D01*
X60545500Y-128298689D01*
X60545500Y-128806711D01*
X60739912Y-129276062D01*
X60745500Y-129281650D01*
X60745500Y-129760819D01*
X60255000Y-129760819D01*
X59920000Y-129827454D01*
X59585000Y-129760819D01*
X58985000Y-129760819D01*
X58650000Y-129827454D01*
X58315000Y-129760819D01*
X57715000Y-129760819D01*
X57380000Y-129827454D01*
X57045000Y-129760819D01*
X56445000Y-129760819D01*
X56102812Y-129828884D01*
X55812719Y-130022719D01*
X55618884Y-130312812D01*
X55605300Y-130381104D01*
X55605300Y-124601269D01*
X55842575Y-124759811D01*
G36*
X69638001Y-113648751D02*
X69638000Y-120540819D01*
X69145000Y-120540819D01*
X68802812Y-120608884D01*
X68516788Y-120800000D01*
X68460750Y-120800000D01*
X68302000Y-120958750D01*
X68302000Y-121177694D01*
X68250819Y-121435000D01*
X68250819Y-122537000D01*
X68099181Y-122537000D01*
X68099181Y-121435000D01*
X68048000Y-121177694D01*
X68048000Y-120958750D01*
X67973091Y-120883841D01*
X67919511Y-120614476D01*
X67763500Y-120380989D01*
X67763500Y-115451207D01*
X69601979Y-113612729D01*
X69638001Y-113648751D01*
X69638001Y-113648751D01*
G37*
X69638001Y-113648751D02*
X69638000Y-120540819D01*
X69145000Y-120540819D01*
X68802812Y-120608884D01*
X68516788Y-120800000D01*
X68460750Y-120800000D01*
X68302000Y-120958750D01*
X68302000Y-121177694D01*
X68250819Y-121435000D01*
X68250819Y-122537000D01*
X68099181Y-122537000D01*
X68099181Y-121435000D01*
X68048000Y-121177694D01*
X68048000Y-120958750D01*
X67973091Y-120883841D01*
X67919511Y-120614476D01*
X67763500Y-120380989D01*
X67763500Y-115451207D01*
X69601979Y-113612729D01*
X69638001Y-113648751D01*
G36*
X74997000Y-113492000D02*
X74977000Y-113492000D01*
X74977000Y-114508000D01*
X74997000Y-114508000D01*
X74997000Y-114762000D01*
X74977000Y-114762000D01*
X74977000Y-115778000D01*
X74997000Y-115778000D01*
X74997000Y-116032000D01*
X74977000Y-116032000D01*
X74977000Y-117048000D01*
X74997000Y-117048000D01*
X74997000Y-117302000D01*
X74977000Y-117302000D01*
X74977000Y-118318000D01*
X74997000Y-118318000D01*
X74997000Y-118572000D01*
X74977000Y-118572000D01*
X74977000Y-119221250D01*
X75135750Y-119380000D01*
X75445302Y-119380000D01*
X75455400Y-119430766D01*
X75455400Y-120574592D01*
X74449181Y-121580811D01*
X74449181Y-121435000D01*
X74381116Y-121092812D01*
X74187281Y-120802719D01*
X73897188Y-120608884D01*
X73556456Y-120541109D01*
X73688300Y-120222811D01*
X73688300Y-119714789D01*
X73493888Y-119245438D01*
X73488300Y-119239850D01*
X73488300Y-118927561D01*
X73561673Y-119104699D01*
X73740302Y-119283327D01*
X73973691Y-119380000D01*
X74564250Y-119380000D01*
X74723000Y-119221250D01*
X74723000Y-118572000D01*
X74703000Y-118572000D01*
X74703000Y-118318000D01*
X74723000Y-118318000D01*
X74723000Y-117302000D01*
X74703000Y-117302000D01*
X74703000Y-117048000D01*
X74723000Y-117048000D01*
X74723000Y-116032000D01*
X74703000Y-116032000D01*
X74703000Y-115778000D01*
X74723000Y-115778000D01*
X74723000Y-114762000D01*
X74703000Y-114762000D01*
X74703000Y-114508000D01*
X74723000Y-114508000D01*
X74723000Y-113492000D01*
X74703000Y-113492000D01*
X74703000Y-113289181D01*
X74997000Y-113289181D01*
X74997000Y-113492000D01*
X74997000Y-113492000D01*
G37*
X74997000Y-113492000D02*
X74977000Y-113492000D01*
X74977000Y-114508000D01*
X74997000Y-114508000D01*
X74997000Y-114762000D01*
X74977000Y-114762000D01*
X74977000Y-115778000D01*
X74997000Y-115778000D01*
X74997000Y-116032000D01*
X74977000Y-116032000D01*
X74977000Y-117048000D01*
X74997000Y-117048000D01*
X74997000Y-117302000D01*
X74977000Y-117302000D01*
X74977000Y-118318000D01*
X74997000Y-118318000D01*
X74997000Y-118572000D01*
X74977000Y-118572000D01*
X74977000Y-119221250D01*
X75135750Y-119380000D01*
X75445302Y-119380000D01*
X75455400Y-119430766D01*
X75455400Y-120574592D01*
X74449181Y-121580811D01*
X74449181Y-121435000D01*
X74381116Y-121092812D01*
X74187281Y-120802719D01*
X73897188Y-120608884D01*
X73556456Y-120541109D01*
X73688300Y-120222811D01*
X73688300Y-119714789D01*
X73493888Y-119245438D01*
X73488300Y-119239850D01*
X73488300Y-118927561D01*
X73561673Y-119104699D01*
X73740302Y-119283327D01*
X73973691Y-119380000D01*
X74564250Y-119380000D01*
X74723000Y-119221250D01*
X74723000Y-118572000D01*
X74703000Y-118572000D01*
X74703000Y-118318000D01*
X74723000Y-118318000D01*
X74723000Y-117302000D01*
X74703000Y-117302000D01*
X74703000Y-117048000D01*
X74723000Y-117048000D01*
X74723000Y-116032000D01*
X74703000Y-116032000D01*
X74703000Y-115778000D01*
X74723000Y-115778000D01*
X74723000Y-114762000D01*
X74703000Y-114762000D01*
X74703000Y-114508000D01*
X74723000Y-114508000D01*
X74723000Y-113492000D01*
X74703000Y-113492000D01*
X74703000Y-113289181D01*
X74997000Y-113289181D01*
X74997000Y-113492000D01*
G36*
X65609500Y-120540819D02*
X65335000Y-120540819D01*
X65000000Y-120607454D01*
X64665000Y-120540819D01*
X64065000Y-120540819D01*
X63730000Y-120607454D01*
X63395000Y-120540819D01*
X62795000Y-120540819D01*
X62460000Y-120607454D01*
X62125000Y-120540819D01*
X61525000Y-120540819D01*
X61190000Y-120607454D01*
X61109561Y-120591454D01*
X61276116Y-120342188D01*
X61344181Y-120000000D01*
X61344181Y-119500000D01*
X61309769Y-119327000D01*
X61838734Y-119327000D01*
X61944800Y-119348098D01*
X62050866Y-119327000D01*
X62050872Y-119327000D01*
X62365024Y-119264511D01*
X62721273Y-119026473D01*
X62781359Y-118936548D01*
X65377208Y-116340700D01*
X65385111Y-116340700D01*
X65609501Y-116247754D01*
X65609500Y-120540819D01*
X65609500Y-120540819D01*
G37*
X65609500Y-120540819D02*
X65335000Y-120540819D01*
X65000000Y-120607454D01*
X64665000Y-120540819D01*
X64065000Y-120540819D01*
X63730000Y-120607454D01*
X63395000Y-120540819D01*
X62795000Y-120540819D01*
X62460000Y-120607454D01*
X62125000Y-120540819D01*
X61525000Y-120540819D01*
X61190000Y-120607454D01*
X61109561Y-120591454D01*
X61276116Y-120342188D01*
X61344181Y-120000000D01*
X61344181Y-119500000D01*
X61309769Y-119327000D01*
X61838734Y-119327000D01*
X61944800Y-119348098D01*
X62050866Y-119327000D01*
X62050872Y-119327000D01*
X62365024Y-119264511D01*
X62721273Y-119026473D01*
X62781359Y-118936548D01*
X65377208Y-116340700D01*
X65385111Y-116340700D01*
X65609501Y-116247754D01*
X65609500Y-120540819D01*
G36*
X114440302Y-84611673D02*
X114261673Y-84790301D01*
X114165000Y-85023690D01*
X114165000Y-85464250D01*
X114323750Y-85623000D01*
X115273000Y-85623000D01*
X115273000Y-85603000D01*
X115527000Y-85603000D01*
X115527000Y-85623000D01*
X115547000Y-85623000D01*
X115547000Y-85877000D01*
X115527000Y-85877000D01*
X115527000Y-86826250D01*
X115685750Y-86985000D01*
X115842192Y-86985000D01*
X85450721Y-117376471D01*
X85376250Y-117302000D01*
X84277000Y-117302000D01*
X84277000Y-117322000D01*
X84023000Y-117322000D01*
X84023000Y-117302000D01*
X82923750Y-117302000D01*
X82765000Y-117460750D01*
X82765000Y-117601310D01*
X82851442Y-117810000D01*
X82765000Y-118018690D01*
X82765000Y-118107200D01*
X82404550Y-118107200D01*
X82398962Y-118101612D01*
X81952300Y-117916598D01*
X81952300Y-116190750D01*
X82765000Y-116190750D01*
X82765000Y-116331310D01*
X82851442Y-116540000D01*
X82765000Y-116748690D01*
X82765000Y-116889250D01*
X82923750Y-117048000D01*
X84023000Y-117048000D01*
X84023000Y-116032000D01*
X84277000Y-116032000D01*
X84277000Y-117048000D01*
X85376250Y-117048000D01*
X85535000Y-116889250D01*
X85535000Y-116748690D01*
X85448558Y-116540000D01*
X85535000Y-116331310D01*
X85535000Y-116190750D01*
X85376250Y-116032000D01*
X84277000Y-116032000D01*
X84023000Y-116032000D01*
X82923750Y-116032000D01*
X82765000Y-116190750D01*
X81952300Y-116190750D01*
X81952300Y-114920750D01*
X82765000Y-114920750D01*
X82765000Y-115061310D01*
X82851442Y-115270000D01*
X82765000Y-115478690D01*
X82765000Y-115619250D01*
X82923750Y-115778000D01*
X84023000Y-115778000D01*
X84023000Y-114762000D01*
X84277000Y-114762000D01*
X84277000Y-115778000D01*
X85376250Y-115778000D01*
X85535000Y-115619250D01*
X85535000Y-115478690D01*
X85448558Y-115270000D01*
X85535000Y-115061310D01*
X85535000Y-114920750D01*
X85376250Y-114762000D01*
X84277000Y-114762000D01*
X84023000Y-114762000D01*
X82923750Y-114762000D01*
X82765000Y-114920750D01*
X81952300Y-114920750D01*
X81952300Y-113395507D01*
X82561193Y-112786614D01*
X82505819Y-113065000D01*
X82505819Y-113665000D01*
X82573884Y-114007188D01*
X82765000Y-114293212D01*
X82765000Y-114349250D01*
X82923750Y-114508000D01*
X83142694Y-114508000D01*
X83400000Y-114559181D01*
X84900000Y-114559181D01*
X85157306Y-114508000D01*
X85376250Y-114508000D01*
X85535000Y-114349250D01*
X85535000Y-114293212D01*
X85726116Y-114007188D01*
X85794181Y-113665000D01*
X85794181Y-113065000D01*
X85727546Y-112730000D01*
X85794181Y-112395000D01*
X85794181Y-111795000D01*
X85727546Y-111460000D01*
X85794181Y-111125000D01*
X85794181Y-110525000D01*
X85727546Y-110190000D01*
X85794181Y-109855000D01*
X85794181Y-109255000D01*
X85726116Y-108912812D01*
X85532281Y-108622719D01*
X85242188Y-108428884D01*
X85147215Y-108409993D01*
X86588908Y-106968300D01*
X90052734Y-106968300D01*
X90158800Y-106989398D01*
X90264866Y-106968300D01*
X90264872Y-106968300D01*
X90579024Y-106905811D01*
X90935273Y-106667773D01*
X90995359Y-106577848D01*
X111537457Y-86035750D01*
X114165000Y-86035750D01*
X114165000Y-86476310D01*
X114261673Y-86709699D01*
X114440302Y-86888327D01*
X114673691Y-86985000D01*
X115114250Y-86985000D01*
X115273000Y-86826250D01*
X115273000Y-85877000D01*
X114323750Y-85877000D01*
X114165000Y-86035750D01*
X111537457Y-86035750D01*
X112971108Y-84602100D01*
X114463413Y-84602100D01*
X114440302Y-84611673D01*
X114440302Y-84611673D01*
G37*
X114440302Y-84611673D02*
X114261673Y-84790301D01*
X114165000Y-85023690D01*
X114165000Y-85464250D01*
X114323750Y-85623000D01*
X115273000Y-85623000D01*
X115273000Y-85603000D01*
X115527000Y-85603000D01*
X115527000Y-85623000D01*
X115547000Y-85623000D01*
X115547000Y-85877000D01*
X115527000Y-85877000D01*
X115527000Y-86826250D01*
X115685750Y-86985000D01*
X115842192Y-86985000D01*
X85450721Y-117376471D01*
X85376250Y-117302000D01*
X84277000Y-117302000D01*
X84277000Y-117322000D01*
X84023000Y-117322000D01*
X84023000Y-117302000D01*
X82923750Y-117302000D01*
X82765000Y-117460750D01*
X82765000Y-117601310D01*
X82851442Y-117810000D01*
X82765000Y-118018690D01*
X82765000Y-118107200D01*
X82404550Y-118107200D01*
X82398962Y-118101612D01*
X81952300Y-117916598D01*
X81952300Y-116190750D01*
X82765000Y-116190750D01*
X82765000Y-116331310D01*
X82851442Y-116540000D01*
X82765000Y-116748690D01*
X82765000Y-116889250D01*
X82923750Y-117048000D01*
X84023000Y-117048000D01*
X84023000Y-116032000D01*
X84277000Y-116032000D01*
X84277000Y-117048000D01*
X85376250Y-117048000D01*
X85535000Y-116889250D01*
X85535000Y-116748690D01*
X85448558Y-116540000D01*
X85535000Y-116331310D01*
X85535000Y-116190750D01*
X85376250Y-116032000D01*
X84277000Y-116032000D01*
X84023000Y-116032000D01*
X82923750Y-116032000D01*
X82765000Y-116190750D01*
X81952300Y-116190750D01*
X81952300Y-114920750D01*
X82765000Y-114920750D01*
X82765000Y-115061310D01*
X82851442Y-115270000D01*
X82765000Y-115478690D01*
X82765000Y-115619250D01*
X82923750Y-115778000D01*
X84023000Y-115778000D01*
X84023000Y-114762000D01*
X84277000Y-114762000D01*
X84277000Y-115778000D01*
X85376250Y-115778000D01*
X85535000Y-115619250D01*
X85535000Y-115478690D01*
X85448558Y-115270000D01*
X85535000Y-115061310D01*
X85535000Y-114920750D01*
X85376250Y-114762000D01*
X84277000Y-114762000D01*
X84023000Y-114762000D01*
X82923750Y-114762000D01*
X82765000Y-114920750D01*
X81952300Y-114920750D01*
X81952300Y-113395507D01*
X82561193Y-112786614D01*
X82505819Y-113065000D01*
X82505819Y-113665000D01*
X82573884Y-114007188D01*
X82765000Y-114293212D01*
X82765000Y-114349250D01*
X82923750Y-114508000D01*
X83142694Y-114508000D01*
X83400000Y-114559181D01*
X84900000Y-114559181D01*
X85157306Y-114508000D01*
X85376250Y-114508000D01*
X85535000Y-114349250D01*
X85535000Y-114293212D01*
X85726116Y-114007188D01*
X85794181Y-113665000D01*
X85794181Y-113065000D01*
X85727546Y-112730000D01*
X85794181Y-112395000D01*
X85794181Y-111795000D01*
X85727546Y-111460000D01*
X85794181Y-111125000D01*
X85794181Y-110525000D01*
X85727546Y-110190000D01*
X85794181Y-109855000D01*
X85794181Y-109255000D01*
X85726116Y-108912812D01*
X85532281Y-108622719D01*
X85242188Y-108428884D01*
X85147215Y-108409993D01*
X86588908Y-106968300D01*
X90052734Y-106968300D01*
X90158800Y-106989398D01*
X90264866Y-106968300D01*
X90264872Y-106968300D01*
X90579024Y-106905811D01*
X90935273Y-106667773D01*
X90995359Y-106577848D01*
X111537457Y-86035750D01*
X114165000Y-86035750D01*
X114165000Y-86476310D01*
X114261673Y-86709699D01*
X114440302Y-86888327D01*
X114673691Y-86985000D01*
X115114250Y-86985000D01*
X115273000Y-86826250D01*
X115273000Y-85877000D01*
X114323750Y-85877000D01*
X114165000Y-86035750D01*
X111537457Y-86035750D01*
X112971108Y-84602100D01*
X114463413Y-84602100D01*
X114440302Y-84611673D01*
G36*
X63954440Y-114567448D02*
X63854100Y-114809689D01*
X63854100Y-114817592D01*
X61498693Y-117173000D01*
X60787744Y-117173000D01*
X60520388Y-117119820D01*
X61011851Y-116628357D01*
X61101773Y-116568273D01*
X61164972Y-116473690D01*
X61321118Y-116240000D01*
X61339811Y-116212024D01*
X61402300Y-115897872D01*
X61402300Y-115897867D01*
X61423398Y-115791801D01*
X61402300Y-115685734D01*
X61402300Y-112417900D01*
X61625211Y-112417900D01*
X61752265Y-112365272D01*
X63954440Y-114567448D01*
X63954440Y-114567448D01*
G37*
X63954440Y-114567448D02*
X63854100Y-114809689D01*
X63854100Y-114817592D01*
X61498693Y-117173000D01*
X60787744Y-117173000D01*
X60520388Y-117119820D01*
X61011851Y-116628357D01*
X61101773Y-116568273D01*
X61164972Y-116473690D01*
X61321118Y-116240000D01*
X61339811Y-116212024D01*
X61402300Y-115897872D01*
X61402300Y-115897867D01*
X61423398Y-115791801D01*
X61402300Y-115685734D01*
X61402300Y-112417900D01*
X61625211Y-112417900D01*
X61752265Y-112365272D01*
X63954440Y-114567448D01*
G36*
X73551442Y-116540000D02*
X73488300Y-116692439D01*
X73488300Y-116387561D01*
X73551442Y-116540000D01*
X73551442Y-116540000D01*
G37*
X73551442Y-116540000D02*
X73488300Y-116692439D01*
X73488300Y-116387561D01*
X73551442Y-116540000D01*
G36*
X66297000Y-113282000D02*
X66277000Y-113282000D01*
X66277000Y-113302000D01*
X66023000Y-113302000D01*
X66023000Y-113282000D01*
X66003000Y-113282000D01*
X66003000Y-113079181D01*
X66297000Y-113079181D01*
X66297000Y-113282000D01*
X66297000Y-113282000D01*
G37*
X66297000Y-113282000D02*
X66277000Y-113282000D01*
X66277000Y-113302000D01*
X66023000Y-113302000D01*
X66023000Y-113282000D01*
X66003000Y-113282000D01*
X66003000Y-113079181D01*
X66297000Y-113079181D01*
X66297000Y-113282000D01*
G36*
X90107812Y-104226116D02*
X90268846Y-104258147D01*
X89712693Y-104814300D01*
X86248866Y-104814300D01*
X86142800Y-104793202D01*
X86036733Y-104814300D01*
X86036728Y-104814300D01*
X85722576Y-104876789D01*
X85641071Y-104931249D01*
X85456250Y-105054742D01*
X85456249Y-105054743D01*
X85366327Y-105114827D01*
X85306243Y-105204749D01*
X79239450Y-111271543D01*
X79149528Y-111331627D01*
X79089444Y-111421549D01*
X79089442Y-111421551D01*
X79043200Y-111490757D01*
X79043200Y-109030007D01*
X83721108Y-104352100D01*
X89418534Y-104352100D01*
X89524600Y-104373198D01*
X89630666Y-104352100D01*
X89630672Y-104352100D01*
X89944824Y-104289611D01*
X90073832Y-104203411D01*
X90107812Y-104226116D01*
X90107812Y-104226116D01*
G37*
X90107812Y-104226116D02*
X90268846Y-104258147D01*
X89712693Y-104814300D01*
X86248866Y-104814300D01*
X86142800Y-104793202D01*
X86036733Y-104814300D01*
X86036728Y-104814300D01*
X85722576Y-104876789D01*
X85641071Y-104931249D01*
X85456250Y-105054742D01*
X85456249Y-105054743D01*
X85366327Y-105114827D01*
X85306243Y-105204749D01*
X79239450Y-111271543D01*
X79149528Y-111331627D01*
X79089444Y-111421549D01*
X79089442Y-111421551D01*
X79043200Y-111490757D01*
X79043200Y-109030007D01*
X83721108Y-104352100D01*
X89418534Y-104352100D01*
X89524600Y-104373198D01*
X89630666Y-104352100D01*
X89630672Y-104352100D01*
X89944824Y-104289611D01*
X90073832Y-104203411D01*
X90107812Y-104226116D01*
G36*
X65660701Y-102570009D02*
X65660700Y-108150819D01*
X65375000Y-108150819D01*
X65032812Y-108218884D01*
X64742719Y-108412719D01*
X64548884Y-108702812D01*
X64480819Y-109045000D01*
X64480819Y-109532274D01*
X64452033Y-109538000D01*
X64452028Y-109538000D01*
X64137876Y-109600489D01*
X64137874Y-109600490D01*
X64137875Y-109600490D01*
X63871550Y-109778442D01*
X63871549Y-109778443D01*
X63781627Y-109838527D01*
X63721543Y-109928449D01*
X63375292Y-110274700D01*
X63367389Y-110274700D01*
X63192465Y-110347156D01*
X63099381Y-110207846D01*
X63028979Y-110102475D01*
X63028964Y-110102460D01*
X62968873Y-110012527D01*
X62878966Y-109952453D01*
X62062485Y-109135923D01*
X62186551Y-109011857D01*
X62276473Y-108951773D01*
X62339611Y-108857281D01*
X62514511Y-108595525D01*
X62542085Y-108456901D01*
X62577000Y-108281372D01*
X62577000Y-108281368D01*
X62598098Y-108175300D01*
X62577000Y-108069232D01*
X62577000Y-106954137D01*
X62592188Y-106951116D01*
X62882281Y-106757281D01*
X62933189Y-106681092D01*
X63123691Y-106760000D01*
X63714250Y-106760000D01*
X63873000Y-106601250D01*
X63873000Y-105627000D01*
X64127000Y-105627000D01*
X64127000Y-106601250D01*
X64285750Y-106760000D01*
X64876309Y-106760000D01*
X65109698Y-106663327D01*
X65288327Y-106484699D01*
X65385000Y-106251310D01*
X65385000Y-105785750D01*
X65226250Y-105627000D01*
X64127000Y-105627000D01*
X63873000Y-105627000D01*
X63853000Y-105627000D01*
X63853000Y-105373000D01*
X63873000Y-105373000D01*
X63873000Y-104398750D01*
X64127000Y-104398750D01*
X64127000Y-105373000D01*
X65226250Y-105373000D01*
X65385000Y-105214250D01*
X65385000Y-104748690D01*
X65288327Y-104515301D01*
X65109698Y-104336673D01*
X64876309Y-104240000D01*
X64285750Y-104240000D01*
X64127000Y-104398750D01*
X63873000Y-104398750D01*
X63714250Y-104240000D01*
X63123691Y-104240000D01*
X62933189Y-104318908D01*
X62882281Y-104242719D01*
X62592188Y-104048884D01*
X62498295Y-104030208D01*
X62347000Y-103803778D01*
X62347000Y-99256307D01*
X65660701Y-102570009D01*
X65660701Y-102570009D01*
G37*
X65660701Y-102570009D02*
X65660700Y-108150819D01*
X65375000Y-108150819D01*
X65032812Y-108218884D01*
X64742719Y-108412719D01*
X64548884Y-108702812D01*
X64480819Y-109045000D01*
X64480819Y-109532274D01*
X64452033Y-109538000D01*
X64452028Y-109538000D01*
X64137876Y-109600489D01*
X64137874Y-109600490D01*
X64137875Y-109600490D01*
X63871550Y-109778442D01*
X63871549Y-109778443D01*
X63781627Y-109838527D01*
X63721543Y-109928449D01*
X63375292Y-110274700D01*
X63367389Y-110274700D01*
X63192465Y-110347156D01*
X63099381Y-110207846D01*
X63028979Y-110102475D01*
X63028964Y-110102460D01*
X62968873Y-110012527D01*
X62878966Y-109952453D01*
X62062485Y-109135923D01*
X62186551Y-109011857D01*
X62276473Y-108951773D01*
X62339611Y-108857281D01*
X62514511Y-108595525D01*
X62542085Y-108456901D01*
X62577000Y-108281372D01*
X62577000Y-108281368D01*
X62598098Y-108175300D01*
X62577000Y-108069232D01*
X62577000Y-106954137D01*
X62592188Y-106951116D01*
X62882281Y-106757281D01*
X62933189Y-106681092D01*
X63123691Y-106760000D01*
X63714250Y-106760000D01*
X63873000Y-106601250D01*
X63873000Y-105627000D01*
X64127000Y-105627000D01*
X64127000Y-106601250D01*
X64285750Y-106760000D01*
X64876309Y-106760000D01*
X65109698Y-106663327D01*
X65288327Y-106484699D01*
X65385000Y-106251310D01*
X65385000Y-105785750D01*
X65226250Y-105627000D01*
X64127000Y-105627000D01*
X63873000Y-105627000D01*
X63853000Y-105627000D01*
X63853000Y-105373000D01*
X63873000Y-105373000D01*
X63873000Y-104398750D01*
X64127000Y-104398750D01*
X64127000Y-105373000D01*
X65226250Y-105373000D01*
X65385000Y-105214250D01*
X65385000Y-104748690D01*
X65288327Y-104515301D01*
X65109698Y-104336673D01*
X64876309Y-104240000D01*
X64285750Y-104240000D01*
X64127000Y-104398750D01*
X63873000Y-104398750D01*
X63714250Y-104240000D01*
X63123691Y-104240000D01*
X62933189Y-104318908D01*
X62882281Y-104242719D01*
X62592188Y-104048884D01*
X62498295Y-104030208D01*
X62347000Y-103803778D01*
X62347000Y-99256307D01*
X65660701Y-102570009D01*
G36*
X65143742Y-95928149D02*
X65143744Y-95928151D01*
X65203828Y-96018073D01*
X65207000Y-96020192D01*
X65207000Y-96237954D01*
X65381874Y-96364119D01*
X65521772Y-96306179D01*
X74923300Y-105707708D01*
X74923301Y-108360819D01*
X74100000Y-108360819D01*
X73757812Y-108428884D01*
X73712170Y-108459381D01*
X73699700Y-108456901D01*
X73593629Y-108478000D01*
X73593628Y-108478000D01*
X73279476Y-108540489D01*
X73017337Y-108715645D01*
X72923227Y-108778527D01*
X72685189Y-109134776D01*
X72670334Y-109209458D01*
X71577000Y-110302792D01*
X71577000Y-109787744D01*
X71644181Y-109450000D01*
X71644181Y-108550000D01*
X71576116Y-108207812D01*
X71382281Y-107917719D01*
X71092188Y-107723884D01*
X70750000Y-107655819D01*
X70250000Y-107655819D01*
X69907812Y-107723884D01*
X69750000Y-107829331D01*
X69592188Y-107723884D01*
X69250000Y-107655819D01*
X68750000Y-107655819D01*
X68407812Y-107723884D01*
X68117719Y-107917719D01*
X68114190Y-107923000D01*
X67814700Y-107923000D01*
X67814700Y-102229966D01*
X67835798Y-102123899D01*
X67814700Y-102017833D01*
X67814700Y-102017828D01*
X67752211Y-101703676D01*
X67635848Y-101529527D01*
X67574258Y-101437350D01*
X67574257Y-101437349D01*
X67514173Y-101347427D01*
X67424251Y-101287343D01*
X63617000Y-97480093D01*
X63617000Y-96635587D01*
X63674377Y-96647000D01*
X63945623Y-96647000D01*
X64347279Y-96567106D01*
X64699689Y-96331633D01*
X64778126Y-96364119D01*
X64953000Y-96237954D01*
X64953000Y-96037915D01*
X65085043Y-95840299D01*
X65143742Y-95928149D01*
X65143742Y-95928149D01*
G37*
X65143742Y-95928149D02*
X65143744Y-95928151D01*
X65203828Y-96018073D01*
X65207000Y-96020192D01*
X65207000Y-96237954D01*
X65381874Y-96364119D01*
X65521772Y-96306179D01*
X74923300Y-105707708D01*
X74923301Y-108360819D01*
X74100000Y-108360819D01*
X73757812Y-108428884D01*
X73712170Y-108459381D01*
X73699700Y-108456901D01*
X73593629Y-108478000D01*
X73593628Y-108478000D01*
X73279476Y-108540489D01*
X73017337Y-108715645D01*
X72923227Y-108778527D01*
X72685189Y-109134776D01*
X72670334Y-109209458D01*
X71577000Y-110302792D01*
X71577000Y-109787744D01*
X71644181Y-109450000D01*
X71644181Y-108550000D01*
X71576116Y-108207812D01*
X71382281Y-107917719D01*
X71092188Y-107723884D01*
X70750000Y-107655819D01*
X70250000Y-107655819D01*
X69907812Y-107723884D01*
X69750000Y-107829331D01*
X69592188Y-107723884D01*
X69250000Y-107655819D01*
X68750000Y-107655819D01*
X68407812Y-107723884D01*
X68117719Y-107917719D01*
X68114190Y-107923000D01*
X67814700Y-107923000D01*
X67814700Y-102229966D01*
X67835798Y-102123899D01*
X67814700Y-102017833D01*
X67814700Y-102017828D01*
X67752211Y-101703676D01*
X67635848Y-101529527D01*
X67574258Y-101437350D01*
X67574257Y-101437349D01*
X67514173Y-101347427D01*
X67424251Y-101287343D01*
X63617000Y-97480093D01*
X63617000Y-96635587D01*
X63674377Y-96647000D01*
X63945623Y-96647000D01*
X64347279Y-96567106D01*
X64699689Y-96331633D01*
X64778126Y-96364119D01*
X64953000Y-96237954D01*
X64953000Y-96037915D01*
X65085043Y-95840299D01*
X65143742Y-95928149D01*
G36*
X59972894Y-95807279D02*
X60127000Y-96037915D01*
X60127000Y-96237954D01*
X60193000Y-96285571D01*
X60193001Y-104138629D01*
X60180662Y-104200662D01*
X60117719Y-104242719D01*
X59923884Y-104532812D01*
X59855819Y-104875000D01*
X59855819Y-106125000D01*
X59923884Y-106467188D01*
X60117719Y-106757281D01*
X60407812Y-106951116D01*
X60423000Y-106954137D01*
X60423000Y-107729192D01*
X59984532Y-108167661D01*
X59925000Y-108155819D01*
X58375000Y-108155819D01*
X58032812Y-108223884D01*
X57742719Y-108417719D01*
X57548884Y-108707812D01*
X57480819Y-109050000D01*
X57480819Y-109538000D01*
X57402200Y-109538000D01*
X57402200Y-98030807D01*
X59298205Y-96134803D01*
X59439791Y-96257127D01*
X59698126Y-96364119D01*
X59873000Y-96237954D01*
X59873000Y-95560008D01*
X59915296Y-95517712D01*
X59972894Y-95807279D01*
X59972894Y-95807279D01*
G37*
X59972894Y-95807279D02*
X60127000Y-96037915D01*
X60127000Y-96237954D01*
X60193000Y-96285571D01*
X60193001Y-104138629D01*
X60180662Y-104200662D01*
X60117719Y-104242719D01*
X59923884Y-104532812D01*
X59855819Y-104875000D01*
X59855819Y-106125000D01*
X59923884Y-106467188D01*
X60117719Y-106757281D01*
X60407812Y-106951116D01*
X60423000Y-106954137D01*
X60423000Y-107729192D01*
X59984532Y-108167661D01*
X59925000Y-108155819D01*
X58375000Y-108155819D01*
X58032812Y-108223884D01*
X57742719Y-108417719D01*
X57548884Y-108707812D01*
X57480819Y-109050000D01*
X57480819Y-109538000D01*
X57402200Y-109538000D01*
X57402200Y-98030807D01*
X59298205Y-96134803D01*
X59439791Y-96257127D01*
X59698126Y-96364119D01*
X59873000Y-96237954D01*
X59873000Y-95560008D01*
X59915296Y-95517712D01*
X59972894Y-95807279D01*
G36*
X91190302Y-84611673D02*
X91011673Y-84790301D01*
X90915000Y-85023690D01*
X90915000Y-85464250D01*
X91073750Y-85623000D01*
X92023000Y-85623000D01*
X92023000Y-85603000D01*
X92277000Y-85603000D01*
X92277000Y-85623000D01*
X92297000Y-85623000D01*
X92297000Y-85877000D01*
X92277000Y-85877000D01*
X92277000Y-86826250D01*
X92435750Y-86985000D01*
X92876309Y-86985000D01*
X93066811Y-86906092D01*
X93117719Y-86982281D01*
X93273000Y-87086037D01*
X93273001Y-88719991D01*
X84636468Y-97356524D01*
X84588327Y-97240301D01*
X84409698Y-97061673D01*
X84176309Y-96965000D01*
X83560750Y-96965000D01*
X83402000Y-97123750D01*
X83402000Y-98123000D01*
X83422000Y-98123000D01*
X83422000Y-98377000D01*
X83402000Y-98377000D01*
X83402000Y-98397000D01*
X83148000Y-98397000D01*
X83148000Y-98377000D01*
X82023750Y-98377000D01*
X81865000Y-98535750D01*
X81865000Y-99026310D01*
X81961673Y-99259699D01*
X82140302Y-99438327D01*
X82373691Y-99535000D01*
X82457993Y-99535000D01*
X78388800Y-103604193D01*
X78388800Y-97473690D01*
X81865000Y-97473690D01*
X81865000Y-97964250D01*
X82023750Y-98123000D01*
X83148000Y-98123000D01*
X83148000Y-97123750D01*
X82989250Y-96965000D01*
X82373691Y-96965000D01*
X82140302Y-97061673D01*
X81961673Y-97240301D01*
X81865000Y-97473690D01*
X78388800Y-97473690D01*
X78388800Y-96459607D01*
X88812657Y-86035750D01*
X90915000Y-86035750D01*
X90915000Y-86476310D01*
X91011673Y-86709699D01*
X91190302Y-86888327D01*
X91423691Y-86985000D01*
X91864250Y-86985000D01*
X92023000Y-86826250D01*
X92023000Y-85877000D01*
X91073750Y-85877000D01*
X90915000Y-86035750D01*
X88812657Y-86035750D01*
X89961551Y-84886857D01*
X90051473Y-84826773D01*
X90111556Y-84736852D01*
X90111558Y-84736850D01*
X90201595Y-84602100D01*
X91213413Y-84602100D01*
X91190302Y-84611673D01*
X91190302Y-84611673D01*
G37*
X91190302Y-84611673D02*
X91011673Y-84790301D01*
X90915000Y-85023690D01*
X90915000Y-85464250D01*
X91073750Y-85623000D01*
X92023000Y-85623000D01*
X92023000Y-85603000D01*
X92277000Y-85603000D01*
X92277000Y-85623000D01*
X92297000Y-85623000D01*
X92297000Y-85877000D01*
X92277000Y-85877000D01*
X92277000Y-86826250D01*
X92435750Y-86985000D01*
X92876309Y-86985000D01*
X93066811Y-86906092D01*
X93117719Y-86982281D01*
X93273000Y-87086037D01*
X93273001Y-88719991D01*
X84636468Y-97356524D01*
X84588327Y-97240301D01*
X84409698Y-97061673D01*
X84176309Y-96965000D01*
X83560750Y-96965000D01*
X83402000Y-97123750D01*
X83402000Y-98123000D01*
X83422000Y-98123000D01*
X83422000Y-98377000D01*
X83402000Y-98377000D01*
X83402000Y-98397000D01*
X83148000Y-98397000D01*
X83148000Y-98377000D01*
X82023750Y-98377000D01*
X81865000Y-98535750D01*
X81865000Y-99026310D01*
X81961673Y-99259699D01*
X82140302Y-99438327D01*
X82373691Y-99535000D01*
X82457993Y-99535000D01*
X78388800Y-103604193D01*
X78388800Y-97473690D01*
X81865000Y-97473690D01*
X81865000Y-97964250D01*
X82023750Y-98123000D01*
X83148000Y-98123000D01*
X83148000Y-97123750D01*
X82989250Y-96965000D01*
X82373691Y-96965000D01*
X82140302Y-97061673D01*
X81961673Y-97240301D01*
X81865000Y-97473690D01*
X78388800Y-97473690D01*
X78388800Y-96459607D01*
X88812657Y-86035750D01*
X90915000Y-86035750D01*
X90915000Y-86476310D01*
X91011673Y-86709699D01*
X91190302Y-86888327D01*
X91423691Y-86985000D01*
X91864250Y-86985000D01*
X92023000Y-86826250D01*
X92023000Y-85877000D01*
X91073750Y-85877000D01*
X90915000Y-86035750D01*
X88812657Y-86035750D01*
X89961551Y-84886857D01*
X90051473Y-84826773D01*
X90111556Y-84736852D01*
X90111558Y-84736850D01*
X90201595Y-84602100D01*
X91213413Y-84602100D01*
X91190302Y-84611673D01*
G04 #@! TD*
M02*
