G04 #@! TF.GenerationSoftware,KiCad,Pcbnew,(5.0.0)*
G04 #@! TF.CreationDate,2020-11-20T22:11:44-05:00*
G04 #@! TF.ProjectId,WS2812B Mini Clock,57533238313242204D696E6920436C6F,rev?*
G04 #@! TF.SameCoordinates,Original*
G04 #@! TF.FileFunction,Legend,Top*
G04 #@! TF.FilePolarity,Positive*
%FSLAX46Y46*%
G04 Gerber Fmt 4.6, Leading zero omitted, Abs format (unit mm)*
G04 Created by KiCad (PCBNEW (5.0.0)) date 11/20/20 22:11:44*
%MOMM*%
%LPD*%
G01*
G04 APERTURE LIST*
%ADD10C,0.300000*%
%ADD11C,0.120000*%
%ADD12C,0.100000*%
G04 APERTURE END LIST*
D10*
X134178571Y-108000000D02*
X135250000Y-108000000D01*
X135464285Y-108071428D01*
X135607142Y-108214285D01*
X135678571Y-108428571D01*
X135678571Y-108571428D01*
X135678571Y-106571428D02*
X135678571Y-107285714D01*
X134178571Y-107285714D01*
X135535714Y-105214285D02*
X135607142Y-105285714D01*
X135678571Y-105500000D01*
X135678571Y-105642857D01*
X135607142Y-105857142D01*
X135464285Y-106000000D01*
X135321428Y-106071428D01*
X135035714Y-106142857D01*
X134821428Y-106142857D01*
X134535714Y-106071428D01*
X134392857Y-106000000D01*
X134250000Y-105857142D01*
X134178571Y-105642857D01*
X134178571Y-105500000D01*
X134250000Y-105285714D01*
X134321428Y-105214285D01*
X134178571Y-104142857D02*
X135250000Y-104142857D01*
X135464285Y-104214285D01*
X135607142Y-104357142D01*
X135678571Y-104571428D01*
X135678571Y-104714285D01*
X135678571Y-102714285D02*
X135678571Y-103428571D01*
X134178571Y-103428571D01*
X135535714Y-101357142D02*
X135607142Y-101428571D01*
X135678571Y-101642857D01*
X135678571Y-101785714D01*
X135607142Y-102000000D01*
X135464285Y-102142857D01*
X135321428Y-102214285D01*
X135035714Y-102285714D01*
X134821428Y-102285714D01*
X134535714Y-102214285D01*
X134392857Y-102142857D01*
X134250000Y-102000000D01*
X134178571Y-101785714D01*
X134178571Y-101642857D01*
X134250000Y-101428571D01*
X134321428Y-101357142D01*
X134178571Y-100285714D02*
X135250000Y-100285714D01*
X135464285Y-100357142D01*
X135607142Y-100500000D01*
X135678571Y-100714285D01*
X135678571Y-100857142D01*
X135678571Y-98857142D02*
X135678571Y-99571428D01*
X134178571Y-99571428D01*
X135535714Y-97500000D02*
X135607142Y-97571428D01*
X135678571Y-97785714D01*
X135678571Y-97928571D01*
X135607142Y-98142857D01*
X135464285Y-98285714D01*
X135321428Y-98357142D01*
X135035714Y-98428571D01*
X134821428Y-98428571D01*
X134535714Y-98357142D01*
X134392857Y-98285714D01*
X134250000Y-98142857D01*
X134178571Y-97928571D01*
X134178571Y-97785714D01*
X134250000Y-97571428D01*
X134321428Y-97500000D01*
D11*
G04 #@! TO.C,U71*
X197500000Y-89850000D02*
X197500000Y-88850000D01*
X190500000Y-89850000D02*
X197500000Y-89850000D01*
X190500000Y-84650000D02*
X197500000Y-84650000D01*
D12*
X197500000Y-88850000D02*
X197500000Y-88150000D01*
X197500000Y-88150000D02*
X195600000Y-88150000D01*
X195600000Y-88150000D02*
X195500000Y-88150000D01*
X195500000Y-88150000D02*
X195500000Y-89850000D01*
D11*
G04 #@! TO.C,U54*
X153250000Y-89850000D02*
X153250000Y-88850000D01*
X146250000Y-89850000D02*
X153250000Y-89850000D01*
X146250000Y-84650000D02*
X153250000Y-84650000D01*
D12*
X153250000Y-88850000D02*
X153250000Y-88150000D01*
X153250000Y-88150000D02*
X151350000Y-88150000D01*
X151350000Y-88150000D02*
X151250000Y-88150000D01*
X151250000Y-88150000D02*
X151250000Y-89850000D01*
D11*
G04 #@! TO.C,U58*
X153250000Y-113350000D02*
X153250000Y-112350000D01*
X146250000Y-113350000D02*
X153250000Y-113350000D01*
X146250000Y-108150000D02*
X153250000Y-108150000D01*
D12*
X153250000Y-112350000D02*
X153250000Y-111650000D01*
X153250000Y-111650000D02*
X151350000Y-111650000D01*
X151350000Y-111650000D02*
X151250000Y-111650000D01*
X151250000Y-111650000D02*
X151250000Y-113350000D01*
D11*
G04 #@! TO.C,U49*
X153250000Y-99350000D02*
X153250000Y-98350000D01*
X146250000Y-99350000D02*
X153250000Y-99350000D01*
X146250000Y-94150000D02*
X153250000Y-94150000D01*
D12*
X153250000Y-98350000D02*
X153250000Y-97650000D01*
X153250000Y-97650000D02*
X151350000Y-97650000D01*
X151350000Y-97650000D02*
X151250000Y-97650000D01*
X151250000Y-97650000D02*
X151250000Y-99350000D01*
D11*
G04 #@! TO.C,U59*
X153250000Y-80350000D02*
X153250000Y-79350000D01*
X146250000Y-80350000D02*
X153250000Y-80350000D01*
X146250000Y-75150000D02*
X153250000Y-75150000D01*
D12*
X153250000Y-79350000D02*
X153250000Y-78650000D01*
X153250000Y-78650000D02*
X151350000Y-78650000D01*
X151350000Y-78650000D02*
X151250000Y-78650000D01*
X151250000Y-78650000D02*
X151250000Y-80350000D01*
D11*
G04 #@! TO.C,U53*
X153250000Y-122850000D02*
X153250000Y-121850000D01*
X146250000Y-122850000D02*
X153250000Y-122850000D01*
X146250000Y-117650000D02*
X153250000Y-117650000D01*
D12*
X153250000Y-121850000D02*
X153250000Y-121150000D01*
X153250000Y-121150000D02*
X151350000Y-121150000D01*
X151350000Y-121150000D02*
X151250000Y-121150000D01*
X151250000Y-121150000D02*
X151250000Y-122850000D01*
D11*
G04 #@! TO.C,U89*
X223500000Y-106350000D02*
X223500000Y-105350000D01*
X216500000Y-106350000D02*
X223500000Y-106350000D01*
X216500000Y-101150000D02*
X223500000Y-101150000D01*
D12*
X223500000Y-105350000D02*
X223500000Y-104650000D01*
X223500000Y-104650000D02*
X221600000Y-104650000D01*
X221600000Y-104650000D02*
X221500000Y-104650000D01*
X221500000Y-104650000D02*
X221500000Y-106350000D01*
D11*
G04 #@! TO.C,U80*
X223500000Y-139350000D02*
X223500000Y-138350000D01*
X216500000Y-139350000D02*
X223500000Y-139350000D01*
X216500000Y-134150000D02*
X223500000Y-134150000D01*
D12*
X223500000Y-138350000D02*
X223500000Y-137650000D01*
X223500000Y-137650000D02*
X221600000Y-137650000D01*
X221600000Y-137650000D02*
X221500000Y-137650000D01*
X221500000Y-137650000D02*
X221500000Y-139350000D01*
D11*
G04 #@! TO.C,U86*
X230500000Y-99350000D02*
X230500000Y-98350000D01*
X223500000Y-99350000D02*
X230500000Y-99350000D01*
X223500000Y-94150000D02*
X230500000Y-94150000D01*
D12*
X230500000Y-98350000D02*
X230500000Y-97650000D01*
X230500000Y-97650000D02*
X228600000Y-97650000D01*
X228600000Y-97650000D02*
X228500000Y-97650000D01*
X228500000Y-97650000D02*
X228500000Y-99350000D01*
D11*
G04 #@! TO.C,U67*
X204500000Y-73350000D02*
X204500000Y-72350000D01*
X197500000Y-73350000D02*
X204500000Y-73350000D01*
X197500000Y-68150000D02*
X204500000Y-68150000D01*
D12*
X204500000Y-72350000D02*
X204500000Y-71650000D01*
X204500000Y-71650000D02*
X202600000Y-71650000D01*
X202600000Y-71650000D02*
X202500000Y-71650000D01*
X202500000Y-71650000D02*
X202500000Y-73350000D01*
D11*
G04 #@! TO.C,U82*
X230500000Y-89850000D02*
X230500000Y-88850000D01*
X223500000Y-89850000D02*
X230500000Y-89850000D01*
X223500000Y-84650000D02*
X230500000Y-84650000D01*
D12*
X230500000Y-88850000D02*
X230500000Y-88150000D01*
X230500000Y-88150000D02*
X228600000Y-88150000D01*
X228600000Y-88150000D02*
X228500000Y-88150000D01*
X228500000Y-88150000D02*
X228500000Y-89850000D01*
D11*
G04 #@! TO.C,U72*
X214000000Y-73350000D02*
X214000000Y-72350000D01*
X207000000Y-73350000D02*
X214000000Y-73350000D01*
X207000000Y-68150000D02*
X214000000Y-68150000D01*
D12*
X214000000Y-72350000D02*
X214000000Y-71650000D01*
X214000000Y-71650000D02*
X212100000Y-71650000D01*
X212100000Y-71650000D02*
X212000000Y-71650000D01*
X212000000Y-71650000D02*
X212000000Y-73350000D01*
D11*
G04 #@! TO.C,U87*
X230500000Y-132350000D02*
X230500000Y-131350000D01*
X223500000Y-132350000D02*
X230500000Y-132350000D01*
X223500000Y-127150000D02*
X230500000Y-127150000D01*
D12*
X230500000Y-131350000D02*
X230500000Y-130650000D01*
X230500000Y-130650000D02*
X228600000Y-130650000D01*
X228600000Y-130650000D02*
X228500000Y-130650000D01*
X228500000Y-130650000D02*
X228500000Y-132350000D01*
D11*
G04 #@! TO.C,U83*
X230500000Y-122850000D02*
X230500000Y-121850000D01*
X223500000Y-122850000D02*
X230500000Y-122850000D01*
X223500000Y-117650000D02*
X230500000Y-117650000D01*
D12*
X230500000Y-121850000D02*
X230500000Y-121150000D01*
X230500000Y-121150000D02*
X228600000Y-121150000D01*
X228600000Y-121150000D02*
X228500000Y-121150000D01*
X228500000Y-121150000D02*
X228500000Y-122850000D01*
D11*
G04 #@! TO.C,U79*
X230500000Y-113350000D02*
X230500000Y-112350000D01*
X223500000Y-113350000D02*
X230500000Y-113350000D01*
X223500000Y-108150000D02*
X230500000Y-108150000D01*
D12*
X230500000Y-112350000D02*
X230500000Y-111650000D01*
X230500000Y-111650000D02*
X228600000Y-111650000D01*
X228600000Y-111650000D02*
X228500000Y-111650000D01*
X228500000Y-111650000D02*
X228500000Y-113350000D01*
D11*
G04 #@! TO.C,U66*
X197500000Y-99350000D02*
X197500000Y-98350000D01*
X190500000Y-99350000D02*
X197500000Y-99350000D01*
X190500000Y-94150000D02*
X197500000Y-94150000D01*
D12*
X197500000Y-98350000D02*
X197500000Y-97650000D01*
X197500000Y-97650000D02*
X195600000Y-97650000D01*
X195600000Y-97650000D02*
X195500000Y-97650000D01*
X195500000Y-97650000D02*
X195500000Y-99350000D01*
D11*
G04 #@! TO.C,U76*
X197500000Y-80350000D02*
X197500000Y-79350000D01*
X190500000Y-80350000D02*
X197500000Y-80350000D01*
X190500000Y-75150000D02*
X197500000Y-75150000D01*
D12*
X197500000Y-79350000D02*
X197500000Y-78650000D01*
X197500000Y-78650000D02*
X195600000Y-78650000D01*
X195600000Y-78650000D02*
X195500000Y-78650000D01*
X195500000Y-78650000D02*
X195500000Y-80350000D01*
D11*
G04 #@! TO.C,U85*
X214000000Y-106350000D02*
X214000000Y-105350000D01*
X207000000Y-106350000D02*
X214000000Y-106350000D01*
X207000000Y-101150000D02*
X214000000Y-101150000D01*
D12*
X214000000Y-105350000D02*
X214000000Y-104650000D01*
X214000000Y-104650000D02*
X212100000Y-104650000D01*
X212100000Y-104650000D02*
X212000000Y-104650000D01*
X212000000Y-104650000D02*
X212000000Y-106350000D01*
D11*
G04 #@! TO.C,U81*
X204500000Y-106350000D02*
X204500000Y-105350000D01*
X197500000Y-106350000D02*
X204500000Y-106350000D01*
X197500000Y-101150000D02*
X204500000Y-101150000D01*
D12*
X204500000Y-105350000D02*
X204500000Y-104650000D01*
X204500000Y-104650000D02*
X202600000Y-104650000D01*
X202600000Y-104650000D02*
X202500000Y-104650000D01*
X202500000Y-104650000D02*
X202500000Y-106350000D01*
D11*
G04 #@! TO.C,U88*
X204500000Y-139350000D02*
X204500000Y-138350000D01*
X197500000Y-139350000D02*
X204500000Y-139350000D01*
X197500000Y-134150000D02*
X204500000Y-134150000D01*
D12*
X204500000Y-138350000D02*
X204500000Y-137650000D01*
X204500000Y-137650000D02*
X202600000Y-137650000D01*
X202600000Y-137650000D02*
X202500000Y-137650000D01*
X202500000Y-137650000D02*
X202500000Y-139350000D01*
D11*
G04 #@! TO.C,U78*
X230500000Y-80350000D02*
X230500000Y-79350000D01*
X223500000Y-80350000D02*
X230500000Y-80350000D01*
X223500000Y-75150000D02*
X230500000Y-75150000D01*
D12*
X230500000Y-79350000D02*
X230500000Y-78650000D01*
X230500000Y-78650000D02*
X228600000Y-78650000D01*
X228600000Y-78650000D02*
X228500000Y-78650000D01*
X228500000Y-78650000D02*
X228500000Y-80350000D01*
D11*
G04 #@! TO.C,U75*
X197500000Y-113350000D02*
X197500000Y-112350000D01*
X190500000Y-113350000D02*
X197500000Y-113350000D01*
X190500000Y-108150000D02*
X197500000Y-108150000D01*
D12*
X197500000Y-112350000D02*
X197500000Y-111650000D01*
X197500000Y-111650000D02*
X195600000Y-111650000D01*
X195600000Y-111650000D02*
X195500000Y-111650000D01*
X195500000Y-111650000D02*
X195500000Y-113350000D01*
D11*
G04 #@! TO.C,U77*
X223500000Y-73350000D02*
X223500000Y-72350000D01*
X216500000Y-73350000D02*
X223500000Y-73350000D01*
X216500000Y-68150000D02*
X223500000Y-68150000D01*
D12*
X223500000Y-72350000D02*
X223500000Y-71650000D01*
X223500000Y-71650000D02*
X221600000Y-71650000D01*
X221600000Y-71650000D02*
X221500000Y-71650000D01*
X221500000Y-71650000D02*
X221500000Y-73350000D01*
D11*
G04 #@! TO.C,U84*
X214000000Y-139350000D02*
X214000000Y-138350000D01*
X207000000Y-139350000D02*
X214000000Y-139350000D01*
X207000000Y-134150000D02*
X214000000Y-134150000D01*
D12*
X214000000Y-138350000D02*
X214000000Y-137650000D01*
X214000000Y-137650000D02*
X212100000Y-137650000D01*
X212100000Y-137650000D02*
X212000000Y-137650000D01*
X212000000Y-137650000D02*
X212000000Y-139350000D01*
D11*
G04 #@! TO.C,U50*
X160250000Y-73350000D02*
X160250000Y-72350000D01*
X153250000Y-73350000D02*
X160250000Y-73350000D01*
X153250000Y-68150000D02*
X160250000Y-68150000D01*
D12*
X160250000Y-72350000D02*
X160250000Y-71650000D01*
X160250000Y-71650000D02*
X158350000Y-71650000D01*
X158350000Y-71650000D02*
X158250000Y-71650000D01*
X158250000Y-71650000D02*
X158250000Y-73350000D01*
D11*
G04 #@! TO.C,U73*
X160250000Y-139350000D02*
X160250000Y-138350000D01*
X153250000Y-139350000D02*
X160250000Y-139350000D01*
X153250000Y-134150000D02*
X160250000Y-134150000D01*
D12*
X160250000Y-138350000D02*
X160250000Y-137650000D01*
X160250000Y-137650000D02*
X158350000Y-137650000D01*
X158350000Y-137650000D02*
X158250000Y-137650000D01*
X158250000Y-137650000D02*
X158250000Y-139350000D01*
D11*
G04 #@! TO.C,U56*
X186250000Y-89850000D02*
X186250000Y-88850000D01*
X179250000Y-89850000D02*
X186250000Y-89850000D01*
X179250000Y-84650000D02*
X186250000Y-84650000D01*
D12*
X186250000Y-88850000D02*
X186250000Y-88150000D01*
X186250000Y-88150000D02*
X184350000Y-88150000D01*
X184350000Y-88150000D02*
X184250000Y-88150000D01*
X184250000Y-88150000D02*
X184250000Y-89850000D01*
D11*
G04 #@! TO.C,U65*
X197500000Y-132350000D02*
X197500000Y-131350000D01*
X190500000Y-132350000D02*
X197500000Y-132350000D01*
X190500000Y-127150000D02*
X197500000Y-127150000D01*
D12*
X197500000Y-131350000D02*
X197500000Y-130650000D01*
X197500000Y-130650000D02*
X195600000Y-130650000D01*
X195600000Y-130650000D02*
X195500000Y-130650000D01*
X195500000Y-130650000D02*
X195500000Y-132350000D01*
D11*
G04 #@! TO.C,U57*
X186250000Y-122850000D02*
X186250000Y-121850000D01*
X179250000Y-122850000D02*
X186250000Y-122850000D01*
X179250000Y-117650000D02*
X186250000Y-117650000D01*
D12*
X186250000Y-121850000D02*
X186250000Y-121150000D01*
X186250000Y-121150000D02*
X184350000Y-121150000D01*
X184350000Y-121150000D02*
X184250000Y-121150000D01*
X184250000Y-121150000D02*
X184250000Y-122850000D01*
D11*
G04 #@! TO.C,U55*
X169750000Y-73350000D02*
X169750000Y-72350000D01*
X162750000Y-73350000D02*
X169750000Y-73350000D01*
X162750000Y-68150000D02*
X169750000Y-68150000D01*
D12*
X169750000Y-72350000D02*
X169750000Y-71650000D01*
X169750000Y-71650000D02*
X167850000Y-71650000D01*
X167850000Y-71650000D02*
X167750000Y-71650000D01*
X167750000Y-71650000D02*
X167750000Y-73350000D01*
D11*
G04 #@! TO.C,U62*
X186250000Y-132350000D02*
X186250000Y-131350000D01*
X179250000Y-132350000D02*
X186250000Y-132350000D01*
X179250000Y-127150000D02*
X186250000Y-127150000D01*
D12*
X186250000Y-131350000D02*
X186250000Y-130650000D01*
X186250000Y-130650000D02*
X184350000Y-130650000D01*
X184350000Y-130650000D02*
X184250000Y-130650000D01*
X184250000Y-130650000D02*
X184250000Y-132350000D01*
D11*
G04 #@! TO.C,U48*
X153250000Y-132350000D02*
X153250000Y-131350000D01*
X146250000Y-132350000D02*
X153250000Y-132350000D01*
X146250000Y-127150000D02*
X153250000Y-127150000D01*
D12*
X153250000Y-131350000D02*
X153250000Y-130650000D01*
X153250000Y-130650000D02*
X151350000Y-130650000D01*
X151350000Y-130650000D02*
X151250000Y-130650000D01*
X151250000Y-130650000D02*
X151250000Y-132350000D01*
D11*
G04 #@! TO.C,U51*
X186250000Y-80350000D02*
X186250000Y-79350000D01*
X179250000Y-80350000D02*
X186250000Y-80350000D01*
X179250000Y-75150000D02*
X186250000Y-75150000D01*
D12*
X186250000Y-79350000D02*
X186250000Y-78650000D01*
X186250000Y-78650000D02*
X184350000Y-78650000D01*
X184350000Y-78650000D02*
X184250000Y-78650000D01*
X184250000Y-78650000D02*
X184250000Y-80350000D01*
D11*
G04 #@! TO.C,U64*
X160250000Y-106350000D02*
X160250000Y-105350000D01*
X153250000Y-106350000D02*
X160250000Y-106350000D01*
X153250000Y-101150000D02*
X160250000Y-101150000D01*
D12*
X160250000Y-105350000D02*
X160250000Y-104650000D01*
X160250000Y-104650000D02*
X158350000Y-104650000D01*
X158350000Y-104650000D02*
X158250000Y-104650000D01*
X158250000Y-104650000D02*
X158250000Y-106350000D01*
D11*
G04 #@! TO.C,U70*
X197500000Y-122850000D02*
X197500000Y-121850000D01*
X190500000Y-122850000D02*
X197500000Y-122850000D01*
X190500000Y-117650000D02*
X197500000Y-117650000D01*
D12*
X197500000Y-121850000D02*
X197500000Y-121150000D01*
X197500000Y-121150000D02*
X195600000Y-121150000D01*
X195600000Y-121150000D02*
X195500000Y-121150000D01*
X195500000Y-121150000D02*
X195500000Y-122850000D01*
D11*
G04 #@! TO.C,U63*
X179250000Y-139350000D02*
X179250000Y-138350000D01*
X172250000Y-139350000D02*
X179250000Y-139350000D01*
X172250000Y-134150000D02*
X179250000Y-134150000D01*
D12*
X179250000Y-138350000D02*
X179250000Y-137650000D01*
X179250000Y-137650000D02*
X177350000Y-137650000D01*
X177350000Y-137650000D02*
X177250000Y-137650000D01*
X177250000Y-137650000D02*
X177250000Y-139350000D01*
D11*
G04 #@! TO.C,U74*
X179250000Y-106350000D02*
X179250000Y-105350000D01*
X172250000Y-106350000D02*
X179250000Y-106350000D01*
X172250000Y-101150000D02*
X179250000Y-101150000D01*
D12*
X179250000Y-105350000D02*
X179250000Y-104650000D01*
X179250000Y-104650000D02*
X177350000Y-104650000D01*
X177350000Y-104650000D02*
X177250000Y-104650000D01*
X177250000Y-104650000D02*
X177250000Y-106350000D01*
D11*
G04 #@! TO.C,U68*
X169750000Y-139350000D02*
X169750000Y-138350000D01*
X162750000Y-139350000D02*
X169750000Y-139350000D01*
X162750000Y-134150000D02*
X169750000Y-134150000D01*
D12*
X169750000Y-138350000D02*
X169750000Y-137650000D01*
X169750000Y-137650000D02*
X167850000Y-137650000D01*
X167850000Y-137650000D02*
X167750000Y-137650000D01*
X167750000Y-137650000D02*
X167750000Y-139350000D01*
D11*
G04 #@! TO.C,U52*
X186250000Y-113350000D02*
X186250000Y-112350000D01*
X179250000Y-113350000D02*
X186250000Y-113350000D01*
X179250000Y-108150000D02*
X186250000Y-108150000D01*
D12*
X186250000Y-112350000D02*
X186250000Y-111650000D01*
X186250000Y-111650000D02*
X184350000Y-111650000D01*
X184350000Y-111650000D02*
X184250000Y-111650000D01*
X184250000Y-111650000D02*
X184250000Y-113350000D01*
D11*
G04 #@! TO.C,U61*
X186250000Y-99350000D02*
X186250000Y-98350000D01*
X179250000Y-99350000D02*
X186250000Y-99350000D01*
X179250000Y-94150000D02*
X186250000Y-94150000D01*
D12*
X186250000Y-98350000D02*
X186250000Y-97650000D01*
X186250000Y-97650000D02*
X184350000Y-97650000D01*
X184350000Y-97650000D02*
X184250000Y-97650000D01*
X184250000Y-97650000D02*
X184250000Y-99350000D01*
D11*
G04 #@! TO.C,U60*
X179250000Y-73350000D02*
X179250000Y-72350000D01*
X172250000Y-73350000D02*
X179250000Y-73350000D01*
X172250000Y-68150000D02*
X179250000Y-68150000D01*
D12*
X179250000Y-72350000D02*
X179250000Y-71650000D01*
X179250000Y-71650000D02*
X177350000Y-71650000D01*
X177350000Y-71650000D02*
X177250000Y-71650000D01*
X177250000Y-71650000D02*
X177250000Y-73350000D01*
D11*
G04 #@! TO.C,U69*
X169750000Y-106350000D02*
X169750000Y-105350000D01*
X162750000Y-106350000D02*
X169750000Y-106350000D01*
X162750000Y-101150000D02*
X169750000Y-101150000D01*
D12*
X169750000Y-105350000D02*
X169750000Y-104650000D01*
X169750000Y-104650000D02*
X167850000Y-104650000D01*
X167850000Y-104650000D02*
X167750000Y-104650000D01*
X167750000Y-104650000D02*
X167750000Y-106350000D01*
D11*
G04 #@! TO.C,U6*
X56750000Y-80350000D02*
X56750000Y-79350000D01*
X49750000Y-80350000D02*
X56750000Y-80350000D01*
X49750000Y-75150000D02*
X56750000Y-75150000D01*
D12*
X56750000Y-79350000D02*
X56750000Y-78650000D01*
X56750000Y-78650000D02*
X54850000Y-78650000D01*
X54850000Y-78650000D02*
X54750000Y-78650000D01*
X54750000Y-78650000D02*
X54750000Y-80350000D01*
D11*
G04 #@! TO.C,U3*
X56750000Y-113350000D02*
X56750000Y-112350000D01*
X49750000Y-113350000D02*
X56750000Y-113350000D01*
X49750000Y-108150000D02*
X56750000Y-108150000D01*
D12*
X56750000Y-112350000D02*
X56750000Y-111650000D01*
X56750000Y-111650000D02*
X54850000Y-111650000D01*
X54850000Y-111650000D02*
X54750000Y-111650000D01*
X54750000Y-111650000D02*
X54750000Y-113350000D01*
D11*
G04 #@! TO.C,U4*
X56750000Y-99350000D02*
X56750000Y-98350000D01*
X49750000Y-99350000D02*
X56750000Y-99350000D01*
X49750000Y-94150000D02*
X56750000Y-94150000D01*
D12*
X56750000Y-98350000D02*
X56750000Y-97650000D01*
X56750000Y-97650000D02*
X54850000Y-97650000D01*
X54850000Y-97650000D02*
X54750000Y-97650000D01*
X54750000Y-97650000D02*
X54750000Y-99350000D01*
D11*
G04 #@! TO.C,U5*
X56750000Y-89850000D02*
X56750000Y-88850000D01*
X49750000Y-89850000D02*
X56750000Y-89850000D01*
X49750000Y-84650000D02*
X56750000Y-84650000D01*
D12*
X56750000Y-88850000D02*
X56750000Y-88150000D01*
X56750000Y-88150000D02*
X54850000Y-88150000D01*
X54850000Y-88150000D02*
X54750000Y-88150000D01*
X54750000Y-88150000D02*
X54750000Y-89850000D01*
D11*
G04 #@! TO.C,U2*
X56750000Y-122850000D02*
X56750000Y-121850000D01*
X49750000Y-122850000D02*
X56750000Y-122850000D01*
X49750000Y-117650000D02*
X56750000Y-117650000D01*
D12*
X56750000Y-121850000D02*
X56750000Y-121150000D01*
X56750000Y-121150000D02*
X54850000Y-121150000D01*
X54850000Y-121150000D02*
X54750000Y-121150000D01*
X54750000Y-121150000D02*
X54750000Y-122850000D01*
D11*
G04 #@! TO.C,U1*
X56750000Y-132350000D02*
X56750000Y-131350000D01*
X49750000Y-132350000D02*
X56750000Y-132350000D01*
X49750000Y-127150000D02*
X56750000Y-127150000D01*
D12*
X56750000Y-131350000D02*
X56750000Y-130650000D01*
X56750000Y-130650000D02*
X54850000Y-130650000D01*
X54850000Y-130650000D02*
X54750000Y-130650000D01*
X54750000Y-130650000D02*
X54750000Y-132350000D01*
D11*
G04 #@! TO.C,U7*
X63750000Y-73350000D02*
X63750000Y-72350000D01*
X56750000Y-73350000D02*
X63750000Y-73350000D01*
X56750000Y-68150000D02*
X63750000Y-68150000D01*
D12*
X63750000Y-72350000D02*
X63750000Y-71650000D01*
X63750000Y-71650000D02*
X61850000Y-71650000D01*
X61850000Y-71650000D02*
X61750000Y-71650000D01*
X61750000Y-71650000D02*
X61750000Y-73350000D01*
D11*
G04 #@! TO.C,U8*
X73250000Y-73350000D02*
X73250000Y-72350000D01*
X66250000Y-73350000D02*
X73250000Y-73350000D01*
X66250000Y-68150000D02*
X73250000Y-68150000D01*
D12*
X73250000Y-72350000D02*
X73250000Y-71650000D01*
X73250000Y-71650000D02*
X71350000Y-71650000D01*
X71350000Y-71650000D02*
X71250000Y-71650000D01*
X71250000Y-71650000D02*
X71250000Y-73350000D01*
D11*
G04 #@! TO.C,U9*
X82750000Y-73350000D02*
X82750000Y-72350000D01*
X75750000Y-73350000D02*
X82750000Y-73350000D01*
X75750000Y-68150000D02*
X82750000Y-68150000D01*
D12*
X82750000Y-72350000D02*
X82750000Y-71650000D01*
X82750000Y-71650000D02*
X80850000Y-71650000D01*
X80850000Y-71650000D02*
X80750000Y-71650000D01*
X80750000Y-71650000D02*
X80750000Y-73350000D01*
D11*
G04 #@! TO.C,U10*
X89750000Y-80350000D02*
X89750000Y-79350000D01*
X82750000Y-80350000D02*
X89750000Y-80350000D01*
X82750000Y-75150000D02*
X89750000Y-75150000D01*
D12*
X89750000Y-79350000D02*
X89750000Y-78650000D01*
X89750000Y-78650000D02*
X87850000Y-78650000D01*
X87850000Y-78650000D02*
X87750000Y-78650000D01*
X87750000Y-78650000D02*
X87750000Y-80350000D01*
D11*
G04 #@! TO.C,U11*
X89750000Y-89850000D02*
X89750000Y-88850000D01*
X82750000Y-89850000D02*
X89750000Y-89850000D01*
X82750000Y-84650000D02*
X89750000Y-84650000D01*
D12*
X89750000Y-88850000D02*
X89750000Y-88150000D01*
X89750000Y-88150000D02*
X87850000Y-88150000D01*
X87850000Y-88150000D02*
X87750000Y-88150000D01*
X87750000Y-88150000D02*
X87750000Y-89850000D01*
D11*
G04 #@! TO.C,U12*
X89750000Y-99350000D02*
X89750000Y-98350000D01*
X82750000Y-99350000D02*
X89750000Y-99350000D01*
X82750000Y-94150000D02*
X89750000Y-94150000D01*
D12*
X89750000Y-98350000D02*
X89750000Y-97650000D01*
X89750000Y-97650000D02*
X87850000Y-97650000D01*
X87850000Y-97650000D02*
X87750000Y-97650000D01*
X87750000Y-97650000D02*
X87750000Y-99350000D01*
D11*
G04 #@! TO.C,U13*
X89750000Y-113350000D02*
X89750000Y-112350000D01*
X82750000Y-113350000D02*
X89750000Y-113350000D01*
X82750000Y-108150000D02*
X89750000Y-108150000D01*
D12*
X89750000Y-112350000D02*
X89750000Y-111650000D01*
X89750000Y-111650000D02*
X87850000Y-111650000D01*
X87850000Y-111650000D02*
X87750000Y-111650000D01*
X87750000Y-111650000D02*
X87750000Y-113350000D01*
D11*
G04 #@! TO.C,U14*
X89750000Y-122850000D02*
X89750000Y-121850000D01*
X82750000Y-122850000D02*
X89750000Y-122850000D01*
X82750000Y-117650000D02*
X89750000Y-117650000D01*
D12*
X89750000Y-121850000D02*
X89750000Y-121150000D01*
X89750000Y-121150000D02*
X87850000Y-121150000D01*
X87850000Y-121150000D02*
X87750000Y-121150000D01*
X87750000Y-121150000D02*
X87750000Y-122850000D01*
D11*
G04 #@! TO.C,U15*
X89750000Y-132350000D02*
X89750000Y-131350000D01*
X82750000Y-132350000D02*
X89750000Y-132350000D01*
X82750000Y-127150000D02*
X89750000Y-127150000D01*
D12*
X89750000Y-131350000D02*
X89750000Y-130650000D01*
X89750000Y-130650000D02*
X87850000Y-130650000D01*
X87850000Y-130650000D02*
X87750000Y-130650000D01*
X87750000Y-130650000D02*
X87750000Y-132350000D01*
D11*
G04 #@! TO.C,U16*
X82750000Y-139350000D02*
X82750000Y-138350000D01*
X75750000Y-139350000D02*
X82750000Y-139350000D01*
X75750000Y-134150000D02*
X82750000Y-134150000D01*
D12*
X82750000Y-138350000D02*
X82750000Y-137650000D01*
X82750000Y-137650000D02*
X80850000Y-137650000D01*
X80850000Y-137650000D02*
X80750000Y-137650000D01*
X80750000Y-137650000D02*
X80750000Y-139350000D01*
D11*
G04 #@! TO.C,U17*
X73250000Y-139350000D02*
X73250000Y-138350000D01*
X66250000Y-139350000D02*
X73250000Y-139350000D01*
X66250000Y-134150000D02*
X73250000Y-134150000D01*
D12*
X73250000Y-138350000D02*
X73250000Y-137650000D01*
X73250000Y-137650000D02*
X71350000Y-137650000D01*
X71350000Y-137650000D02*
X71250000Y-137650000D01*
X71250000Y-137650000D02*
X71250000Y-139350000D01*
D11*
G04 #@! TO.C,U18*
X63750000Y-139350000D02*
X63750000Y-138350000D01*
X56750000Y-139350000D02*
X63750000Y-139350000D01*
X56750000Y-134150000D02*
X63750000Y-134150000D01*
D12*
X63750000Y-138350000D02*
X63750000Y-137650000D01*
X63750000Y-137650000D02*
X61850000Y-137650000D01*
X61850000Y-137650000D02*
X61750000Y-137650000D01*
X61750000Y-137650000D02*
X61750000Y-139350000D01*
D11*
G04 #@! TO.C,U19*
X63750000Y-106350000D02*
X63750000Y-105350000D01*
X56750000Y-106350000D02*
X63750000Y-106350000D01*
X56750000Y-101150000D02*
X63750000Y-101150000D01*
D12*
X63750000Y-105350000D02*
X63750000Y-104650000D01*
X63750000Y-104650000D02*
X61850000Y-104650000D01*
X61850000Y-104650000D02*
X61750000Y-104650000D01*
X61750000Y-104650000D02*
X61750000Y-106350000D01*
D11*
G04 #@! TO.C,U20*
X73250000Y-106350000D02*
X73250000Y-105350000D01*
X66250000Y-106350000D02*
X73250000Y-106350000D01*
X66250000Y-101150000D02*
X73250000Y-101150000D01*
D12*
X73250000Y-105350000D02*
X73250000Y-104650000D01*
X73250000Y-104650000D02*
X71350000Y-104650000D01*
X71350000Y-104650000D02*
X71250000Y-104650000D01*
X71250000Y-104650000D02*
X71250000Y-106350000D01*
D11*
G04 #@! TO.C,U21*
X82750000Y-106350000D02*
X82750000Y-105350000D01*
X75750000Y-106350000D02*
X82750000Y-106350000D01*
X75750000Y-101150000D02*
X82750000Y-101150000D01*
D12*
X82750000Y-105350000D02*
X82750000Y-104650000D01*
X82750000Y-104650000D02*
X80850000Y-104650000D01*
X80850000Y-104650000D02*
X80750000Y-104650000D01*
X80750000Y-104650000D02*
X80750000Y-106350000D01*
D11*
G04 #@! TO.C,U22*
X101000000Y-132350000D02*
X101000000Y-131350000D01*
X94000000Y-132350000D02*
X101000000Y-132350000D01*
X94000000Y-127150000D02*
X101000000Y-127150000D01*
D12*
X101000000Y-131350000D02*
X101000000Y-130650000D01*
X101000000Y-130650000D02*
X99100000Y-130650000D01*
X99100000Y-130650000D02*
X99000000Y-130650000D01*
X99000000Y-130650000D02*
X99000000Y-132350000D01*
D11*
G04 #@! TO.C,U23*
X101000000Y-122850000D02*
X101000000Y-121850000D01*
X94000000Y-122850000D02*
X101000000Y-122850000D01*
X94000000Y-117650000D02*
X101000000Y-117650000D01*
D12*
X101000000Y-121850000D02*
X101000000Y-121150000D01*
X101000000Y-121150000D02*
X99100000Y-121150000D01*
X99100000Y-121150000D02*
X99000000Y-121150000D01*
X99000000Y-121150000D02*
X99000000Y-122850000D01*
D11*
G04 #@! TO.C,U27*
X101000000Y-113350000D02*
X101000000Y-112350000D01*
X94000000Y-113350000D02*
X101000000Y-113350000D01*
X94000000Y-108150000D02*
X101000000Y-108150000D01*
D12*
X101000000Y-112350000D02*
X101000000Y-111650000D01*
X101000000Y-111650000D02*
X99100000Y-111650000D01*
X99100000Y-111650000D02*
X99000000Y-111650000D01*
X99000000Y-111650000D02*
X99000000Y-113350000D01*
D11*
G04 #@! TO.C,U28*
X101000000Y-99350000D02*
X101000000Y-98350000D01*
X94000000Y-99350000D02*
X101000000Y-99350000D01*
X94000000Y-94150000D02*
X101000000Y-94150000D01*
D12*
X101000000Y-98350000D02*
X101000000Y-97650000D01*
X101000000Y-97650000D02*
X99100000Y-97650000D01*
X99100000Y-97650000D02*
X99000000Y-97650000D01*
X99000000Y-97650000D02*
X99000000Y-99350000D01*
D11*
G04 #@! TO.C,U29*
X101000000Y-89850000D02*
X101000000Y-88850000D01*
X94000000Y-89850000D02*
X101000000Y-89850000D01*
X94000000Y-84650000D02*
X101000000Y-84650000D01*
D12*
X101000000Y-88850000D02*
X101000000Y-88150000D01*
X101000000Y-88150000D02*
X99100000Y-88150000D01*
X99100000Y-88150000D02*
X99000000Y-88150000D01*
X99000000Y-88150000D02*
X99000000Y-89850000D01*
D11*
G04 #@! TO.C,U30*
X101000000Y-80350000D02*
X101000000Y-79350000D01*
X94000000Y-80350000D02*
X101000000Y-80350000D01*
X94000000Y-75150000D02*
X101000000Y-75150000D01*
D12*
X101000000Y-79350000D02*
X101000000Y-78650000D01*
X101000000Y-78650000D02*
X99100000Y-78650000D01*
X99100000Y-78650000D02*
X99000000Y-78650000D01*
X99000000Y-78650000D02*
X99000000Y-80350000D01*
D11*
G04 #@! TO.C,U31*
X108000000Y-73350000D02*
X108000000Y-72350000D01*
X101000000Y-73350000D02*
X108000000Y-73350000D01*
X101000000Y-68150000D02*
X108000000Y-68150000D01*
D12*
X108000000Y-72350000D02*
X108000000Y-71650000D01*
X108000000Y-71650000D02*
X106100000Y-71650000D01*
X106100000Y-71650000D02*
X106000000Y-71650000D01*
X106000000Y-71650000D02*
X106000000Y-73350000D01*
D11*
G04 #@! TO.C,U32*
X117500000Y-73350000D02*
X117500000Y-72350000D01*
X110500000Y-73350000D02*
X117500000Y-73350000D01*
X110500000Y-68150000D02*
X117500000Y-68150000D01*
D12*
X117500000Y-72350000D02*
X117500000Y-71650000D01*
X117500000Y-71650000D02*
X115600000Y-71650000D01*
X115600000Y-71650000D02*
X115500000Y-71650000D01*
X115500000Y-71650000D02*
X115500000Y-73350000D01*
D11*
G04 #@! TO.C,U33*
X127000000Y-73350000D02*
X127000000Y-72350000D01*
X120000000Y-73350000D02*
X127000000Y-73350000D01*
X120000000Y-68150000D02*
X127000000Y-68150000D01*
D12*
X127000000Y-72350000D02*
X127000000Y-71650000D01*
X127000000Y-71650000D02*
X125100000Y-71650000D01*
X125100000Y-71650000D02*
X125000000Y-71650000D01*
X125000000Y-71650000D02*
X125000000Y-73350000D01*
D11*
G04 #@! TO.C,U34*
X134000000Y-80350000D02*
X134000000Y-79350000D01*
X127000000Y-80350000D02*
X134000000Y-80350000D01*
X127000000Y-75150000D02*
X134000000Y-75150000D01*
D12*
X134000000Y-79350000D02*
X134000000Y-78650000D01*
X134000000Y-78650000D02*
X132100000Y-78650000D01*
X132100000Y-78650000D02*
X132000000Y-78650000D01*
X132000000Y-78650000D02*
X132000000Y-80350000D01*
D11*
G04 #@! TO.C,U35*
X134000000Y-89850000D02*
X134000000Y-88850000D01*
X127000000Y-89850000D02*
X134000000Y-89850000D01*
X127000000Y-84650000D02*
X134000000Y-84650000D01*
D12*
X134000000Y-88850000D02*
X134000000Y-88150000D01*
X134000000Y-88150000D02*
X132100000Y-88150000D01*
X132100000Y-88150000D02*
X132000000Y-88150000D01*
X132000000Y-88150000D02*
X132000000Y-89850000D01*
D11*
G04 #@! TO.C,U36*
X134000000Y-99350000D02*
X134000000Y-98350000D01*
X127000000Y-99350000D02*
X134000000Y-99350000D01*
X127000000Y-94150000D02*
X134000000Y-94150000D01*
D12*
X134000000Y-98350000D02*
X134000000Y-97650000D01*
X134000000Y-97650000D02*
X132100000Y-97650000D01*
X132100000Y-97650000D02*
X132000000Y-97650000D01*
X132000000Y-97650000D02*
X132000000Y-99350000D01*
D11*
G04 #@! TO.C,U37*
X134000000Y-113350000D02*
X134000000Y-112350000D01*
X127000000Y-113350000D02*
X134000000Y-113350000D01*
X127000000Y-108150000D02*
X134000000Y-108150000D01*
D12*
X134000000Y-112350000D02*
X134000000Y-111650000D01*
X134000000Y-111650000D02*
X132100000Y-111650000D01*
X132100000Y-111650000D02*
X132000000Y-111650000D01*
X132000000Y-111650000D02*
X132000000Y-113350000D01*
D11*
G04 #@! TO.C,U38*
X134000000Y-122850000D02*
X134000000Y-121850000D01*
X127000000Y-122850000D02*
X134000000Y-122850000D01*
X127000000Y-117650000D02*
X134000000Y-117650000D01*
D12*
X134000000Y-121850000D02*
X134000000Y-121150000D01*
X134000000Y-121150000D02*
X132100000Y-121150000D01*
X132100000Y-121150000D02*
X132000000Y-121150000D01*
X132000000Y-121150000D02*
X132000000Y-122850000D01*
D11*
G04 #@! TO.C,U39*
X134000000Y-132350000D02*
X134000000Y-131350000D01*
X127000000Y-132350000D02*
X134000000Y-132350000D01*
X127000000Y-127150000D02*
X134000000Y-127150000D01*
D12*
X134000000Y-131350000D02*
X134000000Y-130650000D01*
X134000000Y-130650000D02*
X132100000Y-130650000D01*
X132100000Y-130650000D02*
X132000000Y-130650000D01*
X132000000Y-130650000D02*
X132000000Y-132350000D01*
D11*
G04 #@! TO.C,U40*
X127000000Y-139350000D02*
X127000000Y-138350000D01*
X120000000Y-139350000D02*
X127000000Y-139350000D01*
X120000000Y-134150000D02*
X127000000Y-134150000D01*
D12*
X127000000Y-138350000D02*
X127000000Y-137650000D01*
X127000000Y-137650000D02*
X125100000Y-137650000D01*
X125100000Y-137650000D02*
X125000000Y-137650000D01*
X125000000Y-137650000D02*
X125000000Y-139350000D01*
D11*
G04 #@! TO.C,U41*
X117500000Y-139350000D02*
X117500000Y-138350000D01*
X110500000Y-139350000D02*
X117500000Y-139350000D01*
X110500000Y-134150000D02*
X117500000Y-134150000D01*
D12*
X117500000Y-138350000D02*
X117500000Y-137650000D01*
X117500000Y-137650000D02*
X115600000Y-137650000D01*
X115600000Y-137650000D02*
X115500000Y-137650000D01*
X115500000Y-137650000D02*
X115500000Y-139350000D01*
D11*
G04 #@! TO.C,U42*
X108000000Y-139350000D02*
X108000000Y-138350000D01*
X101000000Y-139350000D02*
X108000000Y-139350000D01*
X101000000Y-134150000D02*
X108000000Y-134150000D01*
D12*
X108000000Y-138350000D02*
X108000000Y-137650000D01*
X108000000Y-137650000D02*
X106100000Y-137650000D01*
X106100000Y-137650000D02*
X106000000Y-137650000D01*
X106000000Y-137650000D02*
X106000000Y-139350000D01*
D11*
G04 #@! TO.C,U43*
X108000000Y-106350000D02*
X108000000Y-105350000D01*
X101000000Y-106350000D02*
X108000000Y-106350000D01*
X101000000Y-101150000D02*
X108000000Y-101150000D01*
D12*
X108000000Y-105350000D02*
X108000000Y-104650000D01*
X108000000Y-104650000D02*
X106100000Y-104650000D01*
X106100000Y-104650000D02*
X106000000Y-104650000D01*
X106000000Y-104650000D02*
X106000000Y-106350000D01*
D11*
G04 #@! TO.C,U44*
X117500000Y-106350000D02*
X117500000Y-105350000D01*
X110500000Y-106350000D02*
X117500000Y-106350000D01*
X110500000Y-101150000D02*
X117500000Y-101150000D01*
D12*
X117500000Y-105350000D02*
X117500000Y-104650000D01*
X117500000Y-104650000D02*
X115600000Y-104650000D01*
X115600000Y-104650000D02*
X115500000Y-104650000D01*
X115500000Y-104650000D02*
X115500000Y-106350000D01*
D11*
G04 #@! TO.C,U45*
X127000000Y-106350000D02*
X127000000Y-105350000D01*
X120000000Y-106350000D02*
X127000000Y-106350000D01*
X120000000Y-101150000D02*
X127000000Y-101150000D01*
D12*
X127000000Y-105350000D02*
X127000000Y-104650000D01*
X127000000Y-104650000D02*
X125100000Y-104650000D01*
X125100000Y-104650000D02*
X125000000Y-104650000D01*
X125000000Y-104650000D02*
X125000000Y-106350000D01*
D11*
G04 #@! TO.C,U46*
X143750000Y-101350000D02*
X143750000Y-100350000D01*
X136750000Y-101350000D02*
X143750000Y-101350000D01*
X136750000Y-96150000D02*
X143750000Y-96150000D01*
D12*
X143750000Y-100350000D02*
X143750000Y-99650000D01*
X143750000Y-99650000D02*
X141850000Y-99650000D01*
X141850000Y-99650000D02*
X141750000Y-99650000D01*
X141750000Y-99650000D02*
X141750000Y-101350000D01*
D11*
G04 #@! TO.C,U47*
X143750000Y-111350000D02*
X143750000Y-110350000D01*
X136750000Y-111350000D02*
X143750000Y-111350000D01*
X136750000Y-106150000D02*
X143750000Y-106150000D01*
D12*
X143750000Y-110350000D02*
X143750000Y-109650000D01*
X143750000Y-109650000D02*
X141850000Y-109650000D01*
X141850000Y-109650000D02*
X141750000Y-109650000D01*
X141750000Y-109650000D02*
X141750000Y-111350000D01*
G04 #@! TD*
M02*
