G04 #@! TF.GenerationSoftware,KiCad,Pcbnew,(5.0.0)*
G04 #@! TF.CreationDate,2020-11-20T22:11:44-05:00*
G04 #@! TF.ProjectId,WS2812B Mini Clock,57533238313242204D696E6920436C6F,rev?*
G04 #@! TF.SameCoordinates,Original*
G04 #@! TF.FileFunction,Paste,Bot*
G04 #@! TF.FilePolarity,Positive*
%FSLAX46Y46*%
G04 Gerber Fmt 4.6, Leading zero omitted, Abs format (unit mm)*
G04 Created by KiCad (PCBNEW (5.0.0)) date 11/20/20 22:11:44*
%MOMM*%
%LPD*%
G01*
G04 APERTURE LIST*
%ADD10R,2.500000X1.425000*%
%ADD11R,0.700000X1.825000*%
%ADD12R,1.750000X0.400000*%
%ADD13R,1.550000X0.600000*%
%ADD14R,1.250000X1.500000*%
%ADD15R,1.500000X1.250000*%
%ADD16R,0.500000X0.900000*%
%ADD17R,1.500000X0.600000*%
%ADD18R,1.200000X1.200000*%
%ADD19R,0.900000X0.500000*%
%ADD20R,1.550000X1.300000*%
%ADD21R,0.600000X1.910000*%
%ADD22R,2.000000X3.800000*%
%ADD23R,2.000000X1.500000*%
G04 APERTURE END LIST*
D10*
G04 #@! TO.C,USB1*
X46550000Y-104800000D03*
D11*
X48510000Y-100810000D03*
D12*
X49625000Y-102500000D03*
X49625000Y-103150000D03*
X49625000Y-103800000D03*
X49625000Y-104450000D03*
X49625000Y-105100000D03*
D11*
X48510000Y-106790000D03*
D10*
X46550000Y-102800000D03*
G04 #@! TD*
D13*
G04 #@! TO.C,MCU1*
X59150000Y-109350000D03*
X59150000Y-110615000D03*
X59150000Y-111885000D03*
X59150000Y-113155000D03*
X66150000Y-113155000D03*
X66150000Y-111885000D03*
X66150000Y-110615000D03*
X66150000Y-109345000D03*
G04 #@! TD*
D14*
G04 #@! TO.C,C3*
X128000000Y-139250000D03*
X128000000Y-141750000D03*
G04 #@! TD*
G04 #@! TO.C,C4*
X76500000Y-128000000D03*
X76500000Y-125500000D03*
G04 #@! TD*
D15*
G04 #@! TO.C,C5*
X63500000Y-89500000D03*
X61000000Y-89500000D03*
G04 #@! TD*
D14*
G04 #@! TO.C,C6*
X128500000Y-68250000D03*
X128500000Y-65750000D03*
G04 #@! TD*
D15*
G04 #@! TO.C,C7*
X61500000Y-105500000D03*
X64000000Y-105500000D03*
G04 #@! TD*
D16*
G04 #@! TO.C,R1*
X70500000Y-109000000D03*
X69000000Y-109000000D03*
G04 #@! TD*
G04 #@! TO.C,R2*
X54500000Y-113000000D03*
X56000000Y-113000000D03*
G04 #@! TD*
D17*
G04 #@! TO.C,U25*
X84150000Y-109555000D03*
X84150000Y-110825000D03*
X84150000Y-112095000D03*
X84150000Y-113365000D03*
X84150000Y-114635000D03*
X84150000Y-115905000D03*
X84150000Y-117175000D03*
X84150000Y-118445000D03*
X74850000Y-118445000D03*
X74850000Y-117175000D03*
X74850000Y-115905000D03*
X74850000Y-114635000D03*
X74850000Y-113365000D03*
X74850000Y-112095000D03*
X74850000Y-110825000D03*
X74850000Y-109555000D03*
G04 #@! TD*
D16*
G04 #@! TO.C,R3*
X54500000Y-110500000D03*
X56000000Y-110500000D03*
G04 #@! TD*
D18*
G04 #@! TO.C,D1*
X73100000Y-85750000D03*
X70900000Y-85750000D03*
G04 #@! TD*
G04 #@! TO.C,D2*
X117600000Y-85750000D03*
X115400000Y-85750000D03*
G04 #@! TD*
G04 #@! TO.C,D3*
X94350000Y-85750000D03*
X92150000Y-85750000D03*
G04 #@! TD*
D19*
G04 #@! TO.C,R4*
X74000000Y-134500000D03*
X74000000Y-136000000D03*
G04 #@! TD*
G04 #@! TO.C,R5*
X72000000Y-134500000D03*
X72000000Y-136000000D03*
G04 #@! TD*
G04 #@! TO.C,R6*
X70000000Y-134500000D03*
X70000000Y-136000000D03*
G04 #@! TD*
G04 #@! TO.C,R7*
X68000000Y-134500000D03*
X68000000Y-136000000D03*
G04 #@! TD*
G04 #@! TO.C,R8*
X56000000Y-118250000D03*
X56000000Y-119750000D03*
G04 #@! TD*
G04 #@! TO.C,R9*
X58000000Y-118250000D03*
X58000000Y-119750000D03*
G04 #@! TD*
G04 #@! TO.C,R10*
X60000000Y-118250000D03*
X60000000Y-119750000D03*
G04 #@! TD*
D20*
G04 #@! TO.C,SW0*
X68025000Y-83000000D03*
X75975000Y-83000000D03*
X68025000Y-78500000D03*
X75975000Y-78500000D03*
G04 #@! TD*
G04 #@! TO.C,SW1*
X112525000Y-83000000D03*
X120475000Y-83000000D03*
X112525000Y-78500000D03*
X120475000Y-78500000D03*
G04 #@! TD*
G04 #@! TO.C,SW2*
X89275000Y-83000000D03*
X97225000Y-83000000D03*
X89275000Y-78500000D03*
X97225000Y-78500000D03*
G04 #@! TD*
G04 #@! TO.C,SW3*
X83275000Y-102750000D03*
X91225000Y-102750000D03*
X83275000Y-98250000D03*
X91225000Y-98250000D03*
G04 #@! TD*
G04 #@! TO.C,SW4*
X112525000Y-102750000D03*
X120475000Y-102750000D03*
X112525000Y-98250000D03*
X120475000Y-98250000D03*
G04 #@! TD*
G04 #@! TO.C,SW5*
X112525000Y-121750000D03*
X120475000Y-121750000D03*
X112525000Y-117250000D03*
X120475000Y-117250000D03*
G04 #@! TD*
D21*
G04 #@! TO.C,U26*
X56745000Y-131610000D03*
X58015000Y-131610000D03*
X59285000Y-131610000D03*
X60555000Y-131610000D03*
X61825000Y-131610000D03*
X63095000Y-131610000D03*
X64365000Y-131610000D03*
X65635000Y-131610000D03*
X66905000Y-131610000D03*
X68175000Y-131610000D03*
X69445000Y-131610000D03*
X70715000Y-131610000D03*
X71985000Y-131610000D03*
X73255000Y-131610000D03*
X73255000Y-122390000D03*
X71985000Y-122390000D03*
X70715000Y-122390000D03*
X69445000Y-122390000D03*
X68175000Y-122390000D03*
X66905000Y-122390000D03*
X65635000Y-122390000D03*
X64365000Y-122390000D03*
X63095000Y-122390000D03*
X61825000Y-122390000D03*
X60555000Y-122390000D03*
X59285000Y-122390000D03*
X58015000Y-122390000D03*
X56745000Y-122390000D03*
G04 #@! TD*
D22*
G04 #@! TO.C,U90*
X142750000Y-125000000D03*
D23*
X136450000Y-125000000D03*
X136450000Y-122700000D03*
X136450000Y-127300000D03*
G04 #@! TD*
M02*
