G04 #@! TF.GenerationSoftware,KiCad,Pcbnew,(5.0.0)*
G04 #@! TF.CreationDate,2020-11-20T22:11:44-05:00*
G04 #@! TF.ProjectId,WS2812B Mini Clock,57533238313242204D696E6920436C6F,rev?*
G04 #@! TF.SameCoordinates,Original*
G04 #@! TF.FileFunction,Soldermask,Bot*
G04 #@! TF.FilePolarity,Negative*
%FSLAX46Y46*%
G04 Gerber Fmt 4.6, Leading zero omitted, Abs format (unit mm)*
G04 Created by KiCad (PCBNEW (5.0.0)) date 11/20/20 22:11:44*
%MOMM*%
%LPD*%
G01*
G04 APERTURE LIST*
%ADD10C,5.400000*%
%ADD11C,2.900000*%
%ADD12R,2.900000X1.825000*%
%ADD13R,1.100000X2.225000*%
%ADD14O,3.550000X1.700000*%
%ADD15R,2.150000X0.800000*%
%ADD16R,1.800000X2.400000*%
%ADD17R,1.950000X1.000000*%
%ADD18R,1.650000X1.900000*%
%ADD19R,1.900000X1.650000*%
%ADD20R,1.400000X1.400000*%
%ADD21O,1.400000X1.400000*%
%ADD22R,0.900000X1.300000*%
%ADD23R,1.900000X1.000000*%
%ADD24R,1.600000X1.600000*%
%ADD25R,1.300000X0.900000*%
%ADD26R,1.950000X1.700000*%
%ADD27R,1.000000X2.310000*%
%ADD28C,1.900000*%
%ADD29R,3.900000X3.900000*%
%ADD30R,2.400000X4.200000*%
%ADD31R,2.400000X1.900000*%
G04 APERTURE END LIST*
D10*
G04 #@! TO.C,REF3*
X228000000Y-69500000D03*
G04 #@! TD*
G04 #@! TO.C,REF4*
X228000000Y-138000000D03*
G04 #@! TD*
G04 #@! TO.C,REF2*
X52000000Y-69500000D03*
G04 #@! TD*
D11*
G04 #@! TO.C,U24*
X92618272Y-140881728D03*
X106406854Y-127093146D03*
G04 #@! TD*
D12*
G04 #@! TO.C,USB1*
X46550000Y-104800000D03*
D13*
X48510000Y-100810000D03*
D14*
X47280000Y-101075000D03*
D15*
X49625000Y-102500000D03*
X49625000Y-103150000D03*
X49625000Y-103800000D03*
X49625000Y-104450000D03*
D16*
X49830000Y-100375000D03*
D15*
X49625000Y-105100000D03*
D16*
X49830000Y-107225000D03*
D14*
X47280000Y-106525000D03*
D13*
X48510000Y-106790000D03*
D12*
X46550000Y-102800000D03*
G04 #@! TD*
D17*
G04 #@! TO.C,MCU1*
X59150000Y-109350000D03*
X59150000Y-110615000D03*
X59150000Y-111885000D03*
X59150000Y-113155000D03*
X66150000Y-113155000D03*
X66150000Y-111885000D03*
X66150000Y-110615000D03*
X66150000Y-109345000D03*
G04 #@! TD*
D18*
G04 #@! TO.C,C3*
X128000000Y-139250000D03*
X128000000Y-141750000D03*
G04 #@! TD*
G04 #@! TO.C,C4*
X76500000Y-128000000D03*
X76500000Y-125500000D03*
G04 #@! TD*
D19*
G04 #@! TO.C,C5*
X63500000Y-89500000D03*
X61000000Y-89500000D03*
G04 #@! TD*
D18*
G04 #@! TO.C,C6*
X128500000Y-68250000D03*
X128500000Y-65750000D03*
G04 #@! TD*
D19*
G04 #@! TO.C,C7*
X61500000Y-105500000D03*
X64000000Y-105500000D03*
G04 #@! TD*
D20*
G04 #@! TO.C,J1*
X60000000Y-94000000D03*
D21*
X60000000Y-95270000D03*
X61270000Y-94000000D03*
X61270000Y-95270000D03*
X62540000Y-94000000D03*
X62540000Y-95270000D03*
X63810000Y-94000000D03*
X63810000Y-95270000D03*
X65080000Y-94000000D03*
X65080000Y-95270000D03*
G04 #@! TD*
D22*
G04 #@! TO.C,R1*
X70500000Y-109000000D03*
X69000000Y-109000000D03*
G04 #@! TD*
G04 #@! TO.C,R2*
X54500000Y-113000000D03*
X56000000Y-113000000D03*
G04 #@! TD*
D23*
G04 #@! TO.C,U25*
X84150000Y-109555000D03*
X84150000Y-110825000D03*
X84150000Y-112095000D03*
X84150000Y-113365000D03*
X84150000Y-114635000D03*
X84150000Y-115905000D03*
X84150000Y-117175000D03*
X84150000Y-118445000D03*
X74850000Y-118445000D03*
X74850000Y-117175000D03*
X74850000Y-115905000D03*
X74850000Y-114635000D03*
X74850000Y-113365000D03*
X74850000Y-112095000D03*
X74850000Y-110825000D03*
X74850000Y-109555000D03*
G04 #@! TD*
D22*
G04 #@! TO.C,R3*
X54500000Y-110500000D03*
X56000000Y-110500000D03*
G04 #@! TD*
D24*
G04 #@! TO.C,D1*
X73100000Y-85750000D03*
X70900000Y-85750000D03*
G04 #@! TD*
G04 #@! TO.C,D2*
X117600000Y-85750000D03*
X115400000Y-85750000D03*
G04 #@! TD*
G04 #@! TO.C,D3*
X94350000Y-85750000D03*
X92150000Y-85750000D03*
G04 #@! TD*
D25*
G04 #@! TO.C,R4*
X74000000Y-134500000D03*
X74000000Y-136000000D03*
G04 #@! TD*
G04 #@! TO.C,R5*
X72000000Y-134500000D03*
X72000000Y-136000000D03*
G04 #@! TD*
G04 #@! TO.C,R6*
X70000000Y-134500000D03*
X70000000Y-136000000D03*
G04 #@! TD*
G04 #@! TO.C,R7*
X68000000Y-134500000D03*
X68000000Y-136000000D03*
G04 #@! TD*
G04 #@! TO.C,R8*
X56000000Y-118250000D03*
X56000000Y-119750000D03*
G04 #@! TD*
G04 #@! TO.C,R9*
X58000000Y-118250000D03*
X58000000Y-119750000D03*
G04 #@! TD*
G04 #@! TO.C,R10*
X60000000Y-118250000D03*
X60000000Y-119750000D03*
G04 #@! TD*
D26*
G04 #@! TO.C,SW0*
X68025000Y-83000000D03*
X75975000Y-83000000D03*
X68025000Y-78500000D03*
X75975000Y-78500000D03*
G04 #@! TD*
G04 #@! TO.C,SW1*
X112525000Y-83000000D03*
X120475000Y-83000000D03*
X112525000Y-78500000D03*
X120475000Y-78500000D03*
G04 #@! TD*
G04 #@! TO.C,SW2*
X89275000Y-83000000D03*
X97225000Y-83000000D03*
X89275000Y-78500000D03*
X97225000Y-78500000D03*
G04 #@! TD*
G04 #@! TO.C,SW3*
X83275000Y-102750000D03*
X91225000Y-102750000D03*
X83275000Y-98250000D03*
X91225000Y-98250000D03*
G04 #@! TD*
G04 #@! TO.C,SW4*
X112525000Y-102750000D03*
X120475000Y-102750000D03*
X112525000Y-98250000D03*
X120475000Y-98250000D03*
G04 #@! TD*
G04 #@! TO.C,SW5*
X112525000Y-121750000D03*
X120475000Y-121750000D03*
X112525000Y-117250000D03*
X120475000Y-117250000D03*
G04 #@! TD*
D27*
G04 #@! TO.C,U26*
X56745000Y-131610000D03*
X58015000Y-131610000D03*
X59285000Y-131610000D03*
X60555000Y-131610000D03*
X61825000Y-131610000D03*
X63095000Y-131610000D03*
X64365000Y-131610000D03*
X65635000Y-131610000D03*
X66905000Y-131610000D03*
X68175000Y-131610000D03*
X69445000Y-131610000D03*
X70715000Y-131610000D03*
X71985000Y-131610000D03*
X73255000Y-131610000D03*
X73255000Y-122390000D03*
X71985000Y-122390000D03*
X70715000Y-122390000D03*
X69445000Y-122390000D03*
X68175000Y-122390000D03*
X66905000Y-122390000D03*
X65635000Y-122390000D03*
X64365000Y-122390000D03*
X63095000Y-122390000D03*
X61825000Y-122390000D03*
X60555000Y-122390000D03*
X59285000Y-122390000D03*
X58015000Y-122390000D03*
X56745000Y-122390000D03*
G04 #@! TD*
D10*
G04 #@! TO.C,REF\002A\002A*
X52000000Y-138000000D03*
G04 #@! TD*
D28*
G04 #@! TO.C,J2*
X111000000Y-143000000D03*
G04 #@! TD*
G04 #@! TO.C,J3*
X121000000Y-143000000D03*
G04 #@! TD*
D29*
G04 #@! TO.C,J4*
X141200000Y-130800000D03*
X141200000Y-136800000D03*
X136500000Y-133800000D03*
G04 #@! TD*
D30*
G04 #@! TO.C,U90*
X142750000Y-125000000D03*
D31*
X136450000Y-125000000D03*
X136450000Y-122700000D03*
X136450000Y-127300000D03*
G04 #@! TD*
M02*
