M48
;DRILL file {KiCad (5.0.0)} date 11/20/20 22:11:46
;FORMAT={-:-/ absolute / metric / decimal}
FMAT,2
METRIC,TZ
T1C0.400
T2C0.650
T3C0.700
T4C1.000
T5C1.100
T6C1.200
T7C3.500
%
G90
G05
M71
T1
X47.85Y-109.25
X51.321Y-102.686
X51.6Y-125.4
X52.8Y-91.6
X53.01Y-130.27
X54.64Y-114.732
X55.4Y-125.2
X56.068Y-115.879
X56.4Y-92.55
X57.173Y-114.274
X57.91Y-136.287
X58.4Y-98.8
X59.Y-118.916
X59.015Y-117.102
X59.2Y-126.
X59.959Y-134.561
X61.25Y-87.452
X61.371Y-111.141
X61.822Y-128.553
X62.2Y-116.
X63.Y-120.2
X63.206Y-104.05
X63.369Y-127.567
X63.621Y-111.552
X63.8Y-109.
X64.1Y-134.021
X64.689Y-130.001
X64.8Y-97.6
X65.131Y-115.064
X65.2Y-117.2
X66.462Y-114.068
X66.694Y-80.62
X68.466Y-120.633
X69.Y-117.
X69.55Y-85.589
X70.483Y-112.688
X71.031Y-127.754
X72.Y-108.
X72.411Y-119.969
X73.4Y-116.6
X73.865Y-101.994
X74.619Y-80.62
X75.046Y-125.935
X75.111Y-134.741
X75.116Y-119.606
X76.525Y-123.684
X77.075Y-133.968
X77.966Y-119.871
X78.32Y-106.837
X80.8Y-109.6
X81.676Y-119.184
X82.Y-116.8
X82.765Y-96.846
X83.6Y-72.8
X84.35Y-104.95
X85.Y-100.9
X86.25Y-126.35
X86.694Y-115.564
X89.2Y-123.6
X90.8Y-85.589
X90.8Y-116.6
X90.962Y-100.34
X91.25Y-78.651
X95.Y-81.6
X97.32Y-131.334
X97.506Y-80.62
X97.6Y-92.
X104.6Y-116.6
X104.951Y-135.923
X105.966Y-119.502
X106.924Y-124.112
X114.05Y-85.589
X114.762Y-78.651
X114.762Y-99.27
X114.762Y-117.067
X121.935Y-98.239
X122.7Y-78.651
X122.7Y-117.067
X125.35Y-99.55
X125.762Y-143.076
X128.619Y-69.638
X129.583Y-100.588
X130.6Y-64.424
X130.6Y-120.8
X136.744Y-128.699
X137.15Y-112.55
X140.9Y-111.9
X140.975Y-97.246
X145.206Y-111.626
X150.05Y-95.874
X150.85Y-124.65
X154.6Y-129.5
X156.903Y-104.587
X157.048Y-136.737
X171.Y-104.6
X176.Y-104.6
X183.Y-104.8
X185.8Y-82.
X188.6Y-126.4
X188.8Y-86.6
X190.556Y-110.992
X194.329Y-97.849
X194.4Y-133.
X196.4Y-90.6
X198.927Y-136.437
X201.063Y-102.306
T2
X60.Y-94.
X60.Y-95.27
X61.27Y-94.
X61.27Y-95.27
X62.54Y-94.
X62.54Y-95.27
X63.81Y-94.
X63.81Y-95.27
X65.08Y-94.
X65.08Y-95.27
T5
X111.Y-143.
X121.Y-143.
T6
X92.618Y-140.882
X106.407Y-127.093
T7
X52.Y-69.5
X52.Y-138.
X228.Y-69.5
X228.Y-138.
T3
X46.55Y-101.075G85X47.05Y-101.075
G05
X46.55Y-106.525G85X47.05Y-106.525
G05
X49.655Y-100.9G85X50.005Y-100.9
G05
X49.655Y-106.7G85X50.005Y-106.7
G05
T4
X136.5Y-134.8G85X136.5Y-132.8
G05
X140.2Y-130.8G85X142.2Y-130.8
G05
X140.2Y-136.8G85X142.2Y-136.8
G05
T0
M30
