G04 #@! TF.GenerationSoftware,KiCad,Pcbnew,(5.0.0)*
G04 #@! TF.CreationDate,2020-05-21T20:29:27-04:00*
G04 #@! TF.ProjectId,WS2812 ClockDIY,57533238313220436C6F636B4449592E,rev?*
G04 #@! TF.SameCoordinates,Original*
G04 #@! TF.FileFunction,Paste,Top*
G04 #@! TF.FilePolarity,Positive*
%FSLAX46Y46*%
G04 Gerber Fmt 4.6, Leading zero omitted, Abs format (unit mm)*
G04 Created by KiCad (PCBNEW (5.0.0)) date 05/21/20 20:29:27*
%MOMM*%
%LPD*%
G01*
G04 APERTURE LIST*
%ADD10R,1.600000X1.000000*%
%ADD11R,1.500000X1.250000*%
%ADD12R,4.000000X1.600000*%
%ADD13O,4.000000X1.600000*%
%ADD14R,0.700000X1.300000*%
%ADD15R,1.000000X1.600000*%
%ADD16R,2.500000X1.425000*%
%ADD17R,0.700000X1.825000*%
%ADD18R,1.750000X0.400000*%
G04 APERTURE END LIST*
D10*
G04 #@! TO.C,U84*
X227500000Y-104100000D03*
X227500000Y-100900000D03*
X222500000Y-104100000D03*
X222500000Y-100900000D03*
G04 #@! TD*
D11*
G04 #@! TO.C,C3*
X45500000Y-95000000D03*
X43000000Y-95000000D03*
G04 #@! TD*
G04 #@! TO.C,C4*
X163391001Y-49316001D03*
X165891001Y-49316001D03*
G04 #@! TD*
G04 #@! TO.C,C5*
X223950000Y-95200000D03*
X221450000Y-95200000D03*
G04 #@! TD*
G04 #@! TO.C,C6*
X167500000Y-94500000D03*
X170000000Y-94500000D03*
G04 #@! TD*
G04 #@! TO.C,C7*
X99500000Y-94500000D03*
X97000000Y-94500000D03*
G04 #@! TD*
D12*
G04 #@! TO.C,MCU1*
X163000000Y-32000000D03*
D13*
X174620000Y-39620000D03*
X163000000Y-34540000D03*
X174620000Y-37080000D03*
X163000000Y-37080000D03*
X174620000Y-34540000D03*
X163000000Y-39620000D03*
X174620000Y-32000000D03*
G04 #@! TD*
D14*
G04 #@! TO.C,R1*
X169441001Y-49346001D03*
X167541001Y-49346001D03*
G04 #@! TD*
D15*
G04 #@! TO.C,U1*
X33400000Y-132500000D03*
X36600000Y-132500000D03*
X33400000Y-127500000D03*
X36600000Y-127500000D03*
G04 #@! TD*
G04 #@! TO.C,U2*
X36600000Y-117500000D03*
X33400000Y-117500000D03*
X36600000Y-122500000D03*
X33400000Y-122500000D03*
G04 #@! TD*
G04 #@! TO.C,U3*
X36600000Y-107500000D03*
X33400000Y-107500000D03*
X36600000Y-112500000D03*
X33400000Y-112500000D03*
G04 #@! TD*
G04 #@! TO.C,U4*
X33400000Y-97500000D03*
X36600000Y-97500000D03*
X33400000Y-92500000D03*
X36600000Y-92500000D03*
G04 #@! TD*
G04 #@! TO.C,U5*
X36600000Y-82500000D03*
X33400000Y-82500000D03*
X36600000Y-87500000D03*
X33400000Y-87500000D03*
G04 #@! TD*
G04 #@! TO.C,U6*
X33400000Y-77500000D03*
X36600000Y-77500000D03*
X33400000Y-72500000D03*
X36600000Y-72500000D03*
G04 #@! TD*
D10*
G04 #@! TO.C,U7*
X47500000Y-69100000D03*
X47500000Y-65900000D03*
X42500000Y-69100000D03*
X42500000Y-65900000D03*
G04 #@! TD*
G04 #@! TO.C,U8*
X52500000Y-65900000D03*
X52500000Y-69100000D03*
X57500000Y-65900000D03*
X57500000Y-69100000D03*
G04 #@! TD*
G04 #@! TO.C,U9*
X67500000Y-69100000D03*
X67500000Y-65900000D03*
X62500000Y-69100000D03*
X62500000Y-65900000D03*
G04 #@! TD*
D15*
G04 #@! TO.C,U10*
X76600000Y-72500000D03*
X73400000Y-72500000D03*
X76600000Y-77500000D03*
X73400000Y-77500000D03*
G04 #@! TD*
G04 #@! TO.C,U11*
X76600000Y-82500000D03*
X73400000Y-82500000D03*
X76600000Y-87500000D03*
X73400000Y-87500000D03*
G04 #@! TD*
G04 #@! TO.C,U12*
X73400000Y-97500000D03*
X76600000Y-97500000D03*
X73400000Y-92500000D03*
X76600000Y-92500000D03*
G04 #@! TD*
G04 #@! TO.C,U13*
X76600000Y-107500000D03*
X73400000Y-107500000D03*
X76600000Y-112500000D03*
X73400000Y-112500000D03*
G04 #@! TD*
G04 #@! TO.C,U14*
X73400000Y-122500000D03*
X76600000Y-122500000D03*
X73400000Y-117500000D03*
X76600000Y-117500000D03*
G04 #@! TD*
G04 #@! TO.C,U15*
X76600000Y-127500000D03*
X73400000Y-127500000D03*
X76600000Y-132500000D03*
X73400000Y-132500000D03*
G04 #@! TD*
D10*
G04 #@! TO.C,U16*
X62500000Y-135900000D03*
X62500000Y-139100000D03*
X67500000Y-135900000D03*
X67500000Y-139100000D03*
G04 #@! TD*
G04 #@! TO.C,U17*
X57500000Y-139100000D03*
X57500000Y-135900000D03*
X52500000Y-139100000D03*
X52500000Y-135900000D03*
G04 #@! TD*
G04 #@! TO.C,U18*
X42500000Y-135900000D03*
X42500000Y-139100000D03*
X47500000Y-135900000D03*
X47500000Y-139100000D03*
G04 #@! TD*
G04 #@! TO.C,U19*
X42500000Y-100900000D03*
X42500000Y-104100000D03*
X47500000Y-100900000D03*
X47500000Y-104100000D03*
G04 #@! TD*
G04 #@! TO.C,U20*
X57500000Y-104100000D03*
X57500000Y-100900000D03*
X52500000Y-104100000D03*
X52500000Y-100900000D03*
G04 #@! TD*
G04 #@! TO.C,U21*
X67500000Y-104100000D03*
X67500000Y-100900000D03*
X62500000Y-104100000D03*
X62500000Y-100900000D03*
G04 #@! TD*
D15*
G04 #@! TO.C,U22*
X88400000Y-132500000D03*
X91600000Y-132500000D03*
X88400000Y-127500000D03*
X91600000Y-127500000D03*
G04 #@! TD*
G04 #@! TO.C,U23*
X91600000Y-117500000D03*
X88400000Y-117500000D03*
X91600000Y-122500000D03*
X88400000Y-122500000D03*
G04 #@! TD*
G04 #@! TO.C,U24*
X88400000Y-112500000D03*
X91600000Y-112500000D03*
X88400000Y-107500000D03*
X91600000Y-107500000D03*
G04 #@! TD*
G04 #@! TO.C,U25*
X91600000Y-92500000D03*
X88400000Y-92500000D03*
X91600000Y-97500000D03*
X88400000Y-97500000D03*
G04 #@! TD*
G04 #@! TO.C,U26*
X88400000Y-87500000D03*
X91600000Y-87500000D03*
X88400000Y-82500000D03*
X91600000Y-82500000D03*
G04 #@! TD*
G04 #@! TO.C,U27*
X91600000Y-72500000D03*
X88400000Y-72500000D03*
X91600000Y-77500000D03*
X88400000Y-77500000D03*
G04 #@! TD*
D10*
G04 #@! TO.C,U28*
X97500000Y-65900000D03*
X97500000Y-69100000D03*
X102500000Y-65900000D03*
X102500000Y-69100000D03*
G04 #@! TD*
G04 #@! TO.C,U29*
X112500000Y-69100000D03*
X112500000Y-65900000D03*
X107500000Y-69100000D03*
X107500000Y-65900000D03*
G04 #@! TD*
G04 #@! TO.C,U30*
X117500000Y-65900000D03*
X117500000Y-69100000D03*
X122500000Y-65900000D03*
X122500000Y-69100000D03*
G04 #@! TD*
D15*
G04 #@! TO.C,U31*
X128400000Y-77500000D03*
X131600000Y-77500000D03*
X128400000Y-72500000D03*
X131600000Y-72500000D03*
G04 #@! TD*
G04 #@! TO.C,U32*
X131600000Y-82500000D03*
X128400000Y-82500000D03*
X131600000Y-87500000D03*
X128400000Y-87500000D03*
G04 #@! TD*
G04 #@! TO.C,U33*
X128400000Y-97500000D03*
X131600000Y-97500000D03*
X128400000Y-92500000D03*
X131600000Y-92500000D03*
G04 #@! TD*
G04 #@! TO.C,U34*
X131600000Y-107500000D03*
X128400000Y-107500000D03*
X131600000Y-112500000D03*
X128400000Y-112500000D03*
G04 #@! TD*
G04 #@! TO.C,U35*
X128400000Y-122500000D03*
X131600000Y-122500000D03*
X128400000Y-117500000D03*
X131600000Y-117500000D03*
G04 #@! TD*
G04 #@! TO.C,U36*
X131600000Y-127500000D03*
X128400000Y-127500000D03*
X131600000Y-132500000D03*
X128400000Y-132500000D03*
G04 #@! TD*
D10*
G04 #@! TO.C,U37*
X117500000Y-135900000D03*
X117500000Y-139100000D03*
X122500000Y-135900000D03*
X122500000Y-139100000D03*
G04 #@! TD*
G04 #@! TO.C,U38*
X112500000Y-139100000D03*
X112500000Y-135900000D03*
X107500000Y-139100000D03*
X107500000Y-135900000D03*
G04 #@! TD*
G04 #@! TO.C,U39*
X97500000Y-135900000D03*
X97500000Y-139100000D03*
X102500000Y-135900000D03*
X102500000Y-139100000D03*
G04 #@! TD*
G04 #@! TO.C,U40*
X97500000Y-100900000D03*
X97500000Y-104100000D03*
X102500000Y-100900000D03*
X102500000Y-104100000D03*
G04 #@! TD*
D16*
G04 #@! TO.C,USB1*
X116000000Y-32000000D03*
D17*
X114040000Y-35990000D03*
D18*
X112925000Y-34300000D03*
X112925000Y-33650000D03*
X112925000Y-33000000D03*
X112925000Y-32350000D03*
X112925000Y-31700000D03*
D17*
X114040000Y-30010000D03*
D16*
X116000000Y-34000000D03*
G04 #@! TD*
D10*
G04 #@! TO.C,U41*
X112500000Y-104100000D03*
X112500000Y-100900000D03*
X107500000Y-104100000D03*
X107500000Y-100900000D03*
G04 #@! TD*
G04 #@! TO.C,U42*
X117500000Y-100900000D03*
X117500000Y-104100000D03*
X122500000Y-100900000D03*
X122500000Y-104100000D03*
G04 #@! TD*
D15*
G04 #@! TO.C,U43*
X146600000Y-107500000D03*
X143400000Y-107500000D03*
X146600000Y-112500000D03*
X143400000Y-112500000D03*
G04 #@! TD*
G04 #@! TO.C,U44*
X143400000Y-97500000D03*
X146600000Y-97500000D03*
X143400000Y-92500000D03*
X146600000Y-92500000D03*
G04 #@! TD*
G04 #@! TO.C,U45*
X161600000Y-127500000D03*
X158400000Y-127500000D03*
X161600000Y-132500000D03*
X158400000Y-132500000D03*
G04 #@! TD*
G04 #@! TO.C,U46*
X158400000Y-122500000D03*
X161600000Y-122500000D03*
X158400000Y-117500000D03*
X161600000Y-117500000D03*
G04 #@! TD*
G04 #@! TO.C,U47*
X161600000Y-107500000D03*
X158400000Y-107500000D03*
X161600000Y-112500000D03*
X158400000Y-112500000D03*
G04 #@! TD*
G04 #@! TO.C,U48*
X158400000Y-97500000D03*
X161600000Y-97500000D03*
X158400000Y-92500000D03*
X161600000Y-92500000D03*
G04 #@! TD*
G04 #@! TO.C,U49*
X161600000Y-82500000D03*
X158400000Y-82500000D03*
X161600000Y-87500000D03*
X158400000Y-87500000D03*
G04 #@! TD*
G04 #@! TO.C,U50*
X158400000Y-77500000D03*
X161600000Y-77500000D03*
X158400000Y-72500000D03*
X161600000Y-72500000D03*
G04 #@! TD*
D10*
G04 #@! TO.C,U51*
X172500000Y-69100000D03*
X172500000Y-65900000D03*
X167500000Y-69100000D03*
X167500000Y-65900000D03*
G04 #@! TD*
G04 #@! TO.C,U52*
X177500000Y-65900000D03*
X177500000Y-69100000D03*
X182500000Y-65900000D03*
X182500000Y-69100000D03*
G04 #@! TD*
G04 #@! TO.C,U53*
X192500000Y-69100000D03*
X192500000Y-65900000D03*
X187500000Y-69100000D03*
X187500000Y-65900000D03*
G04 #@! TD*
D15*
G04 #@! TO.C,U54*
X198400000Y-77500000D03*
X201600000Y-77500000D03*
X198400000Y-72500000D03*
X201600000Y-72500000D03*
G04 #@! TD*
G04 #@! TO.C,U55*
X201600000Y-82500000D03*
X198400000Y-82500000D03*
X201600000Y-87500000D03*
X198400000Y-87500000D03*
G04 #@! TD*
G04 #@! TO.C,U56*
X198400000Y-97500000D03*
X201600000Y-97500000D03*
X198400000Y-92500000D03*
X201600000Y-92500000D03*
G04 #@! TD*
G04 #@! TO.C,U57*
X201600000Y-107500000D03*
X198400000Y-107500000D03*
X201600000Y-112500000D03*
X198400000Y-112500000D03*
G04 #@! TD*
G04 #@! TO.C,U58*
X198400000Y-122500000D03*
X201600000Y-122500000D03*
X198400000Y-117500000D03*
X201600000Y-117500000D03*
G04 #@! TD*
G04 #@! TO.C,U59*
X198400000Y-132500000D03*
X201600000Y-132500000D03*
X198400000Y-127500000D03*
X201600000Y-127500000D03*
G04 #@! TD*
D10*
G04 #@! TO.C,U60*
X192500000Y-139100000D03*
X192500000Y-135900000D03*
X187500000Y-139100000D03*
X187500000Y-135900000D03*
G04 #@! TD*
G04 #@! TO.C,U61*
X177500000Y-135900000D03*
X177500000Y-139100000D03*
X182500000Y-135900000D03*
X182500000Y-139100000D03*
G04 #@! TD*
G04 #@! TO.C,U62*
X172500000Y-139100000D03*
X172500000Y-135900000D03*
X167500000Y-139100000D03*
X167500000Y-135900000D03*
G04 #@! TD*
G04 #@! TO.C,U63*
X172500000Y-104100000D03*
X172500000Y-100900000D03*
X167500000Y-104100000D03*
X167500000Y-100900000D03*
G04 #@! TD*
G04 #@! TO.C,U64*
X177500000Y-100900000D03*
X177500000Y-104100000D03*
X182500000Y-100900000D03*
X182500000Y-104100000D03*
G04 #@! TD*
G04 #@! TO.C,U65*
X192500000Y-104100000D03*
X192500000Y-100900000D03*
X187500000Y-104100000D03*
X187500000Y-100900000D03*
G04 #@! TD*
D15*
G04 #@! TO.C,U66*
X213400000Y-132500000D03*
X216600000Y-132500000D03*
X213400000Y-127500000D03*
X216600000Y-127500000D03*
G04 #@! TD*
G04 #@! TO.C,U67*
X216600000Y-117500000D03*
X213400000Y-117500000D03*
X216600000Y-122500000D03*
X213400000Y-122500000D03*
G04 #@! TD*
G04 #@! TO.C,U68*
X213400000Y-112500000D03*
X216600000Y-112500000D03*
X213400000Y-107500000D03*
X216600000Y-107500000D03*
G04 #@! TD*
G04 #@! TO.C,U69*
X216600000Y-92500000D03*
X213400000Y-92500000D03*
X216600000Y-97500000D03*
X213400000Y-97500000D03*
G04 #@! TD*
G04 #@! TO.C,U70*
X216600000Y-82500000D03*
X213400000Y-82500000D03*
X216600000Y-87500000D03*
X213400000Y-87500000D03*
G04 #@! TD*
G04 #@! TO.C,U71*
X213400000Y-77500000D03*
X216600000Y-77500000D03*
X213400000Y-72500000D03*
X216600000Y-72500000D03*
G04 #@! TD*
D10*
G04 #@! TO.C,U72*
X227500000Y-69100000D03*
X227500000Y-65900000D03*
X222500000Y-69100000D03*
X222500000Y-65900000D03*
G04 #@! TD*
G04 #@! TO.C,U73*
X232500000Y-65900000D03*
X232500000Y-69100000D03*
X237500000Y-65900000D03*
X237500000Y-69100000D03*
G04 #@! TD*
G04 #@! TO.C,U74*
X247500000Y-69100000D03*
X247500000Y-65900000D03*
X242500000Y-69100000D03*
X242500000Y-65900000D03*
G04 #@! TD*
D15*
G04 #@! TO.C,U75*
X256600000Y-72500000D03*
X253400000Y-72500000D03*
X256600000Y-77500000D03*
X253400000Y-77500000D03*
G04 #@! TD*
G04 #@! TO.C,U76*
X253400000Y-87500000D03*
X256600000Y-87500000D03*
X253400000Y-82500000D03*
X256600000Y-82500000D03*
G04 #@! TD*
G04 #@! TO.C,U77*
X256600000Y-92500000D03*
X253400000Y-92500000D03*
X256600000Y-97500000D03*
X253400000Y-97500000D03*
G04 #@! TD*
G04 #@! TO.C,U78*
X253400000Y-112500000D03*
X256600000Y-112500000D03*
X253400000Y-107500000D03*
X256600000Y-107500000D03*
G04 #@! TD*
G04 #@! TO.C,U79*
X256600000Y-117500000D03*
X253400000Y-117500000D03*
X256600000Y-122500000D03*
X253400000Y-122500000D03*
G04 #@! TD*
G04 #@! TO.C,U80*
X253400000Y-132500000D03*
X256600000Y-132500000D03*
X253400000Y-127500000D03*
X256600000Y-127500000D03*
G04 #@! TD*
D10*
G04 #@! TO.C,U81*
X247500000Y-139100000D03*
X247500000Y-135900000D03*
X242500000Y-139100000D03*
X242500000Y-135900000D03*
G04 #@! TD*
G04 #@! TO.C,U82*
X232500000Y-135900000D03*
X232500000Y-139100000D03*
X237500000Y-135900000D03*
X237500000Y-139100000D03*
G04 #@! TD*
G04 #@! TO.C,U83*
X227500000Y-139100000D03*
X227500000Y-135900000D03*
X222500000Y-139100000D03*
X222500000Y-135900000D03*
G04 #@! TD*
G04 #@! TO.C,U85*
X232500000Y-100900000D03*
X232500000Y-104100000D03*
X237500000Y-100900000D03*
X237500000Y-104100000D03*
G04 #@! TD*
G04 #@! TO.C,U86*
X247500000Y-104100000D03*
X247500000Y-100900000D03*
X242500000Y-104100000D03*
X242500000Y-100900000D03*
G04 #@! TD*
M02*
