G04 #@! TF.GenerationSoftware,KiCad,Pcbnew,(5.0.0)*
G04 #@! TF.CreationDate,2020-05-21T20:29:27-04:00*
G04 #@! TF.ProjectId,WS2812 ClockDIY,57533238313220436C6F636B4449592E,rev?*
G04 #@! TF.SameCoordinates,Original*
G04 #@! TF.FileFunction,Copper,L1,Top,Signal*
G04 #@! TF.FilePolarity,Positive*
%FSLAX46Y46*%
G04 Gerber Fmt 4.6, Leading zero omitted, Abs format (unit mm)*
G04 Created by KiCad (PCBNEW (5.0.0)) date 05/21/20 20:29:27*
%MOMM*%
%LPD*%
G01*
G04 APERTURE LIST*
G04 #@! TA.AperFunction,SMDPad,CuDef*
%ADD10R,1.600000X1.000000*%
G04 #@! TD*
G04 #@! TA.AperFunction,SMDPad,CuDef*
%ADD11R,1.500000X1.250000*%
G04 #@! TD*
G04 #@! TA.AperFunction,SMDPad,CuDef*
%ADD12R,4.000000X1.600000*%
G04 #@! TD*
G04 #@! TA.AperFunction,SMDPad,CuDef*
%ADD13O,4.000000X1.600000*%
G04 #@! TD*
G04 #@! TA.AperFunction,SMDPad,CuDef*
%ADD14R,0.700000X1.300000*%
G04 #@! TD*
G04 #@! TA.AperFunction,ComponentPad*
%ADD15C,2.000000*%
G04 #@! TD*
G04 #@! TA.AperFunction,SMDPad,CuDef*
%ADD16R,1.000000X1.600000*%
G04 #@! TD*
G04 #@! TA.AperFunction,SMDPad,CuDef*
%ADD17R,2.500000X1.425000*%
G04 #@! TD*
G04 #@! TA.AperFunction,SMDPad,CuDef*
%ADD18R,0.700000X1.825000*%
G04 #@! TD*
G04 #@! TA.AperFunction,ComponentPad*
%ADD19O,3.150000X1.300000*%
G04 #@! TD*
G04 #@! TA.AperFunction,ComponentPad*
%ADD20R,1.400000X2.000000*%
G04 #@! TD*
G04 #@! TA.AperFunction,SMDPad,CuDef*
%ADD21R,1.750000X0.400000*%
G04 #@! TD*
G04 #@! TA.AperFunction,ViaPad*
%ADD22C,0.800000*%
G04 #@! TD*
G04 #@! TA.AperFunction,Conductor*
%ADD23C,0.900000*%
G04 #@! TD*
G04 #@! TA.AperFunction,Conductor*
%ADD24C,1.500000*%
G04 #@! TD*
G04 #@! TA.AperFunction,Conductor*
%ADD25C,0.254000*%
G04 #@! TD*
G04 #@! TA.AperFunction,Conductor*
%ADD26C,1.000000*%
G04 #@! TD*
G04 #@! TA.AperFunction,NonConductor*
%ADD27C,1.500000*%
G04 #@! TD*
G04 APERTURE END LIST*
D10*
G04 #@! TO.P,U84,1*
G04 #@! TO.N,+5V*
X227500000Y-104100000D03*
G04 #@! TO.P,U84,2*
G04 #@! TO.N,Net-(U84-Pad2)*
X227500000Y-100900000D03*
G04 #@! TO.P,U84,4*
G04 #@! TO.N,Net-(U83-Pad2)*
X222500000Y-104100000D03*
G04 #@! TO.P,U84,3*
G04 #@! TO.N,GND*
X222500000Y-100900000D03*
G04 #@! TD*
D11*
G04 #@! TO.P,C3,2*
G04 #@! TO.N,GND*
X45500000Y-95000000D03*
G04 #@! TO.P,C3,1*
G04 #@! TO.N,+5V*
X43000000Y-95000000D03*
G04 #@! TD*
G04 #@! TO.P,C4,1*
G04 #@! TO.N,+5V*
X163391001Y-49316001D03*
G04 #@! TO.P,C4,2*
G04 #@! TO.N,GND*
X165891001Y-49316001D03*
G04 #@! TD*
G04 #@! TO.P,C5,2*
G04 #@! TO.N,GND*
X223950000Y-95200000D03*
G04 #@! TO.P,C5,1*
G04 #@! TO.N,+5V*
X221450000Y-95200000D03*
G04 #@! TD*
G04 #@! TO.P,C6,1*
G04 #@! TO.N,+5V*
X167500000Y-94500000D03*
G04 #@! TO.P,C6,2*
G04 #@! TO.N,GND*
X170000000Y-94500000D03*
G04 #@! TD*
G04 #@! TO.P,C7,2*
G04 #@! TO.N,GND*
X99500000Y-94500000D03*
G04 #@! TO.P,C7,1*
G04 #@! TO.N,+5V*
X97000000Y-94500000D03*
G04 #@! TD*
D12*
G04 #@! TO.P,MCU1,1*
G04 #@! TO.N,RST*
X163000000Y-32000000D03*
D13*
G04 #@! TO.P,MCU1,5*
G04 #@! TO.N,N/C*
X174620000Y-39620000D03*
G04 #@! TO.P,MCU1,2*
X163000000Y-34540000D03*
G04 #@! TO.P,MCU1,6*
G04 #@! TO.N,DIN*
X174620000Y-37080000D03*
G04 #@! TO.P,MCU1,3*
G04 #@! TO.N,N/C*
X163000000Y-37080000D03*
G04 #@! TO.P,MCU1,7*
G04 #@! TO.N,BTN*
X174620000Y-34540000D03*
G04 #@! TO.P,MCU1,4*
G04 #@! TO.N,GND*
X163000000Y-39620000D03*
G04 #@! TO.P,MCU1,8*
G04 #@! TO.N,+5V*
X174620000Y-32000000D03*
G04 #@! TD*
D14*
G04 #@! TO.P,R1,2*
G04 #@! TO.N,RST*
X169441001Y-49346001D03*
G04 #@! TO.P,R1,1*
G04 #@! TO.N,+5V*
X167541001Y-49346001D03*
G04 #@! TD*
D15*
G04 #@! TO.P,SW1,1*
G04 #@! TO.N,BTN*
X152500000Y-40500000D03*
G04 #@! TO.P,SW1,2*
G04 #@! TO.N,GND*
X152500000Y-45000000D03*
G04 #@! TO.P,SW1,1*
G04 #@! TO.N,BTN*
X146000000Y-40500000D03*
G04 #@! TO.P,SW1,2*
G04 #@! TO.N,GND*
X146000000Y-45000000D03*
G04 #@! TD*
D16*
G04 #@! TO.P,U1,3*
G04 #@! TO.N,GND*
X33400000Y-132500000D03*
G04 #@! TO.P,U1,4*
G04 #@! TO.N,DIN*
X36600000Y-132500000D03*
G04 #@! TO.P,U1,2*
G04 #@! TO.N,Net-(U1-Pad2)*
X33400000Y-127500000D03*
G04 #@! TO.P,U1,1*
G04 #@! TO.N,+5V*
X36600000Y-127500000D03*
G04 #@! TD*
G04 #@! TO.P,U2,1*
G04 #@! TO.N,+5V*
X36600000Y-117500000D03*
G04 #@! TO.P,U2,2*
G04 #@! TO.N,Net-(U2-Pad2)*
X33400000Y-117500000D03*
G04 #@! TO.P,U2,4*
G04 #@! TO.N,Net-(U1-Pad2)*
X36600000Y-122500000D03*
G04 #@! TO.P,U2,3*
G04 #@! TO.N,GND*
X33400000Y-122500000D03*
G04 #@! TD*
G04 #@! TO.P,U3,1*
G04 #@! TO.N,+5V*
X36600000Y-107500000D03*
G04 #@! TO.P,U3,2*
G04 #@! TO.N,Net-(U3-Pad2)*
X33400000Y-107500000D03*
G04 #@! TO.P,U3,4*
G04 #@! TO.N,Net-(U2-Pad2)*
X36600000Y-112500000D03*
G04 #@! TO.P,U3,3*
G04 #@! TO.N,GND*
X33400000Y-112500000D03*
G04 #@! TD*
G04 #@! TO.P,U4,3*
G04 #@! TO.N,GND*
X33400000Y-97500000D03*
G04 #@! TO.P,U4,4*
G04 #@! TO.N,Net-(U3-Pad2)*
X36600000Y-97500000D03*
G04 #@! TO.P,U4,2*
G04 #@! TO.N,Net-(U4-Pad2)*
X33400000Y-92500000D03*
G04 #@! TO.P,U4,1*
G04 #@! TO.N,+5V*
X36600000Y-92500000D03*
G04 #@! TD*
G04 #@! TO.P,U5,1*
G04 #@! TO.N,+5V*
X36600000Y-82500000D03*
G04 #@! TO.P,U5,2*
G04 #@! TO.N,Net-(U5-Pad2)*
X33400000Y-82500000D03*
G04 #@! TO.P,U5,4*
G04 #@! TO.N,Net-(U4-Pad2)*
X36600000Y-87500000D03*
G04 #@! TO.P,U5,3*
G04 #@! TO.N,GND*
X33400000Y-87500000D03*
G04 #@! TD*
G04 #@! TO.P,U6,3*
G04 #@! TO.N,GND*
X33400000Y-77500000D03*
G04 #@! TO.P,U6,4*
G04 #@! TO.N,Net-(U5-Pad2)*
X36600000Y-77500000D03*
G04 #@! TO.P,U6,2*
G04 #@! TO.N,Net-(U6-Pad2)*
X33400000Y-72500000D03*
G04 #@! TO.P,U6,1*
G04 #@! TO.N,+5V*
X36600000Y-72500000D03*
G04 #@! TD*
D10*
G04 #@! TO.P,U7,1*
G04 #@! TO.N,+5V*
X47500000Y-69100000D03*
G04 #@! TO.P,U7,2*
G04 #@! TO.N,Net-(U7-Pad2)*
X47500000Y-65900000D03*
G04 #@! TO.P,U7,4*
G04 #@! TO.N,Net-(U6-Pad2)*
X42500000Y-69100000D03*
G04 #@! TO.P,U7,3*
G04 #@! TO.N,GND*
X42500000Y-65900000D03*
G04 #@! TD*
G04 #@! TO.P,U8,3*
G04 #@! TO.N,GND*
X52500000Y-65900000D03*
G04 #@! TO.P,U8,4*
G04 #@! TO.N,Net-(U7-Pad2)*
X52500000Y-69100000D03*
G04 #@! TO.P,U8,2*
G04 #@! TO.N,Net-(U8-Pad2)*
X57500000Y-65900000D03*
G04 #@! TO.P,U8,1*
G04 #@! TO.N,+5V*
X57500000Y-69100000D03*
G04 #@! TD*
G04 #@! TO.P,U9,1*
G04 #@! TO.N,+5V*
X67500000Y-69100000D03*
G04 #@! TO.P,U9,2*
G04 #@! TO.N,Net-(U10-Pad4)*
X67500000Y-65900000D03*
G04 #@! TO.P,U9,4*
G04 #@! TO.N,Net-(U8-Pad2)*
X62500000Y-69100000D03*
G04 #@! TO.P,U9,3*
G04 #@! TO.N,GND*
X62500000Y-65900000D03*
G04 #@! TD*
D16*
G04 #@! TO.P,U10,3*
G04 #@! TO.N,GND*
X76600000Y-72500000D03*
G04 #@! TO.P,U10,4*
G04 #@! TO.N,Net-(U10-Pad4)*
X73400000Y-72500000D03*
G04 #@! TO.P,U10,2*
G04 #@! TO.N,Net-(U10-Pad2)*
X76600000Y-77500000D03*
G04 #@! TO.P,U10,1*
G04 #@! TO.N,+5V*
X73400000Y-77500000D03*
G04 #@! TD*
G04 #@! TO.P,U11,3*
G04 #@! TO.N,GND*
X76600000Y-82500000D03*
G04 #@! TO.P,U11,4*
G04 #@! TO.N,Net-(U10-Pad2)*
X73400000Y-82500000D03*
G04 #@! TO.P,U11,2*
G04 #@! TO.N,Net-(U11-Pad2)*
X76600000Y-87500000D03*
G04 #@! TO.P,U11,1*
G04 #@! TO.N,+5V*
X73400000Y-87500000D03*
G04 #@! TD*
G04 #@! TO.P,U12,1*
G04 #@! TO.N,+5V*
X73400000Y-97500000D03*
G04 #@! TO.P,U12,2*
G04 #@! TO.N,Net-(U12-Pad2)*
X76600000Y-97500000D03*
G04 #@! TO.P,U12,4*
G04 #@! TO.N,Net-(U11-Pad2)*
X73400000Y-92500000D03*
G04 #@! TO.P,U12,3*
G04 #@! TO.N,GND*
X76600000Y-92500000D03*
G04 #@! TD*
G04 #@! TO.P,U13,3*
G04 #@! TO.N,GND*
X76600000Y-107500000D03*
G04 #@! TO.P,U13,4*
G04 #@! TO.N,Net-(U12-Pad2)*
X73400000Y-107500000D03*
G04 #@! TO.P,U13,2*
G04 #@! TO.N,Net-(U13-Pad2)*
X76600000Y-112500000D03*
G04 #@! TO.P,U13,1*
G04 #@! TO.N,+5V*
X73400000Y-112500000D03*
G04 #@! TD*
G04 #@! TO.P,U14,1*
G04 #@! TO.N,+5V*
X73400000Y-122500000D03*
G04 #@! TO.P,U14,2*
G04 #@! TO.N,Net-(U14-Pad2)*
X76600000Y-122500000D03*
G04 #@! TO.P,U14,4*
G04 #@! TO.N,Net-(U13-Pad2)*
X73400000Y-117500000D03*
G04 #@! TO.P,U14,3*
G04 #@! TO.N,GND*
X76600000Y-117500000D03*
G04 #@! TD*
G04 #@! TO.P,U15,3*
G04 #@! TO.N,GND*
X76600000Y-127500000D03*
G04 #@! TO.P,U15,4*
G04 #@! TO.N,Net-(U14-Pad2)*
X73400000Y-127500000D03*
G04 #@! TO.P,U15,2*
G04 #@! TO.N,Net-(U15-Pad2)*
X76600000Y-132500000D03*
G04 #@! TO.P,U15,1*
G04 #@! TO.N,+5V*
X73400000Y-132500000D03*
G04 #@! TD*
D10*
G04 #@! TO.P,U16,1*
G04 #@! TO.N,+5V*
X62500000Y-135900000D03*
G04 #@! TO.P,U16,2*
G04 #@! TO.N,Net-(U16-Pad2)*
X62500000Y-139100000D03*
G04 #@! TO.P,U16,4*
G04 #@! TO.N,Net-(U15-Pad2)*
X67500000Y-135900000D03*
G04 #@! TO.P,U16,3*
G04 #@! TO.N,GND*
X67500000Y-139100000D03*
G04 #@! TD*
G04 #@! TO.P,U17,3*
G04 #@! TO.N,GND*
X57500000Y-139100000D03*
G04 #@! TO.P,U17,4*
G04 #@! TO.N,Net-(U16-Pad2)*
X57500000Y-135900000D03*
G04 #@! TO.P,U17,2*
G04 #@! TO.N,Net-(U17-Pad2)*
X52500000Y-139100000D03*
G04 #@! TO.P,U17,1*
G04 #@! TO.N,+5V*
X52500000Y-135900000D03*
G04 #@! TD*
G04 #@! TO.P,U18,1*
G04 #@! TO.N,+5V*
X42500000Y-135900000D03*
G04 #@! TO.P,U18,2*
G04 #@! TO.N,Net-(U18-Pad2)*
X42500000Y-139100000D03*
G04 #@! TO.P,U18,4*
G04 #@! TO.N,Net-(U17-Pad2)*
X47500000Y-135900000D03*
G04 #@! TO.P,U18,3*
G04 #@! TO.N,GND*
X47500000Y-139100000D03*
G04 #@! TD*
G04 #@! TO.P,U19,3*
G04 #@! TO.N,GND*
X42500000Y-100900000D03*
G04 #@! TO.P,U19,4*
G04 #@! TO.N,Net-(U18-Pad2)*
X42500000Y-104100000D03*
G04 #@! TO.P,U19,2*
G04 #@! TO.N,Net-(U19-Pad2)*
X47500000Y-100900000D03*
G04 #@! TO.P,U19,1*
G04 #@! TO.N,+5V*
X47500000Y-104100000D03*
G04 #@! TD*
G04 #@! TO.P,U20,1*
G04 #@! TO.N,+5V*
X57500000Y-104100000D03*
G04 #@! TO.P,U20,2*
G04 #@! TO.N,Net-(U20-Pad2)*
X57500000Y-100900000D03*
G04 #@! TO.P,U20,4*
G04 #@! TO.N,Net-(U19-Pad2)*
X52500000Y-104100000D03*
G04 #@! TO.P,U20,3*
G04 #@! TO.N,GND*
X52500000Y-100900000D03*
G04 #@! TD*
G04 #@! TO.P,U21,1*
G04 #@! TO.N,+5V*
X67500000Y-104100000D03*
G04 #@! TO.P,U21,2*
G04 #@! TO.N,Net-(U21-Pad2)*
X67500000Y-100900000D03*
G04 #@! TO.P,U21,4*
G04 #@! TO.N,Net-(U20-Pad2)*
X62500000Y-104100000D03*
G04 #@! TO.P,U21,3*
G04 #@! TO.N,GND*
X62500000Y-100900000D03*
G04 #@! TD*
D16*
G04 #@! TO.P,U22,3*
G04 #@! TO.N,GND*
X88400000Y-132500000D03*
G04 #@! TO.P,U22,4*
G04 #@! TO.N,Net-(U21-Pad2)*
X91600000Y-132500000D03*
G04 #@! TO.P,U22,2*
G04 #@! TO.N,Net-(U22-Pad2)*
X88400000Y-127500000D03*
G04 #@! TO.P,U22,1*
G04 #@! TO.N,+5V*
X91600000Y-127500000D03*
G04 #@! TD*
G04 #@! TO.P,U23,1*
G04 #@! TO.N,+5V*
X91600000Y-117500000D03*
G04 #@! TO.P,U23,2*
G04 #@! TO.N,Net-(U23-Pad2)*
X88400000Y-117500000D03*
G04 #@! TO.P,U23,4*
G04 #@! TO.N,Net-(U22-Pad2)*
X91600000Y-122500000D03*
G04 #@! TO.P,U23,3*
G04 #@! TO.N,GND*
X88400000Y-122500000D03*
G04 #@! TD*
G04 #@! TO.P,U24,3*
G04 #@! TO.N,GND*
X88400000Y-112500000D03*
G04 #@! TO.P,U24,4*
G04 #@! TO.N,Net-(U23-Pad2)*
X91600000Y-112500000D03*
G04 #@! TO.P,U24,2*
G04 #@! TO.N,Net-(U24-Pad2)*
X88400000Y-107500000D03*
G04 #@! TO.P,U24,1*
G04 #@! TO.N,+5V*
X91600000Y-107500000D03*
G04 #@! TD*
G04 #@! TO.P,U25,1*
G04 #@! TO.N,+5V*
X91600000Y-92500000D03*
G04 #@! TO.P,U25,2*
G04 #@! TO.N,Net-(U25-Pad2)*
X88400000Y-92500000D03*
G04 #@! TO.P,U25,4*
G04 #@! TO.N,Net-(U24-Pad2)*
X91600000Y-97500000D03*
G04 #@! TO.P,U25,3*
G04 #@! TO.N,GND*
X88400000Y-97500000D03*
G04 #@! TD*
G04 #@! TO.P,U26,3*
G04 #@! TO.N,GND*
X88400000Y-87500000D03*
G04 #@! TO.P,U26,4*
G04 #@! TO.N,Net-(U25-Pad2)*
X91600000Y-87500000D03*
G04 #@! TO.P,U26,2*
G04 #@! TO.N,Net-(U26-Pad2)*
X88400000Y-82500000D03*
G04 #@! TO.P,U26,1*
G04 #@! TO.N,+5V*
X91600000Y-82500000D03*
G04 #@! TD*
G04 #@! TO.P,U27,1*
G04 #@! TO.N,+5V*
X91600000Y-72500000D03*
G04 #@! TO.P,U27,2*
G04 #@! TO.N,Net-(U27-Pad2)*
X88400000Y-72500000D03*
G04 #@! TO.P,U27,4*
G04 #@! TO.N,Net-(U26-Pad2)*
X91600000Y-77500000D03*
G04 #@! TO.P,U27,3*
G04 #@! TO.N,GND*
X88400000Y-77500000D03*
G04 #@! TD*
D10*
G04 #@! TO.P,U28,3*
G04 #@! TO.N,GND*
X97500000Y-65900000D03*
G04 #@! TO.P,U28,4*
G04 #@! TO.N,Net-(U27-Pad2)*
X97500000Y-69100000D03*
G04 #@! TO.P,U28,2*
G04 #@! TO.N,Net-(U28-Pad2)*
X102500000Y-65900000D03*
G04 #@! TO.P,U28,1*
G04 #@! TO.N,+5V*
X102500000Y-69100000D03*
G04 #@! TD*
G04 #@! TO.P,U29,1*
G04 #@! TO.N,+5V*
X112500000Y-69100000D03*
G04 #@! TO.P,U29,2*
G04 #@! TO.N,Net-(U29-Pad2)*
X112500000Y-65900000D03*
G04 #@! TO.P,U29,4*
G04 #@! TO.N,Net-(U28-Pad2)*
X107500000Y-69100000D03*
G04 #@! TO.P,U29,3*
G04 #@! TO.N,GND*
X107500000Y-65900000D03*
G04 #@! TD*
G04 #@! TO.P,U30,3*
G04 #@! TO.N,GND*
X117500000Y-65900000D03*
G04 #@! TO.P,U30,4*
G04 #@! TO.N,Net-(U29-Pad2)*
X117500000Y-69100000D03*
G04 #@! TO.P,U30,2*
G04 #@! TO.N,Net-(U30-Pad2)*
X122500000Y-65900000D03*
G04 #@! TO.P,U30,1*
G04 #@! TO.N,+5V*
X122500000Y-69100000D03*
G04 #@! TD*
D16*
G04 #@! TO.P,U31,1*
G04 #@! TO.N,+5V*
X128400000Y-77500000D03*
G04 #@! TO.P,U31,2*
G04 #@! TO.N,Net-(U31-Pad2)*
X131600000Y-77500000D03*
G04 #@! TO.P,U31,4*
G04 #@! TO.N,Net-(U30-Pad2)*
X128400000Y-72500000D03*
G04 #@! TO.P,U31,3*
G04 #@! TO.N,GND*
X131600000Y-72500000D03*
G04 #@! TD*
G04 #@! TO.P,U32,3*
G04 #@! TO.N,GND*
X131600000Y-82500000D03*
G04 #@! TO.P,U32,4*
G04 #@! TO.N,Net-(U31-Pad2)*
X128400000Y-82500000D03*
G04 #@! TO.P,U32,2*
G04 #@! TO.N,Net-(U32-Pad2)*
X131600000Y-87500000D03*
G04 #@! TO.P,U32,1*
G04 #@! TO.N,+5V*
X128400000Y-87500000D03*
G04 #@! TD*
G04 #@! TO.P,U33,1*
G04 #@! TO.N,+5V*
X128400000Y-97500000D03*
G04 #@! TO.P,U33,2*
G04 #@! TO.N,Net-(U33-Pad2)*
X131600000Y-97500000D03*
G04 #@! TO.P,U33,4*
G04 #@! TO.N,Net-(U32-Pad2)*
X128400000Y-92500000D03*
G04 #@! TO.P,U33,3*
G04 #@! TO.N,GND*
X131600000Y-92500000D03*
G04 #@! TD*
G04 #@! TO.P,U34,3*
G04 #@! TO.N,GND*
X131600000Y-107500000D03*
G04 #@! TO.P,U34,4*
G04 #@! TO.N,Net-(U33-Pad2)*
X128400000Y-107500000D03*
G04 #@! TO.P,U34,2*
G04 #@! TO.N,Net-(U34-Pad2)*
X131600000Y-112500000D03*
G04 #@! TO.P,U34,1*
G04 #@! TO.N,+5V*
X128400000Y-112500000D03*
G04 #@! TD*
G04 #@! TO.P,U35,1*
G04 #@! TO.N,+5V*
X128400000Y-122500000D03*
G04 #@! TO.P,U35,2*
G04 #@! TO.N,Net-(U35-Pad2)*
X131600000Y-122500000D03*
G04 #@! TO.P,U35,4*
G04 #@! TO.N,Net-(U34-Pad2)*
X128400000Y-117500000D03*
G04 #@! TO.P,U35,3*
G04 #@! TO.N,GND*
X131600000Y-117500000D03*
G04 #@! TD*
G04 #@! TO.P,U36,3*
G04 #@! TO.N,GND*
X131600000Y-127500000D03*
G04 #@! TO.P,U36,4*
G04 #@! TO.N,Net-(U35-Pad2)*
X128400000Y-127500000D03*
G04 #@! TO.P,U36,2*
G04 #@! TO.N,Net-(U36-Pad2)*
X131600000Y-132500000D03*
G04 #@! TO.P,U36,1*
G04 #@! TO.N,+5V*
X128400000Y-132500000D03*
G04 #@! TD*
D10*
G04 #@! TO.P,U37,1*
G04 #@! TO.N,+5V*
X117500000Y-135900000D03*
G04 #@! TO.P,U37,2*
G04 #@! TO.N,Net-(U37-Pad2)*
X117500000Y-139100000D03*
G04 #@! TO.P,U37,4*
G04 #@! TO.N,Net-(U36-Pad2)*
X122500000Y-135900000D03*
G04 #@! TO.P,U37,3*
G04 #@! TO.N,GND*
X122500000Y-139100000D03*
G04 #@! TD*
G04 #@! TO.P,U38,3*
G04 #@! TO.N,GND*
X112500000Y-139100000D03*
G04 #@! TO.P,U38,4*
G04 #@! TO.N,Net-(U37-Pad2)*
X112500000Y-135900000D03*
G04 #@! TO.P,U38,2*
G04 #@! TO.N,Net-(U38-Pad2)*
X107500000Y-139100000D03*
G04 #@! TO.P,U38,1*
G04 #@! TO.N,+5V*
X107500000Y-135900000D03*
G04 #@! TD*
G04 #@! TO.P,U39,1*
G04 #@! TO.N,+5V*
X97500000Y-135900000D03*
G04 #@! TO.P,U39,2*
G04 #@! TO.N,Net-(U39-Pad2)*
X97500000Y-139100000D03*
G04 #@! TO.P,U39,4*
G04 #@! TO.N,Net-(U38-Pad2)*
X102500000Y-135900000D03*
G04 #@! TO.P,U39,3*
G04 #@! TO.N,GND*
X102500000Y-139100000D03*
G04 #@! TD*
G04 #@! TO.P,U40,3*
G04 #@! TO.N,GND*
X97500000Y-100900000D03*
G04 #@! TO.P,U40,4*
G04 #@! TO.N,Net-(U39-Pad2)*
X97500000Y-104100000D03*
G04 #@! TO.P,U40,2*
G04 #@! TO.N,Net-(U40-Pad2)*
X102500000Y-100900000D03*
G04 #@! TO.P,U40,1*
G04 #@! TO.N,+5V*
X102500000Y-104100000D03*
G04 #@! TD*
D17*
G04 #@! TO.P,USB1,SH*
G04 #@! TO.N,N/C*
X116000000Y-32000000D03*
D18*
X114040000Y-35990000D03*
D19*
X115270000Y-35725000D03*
D20*
X112720000Y-36425000D03*
D21*
G04 #@! TO.P,USB1,1*
G04 #@! TO.N,+5V*
X112925000Y-34300000D03*
D20*
G04 #@! TO.P,USB1,SH*
G04 #@! TO.N,N/C*
X112720000Y-29575000D03*
D21*
G04 #@! TO.P,USB1,2*
X112925000Y-33650000D03*
G04 #@! TO.P,USB1,3*
X112925000Y-33000000D03*
G04 #@! TO.P,USB1,4*
X112925000Y-32350000D03*
G04 #@! TO.P,USB1,5*
G04 #@! TO.N,GND*
X112925000Y-31700000D03*
D19*
G04 #@! TO.P,USB1,SH*
G04 #@! TO.N,N/C*
X115270000Y-30275000D03*
D18*
X114040000Y-30010000D03*
D17*
X116000000Y-34000000D03*
G04 #@! TD*
D10*
G04 #@! TO.P,U41,1*
G04 #@! TO.N,+5V*
X112500000Y-104100000D03*
G04 #@! TO.P,U41,2*
G04 #@! TO.N,Net-(U41-Pad2)*
X112500000Y-100900000D03*
G04 #@! TO.P,U41,4*
G04 #@! TO.N,Net-(U40-Pad2)*
X107500000Y-104100000D03*
G04 #@! TO.P,U41,3*
G04 #@! TO.N,GND*
X107500000Y-100900000D03*
G04 #@! TD*
G04 #@! TO.P,U42,3*
G04 #@! TO.N,GND*
X117500000Y-100900000D03*
G04 #@! TO.P,U42,4*
G04 #@! TO.N,Net-(U41-Pad2)*
X117500000Y-104100000D03*
G04 #@! TO.P,U42,2*
G04 #@! TO.N,Net-(U42-Pad2)*
X122500000Y-100900000D03*
G04 #@! TO.P,U42,1*
G04 #@! TO.N,+5V*
X122500000Y-104100000D03*
G04 #@! TD*
D16*
G04 #@! TO.P,U43,1*
G04 #@! TO.N,+5V*
X146600000Y-107500000D03*
G04 #@! TO.P,U43,2*
G04 #@! TO.N,Net-(U43-Pad2)*
X143400000Y-107500000D03*
G04 #@! TO.P,U43,4*
G04 #@! TO.N,Net-(U42-Pad2)*
X146600000Y-112500000D03*
G04 #@! TO.P,U43,3*
G04 #@! TO.N,GND*
X143400000Y-112500000D03*
G04 #@! TD*
G04 #@! TO.P,U44,3*
G04 #@! TO.N,GND*
X143400000Y-97500000D03*
G04 #@! TO.P,U44,4*
G04 #@! TO.N,Net-(U43-Pad2)*
X146600000Y-97500000D03*
G04 #@! TO.P,U44,2*
G04 #@! TO.N,Net-(U44-Pad2)*
X143400000Y-92500000D03*
G04 #@! TO.P,U44,1*
G04 #@! TO.N,+5V*
X146600000Y-92500000D03*
G04 #@! TD*
G04 #@! TO.P,U45,1*
G04 #@! TO.N,+5V*
X161600000Y-127500000D03*
G04 #@! TO.P,U45,2*
G04 #@! TO.N,Net-(U45-Pad2)*
X158400000Y-127500000D03*
G04 #@! TO.P,U45,4*
G04 #@! TO.N,Net-(U44-Pad2)*
X161600000Y-132500000D03*
G04 #@! TO.P,U45,3*
G04 #@! TO.N,GND*
X158400000Y-132500000D03*
G04 #@! TD*
G04 #@! TO.P,U46,3*
G04 #@! TO.N,GND*
X158400000Y-122500000D03*
G04 #@! TO.P,U46,4*
G04 #@! TO.N,Net-(U45-Pad2)*
X161600000Y-122500000D03*
G04 #@! TO.P,U46,2*
G04 #@! TO.N,Net-(U46-Pad2)*
X158400000Y-117500000D03*
G04 #@! TO.P,U46,1*
G04 #@! TO.N,+5V*
X161600000Y-117500000D03*
G04 #@! TD*
G04 #@! TO.P,U47,1*
G04 #@! TO.N,+5V*
X161600000Y-107500000D03*
G04 #@! TO.P,U47,2*
G04 #@! TO.N,Net-(U47-Pad2)*
X158400000Y-107500000D03*
G04 #@! TO.P,U47,4*
G04 #@! TO.N,Net-(U46-Pad2)*
X161600000Y-112500000D03*
G04 #@! TO.P,U47,3*
G04 #@! TO.N,GND*
X158400000Y-112500000D03*
G04 #@! TD*
G04 #@! TO.P,U48,3*
G04 #@! TO.N,GND*
X158400000Y-97500000D03*
G04 #@! TO.P,U48,4*
G04 #@! TO.N,Net-(U47-Pad2)*
X161600000Y-97500000D03*
G04 #@! TO.P,U48,2*
G04 #@! TO.N,Net-(U48-Pad2)*
X158400000Y-92500000D03*
G04 #@! TO.P,U48,1*
G04 #@! TO.N,+5V*
X161600000Y-92500000D03*
G04 #@! TD*
G04 #@! TO.P,U49,1*
G04 #@! TO.N,+5V*
X161600000Y-82500000D03*
G04 #@! TO.P,U49,2*
G04 #@! TO.N,Net-(U49-Pad2)*
X158400000Y-82500000D03*
G04 #@! TO.P,U49,4*
G04 #@! TO.N,Net-(U48-Pad2)*
X161600000Y-87500000D03*
G04 #@! TO.P,U49,3*
G04 #@! TO.N,GND*
X158400000Y-87500000D03*
G04 #@! TD*
G04 #@! TO.P,U50,3*
G04 #@! TO.N,GND*
X158400000Y-77500000D03*
G04 #@! TO.P,U50,4*
G04 #@! TO.N,Net-(U49-Pad2)*
X161600000Y-77500000D03*
G04 #@! TO.P,U50,2*
G04 #@! TO.N,Net-(U50-Pad2)*
X158400000Y-72500000D03*
G04 #@! TO.P,U50,1*
G04 #@! TO.N,+5V*
X161600000Y-72500000D03*
G04 #@! TD*
D10*
G04 #@! TO.P,U51,1*
G04 #@! TO.N,+5V*
X172500000Y-69100000D03*
G04 #@! TO.P,U51,2*
G04 #@! TO.N,Net-(U51-Pad2)*
X172500000Y-65900000D03*
G04 #@! TO.P,U51,4*
G04 #@! TO.N,Net-(U50-Pad2)*
X167500000Y-69100000D03*
G04 #@! TO.P,U51,3*
G04 #@! TO.N,GND*
X167500000Y-65900000D03*
G04 #@! TD*
G04 #@! TO.P,U52,3*
G04 #@! TO.N,GND*
X177500000Y-65900000D03*
G04 #@! TO.P,U52,4*
G04 #@! TO.N,Net-(U51-Pad2)*
X177500000Y-69100000D03*
G04 #@! TO.P,U52,2*
G04 #@! TO.N,Net-(U52-Pad2)*
X182500000Y-65900000D03*
G04 #@! TO.P,U52,1*
G04 #@! TO.N,+5V*
X182500000Y-69100000D03*
G04 #@! TD*
G04 #@! TO.P,U53,1*
G04 #@! TO.N,+5V*
X192500000Y-69100000D03*
G04 #@! TO.P,U53,2*
G04 #@! TO.N,Net-(U53-Pad2)*
X192500000Y-65900000D03*
G04 #@! TO.P,U53,4*
G04 #@! TO.N,Net-(U52-Pad2)*
X187500000Y-69100000D03*
G04 #@! TO.P,U53,3*
G04 #@! TO.N,GND*
X187500000Y-65900000D03*
G04 #@! TD*
D16*
G04 #@! TO.P,U54,1*
G04 #@! TO.N,+5V*
X198400000Y-77500000D03*
G04 #@! TO.P,U54,2*
G04 #@! TO.N,Net-(U54-Pad2)*
X201600000Y-77500000D03*
G04 #@! TO.P,U54,4*
G04 #@! TO.N,Net-(U53-Pad2)*
X198400000Y-72500000D03*
G04 #@! TO.P,U54,3*
G04 #@! TO.N,GND*
X201600000Y-72500000D03*
G04 #@! TD*
G04 #@! TO.P,U55,3*
G04 #@! TO.N,GND*
X201600000Y-82500000D03*
G04 #@! TO.P,U55,4*
G04 #@! TO.N,Net-(U54-Pad2)*
X198400000Y-82500000D03*
G04 #@! TO.P,U55,2*
G04 #@! TO.N,Net-(U55-Pad2)*
X201600000Y-87500000D03*
G04 #@! TO.P,U55,1*
G04 #@! TO.N,+5V*
X198400000Y-87500000D03*
G04 #@! TD*
G04 #@! TO.P,U56,1*
G04 #@! TO.N,+5V*
X198400000Y-97500000D03*
G04 #@! TO.P,U56,2*
G04 #@! TO.N,Net-(U56-Pad2)*
X201600000Y-97500000D03*
G04 #@! TO.P,U56,4*
G04 #@! TO.N,Net-(U55-Pad2)*
X198400000Y-92500000D03*
G04 #@! TO.P,U56,3*
G04 #@! TO.N,GND*
X201600000Y-92500000D03*
G04 #@! TD*
G04 #@! TO.P,U57,3*
G04 #@! TO.N,GND*
X201600000Y-107500000D03*
G04 #@! TO.P,U57,4*
G04 #@! TO.N,Net-(U56-Pad2)*
X198400000Y-107500000D03*
G04 #@! TO.P,U57,2*
G04 #@! TO.N,Net-(U57-Pad2)*
X201600000Y-112500000D03*
G04 #@! TO.P,U57,1*
G04 #@! TO.N,+5V*
X198400000Y-112500000D03*
G04 #@! TD*
G04 #@! TO.P,U58,1*
G04 #@! TO.N,+5V*
X198400000Y-122500000D03*
G04 #@! TO.P,U58,2*
G04 #@! TO.N,Net-(U58-Pad2)*
X201600000Y-122500000D03*
G04 #@! TO.P,U58,4*
G04 #@! TO.N,Net-(U57-Pad2)*
X198400000Y-117500000D03*
G04 #@! TO.P,U58,3*
G04 #@! TO.N,GND*
X201600000Y-117500000D03*
G04 #@! TD*
G04 #@! TO.P,U59,1*
G04 #@! TO.N,+5V*
X198400000Y-132500000D03*
G04 #@! TO.P,U59,2*
G04 #@! TO.N,Net-(U59-Pad2)*
X201600000Y-132500000D03*
G04 #@! TO.P,U59,4*
G04 #@! TO.N,Net-(U58-Pad2)*
X198400000Y-127500000D03*
G04 #@! TO.P,U59,3*
G04 #@! TO.N,GND*
X201600000Y-127500000D03*
G04 #@! TD*
D10*
G04 #@! TO.P,U60,3*
G04 #@! TO.N,GND*
X192500000Y-139100000D03*
G04 #@! TO.P,U60,4*
G04 #@! TO.N,Net-(U59-Pad2)*
X192500000Y-135900000D03*
G04 #@! TO.P,U60,2*
G04 #@! TO.N,Net-(U60-Pad2)*
X187500000Y-139100000D03*
G04 #@! TO.P,U60,1*
G04 #@! TO.N,+5V*
X187500000Y-135900000D03*
G04 #@! TD*
G04 #@! TO.P,U61,1*
G04 #@! TO.N,+5V*
X177500000Y-135900000D03*
G04 #@! TO.P,U61,2*
G04 #@! TO.N,Net-(U61-Pad2)*
X177500000Y-139100000D03*
G04 #@! TO.P,U61,4*
G04 #@! TO.N,Net-(U60-Pad2)*
X182500000Y-135900000D03*
G04 #@! TO.P,U61,3*
G04 #@! TO.N,GND*
X182500000Y-139100000D03*
G04 #@! TD*
G04 #@! TO.P,U62,3*
G04 #@! TO.N,GND*
X172500000Y-139100000D03*
G04 #@! TO.P,U62,4*
G04 #@! TO.N,Net-(U61-Pad2)*
X172500000Y-135900000D03*
G04 #@! TO.P,U62,2*
G04 #@! TO.N,Net-(U62-Pad2)*
X167500000Y-139100000D03*
G04 #@! TO.P,U62,1*
G04 #@! TO.N,+5V*
X167500000Y-135900000D03*
G04 #@! TD*
G04 #@! TO.P,U63,1*
G04 #@! TO.N,+5V*
X172500000Y-104100000D03*
G04 #@! TO.P,U63,2*
G04 #@! TO.N,Net-(U63-Pad2)*
X172500000Y-100900000D03*
G04 #@! TO.P,U63,4*
G04 #@! TO.N,Net-(U62-Pad2)*
X167500000Y-104100000D03*
G04 #@! TO.P,U63,3*
G04 #@! TO.N,GND*
X167500000Y-100900000D03*
G04 #@! TD*
G04 #@! TO.P,U64,3*
G04 #@! TO.N,GND*
X177500000Y-100900000D03*
G04 #@! TO.P,U64,4*
G04 #@! TO.N,Net-(U63-Pad2)*
X177500000Y-104100000D03*
G04 #@! TO.P,U64,2*
G04 #@! TO.N,Net-(U64-Pad2)*
X182500000Y-100900000D03*
G04 #@! TO.P,U64,1*
G04 #@! TO.N,+5V*
X182500000Y-104100000D03*
G04 #@! TD*
G04 #@! TO.P,U65,1*
G04 #@! TO.N,+5V*
X192500000Y-104100000D03*
G04 #@! TO.P,U65,2*
G04 #@! TO.N,Net-(U65-Pad2)*
X192500000Y-100900000D03*
G04 #@! TO.P,U65,4*
G04 #@! TO.N,Net-(U64-Pad2)*
X187500000Y-104100000D03*
G04 #@! TO.P,U65,3*
G04 #@! TO.N,GND*
X187500000Y-100900000D03*
G04 #@! TD*
D16*
G04 #@! TO.P,U66,3*
G04 #@! TO.N,GND*
X213400000Y-132500000D03*
G04 #@! TO.P,U66,4*
G04 #@! TO.N,Net-(U65-Pad2)*
X216600000Y-132500000D03*
G04 #@! TO.P,U66,2*
G04 #@! TO.N,Net-(U66-Pad2)*
X213400000Y-127500000D03*
G04 #@! TO.P,U66,1*
G04 #@! TO.N,+5V*
X216600000Y-127500000D03*
G04 #@! TD*
G04 #@! TO.P,U67,1*
G04 #@! TO.N,+5V*
X216600000Y-117500000D03*
G04 #@! TO.P,U67,2*
G04 #@! TO.N,Net-(U67-Pad2)*
X213400000Y-117500000D03*
G04 #@! TO.P,U67,4*
G04 #@! TO.N,Net-(U66-Pad2)*
X216600000Y-122500000D03*
G04 #@! TO.P,U67,3*
G04 #@! TO.N,GND*
X213400000Y-122500000D03*
G04 #@! TD*
G04 #@! TO.P,U68,3*
G04 #@! TO.N,GND*
X213400000Y-112500000D03*
G04 #@! TO.P,U68,4*
G04 #@! TO.N,Net-(U67-Pad2)*
X216600000Y-112500000D03*
G04 #@! TO.P,U68,2*
G04 #@! TO.N,Net-(U68-Pad2)*
X213400000Y-107500000D03*
G04 #@! TO.P,U68,1*
G04 #@! TO.N,+5V*
X216600000Y-107500000D03*
G04 #@! TD*
G04 #@! TO.P,U69,1*
G04 #@! TO.N,+5V*
X216600000Y-92500000D03*
G04 #@! TO.P,U69,2*
G04 #@! TO.N,Net-(U69-Pad2)*
X213400000Y-92500000D03*
G04 #@! TO.P,U69,4*
G04 #@! TO.N,Net-(U68-Pad2)*
X216600000Y-97500000D03*
G04 #@! TO.P,U69,3*
G04 #@! TO.N,GND*
X213400000Y-97500000D03*
G04 #@! TD*
G04 #@! TO.P,U70,1*
G04 #@! TO.N,+5V*
X216600000Y-82500000D03*
G04 #@! TO.P,U70,2*
G04 #@! TO.N,Net-(U70-Pad2)*
X213400000Y-82500000D03*
G04 #@! TO.P,U70,4*
G04 #@! TO.N,Net-(U69-Pad2)*
X216600000Y-87500000D03*
G04 #@! TO.P,U70,3*
G04 #@! TO.N,GND*
X213400000Y-87500000D03*
G04 #@! TD*
G04 #@! TO.P,U71,3*
G04 #@! TO.N,GND*
X213400000Y-77500000D03*
G04 #@! TO.P,U71,4*
G04 #@! TO.N,Net-(U70-Pad2)*
X216600000Y-77500000D03*
G04 #@! TO.P,U71,2*
G04 #@! TO.N,Net-(U71-Pad2)*
X213400000Y-72500000D03*
G04 #@! TO.P,U71,1*
G04 #@! TO.N,+5V*
X216600000Y-72500000D03*
G04 #@! TD*
D10*
G04 #@! TO.P,U72,1*
G04 #@! TO.N,+5V*
X227500000Y-69100000D03*
G04 #@! TO.P,U72,2*
G04 #@! TO.N,Net-(U72-Pad2)*
X227500000Y-65900000D03*
G04 #@! TO.P,U72,4*
G04 #@! TO.N,Net-(U71-Pad2)*
X222500000Y-69100000D03*
G04 #@! TO.P,U72,3*
G04 #@! TO.N,GND*
X222500000Y-65900000D03*
G04 #@! TD*
G04 #@! TO.P,U73,3*
G04 #@! TO.N,GND*
X232500000Y-65900000D03*
G04 #@! TO.P,U73,4*
G04 #@! TO.N,Net-(U72-Pad2)*
X232500000Y-69100000D03*
G04 #@! TO.P,U73,2*
G04 #@! TO.N,Net-(U73-Pad2)*
X237500000Y-65900000D03*
G04 #@! TO.P,U73,1*
G04 #@! TO.N,+5V*
X237500000Y-69100000D03*
G04 #@! TD*
G04 #@! TO.P,U74,1*
G04 #@! TO.N,+5V*
X247500000Y-69100000D03*
G04 #@! TO.P,U74,2*
G04 #@! TO.N,Net-(U74-Pad2)*
X247500000Y-65900000D03*
G04 #@! TO.P,U74,4*
G04 #@! TO.N,Net-(U73-Pad2)*
X242500000Y-69100000D03*
G04 #@! TO.P,U74,3*
G04 #@! TO.N,GND*
X242500000Y-65900000D03*
G04 #@! TD*
D16*
G04 #@! TO.P,U75,3*
G04 #@! TO.N,GND*
X256600000Y-72500000D03*
G04 #@! TO.P,U75,4*
G04 #@! TO.N,Net-(U74-Pad2)*
X253400000Y-72500000D03*
G04 #@! TO.P,U75,2*
G04 #@! TO.N,Net-(U75-Pad2)*
X256600000Y-77500000D03*
G04 #@! TO.P,U75,1*
G04 #@! TO.N,+5V*
X253400000Y-77500000D03*
G04 #@! TD*
G04 #@! TO.P,U76,1*
G04 #@! TO.N,+5V*
X253400000Y-87500000D03*
G04 #@! TO.P,U76,2*
G04 #@! TO.N,Net-(U76-Pad2)*
X256600000Y-87500000D03*
G04 #@! TO.P,U76,4*
G04 #@! TO.N,Net-(U75-Pad2)*
X253400000Y-82500000D03*
G04 #@! TO.P,U76,3*
G04 #@! TO.N,GND*
X256600000Y-82500000D03*
G04 #@! TD*
G04 #@! TO.P,U77,3*
G04 #@! TO.N,GND*
X256600000Y-92500000D03*
G04 #@! TO.P,U77,4*
G04 #@! TO.N,Net-(U76-Pad2)*
X253400000Y-92500000D03*
G04 #@! TO.P,U77,2*
G04 #@! TO.N,Net-(U77-Pad2)*
X256600000Y-97500000D03*
G04 #@! TO.P,U77,1*
G04 #@! TO.N,+5V*
X253400000Y-97500000D03*
G04 #@! TD*
G04 #@! TO.P,U78,1*
G04 #@! TO.N,+5V*
X253400000Y-112500000D03*
G04 #@! TO.P,U78,2*
G04 #@! TO.N,Net-(U78-Pad2)*
X256600000Y-112500000D03*
G04 #@! TO.P,U78,4*
G04 #@! TO.N,Net-(U77-Pad2)*
X253400000Y-107500000D03*
G04 #@! TO.P,U78,3*
G04 #@! TO.N,GND*
X256600000Y-107500000D03*
G04 #@! TD*
G04 #@! TO.P,U79,3*
G04 #@! TO.N,GND*
X256600000Y-117500000D03*
G04 #@! TO.P,U79,4*
G04 #@! TO.N,Net-(U78-Pad2)*
X253400000Y-117500000D03*
G04 #@! TO.P,U79,2*
G04 #@! TO.N,Net-(U79-Pad2)*
X256600000Y-122500000D03*
G04 #@! TO.P,U79,1*
G04 #@! TO.N,+5V*
X253400000Y-122500000D03*
G04 #@! TD*
G04 #@! TO.P,U80,1*
G04 #@! TO.N,+5V*
X253400000Y-132500000D03*
G04 #@! TO.P,U80,2*
G04 #@! TO.N,Net-(U80-Pad2)*
X256600000Y-132500000D03*
G04 #@! TO.P,U80,4*
G04 #@! TO.N,Net-(U79-Pad2)*
X253400000Y-127500000D03*
G04 #@! TO.P,U80,3*
G04 #@! TO.N,GND*
X256600000Y-127500000D03*
G04 #@! TD*
D10*
G04 #@! TO.P,U81,3*
G04 #@! TO.N,GND*
X247500000Y-139100000D03*
G04 #@! TO.P,U81,4*
G04 #@! TO.N,Net-(U80-Pad2)*
X247500000Y-135900000D03*
G04 #@! TO.P,U81,2*
G04 #@! TO.N,Net-(U81-Pad2)*
X242500000Y-139100000D03*
G04 #@! TO.P,U81,1*
G04 #@! TO.N,+5V*
X242500000Y-135900000D03*
G04 #@! TD*
G04 #@! TO.P,U82,1*
G04 #@! TO.N,+5V*
X232500000Y-135900000D03*
G04 #@! TO.P,U82,2*
G04 #@! TO.N,Net-(U82-Pad2)*
X232500000Y-139100000D03*
G04 #@! TO.P,U82,4*
G04 #@! TO.N,Net-(U81-Pad2)*
X237500000Y-135900000D03*
G04 #@! TO.P,U82,3*
G04 #@! TO.N,GND*
X237500000Y-139100000D03*
G04 #@! TD*
G04 #@! TO.P,U83,3*
G04 #@! TO.N,GND*
X227500000Y-139100000D03*
G04 #@! TO.P,U83,4*
G04 #@! TO.N,Net-(U82-Pad2)*
X227500000Y-135900000D03*
G04 #@! TO.P,U83,2*
G04 #@! TO.N,Net-(U83-Pad2)*
X222500000Y-139100000D03*
G04 #@! TO.P,U83,1*
G04 #@! TO.N,+5V*
X222500000Y-135900000D03*
G04 #@! TD*
G04 #@! TO.P,U85,3*
G04 #@! TO.N,GND*
X232500000Y-100900000D03*
G04 #@! TO.P,U85,4*
G04 #@! TO.N,Net-(U84-Pad2)*
X232500000Y-104100000D03*
G04 #@! TO.P,U85,2*
G04 #@! TO.N,Net-(U85-Pad2)*
X237500000Y-100900000D03*
G04 #@! TO.P,U85,1*
G04 #@! TO.N,+5V*
X237500000Y-104100000D03*
G04 #@! TD*
G04 #@! TO.P,U86,1*
G04 #@! TO.N,+5V*
X247500000Y-104100000D03*
G04 #@! TO.P,U86,2*
G04 #@! TO.N,N/C*
X247500000Y-100900000D03*
G04 #@! TO.P,U86,4*
G04 #@! TO.N,Net-(U85-Pad2)*
X242500000Y-104100000D03*
G04 #@! TO.P,U86,3*
G04 #@! TO.N,GND*
X242500000Y-100900000D03*
G04 #@! TD*
D22*
G04 #@! TO.N,GND*
X33800000Y-100600000D03*
X43200000Y-98200000D03*
G04 #@! TO.N,+5V*
X93500000Y-140000000D03*
G04 #@! TO.N,Net-(U21-Pad2)*
X87500000Y-136000000D03*
X82500000Y-136000000D03*
X82500000Y-101500000D03*
G04 #@! TD*
D23*
G04 #@! TO.N,*
X207000000Y-137000000D02*
X207000000Y-97000000D01*
D24*
G04 #@! TO.N,GND*
X62500000Y-98700000D02*
X62500000Y-100900000D01*
X62000000Y-98200000D02*
X62500000Y-98700000D01*
X42500000Y-100900000D02*
X42500000Y-98900000D01*
X42500000Y-98900000D02*
X43200000Y-98200000D01*
X52500000Y-98300000D02*
X52400000Y-98200000D01*
X52500000Y-100900000D02*
X52500000Y-98300000D01*
X52400000Y-98200000D02*
X62000000Y-98200000D01*
X47500000Y-142500000D02*
X47500000Y-139100000D01*
X48000000Y-143000000D02*
X47500000Y-142500000D01*
X80400000Y-140200000D02*
X77600000Y-143000000D01*
X33400000Y-132500000D02*
X30900000Y-132500000D01*
X29800000Y-66200000D02*
X33200000Y-62800000D01*
X30900000Y-132500000D02*
X29800000Y-131400000D01*
X76400000Y-62800000D02*
X80400000Y-66800000D01*
X57800000Y-141400000D02*
X57800000Y-143000000D01*
X57500000Y-141100000D02*
X57800000Y-141400000D01*
X57500000Y-139100000D02*
X57500000Y-141100000D01*
X57800000Y-143000000D02*
X48000000Y-143000000D01*
X67500000Y-142700000D02*
X67800000Y-143000000D01*
X67500000Y-139100000D02*
X67500000Y-142700000D01*
X77600000Y-143000000D02*
X67800000Y-143000000D01*
X67800000Y-143000000D02*
X57800000Y-143000000D01*
X80300000Y-127500000D02*
X80400000Y-127400000D01*
X76600000Y-127500000D02*
X80300000Y-127500000D01*
X78700000Y-117400000D02*
X80400000Y-117400000D01*
X78600000Y-117500000D02*
X78700000Y-117400000D01*
X76600000Y-117500000D02*
X78600000Y-117500000D01*
X80300000Y-107500000D02*
X80400000Y-107400000D01*
X76600000Y-107500000D02*
X80300000Y-107500000D01*
X80400000Y-107400000D02*
X80400000Y-117400000D01*
X62400000Y-63800000D02*
X62400000Y-62800000D01*
X62500000Y-63900000D02*
X62400000Y-63800000D01*
X62500000Y-65900000D02*
X62500000Y-63900000D01*
X62400000Y-62800000D02*
X76400000Y-62800000D01*
X80300000Y-72500000D02*
X80400000Y-72400000D01*
X76600000Y-72500000D02*
X80300000Y-72500000D01*
X80400000Y-66800000D02*
X80400000Y-72400000D01*
X78700000Y-82400000D02*
X80400000Y-82400000D01*
X78600000Y-82500000D02*
X78700000Y-82400000D01*
X76600000Y-82500000D02*
X78600000Y-82500000D01*
X80400000Y-72400000D02*
X80400000Y-82400000D01*
X80300000Y-92500000D02*
X80400000Y-92400000D01*
X76600000Y-92500000D02*
X80300000Y-92500000D01*
X80400000Y-82400000D02*
X80400000Y-92400000D01*
X80400000Y-92400000D02*
X80400000Y-107400000D01*
X52600000Y-63800000D02*
X52600000Y-62800000D01*
X52500000Y-63900000D02*
X52600000Y-63800000D01*
X52500000Y-65900000D02*
X52500000Y-63900000D01*
X52600000Y-62800000D02*
X62400000Y-62800000D01*
X42200000Y-63600000D02*
X42200000Y-62800000D01*
X42500000Y-63900000D02*
X42200000Y-63600000D01*
X42500000Y-65900000D02*
X42500000Y-63900000D01*
X33200000Y-62800000D02*
X42200000Y-62800000D01*
X42200000Y-62800000D02*
X52600000Y-62800000D01*
X31300000Y-77400000D02*
X29800000Y-77400000D01*
X31400000Y-77500000D02*
X31300000Y-77400000D01*
X33400000Y-77500000D02*
X31400000Y-77500000D01*
X29800000Y-77400000D02*
X29800000Y-66200000D01*
X29900000Y-87500000D02*
X29800000Y-87400000D01*
X33400000Y-87500000D02*
X29900000Y-87500000D01*
X29800000Y-87400000D02*
X29800000Y-77400000D01*
X31300000Y-97600000D02*
X29800000Y-97600000D01*
X31400000Y-97500000D02*
X31300000Y-97600000D01*
X33400000Y-97500000D02*
X31400000Y-97500000D01*
X29800000Y-97600000D02*
X29800000Y-87400000D01*
X29900000Y-112500000D02*
X29800000Y-112600000D01*
X33400000Y-112500000D02*
X29900000Y-112500000D01*
X29800000Y-101600000D02*
X32800000Y-101600000D01*
X29800000Y-101600000D02*
X29800000Y-97600000D01*
X29800000Y-112600000D02*
X29800000Y-101600000D01*
X32800000Y-101600000D02*
X33800000Y-100600000D01*
X29900000Y-122500000D02*
X29800000Y-122400000D01*
X33400000Y-122500000D02*
X29900000Y-122500000D01*
X29800000Y-131400000D02*
X29800000Y-122400000D01*
X29800000Y-122400000D02*
X29800000Y-112600000D01*
X80400000Y-117400000D02*
X80400000Y-127400000D01*
X80400000Y-127400000D02*
X80400000Y-140200000D01*
X136000000Y-138500000D02*
X131500000Y-143000000D01*
X88400000Y-132500000D02*
X86400000Y-132500000D01*
X86400000Y-132500000D02*
X85000000Y-131100000D01*
X85000000Y-66500000D02*
X88500000Y-63000000D01*
X133000000Y-63000000D02*
X136000000Y-66000000D01*
X88300000Y-62800000D02*
X88500000Y-63000000D01*
X86400000Y-122500000D02*
X85000000Y-122500000D01*
X88400000Y-122500000D02*
X86400000Y-122500000D01*
X85000000Y-131100000D02*
X85000000Y-122500000D01*
X88400000Y-112500000D02*
X85000000Y-112500000D01*
X85000000Y-122500000D02*
X85000000Y-112500000D01*
X85900000Y-97000000D02*
X85000000Y-97000000D01*
X86400000Y-97500000D02*
X85900000Y-97000000D01*
X88400000Y-97500000D02*
X86400000Y-97500000D01*
X85000000Y-112500000D02*
X85000000Y-97000000D01*
X88400000Y-87500000D02*
X85000000Y-87500000D01*
X85000000Y-97000000D02*
X85000000Y-87500000D01*
X102500000Y-141100000D02*
X102500000Y-143000000D01*
X102500000Y-139100000D02*
X102500000Y-141100000D01*
X112500000Y-139100000D02*
X112500000Y-143000000D01*
X112500000Y-143000000D02*
X102500000Y-143000000D01*
X122500000Y-139100000D02*
X122500000Y-143000000D01*
X131500000Y-143000000D02*
X122500000Y-143000000D01*
X122500000Y-143000000D02*
X112500000Y-143000000D01*
X133600000Y-127500000D02*
X136000000Y-127500000D01*
X131600000Y-127500000D02*
X133600000Y-127500000D01*
X136000000Y-127500000D02*
X136000000Y-138500000D01*
X131600000Y-117500000D02*
X136000000Y-117500000D01*
X136000000Y-117500000D02*
X136000000Y-127500000D01*
X131600000Y-107500000D02*
X136000000Y-107500000D01*
X45500000Y-97125000D02*
X45500000Y-98200000D01*
X45500000Y-95000000D02*
X45500000Y-97125000D01*
X43200000Y-98200000D02*
X45500000Y-98200000D01*
X45500000Y-98200000D02*
X52400000Y-98200000D01*
X132800000Y-62800000D02*
X133000000Y-63000000D01*
X85000000Y-62800000D02*
X132800000Y-62800000D01*
X85000000Y-62800000D02*
X88300000Y-62800000D01*
X76400000Y-62800000D02*
X85000000Y-62800000D01*
X180800000Y-62800000D02*
X181000000Y-63000000D01*
X85000000Y-131100000D02*
X85000000Y-140500000D01*
X85000000Y-140500000D02*
X87500000Y-143000000D01*
X102500000Y-143000000D02*
X87500000Y-143000000D01*
X87500000Y-143000000D02*
X77600000Y-143000000D01*
X143400000Y-112500000D02*
X136000000Y-112500000D01*
X136000000Y-107500000D02*
X136000000Y-112500000D01*
X136000000Y-112500000D02*
X136000000Y-117500000D01*
X143400000Y-97500000D02*
X136000000Y-97500000D01*
X136000000Y-97500000D02*
X136000000Y-107500000D01*
X172500000Y-139100000D02*
X172500000Y-143000000D01*
X182500000Y-139100000D02*
X182500000Y-143000000D01*
X182500000Y-143000000D02*
X172500000Y-143000000D01*
X192500000Y-141100000D02*
X192500000Y-143000000D01*
X192500000Y-139100000D02*
X192500000Y-141100000D01*
X192500000Y-143000000D02*
X182500000Y-143000000D01*
X158500000Y-143000000D02*
X131500000Y-143000000D01*
X172500000Y-143000000D02*
X158500000Y-143000000D01*
X155000000Y-65800000D02*
X158000000Y-62800000D01*
X158500000Y-143000000D02*
X155000000Y-139500000D01*
X132800000Y-62800000D02*
X158000000Y-62800000D01*
X167000000Y-63400000D02*
X167000000Y-62800000D01*
X167500000Y-63900000D02*
X167000000Y-63400000D01*
X167500000Y-65900000D02*
X167500000Y-63900000D01*
X158000000Y-62800000D02*
X167000000Y-62800000D01*
X158400000Y-77500000D02*
X155000000Y-77500000D01*
X155000000Y-77500000D02*
X155000000Y-65800000D01*
X158400000Y-87500000D02*
X155000000Y-87500000D01*
X155000000Y-87500000D02*
X155000000Y-77500000D01*
X155900000Y-97000000D02*
X155000000Y-97000000D01*
X156400000Y-97500000D02*
X155900000Y-97000000D01*
X158400000Y-97500000D02*
X156400000Y-97500000D01*
X155000000Y-97000000D02*
X155000000Y-87500000D01*
X158400000Y-112500000D02*
X155000000Y-112500000D01*
X155900000Y-122000000D02*
X155000000Y-122000000D01*
X156400000Y-122500000D02*
X155900000Y-122000000D01*
X158400000Y-122500000D02*
X156400000Y-122500000D01*
X155000000Y-122000000D02*
X155000000Y-112500000D01*
X158400000Y-132500000D02*
X155000000Y-132500000D01*
X155000000Y-139500000D02*
X155000000Y-132500000D01*
X155000000Y-132500000D02*
X155000000Y-122000000D01*
X85900000Y-78000000D02*
X85000000Y-78000000D01*
X86400000Y-77500000D02*
X85900000Y-78000000D01*
X88400000Y-77500000D02*
X86400000Y-77500000D01*
X85000000Y-87500000D02*
X85000000Y-78000000D01*
X85000000Y-78000000D02*
X85000000Y-66500000D01*
X97500000Y-65900000D02*
X97500000Y-63000000D01*
X88500000Y-63000000D02*
X97500000Y-63000000D01*
X106600000Y-63000000D02*
X106500000Y-63000000D01*
X107500000Y-63900000D02*
X106600000Y-63000000D01*
X107500000Y-65900000D02*
X107500000Y-63900000D01*
X97500000Y-63000000D02*
X106500000Y-63000000D01*
X116600000Y-63000000D02*
X116500000Y-63000000D01*
X117500000Y-63900000D02*
X116600000Y-63000000D01*
X117500000Y-65900000D02*
X117500000Y-63900000D01*
X106500000Y-63000000D02*
X116500000Y-63000000D01*
X116500000Y-63000000D02*
X133000000Y-63000000D01*
X134600000Y-73500000D02*
X136000000Y-73500000D01*
X133600000Y-72500000D02*
X134600000Y-73500000D01*
X131600000Y-72500000D02*
X133600000Y-72500000D01*
X136000000Y-66000000D02*
X136000000Y-73500000D01*
X135000000Y-82500000D02*
X136000000Y-83500000D01*
X131600000Y-82500000D02*
X135000000Y-82500000D01*
X136000000Y-73500000D02*
X136000000Y-83500000D01*
X135500000Y-92500000D02*
X136000000Y-93000000D01*
X131600000Y-92500000D02*
X135500000Y-92500000D01*
X136000000Y-83500000D02*
X136000000Y-93000000D01*
X136000000Y-93000000D02*
X136000000Y-97500000D01*
X107500000Y-98900000D02*
X107500000Y-100900000D01*
X107100000Y-98500000D02*
X107500000Y-98900000D01*
X97500000Y-100900000D02*
X97500000Y-98500000D01*
X117500000Y-100900000D02*
X117500000Y-98500000D01*
X117500000Y-98500000D02*
X107100000Y-98500000D01*
X202500000Y-143000000D02*
X202500000Y-142000000D01*
X202500000Y-143000000D02*
X192500000Y-143000000D01*
X202500000Y-142000000D02*
X204000000Y-140500000D01*
X204000000Y-67000000D02*
X202000000Y-65000000D01*
X202000000Y-63000000D02*
X202000000Y-65000000D01*
X181000000Y-63000000D02*
X202000000Y-63000000D01*
X179000000Y-62800000D02*
X180800000Y-62800000D01*
X247500000Y-141500000D02*
X247500000Y-139100000D01*
X259500000Y-139500000D02*
X257000000Y-142000000D01*
X257000000Y-142000000D02*
X248000000Y-142000000D01*
X257300000Y-62800000D02*
X259500000Y-65000000D01*
X248000000Y-142000000D02*
X247500000Y-141500000D01*
X227500000Y-139100000D02*
X227500000Y-142000000D01*
X237500000Y-139100000D02*
X237500000Y-142000000D01*
X248000000Y-142000000D02*
X237500000Y-142000000D01*
X237500000Y-142000000D02*
X227500000Y-142000000D01*
X214500000Y-142000000D02*
X214000000Y-142000000D01*
X214500000Y-142000000D02*
X202500000Y-142000000D01*
X227500000Y-142000000D02*
X214500000Y-142000000D01*
X214000000Y-142000000D02*
X210500000Y-138500000D01*
X210500000Y-65300000D02*
X213000000Y-62800000D01*
X222500000Y-65900000D02*
X222500000Y-62800000D01*
X213000000Y-62800000D02*
X222500000Y-62800000D01*
X232000000Y-63400000D02*
X232000000Y-62800000D01*
X232500000Y-63900000D02*
X232000000Y-63400000D01*
X232500000Y-65900000D02*
X232500000Y-63900000D01*
X222500000Y-62800000D02*
X232000000Y-62800000D01*
X213400000Y-77500000D02*
X210500000Y-77500000D01*
X210500000Y-77500000D02*
X210500000Y-65300000D01*
X213400000Y-87500000D02*
X210500000Y-87500000D01*
X210500000Y-87500000D02*
X210500000Y-77500000D01*
X213400000Y-97500000D02*
X210500000Y-97500000D01*
X210500000Y-97500000D02*
X210500000Y-87500000D01*
X213400000Y-112500000D02*
X210500000Y-112500000D01*
X210500000Y-112500000D02*
X210500000Y-97500000D01*
X211000000Y-122500000D02*
X210500000Y-123000000D01*
X213400000Y-122500000D02*
X211000000Y-122500000D01*
X210500000Y-123000000D02*
X210500000Y-112500000D01*
X210500000Y-133400000D02*
X210500000Y-133500000D01*
X211400000Y-132500000D02*
X210500000Y-133400000D01*
X213400000Y-132500000D02*
X211400000Y-132500000D01*
X210500000Y-138500000D02*
X210500000Y-133500000D01*
X210500000Y-133500000D02*
X210500000Y-123000000D01*
X256600000Y-92500000D02*
X258500000Y-92500000D01*
X256600000Y-92500000D02*
X259500000Y-92500000D01*
X256600000Y-82500000D02*
X259500000Y-82500000D01*
X259500000Y-82500000D02*
X259500000Y-92500000D01*
X256600000Y-72500000D02*
X259500000Y-72500000D01*
X259500000Y-65000000D02*
X259500000Y-72500000D01*
X259500000Y-72500000D02*
X259500000Y-82500000D01*
X259000000Y-107500000D02*
X259500000Y-108000000D01*
X256600000Y-107500000D02*
X259000000Y-107500000D01*
X259500000Y-92500000D02*
X259500000Y-108000000D01*
X256600000Y-117500000D02*
X259500000Y-117500000D01*
X259500000Y-108000000D02*
X259500000Y-117500000D01*
X259000000Y-127500000D02*
X259500000Y-128000000D01*
X256600000Y-127500000D02*
X259000000Y-127500000D01*
X259500000Y-117500000D02*
X259500000Y-128000000D01*
X259500000Y-128000000D02*
X259500000Y-139500000D01*
X203600000Y-127500000D02*
X204000000Y-127500000D01*
X201600000Y-127500000D02*
X203600000Y-127500000D01*
X204000000Y-140500000D02*
X204000000Y-127500000D01*
X204000000Y-117100000D02*
X204000000Y-116500000D01*
X203600000Y-117500000D02*
X204000000Y-117100000D01*
X201600000Y-117500000D02*
X203600000Y-117500000D01*
X204000000Y-127500000D02*
X204000000Y-116500000D01*
X201600000Y-107500000D02*
X204000000Y-107500000D01*
X204000000Y-116500000D02*
X204000000Y-107500000D01*
X203600000Y-92500000D02*
X204000000Y-92500000D01*
X201600000Y-92500000D02*
X203600000Y-92500000D01*
X204000000Y-107500000D02*
X204000000Y-92500000D01*
X201600000Y-82500000D02*
X202500000Y-82500000D01*
X202500000Y-82500000D02*
X204000000Y-82500000D01*
X204000000Y-92500000D02*
X204000000Y-82500000D01*
X201600000Y-72500000D02*
X203000000Y-72500000D01*
X187500000Y-65900000D02*
X187500000Y-62800000D01*
X179000000Y-62800000D02*
X187500000Y-62800000D01*
X187500000Y-62800000D02*
X213000000Y-62800000D01*
X178000000Y-63400000D02*
X178000000Y-62800000D01*
X177500000Y-63900000D02*
X178000000Y-63400000D01*
X177500000Y-65900000D02*
X177500000Y-63900000D01*
X167000000Y-62800000D02*
X178000000Y-62800000D01*
X178000000Y-62800000D02*
X179000000Y-62800000D01*
X187500000Y-98900000D02*
X187500000Y-100900000D01*
X186600000Y-98000000D02*
X187500000Y-98900000D01*
X167500000Y-98900000D02*
X168400000Y-98000000D01*
X167500000Y-100900000D02*
X167500000Y-98900000D01*
X177500000Y-100900000D02*
X177500000Y-98000000D01*
X177500000Y-98000000D02*
X186600000Y-98000000D01*
X155000000Y-102500000D02*
X161000000Y-102500000D01*
X155000000Y-102500000D02*
X155000000Y-97000000D01*
X155000000Y-112500000D02*
X155000000Y-102500000D01*
X172250000Y-94500000D02*
X173500000Y-95750000D01*
X170000000Y-94500000D02*
X172250000Y-94500000D01*
X173500000Y-97500000D02*
X173000000Y-98000000D01*
X173500000Y-95750000D02*
X173500000Y-97500000D01*
X168400000Y-98000000D02*
X173000000Y-98000000D01*
X173000000Y-98000000D02*
X177500000Y-98000000D01*
X99500000Y-94500000D02*
X102500000Y-94500000D01*
X102500000Y-98000000D02*
X103000000Y-98500000D01*
X102500000Y-94500000D02*
X102500000Y-98000000D01*
X97500000Y-98500000D02*
X103000000Y-98500000D01*
X103000000Y-98500000D02*
X107100000Y-98500000D01*
D23*
X203900000Y-72500000D02*
X204000000Y-72600000D01*
X203000000Y-72500000D02*
X203900000Y-72500000D01*
D24*
X204000000Y-82500000D02*
X204000000Y-72600000D01*
X204000000Y-72600000D02*
X204000000Y-67000000D01*
D23*
X222500000Y-99500000D02*
X224700000Y-97300000D01*
X222500000Y-100900000D02*
X222500000Y-99500000D01*
X242500000Y-99200000D02*
X242500000Y-100900000D01*
X240600000Y-97300000D02*
X242500000Y-99200000D01*
X232400000Y-99400000D02*
X232400000Y-97300000D01*
X232500000Y-99500000D02*
X232400000Y-99400000D01*
X232500000Y-100900000D02*
X232500000Y-99500000D01*
X232400000Y-97300000D02*
X240600000Y-97300000D01*
X225600000Y-95200000D02*
X226000000Y-95600000D01*
X223950000Y-95200000D02*
X225600000Y-95200000D01*
X226000000Y-97200000D02*
X226100000Y-97300000D01*
X226000000Y-95600000D02*
X226000000Y-97200000D01*
X224700000Y-97300000D02*
X226100000Y-97300000D01*
X226100000Y-97300000D02*
X232400000Y-97300000D01*
X242500000Y-63000000D02*
X242700000Y-62800000D01*
X242500000Y-65900000D02*
X242500000Y-63000000D01*
D24*
X232000000Y-62800000D02*
X242700000Y-62800000D01*
X242700000Y-62800000D02*
X257300000Y-62800000D01*
G04 #@! TO.N,+5V*
X52500000Y-133300000D02*
X52500000Y-135900000D01*
X69000000Y-106800000D02*
X69400000Y-107200000D01*
X53200000Y-132600000D02*
X52500000Y-133300000D01*
X62800000Y-133600000D02*
X62800000Y-132600000D01*
X62500000Y-133900000D02*
X62800000Y-133600000D01*
X62500000Y-135900000D02*
X62500000Y-133900000D01*
X69400000Y-132600000D02*
X62800000Y-132600000D01*
X62800000Y-132600000D02*
X53200000Y-132600000D01*
X71300000Y-132600000D02*
X69400000Y-132600000D01*
X71400000Y-132500000D02*
X71300000Y-132600000D01*
X73400000Y-132500000D02*
X71400000Y-132500000D01*
X71300000Y-122400000D02*
X69400000Y-122400000D01*
X71400000Y-122500000D02*
X71300000Y-122400000D01*
X73400000Y-122500000D02*
X71400000Y-122500000D01*
X69400000Y-122400000D02*
X69400000Y-132600000D01*
X69700000Y-112500000D02*
X69400000Y-112200000D01*
X73400000Y-112500000D02*
X69700000Y-112500000D01*
X69400000Y-107200000D02*
X69400000Y-112200000D01*
X69400000Y-112200000D02*
X69400000Y-122400000D01*
X67500000Y-106700000D02*
X67600000Y-106800000D01*
X67500000Y-104100000D02*
X67500000Y-106700000D01*
X67600000Y-106800000D02*
X69000000Y-106800000D01*
X69000000Y-106800000D02*
X69400000Y-106800000D01*
X69400000Y-106800000D02*
X71000000Y-105200000D01*
X71000000Y-105200000D02*
X71000000Y-98200000D01*
X71000000Y-98200000D02*
X68800000Y-96000000D01*
X68800000Y-73400000D02*
X68400000Y-73000000D01*
X40800000Y-73000000D02*
X40000000Y-73800000D01*
X38700000Y-127600000D02*
X40000000Y-127600000D01*
X38600000Y-127500000D02*
X38700000Y-127600000D01*
X36600000Y-127500000D02*
X38600000Y-127500000D01*
X40000000Y-131400000D02*
X40000000Y-130800000D01*
X42500000Y-135900000D02*
X42500000Y-133900000D01*
X40000000Y-127600000D02*
X40000000Y-130800000D01*
X39700000Y-107500000D02*
X40000000Y-107800000D01*
X36600000Y-107500000D02*
X39700000Y-107500000D01*
X39900000Y-117500000D02*
X40000000Y-117600000D01*
X36600000Y-117500000D02*
X39900000Y-117500000D01*
X40000000Y-107800000D02*
X40000000Y-117600000D01*
X40000000Y-117600000D02*
X40000000Y-127600000D01*
X39100000Y-93000000D02*
X40000000Y-93000000D01*
X38600000Y-92500000D02*
X39100000Y-93000000D01*
X36600000Y-92500000D02*
X38600000Y-92500000D01*
X39900000Y-82500000D02*
X40000000Y-82600000D01*
X36600000Y-82500000D02*
X39900000Y-82500000D01*
X40000000Y-73800000D02*
X40000000Y-82600000D01*
X40000000Y-82600000D02*
X40000000Y-93000000D01*
X39900000Y-73800000D02*
X40000000Y-73800000D01*
X38600000Y-72500000D02*
X39900000Y-73800000D01*
X36600000Y-72500000D02*
X38600000Y-72500000D01*
X47500000Y-72700000D02*
X47800000Y-73000000D01*
X47500000Y-69100000D02*
X47500000Y-72700000D01*
X47800000Y-73000000D02*
X40800000Y-73000000D01*
X57500000Y-72900000D02*
X57400000Y-73000000D01*
X57500000Y-69100000D02*
X57500000Y-72900000D01*
X57400000Y-73000000D02*
X47800000Y-73000000D01*
X67500000Y-72900000D02*
X67400000Y-73000000D01*
X67500000Y-69100000D02*
X67500000Y-72900000D01*
X68400000Y-73000000D02*
X67400000Y-73000000D01*
X67400000Y-73000000D02*
X57400000Y-73000000D01*
X70900000Y-78000000D02*
X68800000Y-78000000D01*
X71400000Y-77500000D02*
X70900000Y-78000000D01*
X73400000Y-77500000D02*
X71400000Y-77500000D01*
X68800000Y-78000000D02*
X68800000Y-73400000D01*
X70500000Y-88400000D02*
X68800000Y-88400000D01*
X71400000Y-87500000D02*
X70500000Y-88400000D01*
X73400000Y-87500000D02*
X71400000Y-87500000D01*
X68800000Y-96000000D02*
X68800000Y-88400000D01*
X68800000Y-88400000D02*
X68800000Y-78000000D01*
X71000000Y-97900000D02*
X71000000Y-98200000D01*
X71400000Y-97500000D02*
X71000000Y-97900000D01*
X73400000Y-97500000D02*
X71400000Y-97500000D01*
X40800000Y-132200000D02*
X40000000Y-131400000D01*
X42500000Y-133900000D02*
X40800000Y-132200000D01*
X57500000Y-106700000D02*
X57600000Y-106800000D01*
X57500000Y-104100000D02*
X57500000Y-106700000D01*
X57600000Y-106800000D02*
X67600000Y-106800000D01*
X47500000Y-105800000D02*
X47500000Y-104100000D01*
X48500000Y-106800000D02*
X47500000Y-105800000D01*
X57600000Y-106800000D02*
X48500000Y-106800000D01*
X38400000Y-141250000D02*
X38400000Y-142800000D01*
X39750000Y-139900000D02*
X38400000Y-141250000D01*
X39750000Y-136350000D02*
X39750000Y-139900000D01*
X42500000Y-135900000D02*
X40200000Y-135900000D01*
X40200000Y-135900000D02*
X39750000Y-136350000D01*
X43000000Y-95000000D02*
X40000000Y-95000000D01*
X40000000Y-93000000D02*
X40000000Y-95000000D01*
X40000000Y-95000000D02*
X40000000Y-107800000D01*
X38400000Y-142800000D02*
X38400000Y-144400000D01*
X38400000Y-144400000D02*
X39500000Y-145500000D01*
X39500000Y-145500000D02*
X169500000Y-145500000D01*
X169500000Y-145500000D02*
X176000000Y-145500000D01*
X176000000Y-145500000D02*
X219500000Y-145500000D01*
X125500000Y-130500000D02*
X122500000Y-133500000D01*
X91600000Y-127500000D02*
X93600000Y-127500000D01*
X93600000Y-127500000D02*
X94500000Y-126600000D01*
X94500000Y-73500000D02*
X96000000Y-72000000D01*
X124500000Y-72000000D02*
X125500000Y-73000000D01*
X107500000Y-135900000D02*
X107500000Y-133500000D01*
X117500000Y-135900000D02*
X117500000Y-133500000D01*
X122500000Y-133500000D02*
X117500000Y-133500000D01*
X117500000Y-133500000D02*
X107500000Y-133500000D01*
X125500000Y-131600000D02*
X125500000Y-130500000D01*
X126400000Y-132500000D02*
X125500000Y-131600000D01*
X128400000Y-132500000D02*
X126400000Y-132500000D01*
X126000000Y-122500000D02*
X125500000Y-122000000D01*
X128400000Y-122500000D02*
X126000000Y-122500000D01*
X125500000Y-122000000D02*
X125500000Y-130500000D01*
X128400000Y-112500000D02*
X125500000Y-112500000D01*
X125500000Y-112500000D02*
X125500000Y-122000000D01*
X125500000Y-108500000D02*
X125000000Y-108500000D01*
X125500000Y-108500000D02*
X125500000Y-112500000D01*
X102500000Y-106100000D02*
X103400000Y-107000000D01*
X102500000Y-104100000D02*
X102500000Y-106100000D01*
X125000000Y-108500000D02*
X123500000Y-107000000D01*
X122500000Y-104100000D02*
X122500000Y-107000000D01*
X122500000Y-107000000D02*
X123500000Y-107000000D01*
X112500000Y-104100000D02*
X112500000Y-107000000D01*
X103400000Y-107000000D02*
X112500000Y-107000000D01*
X112500000Y-107000000D02*
X122500000Y-107000000D01*
X94500000Y-73400000D02*
X94500000Y-74500000D01*
X93600000Y-72500000D02*
X94500000Y-73400000D01*
X91600000Y-72500000D02*
X93600000Y-72500000D01*
X94500000Y-74500000D02*
X94500000Y-73500000D01*
X91600000Y-82500000D02*
X94500000Y-82500000D01*
X94500000Y-82500000D02*
X94500000Y-74500000D01*
X102500000Y-69100000D02*
X102500000Y-72000000D01*
X96000000Y-72000000D02*
X102500000Y-72000000D01*
X113400000Y-72000000D02*
X114000000Y-72000000D01*
X112500000Y-71100000D02*
X113400000Y-72000000D01*
X112500000Y-69100000D02*
X112500000Y-71100000D01*
X102500000Y-72000000D02*
X114000000Y-72000000D01*
X122500000Y-71500000D02*
X123000000Y-72000000D01*
X122500000Y-69100000D02*
X122500000Y-71500000D01*
X114000000Y-72000000D02*
X123000000Y-72000000D01*
X123000000Y-72000000D02*
X124500000Y-72000000D01*
X125500000Y-78400000D02*
X125500000Y-78500000D01*
X126400000Y-77500000D02*
X125500000Y-78400000D01*
X128400000Y-77500000D02*
X126400000Y-77500000D01*
X125500000Y-73000000D02*
X125500000Y-78500000D01*
X126000000Y-87500000D02*
X128400000Y-87500000D01*
X125500000Y-88000000D02*
X126000000Y-87500000D01*
X125500000Y-78500000D02*
X125500000Y-88000000D01*
X126000000Y-97500000D02*
X125500000Y-98000000D01*
X128400000Y-97500000D02*
X126000000Y-97500000D01*
X125500000Y-88000000D02*
X125500000Y-98000000D01*
X125500000Y-98000000D02*
X125500000Y-108500000D01*
X148600000Y-107500000D02*
X146600000Y-107500000D01*
X149500000Y-106600000D02*
X148600000Y-107500000D01*
X149500000Y-93400000D02*
X149500000Y-106600000D01*
X148600000Y-92500000D02*
X149500000Y-93400000D01*
X146600000Y-92500000D02*
X148600000Y-92500000D01*
X94500000Y-130900000D02*
X94500000Y-126600000D01*
X97500000Y-133900000D02*
X94500000Y-130900000D01*
X97500000Y-135900000D02*
X97500000Y-133900000D01*
X94500000Y-130900000D02*
X94500000Y-139000000D01*
X94500000Y-139000000D02*
X93500000Y-140000000D01*
X177500000Y-133900000D02*
X177500000Y-135900000D01*
X178400000Y-133000000D02*
X177500000Y-133900000D01*
X161600000Y-127500000D02*
X163000000Y-127500000D01*
X163000000Y-127500000D02*
X164500000Y-126000000D01*
X164500000Y-74500000D02*
X167500000Y-71500000D01*
X196000000Y-100410002D02*
X195500000Y-100910002D01*
X194000000Y-71500000D02*
X196000000Y-73500000D01*
X167500000Y-135900000D02*
X166900000Y-135900000D01*
X164500000Y-133500000D02*
X164500000Y-126000000D01*
X166900000Y-135900000D02*
X164500000Y-133500000D01*
X164500000Y-133500000D02*
X164500000Y-137500000D01*
X164500000Y-137500000D02*
X163000000Y-139000000D01*
X195500000Y-100910002D02*
X195500000Y-106500000D01*
X172500000Y-106100000D02*
X172500000Y-104100000D01*
X172900000Y-106500000D02*
X172500000Y-106100000D01*
X182900000Y-106500000D02*
X183000000Y-106500000D01*
X182500000Y-106100000D02*
X182900000Y-106500000D01*
X182500000Y-104100000D02*
X182500000Y-106100000D01*
X183000000Y-106500000D02*
X172900000Y-106500000D01*
X192900000Y-106500000D02*
X193500000Y-106500000D01*
X192500000Y-106100000D02*
X192900000Y-106500000D01*
X192500000Y-104100000D02*
X192500000Y-106100000D01*
X195500000Y-106500000D02*
X193500000Y-106500000D01*
X193500000Y-106500000D02*
X183000000Y-106500000D01*
X232500000Y-133900000D02*
X233400000Y-133000000D01*
X232500000Y-135900000D02*
X232500000Y-133900000D01*
X248500000Y-133000000D02*
X249000000Y-133000000D01*
X218000000Y-127500000D02*
X216600000Y-127500000D01*
X219500000Y-126000000D02*
X218000000Y-127500000D01*
X248500000Y-133000000D02*
X249500000Y-133000000D01*
X250000000Y-74000000D02*
X248500000Y-72500000D01*
X249500000Y-133000000D02*
X250000000Y-132500000D01*
X250000000Y-106000000D02*
X251000000Y-105000000D01*
X222000000Y-72500000D02*
X219500000Y-75000000D01*
X251000000Y-105000000D02*
X251000000Y-99000000D01*
X251000000Y-99000000D02*
X250000000Y-98000000D01*
X222500000Y-133900000D02*
X220000000Y-131400000D01*
X222500000Y-135900000D02*
X222500000Y-133900000D01*
X220000000Y-126500000D02*
X219500000Y-126000000D01*
X220000000Y-131400000D02*
X220000000Y-126500000D01*
X216600000Y-92500000D02*
X219500000Y-92500000D01*
X216600000Y-82500000D02*
X219500000Y-82500000D01*
X219500000Y-75000000D02*
X219500000Y-82500000D01*
X219500000Y-82500000D02*
X219500000Y-92500000D01*
X219500000Y-73400000D02*
X219500000Y-75000000D01*
X218600000Y-72500000D02*
X219500000Y-73400000D01*
X216600000Y-72500000D02*
X218600000Y-72500000D01*
X227000000Y-71600000D02*
X227000000Y-72500000D01*
X227500000Y-71100000D02*
X227000000Y-71600000D01*
X227500000Y-69100000D02*
X227500000Y-71100000D01*
X227000000Y-72500000D02*
X222000000Y-72500000D01*
X237000000Y-71600000D02*
X237000000Y-72500000D01*
X237500000Y-71100000D02*
X237000000Y-71600000D01*
X237500000Y-69100000D02*
X237500000Y-71100000D01*
X237000000Y-72500000D02*
X227000000Y-72500000D01*
X247500000Y-69100000D02*
X247500000Y-72500000D01*
X248500000Y-72500000D02*
X247500000Y-72500000D01*
X247500000Y-72500000D02*
X237000000Y-72500000D01*
X253400000Y-77500000D02*
X250000000Y-77500000D01*
X250000000Y-77500000D02*
X250000000Y-74000000D01*
X250900000Y-87000000D02*
X250000000Y-87000000D01*
X251400000Y-87500000D02*
X250900000Y-87000000D01*
X253400000Y-87500000D02*
X251400000Y-87500000D01*
X250000000Y-98000000D02*
X250000000Y-87000000D01*
X250000000Y-87000000D02*
X250000000Y-77500000D01*
X251000000Y-97900000D02*
X251000000Y-99000000D01*
X251400000Y-97500000D02*
X251000000Y-97900000D01*
X253400000Y-97500000D02*
X251400000Y-97500000D01*
X216600000Y-117500000D02*
X219500000Y-117500000D01*
X219500000Y-117500000D02*
X219500000Y-126000000D01*
X216600000Y-107500000D02*
X219500000Y-107500000D01*
X219500000Y-107500000D02*
X219500000Y-117500000D01*
X227500000Y-104500000D02*
X227500000Y-104100000D01*
X229000000Y-106000000D02*
X227500000Y-104500000D01*
X237500000Y-104100000D02*
X237500000Y-106000000D01*
X237500000Y-106000000D02*
X229000000Y-106000000D01*
X247500000Y-105500000D02*
X247000000Y-106000000D01*
X247500000Y-104100000D02*
X247500000Y-105500000D01*
X250000000Y-106000000D02*
X247000000Y-106000000D01*
X247000000Y-106000000D02*
X237500000Y-106000000D01*
X253400000Y-112500000D02*
X250000000Y-112500000D01*
X250000000Y-112500000D02*
X250000000Y-106000000D01*
X253400000Y-122500000D02*
X250000000Y-122500000D01*
X250000000Y-132500000D02*
X250000000Y-122500000D01*
X250000000Y-122500000D02*
X250000000Y-112500000D01*
X253400000Y-132500000D02*
X250000000Y-132500000D01*
X242500000Y-135900000D02*
X242500000Y-133000000D01*
X233400000Y-133000000D02*
X242500000Y-133000000D01*
X242500000Y-133000000D02*
X248500000Y-133000000D01*
X187500000Y-133500000D02*
X188000000Y-133000000D01*
X187500000Y-135900000D02*
X187500000Y-133500000D01*
X192000000Y-133000000D02*
X188000000Y-133000000D01*
X188000000Y-133000000D02*
X178400000Y-133000000D01*
X195400000Y-131500000D02*
X193500000Y-131500000D01*
X196400000Y-132500000D02*
X195400000Y-131500000D01*
X198400000Y-132500000D02*
X196400000Y-132500000D01*
X195500000Y-129500000D02*
X193500000Y-131500000D01*
X193500000Y-131500000D02*
X192000000Y-133000000D01*
X198400000Y-122500000D02*
X195500000Y-122500000D01*
X195500000Y-122500000D02*
X195500000Y-129500000D01*
X196000000Y-112500000D02*
X195500000Y-112000000D01*
X198400000Y-112500000D02*
X196000000Y-112500000D01*
X195500000Y-106500000D02*
X195500000Y-112000000D01*
X195500000Y-112000000D02*
X195500000Y-122500000D01*
X196000000Y-97100000D02*
X196000000Y-97000000D01*
X196400000Y-97500000D02*
X196000000Y-97100000D01*
X198400000Y-97500000D02*
X196400000Y-97500000D01*
X196000000Y-97000000D02*
X196000000Y-100410002D01*
X198400000Y-87500000D02*
X196000000Y-87500000D01*
X196000000Y-87500000D02*
X196000000Y-97000000D01*
X198400000Y-77500000D02*
X196000000Y-77500000D01*
X196000000Y-73500000D02*
X196000000Y-77500000D01*
X196000000Y-77500000D02*
X196000000Y-87500000D01*
X192500000Y-69100000D02*
X192500000Y-71500000D01*
X192500000Y-71500000D02*
X194000000Y-71500000D01*
X182900000Y-71500000D02*
X183000000Y-71500000D01*
X182500000Y-71100000D02*
X182900000Y-71500000D01*
X182500000Y-69100000D02*
X182500000Y-71100000D01*
X183000000Y-71500000D02*
X192500000Y-71500000D01*
X172100000Y-71500000D02*
X172000000Y-71500000D01*
X172500000Y-71100000D02*
X172100000Y-71500000D01*
X172500000Y-69100000D02*
X172500000Y-71100000D01*
X167500000Y-71500000D02*
X172000000Y-71500000D01*
X172000000Y-71500000D02*
X183000000Y-71500000D01*
X164500000Y-73400000D02*
X164500000Y-74500000D01*
X163600000Y-72500000D02*
X164500000Y-73400000D01*
X161600000Y-72500000D02*
X163600000Y-72500000D01*
X164000000Y-82500000D02*
X164500000Y-83000000D01*
X161600000Y-82500000D02*
X164000000Y-82500000D01*
X164500000Y-83000000D02*
X164500000Y-74500000D01*
X161600000Y-92500000D02*
X164500000Y-92500000D01*
X164500000Y-92500000D02*
X164500000Y-83000000D01*
X164000000Y-107500000D02*
X164500000Y-107000000D01*
X161600000Y-107500000D02*
X164000000Y-107500000D01*
X164500000Y-126000000D02*
X164500000Y-107000000D01*
X165000000Y-94500000D02*
X164500000Y-95000000D01*
X167500000Y-94500000D02*
X165000000Y-94500000D01*
X164500000Y-107000000D02*
X164500000Y-95000000D01*
X164500000Y-95000000D02*
X164500000Y-92500000D01*
X94500000Y-94750000D02*
X94500000Y-95000000D01*
X94750000Y-94500000D02*
X94500000Y-94750000D01*
X97000000Y-94500000D02*
X94750000Y-94500000D01*
X94000000Y-92500000D02*
X94500000Y-93000000D01*
X91600000Y-92500000D02*
X94000000Y-92500000D01*
X94500000Y-95000000D02*
X94500000Y-93000000D01*
X94500000Y-93000000D02*
X94500000Y-82500000D01*
X91600000Y-117500000D02*
X94500000Y-117500000D01*
X94500000Y-126600000D02*
X94500000Y-117500000D01*
X94000000Y-107500000D02*
X94500000Y-108000000D01*
X91600000Y-107500000D02*
X94000000Y-107500000D01*
X94500000Y-117500000D02*
X94500000Y-108000000D01*
X94500000Y-108000000D02*
X94500000Y-95000000D01*
D23*
X219500000Y-95200000D02*
X221450000Y-95200000D01*
D24*
X219500000Y-95200000D02*
X219500000Y-107500000D01*
X219500000Y-92500000D02*
X219500000Y-95200000D01*
D23*
X222500000Y-135900000D02*
X220100000Y-135900000D01*
X220100000Y-135900000D02*
X218000000Y-138000000D01*
X218000000Y-138000000D02*
X218000000Y-139000000D01*
D24*
G04 #@! TO.N,DIN*
X36600000Y-132500000D02*
X36600000Y-133400000D01*
X36600000Y-133400000D02*
X33000000Y-137000000D01*
X33000000Y-137000000D02*
X33000000Y-141750000D01*
D23*
G04 #@! TO.N,Net-(U1-Pad2)*
X33400000Y-125700000D02*
X33400000Y-127500000D01*
X34500000Y-124600000D02*
X33400000Y-125700000D01*
X36200000Y-124600000D02*
X34500000Y-124600000D01*
X36600000Y-124200000D02*
X36200000Y-124600000D01*
X36600000Y-122500000D02*
X36600000Y-124200000D01*
G04 #@! TO.N,Net-(U2-Pad2)*
X33400000Y-117500000D02*
X33400000Y-115700000D01*
X35800000Y-115000000D02*
X34100000Y-115000000D01*
X36600000Y-114200000D02*
X35800000Y-115000000D01*
X36600000Y-112500000D02*
X36600000Y-114200000D01*
X33400000Y-115700000D02*
X34100000Y-115000000D01*
G04 #@! TO.N,Net-(U3-Pad2)*
X36600000Y-97500000D02*
X36600000Y-101000000D01*
X36600000Y-101000000D02*
X33400000Y-104200000D01*
X33400000Y-107500000D02*
X33400000Y-104200000D01*
G04 #@! TO.N,Net-(U4-Pad2)*
X33400000Y-90800000D02*
X34000000Y-90200000D01*
X33400000Y-92500000D02*
X33400000Y-90800000D01*
X34000000Y-90200000D02*
X36000000Y-90200000D01*
X36600000Y-89600000D02*
X36600000Y-87500000D01*
X36000000Y-90200000D02*
X36600000Y-89600000D01*
G04 #@! TO.N,Net-(U5-Pad2)*
X36600000Y-79200000D02*
X36600000Y-77500000D01*
X35600000Y-80200000D02*
X36600000Y-79200000D01*
X34000000Y-80200000D02*
X35600000Y-80200000D01*
X33400000Y-80800000D02*
X34000000Y-80200000D01*
X33400000Y-82500000D02*
X33400000Y-80800000D01*
G04 #@! TO.N,Net-(U6-Pad2)*
X35100000Y-69100000D02*
X42500000Y-69100000D01*
X33400000Y-72500000D02*
X33400000Y-70800000D01*
X33400000Y-70800000D02*
X35100000Y-69100000D01*
G04 #@! TO.N,Net-(U7-Pad2)*
X49200000Y-65900000D02*
X49500000Y-66200000D01*
X47500000Y-65900000D02*
X49200000Y-65900000D01*
X49500000Y-66200000D02*
X49500000Y-67900000D01*
X50700000Y-69100000D02*
X52500000Y-69100000D01*
X49500000Y-67900000D02*
X50700000Y-69100000D01*
G04 #@! TO.N,Net-(U8-Pad2)*
X59200000Y-65900000D02*
X59800000Y-66500000D01*
X57500000Y-65900000D02*
X59200000Y-65900000D01*
X59800000Y-66500000D02*
X59800000Y-68600000D01*
X60300000Y-69100000D02*
X62500000Y-69100000D01*
X59800000Y-68600000D02*
X60300000Y-69100000D01*
G04 #@! TO.N,Net-(U10-Pad4)*
X71900000Y-65900000D02*
X67500000Y-65900000D01*
X73400000Y-72500000D02*
X73400000Y-67400000D01*
X73400000Y-67400000D02*
X71900000Y-65900000D01*
G04 #@! TO.N,Net-(U10-Pad2)*
X73400000Y-80800000D02*
X74200000Y-80000000D01*
X73400000Y-82500000D02*
X73400000Y-80800000D01*
X74200000Y-80000000D02*
X76000000Y-80000000D01*
X76600000Y-79400000D02*
X76600000Y-77500000D01*
X76000000Y-80000000D02*
X76600000Y-79400000D01*
G04 #@! TO.N,Net-(U11-Pad2)*
X76600000Y-89200000D02*
X75600000Y-90200000D01*
X76600000Y-87500000D02*
X76600000Y-89200000D01*
X75600000Y-90200000D02*
X74000000Y-90200000D01*
X73400000Y-90800000D02*
X73400000Y-92500000D01*
X74000000Y-90200000D02*
X73400000Y-90800000D01*
G04 #@! TO.N,Net-(U12-Pad2)*
X73400000Y-107500000D02*
X73400000Y-103400000D01*
X73400000Y-103400000D02*
X74600000Y-102200000D01*
X75200000Y-102200000D02*
X76600000Y-100800000D01*
X74600000Y-102200000D02*
X75200000Y-102200000D01*
X76600000Y-97500000D02*
X76600000Y-100800000D01*
G04 #@! TO.N,Net-(U13-Pad2)*
X73400000Y-115600000D02*
X73400000Y-117500000D01*
X74400000Y-114600000D02*
X73400000Y-115600000D01*
X76200000Y-114600000D02*
X74400000Y-114600000D01*
X76600000Y-112500000D02*
X76600000Y-114200000D01*
X76600000Y-114200000D02*
X76200000Y-114600000D01*
G04 #@! TO.N,Net-(U14-Pad2)*
X76600000Y-122500000D02*
X76600000Y-124200000D01*
X76600000Y-124200000D02*
X75800000Y-125000000D01*
X75800000Y-125000000D02*
X73800000Y-125000000D01*
X73400000Y-125400000D02*
X73400000Y-127500000D01*
X73800000Y-125000000D02*
X73400000Y-125400000D01*
G04 #@! TO.N,Net-(U15-Pad2)*
X73500000Y-135900000D02*
X67500000Y-135900000D01*
X75500000Y-135900000D02*
X73500000Y-135900000D01*
X76600000Y-132500000D02*
X76600000Y-134800000D01*
X76600000Y-134800000D02*
X75500000Y-135900000D01*
G04 #@! TO.N,Net-(U16-Pad2)*
X60800000Y-139100000D02*
X60000000Y-138300000D01*
X62500000Y-139100000D02*
X60800000Y-139100000D01*
X60000000Y-138300000D02*
X60000000Y-136600000D01*
X59300000Y-135900000D02*
X57500000Y-135900000D01*
X60000000Y-136600000D02*
X59300000Y-135900000D01*
G04 #@! TO.N,Net-(U17-Pad2)*
X50800000Y-139100000D02*
X52500000Y-139100000D01*
X50500000Y-138800000D02*
X50800000Y-139100000D01*
X50500000Y-138100000D02*
X50500000Y-138800000D01*
X49200000Y-136800000D02*
X50500000Y-138100000D01*
X49200000Y-135900000D02*
X49200000Y-136800000D01*
X47500000Y-135900000D02*
X49200000Y-135900000D01*
G04 #@! TO.N,Net-(U18-Pad2)*
X44200000Y-139100000D02*
X42500000Y-139100000D01*
X44800000Y-138500000D02*
X44200000Y-139100000D01*
X44800000Y-110600000D02*
X44800000Y-138500000D01*
X42500000Y-108300000D02*
X44800000Y-110600000D01*
X42500000Y-104100000D02*
X42500000Y-108300000D01*
G04 #@! TO.N,Net-(U19-Pad2)*
X50800000Y-104100000D02*
X50200000Y-103500000D01*
X52500000Y-104100000D02*
X50800000Y-104100000D01*
X50200000Y-103500000D02*
X50200000Y-101800000D01*
X49300000Y-100900000D02*
X47500000Y-100900000D01*
X50200000Y-101800000D02*
X49300000Y-100900000D01*
G04 #@! TO.N,Net-(U20-Pad2)*
X59200000Y-100900000D02*
X59600000Y-101300000D01*
X57500000Y-100900000D02*
X59200000Y-100900000D01*
X59600000Y-101300000D02*
X59600000Y-103000000D01*
X60700000Y-104100000D02*
X62500000Y-104100000D01*
X59600000Y-103000000D02*
X60700000Y-104100000D01*
D24*
G04 #@! TO.N,Net-(U21-Pad2)*
X67500000Y-98900000D02*
X65200000Y-96600000D01*
X67500000Y-100900000D02*
X67500000Y-98900000D01*
X65200000Y-96600000D02*
X65200000Y-94800000D01*
X91600000Y-134800000D02*
X90400000Y-136000000D01*
X91600000Y-132500000D02*
X91600000Y-134800000D01*
X90400000Y-136000000D02*
X87500000Y-136000000D01*
X82500000Y-136000000D02*
X82500000Y-101500000D01*
D23*
G04 #@! TO.N,Net-(U22-Pad2)*
X91600000Y-124200000D02*
X91600000Y-122500000D01*
X90800000Y-125000000D02*
X91600000Y-124200000D01*
X89200000Y-125000000D02*
X90800000Y-125000000D01*
X88400000Y-125800000D02*
X89200000Y-125000000D01*
X88400000Y-127500000D02*
X88400000Y-125800000D01*
G04 #@! TO.N,Net-(U23-Pad2)*
X88400000Y-117500000D02*
X88400000Y-115500000D01*
X88400000Y-115500000D02*
X88500000Y-115400000D01*
X88500000Y-115400000D02*
X90600000Y-115400000D01*
X91600000Y-114400000D02*
X91600000Y-112500000D01*
X90600000Y-115400000D02*
X91600000Y-114400000D01*
G04 #@! TO.N,Net-(U24-Pad2)*
X91600000Y-97500000D02*
X91600000Y-100700000D01*
X88400000Y-103900000D02*
X88400000Y-104100000D01*
X91600000Y-100700000D02*
X88400000Y-103900000D01*
X88400000Y-107500000D02*
X88400000Y-104100000D01*
G04 #@! TO.N,Net-(U25-Pad2)*
X88400000Y-92500000D02*
X88400000Y-90600000D01*
X88400000Y-90600000D02*
X88900000Y-90100000D01*
X88900000Y-90100000D02*
X91200000Y-90100000D01*
X91600000Y-89700000D02*
X91600000Y-87500000D01*
X91200000Y-90100000D02*
X91600000Y-89700000D01*
G04 #@! TO.N,Net-(U26-Pad2)*
X88400000Y-82500000D02*
X88400000Y-81000000D01*
X88400000Y-81000000D02*
X89400000Y-80000000D01*
X89400000Y-80000000D02*
X91400000Y-80000000D01*
X91600000Y-79800000D02*
X91600000Y-77500000D01*
X91400000Y-80000000D02*
X91600000Y-79800000D01*
G04 #@! TO.N,Net-(U27-Pad2)*
X90100000Y-69100000D02*
X97500000Y-69100000D01*
X88400000Y-72500000D02*
X88400000Y-70800000D01*
X88400000Y-70800000D02*
X90100000Y-69100000D01*
G04 #@! TO.N,Net-(U28-Pad2)*
X104200000Y-65900000D02*
X105000000Y-66700000D01*
X102500000Y-65900000D02*
X104200000Y-65900000D01*
X105000000Y-66700000D02*
X105000000Y-68400000D01*
X105700000Y-69100000D02*
X107500000Y-69100000D01*
X105000000Y-68400000D02*
X105700000Y-69100000D01*
G04 #@! TO.N,Net-(U29-Pad2)*
X112500000Y-65900000D02*
X114600000Y-65900000D01*
X114600000Y-65900000D02*
X115000000Y-66300000D01*
X117200000Y-69100000D02*
X117500000Y-69100000D01*
X115000000Y-66900000D02*
X117200000Y-69100000D01*
X115000000Y-66300000D02*
X115000000Y-66900000D01*
G04 #@! TO.N,Net-(U30-Pad2)*
X122500000Y-65900000D02*
X126000000Y-65900000D01*
X128400000Y-68300000D02*
X128400000Y-72500000D01*
X126000000Y-65900000D02*
X128400000Y-68300000D01*
G04 #@! TO.N,Net-(U31-Pad2)*
X128400000Y-82500000D02*
X128400000Y-80300000D01*
X128400000Y-80300000D02*
X130600000Y-80300000D01*
X131600000Y-79300000D02*
X131600000Y-77500000D01*
X130600000Y-80300000D02*
X131600000Y-79300000D01*
G04 #@! TO.N,Net-(U32-Pad2)*
X131600000Y-89200000D02*
X131000000Y-89800000D01*
X131600000Y-87500000D02*
X131600000Y-89200000D01*
X131000000Y-89800000D02*
X128600000Y-89800000D01*
X128400000Y-90000000D02*
X128400000Y-92500000D01*
X128600000Y-89800000D02*
X128400000Y-90000000D01*
G04 #@! TO.N,Net-(U33-Pad2)*
X128400000Y-107500000D02*
X128400000Y-103000000D01*
X130800000Y-100600000D02*
X131600000Y-100600000D01*
X128400000Y-103000000D02*
X130800000Y-100600000D01*
X131600000Y-97500000D02*
X131600000Y-100600000D01*
G04 #@! TO.N,Net-(U34-Pad2)*
X131600000Y-114200000D02*
X131100000Y-114700000D01*
X131600000Y-112500000D02*
X131600000Y-114200000D01*
X131100000Y-114700000D02*
X129100000Y-114700000D01*
X128400000Y-115400000D02*
X128400000Y-117500000D01*
X129100000Y-114700000D02*
X128400000Y-115400000D01*
G04 #@! TO.N,Net-(U35-Pad2)*
X131600000Y-124200000D02*
X131200000Y-124600000D01*
X131600000Y-122500000D02*
X131600000Y-124200000D01*
X131200000Y-124600000D02*
X129200000Y-124600000D01*
X128400000Y-125400000D02*
X128400000Y-127500000D01*
X129200000Y-124600000D02*
X128400000Y-125400000D01*
G04 #@! TO.N,Net-(U36-Pad2)*
X129900000Y-135900000D02*
X122500000Y-135900000D01*
X131600000Y-132500000D02*
X131600000Y-134200000D01*
X131600000Y-134200000D02*
X129900000Y-135900000D01*
G04 #@! TO.N,Net-(U37-Pad2)*
X114200000Y-135900000D02*
X114600000Y-136300000D01*
X112500000Y-135900000D02*
X114200000Y-135900000D01*
X114600000Y-136300000D02*
X114600000Y-138000000D01*
X114600000Y-138000000D02*
X115700000Y-139100000D01*
X115700000Y-139100000D02*
X117500000Y-139100000D01*
G04 #@! TO.N,Net-(U38-Pad2)*
X105800000Y-139100000D02*
X105500000Y-138800000D01*
X107500000Y-139100000D02*
X105800000Y-139100000D01*
X105500000Y-138800000D02*
X105500000Y-137200000D01*
X104200000Y-135900000D02*
X102500000Y-135900000D01*
X105500000Y-137200000D02*
X104200000Y-135900000D01*
G04 #@! TO.N,Net-(U39-Pad2)*
X97800000Y-139100000D02*
X99400000Y-137500000D01*
X97500000Y-139100000D02*
X97800000Y-139100000D01*
X99400000Y-137500000D02*
X100000000Y-137500000D01*
X100000000Y-137500000D02*
X100100000Y-137400000D01*
X100100000Y-137400000D02*
X100100000Y-130800000D01*
X97500000Y-128200000D02*
X97500000Y-104100000D01*
X100100000Y-130800000D02*
X97500000Y-128200000D01*
G04 #@! TO.N,Net-(U40-Pad2)*
X102500000Y-100900000D02*
X104400000Y-100900000D01*
X104400000Y-100900000D02*
X105200000Y-101700000D01*
X107200000Y-104100000D02*
X107500000Y-104100000D01*
X105200000Y-102100000D02*
X107200000Y-104100000D01*
X105200000Y-101700000D02*
X105200000Y-102100000D01*
G04 #@! TO.N,Net-(U41-Pad2)*
X115800000Y-104100000D02*
X115300000Y-103600000D01*
X117500000Y-104100000D02*
X115800000Y-104100000D01*
X115300000Y-103600000D02*
X115300000Y-101600000D01*
X114600000Y-100900000D02*
X112500000Y-100900000D01*
X115300000Y-101600000D02*
X114600000Y-100900000D01*
G04 #@! TO.N,Net-(U42-Pad2)*
X122500000Y-99500000D02*
X122300000Y-99300000D01*
X122500000Y-100900000D02*
X122500000Y-99500000D01*
X122300000Y-99300000D02*
X122300000Y-96000000D01*
X146600000Y-110800000D02*
X146100000Y-110300000D01*
X146600000Y-112500000D02*
X146600000Y-110800000D01*
X146100000Y-110300000D02*
X141800000Y-110300000D01*
X141800000Y-110300000D02*
X139700000Y-108200000D01*
X139700000Y-108200000D02*
X139700000Y-101700000D01*
D24*
G04 #@! TO.N,Net-(U43-Pad2)*
X146600000Y-101400000D02*
X146600000Y-97500000D01*
X143400000Y-107500000D02*
X143400000Y-104600000D01*
X143400000Y-104600000D02*
X146600000Y-101400000D01*
G04 #@! TO.N,Net-(U44-Pad2)*
X143400000Y-90200000D02*
X144600000Y-89000000D01*
X143400000Y-92500000D02*
X143400000Y-90200000D01*
X144600000Y-89000000D02*
X151000000Y-89000000D01*
X151000000Y-89000000D02*
X152500000Y-90500000D01*
X152500000Y-90500000D02*
X152500000Y-138000000D01*
X161600000Y-134800000D02*
X159400000Y-137000000D01*
X161600000Y-132500000D02*
X161600000Y-134800000D01*
D23*
G04 #@! TO.N,Net-(U45-Pad2)*
X158400000Y-127500000D02*
X158400000Y-125500000D01*
X158400000Y-125500000D02*
X159800000Y-125500000D01*
X159800000Y-125500000D02*
X160700000Y-124600000D01*
X161600000Y-124200000D02*
X161600000Y-122500000D01*
X161200000Y-124600000D02*
X161600000Y-124200000D01*
X160700000Y-124600000D02*
X161200000Y-124600000D01*
G04 #@! TO.N,Net-(U46-Pad2)*
X161600000Y-114200000D02*
X161600000Y-112500000D01*
X161000000Y-114800000D02*
X161600000Y-114200000D01*
X159000000Y-114800000D02*
X161000000Y-114800000D01*
X158400000Y-115400000D02*
X159000000Y-114800000D01*
X158400000Y-117500000D02*
X158400000Y-115400000D01*
G04 #@! TO.N,Net-(U47-Pad2)*
X158400000Y-105800000D02*
X159200000Y-105000000D01*
X158400000Y-107500000D02*
X158400000Y-105800000D01*
X159200000Y-105000000D02*
X161700000Y-105000000D01*
X161700000Y-105000000D02*
X162900000Y-103800000D01*
X162900000Y-103800000D02*
X162900000Y-100100000D01*
X161600000Y-99200000D02*
X161600000Y-97500000D01*
X162500000Y-100100000D02*
X161600000Y-99200000D01*
X162900000Y-100100000D02*
X162500000Y-100100000D01*
G04 #@! TO.N,Net-(U48-Pad2)*
X161600000Y-89200000D02*
X161600000Y-87500000D01*
X160900000Y-89900000D02*
X161600000Y-89200000D01*
X159300000Y-89900000D02*
X160900000Y-89900000D01*
X158400000Y-90800000D02*
X159300000Y-89900000D01*
X158400000Y-92500000D02*
X158400000Y-90800000D01*
G04 #@! TO.N,Net-(U49-Pad2)*
X158400000Y-80800000D02*
X158900000Y-80300000D01*
X158400000Y-82500000D02*
X158400000Y-80800000D01*
X158900000Y-80300000D02*
X160700000Y-80300000D01*
X161600000Y-79400000D02*
X161600000Y-77500000D01*
X160700000Y-80300000D02*
X161600000Y-79400000D01*
G04 #@! TO.N,Net-(U50-Pad2)*
X158400000Y-72500000D02*
X158400000Y-70200000D01*
X159500000Y-69100000D02*
X167500000Y-69100000D01*
X158400000Y-70200000D02*
X159500000Y-69100000D01*
G04 #@! TO.N,Net-(U51-Pad2)*
X172500000Y-65900000D02*
X174200000Y-65900000D01*
X174200000Y-65900000D02*
X174800000Y-66500000D01*
X174800000Y-66500000D02*
X174800000Y-68500000D01*
X175400000Y-69100000D02*
X177500000Y-69100000D01*
X174800000Y-68500000D02*
X175400000Y-69100000D01*
G04 #@! TO.N,Net-(U52-Pad2)*
X187200000Y-69100000D02*
X187500000Y-69100000D01*
X184500000Y-66400000D02*
X187200000Y-69100000D01*
X182500000Y-65900000D02*
X184500000Y-65900000D01*
X184500000Y-65900000D02*
X184500000Y-66400000D01*
G04 #@! TO.N,Net-(U53-Pad2)*
X198400000Y-70100000D02*
X198400000Y-72500000D01*
X192500000Y-65900000D02*
X194200000Y-65900000D01*
X194200000Y-65900000D02*
X198400000Y-70100000D01*
G04 #@! TO.N,Net-(U54-Pad2)*
X198400000Y-80800000D02*
X198400000Y-82500000D01*
X199300000Y-79900000D02*
X198400000Y-80800000D01*
X200900000Y-79900000D02*
X199300000Y-79900000D01*
X201600000Y-79200000D02*
X200900000Y-79900000D01*
X201600000Y-77500000D02*
X201600000Y-79200000D01*
G04 #@! TO.N,Net-(U55-Pad2)*
X198400000Y-90800000D02*
X198400000Y-92500000D01*
X199100000Y-90100000D02*
X198400000Y-90800000D01*
X200700000Y-90100000D02*
X199100000Y-90100000D01*
X201600000Y-89200000D02*
X200700000Y-90100000D01*
X201600000Y-87500000D02*
X201600000Y-89200000D01*
G04 #@! TO.N,Net-(U56-Pad2)*
X201600000Y-99200000D02*
X201300000Y-99500000D01*
X201600000Y-97500000D02*
X201600000Y-99200000D01*
X201300000Y-99500000D02*
X201300000Y-102700000D01*
X198400000Y-105600000D02*
X198400000Y-107500000D01*
X201300000Y-102700000D02*
X198400000Y-105600000D01*
G04 #@! TO.N,Net-(U57-Pad2)*
X198400000Y-115800000D02*
X198900000Y-115300000D01*
X198400000Y-117500000D02*
X198400000Y-115800000D01*
X198900000Y-115300000D02*
X200500000Y-115300000D01*
X201600000Y-114200000D02*
X201600000Y-112500000D01*
X200500000Y-115300000D02*
X201600000Y-114200000D01*
G04 #@! TO.N,Net-(U58-Pad2)*
X201600000Y-124200000D02*
X201600000Y-122500000D01*
X200700000Y-125100000D02*
X201600000Y-124200000D01*
X199100000Y-125100000D02*
X200700000Y-125100000D01*
X198400000Y-125800000D02*
X199100000Y-125100000D01*
X198400000Y-127500000D02*
X198400000Y-125800000D01*
G04 #@! TO.N,Net-(U59-Pad2)*
X199900000Y-135900000D02*
X192500000Y-135900000D01*
X201600000Y-132500000D02*
X201600000Y-134200000D01*
X201600000Y-134200000D02*
X199900000Y-135900000D01*
G04 #@! TO.N,Net-(U60-Pad2)*
X185800000Y-139100000D02*
X185500000Y-138800000D01*
X187500000Y-139100000D02*
X185800000Y-139100000D01*
X185500000Y-138800000D02*
X185500000Y-137400000D01*
X182800000Y-135900000D02*
X182500000Y-135900000D01*
X184300000Y-137400000D02*
X182800000Y-135900000D01*
X185500000Y-137400000D02*
X184300000Y-137400000D01*
G04 #@! TO.N,Net-(U61-Pad2)*
X174300000Y-135900000D02*
X172500000Y-135900000D01*
X175800000Y-137400000D02*
X174300000Y-135900000D01*
X177500000Y-139100000D02*
X175800000Y-139100000D01*
X175800000Y-139100000D02*
X175800000Y-137400000D01*
G04 #@! TO.N,Net-(U62-Pad2)*
X169200000Y-139100000D02*
X169500000Y-138800000D01*
X167500000Y-139100000D02*
X169200000Y-139100000D01*
X169500000Y-138800000D02*
X169500000Y-110200000D01*
X167500000Y-108200000D02*
X167500000Y-104100000D01*
X169500000Y-110200000D02*
X167500000Y-108200000D01*
G04 #@! TO.N,Net-(U63-Pad2)*
X172500000Y-100900000D02*
X174000000Y-100900000D01*
X174000000Y-100900000D02*
X174900000Y-101800000D01*
X174900000Y-101800000D02*
X174900000Y-103400000D01*
X175600000Y-104100000D02*
X177500000Y-104100000D01*
X174900000Y-103400000D02*
X175600000Y-104100000D01*
G04 #@! TO.N,Net-(U64-Pad2)*
X184200000Y-100900000D02*
X184800000Y-101500000D01*
X182500000Y-100900000D02*
X184200000Y-100900000D01*
X184800000Y-101500000D02*
X184800000Y-103200000D01*
X185700000Y-104100000D02*
X187500000Y-104100000D01*
X184800000Y-103200000D02*
X185700000Y-104100000D01*
G04 #@! TO.N,Net-(U65-Pad2)*
X216600000Y-132800000D02*
X215000000Y-134400000D01*
X216600000Y-132500000D02*
X216600000Y-132800000D01*
X215000000Y-134400000D02*
X215000000Y-137000000D01*
X215000000Y-137000000D02*
X214000000Y-137000000D01*
X214000000Y-137000000D02*
X214000000Y-135000000D01*
X192500000Y-100900000D02*
X192500000Y-97500000D01*
X192500000Y-97500000D02*
X192000000Y-97000000D01*
G04 #@! TO.N,Net-(U66-Pad2)*
X213400000Y-127500000D02*
X213400000Y-125200000D01*
X213400000Y-125200000D02*
X213700000Y-124900000D01*
X216600000Y-122800000D02*
X216600000Y-122500000D01*
X214500000Y-124900000D02*
X216600000Y-122800000D01*
X213700000Y-124900000D02*
X214500000Y-124900000D01*
G04 #@! TO.N,Net-(U67-Pad2)*
X213400000Y-115800000D02*
X214100000Y-115100000D01*
X213400000Y-117500000D02*
X213400000Y-115800000D01*
X214100000Y-115100000D02*
X215800000Y-115100000D01*
X216600000Y-114300000D02*
X216600000Y-112500000D01*
X215800000Y-115100000D02*
X216600000Y-114300000D01*
G04 #@! TO.N,Net-(U68-Pad2)*
X216600000Y-100900000D02*
X216600000Y-97500000D01*
X216600000Y-102600000D02*
X216600000Y-100900000D01*
X213400000Y-107500000D02*
X213400000Y-105800000D01*
X213400000Y-105800000D02*
X216600000Y-102600000D01*
G04 #@! TO.N,Net-(U69-Pad2)*
X213400000Y-90800000D02*
X213400000Y-92500000D01*
X214000000Y-90200000D02*
X213400000Y-90800000D01*
X215600000Y-90200000D02*
X214000000Y-90200000D01*
X216600000Y-89200000D02*
X215600000Y-90200000D01*
X216600000Y-87500000D02*
X216600000Y-89200000D01*
G04 #@! TO.N,Net-(U70-Pad2)*
X213400000Y-80800000D02*
X214000000Y-80200000D01*
X213400000Y-82500000D02*
X213400000Y-80800000D01*
X214000000Y-80200000D02*
X216000000Y-80200000D01*
X216600000Y-79600000D02*
X216600000Y-77500000D01*
X216000000Y-80200000D02*
X216600000Y-79600000D01*
G04 #@! TO.N,Net-(U71-Pad2)*
X215100000Y-69100000D02*
X222500000Y-69100000D01*
X213400000Y-72500000D02*
X213400000Y-70800000D01*
X213400000Y-70800000D02*
X215100000Y-69100000D01*
G04 #@! TO.N,Net-(U72-Pad2)*
X229200000Y-65900000D02*
X229900000Y-66600000D01*
X227500000Y-65900000D02*
X229200000Y-65900000D01*
X229900000Y-66600000D02*
X229900000Y-68500000D01*
X229900000Y-68500000D02*
X230500000Y-69100000D01*
X230500000Y-69100000D02*
X232500000Y-69100000D01*
G04 #@! TO.N,Net-(U73-Pad2)*
X237800000Y-65900000D02*
X237900000Y-65800000D01*
X237500000Y-65900000D02*
X237800000Y-65900000D01*
X237900000Y-65800000D02*
X238200000Y-65800000D01*
X238200000Y-65800000D02*
X240100000Y-67700000D01*
X242200000Y-69100000D02*
X242500000Y-69100000D01*
X240800000Y-67700000D02*
X242200000Y-69100000D01*
X240100000Y-67700000D02*
X240800000Y-67700000D01*
G04 #@! TO.N,Net-(U74-Pad2)*
X253400000Y-70100000D02*
X253400000Y-72500000D01*
X247500000Y-65900000D02*
X249200000Y-65900000D01*
X249200000Y-65900000D02*
X253400000Y-70100000D01*
G04 #@! TO.N,Net-(U75-Pad2)*
X253400000Y-80800000D02*
X253400000Y-82500000D01*
X253900000Y-80300000D02*
X253400000Y-80800000D01*
X255500000Y-80300000D02*
X253900000Y-80300000D01*
X256600000Y-79200000D02*
X255500000Y-80300000D01*
X256600000Y-77500000D02*
X256600000Y-79200000D01*
G04 #@! TO.N,Net-(U76-Pad2)*
X256600000Y-87500000D02*
X256600000Y-88700000D01*
X256600000Y-88700000D02*
X255500000Y-89800000D01*
X255500000Y-89800000D02*
X254200000Y-89800000D01*
X254200000Y-89800000D02*
X253400000Y-90600000D01*
X253400000Y-90600000D02*
X253400000Y-92500000D01*
G04 #@! TO.N,Net-(U77-Pad2)*
X253400000Y-105800000D02*
X256600000Y-102600000D01*
X253400000Y-107500000D02*
X253400000Y-105800000D01*
X256600000Y-102600000D02*
X256600000Y-97500000D01*
G04 #@! TO.N,Net-(U78-Pad2)*
X256600000Y-114200000D02*
X256600000Y-112500000D01*
X256200000Y-114600000D02*
X256600000Y-114200000D01*
X254600000Y-114600000D02*
X256200000Y-114600000D01*
X253400000Y-115800000D02*
X254600000Y-114600000D01*
X253400000Y-117500000D02*
X253400000Y-115800000D01*
G04 #@! TO.N,Net-(U79-Pad2)*
X253400000Y-125800000D02*
X253400000Y-127500000D01*
X254400000Y-124800000D02*
X253400000Y-125800000D01*
X256400000Y-124800000D02*
X254400000Y-124800000D01*
X256600000Y-124600000D02*
X256400000Y-124800000D01*
X256600000Y-122500000D02*
X256600000Y-124600000D01*
G04 #@! TO.N,Net-(U80-Pad2)*
X254400000Y-135900000D02*
X247500000Y-135900000D01*
X256600000Y-132500000D02*
X256600000Y-133700000D01*
X256600000Y-133700000D02*
X254400000Y-135900000D01*
G04 #@! TO.N,Net-(U81-Pad2)*
X239400000Y-135900000D02*
X237500000Y-135900000D01*
X240200000Y-136700000D02*
X239400000Y-135900000D01*
X240200000Y-138500000D02*
X240200000Y-136700000D01*
X242500000Y-139100000D02*
X240800000Y-139100000D01*
X240800000Y-139100000D02*
X240200000Y-138500000D01*
G04 #@! TO.N,Net-(U82-Pad2)*
X232500000Y-139100000D02*
X230300000Y-139100000D01*
X230300000Y-139100000D02*
X229500000Y-138300000D01*
X227800000Y-135900000D02*
X227500000Y-135900000D01*
X229500000Y-137600000D02*
X227800000Y-135900000D01*
X229500000Y-138300000D02*
X229500000Y-137600000D01*
G04 #@! TO.N,Net-(U83-Pad2)*
X222500000Y-130200000D02*
X222500000Y-104100000D01*
X225100000Y-132800000D02*
X222500000Y-130200000D01*
X225100000Y-138200000D02*
X225100000Y-132800000D01*
X222500000Y-139100000D02*
X224200000Y-139100000D01*
X224200000Y-139100000D02*
X225100000Y-138200000D01*
G04 #@! TO.N,Net-(U84-Pad2)*
X230800000Y-104100000D02*
X232500000Y-104100000D01*
X230000000Y-103300000D02*
X230800000Y-104100000D01*
X230000000Y-101700000D02*
X230000000Y-103300000D01*
X229200000Y-100900000D02*
X230000000Y-101700000D01*
X227500000Y-100900000D02*
X229200000Y-100900000D01*
G04 #@! TO.N,Net-(U85-Pad2)*
X240800000Y-104100000D02*
X242500000Y-104100000D01*
X240100000Y-103400000D02*
X240800000Y-104100000D01*
X240100000Y-101800000D02*
X240100000Y-103400000D01*
X239200000Y-100900000D02*
X240100000Y-101800000D01*
X237500000Y-100900000D02*
X239200000Y-100900000D01*
G04 #@! TD*
D25*
G04 #@! TO.N,Net-(U42-Pad2)*
G36*
X141873000Y-102873000D02*
X138127000Y-102873000D01*
X138127000Y-99127000D01*
X141873000Y-99127000D01*
X141873000Y-102873000D01*
X141873000Y-102873000D01*
G37*
X141873000Y-102873000D02*
X138127000Y-102873000D01*
X138127000Y-99127000D01*
X141873000Y-99127000D01*
X141873000Y-102873000D01*
G36*
X122873000Y-97873000D02*
X120127000Y-97873000D01*
X120127000Y-95127000D01*
X122873000Y-95127000D01*
X122873000Y-97873000D01*
X122873000Y-97873000D01*
G37*
X122873000Y-97873000D02*
X120127000Y-97873000D01*
X120127000Y-95127000D01*
X122873000Y-95127000D01*
X122873000Y-97873000D01*
G04 #@! TO.N,+5V*
G36*
X94873000Y-140873000D02*
X89127000Y-140873000D01*
X89127000Y-138127000D01*
X94873000Y-138127000D01*
X94873000Y-140873000D01*
X94873000Y-140873000D01*
G37*
X94873000Y-140873000D02*
X89127000Y-140873000D01*
X89127000Y-138127000D01*
X94873000Y-138127000D01*
X94873000Y-140873000D01*
G04 #@! TO.N,DIN*
G36*
X35873000Y-145873000D02*
X29127000Y-145873000D01*
X29127000Y-137127000D01*
X35873000Y-137127000D01*
X35873000Y-145873000D01*
X35873000Y-145873000D01*
G37*
X35873000Y-145873000D02*
X29127000Y-145873000D01*
X29127000Y-137127000D01*
X35873000Y-137127000D01*
X35873000Y-145873000D01*
G04 #@! TO.N,Net-(U21-Pad2)*
G36*
X65873000Y-95873000D02*
X62127000Y-95873000D01*
X62127000Y-92127000D01*
X65873000Y-92127000D01*
X65873000Y-95873000D01*
X65873000Y-95873000D01*
G37*
X65873000Y-95873000D02*
X62127000Y-95873000D01*
X62127000Y-92127000D01*
X65873000Y-92127000D01*
X65873000Y-95873000D01*
G36*
X83615000Y-104873000D02*
X81785000Y-104873000D01*
X81785000Y-99127000D01*
X83615001Y-99127000D01*
X83615000Y-104873000D01*
X83615000Y-104873000D01*
G37*
X83615000Y-104873000D02*
X81785000Y-104873000D01*
X81785000Y-99127000D01*
X83615001Y-99127000D01*
X83615000Y-104873000D01*
G04 #@! TO.N,Net-(U44-Pad2)*
G36*
X152873000Y-140873000D02*
X146127000Y-140873000D01*
X146127000Y-137127000D01*
X152873000Y-137127000D01*
X152873000Y-140873000D01*
X152873000Y-140873000D01*
G37*
X152873000Y-140873000D02*
X146127000Y-140873000D01*
X146127000Y-137127000D01*
X152873000Y-137127000D01*
X152873000Y-140873000D01*
D26*
G36*
X157900000Y-134829386D02*
X158900000Y-134829386D01*
X159061690Y-134797224D01*
X159683864Y-135419398D01*
X160602719Y-135800000D01*
X160725000Y-135800000D01*
X161099998Y-135425002D01*
X161099998Y-135799770D01*
X158342395Y-139660414D01*
X157250000Y-138568020D01*
X157250000Y-134750000D01*
X157500901Y-134750000D01*
X157900000Y-134829386D01*
X157900000Y-134829386D01*
G37*
X157900000Y-134829386D02*
X158900000Y-134829386D01*
X159061690Y-134797224D01*
X159683864Y-135419398D01*
X160602719Y-135800000D01*
X160725000Y-135800000D01*
X161099998Y-135425002D01*
X161099998Y-135799770D01*
X158342395Y-139660414D01*
X157250000Y-138568020D01*
X157250000Y-134750000D01*
X157500901Y-134750000D01*
X157900000Y-134829386D01*
D25*
G04 #@! TO.N,+5V*
G36*
X164873000Y-137052606D02*
X164873000Y-140873000D01*
X160264239Y-140873000D01*
X164010530Y-136190136D01*
X164873000Y-137052606D01*
X164873000Y-137052606D01*
G37*
X164873000Y-137052606D02*
X164873000Y-140873000D01*
X160264239Y-140873000D01*
X164010530Y-136190136D01*
X164873000Y-137052606D01*
D27*
G36*
X30837122Y-143912879D02*
X31829459Y-144575938D01*
X33000000Y-144808773D01*
X34170542Y-144575938D01*
X35162879Y-143912879D01*
X35400000Y-143558003D01*
X35400000Y-144104532D01*
X35341228Y-144400000D01*
X35400000Y-144695468D01*
X35400000Y-144695472D01*
X35574062Y-145570542D01*
X35643859Y-145675000D01*
X30325000Y-145675000D01*
X30325000Y-143146435D01*
X30837122Y-143912879D01*
X30837122Y-143912879D01*
G37*
X30837122Y-143912879D02*
X31829459Y-144575938D01*
X33000000Y-144808773D01*
X34170542Y-144575938D01*
X35162879Y-143912879D01*
X35400000Y-143558003D01*
X35400000Y-144104532D01*
X35341228Y-144400000D01*
X35400000Y-144695468D01*
X35400000Y-144695472D01*
X35574062Y-145570542D01*
X35643859Y-145675000D01*
X30325000Y-145675000D01*
X30325000Y-143146435D01*
X30837122Y-143912879D01*
G36*
X258675001Y-145675000D02*
X222523963Y-145675000D01*
X222558773Y-145500000D01*
X222459317Y-145000000D01*
X227204528Y-145000000D01*
X227500000Y-145058773D01*
X227795472Y-145000000D01*
X237204528Y-145000000D01*
X237500000Y-145058773D01*
X237795472Y-145000000D01*
X247704532Y-145000000D01*
X248000000Y-145058772D01*
X248295468Y-145000000D01*
X256704532Y-145000000D01*
X257000000Y-145058772D01*
X257295468Y-145000000D01*
X257295472Y-145000000D01*
X258170542Y-144825938D01*
X258675001Y-144488869D01*
X258675001Y-145675000D01*
X258675001Y-145675000D01*
G37*
X258675001Y-145675000D02*
X222523963Y-145675000D01*
X222558773Y-145500000D01*
X222459317Y-145000000D01*
X227204528Y-145000000D01*
X227500000Y-145058773D01*
X227795472Y-145000000D01*
X237204528Y-145000000D01*
X237500000Y-145058773D01*
X237795472Y-145000000D01*
X247704532Y-145000000D01*
X248000000Y-145058772D01*
X248295468Y-145000000D01*
X256704532Y-145000000D01*
X257000000Y-145058772D01*
X257295468Y-145000000D01*
X257295472Y-145000000D01*
X258170542Y-144825938D01*
X258675001Y-144488869D01*
X258675001Y-145675000D01*
G36*
X44500000Y-142204532D02*
X44441228Y-142500000D01*
X41400000Y-142500000D01*
X41400000Y-142492640D01*
X41662388Y-142230252D01*
X41912879Y-142062879D01*
X42025667Y-141894080D01*
X43300000Y-141894080D01*
X43772973Y-141800000D01*
X43934078Y-141800000D01*
X44200000Y-141852895D01*
X44465922Y-141800000D01*
X44465926Y-141800000D01*
X44500000Y-141793222D01*
X44500000Y-142204532D01*
X44500000Y-142204532D01*
G37*
X44500000Y-142204532D02*
X44441228Y-142500000D01*
X41400000Y-142500000D01*
X41400000Y-142492640D01*
X41662388Y-142230252D01*
X41912879Y-142062879D01*
X42025667Y-141894080D01*
X43300000Y-141894080D01*
X43772973Y-141800000D01*
X43934078Y-141800000D01*
X44200000Y-141852895D01*
X44465922Y-141800000D01*
X44465926Y-141800000D01*
X44500000Y-141793222D01*
X44500000Y-142204532D01*
G36*
X90400000Y-139058772D02*
X90637860Y-139011459D01*
X90441228Y-140000000D01*
X88742641Y-140000000D01*
X88000000Y-139257360D01*
X88000000Y-139000000D01*
X90104532Y-139000000D01*
X90400000Y-139058772D01*
X90400000Y-139058772D01*
G37*
X90400000Y-139058772D02*
X90637860Y-139011459D01*
X90441228Y-140000000D01*
X88742641Y-140000000D01*
X88000000Y-139257360D01*
X88000000Y-139000000D01*
X90104532Y-139000000D01*
X90400000Y-139058772D01*
G36*
X77400001Y-138957358D02*
X76357360Y-140000000D01*
X70514515Y-140000000D01*
X70594080Y-139600000D01*
X70594080Y-138600000D01*
X75234078Y-138600000D01*
X75500000Y-138652895D01*
X75765922Y-138600000D01*
X75765926Y-138600000D01*
X76553488Y-138443344D01*
X77400001Y-137877722D01*
X77400001Y-138957358D01*
X77400001Y-138957358D01*
G37*
X77400001Y-138957358D02*
X76357360Y-140000000D01*
X70514515Y-140000000D01*
X70594080Y-139600000D01*
X70594080Y-138600000D01*
X75234078Y-138600000D01*
X75500000Y-138652895D01*
X75765922Y-138600000D01*
X75765926Y-138600000D01*
X76553488Y-138443344D01*
X77400001Y-137877722D01*
X77400001Y-138957358D01*
G36*
X133000001Y-137257358D02*
X130257360Y-140000000D01*
X125514515Y-140000000D01*
X125594080Y-139600000D01*
X125594080Y-138600000D01*
X129634078Y-138600000D01*
X129900000Y-138652895D01*
X130165922Y-138600000D01*
X130165926Y-138600000D01*
X130953488Y-138443344D01*
X131846591Y-137846591D01*
X131997226Y-137621150D01*
X133000001Y-136618375D01*
X133000001Y-137257358D01*
X133000001Y-137257358D01*
G37*
X133000001Y-137257358D02*
X130257360Y-140000000D01*
X125514515Y-140000000D01*
X125594080Y-139600000D01*
X125594080Y-138600000D01*
X129634078Y-138600000D01*
X129900000Y-138652895D01*
X130165922Y-138600000D01*
X130165926Y-138600000D01*
X130953488Y-138443344D01*
X131846591Y-137846591D01*
X131997226Y-137621150D01*
X133000001Y-136618375D01*
X133000001Y-137257358D01*
G36*
X149500001Y-134750000D02*
X146000000Y-134750000D01*
X145138962Y-134921271D01*
X144409010Y-135409010D01*
X143921271Y-136138962D01*
X143750000Y-137000000D01*
X143750000Y-140000000D01*
X138605801Y-140000000D01*
X138825938Y-139670542D01*
X138865255Y-139472882D01*
X139000000Y-138795472D01*
X139000000Y-138795469D01*
X139058772Y-138500001D01*
X139000000Y-138204533D01*
X139000000Y-127795471D01*
X139058773Y-127500000D01*
X139000000Y-127204528D01*
X139000000Y-117795471D01*
X139058773Y-117500000D01*
X139000000Y-117204528D01*
X139000000Y-115500000D01*
X142427027Y-115500000D01*
X142900000Y-115594080D01*
X143900000Y-115594080D01*
X144777906Y-115419454D01*
X145000000Y-115271056D01*
X145222094Y-115419454D01*
X146100000Y-115594080D01*
X147100000Y-115594080D01*
X147977906Y-115419454D01*
X148722160Y-114922160D01*
X149219454Y-114177906D01*
X149394080Y-113300000D01*
X149394080Y-111700000D01*
X149300000Y-111227027D01*
X149300000Y-111065922D01*
X149352895Y-110800000D01*
X149300000Y-110534078D01*
X149300000Y-110534075D01*
X149278084Y-110423894D01*
X149500000Y-110379752D01*
X149500001Y-134750000D01*
X149500001Y-134750000D01*
G37*
X149500001Y-134750000D02*
X146000000Y-134750000D01*
X145138962Y-134921271D01*
X144409010Y-135409010D01*
X143921271Y-136138962D01*
X143750000Y-137000000D01*
X143750000Y-140000000D01*
X138605801Y-140000000D01*
X138825938Y-139670542D01*
X138865255Y-139472882D01*
X139000000Y-138795472D01*
X139000000Y-138795469D01*
X139058772Y-138500001D01*
X139000000Y-138204533D01*
X139000000Y-127795471D01*
X139058773Y-127500000D01*
X139000000Y-127204528D01*
X139000000Y-117795471D01*
X139058773Y-117500000D01*
X139000000Y-117204528D01*
X139000000Y-115500000D01*
X142427027Y-115500000D01*
X142900000Y-115594080D01*
X143900000Y-115594080D01*
X144777906Y-115419454D01*
X145000000Y-115271056D01*
X145222094Y-115419454D01*
X146100000Y-115594080D01*
X147100000Y-115594080D01*
X147977906Y-115419454D01*
X148722160Y-114922160D01*
X149219454Y-114177906D01*
X149394080Y-113300000D01*
X149394080Y-111700000D01*
X149300000Y-111227027D01*
X149300000Y-111065922D01*
X149352895Y-110800000D01*
X149300000Y-110534078D01*
X149300000Y-110534075D01*
X149278084Y-110423894D01*
X149500000Y-110379752D01*
X149500001Y-134750000D01*
G36*
X201000000Y-139257360D02*
X200587612Y-139669748D01*
X200337121Y-139837121D01*
X200228289Y-140000000D01*
X195514515Y-140000000D01*
X195594080Y-139600000D01*
X195594080Y-138600000D01*
X199634078Y-138600000D01*
X199900000Y-138652895D01*
X200165922Y-138600000D01*
X200165926Y-138600000D01*
X200953488Y-138443344D01*
X201000000Y-138412266D01*
X201000000Y-139257360D01*
X201000000Y-139257360D01*
G37*
X201000000Y-139257360D02*
X200587612Y-139669748D01*
X200337121Y-139837121D01*
X200228289Y-140000000D01*
X195514515Y-140000000D01*
X195594080Y-139600000D01*
X195594080Y-138600000D01*
X199634078Y-138600000D01*
X199900000Y-138652895D01*
X200165922Y-138600000D01*
X200165926Y-138600000D01*
X200953488Y-138443344D01*
X201000000Y-138412266D01*
X201000000Y-139257360D01*
G36*
X36750001Y-138657359D02*
X36487612Y-138919748D01*
X36237121Y-139087121D01*
X36000000Y-139441998D01*
X36000000Y-138242640D01*
X36750000Y-137492640D01*
X36750001Y-138657359D01*
X36750001Y-138657359D01*
G37*
X36750001Y-138657359D02*
X36487612Y-138919748D01*
X36237121Y-139087121D01*
X36000000Y-139441998D01*
X36000000Y-138242640D01*
X36750000Y-137492640D01*
X36750001Y-138657359D01*
G36*
X256500001Y-138257358D02*
X255757360Y-139000000D01*
X250594080Y-139000000D01*
X250594080Y-138600000D01*
X254134078Y-138600000D01*
X254400000Y-138652895D01*
X254665922Y-138600000D01*
X254665926Y-138600000D01*
X255453488Y-138443344D01*
X256346591Y-137846591D01*
X256497226Y-137621150D01*
X256500001Y-137618375D01*
X256500001Y-138257358D01*
X256500001Y-138257358D01*
G37*
X256500001Y-138257358D02*
X255757360Y-139000000D01*
X250594080Y-139000000D01*
X250594080Y-138600000D01*
X254134078Y-138600000D01*
X254400000Y-138652895D01*
X254665922Y-138600000D01*
X254665926Y-138600000D01*
X255453488Y-138443344D01*
X256346591Y-137846591D01*
X256497226Y-137621150D01*
X256500001Y-137618375D01*
X256500001Y-138257358D01*
G36*
X30418874Y-135463071D02*
X30325000Y-135603564D01*
X30325000Y-135444399D01*
X30418874Y-135463071D01*
X30418874Y-135463071D01*
G37*
X30418874Y-135463071D02*
X30325000Y-135603564D01*
X30325000Y-135444399D01*
X30418874Y-135463071D01*
G36*
X225337121Y-106662879D02*
X225587612Y-106830252D01*
X226669748Y-107912388D01*
X226837121Y-108162879D01*
X227829458Y-108825938D01*
X228704528Y-109000000D01*
X228704532Y-109000000D01*
X228999999Y-109058772D01*
X229295466Y-109000000D01*
X237204528Y-109000000D01*
X237500000Y-109058773D01*
X237795472Y-109000000D01*
X246704532Y-109000000D01*
X247000000Y-109058772D01*
X247000001Y-109058772D01*
X247000000Y-112204527D01*
X246941227Y-112500000D01*
X247000001Y-112795477D01*
X247000000Y-122204528D01*
X246941227Y-122500000D01*
X247000001Y-122795477D01*
X247000000Y-130000000D01*
X242795472Y-130000000D01*
X242500000Y-129941227D01*
X242204528Y-130000000D01*
X233695466Y-130000000D01*
X233399999Y-129941228D01*
X233104532Y-130000000D01*
X233104528Y-130000000D01*
X232229458Y-130174062D01*
X231237121Y-130837121D01*
X231069748Y-131087612D01*
X230587610Y-131569750D01*
X230337122Y-131737121D01*
X229674062Y-132729458D01*
X229519097Y-133508522D01*
X229177906Y-133280546D01*
X228300000Y-133105920D01*
X227800000Y-133105920D01*
X227800000Y-133065921D01*
X227852895Y-132799999D01*
X227800000Y-132534077D01*
X227800000Y-132534074D01*
X227643344Y-131746512D01*
X227609240Y-131695472D01*
X227197226Y-131078849D01*
X227197224Y-131078847D01*
X227046591Y-130853409D01*
X226821153Y-130702776D01*
X225200000Y-129081624D01*
X225200000Y-106457663D01*
X225337121Y-106662879D01*
X225337121Y-106662879D01*
G37*
X225337121Y-106662879D02*
X225587612Y-106830252D01*
X226669748Y-107912388D01*
X226837121Y-108162879D01*
X227829458Y-108825938D01*
X228704528Y-109000000D01*
X228704532Y-109000000D01*
X228999999Y-109058772D01*
X229295466Y-109000000D01*
X237204528Y-109000000D01*
X237500000Y-109058773D01*
X237795472Y-109000000D01*
X246704532Y-109000000D01*
X247000000Y-109058772D01*
X247000001Y-109058772D01*
X247000000Y-112204527D01*
X246941227Y-112500000D01*
X247000001Y-112795477D01*
X247000000Y-122204528D01*
X246941227Y-122500000D01*
X247000001Y-122795477D01*
X247000000Y-130000000D01*
X242795472Y-130000000D01*
X242500000Y-129941227D01*
X242204528Y-130000000D01*
X233695466Y-130000000D01*
X233399999Y-129941228D01*
X233104532Y-130000000D01*
X233104528Y-130000000D01*
X232229458Y-130174062D01*
X231237121Y-130837121D01*
X231069748Y-131087612D01*
X230587610Y-131569750D01*
X230337122Y-131737121D01*
X229674062Y-132729458D01*
X229519097Y-133508522D01*
X229177906Y-133280546D01*
X228300000Y-133105920D01*
X227800000Y-133105920D01*
X227800000Y-133065921D01*
X227852895Y-132799999D01*
X227800000Y-132534077D01*
X227800000Y-132534074D01*
X227643344Y-131746512D01*
X227609240Y-131695472D01*
X227197226Y-131078849D01*
X227197224Y-131078847D01*
X227046591Y-130853409D01*
X226821153Y-130702776D01*
X225200000Y-129081624D01*
X225200000Y-106457663D01*
X225337121Y-106662879D01*
G36*
X100337122Y-108262879D02*
X100587610Y-108430250D01*
X101069748Y-108912388D01*
X101237121Y-109162879D01*
X102229458Y-109825938D01*
X103104528Y-110000000D01*
X103104532Y-110000000D01*
X103399999Y-110058772D01*
X103695466Y-110000000D01*
X112204528Y-110000000D01*
X112500000Y-110058773D01*
X112795472Y-110000000D01*
X122204528Y-110000000D01*
X122270478Y-110013118D01*
X122500000Y-110242640D01*
X122500001Y-112204523D01*
X122441227Y-112500000D01*
X122500000Y-112795471D01*
X122500001Y-121704524D01*
X122500000Y-121704529D01*
X122500000Y-121704532D01*
X122441228Y-122000000D01*
X122500000Y-122295468D01*
X122500001Y-129257359D01*
X121257360Y-130500000D01*
X117795472Y-130500000D01*
X117500000Y-130441227D01*
X117204528Y-130500000D01*
X107795472Y-130500000D01*
X107500000Y-130441227D01*
X107204528Y-130500000D01*
X106329458Y-130674062D01*
X105337121Y-131337121D01*
X104674062Y-132329458D01*
X104499569Y-133206692D01*
X104465926Y-133200000D01*
X104465922Y-133200000D01*
X104200000Y-133147105D01*
X103934078Y-133200000D01*
X103772973Y-133200000D01*
X103300000Y-133105920D01*
X102800000Y-133105920D01*
X102800000Y-131065921D01*
X102852895Y-130799999D01*
X102800000Y-130534077D01*
X102800000Y-130534074D01*
X102643344Y-129746512D01*
X102517900Y-129558772D01*
X102197226Y-129078849D01*
X102197224Y-129078847D01*
X102046591Y-128853409D01*
X101821153Y-128702776D01*
X100200000Y-127081624D01*
X100200000Y-108057662D01*
X100337122Y-108262879D01*
X100337122Y-108262879D01*
G37*
X100337122Y-108262879D02*
X100587610Y-108430250D01*
X101069748Y-108912388D01*
X101237121Y-109162879D01*
X102229458Y-109825938D01*
X103104528Y-110000000D01*
X103104532Y-110000000D01*
X103399999Y-110058772D01*
X103695466Y-110000000D01*
X112204528Y-110000000D01*
X112500000Y-110058773D01*
X112795472Y-110000000D01*
X122204528Y-110000000D01*
X122270478Y-110013118D01*
X122500000Y-110242640D01*
X122500001Y-112204523D01*
X122441227Y-112500000D01*
X122500000Y-112795471D01*
X122500001Y-121704524D01*
X122500000Y-121704529D01*
X122500000Y-121704532D01*
X122441228Y-122000000D01*
X122500000Y-122295468D01*
X122500001Y-129257359D01*
X121257360Y-130500000D01*
X117795472Y-130500000D01*
X117500000Y-130441227D01*
X117204528Y-130500000D01*
X107795472Y-130500000D01*
X107500000Y-130441227D01*
X107204528Y-130500000D01*
X106329458Y-130674062D01*
X105337121Y-131337121D01*
X104674062Y-132329458D01*
X104499569Y-133206692D01*
X104465926Y-133200000D01*
X104465922Y-133200000D01*
X104200000Y-133147105D01*
X103934078Y-133200000D01*
X103772973Y-133200000D01*
X103300000Y-133105920D01*
X102800000Y-133105920D01*
X102800000Y-131065921D01*
X102852895Y-130799999D01*
X102800000Y-130534077D01*
X102800000Y-130534074D01*
X102643344Y-129746512D01*
X102517900Y-129558772D01*
X102197226Y-129078849D01*
X102197224Y-129078847D01*
X102046591Y-128853409D01*
X101821153Y-128702776D01*
X100200000Y-127081624D01*
X100200000Y-108057662D01*
X100337122Y-108262879D01*
G36*
X172604528Y-109500000D02*
X172604532Y-109500000D01*
X172899999Y-109558772D01*
X173195466Y-109500000D01*
X182604532Y-109500000D01*
X182899999Y-109558772D01*
X183195466Y-109500000D01*
X192500001Y-109500000D01*
X192500001Y-111704524D01*
X192500000Y-111704529D01*
X192500000Y-111704532D01*
X192441228Y-112000000D01*
X192500000Y-112295468D01*
X192500001Y-122204523D01*
X192441227Y-122500000D01*
X192500000Y-122795471D01*
X192500001Y-128257359D01*
X191587611Y-129169749D01*
X191337121Y-129337121D01*
X191169748Y-129587612D01*
X190757360Y-130000000D01*
X188295468Y-130000000D01*
X188000000Y-129941228D01*
X187704532Y-130000000D01*
X178695466Y-130000000D01*
X178399999Y-129941228D01*
X178104532Y-130000000D01*
X178104528Y-130000000D01*
X177229458Y-130174062D01*
X176237121Y-130837121D01*
X176069748Y-131087612D01*
X175587612Y-131569748D01*
X175337121Y-131737121D01*
X174674062Y-132729459D01*
X174579912Y-133202782D01*
X174565926Y-133200000D01*
X174565922Y-133200000D01*
X174300000Y-133147105D01*
X174034078Y-133200000D01*
X173772973Y-133200000D01*
X173300000Y-133105920D01*
X172200000Y-133105920D01*
X172200000Y-110465921D01*
X172252895Y-110199999D01*
X172200000Y-109934077D01*
X172200000Y-109934074D01*
X172093435Y-109398337D01*
X172604528Y-109500000D01*
X172604528Y-109500000D01*
G37*
X172604528Y-109500000D02*
X172604532Y-109500000D01*
X172899999Y-109558772D01*
X173195466Y-109500000D01*
X182604532Y-109500000D01*
X182899999Y-109558772D01*
X183195466Y-109500000D01*
X192500001Y-109500000D01*
X192500001Y-111704524D01*
X192500000Y-111704529D01*
X192500000Y-111704532D01*
X192441228Y-112000000D01*
X192500000Y-112295468D01*
X192500001Y-122204523D01*
X192441227Y-122500000D01*
X192500000Y-122795471D01*
X192500001Y-128257359D01*
X191587611Y-129169749D01*
X191337121Y-129337121D01*
X191169748Y-129587612D01*
X190757360Y-130000000D01*
X188295468Y-130000000D01*
X188000000Y-129941228D01*
X187704532Y-130000000D01*
X178695466Y-130000000D01*
X178399999Y-129941228D01*
X178104532Y-130000000D01*
X178104528Y-130000000D01*
X177229458Y-130174062D01*
X176237121Y-130837121D01*
X176069748Y-131087612D01*
X175587612Y-131569748D01*
X175337121Y-131737121D01*
X174674062Y-132729459D01*
X174579912Y-133202782D01*
X174565926Y-133200000D01*
X174565922Y-133200000D01*
X174300000Y-133147105D01*
X174034078Y-133200000D01*
X173772973Y-133200000D01*
X173300000Y-133105920D01*
X172200000Y-133105920D01*
X172200000Y-110465921D01*
X172252895Y-110199999D01*
X172200000Y-109934077D01*
X172200000Y-109934074D01*
X172093435Y-109398337D01*
X172604528Y-109500000D01*
G36*
X48204528Y-109800000D02*
X48500000Y-109858773D01*
X48795472Y-109800000D01*
X57304532Y-109800000D01*
X57599999Y-109858772D01*
X57895466Y-109800000D01*
X66400001Y-109800000D01*
X66400001Y-111904525D01*
X66400000Y-111904529D01*
X66400000Y-111904532D01*
X66341228Y-112200000D01*
X66400000Y-112495468D01*
X66400001Y-122104523D01*
X66341227Y-122400000D01*
X66400000Y-122695471D01*
X66400001Y-129600000D01*
X63095472Y-129600000D01*
X62800000Y-129541227D01*
X62504528Y-129600000D01*
X53495466Y-129600000D01*
X53199999Y-129541228D01*
X52904532Y-129600000D01*
X52904528Y-129600000D01*
X52029458Y-129774062D01*
X51037121Y-130437121D01*
X50869748Y-130687612D01*
X50587612Y-130969748D01*
X50337121Y-131137121D01*
X49674062Y-132129459D01*
X49500000Y-133004529D01*
X49500000Y-133004532D01*
X49461302Y-133199080D01*
X49200000Y-133147104D01*
X48934074Y-133200000D01*
X48772973Y-133200000D01*
X48300000Y-133105920D01*
X47500000Y-133105920D01*
X47500000Y-110865921D01*
X47552895Y-110599999D01*
X47500000Y-110334075D01*
X47500000Y-110334074D01*
X47360366Y-109632086D01*
X48204528Y-109800000D01*
X48204528Y-109800000D01*
G37*
X48204528Y-109800000D02*
X48500000Y-109858773D01*
X48795472Y-109800000D01*
X57304532Y-109800000D01*
X57599999Y-109858772D01*
X57895466Y-109800000D01*
X66400001Y-109800000D01*
X66400001Y-111904525D01*
X66400000Y-111904529D01*
X66400000Y-111904532D01*
X66341228Y-112200000D01*
X66400000Y-112495468D01*
X66400001Y-122104523D01*
X66341227Y-122400000D01*
X66400000Y-122695471D01*
X66400001Y-129600000D01*
X63095472Y-129600000D01*
X62800000Y-129541227D01*
X62504528Y-129600000D01*
X53495466Y-129600000D01*
X53199999Y-129541228D01*
X52904532Y-129600000D01*
X52904528Y-129600000D01*
X52029458Y-129774062D01*
X51037121Y-130437121D01*
X50869748Y-130687612D01*
X50587612Y-130969748D01*
X50337121Y-131137121D01*
X49674062Y-132129459D01*
X49500000Y-133004529D01*
X49500000Y-133004532D01*
X49461302Y-133199080D01*
X49200000Y-133147104D01*
X48934074Y-133200000D01*
X48772973Y-133200000D01*
X48300000Y-133105920D01*
X47500000Y-133105920D01*
X47500000Y-110865921D01*
X47552895Y-110599999D01*
X47500000Y-110334075D01*
X47500000Y-110334074D01*
X47360366Y-109632086D01*
X48204528Y-109800000D01*
G36*
X133000001Y-104500000D02*
X132572973Y-104500000D01*
X132100000Y-104405920D01*
X131100000Y-104405920D01*
X131100000Y-104118376D01*
X131931400Y-103286976D01*
X132653488Y-103143344D01*
X133000001Y-102911811D01*
X133000001Y-104500000D01*
X133000001Y-104500000D01*
G37*
X133000001Y-104500000D02*
X132572973Y-104500000D01*
X132100000Y-104405920D01*
X131100000Y-104405920D01*
X131100000Y-104118376D01*
X131931400Y-103286976D01*
X132653488Y-103143344D01*
X133000001Y-102911811D01*
X133000001Y-104500000D01*
G36*
X77400001Y-104465594D02*
X77100000Y-104405920D01*
X76758478Y-104405920D01*
X77146591Y-104146591D01*
X77297226Y-103921150D01*
X77400001Y-103818375D01*
X77400001Y-104465594D01*
X77400001Y-104465594D01*
G37*
X77400001Y-104465594D02*
X77100000Y-104405920D01*
X76758478Y-104405920D01*
X77146591Y-104146591D01*
X77297226Y-103921150D01*
X77400001Y-103818375D01*
X77400001Y-104465594D01*
G36*
X213900000Y-101481623D02*
X213500000Y-101881623D01*
X213500000Y-100594080D01*
X213900000Y-100594080D01*
X213900000Y-101481623D01*
X213900000Y-101481623D01*
G37*
X213900000Y-101481623D02*
X213500000Y-101881623D01*
X213500000Y-100594080D01*
X213900000Y-100594080D01*
X213900000Y-101481623D01*
G36*
X227000000Y-75558773D02*
X227295472Y-75500000D01*
X236704528Y-75500000D01*
X237000000Y-75558773D01*
X237295472Y-75500000D01*
X247000000Y-75500000D01*
X247000000Y-77204528D01*
X246941227Y-77500000D01*
X247000001Y-77795477D01*
X247000000Y-86704528D01*
X246941227Y-87000000D01*
X247000001Y-87295477D01*
X247000000Y-97704532D01*
X246941228Y-98000000D01*
X246948361Y-98035861D01*
X246562500Y-97650000D01*
X246152991Y-97650000D01*
X245142250Y-98068663D01*
X245046838Y-98164075D01*
X245043344Y-98146512D01*
X245038299Y-98138962D01*
X244597226Y-97478849D01*
X244597222Y-97478845D01*
X244446590Y-97253409D01*
X244221154Y-97102778D01*
X242697226Y-95578850D01*
X242546591Y-95353409D01*
X241653488Y-94756656D01*
X240865926Y-94600000D01*
X240865922Y-94600000D01*
X240600000Y-94547105D01*
X240334078Y-94600000D01*
X232665926Y-94600000D01*
X232400000Y-94547104D01*
X232134074Y-94600000D01*
X228553983Y-94600000D01*
X228543344Y-94546512D01*
X228197859Y-94029458D01*
X228097226Y-93878850D01*
X228097224Y-93878848D01*
X227946590Y-93653409D01*
X227721152Y-93502776D01*
X227697226Y-93478850D01*
X227546591Y-93253409D01*
X226653488Y-92656656D01*
X225865926Y-92500000D01*
X225865922Y-92500000D01*
X225600000Y-92447105D01*
X225567735Y-92453523D01*
X224700000Y-92280920D01*
X223200000Y-92280920D01*
X222700000Y-92380376D01*
X222528180Y-92346199D01*
X222500000Y-92204528D01*
X222500000Y-82795471D01*
X222558773Y-82500000D01*
X222500000Y-82204528D01*
X222500000Y-76242640D01*
X223242641Y-75500000D01*
X226704528Y-75500000D01*
X227000000Y-75558773D01*
X227000000Y-75558773D01*
G37*
X227000000Y-75558773D02*
X227295472Y-75500000D01*
X236704528Y-75500000D01*
X237000000Y-75558773D01*
X237295472Y-75500000D01*
X247000000Y-75500000D01*
X247000000Y-77204528D01*
X246941227Y-77500000D01*
X247000001Y-77795477D01*
X247000000Y-86704528D01*
X246941227Y-87000000D01*
X247000001Y-87295477D01*
X247000000Y-97704532D01*
X246941228Y-98000000D01*
X246948361Y-98035861D01*
X246562500Y-97650000D01*
X246152991Y-97650000D01*
X245142250Y-98068663D01*
X245046838Y-98164075D01*
X245043344Y-98146512D01*
X245038299Y-98138962D01*
X244597226Y-97478849D01*
X244597222Y-97478845D01*
X244446590Y-97253409D01*
X244221154Y-97102778D01*
X242697226Y-95578850D01*
X242546591Y-95353409D01*
X241653488Y-94756656D01*
X240865926Y-94600000D01*
X240865922Y-94600000D01*
X240600000Y-94547105D01*
X240334078Y-94600000D01*
X232665926Y-94600000D01*
X232400000Y-94547104D01*
X232134074Y-94600000D01*
X228553983Y-94600000D01*
X228543344Y-94546512D01*
X228197859Y-94029458D01*
X228097226Y-93878850D01*
X228097224Y-93878848D01*
X227946590Y-93653409D01*
X227721152Y-93502776D01*
X227697226Y-93478850D01*
X227546591Y-93253409D01*
X226653488Y-92656656D01*
X225865926Y-92500000D01*
X225865922Y-92500000D01*
X225600000Y-92447105D01*
X225567735Y-92453523D01*
X224700000Y-92280920D01*
X223200000Y-92280920D01*
X222700000Y-92380376D01*
X222528180Y-92346199D01*
X222500000Y-92204528D01*
X222500000Y-82795471D01*
X222558773Y-82500000D01*
X222500000Y-82204528D01*
X222500000Y-76242640D01*
X223242641Y-75500000D01*
X226704528Y-75500000D01*
X227000000Y-75558773D01*
G36*
X172100000Y-74558772D02*
X172395468Y-74500000D01*
X182604532Y-74500000D01*
X182899999Y-74558772D01*
X183195466Y-74500000D01*
X192204528Y-74500000D01*
X192500000Y-74558773D01*
X192763683Y-74506323D01*
X193000000Y-74742641D01*
X193000001Y-77204523D01*
X192941227Y-77500000D01*
X193000000Y-77795471D01*
X193000001Y-87204523D01*
X192941227Y-87500000D01*
X193000000Y-87795471D01*
X193000001Y-94446017D01*
X192000000Y-94247105D01*
X190946513Y-94456656D01*
X190053409Y-95053409D01*
X189456656Y-95946513D01*
X189345910Y-96503270D01*
X188930252Y-96087612D01*
X188762879Y-95837121D01*
X187770542Y-95174062D01*
X186895472Y-95000000D01*
X186895468Y-95000000D01*
X186600000Y-94941228D01*
X186304532Y-95000000D01*
X177795472Y-95000000D01*
X177500000Y-94941227D01*
X177204528Y-95000000D01*
X176409589Y-95000000D01*
X176325938Y-94579458D01*
X175662879Y-93587121D01*
X175412389Y-93419749D01*
X174580252Y-92587612D01*
X174412879Y-92337121D01*
X173420542Y-91674062D01*
X172545472Y-91500000D01*
X172545468Y-91500000D01*
X172250000Y-91441228D01*
X171954532Y-91500000D01*
X169704528Y-91500000D01*
X169297715Y-91580920D01*
X169250000Y-91580920D01*
X168750000Y-91680376D01*
X168250000Y-91580920D01*
X168202285Y-91580920D01*
X167795472Y-91500000D01*
X167500000Y-91500000D01*
X167500000Y-83295468D01*
X167558772Y-83000000D01*
X167500000Y-82704532D01*
X167500000Y-75742640D01*
X168742640Y-74500000D01*
X171804532Y-74500000D01*
X172100000Y-74558772D01*
X172100000Y-74558772D01*
G37*
X172100000Y-74558772D02*
X172395468Y-74500000D01*
X182604532Y-74500000D01*
X182899999Y-74558772D01*
X183195466Y-74500000D01*
X192204528Y-74500000D01*
X192500000Y-74558773D01*
X192763683Y-74506323D01*
X193000000Y-74742641D01*
X193000001Y-77204523D01*
X192941227Y-77500000D01*
X193000000Y-77795471D01*
X193000001Y-87204523D01*
X192941227Y-87500000D01*
X193000000Y-87795471D01*
X193000001Y-94446017D01*
X192000000Y-94247105D01*
X190946513Y-94456656D01*
X190053409Y-95053409D01*
X189456656Y-95946513D01*
X189345910Y-96503270D01*
X188930252Y-96087612D01*
X188762879Y-95837121D01*
X187770542Y-95174062D01*
X186895472Y-95000000D01*
X186895468Y-95000000D01*
X186600000Y-94941228D01*
X186304532Y-95000000D01*
X177795472Y-95000000D01*
X177500000Y-94941227D01*
X177204528Y-95000000D01*
X176409589Y-95000000D01*
X176325938Y-94579458D01*
X175662879Y-93587121D01*
X175412389Y-93419749D01*
X174580252Y-92587612D01*
X174412879Y-92337121D01*
X173420542Y-91674062D01*
X172545472Y-91500000D01*
X172545468Y-91500000D01*
X172250000Y-91441228D01*
X171954532Y-91500000D01*
X169704528Y-91500000D01*
X169297715Y-91580920D01*
X169250000Y-91580920D01*
X168750000Y-91680376D01*
X168250000Y-91580920D01*
X168202285Y-91580920D01*
X167795472Y-91500000D01*
X167500000Y-91500000D01*
X167500000Y-83295468D01*
X167558772Y-83000000D01*
X167500000Y-82704532D01*
X167500000Y-75742640D01*
X168742640Y-74500000D01*
X171804532Y-74500000D01*
X172100000Y-74558772D01*
G36*
X102500000Y-75058773D02*
X102795472Y-75000000D01*
X113104532Y-75000000D01*
X113399999Y-75058772D01*
X113695466Y-75000000D01*
X122500000Y-75000000D01*
X122500001Y-78104525D01*
X122500000Y-78104529D01*
X122500000Y-78104532D01*
X122441228Y-78400000D01*
X122500000Y-78695468D01*
X122500001Y-87704524D01*
X122500000Y-87704529D01*
X122500000Y-87704532D01*
X122441228Y-88000000D01*
X122500000Y-88295468D01*
X122500000Y-92750000D01*
X120000000Y-92750000D01*
X119138962Y-92921271D01*
X118409010Y-93409010D01*
X117921271Y-94138962D01*
X117750000Y-95000000D01*
X117750000Y-95490955D01*
X117500000Y-95441227D01*
X117204528Y-95500000D01*
X107395468Y-95500000D01*
X107100000Y-95441228D01*
X106804532Y-95500000D01*
X105500000Y-95500000D01*
X105500000Y-94795472D01*
X105558773Y-94500000D01*
X105325938Y-93329458D01*
X104662879Y-92337121D01*
X103670542Y-91674062D01*
X102795472Y-91500000D01*
X102500000Y-91441227D01*
X102204528Y-91500000D01*
X99204528Y-91500000D01*
X98797715Y-91580920D01*
X98750000Y-91580920D01*
X98250000Y-91680376D01*
X97750000Y-91580920D01*
X97702285Y-91580920D01*
X97500000Y-91540683D01*
X97500000Y-82795471D01*
X97558773Y-82500000D01*
X97500000Y-82204528D01*
X97500000Y-75000000D01*
X102204528Y-75000000D01*
X102500000Y-75058773D01*
X102500000Y-75058773D01*
G37*
X102500000Y-75058773D02*
X102795472Y-75000000D01*
X113104532Y-75000000D01*
X113399999Y-75058772D01*
X113695466Y-75000000D01*
X122500000Y-75000000D01*
X122500001Y-78104525D01*
X122500000Y-78104529D01*
X122500000Y-78104532D01*
X122441228Y-78400000D01*
X122500000Y-78695468D01*
X122500001Y-87704524D01*
X122500000Y-87704529D01*
X122500000Y-87704532D01*
X122441228Y-88000000D01*
X122500000Y-88295468D01*
X122500000Y-92750000D01*
X120000000Y-92750000D01*
X119138962Y-92921271D01*
X118409010Y-93409010D01*
X117921271Y-94138962D01*
X117750000Y-95000000D01*
X117750000Y-95490955D01*
X117500000Y-95441227D01*
X117204528Y-95500000D01*
X107395468Y-95500000D01*
X107100000Y-95441228D01*
X106804532Y-95500000D01*
X105500000Y-95500000D01*
X105500000Y-94795472D01*
X105558773Y-94500000D01*
X105325938Y-93329458D01*
X104662879Y-92337121D01*
X103670542Y-91674062D01*
X102795472Y-91500000D01*
X102500000Y-91441227D01*
X102204528Y-91500000D01*
X99204528Y-91500000D01*
X98797715Y-91580920D01*
X98750000Y-91580920D01*
X98250000Y-91680376D01*
X97750000Y-91580920D01*
X97702285Y-91580920D01*
X97500000Y-91540683D01*
X97500000Y-82795471D01*
X97558773Y-82500000D01*
X97500000Y-82204528D01*
X97500000Y-75000000D01*
X102204528Y-75000000D01*
X102500000Y-75058773D01*
G36*
X47799999Y-76058772D02*
X48095467Y-76000000D01*
X57104532Y-76000000D01*
X57400000Y-76058772D01*
X57695468Y-76000000D01*
X65800000Y-76000000D01*
X65800000Y-77704527D01*
X65741227Y-78000000D01*
X65800001Y-78295477D01*
X65800000Y-88104528D01*
X65741227Y-88400000D01*
X65800001Y-88695477D01*
X65800001Y-91860574D01*
X65200000Y-91741227D01*
X64029459Y-91974062D01*
X63037122Y-92637121D01*
X62374062Y-93629458D01*
X62200000Y-94504528D01*
X62200000Y-95181010D01*
X62000000Y-95141228D01*
X61704532Y-95200000D01*
X52695468Y-95200000D01*
X52400000Y-95141228D01*
X52104532Y-95200000D01*
X48544080Y-95200000D01*
X48544080Y-94375000D01*
X48369454Y-93497094D01*
X47872160Y-92752840D01*
X47127906Y-92255546D01*
X46250000Y-92080920D01*
X46202284Y-92080920D01*
X45500000Y-91941227D01*
X44797715Y-92080920D01*
X44750000Y-92080920D01*
X44250000Y-92180376D01*
X43750000Y-92080920D01*
X43702285Y-92080920D01*
X43295472Y-92000000D01*
X43000000Y-92000000D01*
X43000000Y-82895466D01*
X43058772Y-82599999D01*
X43000000Y-82304532D01*
X43000000Y-76000000D01*
X47504531Y-76000000D01*
X47799999Y-76058772D01*
X47799999Y-76058772D01*
G37*
X47799999Y-76058772D02*
X48095467Y-76000000D01*
X57104532Y-76000000D01*
X57400000Y-76058772D01*
X57695468Y-76000000D01*
X65800000Y-76000000D01*
X65800000Y-77704527D01*
X65741227Y-78000000D01*
X65800001Y-78295477D01*
X65800000Y-88104528D01*
X65741227Y-88400000D01*
X65800001Y-88695477D01*
X65800001Y-91860574D01*
X65200000Y-91741227D01*
X64029459Y-91974062D01*
X63037122Y-92637121D01*
X62374062Y-93629458D01*
X62200000Y-94504528D01*
X62200000Y-95181010D01*
X62000000Y-95141228D01*
X61704532Y-95200000D01*
X52695468Y-95200000D01*
X52400000Y-95141228D01*
X52104532Y-95200000D01*
X48544080Y-95200000D01*
X48544080Y-94375000D01*
X48369454Y-93497094D01*
X47872160Y-92752840D01*
X47127906Y-92255546D01*
X46250000Y-92080920D01*
X46202284Y-92080920D01*
X45500000Y-91941227D01*
X44797715Y-92080920D01*
X44750000Y-92080920D01*
X44250000Y-92180376D01*
X43750000Y-92080920D01*
X43702285Y-92080920D01*
X43295472Y-92000000D01*
X43000000Y-92000000D01*
X43000000Y-82895466D01*
X43058772Y-82599999D01*
X43000000Y-82304532D01*
X43000000Y-76000000D01*
X47504531Y-76000000D01*
X47799999Y-76058772D01*
G36*
X152000001Y-66095473D02*
X152000000Y-77204528D01*
X151941227Y-77500000D01*
X152000001Y-77795477D01*
X152000000Y-86140139D01*
X151295472Y-86000000D01*
X151295468Y-86000000D01*
X151000000Y-85941228D01*
X150704532Y-86000000D01*
X144895466Y-86000000D01*
X144599999Y-85941228D01*
X144304532Y-86000000D01*
X144304528Y-86000000D01*
X143429458Y-86174062D01*
X142437121Y-86837121D01*
X142269748Y-87087612D01*
X141487610Y-87869750D01*
X141237122Y-88037121D01*
X140574062Y-89029458D01*
X140400000Y-89904528D01*
X140400000Y-89904532D01*
X140341228Y-90200000D01*
X140400000Y-90495468D01*
X140400000Y-92795471D01*
X140574062Y-93670541D01*
X140724371Y-93895494D01*
X140780546Y-94177906D01*
X140995762Y-94500000D01*
X139000000Y-94500000D01*
X139000000Y-93295468D01*
X139058772Y-93000000D01*
X139000000Y-92704532D01*
X139000000Y-83795472D01*
X139058773Y-83500000D01*
X139000000Y-83204528D01*
X139000000Y-73795472D01*
X139058773Y-73500000D01*
X139000000Y-73204528D01*
X139000000Y-66295472D01*
X139058773Y-66000000D01*
X139018991Y-65800000D01*
X151941228Y-65800000D01*
X152000001Y-66095473D01*
X152000001Y-66095473D01*
G37*
X152000001Y-66095473D02*
X152000000Y-77204528D01*
X151941227Y-77500000D01*
X152000001Y-77795477D01*
X152000000Y-86140139D01*
X151295472Y-86000000D01*
X151295468Y-86000000D01*
X151000000Y-85941228D01*
X150704532Y-86000000D01*
X144895466Y-86000000D01*
X144599999Y-85941228D01*
X144304532Y-86000000D01*
X144304528Y-86000000D01*
X143429458Y-86174062D01*
X142437121Y-86837121D01*
X142269748Y-87087612D01*
X141487610Y-87869750D01*
X141237122Y-88037121D01*
X140574062Y-89029458D01*
X140400000Y-89904528D01*
X140400000Y-89904532D01*
X140341228Y-90200000D01*
X140400000Y-90495468D01*
X140400000Y-92795471D01*
X140574062Y-93670541D01*
X140724371Y-93895494D01*
X140780546Y-94177906D01*
X140995762Y-94500000D01*
X139000000Y-94500000D01*
X139000000Y-93295468D01*
X139058772Y-93000000D01*
X139000000Y-92704532D01*
X139000000Y-83795472D01*
X139058773Y-83500000D01*
X139000000Y-83204528D01*
X139000000Y-73795472D01*
X139058773Y-73500000D01*
X139000000Y-73204528D01*
X139000000Y-66295472D01*
X139058773Y-66000000D01*
X139018991Y-65800000D01*
X151941228Y-65800000D01*
X152000001Y-66095473D01*
G36*
X207500000Y-77204528D02*
X207441227Y-77500000D01*
X207500001Y-77795477D01*
X207500000Y-87204528D01*
X207441227Y-87500000D01*
X207500001Y-87795477D01*
X207500000Y-94346560D01*
X207000000Y-94247104D01*
X207000000Y-92795471D01*
X207058773Y-92500000D01*
X207000000Y-92204528D01*
X207000000Y-82795471D01*
X207058773Y-82500000D01*
X207000000Y-82204528D01*
X207000000Y-67295467D01*
X207058772Y-66999999D01*
X207000000Y-66704531D01*
X207000000Y-66704528D01*
X206825938Y-65829458D01*
X206806255Y-65800000D01*
X207500001Y-65800000D01*
X207500000Y-77204528D01*
X207500000Y-77204528D01*
G37*
X207500000Y-77204528D02*
X207441227Y-77500000D01*
X207500001Y-77795477D01*
X207500000Y-87204528D01*
X207441227Y-87500000D01*
X207500001Y-87795477D01*
X207500000Y-94346560D01*
X207000000Y-94247104D01*
X207000000Y-92795471D01*
X207058773Y-92500000D01*
X207000000Y-92204528D01*
X207000000Y-82795471D01*
X207058773Y-82500000D01*
X207000000Y-82204528D01*
X207000000Y-67295467D01*
X207058772Y-66999999D01*
X207000000Y-66704531D01*
X207000000Y-66704528D01*
X206825938Y-65829458D01*
X206806255Y-65800000D01*
X207500001Y-65800000D01*
X207500000Y-77204528D01*
G36*
X70700000Y-71042337D02*
X70562879Y-70837121D01*
X70500000Y-70795107D01*
X70500000Y-70072973D01*
X70594080Y-69600000D01*
X70594080Y-68600000D01*
X70700001Y-68600000D01*
X70700000Y-71042337D01*
X70700000Y-71042337D01*
G37*
X70700000Y-71042337D02*
X70562879Y-70837121D01*
X70500000Y-70795107D01*
X70500000Y-70072973D01*
X70594080Y-69600000D01*
X70594080Y-68600000D01*
X70700001Y-68600000D01*
X70700000Y-71042337D01*
G36*
X133000000Y-67242640D02*
X133000000Y-69500000D01*
X132572973Y-69500000D01*
X132100000Y-69405920D01*
X131100000Y-69405920D01*
X131100000Y-68565922D01*
X131152895Y-68300000D01*
X131100000Y-68034078D01*
X131100000Y-68034074D01*
X130943344Y-67246512D01*
X130711811Y-66900000D01*
X130497226Y-66578850D01*
X130497224Y-66578848D01*
X130346590Y-66353409D01*
X130121152Y-66202776D01*
X129918376Y-66000000D01*
X131757360Y-66000000D01*
X133000000Y-67242640D01*
X133000000Y-67242640D01*
G37*
X133000000Y-67242640D02*
X133000000Y-69500000D01*
X132572973Y-69500000D01*
X132100000Y-69405920D01*
X131100000Y-69405920D01*
X131100000Y-68565922D01*
X131152895Y-68300000D01*
X131100000Y-68034078D01*
X131100000Y-68034074D01*
X130943344Y-67246512D01*
X130711811Y-66900000D01*
X130497226Y-66578850D01*
X130497224Y-66578848D01*
X130346590Y-66353409D01*
X130121152Y-66202776D01*
X129918376Y-66000000D01*
X131757360Y-66000000D01*
X133000000Y-67242640D01*
G36*
X77400000Y-68042641D02*
X77400000Y-69465594D01*
X77100000Y-69405920D01*
X76100000Y-69405920D01*
X76100000Y-67665921D01*
X76152895Y-67399999D01*
X76100000Y-67134077D01*
X76100000Y-67134074D01*
X76002806Y-66645446D01*
X77400000Y-68042641D01*
X77400000Y-68042641D01*
G37*
X77400000Y-68042641D02*
X77400000Y-69465594D01*
X77100000Y-69405920D01*
X76100000Y-69405920D01*
X76100000Y-67665921D01*
X76152895Y-67399999D01*
X76100000Y-67134077D01*
X76100000Y-67134074D01*
X76002806Y-66645446D01*
X77400000Y-68042641D01*
G36*
X256500000Y-66242640D02*
X256500001Y-69405920D01*
X256100000Y-69405920D01*
X256018076Y-69422216D01*
X255943344Y-69046512D01*
X255912266Y-69000000D01*
X255497226Y-68378849D01*
X255497222Y-68378845D01*
X255346590Y-68153409D01*
X255121155Y-68002778D01*
X252918376Y-65800000D01*
X256057360Y-65800000D01*
X256500000Y-66242640D01*
X256500000Y-66242640D01*
G37*
X256500000Y-66242640D02*
X256500001Y-69405920D01*
X256100000Y-69405920D01*
X256018076Y-69422216D01*
X255943344Y-69046512D01*
X255912266Y-69000000D01*
X255497226Y-68378849D01*
X255497222Y-68378845D01*
X255346590Y-68153409D01*
X255121155Y-68002778D01*
X252918376Y-65800000D01*
X256057360Y-65800000D01*
X256500000Y-66242640D01*
G36*
X199174062Y-66170542D02*
X199837122Y-67162879D01*
X200087609Y-67330249D01*
X201000001Y-68242641D01*
X201000001Y-69331344D01*
X200943344Y-69046512D01*
X200912266Y-69000000D01*
X200497226Y-68378849D01*
X200497222Y-68378845D01*
X200346590Y-68153409D01*
X200121155Y-68002778D01*
X198118376Y-66000000D01*
X199140139Y-66000000D01*
X199174062Y-66170542D01*
X199174062Y-66170542D01*
G37*
X199174062Y-66170542D02*
X199837122Y-67162879D01*
X200087609Y-67330249D01*
X201000001Y-68242641D01*
X201000001Y-69331344D01*
X200943344Y-69046512D01*
X200912266Y-69000000D01*
X200497226Y-68378849D01*
X200497222Y-68378845D01*
X200346590Y-68153409D01*
X200121155Y-68002778D01*
X198118376Y-66000000D01*
X199140139Y-66000000D01*
X199174062Y-66170542D01*
G36*
X39405920Y-66400000D02*
X35365921Y-66400000D01*
X35099999Y-66347105D01*
X34834077Y-66400000D01*
X34834074Y-66400000D01*
X34046512Y-66556656D01*
X33153409Y-67153409D01*
X33002775Y-67378849D01*
X32800000Y-67581624D01*
X32800000Y-67442640D01*
X34442641Y-65800000D01*
X39405920Y-65800000D01*
X39405920Y-66400000D01*
X39405920Y-66400000D01*
G37*
X39405920Y-66400000D02*
X35365921Y-66400000D01*
X35099999Y-66347105D01*
X34834077Y-66400000D01*
X34834074Y-66400000D01*
X34046512Y-66556656D01*
X33153409Y-67153409D01*
X33002775Y-67378849D01*
X32800000Y-67581624D01*
X32800000Y-67442640D01*
X34442641Y-65800000D01*
X39405920Y-65800000D01*
X39405920Y-66400000D01*
G36*
X219405920Y-66400000D02*
X215365921Y-66400000D01*
X215099999Y-66347105D01*
X214834077Y-66400000D01*
X214834074Y-66400000D01*
X214046512Y-66556656D01*
X213500000Y-66921824D01*
X213500000Y-66542640D01*
X214242641Y-65800000D01*
X219405920Y-65800000D01*
X219405920Y-66400000D01*
X219405920Y-66400000D01*
G37*
X219405920Y-66400000D02*
X215365921Y-66400000D01*
X215099999Y-66347105D01*
X214834077Y-66400000D01*
X214834074Y-66400000D01*
X214046512Y-66556656D01*
X213500000Y-66921824D01*
X213500000Y-66542640D01*
X214242641Y-65800000D01*
X219405920Y-65800000D01*
X219405920Y-66400000D01*
G36*
X164405920Y-66400000D02*
X159765922Y-66400000D01*
X159500000Y-66347105D01*
X159234078Y-66400000D01*
X159234074Y-66400000D01*
X158495785Y-66546855D01*
X159242640Y-65800000D01*
X164405920Y-65800000D01*
X164405920Y-66400000D01*
X164405920Y-66400000D01*
G37*
X164405920Y-66400000D02*
X159765922Y-66400000D01*
X159500000Y-66347105D01*
X159234078Y-66400000D01*
X159234074Y-66400000D01*
X158495785Y-66546855D01*
X159242640Y-65800000D01*
X164405920Y-65800000D01*
X164405920Y-66400000D01*
G36*
X94405920Y-66400000D02*
X90365921Y-66400000D01*
X90099999Y-66347105D01*
X89834077Y-66400000D01*
X89834074Y-66400000D01*
X89220616Y-66522025D01*
X89742641Y-66000000D01*
X94405920Y-66000000D01*
X94405920Y-66400000D01*
X94405920Y-66400000D01*
G37*
X94405920Y-66400000D02*
X90365921Y-66400000D01*
X90099999Y-66347105D01*
X89834077Y-66400000D01*
X89834074Y-66400000D01*
X89220616Y-66522025D01*
X89742641Y-66000000D01*
X94405920Y-66000000D01*
X94405920Y-66400000D01*
G04 #@! TD*
M02*
