G04 #@! TF.GenerationSoftware,KiCad,Pcbnew,(5.0.0)*
G04 #@! TF.CreationDate,2020-11-20T21:57:33-05:00*
G04 #@! TF.ProjectId,WS2812B Mini Clock top Layer,57533238313242204D696E6920436C6F,rev?*
G04 #@! TF.SameCoordinates,Original*
G04 #@! TF.FileFunction,Legend,Bot*
G04 #@! TF.FilePolarity,Positive*
%FSLAX46Y46*%
G04 Gerber Fmt 4.6, Leading zero omitted, Abs format (unit mm)*
G04 Created by KiCad (PCBNEW (5.0.0)) date 11/20/20 21:57:33*
%MOMM*%
%LPD*%
G01*
G04 APERTURE LIST*
%ADD10C,0.300000*%
G04 APERTURE END LIST*
D10*
X194928571Y-141928571D02*
X194928571Y-143000000D01*
X195000000Y-143214285D01*
X195142857Y-143357142D01*
X195357142Y-143428571D01*
X195500000Y-143428571D01*
X193500000Y-143428571D02*
X194214285Y-143428571D01*
X194214285Y-141928571D01*
X192142857Y-143285714D02*
X192214285Y-143357142D01*
X192428571Y-143428571D01*
X192571428Y-143428571D01*
X192785714Y-143357142D01*
X192928571Y-143214285D01*
X193000000Y-143071428D01*
X193071428Y-142785714D01*
X193071428Y-142571428D01*
X193000000Y-142285714D01*
X192928571Y-142142857D01*
X192785714Y-142000000D01*
X192571428Y-141928571D01*
X192428571Y-141928571D01*
X192214285Y-142000000D01*
X192142857Y-142071428D01*
X191071428Y-141928571D02*
X191071428Y-143000000D01*
X191142857Y-143214285D01*
X191285714Y-143357142D01*
X191500000Y-143428571D01*
X191642857Y-143428571D01*
X189642857Y-143428571D02*
X190357142Y-143428571D01*
X190357142Y-141928571D01*
X188285714Y-143285714D02*
X188357142Y-143357142D01*
X188571428Y-143428571D01*
X188714285Y-143428571D01*
X188928571Y-143357142D01*
X189071428Y-143214285D01*
X189142857Y-143071428D01*
X189214285Y-142785714D01*
X189214285Y-142571428D01*
X189142857Y-142285714D01*
X189071428Y-142142857D01*
X188928571Y-142000000D01*
X188714285Y-141928571D01*
X188571428Y-141928571D01*
X188357142Y-142000000D01*
X188285714Y-142071428D01*
X187214285Y-141928571D02*
X187214285Y-143000000D01*
X187285714Y-143214285D01*
X187428571Y-143357142D01*
X187642857Y-143428571D01*
X187785714Y-143428571D01*
X185785714Y-143428571D02*
X186500000Y-143428571D01*
X186500000Y-141928571D01*
X184428571Y-143285714D02*
X184500000Y-143357142D01*
X184714285Y-143428571D01*
X184857142Y-143428571D01*
X185071428Y-143357142D01*
X185214285Y-143214285D01*
X185285714Y-143071428D01*
X185357142Y-142785714D01*
X185357142Y-142571428D01*
X185285714Y-142285714D01*
X185214285Y-142142857D01*
X185071428Y-142000000D01*
X184857142Y-141928571D01*
X184714285Y-141928571D01*
X184500000Y-142000000D01*
X184428571Y-142071428D01*
X183357142Y-141928571D02*
X183357142Y-143000000D01*
X183428571Y-143214285D01*
X183571428Y-143357142D01*
X183785714Y-143428571D01*
X183928571Y-143428571D01*
X181928571Y-143428571D02*
X182642857Y-143428571D01*
X182642857Y-141928571D01*
X180571428Y-143285714D02*
X180642857Y-143357142D01*
X180857142Y-143428571D01*
X181000000Y-143428571D01*
X181214285Y-143357142D01*
X181357142Y-143214285D01*
X181428571Y-143071428D01*
X181500000Y-142785714D01*
X181500000Y-142571428D01*
X181428571Y-142285714D01*
X181357142Y-142142857D01*
X181214285Y-142000000D01*
X181000000Y-141928571D01*
X180857142Y-141928571D01*
X180642857Y-142000000D01*
X180571428Y-142071428D01*
M02*
