G04 #@! TF.GenerationSoftware,KiCad,Pcbnew,(5.0.0)*
G04 #@! TF.CreationDate,2020-11-20T21:57:33-05:00*
G04 #@! TF.ProjectId,WS2812B Mini Clock top Layer,57533238313242204D696E6920436C6F,rev?*
G04 #@! TF.SameCoordinates,Original*
G04 #@! TF.FileFunction,Legend,Top*
G04 #@! TF.FilePolarity,Positive*
%FSLAX46Y46*%
G04 Gerber Fmt 4.6, Leading zero omitted, Abs format (unit mm)*
G04 Created by KiCad (PCBNEW (5.0.0)) date 11/20/20 21:57:33*
%MOMM*%
%LPD*%
G01*
G04 APERTURE LIST*
%ADD10C,1.000000*%
G04 APERTURE END LIST*
D10*
G04 #@! TO.C,REF\002A\002A*
X136000000Y-107500000D02*
G75*
G02X139000000Y-104500000I3000000J0D01*
G01*
X136000000Y-107250000D02*
X136000000Y-109750000D01*
X139000000Y-104500000D02*
X141500000Y-104500000D01*
X141500000Y-104500000D02*
G75*
G02X144500000Y-107500000I0J-3000000D01*
G01*
X144500000Y-110000000D02*
X144500000Y-107750000D01*
X136000000Y-107250000D02*
X136000000Y-109500000D01*
X139000000Y-112750000D02*
G75*
G02X136000000Y-109750000I0J3000000D01*
G01*
X141500000Y-112750000D02*
X139000000Y-112750000D01*
X144500000Y-109750000D02*
G75*
G02X141500000Y-112750000I-3000000J0D01*
G01*
X144500000Y-109750000D02*
X144500000Y-107250000D01*
X80500000Y-66500000D02*
X59000000Y-66500000D01*
X56000000Y-69500000D02*
G75*
G02X59000000Y-66500000I3000000J0D01*
G01*
X56000000Y-72000000D02*
X56000000Y-69500000D01*
X80500000Y-66500000D02*
G75*
G02X83500000Y-69500000I0J-3000000D01*
G01*
X83500000Y-72000000D02*
G75*
G02X80500000Y-75000000I-3000000J0D01*
G01*
X59000000Y-75000000D02*
G75*
G02X56000000Y-72000000I0J3000000D01*
G01*
X83500000Y-69500000D02*
X83500000Y-72000000D01*
X59000000Y-75000000D02*
X80500000Y-75000000D01*
X49000000Y-76500000D02*
X49000000Y-98000000D01*
X54500000Y-101000000D02*
X52000000Y-101000000D01*
X49000000Y-76500000D02*
G75*
G02X52000000Y-73500000I3000000J0D01*
G01*
X52000000Y-101000000D02*
G75*
G02X49000000Y-98000000I0J3000000D01*
G01*
X57500000Y-98000000D02*
G75*
G02X54500000Y-101000000I-3000000J0D01*
G01*
X52000000Y-73500000D02*
X54500000Y-73500000D01*
X54500000Y-73500000D02*
G75*
G02X57500000Y-76500000I0J-3000000D01*
G01*
X57500000Y-98000000D02*
X57500000Y-76500000D01*
X59000000Y-141000000D02*
X80500000Y-141000000D01*
X83500000Y-138000000D02*
G75*
G02X80500000Y-141000000I-3000000J0D01*
G01*
X83500000Y-135500000D02*
X83500000Y-138000000D01*
X59000000Y-141000000D02*
G75*
G02X56000000Y-138000000I0J3000000D01*
G01*
X56000000Y-135500000D02*
G75*
G02X59000000Y-132500000I3000000J0D01*
G01*
X80500000Y-132500000D02*
G75*
G02X83500000Y-135500000I0J-3000000D01*
G01*
X56000000Y-138000000D02*
X56000000Y-135500000D01*
X80500000Y-132500000D02*
X59000000Y-132500000D01*
X82000000Y-76500000D02*
X82000000Y-98000000D01*
X85000000Y-101000000D02*
G75*
G02X82000000Y-98000000I0J3000000D01*
G01*
X87500000Y-101000000D02*
X85000000Y-101000000D01*
X82000000Y-76500000D02*
G75*
G02X85000000Y-73500000I3000000J0D01*
G01*
X87500000Y-73500000D02*
G75*
G02X90500000Y-76500000I0J-3000000D01*
G01*
X90500000Y-98000000D02*
G75*
G02X87500000Y-101000000I-3000000J0D01*
G01*
X85000000Y-73500000D02*
X87500000Y-73500000D01*
X90500000Y-98000000D02*
X90500000Y-76500000D01*
X59000000Y-108000000D02*
X80500000Y-108000000D01*
X83500000Y-102500000D02*
X83500000Y-105000000D01*
X59000000Y-108000000D02*
G75*
G02X56000000Y-105000000I0J3000000D01*
G01*
X83500000Y-105000000D02*
G75*
G02X80500000Y-108000000I-3000000J0D01*
G01*
X80500000Y-99500000D02*
G75*
G02X83500000Y-102500000I0J-3000000D01*
G01*
X56000000Y-105000000D02*
X56000000Y-102500000D01*
X56000000Y-102500000D02*
G75*
G02X59000000Y-99500000I3000000J0D01*
G01*
X80500000Y-99500000D02*
X59000000Y-99500000D01*
X57500000Y-131000000D02*
X57500000Y-109500000D01*
X54500000Y-106500000D02*
G75*
G02X57500000Y-109500000I0J-3000000D01*
G01*
X52000000Y-106500000D02*
X54500000Y-106500000D01*
X57500000Y-131000000D02*
G75*
G02X54500000Y-134000000I-3000000J0D01*
G01*
X52000000Y-134000000D02*
G75*
G02X49000000Y-131000000I0J3000000D01*
G01*
X49000000Y-109500000D02*
G75*
G02X52000000Y-106500000I3000000J0D01*
G01*
X54500000Y-134000000D02*
X52000000Y-134000000D01*
X49000000Y-109500000D02*
X49000000Y-131000000D01*
X90500000Y-131000000D02*
X90500000Y-109500000D01*
X85000000Y-106500000D02*
X87500000Y-106500000D01*
X90500000Y-131000000D02*
G75*
G02X87500000Y-134000000I-3000000J0D01*
G01*
X87500000Y-106500000D02*
G75*
G02X90500000Y-109500000I0J-3000000D01*
G01*
X82000000Y-109500000D02*
G75*
G02X85000000Y-106500000I3000000J0D01*
G01*
X87500000Y-134000000D02*
X85000000Y-134000000D01*
X85000000Y-134000000D02*
G75*
G02X82000000Y-131000000I0J3000000D01*
G01*
X82000000Y-109500000D02*
X82000000Y-131000000D01*
X124750000Y-66500000D02*
X103250000Y-66500000D01*
X100250000Y-69500000D02*
G75*
G02X103250000Y-66500000I3000000J0D01*
G01*
X100250000Y-72000000D02*
X100250000Y-69500000D01*
X124750000Y-66500000D02*
G75*
G02X127750000Y-69500000I0J-3000000D01*
G01*
X127750000Y-72000000D02*
G75*
G02X124750000Y-75000000I-3000000J0D01*
G01*
X103250000Y-75000000D02*
G75*
G02X100250000Y-72000000I0J3000000D01*
G01*
X127750000Y-69500000D02*
X127750000Y-72000000D01*
X103250000Y-75000000D02*
X124750000Y-75000000D01*
X93250000Y-76500000D02*
X93250000Y-98000000D01*
X98750000Y-101000000D02*
X96250000Y-101000000D01*
X93250000Y-76500000D02*
G75*
G02X96250000Y-73500000I3000000J0D01*
G01*
X96250000Y-101000000D02*
G75*
G02X93250000Y-98000000I0J3000000D01*
G01*
X101750000Y-98000000D02*
G75*
G02X98750000Y-101000000I-3000000J0D01*
G01*
X96250000Y-73500000D02*
X98750000Y-73500000D01*
X98750000Y-73500000D02*
G75*
G02X101750000Y-76500000I0J-3000000D01*
G01*
X101750000Y-98000000D02*
X101750000Y-76500000D01*
X103250000Y-141000000D02*
X124750000Y-141000000D01*
X127750000Y-138000000D02*
G75*
G02X124750000Y-141000000I-3000000J0D01*
G01*
X127750000Y-135500000D02*
X127750000Y-138000000D01*
X103250000Y-141000000D02*
G75*
G02X100250000Y-138000000I0J3000000D01*
G01*
X100250000Y-135500000D02*
G75*
G02X103250000Y-132500000I3000000J0D01*
G01*
X124750000Y-132500000D02*
G75*
G02X127750000Y-135500000I0J-3000000D01*
G01*
X100250000Y-138000000D02*
X100250000Y-135500000D01*
X124750000Y-132500000D02*
X103250000Y-132500000D01*
X126250000Y-76500000D02*
X126250000Y-98000000D01*
X129250000Y-101000000D02*
G75*
G02X126250000Y-98000000I0J3000000D01*
G01*
X131750000Y-101000000D02*
X129250000Y-101000000D01*
X126250000Y-76500000D02*
G75*
G02X129250000Y-73500000I3000000J0D01*
G01*
X131750000Y-73500000D02*
G75*
G02X134750000Y-76500000I0J-3000000D01*
G01*
X134750000Y-98000000D02*
G75*
G02X131750000Y-101000000I-3000000J0D01*
G01*
X129250000Y-73500000D02*
X131750000Y-73500000D01*
X134750000Y-98000000D02*
X134750000Y-76500000D01*
X103250000Y-108000000D02*
X124750000Y-108000000D01*
X127750000Y-102500000D02*
X127750000Y-105000000D01*
X103250000Y-108000000D02*
G75*
G02X100250000Y-105000000I0J3000000D01*
G01*
X127750000Y-105000000D02*
G75*
G02X124750000Y-108000000I-3000000J0D01*
G01*
X124750000Y-99500000D02*
G75*
G02X127750000Y-102500000I0J-3000000D01*
G01*
X100250000Y-105000000D02*
X100250000Y-102500000D01*
X100250000Y-102500000D02*
G75*
G02X103250000Y-99500000I3000000J0D01*
G01*
X124750000Y-99500000D02*
X103250000Y-99500000D01*
X101750000Y-131000000D02*
X101750000Y-109500000D01*
X98750000Y-106500000D02*
G75*
G02X101750000Y-109500000I0J-3000000D01*
G01*
X96250000Y-106500000D02*
X98750000Y-106500000D01*
X101750000Y-131000000D02*
G75*
G02X98750000Y-134000000I-3000000J0D01*
G01*
X96250000Y-134000000D02*
G75*
G02X93250000Y-131000000I0J3000000D01*
G01*
X93250000Y-109500000D02*
G75*
G02X96250000Y-106500000I3000000J0D01*
G01*
X98750000Y-134000000D02*
X96250000Y-134000000D01*
X93250000Y-109500000D02*
X93250000Y-131000000D01*
X134750000Y-131000000D02*
X134750000Y-109500000D01*
X129250000Y-106500000D02*
X131750000Y-106500000D01*
X134750000Y-131000000D02*
G75*
G02X131750000Y-134000000I-3000000J0D01*
G01*
X131750000Y-106500000D02*
G75*
G02X134750000Y-109500000I0J-3000000D01*
G01*
X126250000Y-109500000D02*
G75*
G02X129250000Y-106500000I3000000J0D01*
G01*
X131750000Y-134000000D02*
X129250000Y-134000000D01*
X129250000Y-134000000D02*
G75*
G02X126250000Y-131000000I0J3000000D01*
G01*
X126250000Y-109500000D02*
X126250000Y-131000000D01*
X177000000Y-66500000D02*
X155500000Y-66500000D01*
X152500000Y-69500000D02*
G75*
G02X155500000Y-66500000I3000000J0D01*
G01*
X152500000Y-72000000D02*
X152500000Y-69500000D01*
X177000000Y-66500000D02*
G75*
G02X180000000Y-69500000I0J-3000000D01*
G01*
X180000000Y-72000000D02*
G75*
G02X177000000Y-75000000I-3000000J0D01*
G01*
X155500000Y-75000000D02*
G75*
G02X152500000Y-72000000I0J3000000D01*
G01*
X180000000Y-69500000D02*
X180000000Y-72000000D01*
X155500000Y-75000000D02*
X177000000Y-75000000D01*
X145500000Y-76500000D02*
X145500000Y-98000000D01*
X151000000Y-101000000D02*
X148500000Y-101000000D01*
X145500000Y-76500000D02*
G75*
G02X148500000Y-73500000I3000000J0D01*
G01*
X148500000Y-101000000D02*
G75*
G02X145500000Y-98000000I0J3000000D01*
G01*
X154000000Y-98000000D02*
G75*
G02X151000000Y-101000000I-3000000J0D01*
G01*
X148500000Y-73500000D02*
X151000000Y-73500000D01*
X151000000Y-73500000D02*
G75*
G02X154000000Y-76500000I0J-3000000D01*
G01*
X154000000Y-98000000D02*
X154000000Y-76500000D01*
X155500000Y-141000000D02*
X177000000Y-141000000D01*
X180000000Y-138000000D02*
G75*
G02X177000000Y-141000000I-3000000J0D01*
G01*
X180000000Y-135500000D02*
X180000000Y-138000000D01*
X155500000Y-141000000D02*
G75*
G02X152500000Y-138000000I0J3000000D01*
G01*
X152500000Y-135500000D02*
G75*
G02X155500000Y-132500000I3000000J0D01*
G01*
X177000000Y-132500000D02*
G75*
G02X180000000Y-135500000I0J-3000000D01*
G01*
X152500000Y-138000000D02*
X152500000Y-135500000D01*
X177000000Y-132500000D02*
X155500000Y-132500000D01*
X178500000Y-76500000D02*
X178500000Y-98000000D01*
X181500000Y-101000000D02*
G75*
G02X178500000Y-98000000I0J3000000D01*
G01*
X184000000Y-101000000D02*
X181500000Y-101000000D01*
X178500000Y-76500000D02*
G75*
G02X181500000Y-73500000I3000000J0D01*
G01*
X184000000Y-73500000D02*
G75*
G02X187000000Y-76500000I0J-3000000D01*
G01*
X187000000Y-98000000D02*
G75*
G02X184000000Y-101000000I-3000000J0D01*
G01*
X181500000Y-73500000D02*
X184000000Y-73500000D01*
X187000000Y-98000000D02*
X187000000Y-76500000D01*
X155500000Y-108000000D02*
X177000000Y-108000000D01*
X180000000Y-102500000D02*
X180000000Y-105000000D01*
X155500000Y-108000000D02*
G75*
G02X152500000Y-105000000I0J3000000D01*
G01*
X180000000Y-105000000D02*
G75*
G02X177000000Y-108000000I-3000000J0D01*
G01*
X177000000Y-99500000D02*
G75*
G02X180000000Y-102500000I0J-3000000D01*
G01*
X152500000Y-105000000D02*
X152500000Y-102500000D01*
X152500000Y-102500000D02*
G75*
G02X155500000Y-99500000I3000000J0D01*
G01*
X177000000Y-99500000D02*
X155500000Y-99500000D01*
X154000000Y-131000000D02*
X154000000Y-109500000D01*
X151000000Y-106500000D02*
G75*
G02X154000000Y-109500000I0J-3000000D01*
G01*
X148500000Y-106500000D02*
X151000000Y-106500000D01*
X154000000Y-131000000D02*
G75*
G02X151000000Y-134000000I-3000000J0D01*
G01*
X148500000Y-134000000D02*
G75*
G02X145500000Y-131000000I0J3000000D01*
G01*
X145500000Y-109500000D02*
G75*
G02X148500000Y-106500000I3000000J0D01*
G01*
X151000000Y-134000000D02*
X148500000Y-134000000D01*
X145500000Y-109500000D02*
X145500000Y-131000000D01*
X187000000Y-131000000D02*
X187000000Y-109500000D01*
X181500000Y-106500000D02*
X184000000Y-106500000D01*
X187000000Y-131000000D02*
G75*
G02X184000000Y-134000000I-3000000J0D01*
G01*
X184000000Y-106500000D02*
G75*
G02X187000000Y-109500000I0J-3000000D01*
G01*
X178500000Y-109500000D02*
G75*
G02X181500000Y-106500000I3000000J0D01*
G01*
X184000000Y-134000000D02*
X181500000Y-134000000D01*
X181500000Y-134000000D02*
G75*
G02X178500000Y-131000000I0J3000000D01*
G01*
X178500000Y-109500000D02*
X178500000Y-131000000D01*
X221250000Y-66500000D02*
X199750000Y-66500000D01*
X196750000Y-69500000D02*
G75*
G02X199750000Y-66500000I3000000J0D01*
G01*
X196750000Y-72000000D02*
X196750000Y-69500000D01*
X221250000Y-66500000D02*
G75*
G02X224250000Y-69500000I0J-3000000D01*
G01*
X224250000Y-72000000D02*
G75*
G02X221250000Y-75000000I-3000000J0D01*
G01*
X199750000Y-75000000D02*
G75*
G02X196750000Y-72000000I0J3000000D01*
G01*
X224250000Y-69500000D02*
X224250000Y-72000000D01*
X199750000Y-75000000D02*
X221250000Y-75000000D01*
X189750000Y-76500000D02*
X189750000Y-98000000D01*
X195250000Y-101000000D02*
X192750000Y-101000000D01*
X189750000Y-76500000D02*
G75*
G02X192750000Y-73500000I3000000J0D01*
G01*
X192750000Y-101000000D02*
G75*
G02X189750000Y-98000000I0J3000000D01*
G01*
X198250000Y-98000000D02*
G75*
G02X195250000Y-101000000I-3000000J0D01*
G01*
X192750000Y-73500000D02*
X195250000Y-73500000D01*
X195250000Y-73500000D02*
G75*
G02X198250000Y-76500000I0J-3000000D01*
G01*
X198250000Y-98000000D02*
X198250000Y-76500000D01*
X222750000Y-76500000D02*
X222750000Y-98000000D01*
X225750000Y-101000000D02*
G75*
G02X222750000Y-98000000I0J3000000D01*
G01*
X228250000Y-101000000D02*
X225750000Y-101000000D01*
X222750000Y-76500000D02*
G75*
G02X225750000Y-73500000I3000000J0D01*
G01*
X228250000Y-73500000D02*
G75*
G02X231250000Y-76500000I0J-3000000D01*
G01*
X231250000Y-98000000D02*
G75*
G02X228250000Y-101000000I-3000000J0D01*
G01*
X225750000Y-73500000D02*
X228250000Y-73500000D01*
X231250000Y-98000000D02*
X231250000Y-76500000D01*
X199750000Y-108000000D02*
X221250000Y-108000000D01*
X224250000Y-102500000D02*
X224250000Y-105000000D01*
X199750000Y-108000000D02*
G75*
G02X196750000Y-105000000I0J3000000D01*
G01*
X224250000Y-105000000D02*
G75*
G02X221250000Y-108000000I-3000000J0D01*
G01*
X221250000Y-99500000D02*
G75*
G02X224250000Y-102500000I0J-3000000D01*
G01*
X196750000Y-105000000D02*
X196750000Y-102500000D01*
X196750000Y-102500000D02*
G75*
G02X199750000Y-99500000I3000000J0D01*
G01*
X221250000Y-99500000D02*
X199750000Y-99500000D01*
X198250000Y-131000000D02*
X198250000Y-109500000D01*
X195250000Y-106500000D02*
G75*
G02X198250000Y-109500000I0J-3000000D01*
G01*
X192750000Y-106500000D02*
X195250000Y-106500000D01*
X198250000Y-131000000D02*
G75*
G02X195250000Y-134000000I-3000000J0D01*
G01*
X192750000Y-134000000D02*
G75*
G02X189750000Y-131000000I0J3000000D01*
G01*
X189750000Y-109500000D02*
G75*
G02X192750000Y-106500000I3000000J0D01*
G01*
X195250000Y-134000000D02*
X192750000Y-134000000D01*
X189750000Y-109500000D02*
X189750000Y-131000000D01*
X199750000Y-141000000D02*
X221250000Y-141000000D01*
X224250000Y-138000000D02*
G75*
G02X221250000Y-141000000I-3000000J0D01*
G01*
X224250000Y-135500000D02*
X224250000Y-138000000D01*
X199750000Y-141000000D02*
G75*
G02X196750000Y-138000000I0J3000000D01*
G01*
X196750000Y-135500000D02*
G75*
G02X199750000Y-132500000I3000000J0D01*
G01*
X221250000Y-132500000D02*
G75*
G02X224250000Y-135500000I0J-3000000D01*
G01*
X196750000Y-138000000D02*
X196750000Y-135500000D01*
X221250000Y-132500000D02*
X199750000Y-132500000D01*
X231250000Y-131000000D02*
X231250000Y-109500000D01*
X225750000Y-106500000D02*
X228250000Y-106500000D01*
X231250000Y-131000000D02*
G75*
G02X228250000Y-134000000I-3000000J0D01*
G01*
X228250000Y-106500000D02*
G75*
G02X231250000Y-109500000I0J-3000000D01*
G01*
X222750000Y-109500000D02*
G75*
G02X225750000Y-106500000I3000000J0D01*
G01*
X228250000Y-134000000D02*
X225750000Y-134000000D01*
X225750000Y-134000000D02*
G75*
G02X222750000Y-131000000I0J3000000D01*
G01*
X222750000Y-109500000D02*
X222750000Y-131000000D01*
X144500000Y-100000000D02*
X144500000Y-97500000D01*
X144500000Y-100000000D02*
G75*
G02X141500000Y-103000000I-3000000J0D01*
G01*
X141500000Y-103000000D02*
X139000000Y-103000000D01*
X139000000Y-103000000D02*
G75*
G02X136000000Y-100000000I0J3000000D01*
G01*
X136000000Y-97500000D02*
X136000000Y-99750000D01*
X144500000Y-100250000D02*
X144500000Y-98000000D01*
X141500000Y-94750000D02*
G75*
G02X144500000Y-97750000I0J-3000000D01*
G01*
X139000000Y-94750000D02*
X141500000Y-94750000D01*
X136000000Y-97500000D02*
X136000000Y-100000000D01*
X136000000Y-97750000D02*
G75*
G02X139000000Y-94750000I3000000J0D01*
G01*
G04 #@! TD*
M02*
