G04 #@! TF.GenerationSoftware,KiCad,Pcbnew,(5.0.0)*
G04 #@! TF.CreationDate,2020-08-12T18:59:32-04:00*
G04 #@! TF.ProjectId,WS2812 Clock,57533238313220436C6F636B2E6B6963,rev?*
G04 #@! TF.SameCoordinates,Original*
G04 #@! TF.FileFunction,Soldermask,Top*
G04 #@! TF.FilePolarity,Negative*
%FSLAX46Y46*%
G04 Gerber Fmt 4.6, Leading zero omitted, Abs format (unit mm)*
G04 Created by KiCad (PCBNEW (5.0.0)) date 08/12/20 18:59:32*
%MOMM*%
%LPD*%
G01*
G04 APERTURE LIST*
%ADD10C,0.100000*%
%ADD11C,6.000000*%
%ADD12O,33.000000X7.000000*%
%ADD13O,7.000000X33.000000*%
%ADD14C,5.400000*%
G04 APERTURE END LIST*
D10*
G04 #@! TO.C,REF\002A\002A*
G36*
X241397026Y-64507223D02*
X241542635Y-64528822D01*
X241685427Y-64564589D01*
X241824025Y-64614181D01*
X241957095Y-64677118D01*
X242083355Y-64752796D01*
X242201590Y-64840484D01*
X242310660Y-64939340D01*
X242409516Y-65048410D01*
X242497204Y-65166645D01*
X242572882Y-65292905D01*
X242635819Y-65425975D01*
X242685411Y-65564573D01*
X242721178Y-65707365D01*
X242742777Y-65852974D01*
X242750000Y-66000000D01*
X242750000Y-69000000D01*
X242742777Y-69147026D01*
X242721178Y-69292635D01*
X242685411Y-69435427D01*
X242635819Y-69574025D01*
X242572882Y-69707095D01*
X242497204Y-69833355D01*
X242409516Y-69951590D01*
X242310660Y-70060660D01*
X242201590Y-70159516D01*
X242083355Y-70247204D01*
X241957095Y-70322882D01*
X241824025Y-70385819D01*
X241685427Y-70435411D01*
X241542635Y-70471178D01*
X241397026Y-70492777D01*
X241250000Y-70500000D01*
X236750000Y-70500000D01*
X236602974Y-70492777D01*
X236457365Y-70471178D01*
X236314573Y-70435411D01*
X236175975Y-70385819D01*
X236042905Y-70322882D01*
X235916645Y-70247204D01*
X235798410Y-70159516D01*
X235689340Y-70060660D01*
X235590484Y-69951590D01*
X235502796Y-69833355D01*
X235427118Y-69707095D01*
X235364181Y-69574025D01*
X235314589Y-69435427D01*
X235278822Y-69292635D01*
X235257223Y-69147026D01*
X235250000Y-69000000D01*
X235250000Y-66000000D01*
X235257223Y-65852974D01*
X235278822Y-65707365D01*
X235314589Y-65564573D01*
X235364181Y-65425975D01*
X235427118Y-65292905D01*
X235502796Y-65166645D01*
X235590484Y-65048410D01*
X235689340Y-64939340D01*
X235798410Y-64840484D01*
X235916645Y-64752796D01*
X236042905Y-64677118D01*
X236175975Y-64614181D01*
X236314573Y-64564589D01*
X236457365Y-64528822D01*
X236602974Y-64507223D01*
X236750000Y-64500000D01*
X241250000Y-64500000D01*
X241397026Y-64507223D01*
X241397026Y-64507223D01*
G37*
D11*
X239000000Y-67500000D03*
G04 #@! TD*
D12*
G04 #@! TO.C,REF\002A\002A*
X205250000Y-35500000D03*
G04 #@! TD*
G04 #@! TO.C,REF\002A\002A*
X204500000Y-74250000D03*
G04 #@! TD*
D13*
G04 #@! TO.C,REF\002A\002A*
X182000000Y-54500000D03*
G04 #@! TD*
G04 #@! TO.C,REF\002A\002A*
X226000000Y-92500000D03*
G04 #@! TD*
G04 #@! TO.C,REF\002A\002A*
X180250000Y-93000000D03*
G04 #@! TD*
D12*
G04 #@! TO.C,REF\002A\002A*
X203750000Y-112250000D03*
G04 #@! TD*
D13*
G04 #@! TO.C,REF\002A\002A*
X227750000Y-55000000D03*
G04 #@! TD*
D14*
G04 #@! TO.C,REF\002A\002A*
X236000000Y-34200000D03*
G04 #@! TD*
G04 #@! TO.C,REF\002A\002A*
X180200000Y-34200000D03*
G04 #@! TD*
G04 #@! TO.C,REF\002A\002A*
X178800000Y-114500000D03*
G04 #@! TD*
D10*
G04 #@! TO.C,REF\002A\002A*
G36*
X240647026Y-77257223D02*
X240792635Y-77278822D01*
X240935427Y-77314589D01*
X241074025Y-77364181D01*
X241207095Y-77427118D01*
X241333355Y-77502796D01*
X241451590Y-77590484D01*
X241560660Y-77689340D01*
X241659516Y-77798410D01*
X241747204Y-77916645D01*
X241822882Y-78042905D01*
X241885819Y-78175975D01*
X241935411Y-78314573D01*
X241971178Y-78457365D01*
X241992777Y-78602974D01*
X242000000Y-78750000D01*
X242000000Y-81750000D01*
X241992777Y-81897026D01*
X241971178Y-82042635D01*
X241935411Y-82185427D01*
X241885819Y-82324025D01*
X241822882Y-82457095D01*
X241747204Y-82583355D01*
X241659516Y-82701590D01*
X241560660Y-82810660D01*
X241451590Y-82909516D01*
X241333355Y-82997204D01*
X241207095Y-83072882D01*
X241074025Y-83135819D01*
X240935427Y-83185411D01*
X240792635Y-83221178D01*
X240647026Y-83242777D01*
X240500000Y-83250000D01*
X236000000Y-83250000D01*
X235852974Y-83242777D01*
X235707365Y-83221178D01*
X235564573Y-83185411D01*
X235425975Y-83135819D01*
X235292905Y-83072882D01*
X235166645Y-82997204D01*
X235048410Y-82909516D01*
X234939340Y-82810660D01*
X234840484Y-82701590D01*
X234752796Y-82583355D01*
X234677118Y-82457095D01*
X234614181Y-82324025D01*
X234564589Y-82185427D01*
X234528822Y-82042635D01*
X234507223Y-81897026D01*
X234500000Y-81750000D01*
X234500000Y-78750000D01*
X234507223Y-78602974D01*
X234528822Y-78457365D01*
X234564589Y-78314573D01*
X234614181Y-78175975D01*
X234677118Y-78042905D01*
X234752796Y-77916645D01*
X234840484Y-77798410D01*
X234939340Y-77689340D01*
X235048410Y-77590484D01*
X235166645Y-77502796D01*
X235292905Y-77427118D01*
X235425975Y-77364181D01*
X235564573Y-77314589D01*
X235707365Y-77278822D01*
X235852974Y-77257223D01*
X236000000Y-77250000D01*
X240500000Y-77250000D01*
X240647026Y-77257223D01*
X240647026Y-77257223D01*
G37*
D11*
X238250000Y-80250000D03*
G04 #@! TD*
M02*
