G04 #@! TF.GenerationSoftware,KiCad,Pcbnew,(5.0.0)*
G04 #@! TF.CreationDate,2020-08-12T18:59:31-04:00*
G04 #@! TF.ProjectId,WS2812 Clock,57533238313220436C6F636B2E6B6963,rev?*
G04 #@! TF.SameCoordinates,Original*
G04 #@! TF.FileFunction,Copper,L1,Top,Signal*
G04 #@! TF.FilePolarity,Positive*
%FSLAX46Y46*%
G04 Gerber Fmt 4.6, Leading zero omitted, Abs format (unit mm)*
G04 Created by KiCad (PCBNEW (5.0.0)) date 08/12/20 18:59:31*
%MOMM*%
%LPD*%
G01*
G04 APERTURE LIST*
G04 #@! TA.AperFunction,EtchedComponent*
%ADD10C,0.300000*%
G04 #@! TD*
G04 #@! TA.AperFunction,ComponentPad*
%ADD11C,5.000000*%
G04 #@! TD*
G04 #@! TA.AperFunction,NonConductor*
%ADD12C,0.500000*%
G04 #@! TD*
G04 APERTURE END LIST*
D10*
G04 #@! TO.C,REF\002A\002A*
X236750000Y-70500000D02*
X241250000Y-70500000D01*
X236750000Y-70500000D02*
G75*
G02X235250000Y-69000000I0J1500000D01*
G01*
X235250000Y-66000000D02*
X235250000Y-69000000D01*
X235250000Y-66000000D02*
G75*
G02X236750000Y-64500000I1500000J0D01*
G01*
X241250000Y-64500000D02*
X236750000Y-64500000D01*
X241250000Y-64500000D02*
G75*
G02X242750000Y-66000000I0J-1500000D01*
G01*
X242750000Y-69000000D02*
X242750000Y-66000000D01*
X242750000Y-69000000D02*
G75*
G02X241250000Y-70500000I-1500000J0D01*
G01*
X218250000Y-39000000D02*
G75*
G03X218250000Y-32000000I0J3500000D01*
G01*
X218250000Y-32000000D02*
X192250000Y-32000000D01*
X192250000Y-39000000D02*
G75*
G02X192250000Y-32000000I0J3500000D01*
G01*
X192250000Y-39000000D02*
X218250000Y-39000000D01*
X191500000Y-70750000D02*
G75*
G03X191500000Y-77750000I0J-3500000D01*
G01*
X191500000Y-77750000D02*
X217500000Y-77750000D01*
X217500000Y-70750000D02*
G75*
G02X217500000Y-77750000I0J-3500000D01*
G01*
X217500000Y-70750000D02*
X191500000Y-70750000D01*
X178500000Y-67500000D02*
G75*
G03X185500000Y-67500000I3500000J0D01*
G01*
X185500000Y-67500000D02*
X185500000Y-41500000D01*
X178500000Y-41500000D02*
G75*
G02X185500000Y-41500000I3500000J0D01*
G01*
X178500000Y-41500000D02*
X178500000Y-67500000D01*
X222500000Y-105500000D02*
G75*
G03X229500000Y-105500000I3500000J0D01*
G01*
X229500000Y-105500000D02*
X229500000Y-79500000D01*
X222500000Y-79500000D02*
G75*
G02X229500000Y-79500000I3500000J0D01*
G01*
X222500000Y-79500000D02*
X222500000Y-105500000D01*
X176750000Y-106000000D02*
G75*
G03X183750000Y-106000000I3500000J0D01*
G01*
X183750000Y-106000000D02*
X183750000Y-80000000D01*
X176750000Y-80000000D02*
G75*
G02X183750000Y-80000000I3500000J0D01*
G01*
X176750000Y-80000000D02*
X176750000Y-106000000D01*
X216750000Y-115750000D02*
G75*
G03X216750000Y-108750000I0J3500000D01*
G01*
X216750000Y-108750000D02*
X190750000Y-108750000D01*
X190750000Y-115750000D02*
G75*
G02X190750000Y-108750000I0J3500000D01*
G01*
X190750000Y-115750000D02*
X216750000Y-115750000D01*
X224250000Y-68000000D02*
G75*
G03X231250000Y-68000000I3500000J0D01*
G01*
X231250000Y-68000000D02*
X231250000Y-42000000D01*
X224250000Y-42000000D02*
G75*
G02X231250000Y-42000000I3500000J0D01*
G01*
X224250000Y-42000000D02*
X224250000Y-68000000D01*
X242000000Y-81750000D02*
G75*
G02X240500000Y-83250000I-1500000J0D01*
G01*
X242000000Y-81750000D02*
X242000000Y-78750000D01*
X240500000Y-77250000D02*
G75*
G02X242000000Y-78750000I0J-1500000D01*
G01*
X240500000Y-77250000D02*
X236000000Y-77250000D01*
X234500000Y-78750000D02*
G75*
G02X236000000Y-77250000I1500000J0D01*
G01*
X234500000Y-78750000D02*
X234500000Y-81750000D01*
X236000000Y-83250000D02*
G75*
G02X234500000Y-81750000I0J1500000D01*
G01*
X236000000Y-83250000D02*
X240500000Y-83250000D01*
G04 #@! TD*
D11*
G04 #@! TO.P,REF\002A\002A,1*
G04 #@! TO.N,N/C*
X236000000Y-34200000D03*
G04 #@! TD*
G04 #@! TO.P,REF\002A\002A,1*
G04 #@! TO.N,N/C*
X180200000Y-34200000D03*
G04 #@! TD*
G04 #@! TO.P,REF\002A\002A,1*
G04 #@! TO.N,N/C*
X178800000Y-114500000D03*
G04 #@! TD*
D12*
G36*
X178217409Y-31232843D02*
X177232843Y-32217409D01*
X176700000Y-33503807D01*
X176700000Y-34896193D01*
X177232843Y-36182591D01*
X178217409Y-37167157D01*
X179411449Y-37661744D01*
X179085184Y-37883473D01*
X179039279Y-37922542D01*
X178989303Y-37956251D01*
X178896019Y-38044466D01*
X178376584Y-38593752D01*
X178340137Y-38641769D01*
X178298568Y-38685421D01*
X178226408Y-38791600D01*
X178226402Y-38791609D01*
X178226402Y-38791610D01*
X177837036Y-39439625D01*
X177811752Y-39494345D01*
X177780525Y-39545907D01*
X177732846Y-39665113D01*
X177732846Y-39665115D01*
X177491714Y-40381622D01*
X177478770Y-40440495D01*
X177459343Y-40497561D01*
X177438373Y-40624227D01*
X177362201Y-41325399D01*
X177350000Y-41386740D01*
X177350001Y-67613261D01*
X177356309Y-67644975D01*
X177373605Y-67954335D01*
X177378539Y-67984138D01*
X177378539Y-68014341D01*
X177399508Y-68141007D01*
X177564424Y-68878796D01*
X177583849Y-68935857D01*
X177596794Y-68994733D01*
X177644474Y-69113940D01*
X177963971Y-69799105D01*
X177995197Y-69850666D01*
X178020483Y-69905389D01*
X178092648Y-70011577D01*
X178551822Y-70612151D01*
X178593393Y-70655805D01*
X178629837Y-70703818D01*
X178723121Y-70792033D01*
X179300549Y-71279997D01*
X179350517Y-71313701D01*
X179396429Y-71352775D01*
X179506480Y-71418900D01*
X180175219Y-71771486D01*
X180231267Y-71793677D01*
X180284492Y-71821977D01*
X180406175Y-71862928D01*
X181135027Y-72063687D01*
X181194531Y-72073324D01*
X181252591Y-72089535D01*
X181380229Y-72103401D01*
X182135188Y-72142967D01*
X182195375Y-72139602D01*
X182255562Y-72142967D01*
X182383200Y-72129101D01*
X183129044Y-72005627D01*
X183187101Y-71989417D01*
X183246608Y-71979779D01*
X183368292Y-71938828D01*
X184070222Y-71658076D01*
X184123447Y-71629776D01*
X184179495Y-71607585D01*
X184289546Y-71541460D01*
X184914815Y-71116527D01*
X184960723Y-71077457D01*
X185010696Y-71043749D01*
X185103981Y-70955535D01*
X185623416Y-70406248D01*
X185659865Y-70358228D01*
X185701432Y-70314578D01*
X185773598Y-70208390D01*
X186162964Y-69560375D01*
X186188248Y-69505655D01*
X186219475Y-69454093D01*
X186267154Y-69334886D01*
X186267155Y-69334884D01*
X186267156Y-69334881D01*
X186508286Y-68618378D01*
X186521231Y-68559502D01*
X186540657Y-68502438D01*
X186561627Y-68375773D01*
X186637798Y-67674603D01*
X186650000Y-67613261D01*
X186650000Y-41886740D01*
X223100000Y-41886740D01*
X223100001Y-68113261D01*
X223106309Y-68144975D01*
X223123605Y-68454335D01*
X223128539Y-68484138D01*
X223128539Y-68514341D01*
X223149508Y-68641007D01*
X223314424Y-69378796D01*
X223333849Y-69435857D01*
X223346794Y-69494733D01*
X223394474Y-69613940D01*
X223713971Y-70299105D01*
X223745197Y-70350666D01*
X223770483Y-70405389D01*
X223842648Y-70511577D01*
X224301822Y-71112151D01*
X224343393Y-71155805D01*
X224379837Y-71203818D01*
X224473121Y-71292033D01*
X225050549Y-71779997D01*
X225100517Y-71813701D01*
X225146429Y-71852775D01*
X225256480Y-71918900D01*
X225925219Y-72271486D01*
X225981267Y-72293677D01*
X226034492Y-72321977D01*
X226156175Y-72362928D01*
X226885027Y-72563687D01*
X226944531Y-72573324D01*
X227002591Y-72589535D01*
X227130229Y-72603401D01*
X227885188Y-72642967D01*
X227945375Y-72639602D01*
X228005562Y-72642967D01*
X228133200Y-72629101D01*
X228879044Y-72505627D01*
X228937101Y-72489417D01*
X228996608Y-72479779D01*
X229118292Y-72438828D01*
X229820222Y-72158076D01*
X229873447Y-72129776D01*
X229929495Y-72107585D01*
X230039546Y-72041460D01*
X230664815Y-71616527D01*
X230710723Y-71577457D01*
X230760696Y-71543749D01*
X230853981Y-71455535D01*
X231373416Y-70906248D01*
X231409865Y-70858228D01*
X231451432Y-70814578D01*
X231523598Y-70708390D01*
X231912964Y-70060375D01*
X231938248Y-70005655D01*
X231969475Y-69954093D01*
X232017154Y-69834886D01*
X232017155Y-69834884D01*
X232017156Y-69834881D01*
X232258286Y-69118378D01*
X232271231Y-69059502D01*
X232290657Y-69002438D01*
X232311627Y-68875773D01*
X232387798Y-68174603D01*
X232400000Y-68113261D01*
X232400000Y-65886740D01*
X234100000Y-65886740D01*
X234100001Y-69113261D01*
X234114161Y-69184450D01*
X234156193Y-69517168D01*
X234175701Y-69582399D01*
X234181043Y-69650273D01*
X234245327Y-69838031D01*
X234444491Y-70288530D01*
X234494211Y-70364222D01*
X234530180Y-70447341D01*
X234651817Y-70604153D01*
X234986167Y-70965853D01*
X235057730Y-71021363D01*
X235118683Y-71088349D01*
X235284556Y-71197307D01*
X235718041Y-71431202D01*
X235803724Y-71460538D01*
X235883086Y-71504167D01*
X236075309Y-71553522D01*
X236543398Y-71631433D01*
X236636739Y-71650000D01*
X241363261Y-71650000D01*
X241434464Y-71635837D01*
X241767168Y-71593807D01*
X241832399Y-71574299D01*
X241900273Y-71568957D01*
X242088031Y-71504673D01*
X242538530Y-71305509D01*
X242614222Y-71255789D01*
X242697341Y-71219820D01*
X242854153Y-71098183D01*
X243215853Y-70763833D01*
X243271363Y-70692270D01*
X243338349Y-70631317D01*
X243447307Y-70465444D01*
X243681202Y-70031959D01*
X243710538Y-69946276D01*
X243754167Y-69866914D01*
X243803522Y-69674691D01*
X243881433Y-69206602D01*
X243900000Y-69113261D01*
X243900000Y-65886739D01*
X243885837Y-65815536D01*
X243843807Y-65482833D01*
X243824299Y-65417603D01*
X243818957Y-65349727D01*
X243754673Y-65161969D01*
X243555509Y-64711470D01*
X243505788Y-64635778D01*
X243469820Y-64552659D01*
X243348183Y-64395847D01*
X243348182Y-64395846D01*
X243348181Y-64395844D01*
X243348178Y-64395842D01*
X243013833Y-64034148D01*
X242942275Y-63978641D01*
X242881318Y-63911651D01*
X242715445Y-63802694D01*
X242281959Y-63568798D01*
X242196276Y-63539462D01*
X242116914Y-63495833D01*
X241924691Y-63446478D01*
X241456602Y-63368567D01*
X241363261Y-63350000D01*
X236636739Y-63350000D01*
X236565536Y-63364163D01*
X236232833Y-63406193D01*
X236167603Y-63425701D01*
X236099727Y-63431043D01*
X235911969Y-63495327D01*
X235461470Y-63694491D01*
X235385778Y-63744212D01*
X235302659Y-63780180D01*
X235145847Y-63901817D01*
X235145844Y-63901819D01*
X235145842Y-63901822D01*
X234784148Y-64236167D01*
X234728641Y-64307725D01*
X234661651Y-64368682D01*
X234552694Y-64534555D01*
X234318798Y-64968041D01*
X234289462Y-65053724D01*
X234245833Y-65133086D01*
X234196478Y-65325309D01*
X234118566Y-65793404D01*
X234100000Y-65886740D01*
X232400000Y-65886740D01*
X232400000Y-41886739D01*
X232393690Y-41855018D01*
X232376395Y-41545665D01*
X232371461Y-41515862D01*
X232371461Y-41485659D01*
X232350492Y-41358993D01*
X232185576Y-40621204D01*
X232166150Y-40564142D01*
X232153206Y-40505268D01*
X232105527Y-40386060D01*
X231786029Y-39700895D01*
X231754803Y-39649334D01*
X231729517Y-39594611D01*
X231657352Y-39488423D01*
X231198179Y-38887850D01*
X231156608Y-38844196D01*
X231120163Y-38796182D01*
X231026879Y-38707967D01*
X230449452Y-38220003D01*
X230399475Y-38186293D01*
X230353570Y-38147225D01*
X230243528Y-38081106D01*
X230243520Y-38081100D01*
X230243516Y-38081098D01*
X229574781Y-37728514D01*
X229518735Y-37706324D01*
X229465509Y-37678023D01*
X229343825Y-37637072D01*
X228614973Y-37436313D01*
X228555469Y-37426675D01*
X228497409Y-37410465D01*
X228369771Y-37396599D01*
X227614812Y-37357033D01*
X227554625Y-37360398D01*
X227494437Y-37357033D01*
X227366799Y-37370899D01*
X226620956Y-37494373D01*
X226562898Y-37510583D01*
X226503392Y-37520221D01*
X226381708Y-37561172D01*
X225679777Y-37841924D01*
X225626551Y-37870225D01*
X225570505Y-37892415D01*
X225460468Y-37958532D01*
X225460454Y-37958540D01*
X225460448Y-37958545D01*
X224835184Y-38383473D01*
X224789279Y-38422542D01*
X224739303Y-38456251D01*
X224646019Y-38544466D01*
X224126584Y-39093752D01*
X224090137Y-39141769D01*
X224048568Y-39185421D01*
X223976408Y-39291600D01*
X223976402Y-39291609D01*
X223976402Y-39291610D01*
X223587036Y-39939625D01*
X223561752Y-39994345D01*
X223530525Y-40045907D01*
X223482846Y-40165113D01*
X223482846Y-40165115D01*
X223241714Y-40881622D01*
X223228770Y-40940495D01*
X223209343Y-40997561D01*
X223188373Y-41124227D01*
X223112201Y-41825399D01*
X223100000Y-41886740D01*
X186650000Y-41886740D01*
X186650000Y-41386739D01*
X186643690Y-41355018D01*
X186626395Y-41045665D01*
X186621461Y-41015862D01*
X186621461Y-40985659D01*
X186600492Y-40858993D01*
X186435576Y-40121204D01*
X186416150Y-40064142D01*
X186403206Y-40005268D01*
X186355527Y-39886060D01*
X186036029Y-39200895D01*
X186004803Y-39149334D01*
X185979517Y-39094611D01*
X185907352Y-38988423D01*
X185448179Y-38387850D01*
X185406608Y-38344196D01*
X185370163Y-38296182D01*
X185276879Y-38207967D01*
X184699452Y-37720003D01*
X184649475Y-37686293D01*
X184603570Y-37647225D01*
X184493528Y-37581106D01*
X184493520Y-37581100D01*
X184493516Y-37581098D01*
X183824781Y-37228514D01*
X183768735Y-37206324D01*
X183715509Y-37178023D01*
X183593825Y-37137072D01*
X182864973Y-36936313D01*
X182805469Y-36926675D01*
X182747409Y-36910465D01*
X182619771Y-36896599D01*
X182461446Y-36888302D01*
X183167157Y-36182591D01*
X183700000Y-34896193D01*
X183700000Y-33503807D01*
X183167157Y-32217409D01*
X182182591Y-31232843D01*
X181801524Y-31075000D01*
X190840138Y-31075000D01*
X190814142Y-31083850D01*
X190755268Y-31096794D01*
X190636060Y-31144473D01*
X189950895Y-31463971D01*
X189899334Y-31495197D01*
X189844611Y-31520483D01*
X189738423Y-31592648D01*
X189137850Y-32051821D01*
X189094196Y-32093392D01*
X189046182Y-32129837D01*
X188957967Y-32223121D01*
X188470003Y-32800548D01*
X188436293Y-32850525D01*
X188397225Y-32896430D01*
X188331106Y-33006472D01*
X188331100Y-33006480D01*
X188331100Y-33006481D01*
X187978514Y-33675219D01*
X187956324Y-33731265D01*
X187928023Y-33784491D01*
X187887072Y-33906175D01*
X187686313Y-34635027D01*
X187676675Y-34694531D01*
X187660465Y-34752591D01*
X187646599Y-34880229D01*
X187607033Y-35635188D01*
X187610398Y-35695375D01*
X187607033Y-35755562D01*
X187620899Y-35883200D01*
X187744373Y-36629044D01*
X187760583Y-36687101D01*
X187770221Y-36746608D01*
X187811172Y-36868292D01*
X188091924Y-37570222D01*
X188120224Y-37623447D01*
X188142415Y-37679495D01*
X188208540Y-37789546D01*
X188633473Y-38414815D01*
X188672543Y-38460723D01*
X188706251Y-38510696D01*
X188794465Y-38603981D01*
X189343752Y-39123416D01*
X189391772Y-39159865D01*
X189435422Y-39201432D01*
X189541610Y-39273598D01*
X190189625Y-39662964D01*
X190244345Y-39688248D01*
X190295907Y-39719475D01*
X190415113Y-39767154D01*
X190415119Y-39767156D01*
X191131622Y-40008286D01*
X191190498Y-40021231D01*
X191247562Y-40040657D01*
X191374227Y-40061627D01*
X192075397Y-40137798D01*
X192136739Y-40150000D01*
X218363261Y-40150000D01*
X218394982Y-40143690D01*
X218704335Y-40126395D01*
X218734138Y-40121461D01*
X218764341Y-40121461D01*
X218891007Y-40100492D01*
X219628796Y-39935576D01*
X219685857Y-39916151D01*
X219744733Y-39903206D01*
X219863940Y-39855526D01*
X220549105Y-39536029D01*
X220600666Y-39504803D01*
X220655389Y-39479517D01*
X220761577Y-39407352D01*
X221362151Y-38948178D01*
X221405805Y-38906607D01*
X221453818Y-38870163D01*
X221542033Y-38776879D01*
X222029997Y-38199451D01*
X222063701Y-38149483D01*
X222102775Y-38103571D01*
X222168900Y-37993520D01*
X222521486Y-37324781D01*
X222543677Y-37268733D01*
X222571977Y-37215508D01*
X222612928Y-37093825D01*
X222813687Y-36364973D01*
X222823324Y-36305469D01*
X222839535Y-36247409D01*
X222853401Y-36119771D01*
X222892967Y-35364812D01*
X222889602Y-35304624D01*
X222892967Y-35244437D01*
X222879101Y-35116799D01*
X222755627Y-34370956D01*
X222739417Y-34312898D01*
X222729779Y-34253392D01*
X222688828Y-34131708D01*
X222408076Y-33429777D01*
X222379775Y-33376551D01*
X222357585Y-33320505D01*
X222291468Y-33210468D01*
X222291460Y-33210454D01*
X222291455Y-33210448D01*
X221866527Y-32585184D01*
X221827458Y-32539279D01*
X221793749Y-32489303D01*
X221705534Y-32396019D01*
X221156248Y-31876584D01*
X221108231Y-31840137D01*
X221064579Y-31798568D01*
X220958400Y-31726408D01*
X220958391Y-31726402D01*
X220958387Y-31726400D01*
X220310375Y-31337036D01*
X220255655Y-31311752D01*
X220204093Y-31280525D01*
X220084886Y-31232846D01*
X220084887Y-31232846D01*
X220084881Y-31232844D01*
X219615857Y-31075000D01*
X234398476Y-31075000D01*
X234017409Y-31232843D01*
X233032843Y-32217409D01*
X232500000Y-33503807D01*
X232500000Y-34896193D01*
X233032843Y-36182591D01*
X234017409Y-37167157D01*
X235303807Y-37700000D01*
X236696193Y-37700000D01*
X237982591Y-37167157D01*
X238967157Y-36182591D01*
X239500000Y-34896193D01*
X239500000Y-33503807D01*
X238967157Y-32217409D01*
X237982591Y-31232843D01*
X237601524Y-31075000D01*
X244554722Y-31075000D01*
X248925001Y-35445280D01*
X248925000Y-54554721D01*
X246814726Y-56664996D01*
X246724970Y-56724969D01*
X246664997Y-56814725D01*
X246664996Y-56814726D01*
X246487373Y-57080557D01*
X246403941Y-57500000D01*
X246425001Y-57605876D01*
X246425000Y-80105874D01*
X246425001Y-80105879D01*
X246425000Y-89894125D01*
X246425000Y-89894126D01*
X246425001Y-109554720D01*
X244314728Y-111664994D01*
X244314725Y-111664996D01*
X239554722Y-116425000D01*
X218751080Y-116425000D01*
X219049105Y-116286029D01*
X219100666Y-116254803D01*
X219155389Y-116229517D01*
X219261577Y-116157352D01*
X219862151Y-115698178D01*
X219905805Y-115656607D01*
X219953818Y-115620163D01*
X220042033Y-115526879D01*
X220529997Y-114949451D01*
X220563701Y-114899483D01*
X220602775Y-114853571D01*
X220668900Y-114743520D01*
X221021486Y-114074781D01*
X221043677Y-114018733D01*
X221071977Y-113965508D01*
X221112928Y-113843825D01*
X221313687Y-113114973D01*
X221323324Y-113055469D01*
X221339535Y-112997409D01*
X221353401Y-112869771D01*
X221392967Y-112114812D01*
X221389602Y-112054625D01*
X221392967Y-111994437D01*
X221379101Y-111866799D01*
X221255627Y-111120956D01*
X221239417Y-111062898D01*
X221229779Y-111003392D01*
X221188828Y-110881708D01*
X220908076Y-110179777D01*
X220879775Y-110126551D01*
X220857585Y-110070505D01*
X220791468Y-109960468D01*
X220791460Y-109960454D01*
X220791455Y-109960448D01*
X220366527Y-109335184D01*
X220327458Y-109289279D01*
X220293749Y-109239303D01*
X220205534Y-109146019D01*
X219656248Y-108626584D01*
X219608231Y-108590137D01*
X219564579Y-108548568D01*
X219458400Y-108476408D01*
X219458391Y-108476402D01*
X219458387Y-108476400D01*
X218810375Y-108087036D01*
X218755655Y-108061752D01*
X218704093Y-108030525D01*
X218584886Y-107982846D01*
X218584887Y-107982846D01*
X218584881Y-107982844D01*
X217868378Y-107741714D01*
X217809505Y-107728770D01*
X217752439Y-107709343D01*
X217625773Y-107688373D01*
X216924603Y-107612202D01*
X216863261Y-107600000D01*
X190636739Y-107600000D01*
X190605018Y-107606310D01*
X190295665Y-107623605D01*
X190265862Y-107628539D01*
X190235659Y-107628539D01*
X190108993Y-107649508D01*
X189371204Y-107814424D01*
X189314142Y-107833850D01*
X189255268Y-107846794D01*
X189136060Y-107894473D01*
X188450895Y-108213971D01*
X188399334Y-108245197D01*
X188344611Y-108270483D01*
X188238423Y-108342648D01*
X187637850Y-108801821D01*
X187594196Y-108843392D01*
X187546182Y-108879837D01*
X187457967Y-108973121D01*
X186970003Y-109550548D01*
X186936293Y-109600525D01*
X186897225Y-109646430D01*
X186831106Y-109756472D01*
X186831100Y-109756480D01*
X186831100Y-109756481D01*
X186478514Y-110425219D01*
X186456324Y-110481265D01*
X186428023Y-110534491D01*
X186387072Y-110656175D01*
X186186313Y-111385027D01*
X186176675Y-111444531D01*
X186160465Y-111502591D01*
X186146599Y-111630229D01*
X186107033Y-112385188D01*
X186110398Y-112445375D01*
X186107033Y-112505562D01*
X186120899Y-112633200D01*
X186244373Y-113379044D01*
X186260583Y-113437101D01*
X186270221Y-113496608D01*
X186311172Y-113618292D01*
X186591924Y-114320222D01*
X186620224Y-114373447D01*
X186642415Y-114429495D01*
X186708540Y-114539546D01*
X187133473Y-115164815D01*
X187172543Y-115210723D01*
X187206251Y-115260696D01*
X187294465Y-115353981D01*
X187843752Y-115873416D01*
X187891772Y-115909865D01*
X187935422Y-115951432D01*
X188041610Y-116023598D01*
X188689625Y-116412964D01*
X188715673Y-116425000D01*
X181791012Y-116425000D01*
X182300000Y-115196193D01*
X182300000Y-113803807D01*
X181767157Y-112517409D01*
X180782591Y-111532843D01*
X179496193Y-111000000D01*
X178103807Y-111000000D01*
X176817409Y-111532843D01*
X175832843Y-112517409D01*
X175307054Y-113786776D01*
X173335006Y-111814728D01*
X173335004Y-111814725D01*
X171075000Y-109554722D01*
X171075000Y-79886740D01*
X175600000Y-79886740D01*
X175600001Y-106113261D01*
X175606309Y-106144975D01*
X175623605Y-106454335D01*
X175628539Y-106484138D01*
X175628539Y-106514341D01*
X175649508Y-106641007D01*
X175814424Y-107378796D01*
X175833849Y-107435857D01*
X175846794Y-107494733D01*
X175894474Y-107613940D01*
X176213971Y-108299105D01*
X176245197Y-108350666D01*
X176270483Y-108405389D01*
X176342648Y-108511577D01*
X176801822Y-109112151D01*
X176843393Y-109155805D01*
X176879837Y-109203818D01*
X176973121Y-109292033D01*
X177550549Y-109779997D01*
X177600517Y-109813701D01*
X177646429Y-109852775D01*
X177756480Y-109918900D01*
X178425219Y-110271486D01*
X178481267Y-110293677D01*
X178534492Y-110321977D01*
X178656175Y-110362928D01*
X179385027Y-110563687D01*
X179444531Y-110573324D01*
X179502591Y-110589535D01*
X179630229Y-110603401D01*
X180385188Y-110642967D01*
X180445375Y-110639602D01*
X180505562Y-110642967D01*
X180633200Y-110629101D01*
X181379044Y-110505627D01*
X181437101Y-110489417D01*
X181496608Y-110479779D01*
X181618292Y-110438828D01*
X182320222Y-110158076D01*
X182373447Y-110129776D01*
X182429495Y-110107585D01*
X182539546Y-110041460D01*
X183164815Y-109616527D01*
X183210723Y-109577457D01*
X183260696Y-109543749D01*
X183353981Y-109455535D01*
X183873416Y-108906248D01*
X183909865Y-108858228D01*
X183951432Y-108814578D01*
X184023598Y-108708390D01*
X184412964Y-108060375D01*
X184438248Y-108005655D01*
X184469475Y-107954093D01*
X184517154Y-107834886D01*
X184517155Y-107834884D01*
X184517156Y-107834881D01*
X184758286Y-107118378D01*
X184771231Y-107059502D01*
X184790657Y-107002438D01*
X184811627Y-106875773D01*
X184887798Y-106174603D01*
X184900000Y-106113261D01*
X184900000Y-79886739D01*
X184893690Y-79855018D01*
X184876395Y-79545665D01*
X184871461Y-79515862D01*
X184871461Y-79485659D01*
X184855086Y-79386740D01*
X221350000Y-79386740D01*
X221350001Y-105613261D01*
X221356309Y-105644975D01*
X221373605Y-105954335D01*
X221378539Y-105984138D01*
X221378539Y-106014341D01*
X221399508Y-106141007D01*
X221564424Y-106878796D01*
X221583849Y-106935857D01*
X221596794Y-106994733D01*
X221644474Y-107113940D01*
X221963971Y-107799105D01*
X221995197Y-107850666D01*
X222020483Y-107905389D01*
X222092648Y-108011577D01*
X222551822Y-108612151D01*
X222593393Y-108655805D01*
X222629837Y-108703818D01*
X222723121Y-108792033D01*
X223300549Y-109279997D01*
X223350517Y-109313701D01*
X223396429Y-109352775D01*
X223506480Y-109418900D01*
X224175219Y-109771486D01*
X224231267Y-109793677D01*
X224284492Y-109821977D01*
X224406175Y-109862928D01*
X225135027Y-110063687D01*
X225194531Y-110073324D01*
X225252591Y-110089535D01*
X225380229Y-110103401D01*
X226135188Y-110142967D01*
X226195375Y-110139602D01*
X226255562Y-110142967D01*
X226383200Y-110129101D01*
X227129044Y-110005627D01*
X227187101Y-109989417D01*
X227246608Y-109979779D01*
X227368292Y-109938828D01*
X228070222Y-109658076D01*
X228123447Y-109629776D01*
X228179495Y-109607585D01*
X228289546Y-109541460D01*
X228914815Y-109116527D01*
X228960723Y-109077457D01*
X229010696Y-109043749D01*
X229103981Y-108955535D01*
X229623416Y-108406248D01*
X229659865Y-108358228D01*
X229701432Y-108314578D01*
X229773598Y-108208390D01*
X230162964Y-107560375D01*
X230188248Y-107505655D01*
X230219475Y-107454093D01*
X230267154Y-107334886D01*
X230267155Y-107334884D01*
X230267156Y-107334881D01*
X230508286Y-106618378D01*
X230521231Y-106559502D01*
X230540657Y-106502438D01*
X230561627Y-106375773D01*
X230637798Y-105674603D01*
X230650000Y-105613261D01*
X230650000Y-79386739D01*
X230643690Y-79355018D01*
X230626395Y-79045665D01*
X230621461Y-79015862D01*
X230621461Y-78985659D01*
X230600492Y-78858993D01*
X230550813Y-78636740D01*
X233350000Y-78636740D01*
X233350001Y-81863261D01*
X233364161Y-81934450D01*
X233406193Y-82267168D01*
X233425701Y-82332399D01*
X233431043Y-82400273D01*
X233495327Y-82588031D01*
X233694491Y-83038530D01*
X233744211Y-83114222D01*
X233780180Y-83197341D01*
X233901817Y-83354153D01*
X234236167Y-83715853D01*
X234307730Y-83771363D01*
X234368683Y-83838349D01*
X234534556Y-83947307D01*
X234968041Y-84181202D01*
X235053724Y-84210538D01*
X235133086Y-84254167D01*
X235325309Y-84303522D01*
X235793398Y-84381433D01*
X235886739Y-84400000D01*
X240613261Y-84400000D01*
X240684464Y-84385837D01*
X241017168Y-84343807D01*
X241082399Y-84324299D01*
X241150273Y-84318957D01*
X241338031Y-84254673D01*
X241788530Y-84055509D01*
X241864222Y-84005789D01*
X241947341Y-83969820D01*
X242104153Y-83848183D01*
X242465853Y-83513833D01*
X242521363Y-83442270D01*
X242588349Y-83381317D01*
X242697307Y-83215444D01*
X242931202Y-82781959D01*
X242960538Y-82696276D01*
X243004167Y-82616914D01*
X243053522Y-82424691D01*
X243131433Y-81956602D01*
X243150000Y-81863261D01*
X243150000Y-78636739D01*
X243135837Y-78565536D01*
X243093807Y-78232833D01*
X243074299Y-78167603D01*
X243068957Y-78099727D01*
X243004673Y-77911969D01*
X242805509Y-77461470D01*
X242755788Y-77385778D01*
X242719820Y-77302659D01*
X242598183Y-77145847D01*
X242598182Y-77145846D01*
X242598181Y-77145844D01*
X242598178Y-77145842D01*
X242263833Y-76784148D01*
X242192275Y-76728641D01*
X242131318Y-76661651D01*
X241965445Y-76552694D01*
X241531959Y-76318798D01*
X241446276Y-76289462D01*
X241366914Y-76245833D01*
X241174691Y-76196478D01*
X240706602Y-76118567D01*
X240613261Y-76100000D01*
X235886739Y-76100000D01*
X235815536Y-76114163D01*
X235482833Y-76156193D01*
X235417603Y-76175701D01*
X235349727Y-76181043D01*
X235161969Y-76245327D01*
X234711470Y-76444491D01*
X234635778Y-76494212D01*
X234552659Y-76530180D01*
X234395847Y-76651817D01*
X234395844Y-76651819D01*
X234395842Y-76651822D01*
X234034148Y-76986167D01*
X233978641Y-77057725D01*
X233911651Y-77118682D01*
X233802694Y-77284555D01*
X233568798Y-77718041D01*
X233539462Y-77803724D01*
X233495833Y-77883086D01*
X233446478Y-78075309D01*
X233368566Y-78543404D01*
X233350000Y-78636740D01*
X230550813Y-78636740D01*
X230435576Y-78121204D01*
X230416150Y-78064142D01*
X230403206Y-78005268D01*
X230355527Y-77886060D01*
X230036029Y-77200895D01*
X230004803Y-77149334D01*
X229979517Y-77094611D01*
X229907352Y-76988423D01*
X229448179Y-76387850D01*
X229406608Y-76344196D01*
X229370163Y-76296182D01*
X229276879Y-76207967D01*
X228699452Y-75720003D01*
X228649475Y-75686293D01*
X228603570Y-75647225D01*
X228493528Y-75581106D01*
X228493520Y-75581100D01*
X228493516Y-75581098D01*
X227824781Y-75228514D01*
X227768735Y-75206324D01*
X227715509Y-75178023D01*
X227593825Y-75137072D01*
X226864973Y-74936313D01*
X226805469Y-74926675D01*
X226747409Y-74910465D01*
X226619771Y-74896599D01*
X225864812Y-74857033D01*
X225804625Y-74860398D01*
X225744437Y-74857033D01*
X225616799Y-74870899D01*
X224870956Y-74994373D01*
X224812898Y-75010583D01*
X224753392Y-75020221D01*
X224631708Y-75061172D01*
X223929777Y-75341924D01*
X223876551Y-75370225D01*
X223820505Y-75392415D01*
X223710468Y-75458532D01*
X223710454Y-75458540D01*
X223710448Y-75458545D01*
X223085184Y-75883473D01*
X223039279Y-75922542D01*
X222989303Y-75956251D01*
X222896019Y-76044466D01*
X222376584Y-76593752D01*
X222340137Y-76641769D01*
X222298568Y-76685421D01*
X222226408Y-76791600D01*
X222226402Y-76791609D01*
X222226402Y-76791610D01*
X221837036Y-77439625D01*
X221811752Y-77494345D01*
X221780525Y-77545907D01*
X221732846Y-77665113D01*
X221732846Y-77665115D01*
X221491714Y-78381622D01*
X221478770Y-78440495D01*
X221459343Y-78497561D01*
X221438373Y-78624227D01*
X221362201Y-79325399D01*
X221350000Y-79386740D01*
X184855086Y-79386740D01*
X184850492Y-79358993D01*
X184685576Y-78621204D01*
X184666150Y-78564142D01*
X184653206Y-78505268D01*
X184605527Y-78386060D01*
X184286029Y-77700895D01*
X184254803Y-77649334D01*
X184229517Y-77594611D01*
X184157352Y-77488423D01*
X183698179Y-76887850D01*
X183656608Y-76844196D01*
X183620163Y-76796182D01*
X183526879Y-76707967D01*
X182949452Y-76220003D01*
X182899475Y-76186293D01*
X182853570Y-76147225D01*
X182743528Y-76081106D01*
X182743520Y-76081100D01*
X182743516Y-76081098D01*
X182074781Y-75728514D01*
X182018735Y-75706324D01*
X181965509Y-75678023D01*
X181843825Y-75637072D01*
X181114973Y-75436313D01*
X181055469Y-75426675D01*
X180997409Y-75410465D01*
X180869771Y-75396599D01*
X180114812Y-75357033D01*
X180054625Y-75360398D01*
X179994437Y-75357033D01*
X179866799Y-75370899D01*
X179120956Y-75494373D01*
X179062898Y-75510583D01*
X179003392Y-75520221D01*
X178881708Y-75561172D01*
X178179777Y-75841924D01*
X178126551Y-75870225D01*
X178070505Y-75892415D01*
X177960468Y-75958532D01*
X177960454Y-75958540D01*
X177960448Y-75958545D01*
X177335184Y-76383473D01*
X177289279Y-76422542D01*
X177239303Y-76456251D01*
X177146019Y-76544466D01*
X176626584Y-77093752D01*
X176590137Y-77141769D01*
X176548568Y-77185421D01*
X176476408Y-77291600D01*
X176476402Y-77291609D01*
X176476402Y-77291610D01*
X176087036Y-77939625D01*
X176061752Y-77994345D01*
X176030525Y-78045907D01*
X175982846Y-78165113D01*
X175982846Y-78165115D01*
X175741714Y-78881622D01*
X175728770Y-78940495D01*
X175709343Y-78997561D01*
X175688373Y-79124227D01*
X175612201Y-79825399D01*
X175600000Y-79886740D01*
X171075000Y-79886740D01*
X171075000Y-74385188D01*
X186857033Y-74385188D01*
X186860398Y-74445375D01*
X186857033Y-74505562D01*
X186870899Y-74633200D01*
X186994373Y-75379044D01*
X187010583Y-75437101D01*
X187020221Y-75496608D01*
X187061172Y-75618292D01*
X187341924Y-76320222D01*
X187370224Y-76373447D01*
X187392415Y-76429495D01*
X187458540Y-76539546D01*
X187883473Y-77164815D01*
X187922543Y-77210723D01*
X187956251Y-77260696D01*
X188044465Y-77353981D01*
X188593752Y-77873416D01*
X188641772Y-77909865D01*
X188685422Y-77951432D01*
X188791610Y-78023598D01*
X189439625Y-78412964D01*
X189494345Y-78438248D01*
X189545907Y-78469475D01*
X189665113Y-78517154D01*
X189665119Y-78517156D01*
X190381622Y-78758286D01*
X190440498Y-78771231D01*
X190497562Y-78790657D01*
X190624227Y-78811627D01*
X191325397Y-78887798D01*
X191386739Y-78900000D01*
X217613261Y-78900000D01*
X217644982Y-78893690D01*
X217954335Y-78876395D01*
X217984138Y-78871461D01*
X218014341Y-78871461D01*
X218141007Y-78850492D01*
X218878796Y-78685576D01*
X218935857Y-78666151D01*
X218994733Y-78653206D01*
X219113940Y-78605526D01*
X219799105Y-78286029D01*
X219850666Y-78254803D01*
X219905389Y-78229517D01*
X220011577Y-78157352D01*
X220612151Y-77698178D01*
X220655805Y-77656607D01*
X220703818Y-77620163D01*
X220792033Y-77526879D01*
X221279997Y-76949451D01*
X221313701Y-76899483D01*
X221352775Y-76853571D01*
X221418900Y-76743520D01*
X221771486Y-76074781D01*
X221793677Y-76018733D01*
X221821977Y-75965508D01*
X221862928Y-75843825D01*
X222063687Y-75114973D01*
X222073324Y-75055469D01*
X222089535Y-74997409D01*
X222103401Y-74869771D01*
X222142967Y-74114812D01*
X222139602Y-74054625D01*
X222142967Y-73994437D01*
X222129101Y-73866799D01*
X222005627Y-73120956D01*
X221989417Y-73062898D01*
X221979779Y-73003392D01*
X221938828Y-72881708D01*
X221658076Y-72179777D01*
X221629775Y-72126551D01*
X221607585Y-72070505D01*
X221541468Y-71960468D01*
X221541460Y-71960454D01*
X221541455Y-71960448D01*
X221116527Y-71335184D01*
X221077458Y-71289279D01*
X221043749Y-71239303D01*
X220955534Y-71146019D01*
X220406248Y-70626584D01*
X220358231Y-70590137D01*
X220314579Y-70548568D01*
X220208400Y-70476408D01*
X220208391Y-70476402D01*
X220208387Y-70476400D01*
X219560375Y-70087036D01*
X219505655Y-70061752D01*
X219454093Y-70030525D01*
X219334886Y-69982846D01*
X219334887Y-69982846D01*
X219334881Y-69982844D01*
X218618378Y-69741714D01*
X218559505Y-69728770D01*
X218502439Y-69709343D01*
X218375773Y-69688373D01*
X217674603Y-69612202D01*
X217613261Y-69600000D01*
X191386739Y-69600000D01*
X191355018Y-69606310D01*
X191045665Y-69623605D01*
X191015862Y-69628539D01*
X190985659Y-69628539D01*
X190858993Y-69649508D01*
X190121204Y-69814424D01*
X190064142Y-69833850D01*
X190005268Y-69846794D01*
X189886060Y-69894473D01*
X189200895Y-70213971D01*
X189149334Y-70245197D01*
X189094611Y-70270483D01*
X188988423Y-70342648D01*
X188387850Y-70801821D01*
X188344196Y-70843392D01*
X188296182Y-70879837D01*
X188207967Y-70973121D01*
X187720003Y-71550548D01*
X187686293Y-71600525D01*
X187647225Y-71646430D01*
X187581106Y-71756472D01*
X187581100Y-71756480D01*
X187581100Y-71756481D01*
X187228514Y-72425219D01*
X187206324Y-72481265D01*
X187178023Y-72534491D01*
X187137072Y-72656175D01*
X186936313Y-73385027D01*
X186926675Y-73444531D01*
X186910465Y-73502591D01*
X186896599Y-73630229D01*
X186857033Y-74385188D01*
X171075000Y-74385188D01*
X171075000Y-57945278D01*
X173185275Y-55835004D01*
X173275031Y-55775031D01*
X173512627Y-55419444D01*
X173575000Y-55105875D01*
X173575000Y-55105872D01*
X173596059Y-55000000D01*
X173575000Y-54894129D01*
X173575000Y-35445278D01*
X177945279Y-31075000D01*
X178598476Y-31075000D01*
X178217409Y-31232843D01*
X178217409Y-31232843D01*
G37*
X178217409Y-31232843D02*
X177232843Y-32217409D01*
X176700000Y-33503807D01*
X176700000Y-34896193D01*
X177232843Y-36182591D01*
X178217409Y-37167157D01*
X179411449Y-37661744D01*
X179085184Y-37883473D01*
X179039279Y-37922542D01*
X178989303Y-37956251D01*
X178896019Y-38044466D01*
X178376584Y-38593752D01*
X178340137Y-38641769D01*
X178298568Y-38685421D01*
X178226408Y-38791600D01*
X178226402Y-38791609D01*
X178226402Y-38791610D01*
X177837036Y-39439625D01*
X177811752Y-39494345D01*
X177780525Y-39545907D01*
X177732846Y-39665113D01*
X177732846Y-39665115D01*
X177491714Y-40381622D01*
X177478770Y-40440495D01*
X177459343Y-40497561D01*
X177438373Y-40624227D01*
X177362201Y-41325399D01*
X177350000Y-41386740D01*
X177350001Y-67613261D01*
X177356309Y-67644975D01*
X177373605Y-67954335D01*
X177378539Y-67984138D01*
X177378539Y-68014341D01*
X177399508Y-68141007D01*
X177564424Y-68878796D01*
X177583849Y-68935857D01*
X177596794Y-68994733D01*
X177644474Y-69113940D01*
X177963971Y-69799105D01*
X177995197Y-69850666D01*
X178020483Y-69905389D01*
X178092648Y-70011577D01*
X178551822Y-70612151D01*
X178593393Y-70655805D01*
X178629837Y-70703818D01*
X178723121Y-70792033D01*
X179300549Y-71279997D01*
X179350517Y-71313701D01*
X179396429Y-71352775D01*
X179506480Y-71418900D01*
X180175219Y-71771486D01*
X180231267Y-71793677D01*
X180284492Y-71821977D01*
X180406175Y-71862928D01*
X181135027Y-72063687D01*
X181194531Y-72073324D01*
X181252591Y-72089535D01*
X181380229Y-72103401D01*
X182135188Y-72142967D01*
X182195375Y-72139602D01*
X182255562Y-72142967D01*
X182383200Y-72129101D01*
X183129044Y-72005627D01*
X183187101Y-71989417D01*
X183246608Y-71979779D01*
X183368292Y-71938828D01*
X184070222Y-71658076D01*
X184123447Y-71629776D01*
X184179495Y-71607585D01*
X184289546Y-71541460D01*
X184914815Y-71116527D01*
X184960723Y-71077457D01*
X185010696Y-71043749D01*
X185103981Y-70955535D01*
X185623416Y-70406248D01*
X185659865Y-70358228D01*
X185701432Y-70314578D01*
X185773598Y-70208390D01*
X186162964Y-69560375D01*
X186188248Y-69505655D01*
X186219475Y-69454093D01*
X186267154Y-69334886D01*
X186267155Y-69334884D01*
X186267156Y-69334881D01*
X186508286Y-68618378D01*
X186521231Y-68559502D01*
X186540657Y-68502438D01*
X186561627Y-68375773D01*
X186637798Y-67674603D01*
X186650000Y-67613261D01*
X186650000Y-41886740D01*
X223100000Y-41886740D01*
X223100001Y-68113261D01*
X223106309Y-68144975D01*
X223123605Y-68454335D01*
X223128539Y-68484138D01*
X223128539Y-68514341D01*
X223149508Y-68641007D01*
X223314424Y-69378796D01*
X223333849Y-69435857D01*
X223346794Y-69494733D01*
X223394474Y-69613940D01*
X223713971Y-70299105D01*
X223745197Y-70350666D01*
X223770483Y-70405389D01*
X223842648Y-70511577D01*
X224301822Y-71112151D01*
X224343393Y-71155805D01*
X224379837Y-71203818D01*
X224473121Y-71292033D01*
X225050549Y-71779997D01*
X225100517Y-71813701D01*
X225146429Y-71852775D01*
X225256480Y-71918900D01*
X225925219Y-72271486D01*
X225981267Y-72293677D01*
X226034492Y-72321977D01*
X226156175Y-72362928D01*
X226885027Y-72563687D01*
X226944531Y-72573324D01*
X227002591Y-72589535D01*
X227130229Y-72603401D01*
X227885188Y-72642967D01*
X227945375Y-72639602D01*
X228005562Y-72642967D01*
X228133200Y-72629101D01*
X228879044Y-72505627D01*
X228937101Y-72489417D01*
X228996608Y-72479779D01*
X229118292Y-72438828D01*
X229820222Y-72158076D01*
X229873447Y-72129776D01*
X229929495Y-72107585D01*
X230039546Y-72041460D01*
X230664815Y-71616527D01*
X230710723Y-71577457D01*
X230760696Y-71543749D01*
X230853981Y-71455535D01*
X231373416Y-70906248D01*
X231409865Y-70858228D01*
X231451432Y-70814578D01*
X231523598Y-70708390D01*
X231912964Y-70060375D01*
X231938248Y-70005655D01*
X231969475Y-69954093D01*
X232017154Y-69834886D01*
X232017155Y-69834884D01*
X232017156Y-69834881D01*
X232258286Y-69118378D01*
X232271231Y-69059502D01*
X232290657Y-69002438D01*
X232311627Y-68875773D01*
X232387798Y-68174603D01*
X232400000Y-68113261D01*
X232400000Y-65886740D01*
X234100000Y-65886740D01*
X234100001Y-69113261D01*
X234114161Y-69184450D01*
X234156193Y-69517168D01*
X234175701Y-69582399D01*
X234181043Y-69650273D01*
X234245327Y-69838031D01*
X234444491Y-70288530D01*
X234494211Y-70364222D01*
X234530180Y-70447341D01*
X234651817Y-70604153D01*
X234986167Y-70965853D01*
X235057730Y-71021363D01*
X235118683Y-71088349D01*
X235284556Y-71197307D01*
X235718041Y-71431202D01*
X235803724Y-71460538D01*
X235883086Y-71504167D01*
X236075309Y-71553522D01*
X236543398Y-71631433D01*
X236636739Y-71650000D01*
X241363261Y-71650000D01*
X241434464Y-71635837D01*
X241767168Y-71593807D01*
X241832399Y-71574299D01*
X241900273Y-71568957D01*
X242088031Y-71504673D01*
X242538530Y-71305509D01*
X242614222Y-71255789D01*
X242697341Y-71219820D01*
X242854153Y-71098183D01*
X243215853Y-70763833D01*
X243271363Y-70692270D01*
X243338349Y-70631317D01*
X243447307Y-70465444D01*
X243681202Y-70031959D01*
X243710538Y-69946276D01*
X243754167Y-69866914D01*
X243803522Y-69674691D01*
X243881433Y-69206602D01*
X243900000Y-69113261D01*
X243900000Y-65886739D01*
X243885837Y-65815536D01*
X243843807Y-65482833D01*
X243824299Y-65417603D01*
X243818957Y-65349727D01*
X243754673Y-65161969D01*
X243555509Y-64711470D01*
X243505788Y-64635778D01*
X243469820Y-64552659D01*
X243348183Y-64395847D01*
X243348182Y-64395846D01*
X243348181Y-64395844D01*
X243348178Y-64395842D01*
X243013833Y-64034148D01*
X242942275Y-63978641D01*
X242881318Y-63911651D01*
X242715445Y-63802694D01*
X242281959Y-63568798D01*
X242196276Y-63539462D01*
X242116914Y-63495833D01*
X241924691Y-63446478D01*
X241456602Y-63368567D01*
X241363261Y-63350000D01*
X236636739Y-63350000D01*
X236565536Y-63364163D01*
X236232833Y-63406193D01*
X236167603Y-63425701D01*
X236099727Y-63431043D01*
X235911969Y-63495327D01*
X235461470Y-63694491D01*
X235385778Y-63744212D01*
X235302659Y-63780180D01*
X235145847Y-63901817D01*
X235145844Y-63901819D01*
X235145842Y-63901822D01*
X234784148Y-64236167D01*
X234728641Y-64307725D01*
X234661651Y-64368682D01*
X234552694Y-64534555D01*
X234318798Y-64968041D01*
X234289462Y-65053724D01*
X234245833Y-65133086D01*
X234196478Y-65325309D01*
X234118566Y-65793404D01*
X234100000Y-65886740D01*
X232400000Y-65886740D01*
X232400000Y-41886739D01*
X232393690Y-41855018D01*
X232376395Y-41545665D01*
X232371461Y-41515862D01*
X232371461Y-41485659D01*
X232350492Y-41358993D01*
X232185576Y-40621204D01*
X232166150Y-40564142D01*
X232153206Y-40505268D01*
X232105527Y-40386060D01*
X231786029Y-39700895D01*
X231754803Y-39649334D01*
X231729517Y-39594611D01*
X231657352Y-39488423D01*
X231198179Y-38887850D01*
X231156608Y-38844196D01*
X231120163Y-38796182D01*
X231026879Y-38707967D01*
X230449452Y-38220003D01*
X230399475Y-38186293D01*
X230353570Y-38147225D01*
X230243528Y-38081106D01*
X230243520Y-38081100D01*
X230243516Y-38081098D01*
X229574781Y-37728514D01*
X229518735Y-37706324D01*
X229465509Y-37678023D01*
X229343825Y-37637072D01*
X228614973Y-37436313D01*
X228555469Y-37426675D01*
X228497409Y-37410465D01*
X228369771Y-37396599D01*
X227614812Y-37357033D01*
X227554625Y-37360398D01*
X227494437Y-37357033D01*
X227366799Y-37370899D01*
X226620956Y-37494373D01*
X226562898Y-37510583D01*
X226503392Y-37520221D01*
X226381708Y-37561172D01*
X225679777Y-37841924D01*
X225626551Y-37870225D01*
X225570505Y-37892415D01*
X225460468Y-37958532D01*
X225460454Y-37958540D01*
X225460448Y-37958545D01*
X224835184Y-38383473D01*
X224789279Y-38422542D01*
X224739303Y-38456251D01*
X224646019Y-38544466D01*
X224126584Y-39093752D01*
X224090137Y-39141769D01*
X224048568Y-39185421D01*
X223976408Y-39291600D01*
X223976402Y-39291609D01*
X223976402Y-39291610D01*
X223587036Y-39939625D01*
X223561752Y-39994345D01*
X223530525Y-40045907D01*
X223482846Y-40165113D01*
X223482846Y-40165115D01*
X223241714Y-40881622D01*
X223228770Y-40940495D01*
X223209343Y-40997561D01*
X223188373Y-41124227D01*
X223112201Y-41825399D01*
X223100000Y-41886740D01*
X186650000Y-41886740D01*
X186650000Y-41386739D01*
X186643690Y-41355018D01*
X186626395Y-41045665D01*
X186621461Y-41015862D01*
X186621461Y-40985659D01*
X186600492Y-40858993D01*
X186435576Y-40121204D01*
X186416150Y-40064142D01*
X186403206Y-40005268D01*
X186355527Y-39886060D01*
X186036029Y-39200895D01*
X186004803Y-39149334D01*
X185979517Y-39094611D01*
X185907352Y-38988423D01*
X185448179Y-38387850D01*
X185406608Y-38344196D01*
X185370163Y-38296182D01*
X185276879Y-38207967D01*
X184699452Y-37720003D01*
X184649475Y-37686293D01*
X184603570Y-37647225D01*
X184493528Y-37581106D01*
X184493520Y-37581100D01*
X184493516Y-37581098D01*
X183824781Y-37228514D01*
X183768735Y-37206324D01*
X183715509Y-37178023D01*
X183593825Y-37137072D01*
X182864973Y-36936313D01*
X182805469Y-36926675D01*
X182747409Y-36910465D01*
X182619771Y-36896599D01*
X182461446Y-36888302D01*
X183167157Y-36182591D01*
X183700000Y-34896193D01*
X183700000Y-33503807D01*
X183167157Y-32217409D01*
X182182591Y-31232843D01*
X181801524Y-31075000D01*
X190840138Y-31075000D01*
X190814142Y-31083850D01*
X190755268Y-31096794D01*
X190636060Y-31144473D01*
X189950895Y-31463971D01*
X189899334Y-31495197D01*
X189844611Y-31520483D01*
X189738423Y-31592648D01*
X189137850Y-32051821D01*
X189094196Y-32093392D01*
X189046182Y-32129837D01*
X188957967Y-32223121D01*
X188470003Y-32800548D01*
X188436293Y-32850525D01*
X188397225Y-32896430D01*
X188331106Y-33006472D01*
X188331100Y-33006480D01*
X188331100Y-33006481D01*
X187978514Y-33675219D01*
X187956324Y-33731265D01*
X187928023Y-33784491D01*
X187887072Y-33906175D01*
X187686313Y-34635027D01*
X187676675Y-34694531D01*
X187660465Y-34752591D01*
X187646599Y-34880229D01*
X187607033Y-35635188D01*
X187610398Y-35695375D01*
X187607033Y-35755562D01*
X187620899Y-35883200D01*
X187744373Y-36629044D01*
X187760583Y-36687101D01*
X187770221Y-36746608D01*
X187811172Y-36868292D01*
X188091924Y-37570222D01*
X188120224Y-37623447D01*
X188142415Y-37679495D01*
X188208540Y-37789546D01*
X188633473Y-38414815D01*
X188672543Y-38460723D01*
X188706251Y-38510696D01*
X188794465Y-38603981D01*
X189343752Y-39123416D01*
X189391772Y-39159865D01*
X189435422Y-39201432D01*
X189541610Y-39273598D01*
X190189625Y-39662964D01*
X190244345Y-39688248D01*
X190295907Y-39719475D01*
X190415113Y-39767154D01*
X190415119Y-39767156D01*
X191131622Y-40008286D01*
X191190498Y-40021231D01*
X191247562Y-40040657D01*
X191374227Y-40061627D01*
X192075397Y-40137798D01*
X192136739Y-40150000D01*
X218363261Y-40150000D01*
X218394982Y-40143690D01*
X218704335Y-40126395D01*
X218734138Y-40121461D01*
X218764341Y-40121461D01*
X218891007Y-40100492D01*
X219628796Y-39935576D01*
X219685857Y-39916151D01*
X219744733Y-39903206D01*
X219863940Y-39855526D01*
X220549105Y-39536029D01*
X220600666Y-39504803D01*
X220655389Y-39479517D01*
X220761577Y-39407352D01*
X221362151Y-38948178D01*
X221405805Y-38906607D01*
X221453818Y-38870163D01*
X221542033Y-38776879D01*
X222029997Y-38199451D01*
X222063701Y-38149483D01*
X222102775Y-38103571D01*
X222168900Y-37993520D01*
X222521486Y-37324781D01*
X222543677Y-37268733D01*
X222571977Y-37215508D01*
X222612928Y-37093825D01*
X222813687Y-36364973D01*
X222823324Y-36305469D01*
X222839535Y-36247409D01*
X222853401Y-36119771D01*
X222892967Y-35364812D01*
X222889602Y-35304624D01*
X222892967Y-35244437D01*
X222879101Y-35116799D01*
X222755627Y-34370956D01*
X222739417Y-34312898D01*
X222729779Y-34253392D01*
X222688828Y-34131708D01*
X222408076Y-33429777D01*
X222379775Y-33376551D01*
X222357585Y-33320505D01*
X222291468Y-33210468D01*
X222291460Y-33210454D01*
X222291455Y-33210448D01*
X221866527Y-32585184D01*
X221827458Y-32539279D01*
X221793749Y-32489303D01*
X221705534Y-32396019D01*
X221156248Y-31876584D01*
X221108231Y-31840137D01*
X221064579Y-31798568D01*
X220958400Y-31726408D01*
X220958391Y-31726402D01*
X220958387Y-31726400D01*
X220310375Y-31337036D01*
X220255655Y-31311752D01*
X220204093Y-31280525D01*
X220084886Y-31232846D01*
X220084887Y-31232846D01*
X220084881Y-31232844D01*
X219615857Y-31075000D01*
X234398476Y-31075000D01*
X234017409Y-31232843D01*
X233032843Y-32217409D01*
X232500000Y-33503807D01*
X232500000Y-34896193D01*
X233032843Y-36182591D01*
X234017409Y-37167157D01*
X235303807Y-37700000D01*
X236696193Y-37700000D01*
X237982591Y-37167157D01*
X238967157Y-36182591D01*
X239500000Y-34896193D01*
X239500000Y-33503807D01*
X238967157Y-32217409D01*
X237982591Y-31232843D01*
X237601524Y-31075000D01*
X244554722Y-31075000D01*
X248925001Y-35445280D01*
X248925000Y-54554721D01*
X246814726Y-56664996D01*
X246724970Y-56724969D01*
X246664997Y-56814725D01*
X246664996Y-56814726D01*
X246487373Y-57080557D01*
X246403941Y-57500000D01*
X246425001Y-57605876D01*
X246425000Y-80105874D01*
X246425001Y-80105879D01*
X246425000Y-89894125D01*
X246425000Y-89894126D01*
X246425001Y-109554720D01*
X244314728Y-111664994D01*
X244314725Y-111664996D01*
X239554722Y-116425000D01*
X218751080Y-116425000D01*
X219049105Y-116286029D01*
X219100666Y-116254803D01*
X219155389Y-116229517D01*
X219261577Y-116157352D01*
X219862151Y-115698178D01*
X219905805Y-115656607D01*
X219953818Y-115620163D01*
X220042033Y-115526879D01*
X220529997Y-114949451D01*
X220563701Y-114899483D01*
X220602775Y-114853571D01*
X220668900Y-114743520D01*
X221021486Y-114074781D01*
X221043677Y-114018733D01*
X221071977Y-113965508D01*
X221112928Y-113843825D01*
X221313687Y-113114973D01*
X221323324Y-113055469D01*
X221339535Y-112997409D01*
X221353401Y-112869771D01*
X221392967Y-112114812D01*
X221389602Y-112054625D01*
X221392967Y-111994437D01*
X221379101Y-111866799D01*
X221255627Y-111120956D01*
X221239417Y-111062898D01*
X221229779Y-111003392D01*
X221188828Y-110881708D01*
X220908076Y-110179777D01*
X220879775Y-110126551D01*
X220857585Y-110070505D01*
X220791468Y-109960468D01*
X220791460Y-109960454D01*
X220791455Y-109960448D01*
X220366527Y-109335184D01*
X220327458Y-109289279D01*
X220293749Y-109239303D01*
X220205534Y-109146019D01*
X219656248Y-108626584D01*
X219608231Y-108590137D01*
X219564579Y-108548568D01*
X219458400Y-108476408D01*
X219458391Y-108476402D01*
X219458387Y-108476400D01*
X218810375Y-108087036D01*
X218755655Y-108061752D01*
X218704093Y-108030525D01*
X218584886Y-107982846D01*
X218584887Y-107982846D01*
X218584881Y-107982844D01*
X217868378Y-107741714D01*
X217809505Y-107728770D01*
X217752439Y-107709343D01*
X217625773Y-107688373D01*
X216924603Y-107612202D01*
X216863261Y-107600000D01*
X190636739Y-107600000D01*
X190605018Y-107606310D01*
X190295665Y-107623605D01*
X190265862Y-107628539D01*
X190235659Y-107628539D01*
X190108993Y-107649508D01*
X189371204Y-107814424D01*
X189314142Y-107833850D01*
X189255268Y-107846794D01*
X189136060Y-107894473D01*
X188450895Y-108213971D01*
X188399334Y-108245197D01*
X188344611Y-108270483D01*
X188238423Y-108342648D01*
X187637850Y-108801821D01*
X187594196Y-108843392D01*
X187546182Y-108879837D01*
X187457967Y-108973121D01*
X186970003Y-109550548D01*
X186936293Y-109600525D01*
X186897225Y-109646430D01*
X186831106Y-109756472D01*
X186831100Y-109756480D01*
X186831100Y-109756481D01*
X186478514Y-110425219D01*
X186456324Y-110481265D01*
X186428023Y-110534491D01*
X186387072Y-110656175D01*
X186186313Y-111385027D01*
X186176675Y-111444531D01*
X186160465Y-111502591D01*
X186146599Y-111630229D01*
X186107033Y-112385188D01*
X186110398Y-112445375D01*
X186107033Y-112505562D01*
X186120899Y-112633200D01*
X186244373Y-113379044D01*
X186260583Y-113437101D01*
X186270221Y-113496608D01*
X186311172Y-113618292D01*
X186591924Y-114320222D01*
X186620224Y-114373447D01*
X186642415Y-114429495D01*
X186708540Y-114539546D01*
X187133473Y-115164815D01*
X187172543Y-115210723D01*
X187206251Y-115260696D01*
X187294465Y-115353981D01*
X187843752Y-115873416D01*
X187891772Y-115909865D01*
X187935422Y-115951432D01*
X188041610Y-116023598D01*
X188689625Y-116412964D01*
X188715673Y-116425000D01*
X181791012Y-116425000D01*
X182300000Y-115196193D01*
X182300000Y-113803807D01*
X181767157Y-112517409D01*
X180782591Y-111532843D01*
X179496193Y-111000000D01*
X178103807Y-111000000D01*
X176817409Y-111532843D01*
X175832843Y-112517409D01*
X175307054Y-113786776D01*
X173335006Y-111814728D01*
X173335004Y-111814725D01*
X171075000Y-109554722D01*
X171075000Y-79886740D01*
X175600000Y-79886740D01*
X175600001Y-106113261D01*
X175606309Y-106144975D01*
X175623605Y-106454335D01*
X175628539Y-106484138D01*
X175628539Y-106514341D01*
X175649508Y-106641007D01*
X175814424Y-107378796D01*
X175833849Y-107435857D01*
X175846794Y-107494733D01*
X175894474Y-107613940D01*
X176213971Y-108299105D01*
X176245197Y-108350666D01*
X176270483Y-108405389D01*
X176342648Y-108511577D01*
X176801822Y-109112151D01*
X176843393Y-109155805D01*
X176879837Y-109203818D01*
X176973121Y-109292033D01*
X177550549Y-109779997D01*
X177600517Y-109813701D01*
X177646429Y-109852775D01*
X177756480Y-109918900D01*
X178425219Y-110271486D01*
X178481267Y-110293677D01*
X178534492Y-110321977D01*
X178656175Y-110362928D01*
X179385027Y-110563687D01*
X179444531Y-110573324D01*
X179502591Y-110589535D01*
X179630229Y-110603401D01*
X180385188Y-110642967D01*
X180445375Y-110639602D01*
X180505562Y-110642967D01*
X180633200Y-110629101D01*
X181379044Y-110505627D01*
X181437101Y-110489417D01*
X181496608Y-110479779D01*
X181618292Y-110438828D01*
X182320222Y-110158076D01*
X182373447Y-110129776D01*
X182429495Y-110107585D01*
X182539546Y-110041460D01*
X183164815Y-109616527D01*
X183210723Y-109577457D01*
X183260696Y-109543749D01*
X183353981Y-109455535D01*
X183873416Y-108906248D01*
X183909865Y-108858228D01*
X183951432Y-108814578D01*
X184023598Y-108708390D01*
X184412964Y-108060375D01*
X184438248Y-108005655D01*
X184469475Y-107954093D01*
X184517154Y-107834886D01*
X184517155Y-107834884D01*
X184517156Y-107834881D01*
X184758286Y-107118378D01*
X184771231Y-107059502D01*
X184790657Y-107002438D01*
X184811627Y-106875773D01*
X184887798Y-106174603D01*
X184900000Y-106113261D01*
X184900000Y-79886739D01*
X184893690Y-79855018D01*
X184876395Y-79545665D01*
X184871461Y-79515862D01*
X184871461Y-79485659D01*
X184855086Y-79386740D01*
X221350000Y-79386740D01*
X221350001Y-105613261D01*
X221356309Y-105644975D01*
X221373605Y-105954335D01*
X221378539Y-105984138D01*
X221378539Y-106014341D01*
X221399508Y-106141007D01*
X221564424Y-106878796D01*
X221583849Y-106935857D01*
X221596794Y-106994733D01*
X221644474Y-107113940D01*
X221963971Y-107799105D01*
X221995197Y-107850666D01*
X222020483Y-107905389D01*
X222092648Y-108011577D01*
X222551822Y-108612151D01*
X222593393Y-108655805D01*
X222629837Y-108703818D01*
X222723121Y-108792033D01*
X223300549Y-109279997D01*
X223350517Y-109313701D01*
X223396429Y-109352775D01*
X223506480Y-109418900D01*
X224175219Y-109771486D01*
X224231267Y-109793677D01*
X224284492Y-109821977D01*
X224406175Y-109862928D01*
X225135027Y-110063687D01*
X225194531Y-110073324D01*
X225252591Y-110089535D01*
X225380229Y-110103401D01*
X226135188Y-110142967D01*
X226195375Y-110139602D01*
X226255562Y-110142967D01*
X226383200Y-110129101D01*
X227129044Y-110005627D01*
X227187101Y-109989417D01*
X227246608Y-109979779D01*
X227368292Y-109938828D01*
X228070222Y-109658076D01*
X228123447Y-109629776D01*
X228179495Y-109607585D01*
X228289546Y-109541460D01*
X228914815Y-109116527D01*
X228960723Y-109077457D01*
X229010696Y-109043749D01*
X229103981Y-108955535D01*
X229623416Y-108406248D01*
X229659865Y-108358228D01*
X229701432Y-108314578D01*
X229773598Y-108208390D01*
X230162964Y-107560375D01*
X230188248Y-107505655D01*
X230219475Y-107454093D01*
X230267154Y-107334886D01*
X230267155Y-107334884D01*
X230267156Y-107334881D01*
X230508286Y-106618378D01*
X230521231Y-106559502D01*
X230540657Y-106502438D01*
X230561627Y-106375773D01*
X230637798Y-105674603D01*
X230650000Y-105613261D01*
X230650000Y-79386739D01*
X230643690Y-79355018D01*
X230626395Y-79045665D01*
X230621461Y-79015862D01*
X230621461Y-78985659D01*
X230600492Y-78858993D01*
X230550813Y-78636740D01*
X233350000Y-78636740D01*
X233350001Y-81863261D01*
X233364161Y-81934450D01*
X233406193Y-82267168D01*
X233425701Y-82332399D01*
X233431043Y-82400273D01*
X233495327Y-82588031D01*
X233694491Y-83038530D01*
X233744211Y-83114222D01*
X233780180Y-83197341D01*
X233901817Y-83354153D01*
X234236167Y-83715853D01*
X234307730Y-83771363D01*
X234368683Y-83838349D01*
X234534556Y-83947307D01*
X234968041Y-84181202D01*
X235053724Y-84210538D01*
X235133086Y-84254167D01*
X235325309Y-84303522D01*
X235793398Y-84381433D01*
X235886739Y-84400000D01*
X240613261Y-84400000D01*
X240684464Y-84385837D01*
X241017168Y-84343807D01*
X241082399Y-84324299D01*
X241150273Y-84318957D01*
X241338031Y-84254673D01*
X241788530Y-84055509D01*
X241864222Y-84005789D01*
X241947341Y-83969820D01*
X242104153Y-83848183D01*
X242465853Y-83513833D01*
X242521363Y-83442270D01*
X242588349Y-83381317D01*
X242697307Y-83215444D01*
X242931202Y-82781959D01*
X242960538Y-82696276D01*
X243004167Y-82616914D01*
X243053522Y-82424691D01*
X243131433Y-81956602D01*
X243150000Y-81863261D01*
X243150000Y-78636739D01*
X243135837Y-78565536D01*
X243093807Y-78232833D01*
X243074299Y-78167603D01*
X243068957Y-78099727D01*
X243004673Y-77911969D01*
X242805509Y-77461470D01*
X242755788Y-77385778D01*
X242719820Y-77302659D01*
X242598183Y-77145847D01*
X242598182Y-77145846D01*
X242598181Y-77145844D01*
X242598178Y-77145842D01*
X242263833Y-76784148D01*
X242192275Y-76728641D01*
X242131318Y-76661651D01*
X241965445Y-76552694D01*
X241531959Y-76318798D01*
X241446276Y-76289462D01*
X241366914Y-76245833D01*
X241174691Y-76196478D01*
X240706602Y-76118567D01*
X240613261Y-76100000D01*
X235886739Y-76100000D01*
X235815536Y-76114163D01*
X235482833Y-76156193D01*
X235417603Y-76175701D01*
X235349727Y-76181043D01*
X235161969Y-76245327D01*
X234711470Y-76444491D01*
X234635778Y-76494212D01*
X234552659Y-76530180D01*
X234395847Y-76651817D01*
X234395844Y-76651819D01*
X234395842Y-76651822D01*
X234034148Y-76986167D01*
X233978641Y-77057725D01*
X233911651Y-77118682D01*
X233802694Y-77284555D01*
X233568798Y-77718041D01*
X233539462Y-77803724D01*
X233495833Y-77883086D01*
X233446478Y-78075309D01*
X233368566Y-78543404D01*
X233350000Y-78636740D01*
X230550813Y-78636740D01*
X230435576Y-78121204D01*
X230416150Y-78064142D01*
X230403206Y-78005268D01*
X230355527Y-77886060D01*
X230036029Y-77200895D01*
X230004803Y-77149334D01*
X229979517Y-77094611D01*
X229907352Y-76988423D01*
X229448179Y-76387850D01*
X229406608Y-76344196D01*
X229370163Y-76296182D01*
X229276879Y-76207967D01*
X228699452Y-75720003D01*
X228649475Y-75686293D01*
X228603570Y-75647225D01*
X228493528Y-75581106D01*
X228493520Y-75581100D01*
X228493516Y-75581098D01*
X227824781Y-75228514D01*
X227768735Y-75206324D01*
X227715509Y-75178023D01*
X227593825Y-75137072D01*
X226864973Y-74936313D01*
X226805469Y-74926675D01*
X226747409Y-74910465D01*
X226619771Y-74896599D01*
X225864812Y-74857033D01*
X225804625Y-74860398D01*
X225744437Y-74857033D01*
X225616799Y-74870899D01*
X224870956Y-74994373D01*
X224812898Y-75010583D01*
X224753392Y-75020221D01*
X224631708Y-75061172D01*
X223929777Y-75341924D01*
X223876551Y-75370225D01*
X223820505Y-75392415D01*
X223710468Y-75458532D01*
X223710454Y-75458540D01*
X223710448Y-75458545D01*
X223085184Y-75883473D01*
X223039279Y-75922542D01*
X222989303Y-75956251D01*
X222896019Y-76044466D01*
X222376584Y-76593752D01*
X222340137Y-76641769D01*
X222298568Y-76685421D01*
X222226408Y-76791600D01*
X222226402Y-76791609D01*
X222226402Y-76791610D01*
X221837036Y-77439625D01*
X221811752Y-77494345D01*
X221780525Y-77545907D01*
X221732846Y-77665113D01*
X221732846Y-77665115D01*
X221491714Y-78381622D01*
X221478770Y-78440495D01*
X221459343Y-78497561D01*
X221438373Y-78624227D01*
X221362201Y-79325399D01*
X221350000Y-79386740D01*
X184855086Y-79386740D01*
X184850492Y-79358993D01*
X184685576Y-78621204D01*
X184666150Y-78564142D01*
X184653206Y-78505268D01*
X184605527Y-78386060D01*
X184286029Y-77700895D01*
X184254803Y-77649334D01*
X184229517Y-77594611D01*
X184157352Y-77488423D01*
X183698179Y-76887850D01*
X183656608Y-76844196D01*
X183620163Y-76796182D01*
X183526879Y-76707967D01*
X182949452Y-76220003D01*
X182899475Y-76186293D01*
X182853570Y-76147225D01*
X182743528Y-76081106D01*
X182743520Y-76081100D01*
X182743516Y-76081098D01*
X182074781Y-75728514D01*
X182018735Y-75706324D01*
X181965509Y-75678023D01*
X181843825Y-75637072D01*
X181114973Y-75436313D01*
X181055469Y-75426675D01*
X180997409Y-75410465D01*
X180869771Y-75396599D01*
X180114812Y-75357033D01*
X180054625Y-75360398D01*
X179994437Y-75357033D01*
X179866799Y-75370899D01*
X179120956Y-75494373D01*
X179062898Y-75510583D01*
X179003392Y-75520221D01*
X178881708Y-75561172D01*
X178179777Y-75841924D01*
X178126551Y-75870225D01*
X178070505Y-75892415D01*
X177960468Y-75958532D01*
X177960454Y-75958540D01*
X177960448Y-75958545D01*
X177335184Y-76383473D01*
X177289279Y-76422542D01*
X177239303Y-76456251D01*
X177146019Y-76544466D01*
X176626584Y-77093752D01*
X176590137Y-77141769D01*
X176548568Y-77185421D01*
X176476408Y-77291600D01*
X176476402Y-77291609D01*
X176476402Y-77291610D01*
X176087036Y-77939625D01*
X176061752Y-77994345D01*
X176030525Y-78045907D01*
X175982846Y-78165113D01*
X175982846Y-78165115D01*
X175741714Y-78881622D01*
X175728770Y-78940495D01*
X175709343Y-78997561D01*
X175688373Y-79124227D01*
X175612201Y-79825399D01*
X175600000Y-79886740D01*
X171075000Y-79886740D01*
X171075000Y-74385188D01*
X186857033Y-74385188D01*
X186860398Y-74445375D01*
X186857033Y-74505562D01*
X186870899Y-74633200D01*
X186994373Y-75379044D01*
X187010583Y-75437101D01*
X187020221Y-75496608D01*
X187061172Y-75618292D01*
X187341924Y-76320222D01*
X187370224Y-76373447D01*
X187392415Y-76429495D01*
X187458540Y-76539546D01*
X187883473Y-77164815D01*
X187922543Y-77210723D01*
X187956251Y-77260696D01*
X188044465Y-77353981D01*
X188593752Y-77873416D01*
X188641772Y-77909865D01*
X188685422Y-77951432D01*
X188791610Y-78023598D01*
X189439625Y-78412964D01*
X189494345Y-78438248D01*
X189545907Y-78469475D01*
X189665113Y-78517154D01*
X189665119Y-78517156D01*
X190381622Y-78758286D01*
X190440498Y-78771231D01*
X190497562Y-78790657D01*
X190624227Y-78811627D01*
X191325397Y-78887798D01*
X191386739Y-78900000D01*
X217613261Y-78900000D01*
X217644982Y-78893690D01*
X217954335Y-78876395D01*
X217984138Y-78871461D01*
X218014341Y-78871461D01*
X218141007Y-78850492D01*
X218878796Y-78685576D01*
X218935857Y-78666151D01*
X218994733Y-78653206D01*
X219113940Y-78605526D01*
X219799105Y-78286029D01*
X219850666Y-78254803D01*
X219905389Y-78229517D01*
X220011577Y-78157352D01*
X220612151Y-77698178D01*
X220655805Y-77656607D01*
X220703818Y-77620163D01*
X220792033Y-77526879D01*
X221279997Y-76949451D01*
X221313701Y-76899483D01*
X221352775Y-76853571D01*
X221418900Y-76743520D01*
X221771486Y-76074781D01*
X221793677Y-76018733D01*
X221821977Y-75965508D01*
X221862928Y-75843825D01*
X222063687Y-75114973D01*
X222073324Y-75055469D01*
X222089535Y-74997409D01*
X222103401Y-74869771D01*
X222142967Y-74114812D01*
X222139602Y-74054625D01*
X222142967Y-73994437D01*
X222129101Y-73866799D01*
X222005627Y-73120956D01*
X221989417Y-73062898D01*
X221979779Y-73003392D01*
X221938828Y-72881708D01*
X221658076Y-72179777D01*
X221629775Y-72126551D01*
X221607585Y-72070505D01*
X221541468Y-71960468D01*
X221541460Y-71960454D01*
X221541455Y-71960448D01*
X221116527Y-71335184D01*
X221077458Y-71289279D01*
X221043749Y-71239303D01*
X220955534Y-71146019D01*
X220406248Y-70626584D01*
X220358231Y-70590137D01*
X220314579Y-70548568D01*
X220208400Y-70476408D01*
X220208391Y-70476402D01*
X220208387Y-70476400D01*
X219560375Y-70087036D01*
X219505655Y-70061752D01*
X219454093Y-70030525D01*
X219334886Y-69982846D01*
X219334887Y-69982846D01*
X219334881Y-69982844D01*
X218618378Y-69741714D01*
X218559505Y-69728770D01*
X218502439Y-69709343D01*
X218375773Y-69688373D01*
X217674603Y-69612202D01*
X217613261Y-69600000D01*
X191386739Y-69600000D01*
X191355018Y-69606310D01*
X191045665Y-69623605D01*
X191015862Y-69628539D01*
X190985659Y-69628539D01*
X190858993Y-69649508D01*
X190121204Y-69814424D01*
X190064142Y-69833850D01*
X190005268Y-69846794D01*
X189886060Y-69894473D01*
X189200895Y-70213971D01*
X189149334Y-70245197D01*
X189094611Y-70270483D01*
X188988423Y-70342648D01*
X188387850Y-70801821D01*
X188344196Y-70843392D01*
X188296182Y-70879837D01*
X188207967Y-70973121D01*
X187720003Y-71550548D01*
X187686293Y-71600525D01*
X187647225Y-71646430D01*
X187581106Y-71756472D01*
X187581100Y-71756480D01*
X187581100Y-71756481D01*
X187228514Y-72425219D01*
X187206324Y-72481265D01*
X187178023Y-72534491D01*
X187137072Y-72656175D01*
X186936313Y-73385027D01*
X186926675Y-73444531D01*
X186910465Y-73502591D01*
X186896599Y-73630229D01*
X186857033Y-74385188D01*
X171075000Y-74385188D01*
X171075000Y-57945278D01*
X173185275Y-55835004D01*
X173275031Y-55775031D01*
X173512627Y-55419444D01*
X173575000Y-55105875D01*
X173575000Y-55105872D01*
X173596059Y-55000000D01*
X173575000Y-54894129D01*
X173575000Y-35445278D01*
X177945279Y-31075000D01*
X178598476Y-31075000D01*
X178217409Y-31232843D01*
M02*
