G04 #@! TF.GenerationSoftware,KiCad,Pcbnew,(5.0.0)*
G04 #@! TF.CreationDate,2020-08-12T18:59:31-04:00*
G04 #@! TF.ProjectId,WS2812 Clock,57533238313220436C6F636B2E6B6963,rev?*
G04 #@! TF.SameCoordinates,Original*
G04 #@! TF.FileFunction,Legend,Top*
G04 #@! TF.FilePolarity,Positive*
%FSLAX46Y46*%
G04 Gerber Fmt 4.6, Leading zero omitted, Abs format (unit mm)*
G04 Created by KiCad (PCBNEW (5.0.0)) date 08/12/20 18:59:31*
%MOMM*%
%LPD*%
G01*
G04 APERTURE LIST*
%ADD10C,0.300000*%
%ADD11C,0.150000*%
G04 APERTURE END LIST*
D10*
G04 #@! TO.C,REF\002A\002A*
X236750000Y-70500000D02*
X241250000Y-70500000D01*
X236750000Y-70500000D02*
G75*
G02X235250000Y-69000000I0J1500000D01*
G01*
X235250000Y-66000000D02*
X235250000Y-69000000D01*
X235250000Y-66000000D02*
G75*
G02X236750000Y-64500000I1500000J0D01*
G01*
X241250000Y-64500000D02*
X236750000Y-64500000D01*
X241250000Y-64500000D02*
G75*
G02X242750000Y-66000000I0J-1500000D01*
G01*
X242750000Y-69000000D02*
G75*
G02X241250000Y-70500000I-1500000J0D01*
G01*
X242750000Y-69000000D02*
X242750000Y-66000000D01*
X192250000Y-39000000D02*
X218250000Y-39000000D01*
X218250000Y-32000000D02*
X192250000Y-32000000D01*
X218250000Y-39000000D02*
G75*
G03X218250000Y-32000000I0J3500000D01*
G01*
X192250000Y-39000000D02*
G75*
G02X192250000Y-32000000I0J3500000D01*
G01*
X217500000Y-70750000D02*
X191500000Y-70750000D01*
X191500000Y-77750000D02*
X217500000Y-77750000D01*
X191500000Y-70750000D02*
G75*
G03X191500000Y-77750000I0J-3500000D01*
G01*
X217500000Y-70750000D02*
G75*
G02X217500000Y-77750000I0J-3500000D01*
G01*
X178500000Y-41500000D02*
X178500000Y-67500000D01*
X185500000Y-67500000D02*
X185500000Y-41500000D01*
X178500000Y-67500000D02*
G75*
G03X185500000Y-67500000I3500000J0D01*
G01*
X178500000Y-41500000D02*
G75*
G02X185500000Y-41500000I3500000J0D01*
G01*
X222500000Y-79500000D02*
X222500000Y-105500000D01*
X229500000Y-105500000D02*
X229500000Y-79500000D01*
X222500000Y-105500000D02*
G75*
G03X229500000Y-105500000I3500000J0D01*
G01*
X222500000Y-79500000D02*
G75*
G02X229500000Y-79500000I3500000J0D01*
G01*
X176750000Y-80000000D02*
X176750000Y-106000000D01*
X183750000Y-106000000D02*
X183750000Y-80000000D01*
X176750000Y-106000000D02*
G75*
G03X183750000Y-106000000I3500000J0D01*
G01*
X176750000Y-80000000D02*
G75*
G02X183750000Y-80000000I3500000J0D01*
G01*
X190750000Y-115750000D02*
X216750000Y-115750000D01*
X216750000Y-108750000D02*
X190750000Y-108750000D01*
X216750000Y-115750000D02*
G75*
G03X216750000Y-108750000I0J3500000D01*
G01*
X190750000Y-115750000D02*
G75*
G02X190750000Y-108750000I0J3500000D01*
G01*
X224250000Y-42000000D02*
X224250000Y-68000000D01*
X231250000Y-68000000D02*
X231250000Y-42000000D01*
X224250000Y-68000000D02*
G75*
G03X231250000Y-68000000I3500000J0D01*
G01*
X224250000Y-42000000D02*
G75*
G02X231250000Y-42000000I3500000J0D01*
G01*
X242000000Y-81750000D02*
X242000000Y-78750000D01*
X242000000Y-81750000D02*
G75*
G02X240500000Y-83250000I-1500000J0D01*
G01*
X240500000Y-77250000D02*
G75*
G02X242000000Y-78750000I0J-1500000D01*
G01*
X240500000Y-77250000D02*
X236000000Y-77250000D01*
X234500000Y-78750000D02*
G75*
G02X236000000Y-77250000I1500000J0D01*
G01*
X234500000Y-78750000D02*
X234500000Y-81750000D01*
X236000000Y-83250000D02*
G75*
G02X234500000Y-81750000I0J1500000D01*
G01*
X236000000Y-83250000D02*
X240500000Y-83250000D01*
D11*
X264166666Y-79702380D02*
X263833333Y-79226190D01*
X263595238Y-79702380D02*
X263595238Y-78702380D01*
X263976190Y-78702380D01*
X264071428Y-78750000D01*
X264119047Y-78797619D01*
X264166666Y-78892857D01*
X264166666Y-79035714D01*
X264119047Y-79130952D01*
X264071428Y-79178571D01*
X263976190Y-79226190D01*
X263595238Y-79226190D01*
X264595238Y-79178571D02*
X264928571Y-79178571D01*
X265071428Y-79702380D02*
X264595238Y-79702380D01*
X264595238Y-78702380D01*
X265071428Y-78702380D01*
X265833333Y-79178571D02*
X265500000Y-79178571D01*
X265500000Y-79702380D02*
X265500000Y-78702380D01*
X265976190Y-78702380D01*
X266500000Y-78702380D02*
X266500000Y-78940476D01*
X266261904Y-78845238D02*
X266500000Y-78940476D01*
X266738095Y-78845238D01*
X266357142Y-79130952D02*
X266500000Y-78940476D01*
X266642857Y-79130952D01*
X267261904Y-78702380D02*
X267261904Y-78940476D01*
X267023809Y-78845238D02*
X267261904Y-78940476D01*
X267500000Y-78845238D01*
X267119047Y-79130952D02*
X267261904Y-78940476D01*
X267404761Y-79130952D01*
X168202380Y-61333333D02*
X167726190Y-61666666D01*
X168202380Y-61904761D02*
X167202380Y-61904761D01*
X167202380Y-61523809D01*
X167250000Y-61428571D01*
X167297619Y-61380952D01*
X167392857Y-61333333D01*
X167535714Y-61333333D01*
X167630952Y-61380952D01*
X167678571Y-61428571D01*
X167726190Y-61523809D01*
X167726190Y-61904761D01*
X167678571Y-60904761D02*
X167678571Y-60571428D01*
X168202380Y-60428571D02*
X168202380Y-60904761D01*
X167202380Y-60904761D01*
X167202380Y-60428571D01*
X167678571Y-59666666D02*
X167678571Y-60000000D01*
X168202380Y-60000000D02*
X167202380Y-60000000D01*
X167202380Y-59523809D01*
X167202380Y-59000000D02*
X167440476Y-59000000D01*
X167345238Y-59238095D02*
X167440476Y-59000000D01*
X167345238Y-58761904D01*
X167630952Y-59142857D02*
X167440476Y-59000000D01*
X167630952Y-58857142D01*
X167202380Y-58238095D02*
X167440476Y-58238095D01*
X167345238Y-58476190D02*
X167440476Y-58238095D01*
X167345238Y-58000000D01*
X167630952Y-58380952D02*
X167440476Y-58238095D01*
X167630952Y-58095238D01*
X169702380Y-50083333D02*
X169226190Y-50416666D01*
X169702380Y-50654761D02*
X168702380Y-50654761D01*
X168702380Y-50273809D01*
X168750000Y-50178571D01*
X168797619Y-50130952D01*
X168892857Y-50083333D01*
X169035714Y-50083333D01*
X169130952Y-50130952D01*
X169178571Y-50178571D01*
X169226190Y-50273809D01*
X169226190Y-50654761D01*
X169178571Y-49654761D02*
X169178571Y-49321428D01*
X169702380Y-49178571D02*
X169702380Y-49654761D01*
X168702380Y-49654761D01*
X168702380Y-49178571D01*
X169178571Y-48416666D02*
X169178571Y-48750000D01*
X169702380Y-48750000D02*
X168702380Y-48750000D01*
X168702380Y-48273809D01*
X168702380Y-47750000D02*
X168940476Y-47750000D01*
X168845238Y-47988095D02*
X168940476Y-47750000D01*
X168845238Y-47511904D01*
X169130952Y-47892857D02*
X168940476Y-47750000D01*
X169130952Y-47607142D01*
X168702380Y-46988095D02*
X168940476Y-46988095D01*
X168845238Y-47226190D02*
X168940476Y-46988095D01*
X168845238Y-46750000D01*
X169130952Y-47130952D02*
X168940476Y-46988095D01*
X169130952Y-46845238D01*
X154166666Y-49452380D02*
X153833333Y-48976190D01*
X153595238Y-49452380D02*
X153595238Y-48452380D01*
X153976190Y-48452380D01*
X154071428Y-48500000D01*
X154119047Y-48547619D01*
X154166666Y-48642857D01*
X154166666Y-48785714D01*
X154119047Y-48880952D01*
X154071428Y-48928571D01*
X153976190Y-48976190D01*
X153595238Y-48976190D01*
X154595238Y-48928571D02*
X154928571Y-48928571D01*
X155071428Y-49452380D02*
X154595238Y-49452380D01*
X154595238Y-48452380D01*
X155071428Y-48452380D01*
X155833333Y-48928571D02*
X155500000Y-48928571D01*
X155500000Y-49452380D02*
X155500000Y-48452380D01*
X155976190Y-48452380D01*
X156500000Y-48452380D02*
X156500000Y-48690476D01*
X156261904Y-48595238D02*
X156500000Y-48690476D01*
X156738095Y-48595238D01*
X156357142Y-48880952D02*
X156500000Y-48690476D01*
X156642857Y-48880952D01*
X157261904Y-48452380D02*
X157261904Y-48690476D01*
X157023809Y-48595238D02*
X157261904Y-48690476D01*
X157500000Y-48595238D01*
X157119047Y-48880952D02*
X157261904Y-48690476D01*
X157404761Y-48880952D01*
X163916666Y-81702380D02*
X163583333Y-81226190D01*
X163345238Y-81702380D02*
X163345238Y-80702380D01*
X163726190Y-80702380D01*
X163821428Y-80750000D01*
X163869047Y-80797619D01*
X163916666Y-80892857D01*
X163916666Y-81035714D01*
X163869047Y-81130952D01*
X163821428Y-81178571D01*
X163726190Y-81226190D01*
X163345238Y-81226190D01*
X164345238Y-81178571D02*
X164678571Y-81178571D01*
X164821428Y-81702380D02*
X164345238Y-81702380D01*
X164345238Y-80702380D01*
X164821428Y-80702380D01*
X165583333Y-81178571D02*
X165250000Y-81178571D01*
X165250000Y-81702380D02*
X165250000Y-80702380D01*
X165726190Y-80702380D01*
X166250000Y-80702380D02*
X166250000Y-80940476D01*
X166011904Y-80845238D02*
X166250000Y-80940476D01*
X166488095Y-80845238D01*
X166107142Y-81130952D02*
X166250000Y-80940476D01*
X166392857Y-81130952D01*
X167011904Y-80702380D02*
X167011904Y-80940476D01*
X166773809Y-80845238D02*
X167011904Y-80940476D01*
X167250000Y-80845238D01*
X166869047Y-81130952D02*
X167011904Y-80940476D01*
X167154761Y-81130952D01*
X152416666Y-87952380D02*
X152083333Y-87476190D01*
X151845238Y-87952380D02*
X151845238Y-86952380D01*
X152226190Y-86952380D01*
X152321428Y-87000000D01*
X152369047Y-87047619D01*
X152416666Y-87142857D01*
X152416666Y-87285714D01*
X152369047Y-87380952D01*
X152321428Y-87428571D01*
X152226190Y-87476190D01*
X151845238Y-87476190D01*
X152845238Y-87428571D02*
X153178571Y-87428571D01*
X153321428Y-87952380D02*
X152845238Y-87952380D01*
X152845238Y-86952380D01*
X153321428Y-86952380D01*
X154083333Y-87428571D02*
X153750000Y-87428571D01*
X153750000Y-87952380D02*
X153750000Y-86952380D01*
X154226190Y-86952380D01*
X154750000Y-86952380D02*
X154750000Y-87190476D01*
X154511904Y-87095238D02*
X154750000Y-87190476D01*
X154988095Y-87095238D01*
X154607142Y-87380952D02*
X154750000Y-87190476D01*
X154892857Y-87380952D01*
X155511904Y-86952380D02*
X155511904Y-87190476D01*
X155273809Y-87095238D02*
X155511904Y-87190476D01*
X155750000Y-87095238D01*
X155369047Y-87380952D02*
X155511904Y-87190476D01*
X155654761Y-87380952D01*
X198702380Y-140083333D02*
X198226190Y-140416666D01*
X198702380Y-140654761D02*
X197702380Y-140654761D01*
X197702380Y-140273809D01*
X197750000Y-140178571D01*
X197797619Y-140130952D01*
X197892857Y-140083333D01*
X198035714Y-140083333D01*
X198130952Y-140130952D01*
X198178571Y-140178571D01*
X198226190Y-140273809D01*
X198226190Y-140654761D01*
X198178571Y-139654761D02*
X198178571Y-139321428D01*
X198702380Y-139178571D02*
X198702380Y-139654761D01*
X197702380Y-139654761D01*
X197702380Y-139178571D01*
X198178571Y-138416666D02*
X198178571Y-138750000D01*
X198702380Y-138750000D02*
X197702380Y-138750000D01*
X197702380Y-138273809D01*
X197702380Y-137750000D02*
X197940476Y-137750000D01*
X197845238Y-137988095D02*
X197940476Y-137750000D01*
X197845238Y-137511904D01*
X198130952Y-137892857D02*
X197940476Y-137750000D01*
X198130952Y-137607142D01*
X197702380Y-136988095D02*
X197940476Y-136988095D01*
X197845238Y-137226190D02*
X197940476Y-136988095D01*
X197845238Y-136750000D01*
X198130952Y-137130952D02*
X197940476Y-136988095D01*
X198130952Y-136845238D01*
X164166666Y-49202380D02*
X163833333Y-48726190D01*
X163595238Y-49202380D02*
X163595238Y-48202380D01*
X163976190Y-48202380D01*
X164071428Y-48250000D01*
X164119047Y-48297619D01*
X164166666Y-48392857D01*
X164166666Y-48535714D01*
X164119047Y-48630952D01*
X164071428Y-48678571D01*
X163976190Y-48726190D01*
X163595238Y-48726190D01*
X164595238Y-48678571D02*
X164928571Y-48678571D01*
X165071428Y-49202380D02*
X164595238Y-49202380D01*
X164595238Y-48202380D01*
X165071428Y-48202380D01*
X165833333Y-48678571D02*
X165500000Y-48678571D01*
X165500000Y-49202380D02*
X165500000Y-48202380D01*
X165976190Y-48202380D01*
X166500000Y-48202380D02*
X166500000Y-48440476D01*
X166261904Y-48345238D02*
X166500000Y-48440476D01*
X166738095Y-48345238D01*
X166357142Y-48630952D02*
X166500000Y-48440476D01*
X166642857Y-48630952D01*
X167261904Y-48202380D02*
X167261904Y-48440476D01*
X167023809Y-48345238D02*
X167261904Y-48440476D01*
X167500000Y-48345238D01*
X167119047Y-48630952D02*
X167261904Y-48440476D01*
X167404761Y-48630952D01*
X232266666Y-28952380D02*
X231933333Y-28476190D01*
X231695238Y-28952380D02*
X231695238Y-27952380D01*
X232076190Y-27952380D01*
X232171428Y-28000000D01*
X232219047Y-28047619D01*
X232266666Y-28142857D01*
X232266666Y-28285714D01*
X232219047Y-28380952D01*
X232171428Y-28428571D01*
X232076190Y-28476190D01*
X231695238Y-28476190D01*
X232695238Y-28428571D02*
X233028571Y-28428571D01*
X233171428Y-28952380D02*
X232695238Y-28952380D01*
X232695238Y-27952380D01*
X233171428Y-27952380D01*
X233933333Y-28428571D02*
X233600000Y-28428571D01*
X233600000Y-28952380D02*
X233600000Y-27952380D01*
X234076190Y-27952380D01*
X234600000Y-27952380D02*
X234600000Y-28190476D01*
X234361904Y-28095238D02*
X234600000Y-28190476D01*
X234838095Y-28095238D01*
X234457142Y-28380952D02*
X234600000Y-28190476D01*
X234742857Y-28380952D01*
X235361904Y-27952380D02*
X235361904Y-28190476D01*
X235123809Y-28095238D02*
X235361904Y-28190476D01*
X235600000Y-28095238D01*
X235219047Y-28380952D02*
X235361904Y-28190476D01*
X235504761Y-28380952D01*
X176466666Y-28952380D02*
X176133333Y-28476190D01*
X175895238Y-28952380D02*
X175895238Y-27952380D01*
X176276190Y-27952380D01*
X176371428Y-28000000D01*
X176419047Y-28047619D01*
X176466666Y-28142857D01*
X176466666Y-28285714D01*
X176419047Y-28380952D01*
X176371428Y-28428571D01*
X176276190Y-28476190D01*
X175895238Y-28476190D01*
X176895238Y-28428571D02*
X177228571Y-28428571D01*
X177371428Y-28952380D02*
X176895238Y-28952380D01*
X176895238Y-27952380D01*
X177371428Y-27952380D01*
X178133333Y-28428571D02*
X177800000Y-28428571D01*
X177800000Y-28952380D02*
X177800000Y-27952380D01*
X178276190Y-27952380D01*
X178800000Y-27952380D02*
X178800000Y-28190476D01*
X178561904Y-28095238D02*
X178800000Y-28190476D01*
X179038095Y-28095238D01*
X178657142Y-28380952D02*
X178800000Y-28190476D01*
X178942857Y-28380952D01*
X179561904Y-27952380D02*
X179561904Y-28190476D01*
X179323809Y-28095238D02*
X179561904Y-28190476D01*
X179800000Y-28095238D01*
X179419047Y-28380952D02*
X179561904Y-28190476D01*
X179704761Y-28380952D01*
X173266666Y-118652380D02*
X172933333Y-118176190D01*
X172695238Y-118652380D02*
X172695238Y-117652380D01*
X173076190Y-117652380D01*
X173171428Y-117700000D01*
X173219047Y-117747619D01*
X173266666Y-117842857D01*
X173266666Y-117985714D01*
X173219047Y-118080952D01*
X173171428Y-118128571D01*
X173076190Y-118176190D01*
X172695238Y-118176190D01*
X173695238Y-118128571D02*
X174028571Y-118128571D01*
X174171428Y-118652380D02*
X173695238Y-118652380D01*
X173695238Y-117652380D01*
X174171428Y-117652380D01*
X174933333Y-118128571D02*
X174600000Y-118128571D01*
X174600000Y-118652380D02*
X174600000Y-117652380D01*
X175076190Y-117652380D01*
X175600000Y-117652380D02*
X175600000Y-117890476D01*
X175361904Y-117795238D02*
X175600000Y-117890476D01*
X175838095Y-117795238D01*
X175457142Y-118080952D02*
X175600000Y-117890476D01*
X175742857Y-118080952D01*
X176361904Y-117652380D02*
X176361904Y-117890476D01*
X176123809Y-117795238D02*
X176361904Y-117890476D01*
X176600000Y-117795238D01*
X176219047Y-118080952D02*
X176361904Y-117890476D01*
X176504761Y-118080952D01*
X251416666Y-76702380D02*
X251083333Y-76226190D01*
X250845238Y-76702380D02*
X250845238Y-75702380D01*
X251226190Y-75702380D01*
X251321428Y-75750000D01*
X251369047Y-75797619D01*
X251416666Y-75892857D01*
X251416666Y-76035714D01*
X251369047Y-76130952D01*
X251321428Y-76178571D01*
X251226190Y-76226190D01*
X250845238Y-76226190D01*
X251845238Y-76178571D02*
X252178571Y-76178571D01*
X252321428Y-76702380D02*
X251845238Y-76702380D01*
X251845238Y-75702380D01*
X252321428Y-75702380D01*
X253083333Y-76178571D02*
X252750000Y-76178571D01*
X252750000Y-76702380D02*
X252750000Y-75702380D01*
X253226190Y-75702380D01*
X253750000Y-75702380D02*
X253750000Y-75940476D01*
X253511904Y-75845238D02*
X253750000Y-75940476D01*
X253988095Y-75845238D01*
X253607142Y-76130952D02*
X253750000Y-75940476D01*
X253892857Y-76130952D01*
X254511904Y-75702380D02*
X254511904Y-75940476D01*
X254273809Y-75845238D02*
X254511904Y-75940476D01*
X254750000Y-75845238D01*
X254369047Y-76130952D02*
X254511904Y-75940476D01*
X254654761Y-76130952D01*
G04 #@! TD*
M02*
